<svg xmlns="http://www.w3.org/2000/svg" xmlns:xlink="http://www.w3.org/1999/xlink" viewBox="0 0 86.1 86.1"><defs><style>.cls-1,.cls-10{opacity:0.3;}.cls-2{fill:url(#linear-gradient);}.cls-3{fill:url(#linear-gradient-2);}.cls-4{fill:url(#linear-gradient-3);}.cls-5{fill:url(#linear-gradient-4);}.cls-6{fill:url(#linear-gradient-5);}.cls-7{fill:url(#linear-gradient-6);}.cls-8{fill:url(#linear-gradient-7);}.cls-9{fill:url(#linear-gradient-10);}.cls-10{fill:none;stroke:#7673c0;stroke-miterlimit:10;stroke-width:1.8px;}</style><linearGradient id="linear-gradient" x1="36.17" y1="53.11" x2="48.58" y2="53.11" gradientUnits="userSpaceOnUse"><stop offset="0" stop-color="#7ec7e6"/><stop offset="1" stop-color="#95acf1"/></linearGradient><linearGradient id="linear-gradient-2" x1="24.4" y1="43.02" x2="40.64" y2="43.02" xlink:href="#linear-gradient"/><linearGradient id="linear-gradient-3" x1="7.66" y1="52.19" x2="71.63" y2="52.19" xlink:href="#linear-gradient"/><linearGradient id="linear-gradient-4" x1="37.82" y1="41.76" x2="61.97" y2="41.76" xlink:href="#linear-gradient"/><linearGradient id="linear-gradient-5" x1="14.94" y1="34.06" x2="78.72" y2="34.06" xlink:href="#linear-gradient"/><linearGradient id="linear-gradient-6" x1="36.17" y1="53.11" x2="48.58" y2="53.11" xlink:href="#linear-gradient"/><linearGradient id="linear-gradient-7" x1="24.4" y1="43.02" x2="40.64" y2="43.02" xlink:href="#linear-gradient"/><linearGradient id="linear-gradient-10" x1="14.94" y1="34.06" x2="78.72" y2="34.06" xlink:href="#linear-gradient"/></defs><title>clojure</title><g id="ecosystem-2" data-name="ecosystem"><g class="cls-1"><path class="cls-2" d="M40.47,46.53a64,64,0,0,0-3.86,9.57,14,14,0,0,0-.43,3.23c0,.49,0,1,0,1.53a18.71,18.71,0,0,0,12.38.55,11.92,11.92,0,0,1-1.2-1.34c-2.42-3.3-3.69-8-5.68-16C41.32,44.77,40.91,45.62,40.47,46.53Z"/><path class="cls-3" d="M32.85,27.76a18.74,18.74,0,0,0-1.12,30.53c1.3-4.77,4.32-9.08,8.91-17.76-.24-.71-.51-1.49-.81-2.32-1.11-3-2.74-6.59-4.24-8.22A12.31,12.31,0,0,0,32.85,27.76Z"/><path class="cls-4" d="M58.91,65.45a31.35,31.35,0,0,1-6.3-1.51A22.57,22.57,0,0,1,28.82,26a16.27,16.27,0,0,0-3.9-.59C18.3,25.29,11.2,28.75,8,38.56a18.26,18.26,0,0,0-.32,3.81,35.52,35.52,0,0,0,64,22.33,41.34,41.34,0,0,1-9.72,1A26.84,26.84,0,0,1,58.91,65.45Z"/><path class="cls-5" d="M52.44,58.37a10.6,10.6,0,0,0,1.39.52A18.79,18.79,0,0,0,62,44h0A18.78,18.78,0,0,0,37.82,25.43c3.69,4.46,5.34,10.72,6.91,17.57h0s.51,1.9,1.41,4.43a42.88,42.88,0,0,0,3.59,7.94A8.26,8.26,0,0,0,52.44,58.37Z"/><path class="cls-6" d="M44.24,7.91a35.48,35.48,0,0,0-29.3,14,18,18,0,0,1,9.85-2.54,19.07,19.07,0,0,1,8.87,2.43c.37.23.72.47,1.06.72a22.57,22.57,0,0,1,31,21.59h0A22.46,22.46,0,0,1,58.56,60a29.54,29.54,0,0,0,3.21.27C65.7,60.34,70,59.6,73.24,57a15,15,0,0,0,5-8,35.49,35.49,0,0,0-34-41.09Z"/></g><path class="cls-7" d="M41,52a37.57,37.57,0,0,0,2.86,7.53l-.68,0h-.44a15.76,15.76,0,0,1-3.82-.58,11.27,11.27,0,0,1,.32-2.14A38.22,38.22,0,0,1,41,52M41.7,44c-.38.75-.79,1.6-1.23,2.51a64,64,0,0,0-3.86,9.57,14,14,0,0,0-.43,3.23c0,.49,0,1,0,1.53a18.77,18.77,0,0,0,6.43,1.34h.53a18.7,18.7,0,0,0,5.42-.8,11.92,11.92,0,0,1-1.2-1.34c-2.42-3.3-3.69-8-5.68-16Z"/><path class="cls-8" d="M32.87,31.1a7.11,7.11,0,0,1,.73.72c1,1.11,2.48,4,3.7,7.33l.41,1.14c-1.18,2.2-2.24,4.1-3.2,5.81-1.57,2.8-2.87,5.13-3.87,7.35A16,16,0,0,1,32.87,31.1m0-3.34a18.74,18.74,0,0,0-1.12,30.53c1.3-4.77,4.32-9.08,8.91-17.76-.24-.71-.51-1.49-.81-2.32-1.11-3-2.74-6.59-4.24-8.22a12.31,12.31,0,0,0-2.74-2.23Z"/><path class="cls-4" d="M23,28.2A25.26,25.26,0,0,0,42.44,68.68l.76,0a25.1,25.1,0,0,0,9.51-1.86,36.77,36.77,0,0,0,5.79,1.27,28.2,28.2,0,0,0,3.34.3h.92c.56,0,1.15,0,1.74,0a33,33,0,0,1-21.29,7.87h-1A32.83,32.83,0,0,1,10.38,42.45c0-.22,0-.43,0-.64a13.44,13.44,0,0,1,.22-2.55C13.44,30.75,19.09,28.6,23,28.2m1.52-2.78C18,25.42,11.14,28.93,8,38.56a18.26,18.26,0,0,0-.32,3.81A35.53,35.53,0,0,0,42.14,78.94h1.07A35.47,35.47,0,0,0,71.63,64.7a42.31,42.31,0,0,1-8.87,1h-.85a26.84,26.84,0,0,1-3-.26,31.35,31.35,0,0,1-6.3-1.51A22.47,22.47,0,0,1,43.2,66h-.68a22.57,22.57,0,0,1-13.7-40,16.27,16.27,0,0,0-3.9-.59Z"/><path class="cls-5" d="M43.22,27.34h.44A16.15,16.15,0,0,1,59.27,43.9V44A16,16,0,0,1,53.45,55.8,8.87,8.87,0,0,1,52,54a40,40,0,0,1-3.34-7.42c-.71-2-1.17-3.61-1.34-4.2h0c-1.28-5.59-2.6-10.68-5-15l.85,0m0-2.7a19,19,0,0,0-5.4.79c3.69,4.46,5.34,10.72,6.91,17.57h0s.51,1.9,1.41,4.43a42.88,42.88,0,0,0,3.59,7.94,8.26,8.26,0,0,0,2.71,3,10.6,10.6,0,0,0,1.39.52A18.79,18.79,0,0,0,62,44h0A18.8,18.8,0,0,0,43.75,24.65Z"/><path class="cls-9" d="M43.17,10.59l1,0A32.86,32.86,0,0,1,76,44.4a33.75,33.75,0,0,1-.37,4,12.31,12.31,0,0,1-4.06,6.48,13.66,13.66,0,0,1-7.36,2.57,25.11,25.11,0,0,0,4.24-13.19v-.11a25.31,25.31,0,0,0-24.51-26h-.76a24.91,24.91,0,0,0-8.09,1.34l0,0A21.56,21.56,0,0,0,24.9,16.65l-.71,0a32.57,32.57,0,0,1,19-6m0-2.7a35.47,35.47,0,0,0-28.23,14,18.09,18.09,0,0,1,9.19-2.56l.66,0a19.07,19.07,0,0,1,8.87,2.43c.37.23.72.47,1.06.72a22.53,22.53,0,0,1,8.46-1.65h.68A22.57,22.57,0,0,1,65.75,44.09h0A22.46,22.46,0,0,1,58.56,60a29.54,29.54,0,0,0,3.21.27h.78c3.71,0,7.64-.8,10.69-3.22a15,15,0,0,0,5-8,35.49,35.49,0,0,0-34-41.09l-1.07,0Z"/><circle class="cls-10" cx="43.05" cy="43.05" r="42.15"/></g></svg>