<svg xmlns="http://www.w3.org/2000/svg" xmlns:xlink="http://www.w3.org/1999/xlink" viewBox="0 0 160.64 44"><defs><style>.cls-1{opacity:0.5;fill:url(#linear-gradient);}.cls-2{fill:none;stroke:#7673c0;stroke-linecap:round;stroke-linejoin:round;stroke-width:1.62px;opacity:0.3;}</style><linearGradient id="linear-gradient" x1="30.51" y1="22" x2="130.14" y2="22" gradientUnits="userSpaceOnUse"><stop offset="0" stop-color="#93aff0"/><stop offset="1" stop-color="#b28cff"/></linearGradient></defs><title>Artboard 52</title><g id="Stickers"><path class="cls-1" d="M30.51,29.51v-2h2.55V21H30.63v-2h5v8.56h2.32v2Zm2.86-12.65a1.54,1.54,0,0,1-.58-.55,1.41,1.41,0,0,1-.21-.74A1.44,1.44,0,0,1,33,14.49a1.58,1.58,0,0,1,1.15-.43,1.61,1.61,0,0,1,1.37.76,1.37,1.37,0,0,1,0,1.49,1.64,1.64,0,0,1-.59.55,1.59,1.59,0,0,1-1.58,0ZM59.8,28.62l-9.93-5.81V21.49l9.85-5.2v2.25l-7.09,3.63,7.17,4ZM71,23.21a3.81,3.81,0,0,1,.68,2.33,4.43,4.43,0,0,1-.57,2.23,4.08,4.08,0,0,1-1.65,1.59,5.28,5.28,0,0,1-2.55.58A5.34,5.34,0,0,1,62.47,28l1.06-2.12h0v0a3.12,3.12,0,0,0,1.3,1.38,4.48,4.48,0,0,0,2.07.42,2.14,2.14,0,0,0,1.63-.62,2.41,2.41,0,0,0,.58-1.67,2.12,2.12,0,0,0-.64-1.7,3.22,3.22,0,0,0-2.16-.56c-.35,0-.75,0-1.18.06v-2h.47a4,4,0,0,0,2.44-.56,2,2,0,0,0,.68-1.58,1.86,1.86,0,0,0-.48-1.33,1.79,1.79,0,0,0-1.36-.51,3.62,3.62,0,0,0-1.41.27,4.36,4.36,0,0,0-1.36.92L62.7,16.94a5.07,5.07,0,0,1,1.88-1.43,5.57,5.57,0,0,1,2.3-.47,5.15,5.15,0,0,1,2.3.49,3.82,3.82,0,0,1,1.56,1.35,3.43,3.43,0,0,1,.56,1.93,3.29,3.29,0,0,1-.58,2A3.44,3.44,0,0,1,69.33,22,3.47,3.47,0,0,1,71,23.21Zm-7.5,2.55s0,0,0,0l.09,0-.07.13A.34.34,0,0,1,63.49,25.76Zm.37.12s0,0,0,0a.24.24,0,0,1-.12-.05l-.12-.07v0l.23.11Zm26.06,1.48a3.88,3.88,0,0,0,1.29-1.08L92.69,28a5.43,5.43,0,0,1-1.93,1.42,5.57,5.57,0,0,1-2.26.46,5.37,5.37,0,0,1-2.77-.72,5,5,0,0,1-1.9-2,6,6,0,0,1-.68-2.85,6,6,0,0,1,.68-2.86,5,5,0,0,1,1.91-2,5.2,5.2,0,0,1,2.79-.75,5.66,5.66,0,0,1,2.45.54,4.2,4.2,0,0,1,1.79,1.5l-1.42,1.67v0h0a3.32,3.32,0,0,0-1.13-1.21,3.25,3.25,0,0,0-1.67-.39,2.48,2.48,0,0,0-1.42.44,3.12,3.12,0,0,0-1,1.26,4.54,4.54,0,0,0-.37,1.86,4.19,4.19,0,0,0,.35,1.76,2.64,2.64,0,0,0,1,1.17,2.61,2.61,0,0,0,1.44.41A3.28,3.28,0,0,0,89.92,27.36Zm1.11-5a0,0,0,0,1,0,0s.11.05.22.16l0,.05-.2-.16Zm.38.2s0,0,0,0-.06,0-.12-.09l.06-.08A.66.66,0,0,1,91.41,22.55Zm6.5,6.6a5.11,5.11,0,0,1-1.82-2,6.35,6.35,0,0,1-.66-2.93,5.76,5.76,0,0,1,.68-2.81,5.13,5.13,0,0,1,1.83-2,4.71,4.71,0,0,1,5.07,0,5.13,5.13,0,0,1,1.83,2,5.87,5.87,0,0,1,.68,2.81,6.23,6.23,0,0,1-.67,2.93,5,5,0,0,1-1.81,2,4.93,4.93,0,0,1-5.13,0Zm3.88-1.78a2.86,2.86,0,0,0,.86-1.26,5.43,5.43,0,0,0,.3-1.89,5.3,5.3,0,0,0-.3-1.88,2.66,2.66,0,0,0-.86-1.2,2.07,2.07,0,0,0-1.32-.43,2,2,0,0,0-1.27.43,2.7,2.7,0,0,0-.85,1.21,5.28,5.28,0,0,0-.3,1.87,5.5,5.5,0,0,0,.29,1.9,2.83,2.83,0,0,0,.84,1.26,2,2,0,0,0,1.29.44A2,2,0,0,0,101.79,27.37Zm8.38,1.87a4.21,4.21,0,0,1-1.63-1.86,6.81,6.81,0,0,1-.6-3,7,7,0,0,1,.62-3,4.8,4.8,0,0,1,1.64-2,4,4,0,0,1,2.24-.69,3.23,3.23,0,0,1,1.31.3,3.68,3.68,0,0,1,1.15.77V14.18h2.77v.26a.69.69,0,0,0-.16.29,2.67,2.67,0,0,0,0,.54l0,13a4.52,4.52,0,0,0,0,.68,2,2,0,0,0,.2.6h-2.47A1.45,1.45,0,0,1,115,29c0-.17,0-.41,0-.73A2.47,2.47,0,0,1,114,29.44a3,3,0,0,1-1.48.41A4.4,4.4,0,0,1,110.17,29.24Zm4.75-5.16a5.49,5.49,0,0,0-.45-2.43,1.59,1.59,0,0,0-1.57-.91,1.94,1.94,0,0,0-1.79,1,5,5,0,0,0-.59,2.6,4.77,4.77,0,0,0,.34,2,2.6,2.6,0,0,0,.88,1.11,2,2,0,0,0,1.09.34C114.22,27.73,114.92,26.52,114.92,24.08Zm8.24,5.13a4.8,4.8,0,0,1-1.88-1.91,6.15,6.15,0,0,1-.68-2.95,6.6,6.6,0,0,1,.64-3,4.72,4.72,0,0,1,1.79-2,4.8,4.8,0,0,1,2.58-.7,4.46,4.46,0,0,1,2.3.6A4.1,4.1,0,0,1,129.54,21a6.12,6.12,0,0,1,.6,2.82c0,.18,0,.43,0,.76l0,.31h-6.95a3.52,3.52,0,0,0,.91,2.19,2.41,2.41,0,0,0,1.77.73,3.64,3.64,0,0,0,1.48-.33,3.38,3.38,0,0,0,1.22-1L129.9,28a5,5,0,0,1-4,1.9A5.57,5.57,0,0,1,123.16,29.21Zm4.44-6.16a3,3,0,0,0-.26-1.23,2.2,2.2,0,0,0-.75-.9,1.85,1.85,0,0,0-1.11-.34,2,2,0,0,0-1.54.67,3.07,3.07,0,0,0-.73,1.8Z"/><path class="cls-2" d="M14,22v.1A15.32,15.32,0,0,0,29.36,37.37H131.28a15.33,15.33,0,0,0,15.33-15.32h0A15.34,15.34,0,0,0,131.29,6.72L29.38,6.63A15.32,15.32,0,0,0,14,22Z"/></g></svg>