<svg xmlns="http://www.w3.org/2000/svg" xmlns:xlink="http://www.w3.org/1999/xlink" viewBox="0 0 225.6 151.27"><defs><style>.cls-1{fill:url(#New_Gradient_Swatch_11);}.cls-2{fill:url(#New_Gradient_Swatch_11-2);}.cls-3{fill:url(#New_Gradient_Swatch_11-3);}.cls-4,.cls-6{fill:none;}.cls-4{stroke:#7673c0;stroke-linecap:round;stroke-linejoin:round;stroke-width:2.9px;}.cls-5{fill:#7673c0;}.cls-6{stroke:#79589f;stroke-miterlimit:10;stroke-width:1.93px;opacity:0.3;}</style><linearGradient id="New_Gradient_Swatch_11" x1="74.96" y1="55.14" x2="82.87" y2="55.14" gradientUnits="userSpaceOnUse"><stop offset="0" stop-color="#7673c0"/><stop offset="1" stop-color="#7673c0"/></linearGradient><linearGradient id="New_Gradient_Swatch_11-2" x1="106.87" y1="54.91" x2="114.77" y2="54.91" xlink:href="#New_Gradient_Swatch_11"/><linearGradient id="New_Gradient_Swatch_11-3" x1="59.87" y1="56.41" x2="128.28" y2="56.41" xlink:href="#New_Gradient_Swatch_11"/></defs><title>php</title><g id="ecosystem-2" data-name="ecosystem"><path class="cls-1" d="M79.23,51.2l-2.8,0L75,59.08l2.49,0a6,6,0,0,0,3.67-1A4.91,4.91,0,0,0,82.73,55c.27-1.39.14-2.38-.39-2.95S80.79,51.18,79.23,51.2Z"/><path class="cls-2" d="M111.14,51l-2.8,0-1.47,7.86h2.48a6.11,6.11,0,0,0,3.68-1,5,5,0,0,0,1.61-3.12c.26-1.4.13-2.38-.39-2.95S112.69,51,111.14,51Z"/><path class="cls-3" d="M94,39.07c-18.89.14-34.15,8-34.08,17.58S75.3,73.88,94.2,73.74s34.15-8,34.08-17.57S112.84,38.94,94,39.07ZM84.43,59.86a7.37,7.37,0,0,1-2.71,1.65,12.62,12.62,0,0,1-3.81.51l-3.5,0-.94,5-4.09,0L72.9,48.28l7.86-.06q3.54,0,5.19,1.83t1,5.19a8.28,8.28,0,0,1-.88,2.52A8.58,8.58,0,0,1,84.43,59.86Zm11.94,2,1.56-8.31a2.27,2.27,0,0,0-.22-1.94,2.89,2.89,0,0,0-2-.5l-3.24,0-2,10.76-4.06,0,3.52-18.79,4.05,0-.93,5,3.61,0c2.28,0,3.85.37,4.72,1.16s1.13,2.07.8,3.85l-1.64,8.74ZM118.87,55a8.29,8.29,0,0,1-.89,2.52,8.58,8.58,0,0,1-1.65,2.1,7.16,7.16,0,0,1-2.71,1.65,12.53,12.53,0,0,1-3.81.51l-3.5,0-.93,5-4.09,0,3.51-18.79,7.87,0q3.54,0,5.18,1.82C119,51.06,119.28,52.79,118.87,55Z"/><path class="cls-4" d="M168.27,23.27S163.61,7.78,155.44,8.61c-17.14,1.73-16.54,73.88,10,74.72"/><ellipse class="cls-4" cx="188.42" cy="47.96" rx="5.27" ry="8.89" transform="translate(-0.01 95.85) rotate(-28.54)"/><path class="cls-5" d="M194.05,47.37c-1.5-3.76-4.91-5.93-7.61-4.85s-3.67,5-2.16,8.76,4.91,5.93,7.61,4.85S195.56,51.13,194.05,47.37Zm-2.37.51c-.41.22-1-.16-1.41-.84s-.34-1.42.06-1.64,1,.15,1.41.84S192.09,47.66,191.68,47.88Z"/><path class="cls-4" d="M163.48,73.12c-6.59,0-16.75-44.09-5.66-55.58"/><path class="cls-4" d="M176.89,43.29s.22-6.52,5.13-7.75"/><path class="cls-4" d="M184.63,88.65a13.39,13.39,0,0,1-4-16"/><path class="cls-4" d="M176.91,75.25a9.28,9.28,0,0,1,6.85-3.34"/><path class="cls-4" d="M146.89,17.86c-4.89-.48-17.44-3.16-22.71-3.92C99.82,10.43,65.84,3.49,38.5,27.7a35.88,35.88,0,0,0-5.24,5.8C27.34,33.29,13.13,37.89,12,86.55h-.39S5.94,97,8.51,106.07l4-14.34s-1,9.85,2.61,12.94c1.78-5.86,1.29-9.86.84-11.73a25.28,25.28,0,0,0,4.08,6.91,17.65,17.65,0,0,0-4-13.3h-.32c.76-14.62,3.3-31.5,4.39-34.51a19.43,19.43,0,0,1,8.61-10.51c-14.81,35,11.11,95.58,12.66,99.15a.4.4,0,0,0,0,.15c0,1.42,7.71,2.57,17.22,2.57s17.22-1.15,17.22-2.57a.45.45,0,0,0-.09-.25,355.58,355.58,0,0,0,6.37-36.71s13.56,3.57,24.57.11c2.84,17.65,9.36,36.86,9.36,36.86h0s0,0,0,.06c0,1.42,7.62,2.57,17,2.57s17-1.15,17-2.57a.47.47,0,0,0-.11-.28c.1-3.89,1.84-56.59,25.12-56,22.48.59,16.71,48.7,15.79,55.43a1,1,0,0,0-.48.77c0,1.42,4.59,2.57,10.25,2.57s10.24-1.15,10.24-2.57c0,0,22.22-65.28-11.86-102.35-9.76-10.62-21.5-16-32.27-19.1"/><path class="cls-6" d="M203.87,34c-8.6-9.36-19.34-16-32.76-20.23C165.23,1.85,157.88.62,153.82,1c-3.67.37-8.45,2.39-12.16,9.3-2.2-.38-4.63-.84-6.89-1.27-3.8-.71-7.38-1.38-9.75-1.73l-4.59-.67C95.73,3,61.91-2.08,33.9,22.72a44.21,44.21,0,0,0-4.27,4.38,19.44,19.44,0,0,0-9.94,5.22C10.8,40.71,6.06,57.67,5.22,84.11,3.71,87.12-1,97.74,1.89,108a6.74,6.74,0,0,0,6.5,4.91h0a6.72,6.72,0,0,0,4.51-1.73,6.77,6.77,0,0,0,8.58-4.46l.06-.22.33-.09a6.34,6.34,0,0,0,.73-.26,255.82,255.82,0,0,0,12,36.22c1,5.61,7.95,6.64,10.68,7a94.15,94.15,0,0,0,13.17.83,94.4,94.4,0,0,0,13.18-.83c2.92-.44,10.65-1.59,10.8-8.31.91-4,3.33-15.13,5.32-29.27a59.68,59.68,0,0,0,13.36.19,285.76,285.76,0,0,0,8.14,30.34c1,5.66,7.89,6.71,10.62,7.12a92.13,92.13,0,0,0,13,.83,92.38,92.38,0,0,0,13-.83c2.94-.44,10.73-1.62,10.73-8.5a7.56,7.56,0,0,0-.08-1.06,156.38,156.38,0,0,1,2.18-20.36C161,107.15,164.64,98,169,93.92a7.73,7.73,0,0,1,5.8-2.44,6.23,6.23,0,0,1,4.93,2.4c6,7.11,6.59,27.37,4.55,43.82a7.35,7.35,0,0,0-.74,3.23c0,4.25,2.94,9.32,17,9.32,12.47,0,16.2-4,16.88-7.87a167,167,0,0,0,6.95-38.31C226.16,74.77,219.08,50.54,203.87,34Z"/></g></svg>