<svg xmlns="http://www.w3.org/2000/svg" xmlns:xlink="http://www.w3.org/1999/xlink" viewBox="0 0 113.25 137.75"><defs><style>.cls-1,.cls-13,.cls-14,.cls-33,.cls-34,.cls-38,.cls-40,.cls-41,.cls-42,.cls-47,.cls-52,.cls-54,.cls-55,.cls-56,.cls-60,.cls-61,.cls-68{fill:none;}.cls-11,.cls-2,.cls-3,.cls-39,.cls-48,.cls-5{fill:#7673c0;}.cls-3,.cls-45{opacity:0.15;}.cls-10,.cls-12,.cls-35,.cls-4,.cls-44,.cls-58,.cls-59,.cls-6,.cls-62,.cls-63,.cls-64,.cls-65,.cls-66,.cls-67,.cls-7,.cls-8,.cls-9{fill:#fff;}.cls-10,.cls-33,.cls-34,.cls-35,.cls-4,.cls-40,.cls-41,.cls-42,.cls-44,.cls-58,.cls-59,.cls-6,.cls-60,.cls-61,.cls-62,.cls-63,.cls-64,.cls-65,.cls-66,.cls-67,.cls-68,.cls-7,.cls-8,.cls-9{stroke-linejoin:round;}.cls-10,.cls-35,.cls-4,.cls-40,.cls-41,.cls-42,.cls-44,.cls-58,.cls-59,.cls-6,.cls-60,.cls-61,.cls-62,.cls-63,.cls-64,.cls-65,.cls-66,.cls-67,.cls-7,.cls-8,.cls-9{stroke-width:1.13px;}.cls-4{stroke:url(#New_Gradient_Swatch_10);}.cls-5,.cls-50{opacity:0.4;}.cls-6{stroke:url(#New_Gradient_Swatch_10-2);}.cls-7{stroke:url(#New_Gradient_Swatch_10-3);}.cls-8{stroke:url(#New_Gradient_Swatch_10-4);}.cls-9{stroke:url(#New_Gradient_Swatch_10-5);}.cls-10{stroke:url(#New_Gradient_Swatch_10-6);}.cls-11,.cls-56{opacity:0.5;}.cls-13,.cls-14{stroke:#fff;}.cls-13,.cls-14,.cls-33,.cls-34,.cls-68{stroke-linecap:round;}.cls-13,.cls-14,.cls-38,.cls-47,.cls-52,.cls-54,.cls-55,.cls-56{stroke-miterlimit:10;}.cls-13,.cls-34{stroke-width:1.92px;}.cls-14,.cls-33{stroke-width:1.28px;}.cls-15{fill:url(#linear-gradient);}.cls-16{fill:url(#linear-gradient-2);}.cls-17{fill:url(#linear-gradient-3);}.cls-18{fill:url(#linear-gradient-4);}.cls-19{fill:url(#linear-gradient-5);}.cls-20{fill:url(#linear-gradient-6);}.cls-21{fill:url(#linear-gradient-7);}.cls-22{fill:url(#linear-gradient-8);}.cls-23{fill:url(#linear-gradient-9);}.cls-24{fill:url(#linear-gradient-10);}.cls-25{fill:url(#linear-gradient-11);}.cls-26{fill:url(#linear-gradient-12);}.cls-27{fill:url(#linear-gradient-13);}.cls-28{fill:url(#linear-gradient-14);}.cls-29{fill:url(#linear-gradient-15);}.cls-30{fill:url(#linear-gradient-16);}.cls-31{fill:url(#linear-gradient-17);}.cls-32{fill:url(#linear-gradient-18);}.cls-33,.cls-38,.cls-47,.cls-52,.cls-54,.cls-55,.cls-56{stroke:#7673c0;}.cls-34{stroke:url(#New_Gradient_Swatch_11);}.cls-35{stroke:url(#New_Gradient_Swatch_10-7);}.cls-36{clip-path:url(#clip-path);}.cls-37,.cls-49{opacity:0.2;}.cls-38,.cls-56{stroke-width:0.58px;}.cls-39{opacity:0.25;}.cls-40{stroke:url(#New_Gradient_Swatch_12);}.cls-41{stroke:url(#New_Gradient_Swatch_12-2);}.cls-42{stroke:url(#New_Gradient_Swatch_12-3);}.cls-43{opacity:0.1;}.cls-44{stroke:url(#New_Gradient_Swatch_10-8);}.cls-46,.cls-68{opacity:0.3;}.cls-47{stroke-width:0.67px;}.cls-48{opacity:0.45;}.cls-51{clip-path:url(#clip-path-2);}.cls-52{stroke-width:1.44px;}.cls-53{clip-path:url(#clip-path-3);}.cls-54{stroke-width:1.45px;}.cls-55{stroke-width:1.74px;}.cls-57{fill:url(#New_Gradient_Swatch_10-9);}.cls-58{stroke:url(#New_Gradient_Swatch_10-10);}.cls-59{stroke:url(#New_Gradient_Swatch_10-11);}.cls-60{stroke:url(#New_Gradient_Swatch_12-4);}.cls-61{stroke:url(#New_Gradient_Swatch_12-5);}.cls-62{stroke:url(#New_Gradient_Swatch_10-12);}.cls-63{stroke:url(#New_Gradient_Swatch_10-13);}.cls-64{stroke:url(#New_Gradient_Swatch_10-14);}.cls-65{stroke:url(#New_Gradient_Swatch_10-15);}.cls-66{stroke:url(#New_Gradient_Swatch_10-16);}.cls-67{stroke:url(#New_Gradient_Swatch_10-17);}.cls-68{stroke:#79589f;stroke-width:1.69px;}</style><linearGradient id="New_Gradient_Swatch_10" x1="47.02" y1="60.83" x2="61.96" y2="60.83" gradientUnits="userSpaceOnUse"><stop offset="0" stop-color="#7673c0"/><stop offset="1" stop-color="#7673c0"/></linearGradient><linearGradient id="New_Gradient_Swatch_10-2" x1="47.34" y1="58.44" x2="58.5" y2="58.44" xlink:href="#New_Gradient_Swatch_10"/><linearGradient id="New_Gradient_Swatch_10-3" x1="47.34" y1="56.52" x2="55.01" y2="56.52" xlink:href="#New_Gradient_Swatch_10"/><linearGradient id="New_Gradient_Swatch_10-4" x1="52.78" y1="81.54" x2="73.34" y2="81.54" xlink:href="#New_Gradient_Swatch_10"/><linearGradient id="New_Gradient_Swatch_10-5" x1="52.59" y1="78.07" x2="66.69" y2="78.07" xlink:href="#New_Gradient_Swatch_10"/><linearGradient id="New_Gradient_Swatch_10-6" x1="51.18" y1="74.95" x2="60.93" y2="74.95" xlink:href="#New_Gradient_Swatch_10"/><linearGradient id="linear-gradient" x1="18.28" y1="100.71" x2="18.02" y2="100.27" gradientUnits="userSpaceOnUse"><stop offset="0" stop-color="#7673c0"/><stop offset="0.06" stop-color="#7673c0"/><stop offset="1" stop-color="#7673c0"/></linearGradient><linearGradient id="linear-gradient-2" x1="18.88" y1="101.98" x2="18.63" y2="101.54" xlink:href="#linear-gradient"/><linearGradient id="linear-gradient-3" x1="18.59" y1="101.4" x2="18.28" y2="100.86" xlink:href="#linear-gradient"/><linearGradient id="linear-gradient-4" x1="19.28" y1="102.65" x2="18.97" y2="102.11" xlink:href="#linear-gradient"/><linearGradient id="linear-gradient-5" x1="18.06" y1="100.06" x2="17.75" y2="99.53" xlink:href="#linear-gradient"/><linearGradient id="linear-gradient-6" x1="20.12" y1="103.78" x2="19.81" y2="103.25" xlink:href="#linear-gradient"/><linearGradient id="linear-gradient-7" x1="55.09" y1="116.11" x2="41.01" y2="91.72" xlink:href="#linear-gradient"/><linearGradient id="linear-gradient-8" x1="76.28" y1="103.88" x2="76.2" y2="103.72" xlink:href="#linear-gradient"/><linearGradient id="linear-gradient-9" x1="17.85" y1="99.38" x2="17.58" y2="98.91" xlink:href="#linear-gradient"/><linearGradient id="linear-gradient-10" x1="76.71" y1="103.35" x2="76.64" y2="103.23" xlink:href="#linear-gradient"/><linearGradient id="linear-gradient-11" x1="78.55" y1="100.15" x2="78.4" y2="99.89" xlink:href="#linear-gradient"/><linearGradient id="linear-gradient-12" x1="78.07" y1="101.26" x2="77.95" y2="101.06" xlink:href="#linear-gradient"/><linearGradient id="linear-gradient-13" x1="78.32" y1="100.71" x2="78.2" y2="100.5" xlink:href="#linear-gradient"/><linearGradient id="linear-gradient-14" x1="77.45" y1="102.39" x2="77.33" y2="102.19" xlink:href="#linear-gradient"/><linearGradient id="linear-gradient-15" x1="77.08" y1="102.88" x2="77" y2="102.74" xlink:href="#linear-gradient"/><linearGradient id="linear-gradient-16" x1="77.78" y1="101.88" x2="77.63" y2="101.62" xlink:href="#linear-gradient"/><linearGradient id="linear-gradient-17" x1="19.64" y1="103.16" x2="19.37" y2="102.7" xlink:href="#linear-gradient"/><linearGradient id="linear-gradient-18" x1="82.86" y1="128.29" x2="82.43" y2="127.56" xlink:href="#linear-gradient"/><linearGradient id="New_Gradient_Swatch_11" x1="6.36" y1="76.62" x2="108.39" y2="76.62" xlink:href="#New_Gradient_Swatch_10"/><linearGradient id="New_Gradient_Swatch_10-7" x1="36.96" y1="17.97" x2="65.16" y2="17.97" xlink:href="#New_Gradient_Swatch_10"/><clipPath id="clip-path"><path class="cls-1" d="M37.53,25.12s5.2-10.25,8.32-12.73,10.89-1.84,13.08.55S64.6,25.08,64.6,25.08l-13.5.33Z"/></clipPath><linearGradient id="New_Gradient_Swatch_12" x1="21.56" y1="33.71" x2="55.93" y2="33.71" xlink:href="#New_Gradient_Swatch_10"/><linearGradient id="New_Gradient_Swatch_12-2" x1="27.63" y1="29.86" x2="53.87" y2="29.86" xlink:href="#New_Gradient_Swatch_10"/><linearGradient id="New_Gradient_Swatch_12-3" x1="33.16" y1="26.82" x2="52.04" y2="26.82" xlink:href="#New_Gradient_Swatch_10"/><linearGradient id="New_Gradient_Swatch_10-8" x1="48.3" y1="27.33" x2="71.44" y2="27.33" xlink:href="#New_Gradient_Swatch_10"/><clipPath id="clip-path-2"><path class="cls-2" d="M57.17,78.78C61,82,70,83.51,70,83.51A11.48,11.48,0,0,0,57.49,90c-1.79,3.58-8.3,5.75-8.62,4.79s-1.28-18.22-1.28-18.22L53.88,76Z"/></clipPath><clipPath id="clip-path-3"><path class="cls-1" d="M10.12,88.69S8.6,90,8.6,90.92,21.19,99.46,42,95.08c3-.64-.91-16.94-.91-16.94l-16.92-1Z"/></clipPath><linearGradient id="New_Gradient_Swatch_10-9" x1="8.6" y1="75.62" x2="69.97" y2="75.62" xlink:href="#New_Gradient_Swatch_10"/><linearGradient id="New_Gradient_Swatch_10-10" x1="20.82" y1="71.71" x2="54.22" y2="71.71" xlink:href="#New_Gradient_Swatch_10"/><linearGradient id="New_Gradient_Swatch_10-11" x1="6.91" y1="62.08" x2="36.67" y2="62.08" xlink:href="#New_Gradient_Swatch_10"/><linearGradient id="New_Gradient_Swatch_12-4" x1="11.34" y1="58.1" x2="36.54" y2="58.1" xlink:href="#New_Gradient_Swatch_10"/><linearGradient id="New_Gradient_Swatch_12-5" x1="15.04" y1="55.52" x2="36.79" y2="55.52" xlink:href="#New_Gradient_Swatch_10"/><linearGradient id="New_Gradient_Swatch_10-12" x1="36.32" y1="82.91" x2="54.5" y2="82.91" xlink:href="#New_Gradient_Swatch_10"/><linearGradient id="New_Gradient_Swatch_10-13" x1="35.37" y1="80.24" x2="53.9" y2="80.24" xlink:href="#New_Gradient_Swatch_10"/><linearGradient id="New_Gradient_Swatch_10-14" x1="35.12" y1="76.91" x2="52.84" y2="76.91" xlink:href="#New_Gradient_Swatch_10"/><linearGradient id="New_Gradient_Swatch_10-15" x1="7.55" y1="83.73" x2="28.66" y2="83.73" xlink:href="#New_Gradient_Swatch_10"/><linearGradient id="New_Gradient_Swatch_10-16" x1="9" y1="83.56" x2="26.7" y2="83.56" xlink:href="#New_Gradient_Swatch_10"/><linearGradient id="New_Gradient_Swatch_10-17" x1="12.86" y1="78.19" x2="28.34" y2="78.19" xlink:href="#New_Gradient_Swatch_10"/></defs><title>python</title><g id="ecosystem-2" data-name="ecosystem"><circle class="cls-3" cx="49.68" cy="59.93" r="0.85"/><circle class="cls-2" cx="49.65" cy="59.75" r="0.69"/><circle class="cls-2" cx="49.55" cy="59.56" r="0.27"/><path class="cls-4" d="M52.35,56.56a10,10,0,0,1,8.91,2.31c1.67,1.38-12.71,6.49-12.71,6.49l-1-3.52Z"/><path class="cls-5" d="M47.27,56.09a22.23,22.23,0,0,1,10.4.21c2.06,1.39-9.76,6.82-9.76,6.82Z"/><path class="cls-6" d="M48.6,55.29s3.94-1.75,9.16.87c1.74.87-9.85,6-9.85,6Z"/><circle class="cls-2" cx="49.55" cy="59.56" r="0.27"/><path class="cls-5" d="M48.08,54.66s2.16-1.4,6.1.3c1.31.57-6.09,5.47-6.09,5.47Z"/><path class="cls-7" d="M48.23,53.86s2.23-1.28,6.07.63c1.28.64-6.39,5.12-6.39,5.12Z"/><circle class="cls-3" cx="48.72" cy="56.74" r="0.85"/><circle class="cls-2" cx="48.69" cy="56.55" r="0.69"/><circle class="cls-2" cx="48.59" cy="56.36" r="0.27"/><path class="cls-8" d="M53.34,75.91c0-.87,4.18,0,5,.32L72.1,81.09c.82.29.9.92.18,1.41,0,0-10,6-12.23,4.91S53.34,75.91,53.34,75.91Z"/><path class="cls-5" d="M53.78,74.36c0-.69.43-.26,1.07,0l9.46,3.7c.64.26,1.12.66.54,1,0,0-6.32,4.22-8.07,3.31S53.78,74.36,53.78,74.36Z"/><path class="cls-9" d="M53.16,75.41a.82.82,0,0,1,1.06-1L65.53,77c.67.15.79.64.27,1.09,0,0-6.11,4.17-8,3.55S53.16,75.41,53.16,75.41Z"/><path class="cls-5" d="M52.38,73.67c-.05-.4-.39-1,0-1l7.32,2c.4.09.47.37.16.64,0,0-3.51,3.83-4.6,3.46S52.38,73.67,52.38,73.67Z"/><path class="cls-10" d="M51.74,72.07A3.1,3.1,0,0,1,53,71.75l.48.93L60,74.36c.39.09.47.37.16.64,0,0-3.51,3.51-4.6,3.14S51.74,72.07,51.74,72.07Z"/><circle class="cls-3" cx="59.29" cy="80.57" r="0.74"/><circle class="cls-2" cx="59.2" cy="80.43" r="0.6"/><circle class="cls-2" cx="59.05" cy="80.33" r="0.24"/><circle class="cls-3" cx="65.37" cy="84.4" r="0.74"/><circle class="cls-2" cx="65.27" cy="84.27" r="0.6"/><circle class="cls-2" cx="65.12" cy="84.16" r="0.24"/><circle class="cls-3" cx="63.77" cy="82.48" r="0.74"/><circle class="cls-2" cx="63.68" cy="82.35" r="0.6"/><circle class="cls-2" cx="63.52" cy="82.24" r="0.24"/><path class="cls-11" d="M73,36.76c0-5.43-12.46-19.17-33.55-10.87-24.13,10.39-6.23,59.28-6.23,59.28L35.44,90,45.1,88.4,40.88,89C23.94,35.32,51.42,43,51.42,43S38,45.54,54.24,86.93l2.93-.48-1-1.28s-18.38-39.78-.48-41.38l4.79,1C74,48.9,73,36.76,73,36.76Z"/><circle class="cls-12" cx="62.13" cy="35.48" r="2.08"/><path class="cls-13" d="M58.45,39.48A17.86,17.86,0,0,0,68.36,43"/><path class="cls-14" d="M40.08,48.58a13.59,13.59,0,0,0,5.43,0"/><path class="cls-14" d="M38,53.54a9.44,9.44,0,0,0,6.87.16"/><path class="cls-14" d="M37,58.33a13.34,13.34,0,0,0,8,.31"/><path class="cls-14" d="M37,64.08s4.79,1.28,8.63,0"/><path class="cls-14" d="M38,69.19s4.78,1.29,8.63,0"/><path class="cls-14" d="M39,74.63s5.1,1.28,8.95,0"/><path class="cls-14" d="M40.24,80.38s5.74,1,9.58-.32"/><path class="cls-2" d="M91.5,106.84s14-5.48,12.84-24.44a7.86,7.86,0,0,1,.57.7,15.44,15.44,0,0,0-1.56-2.24c1.28,18.53-15.5,23.49-15.5,23.49l6.49,7.1Z"/><path class="cls-2" d="M98.4,104.67s.8,1.75,1.84,2"/><path class="cls-14" d="M102.23,99.55s.81,2.31,2.64,2.12"/><path class="cls-14" d="M104.47,93.8s1.28,2.24,2.24,1.6"/><path class="cls-15" d="M18.25,100.73c-.07-.16-.13-.32-.19-.48C18.12,100.41,18.18,100.57,18.25,100.73Z"/><path class="cls-16" d="M18.88,102c-.09-.14-.17-.29-.25-.44C18.71,101.69,18.79,101.84,18.88,102Z"/><path class="cls-17" d="M18.56,101.41c-.09-.18-.18-.37-.26-.56C18.38,101,18.47,101.23,18.56,101.41Z"/><path class="cls-18" d="M19.29,102.64c-.12-.17-.23-.35-.33-.52C19.06,102.29,19.17,102.47,19.29,102.64Z"/><path class="cls-19" d="M18,100.09a5.26,5.26,0,0,1-.19-.6A5.26,5.26,0,0,0,18,100.09Z"/><path class="cls-20" d="M20.17,103.75c-.14-.15-.27-.31-.4-.47C19.9,103.44,20,103.6,20.17,103.75Z"/><polygon class="cls-21" points="20.17 103.75 22.02 107.22 76.05 104.01 21.38 105.94 20.17 103.75"/><path class="cls-22" d="M76.05,104l.38-.42Z"/><path class="cls-23" d="M17.79,99.42c-.05-.18-.1-.37-.14-.55C17.69,99.05,17.74,99.24,17.79,99.42Z"/><path class="cls-24" d="M76.8,103.14c-.08.1-.17.2-.25.31C76.63,103.34,76.72,103.24,76.8,103.14Z"/><path class="cls-25" d="M78.55,99.81c0,.14-.09.28-.15.42C78.46,100.09,78.5,100,78.55,99.81Z"/><path class="cls-26" d="M78.1,101l-.18.38Z"/><path class="cls-27" d="M78.33,100.42l-.15.37Z"/><path class="cls-11" d="M60.37,84.53a78.3,78.3,0,0,1-22.89,3.3,50.11,50.11,0,0,1-10.66-1.06c-6,0-9.43,3.45-9.43,9.43v.32a10.73,10.73,0,0,0,.24,2.27c.15.17,4.91,5.32,34.09.51,27-4.46,26.88.22,26.87.4a10.83,10.83,0,0,0,.47-3.18V96.2C79.06,90.22,73.12,80.77,60.37,84.53Z"/><path class="cls-28" d="M77.52,102.08c-.08.14-.17.28-.26.41C77.35,102.36,77.44,102.22,77.52,102.08Z"/><path class="cls-29" d="M77.15,102.65a3.71,3.71,0,0,1-.23.32A3.71,3.71,0,0,0,77.15,102.65Z"/><path class="cls-30" d="M77.85,101.5l-.28.51Z"/><path class="cls-31" d="M19.66,103.15l-.31-.43Z"/><path class="cls-14" d="M73.47,95.81s.85,2.46-1.75,5.35"/><path class="cls-14" d="M68,95.77s.85,2.45-1.75,5.35"/><path class="cls-14" d="M62.14,96.38s.85,2.45-1.75,5.35"/><path class="cls-14" d="M55.89,97.65s.85,2.45-1.75,5.35"/><path class="cls-14" d="M49.75,99s.85,2.46-1.75,5.35"/><path class="cls-11" d="M94.45,111.29A11.47,11.47,0,0,0,88,104.83a15.78,15.78,0,0,0-4.64-1.12s-17.58-2.88-35.17,0c-21.84,3.57-29.06,0-29.06,0A11.86,11.86,0,0,0,7.32,115.53v.64a11.8,11.8,0,0,0,2.82,7.64A19,19,0,0,1,7.85,119s3.93,7.27,30.79,2.63c25.88-4.47,38-4.15,54,1a5.64,5.64,0,0,1-.3,1.29,11.78,11.78,0,0,0,2.85-7.68v-.64A12,12,0,0,0,94.45,111.29Z"/><path class="cls-32" d="M83.38,128l-1.47-.14Z"/><path class="cls-14" d="M81.78,118.73a13.09,13.09,0,0,1-2.72,6.52"/><path class="cls-14" d="M72.62,122.88a14.23,14.23,0,0,1-1.07,1.28"/><path class="cls-14" d="M74.43,118.09a5.66,5.66,0,0,1-.77,3.11"/><path class="cls-14" d="M67.4,117.13s.07,2.86-2.7,6.14"/><path class="cls-14" d="M60.05,117.77a11.51,11.51,0,0,1-2.88,6.39"/><path class="cls-14" d="M51.31,122.18a14.17,14.17,0,0,1-1.48,2.52"/><path class="cls-14" d="M52.38,118.41a10,10,0,0,1-.4,2"/><path class="cls-14" d="M45.4,119.69a18.09,18.09,0,0,1-1,4.8"/><path class="cls-14" d="M39.28,121.6a11.36,11.36,0,0,1-.71,2.91"/><path class="cls-14" d="M31.61,122.56a10.56,10.56,0,0,1-.5,2.3"/><path class="cls-33" d="M53.46,86c-7.68,2-12.74,2.08-16.69,1.74"/><path class="cls-34" d="M78.27,58.65l-1.76-3.36c-7-2.23-7.31-10.2-7.31-10.2m11.62,9.72-4.15.64M94.56,111.7c22.37-15.66,8.79-30.84,8.79-30.84,1.28,18.53-14.86,23.81-14.86,23.81l-1,.24c-3.49-1.2-6.05-1.52-10.84-1.84M34.36,87.45a40,40,0,0,0-7.86-.68c-5.12.32-9.11,3.45-9.11,9.43v.32a10.78,10.78,0,0,0,2.78,7.23l-1,0c-6.51,0-12,4.15-11.83,11.82.32,17.9,23.33,15.34,42.18,12.14,16.27-2.75,25.25.32,33.88.32,8,0,11.82-5.32,11.82-11.82v-.64a12.9,12.9,0,0,0-.63-3.81m-17.9-8.65a8.56,8.56,0,0,0,2.39-6.55V96.2s.08-17-22.84-11m17.33,17.59c-6.15-1.29-15.74-.65-26.29.95-4.69.76-8.71,1.2-12.13,1.42M23.67,105a57.09,57.09,0,0,0,8,.33m61.66,3.86a5.47,5.47,0,0,0-2.56-2.56M55.9,43.63c-17.9,1.6.32,41.54.32,41.54M49.14,42.62a32.43,32.43,0,0,1,5.35.6,54.65,54.65,0,0,1,6,1.53C74,48.9,73,36.76,73,36.76c0-5.43-12.46-19.17-33.55-10.87C15,36.6,34.49,87.41,34.49,87.41M46.31,42.73c-4,.45-5.27,2-5.27,2"/><path class="cls-2" d="M37.53,25.12s5.2-10.25,8.32-12.73,10.89-1.84,13.08.55S64.6,25.08,64.6,25.08l-14.14.65Z"/><path class="cls-12" d="M59,13l0,0,0,0Z"/><path class="cls-12" d="M57.46,11.89l0,0h0l.07,0Z"/><path class="cls-3" d="M52.14,10.67a6.73,6.73,0,0,0-.8.05,0,0,0,0,0,0,0c0,.1.4.18.9.18s.91-.08.91-.18A6.33,6.33,0,0,0,52.14,10.67Z"/><ellipse class="cls-2" cx="52.14" cy="10.67" rx="0.83" ry="0.18"/><ellipse class="cls-2" cx="52.14" cy="10.49" rx="0.83" ry="0.18"/><path class="cls-2" d="M52.32,10.44a2.17,2.17,0,0,0,.13-.81c0-.57-.14-1-.31-1s-.31.45-.31,1a2.43,2.43,0,0,0,.12.81Z"/><path class="cls-3" d="M52.25,10.75a2.13,2.13,0,0,0,.72-.09.17.17,0,0,0-.11-.08,2.92,2.92,0,0,1-1.44,0h0C51.44,10.68,51.8,10.75,52.25,10.75Z"/><path class="cls-3" d="M52.42,10.32h-.06c0,.09-.1.16-.22.16a.25.25,0,0,1-.18-.07v0c0,.06.24.11.54.11a1.4,1.4,0,0,0,.48-.06C53,10.41,52.72,10.34,52.42,10.32Z"/><path class="cls-35" d="M37.53,25.12s5.2-10.25,8.32-12.73,10.89-1.84,13.08.55S64.6,25.08,64.6,25.08Z"/><g class="cls-36"><g class="cls-37"><path class="cls-38" d="M37.26,25.12s5.2-10.25,8.32-12.73,10.89-1.84,13.08.55,5.67,12.14,5.67,12.14Z"/></g></g><circle class="cls-2" cx="49.51" cy="21.52" r="0.21"/><circle class="cls-3" cx="54.85" cy="11.55" r="0.24"/><circle class="cls-3" cx="56.05" cy="21.68" r="0.67"/><circle class="cls-2" cx="55.87" cy="21.52" r="0.21"/><circle class="cls-3" cx="58.69" cy="19.44" r="0.58"/><circle class="cls-2" cx="58.6" cy="19.36" r="0.47"/><circle class="cls-2" cx="58.54" cy="19.31" r="0.19"/><circle class="cls-3" cx="58.96" cy="21.91" r="0.65"/><circle class="cls-2" cx="58.85" cy="21.82" r="0.53"/><circle class="cls-2" cx="58.79" cy="21.76" r="0.21"/><circle class="cls-2" cx="44.23" cy="16.98" r="0.17"/><circle class="cls-3" cx="46.9" cy="12.03" r="0.22"/><circle class="cls-3" cx="43.92" cy="19.76" r="0.54"/><circle class="cls-2" cx="43.83" cy="19.68" r="0.44"/><circle class="cls-2" cx="43.71" cy="19.63" r="0.17"/><circle class="cls-3" cx="58.26" cy="12.61" r="0.2"/><circle class="cls-2" cx="58.23" cy="12.58" r="0.16"/><circle class="cls-3" cx="60.89" cy="19.6" r="0.48"/><circle class="cls-2" cx="60.82" cy="19.53" r="0.39"/><circle class="cls-2" cx="60.71" cy="19.49" r="0.16"/><circle class="cls-3" cx="61.36" cy="21.97" r="0.55"/><circle class="cls-2" cx="61.27" cy="21.89" r="0.44"/><circle class="cls-2" cx="61.14" cy="21.84" r="0.18"/><circle class="cls-2" cx="42.07" cy="17.83" r="0.16"/><path class="cls-2" d="M42.47,15.84c0,.06-.07.13-.08.13s0-.05,0-.11,0-.11,0-.11S42.46,15.78,42.47,15.84Z"/><path class="cls-2" d="M62.9,19.48c-.07,0-.09-.15-.08-.16s.06,0,.13,0,.12,0,.11.07S63,19.51,62.9,19.48Z"/><path class="cls-2" d="M41.25,18.46s-.26-.52-.2-.64.57,0,.57,0Z"/><path class="cls-39" d="M41.27,17.79a.54.54,0,0,1,0,.22.72.72,0,0,1-.11.33l0,.12.37-.61Z"/><path class="cls-12" d="M53.58,31.19a.62.62,0,0,0-.46-.29s-11.87-.36-20.31-1.3c-5.74-.64-10.59,3.61-10.59,3.61a.24.24,0,0,0,0,.39A29.25,29.25,0,0,0,37.9,37.88c9.55,0,16.72-1,17.36-1.6S53.58,31.19,53.58,31.19Z"/><path class="cls-40" d="M53.58,31.19a.62.62,0,0,0-.46-.29s-11.87-.36-20.31-1.3c-5.74-.64-10.59,3.61-10.59,3.61a.24.24,0,0,0,0,.39A29.25,29.25,0,0,0,37.9,37.88c9.55,0,16.72-1,17.36-1.6S53.58,31.19,53.58,31.19Z"/><path class="cls-5" d="M51,28.49a138.72,138.72,0,0,1-14.58-1c-4-.6-7.76,2.43-7.76,2.43a21.16,21.16,0,0,0,11.15,3.55c6.76.24,13.57-.87,14-1.31S51,28.49,51,28.49Z"/><path class="cls-12" d="M50.58,27.89a.9.9,0,0,0-.55-.22,133.34,133.34,0,0,1-14.27-.74c-4-.52-7.47,2.36-7.47,2.36a.23.23,0,0,0,0,.39,20.51,20.51,0,0,0,11,3.17c6.76.13,13.54-1.1,14-1.55S50.58,27.89,50.58,27.89Z"/><path class="cls-41" d="M50.58,27.89a.9.9,0,0,0-.55-.22,133.34,133.34,0,0,1-14.27-.74c-4-.52-7.47,2.36-7.47,2.36a.23.23,0,0,0,0,.39,20.51,20.51,0,0,0,11,3.17c6.76.13,13.54-1.1,14-1.55S50.58,27.89,50.58,27.89Z"/><path class="cls-5" d="M50.06,26.15a98.21,98.21,0,0,1-10.32-.88c-2.86-.47-5.52,1.63-5.52,1.63a15,15,0,0,0,7.86,2.65c4.78.25,9.62-.45,10-.76S50.06,26.15,50.06,26.15Z"/><path class="cls-12" d="M49.62,25.48a1,1,0,0,0-.55-.22,91.62,91.62,0,0,1-10-.52,7.5,7.5,0,0,0-5.22,1.61.24.24,0,0,0,0,.4,14.44,14.44,0,0,0,7.69,2.19c4.79.09,9.6-.79,9.93-1.1S49.62,25.48,49.62,25.48Z"/><path class="cls-42" d="M49.62,25.48a1,1,0,0,0-.55-.22,91.62,91.62,0,0,1-10-.52,7.5,7.5,0,0,0-5.22,1.61.24.24,0,0,0,0,.4,14.44,14.44,0,0,0,7.69,2.19c4.79.09,9.6-.79,9.93-1.1S49.62,25.48,49.62,25.48Z"/><g class="cls-43"><path class="cls-2" d="M48.85,25.26A92.72,92.72,0,0,1,39,24.74a6.17,6.17,0,0,0-2.74.32c1.82.55,5.58,1.25,12.68,1.08Z"/></g><path class="cls-44" d="M48.87,25.09l.32,2.56s.31,4.16,9.26,3.52,11.83-1.92,11.83-1.92,2.23-.64-1.92-3.52-5.43-2.23-5.43-2.23S59.09,24.46,48.87,25.09Z"/><g class="cls-45"><path class="cls-2" d="M62.93,23.5s-3.84,1-14.06,1.59L49,26c2.58-.11,11.2-.55,16.45-2C63.57,23.18,62.93,23.5,62.93,23.5Z"/><path class="cls-2" d="M65.43,24c-5.25,1.46-13.87,1.9-16.45,2"/></g><circle class="cls-3" cx="38.53" cy="24.05" r="0.41"/><g class="cls-46"><path class="cls-2" d="M42.86,16c.26-.39.53-.76.79-1.11"/></g><path class="cls-2" d="M57.7,19.39c-4.4.46-7.84.18-10.51-.87-3.73-1.48-6-4.5-6.73-9a.19.19,0,0,0-.16-.15.17.17,0,0,0-.18.11A2.5,2.5,0,0,1,38.33,11c-1.17.17-3.26-.61-6.6-5.24a.18.18,0,0,0-.22-.06.17.17,0,0,0-.09.21,24.54,24.54,0,0,0,5.31,8.81C40.36,18.63,47,23,57.9,21.86H58"/><path class="cls-2" d="M58,21.22a.53.53,0,1,1-.11-1.06A.53.53,0,0,1,58,21.22Zm-.1-.88a.35.35,0,1,0,.4.31A.36.36,0,0,0,57.93,20.34Z"/><path class="cls-2" d="M57.92,20.23a.53.53,0,0,1-.58-.47.54.54,0,0,1,.47-.59.53.53,0,1,1,.11,1.06Zm-.09-.88a.35.35,0,0,0-.32.39.36.36,0,0,0,.39.31.35.35,0,0,0,.32-.39A.36.36,0,0,0,57.83,19.35Z"/><path class="cls-2" d="M58.14,22.21a.53.53,0,0,1-.59-.47.53.53,0,0,1,1.06-.12A.53.53,0,0,1,58.14,22.21Zm-.1-.88a.35.35,0,1,0,.08.7.35.35,0,1,0-.08-.7Z"/><path class="cls-2" d="M59.76,21a.52.52,0,0,1-.58-.47.53.53,0,1,1,.58.47Zm-.09-.88a.36.36,0,0,0-.32.39.37.37,0,0,0,.4.32.36.36,0,0,0-.08-.71Z"/><path class="cls-2" d="M59.66,20a.54.54,0,0,1-.59-.47.53.53,0,1,1,.59.47Zm-.1-.88a.36.36,0,0,0-.31.39.35.35,0,0,0,.39.32.36.36,0,1,0-.08-.71Z"/><path class="cls-2" d="M59.87,22A.53.53,0,0,1,59.76,21,.53.53,0,0,1,59.87,22Zm-.09-.88a.36.36,0,1,0,.39.32A.36.36,0,0,0,59.78,21.14Z"/><path class="cls-2" d="M59,21.59a.53.53,0,1,1,.47-.59A.54.54,0,0,1,59,21.59Zm-.09-.89a.37.37,0,0,0-.32.4.36.36,0,0,0,.39.31.35.35,0,0,0,.32-.39A.36.36,0,0,0,58.87,20.7Z"/><path class="cls-2" d="M58.85,20.6a.53.53,0,0,1-.11-1.06.54.54,0,0,1,.59.47A.54.54,0,0,1,58.85,20.6Zm-.09-.89a.36.36,0,1,0,.08.71.36.36,0,0,0,.31-.39A.35.35,0,0,0,58.76,19.71Z"/><path class="cls-2" d="M58.75,19.62a.53.53,0,1,1-.11-1.06.53.53,0,0,1,.58.47A.54.54,0,0,1,58.75,19.62Zm-.09-.88a.35.35,0,0,0-.32.39.36.36,0,0,0,.39.31.35.35,0,0,0,.32-.39A.36.36,0,0,0,58.66,18.74Z"/><path class="cls-2" d="M59.07,22.58a.54.54,0,0,1-.59-.47A.53.53,0,1,1,59.54,22,.54.54,0,0,1,59.07,22.58Zm-.1-.89a.37.37,0,0,0-.31.4.35.35,0,0,0,.39.31.34.34,0,0,0,.31-.39A.36.36,0,0,0,59,21.69Z"/><path class="cls-2" d="M60.11,20.93m.18,0"/><path class="cls-2" d="M60,19.94m.18,0"/><path class="cls-2" d="M59.9,19m.17,0"/><path class="cls-2" d="M60.22,21.92m.17,0"/><path class="cls-2" d="M56.6,21.34a.53.53,0,0,1,1.06-.11.54.54,0,0,1-.47.59A.55.55,0,0,1,56.6,21.34Zm.18,0a.36.36,0,1,0,.71-.07.36.36,0,0,0-.4-.32A.36.36,0,0,0,56.78,21.32Z"/><path class="cls-2" d="M56.5,20.35a.53.53,0,0,1,.47-.58.54.54,0,0,1,.59.47.54.54,0,0,1-.48.58A.52.52,0,0,1,56.5,20.35Zm.17,0a.36.36,0,1,0,.32-.39A.36.36,0,0,0,56.67,20.33Z"/><path class="cls-2" d="M56.39,19.37a.53.53,0,0,1,1.06-.11.53.53,0,1,1-1.06.11Zm.18,0a.35.35,0,0,0,.39.31.36.36,0,0,0,.32-.39.37.37,0,0,0-.4-.32A.37.37,0,0,0,56.57,19.36Z"/><path class="cls-2" d="M56.71,22.33a.53.53,0,0,1,.47-.58.54.54,0,0,1,.59.47.53.53,0,1,1-1.06.11Zm.18,0a.35.35,0,0,0,.39.32.36.36,0,0,0,.31-.39.35.35,0,1,0-.7.07Z"/><path class="cls-2" d="M61.06,19.27a14.24,14.24,0,0,0,6.41-1.95,6.84,6.84,0,0,0,3-6.49.12.12,0,0,1,.21-.07,1.57,1.57,0,0,0,1.32.72c.75-.05,1.94-.82,3.39-4.15a.11.11,0,0,1,.13-.06.12.12,0,0,1,.09.12,47.18,47.18,0,0,1-2.12,6.18c-1.57,3.75-5.18,7.09-12.12,7.86h-.08"/><path class="cls-2" d="M53.62,21.88m-.18,0"/><path class="cls-2" d="M57.64,22.58a.55.55,0,0,1-.6-.48.54.54,0,0,1,.48-.6.55.55,0,0,1,.6.48A.55.55,0,0,1,57.64,22.58Zm-.1-.9a.36.36,0,0,0-.32.4.37.37,0,0,0,.4.32.36.36,0,0,0-.08-.72Z"/><path class="cls-2" d="M57.53,21.57A.54.54,0,1,1,58,21,.55.55,0,0,1,57.53,21.57Zm-.1-.9a.36.36,0,1,0,.4.32A.36.36,0,0,0,57.43,20.67Z"/><path class="cls-2" d="M57.74,23.58a.54.54,0,1,1-.11-1.07.54.54,0,0,1,.11,1.07Zm-.09-.89a.36.36,0,1,0,.08.71.36.36,0,0,0,.32-.39A.36.36,0,0,0,57.65,22.69Z"/><path class="cls-2" d="M59.4,22.39a.55.55,0,0,1-.6-.48.55.55,0,0,1,.48-.6.54.54,0,0,1,.6.48A.55.55,0,0,1,59.4,22.39Zm-.1-.9a.37.37,0,0,0-.32.4.36.36,0,1,0,.32-.4Z"/><path class="cls-2" d="M59.29,21.38a.54.54,0,0,1-.11-1.08.54.54,0,0,1,.11,1.08Zm-.09-.9a.36.36,0,1,0,.07.72.36.36,0,0,0-.07-.72Z"/><path class="cls-2" d="M59.51,23.39a.53.53,0,0,1-.6-.48.54.54,0,1,1,.6.48Zm-.1-.89a.36.36,0,0,0-.32.39.36.36,0,1,0,.72-.07A.35.35,0,0,0,59.41,22.5Z"/><path class="cls-2" d="M58.58,23a.54.54,0,0,1-.59-.48.54.54,0,1,1,1.07-.12A.53.53,0,0,1,58.58,23Zm-.09-.9a.36.36,0,0,0,.07.72.36.36,0,1,0-.07-.72Z"/><path class="cls-2" d="M58.48,21.94a.54.54,0,0,1-.6-.48.53.53,0,0,1,.48-.59.54.54,0,1,1,.12,1.07Zm-.1-.9a.37.37,0,0,0-.32.4.36.36,0,0,0,.4.32.36.36,0,0,0-.08-.72Z"/><path class="cls-2" d="M58.37,21a.55.55,0,0,1-.6-.48.54.54,0,0,1,1.08-.12A.54.54,0,0,1,58.37,21Zm-.1-.9a.36.36,0,1,0,.4.32A.36.36,0,0,0,58.27,20.05Z"/><path class="cls-2" d="M61.17,22.2a.55.55,0,0,1-.6-.48.54.54,0,0,1,.48-.6.55.55,0,0,1,.6.48A.55.55,0,0,1,61.17,22.2Zm-.1-.9a.36.36,0,1,0,.08.72.37.37,0,0,0,.32-.4A.36.36,0,0,0,61.07,21.3Z"/><path class="cls-2" d="M61.06,21.19a.54.54,0,0,1-.6-.48.55.55,0,0,1,.48-.6.54.54,0,1,1,.12,1.08Zm-.1-.9a.36.36,0,1,0,.4.32A.36.36,0,0,0,61,20.29Z"/><path class="cls-2" d="M61,20.18a.54.54,0,1,1,.48-.59A.53.53,0,0,1,61,20.18Zm-.1-.89a.36.36,0,0,0-.32.4.37.37,0,0,0,.4.32.36.36,0,0,0-.08-.72Z"/><path class="cls-2" d="M61.27,23.2a.53.53,0,0,1-.59-.48.54.54,0,0,1,1.07-.11A.53.53,0,0,1,61.27,23.2Zm-.09-.89a.35.35,0,0,0-.32.4.36.36,0,0,0,.39.32.37.37,0,0,0,.33-.4A.37.37,0,0,0,61.18,22.31Z"/><path class="cls-2" d="M60.35,22.76a.54.54,0,0,1-.6-.48.55.55,0,0,1,.48-.6.54.54,0,1,1,.12,1.08Zm-.1-.9a.36.36,0,1,0,.4.32A.37.37,0,0,0,60.25,21.86Z"/><path class="cls-2" d="M60.24,21.75a.54.54,0,1,1-.12-1.07.54.54,0,1,1,.12,1.07Zm-.1-.9a.37.37,0,0,0-.32.4.36.36,0,0,0,.72-.07A.37.37,0,0,0,60.14,20.85Z"/><path class="cls-2" d="M60.13,20.76a.54.54,0,1,1,.48-.6A.53.53,0,0,1,60.13,20.76Zm-.09-.9a.36.36,0,0,0,.07.72.36.36,0,1,0-.07-.72Z"/><path class="cls-2" d="M60.42,18.14,57,18.51a.44.44,0,0,0-.39.48L57,22.93a.44.44,0,0,0,.48.39L60.94,23a.44.44,0,0,0,.39-.48l-.43-3.95A.42.42,0,0,0,60.42,18.14Z"/><path class="cls-47" d="M60.42,18.14,57,18.51a.44.44,0,0,0-.39.48L57,22.93a.44.44,0,0,0,.48.39L60.94,23a.44.44,0,0,0,.39-.48l-.43-3.95A.42.42,0,0,0,60.42,18.14Z"/><path class="cls-2" d="M60.42,18.14,57,18.51a.44.44,0,0,0-.39.48L57,22.93a.44.44,0,0,0,.48.39L60.94,23a.44.44,0,0,0,.39-.48l-.43-3.95A.42.42,0,0,0,60.42,18.14Z"/><path class="cls-5" d="M61.17,22.72l-.48-4.49-.35,0s0,0,0,0l.43,4a.15.15,0,0,1-.13.16l-3.47.37h0l0,.3Z"/><path class="cls-48" d="M56.89,18.65a.68.68,0,0,1-.21.17l.45,4.24.28,0s0,0,0,0L57,19a.15.15,0,0,1,.13-.16l3.46-.37h0l0-.2Z"/><path class="cls-2" d="M60.42,18.13,57,18.5a.44.44,0,0,0-.39.48L57,22.93a.43.43,0,0,0,.48.38l3.46-.37a.44.44,0,0,0,.39-.48l-.43-3.94A.43.43,0,0,0,60.42,18.13Zm.67,4.36a.2.2,0,0,1-.18.21l-3.46.37a.19.19,0,0,1-.21-.17L56.81,19a.2.2,0,0,1,.18-.22l3.46-.37a.19.19,0,0,1,.21.17Z"/><polygon class="cls-5" points="58.36 22.64 58.85 22.1 58.25 21.67 58.36 22.64"/><path class="cls-5" d="M59.51,20.32a3.35,3.35,0,0,0-.89.26l-.14-1.36-.48.05.22,2.09.32-.2a3.4,3.4,0,0,1,1-.36c.24,0,.31.11.33.22L60,22.46l.48-.06L60.37,21a.79.79,0,0,0-.27-.48A.76.76,0,0,0,59.51,20.32Z"/><path class="cls-5" d="M59.4,19.91l.48-.05a1.42,1.42,0,0,0,.28-.82l-.48.05A1.87,1.87,0,0,1,59.4,19.91Z"/><polygon class="cls-2" points="58.05 22.52 58.54 21.98 57.95 21.56 58.05 22.52"/><path class="cls-2" d="M59.2,20.21a2.82,2.82,0,0,0-.89.26l-.14-1.37-.48,0,.22,2.09.32-.19a3.12,3.12,0,0,1,1-.36c.24,0,.31.1.33.21l.15,1.44.48-.05-.15-1.44a.83.83,0,0,0-.27-.49A.75.75,0,0,0,59.2,20.21Z"/><path class="cls-2" d="M59.09,19.79l.48-.05a1.33,1.33,0,0,0,.28-.82l-.48,0A1.71,1.71,0,0,1,59.09,19.79Z"/><path class="cls-49" d="M42.15,93.54a66.75,66.75,0,0,0,7.55-.89c1.4-.45-1.31-4-1.31-4l-6.87,2.63Z"/><g class="cls-50"><path class="cls-2" d="M57.17,78.78C61,82,70,83.51,70,83.51A11.48,11.48,0,0,0,57.49,90c-1.79,3.58-8.3,5.75-8.62,4.79s-1.28-18.22-1.28-18.22L53.88,76Z"/><g class="cls-51"><path class="cls-52" d="M62.62,74.56s-8.64-2.81-12.8,5.5c-1.79,3.58-8.3,5.75-8.62,4.79"/><circle class="cls-2" cx="51.47" cy="88.3" r="0.55"/><ellipse class="cls-2" cx="51.01" cy="81.91" rx="0.41" ry="0.55"/><ellipse class="cls-2" cx="47.82" cy="79.03" rx="0.41" ry="0.55"/></g></g><g class="cls-50"><g class="cls-53"><line class="cls-54" x1="-10.17" y1="85.01" x2="27.53" y2="105.13"/><path class="cls-55" d="M-1.83,94.92c3.16,2,6.59,3.35,10,5.44,1.15.57,2.1,1,3.24,1.53,4.58,2.67,9.34,5,13.83,7.49"/><path class="cls-55" d="M-2.14,100.36c8.24,4.58,16.62,9,25.07,13.38"/><line class="cls-54" x1="35.74" y1="74.38" x2="73.43" y2="94.5"/><line class="cls-54" x1="39.55" y1="70.81" x2="77.24" y2="90.92"/><line class="cls-55" x1="37.54" y1="64.21" x2="87.78" y2="91.02"/><line class="cls-54" x1="43.14" y1="67.08" x2="80.83" y2="87.2"/><line class="cls-54" x1="41.13" y1="60.48" x2="91.37" y2="87.29"/><path class="cls-54" d="M66.18,101.79c1.28.86,2.61,1.24,3.95,2a8.25,8.25,0,0,0,2.52,1.46"/><path class="cls-55" d="M63.81,97.27c-4.93,2.52-9.69,5.19-14.73,7.86"/><path class="cls-55" d="M86.78,85a2.06,2.06,0,0,0-.64.49c-6.1,3.24-12,6.1-18,9.46"/><line class="cls-54" x1="78.42" y1="82.38" x2="40.72" y2="102.49"/><line class="cls-54" x1="80.43" y1="75.77" x2="30.18" y2="102.59"/><path class="cls-55" d="M57.22,106.35c-2,1-3.92,2-5.87,3"/><path class="cls-55" d="M89.05,89.26c-7.68,3.86-15.11,8.24-22.68,12.1"/><line class="cls-55" x1="91.37" y1="93.63" x2="53.68" y2="113.74"/><path class="cls-54" d="M37.06,70.81c-13.24,7.07-26.2,14.12-39.31,21"/><line class="cls-55" x1="39.07" y1="64.21" x2="-11.17" y2="91.02"/><line class="cls-54" x1="33.47" y1="67.08" x2="-4.22" y2="87.2"/><line class="cls-55" x1="35.48" y1="60.48" x2="-14.76" y2="87.29"/><circle class="cls-2" cx="15.93" cy="90.58" r="0.55"/><circle class="cls-2" cx="15.96" cy="96.3" r="0.55"/><circle class="cls-2" cx="15.89" cy="85.05" r="0.55"/><circle class="cls-2" cx="21.71" cy="87.4" r="0.55"/><circle class="cls-2" cx="10.57" cy="87.64" r="0.55"/><circle class="cls-2" cx="10.57" cy="93.42" r="0.55"/><circle class="cls-2" cx="21.14" cy="98.88" r="0.55"/><circle class="cls-2" cx="43.46" cy="86.9" r="0.55"/><circle class="cls-2" cx="43.51" cy="92.5" r="0.55"/><circle class="cls-2" cx="43.77" cy="98.26" r="0.55"/><circle class="cls-2" cx="48.9" cy="95.33" r="0.55"/><circle class="cls-2" cx="48.73" cy="89.57" r="0.55"/><circle class="cls-2" cx="48.65" cy="84.04" r="0.55"/><circle class="cls-2" cx="54.06" cy="87.02" r="0.55"/><circle class="cls-2" cx="54.16" cy="92.56" r="0.55"/><circle class="cls-2" cx="59.41" cy="95.48" r="0.55"/><circle class="cls-2" cx="54.06" cy="98.04" r="0.55"/><circle class="cls-2" cx="59.41" cy="89.71" r="0.55"/><circle class="cls-2" cx="59.33" cy="84.05" r="0.55"/><circle class="cls-2" cx="64.65" cy="92.69" r="0.55"/><circle class="cls-2" cx="70.01" cy="89.94" r="0.55"/><circle class="cls-2" cx="74.58" cy="86.86" r="0.55"/><circle class="cls-2" cx="38.32" cy="89.64" r="0.55"/><circle class="cls-2" cx="38.32" cy="84.21" r="0.55"/><circle class="cls-2" cx="22.66" cy="81.33" r="0.55"/><circle class="cls-2" cx="28.1" cy="78.77" r="0.55"/></g></g><path class="cls-2" d="M44.32,65.87s4.55-8.18,4.55-11.06a66.73,66.73,0,0,1,1.27,9.91C50.14,65.36,44.32,65.87,44.32,65.87Z"/><path class="cls-56" d="M44.39,65.36s5.75-.64,7.35-1.92"/><path class="cls-2" d="M43,93.42v0l-.37.11Z"/><path class="cls-2" d="M35.54,55.52S41.84,64.4,45.35,66s-10.86,2.87-10.86,2.87Z"/><path class="cls-56" d="M34.39,66.74s9.25-.58,10.3-1.63"/><path class="cls-57" d="M69.72,83.46A11.46,11.46,0,0,0,57.49,90c-1.79,3.58-8.3,5.75-8.62,4.79s-1.28-18.22-1.28-18.22L53.88,76l3.29,2.78C60.63,81.66,68.25,83.19,69.72,83.46Zm0,0,.25.05ZM24.14,77.19l-14,11.5S8.6,90,8.6,90.92,21.19,99.46,42,95.08c3-.64-.91-16.94-.91-16.94ZM45.35,66c-.12-.06-.25-.12-.38-.2,1.52-.15,5.17-.57,5.17-1.08a66.73,66.73,0,0,0-1.27-9.91c0,2.52-3.49,9.11-4.36,10.71-3.59-2.41-9-10-9-10l-1,13.35S48.87,67.6,45.35,66Z"/><path class="cls-58" d="M23.94,66.32S45,67,50.46,64.08a51.67,51.67,0,0,1,3.2,11.83s-16.62,7-32.28,1C23.3,67.92,23.94,66.32,23.94,66.32Z"/><path class="cls-59" d="M35.62,62.14a1.37,1.37,0,0,0-.78-.82S19.27,56.17,16.73,57c-7.81,2.6-9.23,7.42-9.23,7.42a.67.67,0,0,0,.43.81s9.94,3.32,27.51,1.4C36.83,66.49,35.62,62.14,35.62,62.14Z"/><circle class="cls-2" cx="26.54" cy="62.76" r="0.27"/><g class="cls-50"><path class="cls-2" d="M35.9,59.59a1.42,1.42,0,0,0-.72-.87s-11.82-5-14-4.53c-6.65,1.53-8.67,4.26-8.67,4.26a.46.46,0,0,0,.21.74s14.75,5.53,22.73,3.93C36.59,62.89,35.9,59.59,35.9,59.59Z"/></g><path class="cls-12" d="M35.43,57.87a1.36,1.36,0,0,0-.79-.82s-11.49-4-13.66-3.39c-6.58,1.8-9,4.71-9,4.71a.37.37,0,0,0,.21.64s19.43,4.79,23.28,3.3C36.6,61.9,35.43,57.87,35.43,57.87Z"/><path class="cls-60" d="M35.43,57.87a1.36,1.36,0,0,0-.79-.82s-11.49-4-13.66-3.39c-6.58,1.8-9,4.71-9,4.71a.37.37,0,0,0,.21.64s19.43,4.79,23.28,3.3C36.6,61.9,35.43,57.87,35.43,57.87Z"/><g class="cls-50"><path class="cls-2" d="M35.89,56.44a1.42,1.42,0,0,0-.7-.89s-9.5-4.36-11.42-4c-5.79,1.07-8,3.39-8,3.39a.44.44,0,0,0,.14.74s9.64,4.58,19.71,4.62C36.62,60.29,35.89,56.44,35.89,56.44Z"/></g><path class="cls-12" d="M35.91,55.76a1.37,1.37,0,0,0-.74-.87s-9.65-4-11.55-3.59C17.87,52.58,15.74,55,15.74,55a.37.37,0,0,0,.18.66s16.45,5.1,19.84,4C36.72,59.29,35.91,55.76,35.91,55.76Z"/><path class="cls-61" d="M35.91,55.76a1.37,1.37,0,0,0-.74-.87s-9.65-4-11.55-3.59C17.87,52.58,15.74,55,15.74,55a.37.37,0,0,0,.18.66s16.45,5.1,19.84,4C36.72,59.29,35.91,55.76,35.91,55.76Z"/><path class="cls-62" d="M42.34,74.1a.8.8,0,0,1-.91-.62l-4.26.58S36,91.8,38.4,92.4s13.9-1,15.33-2.36c1.23-1.22-3.24-13.42-4.49-16.75Z"/><path class="cls-2" d="M37,74.82S34.59,86.91,37,87.2s14.57-1.63,16.08-2.62S49,73.26,49,73.26Z"/><path class="cls-63" d="M37,74.82S34.59,86.91,37,87.2s14.57-1.63,16.08-2.62S49,73.26,49,73.26Z"/><path class="cls-5" d="M52.23,80.05C50.94,76.89,49,73.26,49,73.26L37,74.82s-.68,3.38-1,6.6A59.33,59.33,0,0,0,52.23,80.05Z"/><path class="cls-64" d="M36.56,73.74s-1.68,6.67-.38,7.32,14.14-1.42,15.75-2-3-6.38-3-6.38Z"/><path class="cls-65" d="M12.12,83.26,8.38,87.9a.4.4,0,0,0,0,.74S14,93.16,24.43,93.16c1.78,0,3.66-18.21,3.66-18.21L22,74.31Z"/><path class="cls-5" d="M22.38,80.62a49.11,49.11,0,0,0-5.83.12L10.83,84c-.32.18-.31.45,0,.62,0,0,9.9,4.76,15.34,3.48.37-.94,1.59-9.27,1.59-9.27,0-.32-1.14,2.61-1.51,2.55Z"/><path class="cls-66" d="M21.58,79.89a45.55,45.55,0,0,0-5.83-.15L9.82,83.6c-.33.16-.35.43,0,.61A35.76,35.76,0,0,0,24.7,87.44c1.72,0,1.41-5.93,1.41-5.93a.9.9,0,0,0-.7-.74Z"/><path class="cls-5" d="M23.3,74.63c-.34-.08-.33-.79-.64-.64L14,80.18c-.31.15.18.5.46.67,0,0,3.68,2.36,11.67,2.41,1.59,0,2-8,2-8Z"/><path class="cls-67" d="M23,74.31a1.38,1.38,0,0,0-1,0l-8.38,5.5c-.3.16-.29.42,0,.57,0,0,4.39,2.18,12.37,1.71C27.61,82,27.77,75,27.77,75c0-.3-1.57-.27-1.91-.32Z"/><circle class="cls-3" cx="15.67" cy="79.26" r="0.74"/><circle class="cls-2" cx="15.58" cy="79.13" r="0.6"/><circle class="cls-2" cx="15.42" cy="79.02" r="0.24"/><circle class="cls-3" cx="22.65" cy="80.54" r="0.74"/><circle class="cls-2" cx="22.56" cy="80.41" r="0.6"/><circle class="cls-2" cx="22.41" cy="80.3" r="0.24"/><circle class="cls-3" cx="19.03" cy="77.69" r="0.74"/><circle class="cls-2" cx="18.94" cy="77.56" r="0.6"/><circle class="cls-2" cx="18.78" cy="77.45" r="0.24"/><circle class="cls-3" cx="22.65" cy="77.99" r="0.74"/><circle class="cls-2" cx="22.56" cy="77.85" r="0.6"/><circle class="cls-2" cx="22.41" cy="77.75" r="0.24"/><path class="cls-2" d="M22,74.65a60.43,60.43,0,0,0,7.48.65c5.59.15,19.38-1.25,23.78-3.52a3.48,3.48,0,0,0,.08-2.19,3.13,3.13,0,0,0-.41-1.33,2.86,2.86,0,0,0-.35-.43c-1.84-.13-14.48,4.38-23,4.16-2.14-.06-6.63-.95-7.27-.9C20.75,71.87,22,74.65,22,74.65Z"/><path class="cls-2" d="M22.64,74.51s-3.31,4.51-3.12,4.9S24,81.82,24,81s-1.62-4-.9-6.31S22.64,74.51,22.64,74.51Z"/><path class="cls-11" d="M22.73,74.48a9,9,0,0,0-.39,1.44,19.52,19.52,0,0,0-.18,2.64c0-.12.1-.25.12-.37.07-.32.12-.65.17-1a11.29,11.29,0,0,1,.68-3,.42.42,0,0,1,.21-.24c.13-.67-.17-.3-.42.07C22.85,74.2,22.79,74.34,22.73,74.48Z"/><path class="cls-11" d="M23,76.26a4.49,4.49,0,0,1,.17-1.56c.72-2.32-.5-.19-.5-.19l-.47.65A4.31,4.31,0,0,0,23,76.26Z"/><path class="cls-11" d="M28.28,73.34a3.3,3.3,0,0,0-1.13-1.71c-1.51-.15-3.15-.18-4.57-.44-.07,0-.17,0-.25.08a2.52,2.52,0,0,0-.71,1.51,4.54,4.54,0,0,0,.31,1.85c2,.29,4.47.56,6.29.7A3.54,3.54,0,0,0,28.28,73.34Z"/><path class="cls-2" d="M22.55,73.26S12.3,75.4,12.68,76s2.53,4.08,4,3.57,4.25-5.21,5.87-5.59S22.55,73.26,22.55,73.26Z"/><path class="cls-11" d="M17,76.47c-.09.1-.4.46-.31.63s.37.09.47.1c1.24.07,1.8-.86,2.58-1.65a9.08,9.08,0,0,1,1.57-1.25,9.88,9.88,0,0,1,1.81-.83l-.23-.11c-1.38.71-2.8,1.36-4.22,2A5.19,5.19,0,0,0,17,76.47Z"/><path class="cls-11" d="M22.55,73.26l-1.1.24c0,.4,0,.81-.07,1.22A2.89,2.89,0,0,1,22.54,74C24.15,73.61,22.55,73.26,22.55,73.26Z"/><path class="cls-2" d="M24.39,70.9h0a1.77,1.77,0,0,0-1.66,0,2,2,0,0,0-1,1.54,3.75,3.75,0,0,0,.68,2.4,2,2,0,0,0,1.87.66c1.23-.11,3.3-.47,3.28-2.08S25.74,71.14,24.39,70.9Z"/><path class="cls-11" d="M24.41,73.53c.08-.34.16-.67.26-1a7,7,0,0,1,.5-1.45L24.7,71a7.73,7.73,0,0,0-.38,2.68Z"/><path class="cls-5" d="M25.42,73.71a6.56,6.56,0,0,0,2.06-1,2.09,2.09,0,0,0-.81-1,6.34,6.34,0,0,1-1.79,1.75,5.05,5.05,0,0,1-.79.43A6.65,6.65,0,0,0,25.42,73.71Z"/><path class="cls-11" d="M23.22,73.87a5,5,0,0,0,2.88,1,.53.53,0,0,1,.28.1l.19-.09a5.76,5.76,0,0,1-2.78-1.33,6.65,6.65,0,0,1-1.51-2.37,2.15,2.15,0,0,0-.49,1A7.17,7.17,0,0,0,23.22,73.87Z"/><path class="cls-68" d="M109,80.05a12.38,12.38,0,0,0-1.5-2A6.15,6.15,0,0,0,105,76.31c-5.4-1.8-8.77,5.71-9.63,11.34s-5,12.32-10.1,9.83c2.61-14.93-10.79-25.74-24.71-29.67,10.35-3.73,7.31-12,1.17-14.07a14.15,14.15,0,0,0,5.79-1,14.17,14.17,0,0,0,1.93,2.49c1.78,1.84,5.55,5.18,6.82,7.46,2,3.53,10.27-6.61,9.09-8.87A7.07,7.07,0,0,0,79,50.6a12.52,12.52,0,0,1-4.49-2.77,1.57,1.57,0,0,1-.05-.3,18.76,18.76,0,0,0,2.88-5,17.15,17.15,0,0,0-4.92-18.87c3.12-2.79,6.36-5.77,7.72-9.73s.06-9.16-3.84-10.7C71,1.17,66.05,6.65,63,11.44,61.91,6.84,56.3,5,51.57,5s-9.77.92-14-1.29C35.88,2.79,34.38,1.37,32.46,1,28,0,24.28,5.44,25.08,10s4.38,7.94,7.76,11c-4.61,1.36-9.41,2.83-12.83,6.2s-4.86,9.27-1.84,13a5,5,0,0,0,1.74,1.17s-1.2,5.89-4.43,7.52C10.7,51.3,4.62,55.65,2.37,60.52S2.64,72.64,8,73c-5.94-.37-11.59,19.52-2,27.5-6.77,7.37-7.57,23.75,2.2,31.6,4.25,3.42,9.91,4.53,15.36,4.76,15,.64,29.85-4.46,44.81-3.31,9.82.76,21.8,3.4,27.84-4.38,3.15-4,3.33-9.67,5.68-14.23,1.72-3.36,4.55-6,6.63-9.16A24.49,24.49,0,0,0,109,80.05Z"/></g></svg>