<svg xmlns="http://www.w3.org/2000/svg" viewBox="0 0 87.64 78.64"><defs><style>.cls-1{fill:#7673c0;}.cls-2{fill:none;stroke:#7673c0;stroke-miterlimit:10;stroke-width:1.8px;opacity:0.3;}</style></defs><title>ruby</title><g id="ecosystem-2" data-name="ecosystem"><path class="cls-1" d="M79.59,18A9.82,9.82,0,0,0,74,12.72c-2.61-1-13.09-4-15.34-4.62-6-2.11-15.85-.53-26.22,4.66C22.3,17.86,15.21,24.67,13.16,30.64,11.87,33.85,7.77,44.17,7.37,47,6,56.3,13,60,19.08,61.48c11.34,2.73,41.73,9.85,42,9.92a1.65,1.65,0,0,0,.44,0,1.89,1.89,0,0,0,1.77-1.24c.11-.28,10.59-28.59,15.12-39.28C80.64,25.76,81,21.43,79.59,18ZM63.13,20.64,70,30.86,57,28.43A27.43,27.43,0,0,0,63.13,20.64Zm-.63,23a17.48,17.48,0,0,1-9.21,6.93l1-16.31Zm-28.35.41,13.91,9.2A27.07,27.07,0,0,1,36.68,57.4ZM50.8,56l5.81,9.3L42.76,59.9A27.47,27.47,0,0,0,50.8,56Zm3.41-1.7a21.63,21.63,0,0,0,7.93-4.48l-2,13.92Zm11.24-13L57.7,32.42,71.22,35C68.85,39.22,66.59,40.73,65.45,41.25ZM49.54,49.68,35.59,40.46a59.93,59.93,0,0,0,8.94-3.65,62.49,62.49,0,0,0,6-3.41Zm-30.17,4L18.23,41.45a18.18,18.18,0,0,0,6.1.94,30.3,30.3,0,0,0,3.22-.19Zm11-9,2.47,13-10.45.66L21,58Zm4.85,16.64a2.28,2.28,0,0,0,.39-.06v0l.29,0,1.71.66-2.57-.61ZM66.7,44.84a10.73,10.73,0,0,0,2.79-1.69c-1.39,3.58-2.81,7.31-4.12,10.78ZM75,29.44c-.17.4-.34.82-.52,1.26l-6.67-10,8.68,3.82A22,22,0,0,1,75,29.44Zm1.15-9.93a7.38,7.38,0,0,1,.28.87L64.44,15.12a8.11,8.11,0,0,0-.22-1.49c3.43,1,7.11,2.11,8.43,2.62A6.1,6.1,0,0,1,76.1,19.51ZM34.17,16.15C41.28,12.59,47.89,11,52.73,11c3.9,0,6.64,1,7.56,2.85h0c1.51,3-1.75,8.76-8.76,14.15l-.05,0,0,0a54.61,54.61,0,0,1-8.61,5.33C30,39.86,18.77,39.79,16.72,35.71a5.14,5.14,0,0,1,.17-4.15l.12-.32h0C18.93,26.73,25,20.77,34.17,16.15ZM11.76,52.69,14.85,46l1,10.31A8.8,8.8,0,0,1,11.76,52.69Z"/><path class="cls-2" d="M85.39,15.57a16.08,16.08,0,0,0-9.08-8.73c-2.7-1-11.77-3.65-15.73-4.77-7.8-2.64-19.34-.76-30.93,5.05S10,20.64,7.26,28.42C3.55,37.63,1.49,43.56,1.13,46.05-.4,56.69,5.76,64.74,17.6,67.59,27,69.87,49.72,75.19,59,77.38l.7.16a8.41,8.41,0,0,0,1.8.2,8.22,8.22,0,0,0,7.69-5.36c.44-1.17,10.62-28.64,15-39C87.13,26.59,87.51,20.6,85.39,15.57Z"/></g></svg>