<svg xmlns="http://www.w3.org/2000/svg" xmlns:xlink="http://www.w3.org/1999/xlink" viewBox="0 0 262.19 199.02"><defs><style>.cls-1,.cls-2{fill:none;stroke-linecap:round;stroke-linejoin:round;}.cls-1{stroke:#7673c0;stroke-width:1.68px;opacity:0.3;}.cls-2{stroke-width:2.52px;opacity:0.5;stroke:url(#linear-gradient);}</style><linearGradient id="linear-gradient" x1="27.67" y1="99.78" x2="234.07" y2="99.78" gradientUnits="userSpaceOnUse"><stop offset="0" stop-color="#8db6ed"/><stop offset="0.91" stop-color="#b28cff"/></linearGradient></defs><title>Artboard 51</title><g id="Stickers"><path class="cls-1" d="M233,150H229.8a6.43,6.43,0,0,0-3.81-4.62v-.11a8.32,8.32,0,0,0-7-8.2c0-.13,0-.27,0-.4v-.34a8.31,8.31,0,0,0-1.58-4.9l.25-.41a6.41,6.41,0,0,0-2.51-8.72l-7.38-4.08a12.4,12.4,0,0,0-12,0h0l-1.66.91-4-2.49a10.26,10.26,0,0,0,1.19-.49,6.36,6.36,0,0,0,4.13,1.51,6.48,6.48,0,0,0,2.87-.68,9.91,9.91,0,0,0,5.52-8.37,10,10,0,0,0-.44-3.59,9.82,9.82,0,0,0,.66-3.55,9.94,9.94,0,0,0-2.73-6.93,10.53,10.53,0,0,0-.47-1.26,10.58,10.58,0,0,0,1.32-.51,10.07,10.07,0,0,0,10.6-7.7,10,10,0,0,0,1.62-9.65,10,10,0,0,0-4.53-11.62l-.13-.07-.05,0a17.86,17.86,0,0,0-1.93-.94,9.63,9.63,0,0,0-4.48-6,9.85,9.85,0,0,0-4.38-1.34,9.67,9.67,0,0,0-7.24-4.31,9.85,9.85,0,0,0-6.35-4.47,6.51,6.51,0,0,0,.15-1.53,11.05,11.05,0,0,0-5.9-9.62,11.19,11.19,0,0,0-3.77-1.22,11.1,11.1,0,0,0-4.21-3.42,11.22,11.22,0,0,0-4.25-1.05,11.11,11.11,0,0,0-3.19-2.43,11.27,11.27,0,0,0-4.31-1.2,11.25,11.25,0,0,0-3.72-3,11.06,11.06,0,0,0-11.23.63l-4.61,3-.67-.09a10.87,10.87,0,0,0-3-2.4,10.73,10.73,0,0,0-6-1.25,10.78,10.78,0,0,0-10.92.49,10.8,10.8,0,0,0-11,9.67A10.5,10.5,0,0,0,106,35.31a10.57,10.57,0,0,0-4.45,1.42,10.74,10.74,0,0,0-2.1,1.61A10.6,10.6,0,0,0,90.7,42.6a10.19,10.19,0,0,0-8.61,5.78,10,10,0,0,0-7.58,6.85,7.17,7.17,0,0,0-.27,1.5A11.22,11.22,0,0,0,67,61.18a11.33,11.33,0,0,0-3.66,1.24,11.07,11.07,0,0,0-5.12,5.85l-.11.06a9.27,9.27,0,0,0,.41,16.27l2,1a6.21,6.21,0,0,0,1.63.58A9.91,9.91,0,0,0,62,88v.37a6.45,6.45,0,0,0,3.07,5.47l2.59,1.58a14.35,14.35,0,0,0,14.8.13,10.82,10.82,0,0,1,11,0,14.44,14.44,0,0,0,14.42.18l2.45-1.37a6.38,6.38,0,0,0,3-3.84l6.86,3.8a6.65,6.65,0,0,0-1.51,1.73,6.43,6.43,0,0,0-.89,3.15,8.1,8.1,0,0,0-4.51.7,8.47,8.47,0,0,0-2.25,0,8.1,8.1,0,0,0-4.09-.84,8.11,8.11,0,0,0-7.9.06l-1.34.77a8.08,8.08,0,0,0-4.09,6.83c-.08.12-.15.24-.22.36a6.59,6.59,0,0,0-1.25-.34l-.15,0-.44,0h-.27a6.45,6.45,0,0,0-2.6-2.8l-3-1.7a2.69,2.69,0,0,0-.29-.16h0a6.25,6.25,0,0,0-1.85-.59l-.08,0-.43,0a6.31,6.31,0,0,0-2.17.19l-.35.1a6.26,6.26,0,0,0-1.21.55l-3,1.7a6.42,6.42,0,0,0-3.14,6.35,6.4,6.4,0,0,0-7.1,7.84c0,.18.1.37.16.54a6.4,6.4,0,0,0,.44,5.07,8.06,8.06,0,0,0-.75,2.2H64.51a8.24,8.24,0,0,0-8.21,6.84,8.15,8.15,0,0,0-7.08,8v.39H42.86a8.44,8.44,0,0,0-8.42,8.43v.11H29.16a6.41,6.41,0,0,0,0,12.82H43.45a6.39,6.39,0,0,0,2.19-.39,6.57,6.57,0,0,0,1.73.24H65.23a8.43,8.43,0,0,0,2.77-.47,6.33,6.33,0,0,0,3.36,1h18a6.27,6.27,0,0,0,2.13-.37,6.42,6.42,0,0,0,6.51,1,8.52,8.52,0,0,0,2.28.72c0,.06,0,.12,0,.18A6.41,6.41,0,0,0,110,171l.79-.51a8.83,8.83,0,0,0,8.31-.11,8.8,8.8,0,0,0,7.31.54,6.15,6.15,0,0,0,.77,2.29l.34.59a6.06,6.06,0,0,0,8.16,2.29,8.8,8.8,0,0,0,4.25,1.1,8.91,8.91,0,0,0,4.26-1.09,8.8,8.8,0,0,0,8.5,0,8.81,8.81,0,0,0,8.64-.08l1.28-.74a6.41,6.41,0,0,0,2.34-8.76,7.13,7.13,0,0,0-.68-.95,8.51,8.51,0,0,0,2.72-1,8.78,8.78,0,0,0,8.64-.07l1-.58a18.64,18.64,0,0,0,7.38,1.47c.48,0,.87,0,1.16,0a16.74,16.74,0,0,0,8.49-2.62H233A6.41,6.41,0,1,0,233,150Z"/><path class="cls-2" d="M143.3,32.52l4.64-3.06a5.12,5.12,0,0,1,7.93,4v.24a5.12,5.12,0,0,1,8,3.52,5.12,5.12,0,0,1,7.82,4v.15a5.12,5.12,0,0,1,7.43,4.46m-36.28-7.4v-.39a4.62,4.62,0,0,0-7-4.06A4.62,4.62,0,0,0,129,30.32h0a4.66,4.66,0,0,0-3.94-1.8,4.59,4.59,0,0,0-3.73,2.18l-.07.1a4.68,4.68,0,0,0-6.86,4.15m17.31,73.91a.38.38,0,0,1-.34,0,.34.34,0,0,1-.17-.3v-5.34a.34.34,0,0,1,.18-.3.32.32,0,0,1,.34,0l4.38,2.82a.34.34,0,0,1,.16.29.34.34,0,0,1-.17.29Zm.65,4.14c6.44-3.79,6.36-3.65,6.89-4,1.31-1,6.09-3.56,6.09-5.2s-4.53-4.17-6.5-5.3L115.18,85.37a13.62,13.62,0,0,1-7.13-13V64.32l-6.75-3.83m7,3.7,6.88-3.73m25.33,25.89,8.74-5.13a26.93,26.93,0,0,1,26.6-.32L176,81a4.62,4.62,0,0,0,4.54,0l4.18-2.41.14,1.24a4.6,4.6,0,0,0,6.88,3.5l1.08-.63V83.7a4.62,4.62,0,0,0,4.6,4.58,4.67,4.67,0,0,0,2.2-.56L201,87a4,4,0,0,0,5.65-3.55v-.66a3.88,3.88,0,0,0,.22-6.59,3.88,3.88,0,0,0-.36-6.5l-.12-.07a7.78,7.78,0,0,0-4.73-1.25v-2.6a3.63,3.63,0,0,0-5.39-3.17l-2.19,1.22,0-2.36a3.63,3.63,0,0,0-5.46-3.16l-2,1.17V56.75a3.62,3.62,0,0,0-5.33-3.19,1.61,1.61,0,0,1-1.59,0,1.59,1.59,0,0,1-.78-1.38V50.78M116,39.26a4.47,4.47,0,0,0-6.89,3.46l-.3-.17a4.47,4.47,0,0,0-6.65,3.69l-1.07-.62a4.37,4.37,0,0,0-6.55,3.79v1.28l-1.47-.86A4.06,4.06,0,0,0,87,53l-.17,2.34-2.27-.42a3.92,3.92,0,0,0-4.45,2.69m98.64,13V69.29a4.18,4.18,0,0,0-6.38-3.57l-.37.22-.06-1a4.18,4.18,0,0,0-6.37-3.32l-1.08.66m-46.91,53.13a.34.34,0,0,1,.34.34,1.93,1.93,0,0,1-1,1.66l-4,2.32a1.25,1.25,0,0,0-.62,1l-.08,5.46,2.68,1.57m5.89-12.22.49.28a2,2,0,0,0,3-1.77v-.37l.28-.17a2,2,0,0,0,1-1.76,2,2,0,0,0-1-1.76l-3.32-1.9v-.26a2,2,0,0,0-3.09-1.73l-.27.16-.27-.17a2,2,0,0,0-3.1,1.62l-1.64-1a2,2,0,0,0-2,0l-1.6.93a2,2,0,0,0-3-1.73l-.38.21-1.94-1.16a2,2,0,0,0-2,0l-1.34.77a2,2,0,0,0-1,1.8l0,2.26-.39.23a2,2,0,0,0-1,1.77,2,2,0,0,0,1,1.76l.29.16v.36a2,2,0,0,0,1,1.76,2,2,0,0,0,2,0h0a2,2,0,0,0,1,1.56,2,2,0,0,0,1,.26,2,2,0,0,0,1.08-.32l2.87-1.69a2,2,0,0,0,3,1.73l.49-.28m13.82,8.35,2.23,1.21a1.76,1.76,0,0,0,.83.21,1.81,1.81,0,0,0,.88-.23,1.75,1.75,0,0,0,0-3l-.56-.35v-.67a1.76,1.76,0,0,0-2.62-1.49l-.27.16v-.22a1.76,1.76,0,0,0-2.63-1.51l-.55.32-.5-.3a1.76,1.76,0,0,0-2.64,1.54v.17l-1.67-.93a1.77,1.77,0,0,0-1.74,0,1.74,1.74,0,0,0-.87,1.52,1.71,1.71,0,0,0,.87,1.51l.55.32v.62a1.75,1.75,0,0,0,2.6,1.52l.73-.41m74.65-13.33.15,0a3.94,3.94,0,0,0,.49-6.76,4,4,0,0,0,0-6.75l-.47-.28v-.42a3.56,3.56,0,0,0-5.21-3.24l-.56.3a3.54,3.54,0,0,0-5.43-2.86v-.46a3.56,3.56,0,0,0-5.41-3l0,0v0a3.48,3.48,0,0,0-2-3.11,3.53,3.53,0,0,0-3.68.36l-.42.32-.14-.1a3.55,3.55,0,0,0-5.6,2.47,4,4,0,0,0-5.72,3.3,4,4,0,0,0-5.56,3.1l-5.73-3.22m-49.8-23.1V67.08a4.39,4.39,0,0,0-6.57-3.81l-.89.52v-.21a4.38,4.38,0,0,0-6.69-3.91l-1,.62A4.39,4.39,0,0,0,78,63.74a5.13,5.13,0,0,0-7.3,4.52,5.11,5.11,0,0,0-7.36,4.53L60.93,74.2a3.14,3.14,0,0,0-1.59,2.85,3.18,3.18,0,0,0,1.73,2.77l2,1a.28.28,0,0,0,.15,0M71.72,128a1.84,1.84,0,0,1,1.84-1.84h16.2A1.84,1.84,0,0,1,91.6,128v.25A1.84,1.84,0,0,1,89.76,130H73.56a1.84,1.84,0,0,1-1.84-1.84Zm8.6,24.28a.34.34,0,0,0,.34-.34v-3.84a.34.34,0,0,0-.16-.29.34.34,0,0,0-.34,0l-3.3,1.86a.33.33,0,0,0-.13.46.34.34,0,0,0,.46.13L80,148.64v3.25A.34.34,0,0,0,80.32,152.23Zm113.35-20.15h-14a1.25,1.25,0,0,0-1.24,1.24v.37a1.24,1.24,0,0,0,1.24,1.24h14a1.24,1.24,0,0,0,1.24-1.24v-.37A1.25,1.25,0,0,0,193.67,132.08ZM93.8,73.77a4.26,4.26,0,0,0-6.53,3.61v0a4.27,4.27,0,0,0-6.11,3.72l-.32-.2a4.27,4.27,0,0,0-6.52,3.62V85a4.26,4.26,0,0,0-6.47,3.65V89a.36.36,0,0,0,.16.29l2.59,1.58a8.28,8.28,0,0,0,8.55.08,16.88,16.88,0,0,1,17.2,0,8.33,8.33,0,0,0,8.36.11l2.45-1.37m16.37,34.18a6.42,6.42,0,0,1-2.64,5.14l-2.32,1.16h0s0,0,0,0,0,0,0,0,0,0,0,0h0s0,0,0,0l-.11,6.72m.11-6.72,3.4,2a3.2,3.2,0,0,1,1.59,2.76l0,7.8,1.42,1a3.16,3.16,0,0,1,1.41,2.63v6l.07,0,2.54,1.47a1.62,1.62,0,0,0,1.62,0l2.54-1.47a.34.34,0,0,1,.34,0l2.54,1.47a1.62,1.62,0,0,0,1.62,0l2.54-1.47a.34.34,0,0,1,.34,0l2.55,1.47a1.6,1.6,0,0,0,1.61,0l2.55-1.47a.34.34,0,0,1,.34,0l2.54,1.47a1.62,1.62,0,0,0,1.62,0l2.54-1.47a.34.34,0,0,1,.34,0l2.54,1.47a1.62,1.62,0,0,0,1.62,0l1.06-.61a3.48,3.48,0,0,1,3.34-.07l1.93,1m8.23,4.47-1.28.74a2,2,0,0,1-2,0L167,157.54a.34.34,0,0,0-.34,0l-3.07,1.78a2,2,0,0,1-2,0l-3.07-1.78a.34.34,0,0,0-.34,0L155,159.32a2,2,0,0,1-2,0l-3.08-1.78a.34.34,0,0,0-.34,0l-3.07,1.78a2,2,0,0,1-2,0l-3.07-1.78a.34.34,0,0,0-.34,0L138,159.32a2,2,0,0,1-2,0l-3.07-1.78a.34.34,0,0,0-.35,0l-4.08,2.65M159,170.06l-1.27.74a2,2,0,0,1-2,0L152.67,169a.34.34,0,0,0-.34,0l-3.08,1.77a2,2,0,0,1-2,0L144.16,169a.34.34,0,0,0-.34,0l-3.07,1.77a2,2,0,0,1-2,0L135.65,169a.34.34,0,0,0-.34,0l-3.07,1.77m-37-13,2.56-1.43a.34.34,0,0,1,.34,0l2.52,1.5a1.62,1.62,0,0,0,1.62,0l2.57-1.43a.34.34,0,0,1,.34,0l2.52,1.51a1.62,1.62,0,0,0,1.61,0l2.57-1.43a.34.34,0,0,1,.34,0l2.52,1.51a1.62,1.62,0,0,0,1.62,0l2.56-1.43a.34.34,0,0,1,.34,0l.65.38V146.37a2.5,2.5,0,0,0-1.25-2.16l-7-4.06a.34.34,0,0,1-.17-.29v-4.92a2.5,2.5,0,0,0-1.25-2.16l-4.28-2.45a.31.31,0,0,1-.17-.3l0-1.58a2.5,2.5,0,0,0-1.22-2.17l-4.06-2.41-9,0a4.07,4.07,0,0,0-3,1.41m12-2.12a.39.39,0,0,1,.15,0L106.1,120m14.46,37.45,1.19.71a1.62,1.62,0,0,0,1.62,0l1.06-.6M85.16,110.35a.33.33,0,0,0,.17,0,.32.32,0,0,0,.29-.17.33.33,0,0,0-.12-.46l-3-1.71h0l-.11,0h-.15l-.08,0-2.94,1.71a.34.34,0,0,0-.13.47.35.35,0,0,0,.47.12L82,108.94v2.62l-2.76,1.6a.33.33,0,0,0-.12.46.32.32,0,0,0,.29.17.33.33,0,0,0,.17,0l2.42-1.4v2.52l-2.76,1.6a.34.34,0,0,0,.34.58L82,115.66v7.84a.35.35,0,0,0,.69,0v-7.89l2.47,1.51a.31.31,0,0,0,.18,0,.33.33,0,0,0,.29-.16.34.34,0,0,0-.11-.47l-2.83-1.73v-2.47l2.42,1.38a.33.33,0,0,0,.46-.12.34.34,0,0,0-.12-.47l-2.76-1.57v-2.63Zm8.54,5.34a.33.33,0,0,0,.17,0,.35.35,0,0,0,.3-.17.36.36,0,0,0-.13-.47l-3-1.7h0l-.11,0h0a.31.31,0,0,0-.19,0l-3,1.71a.33.33,0,0,0-.13.46.34.34,0,0,0,.47.13l2.44-1.41v2.62l-2.77,1.6a.33.33,0,0,0-.12.46.32.32,0,0,0,.29.17.33.33,0,0,0,.17,0l2.43-1.4v2.68a.35.35,0,0,0,.34.35.35.35,0,0,0,.34-.35v-2.69l2.42,1.38a.34.34,0,0,0,.47-.13.34.34,0,0,0-.13-.46l-2.76-1.57v-2.63Zm67.72-1.77,1.32,1.48a4.25,4.25,0,0,0,7.15-1.33,4.24,4.24,0,0,0,6.89-1.83l.08-.26a4.14,4.14,0,0,0,3.72,1,4.2,4.2,0,0,0,3.06-2.47,4.24,4.24,0,0,0,7-1.91l.08-.27m-10.77-4.61,2.77,1.45M128,101.92l-3.79-2.24M71.88,121.44a.35.35,0,0,0,.3.17.41.41,0,0,0,.17,0l3.41-2a.34.34,0,0,0,.16-.29.32.32,0,0,0-.16-.29l-3.41-2.09a.33.33,0,0,0-.46.11.34.34,0,0,0,.11.47l2.92,1.79L72,121A.35.35,0,0,0,71.88,121.44ZM43.22,156.32H28.93m60.24.34h-18m12.72-25.28L81.15,135l4.65,9.57L91,138.91m-5.14,5.75L94,142m-8.19,2.7,5.67,3M103.57,155l5.68-3.35a.33.33,0,0,0,.14-.4l0-4.74a3.17,3.17,0,0,0-1.56-2.73l-7.29-4.08V135a2.58,2.58,0,0,0-1.39-2.44l-3.9-2.69.11-1.69m3.47,16.4,1.71-4.69V135m-.5-66.32V67.08a4.39,4.39,0,0,0-6.57-3.81l-.89.52v-.21a4.38,4.38,0,0,0-6.69-3.91l-1,.62A4.39,4.39,0,0,0,78,63.74a5.13,5.13,0,0,0-7.3,4.52,5.11,5.11,0,0,0-7.36,4.53L60.93,74.2a3.14,3.14,0,0,0-1.59,2.85,3.18,3.18,0,0,0,1.73,2.77l2,1M78,133.26H64.28a1.45,1.45,0,0,0-1.56,1.3v.18a1.45,1.45,0,0,0,1.56,1.3h8.1a2,2,0,1,1,0,4H57.3a1.45,1.45,0,0,0-1.56,1.31v.52a1.45,1.45,0,0,0,1.56,1.3h25m-2,9.09a.34.34,0,0,0,.34-.34v-3.84a.34.34,0,0,0-.16-.29.34.34,0,0,0-.34,0l-3.3,1.86a.33.33,0,0,0-.13.46.34.34,0,0,0,.46.13L80,148.64v3.25A.34.34,0,0,0,80.32,152.23Zm116-13.6H211c.57,0,1-.62,1-1.37v-.34c0-.76-.46-1.38-1-1.38H200.26a2.09,2.09,0,0,1,0-4.11H204m-53.57-4.73v-4.37a.35.35,0,0,0-.17-.3.33.33,0,0,0-.33,0l-3.85,2.12m27.24,34.43-1.28.74a2,2,0,0,1-2,0L167,157.54a.34.34,0,0,0-.34,0l-3.07,1.78a2,2,0,0,1-2,0l-3.07-1.78a.34.34,0,0,0-.34,0L155,159.32a2,2,0,0,1-2,0l-3.08-1.78a.34.34,0,0,0-.34,0l-3.07,1.78a2,2,0,0,1-2,0l-3.07-1.78a.34.34,0,0,0-.34,0L138,159.32a2,2,0,0,1-2,0l-3.07-1.78a.34.34,0,0,0-.35,0l-4.08,2.65M151,164.35l-1.28.73a2,2,0,0,1-2,0l-3.07-1.77a.34.34,0,0,0-.34,0l-3.07,1.77a2,2,0,0,1-2,0l-3.07-1.77a.34.34,0,0,0-.34,0l-3.07,1.77a2,2,0,0,1-2,0l-3.07-1.77a.34.34,0,0,0-.34,0l-3.08,1.77a2,2,0,0,1-2,0l-3.07-1.77a.34.34,0,0,0-.34,0l-3.07,1.77a2,2,0,0,1-2,0l-3.07-1.77a.34.34,0,0,0-.35,0L106.13,166m92.41-21.67h18.91a1.56,1.56,0,0,1,1.56,1.56v.32a1.56,1.56,0,0,1-1.56,1.56H203.3a2.25,2.25,0,0,0,0,4.49h20M71.88,121.44a.35.35,0,0,0,.3.17.41.41,0,0,0,.17,0l3.41-2a.34.34,0,0,0,.16-.29.32.32,0,0,0-.16-.29l-3.41-2.09a.33.33,0,0,0-.46.11.34.34,0,0,0,.11.47l2.92,1.79L72,121A.35.35,0,0,0,71.88,121.44Zm2,26.34H42.73a2.43,2.43,0,0,0-2.41,1.89,2.37,2.37,0,0,0,2.32,2.83H63a2,2,0,0,1,2,2h0a2,2,0,0,1-2,2H47.14m-3.92-.18H28.93m203.88.34H192.18a10.64,10.64,0,0,0-14.47-15.56s0,0,0-.06a4.66,4.66,0,0,0-1.27-3.34,4.75,4.75,0,0,0-3.36-1.5,4.84,4.84,0,0,0-1.92.34,10.68,10.68,0,0,0-.33-2.1,10,10,0,0,0-4.81-6.15.26.26,0,0,0-.15,0,10.3,10.3,0,0,0-15.27,8.15,10.67,10.67,0,0,0-4.25-.87,10.8,10.8,0,0,0-10.57,8.65,11,11,0,0,0-4,.37M179,152.09a1.86,1.86,0,0,0,1.55,2.13,2.51,2.51,0,0,0,2.88-2.09,3.45,3.45,0,0,0-2.86-3.95,4.92,4.92,0,0,0-3.82,1,4.23,4.23,0,0,0-1.66,3,6.57,6.57,0,0,0,1.69,5.43c2.06,2.09,5.38,2.38,7.05,2.38.41,0,.72,0,.89,0a10.61,10.61,0,0,0,6.81-2.65.28.28,0,0,0,.13,0M164,140.07a2.67,2.67,0,0,0-1-3.68,3.8,3.8,0,0,0-5.14,1.36,5.1,5.1,0,0,0,1.93,7,7.4,7.4,0,0,0,10-2.65,10.09,10.09,0,0,0,1.39-4.85m-34.71,7a11,11,0,0,1,2.83.84m72.75-16.9-7.38-4.08a6.38,6.38,0,0,0-6.18,0l-4.76,2.64-9.41-5.81a6.37,6.37,0,0,0-6.7,0l-7.4,4.55m-34.5,9.86a10.66,10.66,0,0,1,1.77-17.06l14.94-8.8a6.53,6.53,0,0,0,0-11.29L118,78.67c-3.15-1.87-3.08-4.1-3-7.18,0-.59,0-1.19,0-1.84V68.12a.34.34,0,0,1,.5-.29l2.35,1.32a2.74,2.74,0,0,0,4.08-2.39.36.36,0,0,1,.17-.3.34.34,0,0,1,.34,0l1.25.73a5.45,5.45,0,0,0,5.62,0l1.16-.71m-1.3,17.82,1.8-1.17a10.27,10.27,0,0,0,4.65-8.61V71.8s0,0,0,0m-1.57-3.93v.41a3.19,3.19,0,0,0,4.66,2.84l.43-.22a.37.37,0,0,1,.34,0,.37.37,0,0,1,.16.3v.19a3.19,3.19,0,0,0,4.9,2.71l.17-.1m-4.25.46v2.24a10.94,10.94,0,0,1-5,9.18l-1.62,1.06M147.77,113l1.28.73a8.64,8.64,0,0,0,8.54,0l20.55-11.86V99.3"/></g></svg>