<svg xmlns="http://www.w3.org/2000/svg" xmlns:xlink="http://www.w3.org/1999/xlink" viewBox="0 0 175.81 189.26"><defs><style>.cls-1,.cls-10,.cls-11,.cls-18,.cls-2,.cls-23,.cls-24,.cls-25,.cls-26,.cls-3,.cls-38,.cls-39,.cls-4,.cls-40,.cls-41,.cls-49,.cls-5,.cls-54,.cls-55,.cls-56,.cls-57,.cls-58,.cls-59,.cls-63,.cls-64,.cls-65,.cls-66,.cls-67,.cls-68,.cls-69,.cls-7,.cls-70,.cls-71,.cls-72,.cls-73,.cls-74,.cls-75,.cls-76,.cls-77,.cls-78,.cls-79,.cls-8,.cls-80,.cls-81,.cls-82,.cls-83,.cls-9,.cls-97{fill:#fff;}.cls-1,.cls-13,.cls-14,.cls-15,.cls-17,.cls-18,.cls-19,.cls-2,.cls-20,.cls-21,.cls-22,.cls-23,.cls-24,.cls-25,.cls-28,.cls-29,.cls-3,.cls-30,.cls-31,.cls-32,.cls-33,.cls-34,.cls-35,.cls-36,.cls-37,.cls-38,.cls-39,.cls-40,.cls-41,.cls-46,.cls-47,.cls-48,.cls-50,.cls-51,.cls-52,.cls-53,.cls-54,.cls-55,.cls-56,.cls-57,.cls-58,.cls-59,.cls-60,.cls-61,.cls-62,.cls-63,.cls-64,.cls-65,.cls-66,.cls-67,.cls-68,.cls-69,.cls-7,.cls-70,.cls-71,.cls-72,.cls-73,.cls-74,.cls-75,.cls-76,.cls-77,.cls-78,.cls-79,.cls-8,.cls-80,.cls-81,.cls-82,.cls-83,.cls-84,.cls-85,.cls-86,.cls-87,.cls-88,.cls-89,.cls-90,.cls-91,.cls-92,.cls-93,.cls-94,.cls-96,.cls-97{stroke-linecap:round;stroke-linejoin:round;}.cls-1,.cls-103,.cls-13,.cls-18,.cls-2,.cls-23,.cls-24,.cls-25,.cls-28,.cls-29,.cls-3,.cls-30,.cls-31,.cls-32,.cls-33,.cls-34,.cls-35,.cls-36,.cls-37,.cls-38,.cls-39,.cls-40,.cls-41,.cls-63,.cls-64,.cls-65,.cls-66,.cls-67,.cls-68,.cls-69,.cls-7,.cls-70,.cls-71,.cls-72,.cls-73,.cls-74,.cls-75,.cls-76,.cls-77,.cls-78,.cls-79,.cls-8,.cls-80,.cls-81,.cls-82,.cls-83,.cls-84,.cls-85,.cls-86,.cls-96{stroke-width:1.8px;}.cls-1,.cls-37{stroke:url(#linear-gradient);}.cls-2{stroke:url(#linear-gradient-2);}.cls-3{stroke:url(#linear-gradient-3);}.cls-10,.cls-100,.cls-101,.cls-102,.cls-103,.cls-11,.cls-12,.cls-16,.cls-4,.cls-43,.cls-44,.cls-45,.cls-49,.cls-5,.cls-6,.cls-9,.cls-95,.cls-98,.cls-99{stroke-miterlimit:10;}.cls-10,.cls-100,.cls-101,.cls-102,.cls-11,.cls-12,.cls-16,.cls-4,.cls-43,.cls-44,.cls-45,.cls-49,.cls-5,.cls-6,.cls-9,.cls-95,.cls-98,.cls-99{stroke-width:0.85px;}.cls-4{stroke:url(#linear-gradient-4);}.cls-5{stroke:url(#linear-gradient-5);}.cls-6{fill:url(#New_Gradient_Swatch_11);stroke:url(#linear-gradient-6);}.cls-7{stroke:url(#linear-gradient-7);}.cls-8{stroke:url(#linear-gradient-8);}.cls-9{stroke:url(#linear-gradient-9);}.cls-10{stroke:url(#linear-gradient-10);}.cls-11{stroke:url(#linear-gradient-11);}.cls-12,.cls-42{opacity:0.2;}.cls-12{fill:url(#New_Gradient_Swatch_10);stroke:url(#linear-gradient-12);}.cls-101,.cls-103,.cls-13,.cls-28,.cls-29,.cls-30,.cls-31,.cls-32,.cls-33,.cls-34,.cls-35,.cls-36,.cls-37,.cls-96{fill:none;}.cls-13{stroke:url(#linear-gradient-13);}.cls-14,.cls-15,.cls-16,.cls-17,.cls-19,.cls-20,.cls-21,.cls-22,.cls-43,.cls-44,.cls-45,.cls-46,.cls-47,.cls-50,.cls-51,.cls-52,.cls-53,.cls-60,.cls-61,.cls-62,.cls-84,.cls-85,.cls-86,.cls-87,.cls-88,.cls-89,.cls-90,.cls-91,.cls-92,.cls-93,.cls-94{fill:#7673c0;}.cls-14,.cls-15,.cls-17,.cls-19,.cls-20,.cls-21,.cls-22,.cls-46,.cls-47,.cls-48,.cls-50,.cls-51,.cls-52,.cls-53,.cls-54,.cls-55,.cls-56,.cls-57,.cls-58,.cls-59,.cls-60,.cls-61,.cls-62,.cls-87,.cls-88,.cls-89,.cls-90,.cls-91,.cls-92,.cls-93,.cls-94,.cls-97{stroke-width:1.07px;}.cls-14{stroke:url(#linear-gradient-14);}.cls-15{stroke:url(#linear-gradient-15);}.cls-16{stroke:url(#linear-gradient-16);}.cls-17{stroke:url(#linear-gradient-17);}.cls-18{stroke:url(#linear-gradient-18);}.cls-19,.cls-50,.cls-51,.cls-53{opacity:0.4;}.cls-19{stroke:url(#linear-gradient-19);}.cls-20{stroke:url(#linear-gradient-20);}.cls-21,.cls-52,.cls-60,.cls-61,.cls-62,.cls-84,.cls-85,.cls-86,.cls-87,.cls-88,.cls-89,.cls-90,.cls-91,.cls-92,.cls-93,.cls-94{opacity:0.15;}.cls-21{stroke:url(#linear-gradient-21);}.cls-22{stroke:url(#linear-gradient-22);}.cls-23{stroke:url(#linear-gradient-23);}.cls-24{stroke:url(#linear-gradient-24);}.cls-25{stroke:url(#linear-gradient-25);}.cls-27{clip-path:url(#clip-path);}.cls-28{stroke:url(#linear-gradient-26);}.cls-29{stroke:url(#linear-gradient-27);}.cls-30{stroke:url(#linear-gradient-28);}.cls-31{stroke:url(#linear-gradient-29);}.cls-32{stroke:url(#linear-gradient-30);}.cls-33{stroke:url(#linear-gradient-31);}.cls-34{stroke:url(#linear-gradient-32);}.cls-35{stroke:url(#linear-gradient-33);}.cls-36{stroke:url(#linear-gradient-34);}.cls-38{stroke:url(#linear-gradient-36);}.cls-39{stroke:url(#linear-gradient-37);}.cls-40{stroke:url(#linear-gradient-38);}.cls-41{stroke:url(#linear-gradient-39);}.cls-43{stroke:url(#linear-gradient-40);}.cls-44{stroke:url(#linear-gradient-41);}.cls-45{stroke:url(#linear-gradient-42);}.cls-46,.cls-47,.cls-49{opacity:0.5;}.cls-46{stroke:url(#linear-gradient-43);}.cls-47{stroke:url(#linear-gradient-44);}.cls-48{fill:url(#New_Gradient_Swatch_10-2);stroke:url(#linear-gradient-45);}.cls-49{stroke:url(#linear-gradient-46);}.cls-50{stroke:url(#linear-gradient-47);}.cls-51{stroke:url(#linear-gradient-48);}.cls-52{stroke:url(#linear-gradient-49);}.cls-53{stroke:url(#linear-gradient-50);}.cls-54{stroke:url(#linear-gradient-51);}.cls-55{stroke:url(#linear-gradient-52);}.cls-56{stroke:url(#linear-gradient-53);}.cls-57{stroke:url(#linear-gradient-54);}.cls-58{stroke:url(#linear-gradient-55);}.cls-59{stroke:url(#linear-gradient-56);}.cls-60{stroke:url(#linear-gradient-57);}.cls-61{stroke:url(#linear-gradient-58);}.cls-62{stroke:url(#linear-gradient-59);}.cls-63{stroke:url(#linear-gradient-60);}.cls-64{stroke:url(#linear-gradient-61);}.cls-65{stroke:url(#linear-gradient-62);}.cls-66{stroke:url(#linear-gradient-63);}.cls-67{stroke:url(#linear-gradient-64);}.cls-68{stroke:url(#linear-gradient-65);}.cls-69{stroke:url(#linear-gradient-66);}.cls-70{stroke:url(#linear-gradient-67);}.cls-71{stroke:url(#linear-gradient-68);}.cls-72{stroke:url(#linear-gradient-69);}.cls-73{stroke:url(#linear-gradient-70);}.cls-74{stroke:url(#linear-gradient-71);}.cls-75{stroke:url(#linear-gradient-72);}.cls-76{stroke:url(#linear-gradient-73);}.cls-77{stroke:url(#linear-gradient-74);}.cls-78{stroke:url(#linear-gradient-75);}.cls-79{stroke:url(#linear-gradient-76);}.cls-80{stroke:url(#linear-gradient-77);}.cls-81{stroke:url(#linear-gradient-78);}.cls-82{stroke:url(#linear-gradient-79);}.cls-83{stroke:url(#linear-gradient-80);}.cls-84{stroke:url(#linear-gradient-81);}.cls-85{stroke:url(#linear-gradient-82);}.cls-86{stroke:url(#linear-gradient-83);}.cls-87{stroke:url(#linear-gradient-84);}.cls-88{stroke:url(#linear-gradient-85);}.cls-89{stroke:url(#linear-gradient-86);}.cls-90{stroke:url(#linear-gradient-87);}.cls-91{stroke:url(#linear-gradient-88);}.cls-92{stroke:url(#linear-gradient-89);}.cls-93{stroke:url(#linear-gradient-90);}.cls-94{stroke:url(#linear-gradient-91);}.cls-95{fill:url(#New_Gradient_Swatch_10-3);stroke:url(#linear-gradient-92);}.cls-96{stroke:url(#linear-gradient-93);}.cls-97{stroke:url(#linear-gradient-94);}.cls-98{fill:url(#New_Gradient_Swatch_10-4);stroke:url(#linear-gradient-95);}.cls-99{fill:url(#New_Gradient_Swatch_10-5);stroke:url(#linear-gradient-96);}.cls-100{fill:url(#New_Gradient_Swatch_10-6);stroke:url(#linear-gradient-97);}.cls-101{stroke:url(#linear-gradient-98);}.cls-102{fill:url(#New_Gradient_Swatch_10-7);stroke:url(#linear-gradient-99);}.cls-103{opacity:0.3;stroke:url(#New_Gradient_Swatch_6);}</style><linearGradient id="linear-gradient" x1="240.94" y1="-1280.95" x2="288.52" y2="-1280.95" gradientTransform="translate(-487.15 1212.73) rotate(14.59)" gradientUnits="userSpaceOnUse"><stop offset="0" stop-color="#7673c0"/><stop offset="1" stop-color="#7673c0"/></linearGradient><linearGradient id="linear-gradient-2" x1="224.34" y1="-1258.73" x2="257.39" y2="-1258.73" xlink:href="#linear-gradient"/><linearGradient id="linear-gradient-3" x1="269.49" y1="-1259.54" x2="302.61" y2="-1259.54" xlink:href="#linear-gradient"/><linearGradient id="linear-gradient-4" x1="8.02" y1="149.01" x2="107.86" y2="149.01" gradientTransform="matrix(1, 0, 0, 1, 0, 0)" xlink:href="#linear-gradient"/><linearGradient id="linear-gradient-5" x1="54.52" y1="86.4" x2="98" y2="86.4" gradientTransform="translate(140.67 -9.16) rotate(75.41)" xlink:href="#linear-gradient"/><linearGradient id="New_Gradient_Swatch_11" x1="196.33" y1="-1219.97" x2="351.72" y2="-1219.97" xlink:href="#linear-gradient"/><linearGradient id="linear-gradient-6" x1="6.82" y1="102.92" x2="168.94" y2="102.92" gradientTransform="matrix(1, 0, 0, 1, 0, 0)" xlink:href="#linear-gradient"/><linearGradient id="linear-gradient-7" x1="200.07" y1="-1221.39" x2="234.81" y2="-1221.39" xlink:href="#linear-gradient"/><linearGradient id="linear-gradient-8" x1="292.65" y1="-1221.98" x2="322.13" y2="-1221.98" xlink:href="#linear-gradient"/><linearGradient id="linear-gradient-9" x1="109.65" y1="93.79" x2="116.57" y2="93.79" gradientTransform="matrix(1, 0, 0, 1, 0, 0)" xlink:href="#linear-gradient"/><linearGradient id="linear-gradient-10" x1="18.3" y1="105.87" x2="112.46" y2="105.87" gradientTransform="matrix(1, 0, 0, 1, 0, 0)" xlink:href="#linear-gradient"/><linearGradient id="linear-gradient-11" x1="109.14" y1="91.57" x2="111.13" y2="91.57" gradientTransform="matrix(1, 0, 0, 1, 0, 0)" xlink:href="#linear-gradient"/><linearGradient id="New_Gradient_Swatch_10" x1="213.43" y1="-1206.43" x2="306.25" y2="-1206.43" xlink:href="#linear-gradient"/><linearGradient id="linear-gradient-12" x1="17.65" y1="108.54" x2="115.92" y2="108.54" gradientTransform="matrix(1, 0, 0, 1, 0, 0)" xlink:href="#linear-gradient"/><linearGradient id="linear-gradient-13" x1="212.53" y1="-1207.29" x2="307.15" y2="-1207.29" xlink:href="#linear-gradient"/><linearGradient id="linear-gradient-14" x1="106.17" y1="34.95" x2="107.28" y2="34.95" gradientTransform="matrix(1, 0, 0, 1, 0, 0)" xlink:href="#linear-gradient"/><linearGradient id="linear-gradient-15" x1="104.08" y1="32.48" x2="105.25" y2="32.48" gradientTransform="matrix(1, 0, 0, 1, 0, 0)" xlink:href="#linear-gradient"/><linearGradient id="linear-gradient-16" x1="72.42" y1="59.24" x2="72.64" y2="59.24" gradientTransform="matrix(1, 0, 0, 1, 0, 0)" xlink:href="#linear-gradient"/><linearGradient id="linear-gradient-17" x1="35.92" y1="79.64" x2="48.46" y2="79.64" gradientTransform="matrix(1, 0, 0, 1, 0, 0)" xlink:href="#linear-gradient"/><linearGradient id="linear-gradient-18" x1="206.53" y1="-1169" x2="321.09" y2="-1169" xlink:href="#linear-gradient"/><linearGradient id="linear-gradient-19" x1="13.66" y1="128.57" x2="112.18" y2="128.57" gradientTransform="matrix(1, 0, 0, 1, 0, 0)" xlink:href="#linear-gradient"/><linearGradient id="linear-gradient-20" x1="104.68" y1="69.03" x2="120.7" y2="69.03" gradientTransform="matrix(1, 0, 0, 1, 0, 0)" xlink:href="#linear-gradient"/><linearGradient id="linear-gradient-21" x1="107.27" y1="64.1" x2="115.96" y2="64.1" gradientTransform="matrix(1, 0, 0, 1, 0, 0)" xlink:href="#linear-gradient"/><linearGradient id="linear-gradient-22" x1="101.97" y1="61.7" x2="116.41" y2="61.7" gradientTransform="matrix(1, 0, 0, 1, 0, 0)" xlink:href="#linear-gradient"/><linearGradient id="linear-gradient-23" x1="283.1" y1="-1258.12" x2="303.3" y2="-1258.12" xlink:href="#linear-gradient"/><linearGradient id="linear-gradient-24" x1="282.73" y1="-1259.18" x2="300.15" y2="-1259.18" xlink:href="#linear-gradient"/><linearGradient id="linear-gradient-25" x1="279.89" y1="-1263.96" x2="295.89" y2="-1263.96" xlink:href="#linear-gradient"/><clipPath id="clip-path"><path class="cls-1" d="M66.42,45.68s12.89-14.58,19-17.3,18.61,1.63,21.17,6.48,4.11,22.27,4.11,22.27Z"/></clipPath><linearGradient id="linear-gradient-26" x1="253.4" y1="-1281.97" x2="260.53" y2="-1281.97" xlink:href="#linear-gradient"/><linearGradient id="linear-gradient-27" x1="248.67" y1="-1281.08" x2="257.93" y2="-1281.08" xlink:href="#linear-gradient"/><linearGradient id="linear-gradient-28" x1="244.81" y1="-1280.63" x2="257.23" y2="-1280.63" xlink:href="#linear-gradient"/><linearGradient id="linear-gradient-29" x1="258.5" y1="-1282.29" x2="264.11" y2="-1282.29" xlink:href="#linear-gradient"/><linearGradient id="linear-gradient-30" x1="268.07" y1="-1282.29" x2="271.41" y2="-1282.29" xlink:href="#linear-gradient"/><linearGradient id="linear-gradient-31" x1="271.09" y1="-1282.17" x2="276.93" y2="-1282.17" xlink:href="#linear-gradient"/><linearGradient id="linear-gradient-32" x1="273.52" y1="-1281.18" x2="281.44" y2="-1281.18" xlink:href="#linear-gradient"/><linearGradient id="linear-gradient-33" x1="275.52" y1="-1280.2" x2="285.23" y2="-1280.2" xlink:href="#linear-gradient"/><linearGradient id="linear-gradient-34" x1="264.04" y1="-1282.3" x2="267.05" y2="-1282.3" xlink:href="#linear-gradient"/><linearGradient id="linear-gradient-36" x1="224.12" y1="-1259.22" x2="246.44" y2="-1259.22" xlink:href="#linear-gradient"/><linearGradient id="linear-gradient-37" x1="228.12" y1="-1259.67" x2="246.33" y2="-1259.67" xlink:href="#linear-gradient"/><linearGradient id="linear-gradient-38" x1="233.12" y1="-1263.86" x2="249.82" y2="-1263.86" xlink:href="#linear-gradient"/><linearGradient id="linear-gradient-39" x1="240.94" y1="-1263.5" x2="288.52" y2="-1263.5" xlink:href="#linear-gradient"/><linearGradient id="linear-gradient-40" x1="90.4" y1="42.55" x2="92.37" y2="42.55" gradientTransform="matrix(1, 0, 0, 1, 0, 0)" xlink:href="#linear-gradient"/><linearGradient id="linear-gradient-41" x1="90.8" y1="41.02" x2="92.77" y2="41.02" gradientTransform="matrix(1, 0, 0, 1, 0, 0)" xlink:href="#linear-gradient"/><linearGradient id="linear-gradient-42" x1="90" y1="44.08" x2="91.98" y2="44.08" gradientTransform="matrix(1, 0, 0, 1, 0, 0)" xlink:href="#linear-gradient"/><linearGradient id="linear-gradient-43" x1="22.57" y1="123.21" x2="110.1" y2="123.21" gradientTransform="matrix(1, 0, 0, 1, 0, 0)" xlink:href="#linear-gradient"/><linearGradient id="linear-gradient-44" x1="21.11" y1="125.53" x2="110.71" y2="125.53" gradientTransform="matrix(1, 0, 0, 1, 0, 0)" xlink:href="#linear-gradient"/><linearGradient id="New_Gradient_Swatch_10-2" x1="211.64" y1="-1185.72" x2="311.69" y2="-1185.72" xlink:href="#linear-gradient"/><linearGradient id="linear-gradient-45" x1="211.1" y1="-1185.72" x2="312.22" y2="-1185.72" xlink:href="#linear-gradient"/><linearGradient id="linear-gradient-46" x1="14.02" y1="128.43" x2="112.44" y2="128.43" gradientTransform="matrix(1, 0, 0, 1, 0, 0)" xlink:href="#linear-gradient"/><linearGradient id="linear-gradient-47" x1="20.75" y1="115.24" x2="22.23" y2="115.24" gradientTransform="matrix(1, 0, 0, 1, 0, 0)" xlink:href="#linear-gradient"/><linearGradient id="linear-gradient-48" x1="97.29" y1="142.36" x2="112.27" y2="142.36" gradientTransform="matrix(1, 0, 0, 1, 0, 0)" xlink:href="#linear-gradient"/><linearGradient id="linear-gradient-49" x1="109.48" y1="136.37" x2="110.84" y2="136.37" gradientTransform="matrix(1, 0, 0, 1, 0, 0)" xlink:href="#linear-gradient"/><linearGradient id="linear-gradient-50" x1="109.49" y1="136.38" x2="110.85" y2="136.38" gradientTransform="matrix(1, 0, 0, 1, 0, 0)" xlink:href="#linear-gradient"/><linearGradient id="linear-gradient-51" x1="202.22" y1="-1225.81" x2="232.55" y2="-1225.81" xlink:href="#linear-gradient"/><linearGradient id="linear-gradient-52" x1="207.83" y1="-1229.43" x2="232.55" y2="-1229.43" xlink:href="#linear-gradient"/><linearGradient id="linear-gradient-53" x1="214.55" y1="-1231.83" x2="232.55" y2="-1231.83" xlink:href="#linear-gradient"/><linearGradient id="linear-gradient-54" x1="289.65" y1="-1224.9" x2="319.3" y2="-1224.9" xlink:href="#linear-gradient"/><linearGradient id="linear-gradient-55" x1="289.65" y1="-1228.76" x2="314.15" y2="-1228.76" xlink:href="#linear-gradient"/><linearGradient id="linear-gradient-56" x1="289.65" y1="-1231.39" x2="307.83" y2="-1231.39" xlink:href="#linear-gradient"/><linearGradient id="linear-gradient-57" x1="103.05" y1="94.84" x2="104.15" y2="94.84" gradientTransform="matrix(1, 0, 0, 1, 0, 0)" xlink:href="#linear-gradient"/><linearGradient id="linear-gradient-58" x1="103.13" y1="94.35" x2="104.3" y2="94.35" gradientTransform="matrix(1, 0, 0, 1, 0, 0)" xlink:href="#linear-gradient"/><linearGradient id="linear-gradient-59" x1="103" y1="95.23" x2="104.08" y2="95.23" gradientTransform="matrix(1, 0, 0, 1, 0, 0)" xlink:href="#linear-gradient"/><linearGradient id="linear-gradient-60" x1="248.01" y1="-1169.63" x2="273.25" y2="-1169.63" xlink:href="#linear-gradient"/><linearGradient id="linear-gradient-61" x1="247" y1="-1173.11" x2="273.25" y2="-1173.11" xlink:href="#linear-gradient"/><linearGradient id="linear-gradient-62" x1="247.47" y1="-1178.04" x2="272.65" y2="-1178.04" xlink:href="#linear-gradient"/><linearGradient id="linear-gradient-63" x1="205.94" y1="-1175.13" x2="231.09" y2="-1175.13" xlink:href="#linear-gradient"/><linearGradient id="linear-gradient-64" x1="207.18" y1="-1178.6" x2="230.35" y2="-1178.6" xlink:href="#linear-gradient"/><linearGradient id="linear-gradient-65" x1="208.76" y1="-1182.8" x2="230.35" y2="-1182.8" xlink:href="#linear-gradient"/><linearGradient id="linear-gradient-66" x1="237.4" y1="-1197.45" x2="287.01" y2="-1197.45" xlink:href="#linear-gradient"/><linearGradient id="linear-gradient-67" x1="238.26" y1="-1202.64" x2="285.75" y2="-1202.64" xlink:href="#linear-gradient"/><linearGradient id="linear-gradient-68" x1="292.71" y1="-1176.8" x2="318.66" y2="-1176.8" xlink:href="#linear-gradient"/><linearGradient id="linear-gradient-69" x1="292.84" y1="-1180.24" x2="316.84" y2="-1180.24" xlink:href="#linear-gradient"/><linearGradient id="linear-gradient-70" x1="292.84" y1="-1184.3" x2="314.74" y2="-1184.3" xlink:href="#linear-gradient"/><linearGradient id="linear-gradient-71" x1="212.37" y1="-1190.93" x2="309.32" y2="-1190.93" xlink:href="#linear-gradient"/><linearGradient id="linear-gradient-72" x1="232.49" y1="-1176.02" x2="244.2" y2="-1176.02" xlink:href="#linear-gradient"/><linearGradient id="linear-gradient-73" x1="216.69" y1="-1176.51" x2="241.77" y2="-1176.51" xlink:href="#linear-gradient"/><linearGradient id="linear-gradient-74" x1="237.53" y1="-1185.52" x2="252.14" y2="-1185.52" xlink:href="#linear-gradient"/><linearGradient id="linear-gradient-75" x1="201.86" y1="-1225.81" x2="232.91" y2="-1225.81" xlink:href="#linear-gradient"/><linearGradient id="linear-gradient-76" x1="207.47" y1="-1229.43" x2="232.91" y2="-1229.43" xlink:href="#linear-gradient"/><linearGradient id="linear-gradient-77" x1="214.19" y1="-1231.83" x2="232.91" y2="-1231.83" xlink:href="#linear-gradient"/><linearGradient id="linear-gradient-78" x1="289.29" y1="-1224.9" x2="319.66" y2="-1224.9" xlink:href="#linear-gradient"/><linearGradient id="linear-gradient-79" x1="289.29" y1="-1228.76" x2="314.51" y2="-1228.76" xlink:href="#linear-gradient"/><linearGradient id="linear-gradient-80" x1="289.29" y1="-1231.39" x2="308.2" y2="-1231.39" xlink:href="#linear-gradient"/><linearGradient id="linear-gradient-81" x1="102.69" y1="94.8" x2="104.53" y2="94.8" gradientTransform="matrix(1, 0, 0, 1, 0, 0)" xlink:href="#linear-gradient"/><linearGradient id="linear-gradient-82" x1="102.76" y1="94.35" x2="104.67" y2="94.35" gradientTransform="matrix(1, 0, 0, 1, 0, 0)" xlink:href="#linear-gradient"/><linearGradient id="linear-gradient-83" x1="102.64" y1="95.18" x2="104.45" y2="95.18" gradientTransform="matrix(1, 0, 0, 1, 0, 0)" xlink:href="#linear-gradient"/><linearGradient id="linear-gradient-84" x1="107.54" y1="90.53" x2="108.79" y2="90.53" gradientTransform="matrix(1, 0, 0, 1, 0, 0)" xlink:href="#linear-gradient"/><linearGradient id="linear-gradient-85" x1="107.74" y1="89.99" x2="109.08" y2="89.99" gradientTransform="matrix(1, 0, 0, 1, 0, 0)" xlink:href="#linear-gradient"/><linearGradient id="linear-gradient-86" x1="108.2" y1="88.74" x2="109.31" y2="88.74" gradientTransform="matrix(1, 0, 0, 1, 0, 0)" xlink:href="#linear-gradient"/><linearGradient id="linear-gradient-87" x1="106.5" y1="90.47" x2="108.6" y2="90.47" gradientTransform="matrix(1, 0, 0, 1, 0, 0)" xlink:href="#linear-gradient"/><linearGradient id="linear-gradient-88" x1="108.03" y1="89.45" x2="109.2" y2="89.45" gradientTransform="matrix(1, 0, 0, 1, 0, 0)" xlink:href="#linear-gradient"/><linearGradient id="linear-gradient-89" x1="108.24" y1="88.36" x2="109.31" y2="88.36" gradientTransform="matrix(1, 0, 0, 1, 0, 0)" xlink:href="#linear-gradient"/><linearGradient id="linear-gradient-90" x1="108.14" y1="89.1" x2="109.27" y2="89.1" gradientTransform="matrix(1, 0, 0, 1, 0, 0)" xlink:href="#linear-gradient"/><linearGradient id="linear-gradient-91" x1="71.06" y1="45.58" x2="72.39" y2="45.58" gradientTransform="matrix(1, 0, 0, 1, 0, 0)" xlink:href="#linear-gradient"/><linearGradient id="New_Gradient_Swatch_10-3" x1="203.7" y1="-1225" x2="317.66" y2="-1225" xlink:href="#linear-gradient"/><linearGradient id="linear-gradient-92" x1="7.93" y1="95.93" x2="128.27" y2="95.93" gradientTransform="matrix(1, 0, 0, 1, 0, 0)" xlink:href="#linear-gradient"/><linearGradient id="linear-gradient-93" x1="224.99" y1="-1289.54" x2="305.01" y2="-1289.54" xlink:href="#linear-gradient"/><linearGradient id="linear-gradient-94" x1="260.51" y1="-1276.55" x2="268.74" y2="-1276.55" xlink:href="#linear-gradient"/><linearGradient id="New_Gradient_Swatch_10-4" x1="262.83" y1="-1274.56" x2="263.73" y2="-1274.56" xlink:href="#linear-gradient"/><linearGradient id="linear-gradient-95" x1="87.33" y1="45.33" x2="89.66" y2="45.33" gradientTransform="matrix(1, 0, 0, 1, 0, 0)" xlink:href="#linear-gradient"/><linearGradient id="New_Gradient_Swatch_10-5" x1="262.83" y1="-1276.55" x2="266.42" y2="-1276.55" xlink:href="#linear-gradient"/><linearGradient id="linear-gradient-96" x1="87.93" y1="43.96" x2="92.5" y2="43.96" gradientTransform="matrix(1, 0, 0, 1, 0, 0)" xlink:href="#linear-gradient"/><linearGradient id="New_Gradient_Swatch_10-6" x1="265.02" y1="-1278.69" x2="266.42" y2="-1278.69" xlink:href="#linear-gradient"/><linearGradient id="linear-gradient-97" x1="90.24" y1="42.15" x2="93.42" y2="42.15" gradientTransform="matrix(1, 0, 0, 1, 0, 0)" xlink:href="#linear-gradient"/><linearGradient id="linear-gradient-98" x1="148.12" y1="119.75" x2="148.49" y2="119.75" gradientTransform="matrix(1, 0, 0, 1, 0, 0)" xlink:href="#linear-gradient"/><linearGradient id="New_Gradient_Swatch_10-7" x1="200.44" y1="-1185.3" x2="230.99" y2="-1185.3" xlink:href="#linear-gradient"/><linearGradient id="linear-gradient-99" x1="6.65" y1="119.1" x2="36.36" y2="119.1" gradientTransform="matrix(1, 0, 0, 1, 0, 0)" xlink:href="#linear-gradient"/><linearGradient id="New_Gradient_Swatch_6" x1="4.04" y1="76.5" x2="168.35" y2="119.25" gradientUnits="userSpaceOnUse"><stop offset="0" stop-color="#79589f"/><stop offset="1" stop-color="#79589f"/></linearGradient></defs><title>java</title><g id="ecosystem-2" data-name="ecosystem"><path class="cls-2" d="M45.79,59.07s8.12,12.4,22.3,11.73,9.48-27.06,9.48-27.06L46.34,59.43"/><path class="cls-3" d="M119.08,81.05s-15,3.47-25.8-5.71,10.36-26,10.36-26l15.17,31.49"/><path class="cls-4" d="M100.19,138.34c-4.24.77-16.34.3-33.6-2.64-14.88-2.54-39.72-15-46.29-18.45C11.63,135,5.76,152.59,9.7,159.06c5.85,9.65,21.78-10.85,43.91-5.09s20.91,23.64,32.89,26.78c9.54,2.49,17.75-22.6,20.84-44.45A49.12,49.12,0,0,1,100.19,138.34Z"/><ellipse class="cls-5" cx="76.26" cy="86.4" rx="19.17" ry="21.44" transform="matrix(0.25, -0.97, 0.97, 0.25, -26.56, 138.44)"/><path class="cls-6" d="M15.26,111.71l-3.11-.81S5.63,95.36,7.62,91.15,45,76.47,45,76.47l3.11.81S12.72,87.75,10.73,92,15.26,111.71,15.26,111.71ZM142,109.35c-.92,1.83-2.67,5.22-4.61,8.53-5.46,9.35-7.77,10.26-9.44,9.85l-.11,0c-1-.27-3-1.27-11.78-18.2-3.64-7-7-14.05-8-16.21l-.08.09a.54.54,0,0,1-.46.09l-.07,0-4.19-1.75-4.58-1.9a18.47,18.47,0,0,1-.44,2.29c-2.83,10.88-15,17.17-27.05,14S51.51,91.57,54.34,80.69A18.09,18.09,0,0,1,55.5,77.5h0c-1.31-.26-3.42-.65-5.64-1.06-1.84-.34-3.74-.69-5.34-1a.53.53,0,0,1-.3-.88c15.11-17,41.88-37.79,49.86-43.84-1.5-.68-2.44-1.62-2.24-2.39s1.37-1.09,2.9-1a.84.84,0,0,1,0-.19.6.6,0,0,1,0-.14.49.49,0,0,1,0-.15c0-.16.15-.57,1.09-.51a5.79,5.79,0,0,1,.13-.68c.13-.52.64-2.17,1.59-1.92s.59,1.94.46,2.45a5.67,5.67,0,0,1-.22.66c.85.41.75.82.71,1a.82.82,0,0,1,0,.14q0,.09,0,.15a.6.6,0,0,1-.07.18c1.39.67,2.24,1.56,2.05,2.29a1.23,1.23,0,0,1-.82.76c1.15,6,6.75,35.71,10,60.33l.63-.3c9.07,19.24,16.28,31.89,18.26,33.46.49-.25,2.37-1.64,6.65-9.06,1.66-2.88,3.14-5.74,4-7.46A9.93,9.93,0,0,0,142,109.35ZM95.68,77l.13.21Zm-.52-.8.12.18Zm-.52-.72.07.09Zm-1.83-2.16.13.14Zm-.73-.72.29.28Zm-.76-.7.34.31Zm-.8-.66.38.31Zm-.84-.64.42.31Zm-.87-.6.44.3Zm-.9-.57.47.29ZM87,68.87l.5.28Zm-1-.5.53.27Zm-4.61-1.69c-.36-.1-.72-.18-1.08-.26.36.08.72.16,1.08.26s.73.19,1.08.3Q81.95,66.82,81.39,66.68ZM85,67.92l.57.24Zm-1-.43.62.24Zm-1.11-.39c.23.08.47.15.7.24C83.3,67.25,83.06,67.18,82.83,67.1Zm-3.6-.88.72.13Zm-1.07-.16.65.09ZM77.09,66l.62.06ZM76,65.89q.3,0,.6,0Q76.32,65.89,76,65.89Zm-1.06,0h0Zm-.47,0-.59,0Zm-1,0-.61.06Zm-1.85.21.82-.11Zm-1.17.2.54-.1Zm-1,.22.46-.11Zm-1,.25.42-.11Zm-.94.3.39-.13Zm-.92.33L67,67.3Zm-.88.36.31-.13Zm-.83.38.23-.11Zm-.68.35,0,0ZM58.48,73l0,0Zm2.67-2.5.07,0Zm-.73.6.11-.09Zm-.69.62a.52.52,0,0,1,.11-.1A.52.52,0,0,0,59.73,71.72Zm-.65.63a.6.6,0,0,0,.08-.08A.6.6,0,0,1,59.08,72.35ZM95.85,91.5C98.34,81.91,91.58,71.82,80.78,69S59.17,71.71,56.67,81.3,60.93,101,71.73,103.79,93.35,101.08,95.85,91.5Zm.33-13.69.12.22Zm.56,1.08a2.26,2.26,0,0,0-.11-.22A2.26,2.26,0,0,1,96.74,78.89Zm.4.87-.09-.21Zm.36.88-.07-.19Zm.31.89,0-.17Zm.27.87,0-.11Zm.21.83v0Zm10.25,53.24c-2.59,18.27-8.74,39.06-16.65,44.32a6.88,6.88,0,0,1-5.68,1.13h0c-5.52-1.44-8.47-5.78-11.59-10.37-4.22-6.19-9-13.2-21.3-16.41-11.3-2.93-20.86,1.18-28.54,4.49-6.87,3-12.8,5.51-16.1.07-5-8.3,4.45-30.48,10.55-43a1.2,1.2,0,0,1,.7-.61,1.23,1.23,0,0,1,.94.07c7.08,3.67,31.34,15.85,45.93,18.33,16.93,2.89,29.07,3.4,33.18,2.64a47.21,47.21,0,0,0,7-2,1.21,1.21,0,0,1,1.6,1.31Zm-2.68,1.61a43.27,43.27,0,0,1-5.46,1.44c-4.45.82-16.7.32-34-2.63-14.24-2.43-37.22-13.74-45.53-18-9.48,19.64-13.26,34.38-10.12,39.55,2.11,3.48,5.94,2,13.09-1,7.59-3.27,18-7.76,30.09-4.61,13.2,3.43,18.46,11.17,22.69,17.38,3.11,4.57,5.57,8.19,10.21,9.4h0a4.49,4.49,0,0,0,3.73-.79c3.23-2.15,6.49-7.75,9.42-16.2A143.28,143.28,0,0,0,105.86,138.08ZM142,109.35c2.24.5,4.39.19,4.26-1.37a14.82,14.82,0,0,0,4.75-.73c4.51-1.47,5.09-7.72,8.49-10.39s4.94-2.52,7.74-5.13.68-4.41-2.39-4.78-9.75,4.51-9.75,4.51a27.08,27.08,0,0,1,4.28-7.75c3.24-4.26,3.75-5.14,2.06-6.87s-3.48-1.07-6.68,2a29.94,29.94,0,0,0-5.37,7.74s-.75-4.52,1.38-7.83,0-8.28-4.35-5.22S139.74,91,139.74,91s-3.59-2.84-6.77-3.33-3.95,3.32-3,5,4.83,2.33,5.3,5.86a14,14,0,0,0,2.52,6c-.59.2-.9.69-.61,1.66a4,4,0,0,0,2,2.13"/><path class="cls-7" d="M46.9,72.25s-14.07-1.84-32,9.21c0,0-2.17,17.72,5,18.49,1.24.13,19.36-7.62,19.36-7.62L50.1,76.92Z"/><path class="cls-8" d="M108.38,89.79s9.51,3.44,16.59,15.83c5.88,10.3,5.31,9.85,5.31,9.85s-1.7,5.31-14.2,6.4S108.58,90.57,108.38,89.79Z"/><path class="cls-9" d="M112.5,96a3.48,3.48,0,0,1,1.64-.6c4.74-.52.06-2.43-3.69-3.68Q111.5,93.9,112.5,96Z"/><path class="cls-10" d="M38,76.53a3.27,3.27,0,0,1,1.26,1.7C42.74,77.15,45,76.47,45,76.47l3.11.81S44.5,78.36,39.49,80c-.4,5.89-9.42,15.41-9.42,15.41l-11.19,20.2,1,.54h0a1.23,1.23,0,0,1,.94.07c7.08,3.67,31.34,15.85,45.93,18.33,16.93,2.89,29.07,3.4,33.18,2.64a47.21,47.21,0,0,0,7-2,1.2,1.2,0,0,1,1.07.14c1.11-.4,1.83-.69,1.83-.69L112,114.07s-2.77-9.74-1.33-15.17c-1.26-2.58-2.23-4.61-2.7-5.6l-.08.09a.54.54,0,0,1-.46.09l-.07,0-4.19-1.75-4.58-1.9q-.08.56-.18,1.11v0c-.07.37-.15.75-.25,1.13-2.83,10.88-15,17.17-27.05,14S51.51,91.57,54.34,80.69c.08-.3.17-.6.26-.9l.15-.45.14-.39c.07-.2.15-.39.23-.59l.08-.18c.1-.23.19-.46.3-.68h0c-1.31-.26-3.42-.65-5.64-1.06-1.84-.34-3.74-.69-5.34-1a.54.54,0,0,1-.41-.35.5.5,0,0,1,0-.34C40.06,74.15,33.9,73.58,38,76.53Z"/><path class="cls-11" d="M110,91.54l-.33-.11,0,.25Z"/><path class="cls-12" d="M111.38,116.56s-5.09-17.9,2.11-18.7-7.32-4.79-7.32-4.79-11.55,24.65-20.24,23.75h0a120.56,120.56,0,0,1-17.47-3.06A159.84,159.84,0,0,1,51,108.24c-6.56-5.62-4.47-30.48-4.47-30.48s-15-3-9.14,1.26-8,18.84-8,18.84l-11.19,20.2s30.66,16.36,47.92,19.3,29.37,3.41,33.61,2.64a58.41,58.41,0,0,0,9.43-2.9Z"/><path class="cls-13" d="M111.59,115.73s-5.09-17.9,2.12-18.7-7.32-4.79-7.32-4.79S94.83,116.89,86.14,116h0a120.56,120.56,0,0,1-17.47-3.06,158.47,158.47,0,0,1-17.47-5.53c-6.56-5.62-4.47-30.48-4.47-30.48s-15-3-9.14,1.26-8,18.84-8,18.84l-11.19,20.2s30.66,16.36,47.92,19.3,29.37,3.41,33.6,2.64a58,58,0,0,0,9.43-2.9Z"/><path class="cls-14" d="M106.73,35l0-.08,0,.08Z"/><path class="cls-15" d="M104.68,32.52l-.06-.06v0l.1.08Z"/><path class="cls-16" d="M72.52,59.24h0Z"/><path class="cls-17" d="M47.92,72.51s-10.61,0-11.32,3.07S38,86.77,38,86.77Z"/><path class="cls-18" d="M116.69,163.61c.67-2.58-5.23-20.37-5.23-20.37L52.47,132l-30.19-13.8L10.65,129.81s-5.16,5.65-2.63,9.6S21.53,154.46,33.28,159s14.72,3.26,15.47,1.12,6.44-18.54,6.44-18.54l4.27.83S58,162.2,61.38,164.49s19.14,7.23,31.48,6.22S116.11,165.85,116.69,163.61Z"/><path class="cls-19" d="M23.35,107l-9.16,19.48s13.16,11.25,45,18.9,52.43,3.9,52.43,3.9-1.58-15-.57-21.75a191.63,191.63,0,0,1-47-4.2C49.66,120,35.13,111.89,23.35,107Z"/><path class="cls-20" d="M105.3,64.13c-.5,2.77,1.28,11.47,8.39,15.22s10.25,3.06-.54-17.76C110.7,56.88,107.27,53.08,105.3,64.13Z"/><path class="cls-21" d="M109.34,68.08c1.6.76,3-.1,4.6-.21l.24-.12.09-.06.09-.08.1-.06a5.08,5.08,0,0,0,1-1.21l0,0q-.51-.69-1.11-1.44c-2-2.47-4.42-5.4-6.51-5,.28,1.5.7,3,.86,4.49h0c.24,1.23.45,2.47.58,3.72A.16.16,0,0,1,109.34,68.08Z"/><path class="cls-22" d="M102.58,61.83a5.94,5.94,0,0,0,3.51,6.11c7.4,2.54,14.57,1.52,5.62-9.74C108.4,54.05,104.55,50.78,102.58,61.83Z"/><path class="cls-23" d="M105.3,64.13c-.5,2.77,1.28,11.47,8.39,15.22s10.25,3.06-.54-17.76C110.7,56.88,107.27,53.08,105.3,64.13Z"/><path class="cls-24" d="M104.32,66.32c-.49,2.77,3,6.54,4.82,7.16,7.39,2.54,14.14,2.66,5.18-8.6C111,60.72,106.3,55.27,104.32,66.32Z"/><path class="cls-25" d="M102.58,61.83a5.94,5.94,0,0,0,3.51,6.11c7.4,2.54,14.57,1.52,5.62-9.74C108.4,54.05,104.55,50.78,102.58,61.83Z"/><path class="cls-26" d="M66.42,45.68s12.89-14.58,19-17.3,18.61,1.63,21.17,6.48,4.11,22.27,4.11,22.27Z"/><g class="cls-27"><path class="cls-26" d="M89.57,27.36s-6.36,5.12-10.41,18.85"/><path class="cls-28" d="M89.57,27.36s-6.36,5.12-10.41,18.85"/><path class="cls-26" d="M86.86,27.45S78.37,32.27,74.32,46"/><path class="cls-29" d="M86.86,27.45S78.37,32.27,74.32,46"/><path class="cls-26" d="M86.27,27a37.66,37.66,0,0,0-16,19.26"/><path class="cls-30" d="M86.27,27a37.66,37.66,0,0,0-16,19.26"/><path class="cls-26" d="M93.2,27.64s-5.06,6.12-9.11,19.85"/><path class="cls-31" d="M93.2,27.64s-5.06,6.12-9.11,19.85"/><path class="cls-26" d="M98.77,29.09a205,205,0,0,1-3.92,21.2"/><path class="cls-32" d="M98.77,29.09a205,205,0,0,1-3.92,21.2"/><path class="cls-26" d="M101.63,30.08s1.72,7.64-1.44,21.6"/><path class="cls-33" d="M101.63,30.08s1.72,7.64-1.44,21.6"/><path class="cls-26" d="M103.8,31.42s3.61,8.62.45,22.58"/><path class="cls-34" d="M103.8,31.42s3.61,8.62.45,22.58"/><path class="cls-26" d="M105.44,33a41.07,41.07,0,0,1,2.26,22.77"/><path class="cls-35" d="M105.44,33a41.07,41.07,0,0,1,2.26,22.77"/><path class="cls-26" d="M96.05,28.38s-2.55,6.78-6.6,20.51"/><path class="cls-36" d="M96.05,28.38s-2.55,6.78-6.6,20.51"/></g><path class="cls-37" d="M66.42,45.68s12.89-14.58,19-17.3,18.61,1.63,21.17,6.48,4.11,22.27,4.11,22.27Z"/><path class="cls-38" d="M67.24,54.44c-1.3,2.5-8,8.3-15.94,6.94s-10-3.83,11.27-13.74C67.38,45.4,72.42,44.48,67.24,54.44Z"/><path class="cls-39" d="M66.67,56.77c-1.3,2.5-6.37,3.34-8.18,2.73-7.41-2.5-12.83-6.52,1.14-10C64.78,48.25,71.85,46.81,66.67,56.77Z"/><path class="cls-40" d="M70.79,54.28A5.94,5.94,0,0,1,64.28,57c-7.41-2.5-12.47-7.68,1.49-11.14C70.93,44.55,76,44.32,70.79,54.28Z"/><path class="cls-41" d="M66.42,45.68S65.43,54,67.77,57s8.08,5.5,16.19,7.61,16.62,3.18,19.91,1.58,6.88-9.07,6.88-9.07-7.82-5.28-21.36-8.81S66.42,45.68,66.42,45.68Z"/><g class="cls-42"><path class="cls-43" d="M91.53,42a.56.56,0,0,0-.29,1.09.58.58,0,0,0,.69-.41A.55.55,0,0,0,91.53,42Z"/><path class="cls-44" d="M91.93,40.48a.56.56,0,1,0,.4.69A.56.56,0,0,0,91.93,40.48Z"/><path class="cls-45" d="M91.13,43.53a.56.56,0,1,0-.28,1.09.55.55,0,0,0,.68-.4A.57.57,0,0,0,91.13,43.53Z"/></g><path class="cls-46" d="M23.1,112.48s19.25,14.85,42,19.65,44.51-1.47,44.51-1.47"/><path class="cls-47" d="M21.65,115.07s20.24,14,42.95,18.83,45.58-.16,45.58-.16"/><path class="cls-48" d="M23.35,107l-9.16,19.48s13.16,11.25,45,18.9,52.43,3.9,52.43,3.9-1.58-15-.57-21.75a191.63,191.63,0,0,1-47-4.2C49.66,120,35.13,111.89,23.35,107Z"/><path class="cls-49" d="M23.38,107.56,14.55,125.8s13.27,10.8,45.12,18.48S112,148.74,112,148.74s-1.79-14.17-.89-20.52a202.41,202.41,0,0,1-46.89-4.66C49.79,120.24,35.19,112.38,23.38,107.56Z"/><path class="cls-50" d="M21.29,115.33l.4-.18Z"/><path class="cls-51" d="M97.83,148.8a86.15,86.15,0,0,0,13.9-1.24l-1.86-11.65"/><path class="cls-52" d="M110,136.21l.28.32Z"/><path class="cls-53" d="M110,136.21l.29.33Z"/><path class="cls-54" d="M47.42,79.68c.06-.23.11-.45.15-.68-.53-1.79-1.3-5.42.14-7.3,0,0-22.36,1.45-30,7.17C15.09,80.82,21.55,93,25.39,93,28.68,93,43,83.87,46.9,80.92A6,6,0,0,0,47.42,79.68Z"/><path class="cls-55" d="M47.42,79.68c.06-.23.11-.45.15-.68-.53-1.79-1.3-5.42.14-7.3,0,0-19.43.54-23.17,3.15-2.67,1.87,5.09,12.75,8.94,12.74,3.07,0,10.57-4.52,13.37-6.59A6.33,6.33,0,0,0,47.42,79.68Z"/><path class="cls-56" d="M45.59,82.5a5.78,5.78,0,0,0,1.83-2.82c.06-.23.11-.45.15-.68-.53-1.79-1.3-5.42.14-7.3,0,0-13.48-1.19-15.42.13-2.7,1.83,4.43,12.65,8.28,12.65a8.88,8.88,0,0,0,4.87-1.82A1.1,1.1,0,0,1,45.59,82.5Z"/><path class="cls-57" d="M103.77,94.16a6.26,6.26,0,0,1,.25-.65c1.43-1.19,4.91-3,4.75-5.31,0,0,17,12.76,20.18,21.77,1.09,3.07-11,9.61-14.23,7.47-2.73-1.83-9.56-17.31-11.21-22A5.81,5.81,0,0,1,103.77,94.16Z"/><path class="cls-58" d="M103.77,94.16a6.26,6.26,0,0,1,.25-.65c1.43-1.19,4.91-3,4.75-5.31,0,0,15,10.38,16.71,14.63,1.19,3-11.3,7.79-14.5,5.65-2.55-1.71-6.3-9.63-7.47-12.9A5.61,5.61,0,0,1,103.77,94.16Z"/><path class="cls-59" d="M103.72,97.52a5.74,5.74,0,0,1,0-3.36,6.26,6.26,0,0,1,.25-.65c1.43-1.19,4.91-3,4.75-5.31,0,0,11,5.64,11.94,7.82,1.23,3-10.7,8.07-13.9,5.93a8.78,8.78,0,0,1-3-4.21A2.07,2.07,0,0,0,103.72,97.52Z"/><path class="cls-60" d="M103.61,94.77a.59.59,0,0,0,0,.14A.59.59,0,0,1,103.61,94.77Z"/><path class="cls-61" d="M103.77,94.16c0,.13-.08.26-.11.38C103.69,94.42,103.73,94.29,103.77,94.16Z"/><path class="cls-62" d="M103.54,95.2v0Z"/><path class="cls-63" d="M60.74,134a1.13,1.13,0,0,1-.86-1.28L54,131.31s-10.6,22.62-7.75,24.63,18.67,5.86,21.26,4.74c2.24-1,2.62-19.22,2.69-24.22Z"/><path class="cls-64" d="M53.41,132.22s-9.35,14.58-6.34,16.19,19.9,5.32,22.38,4.8.4-16.92.4-16.92Z"/><path class="cls-65" d="M53.36,130.57s-5.6,7.88-4.23,9.39,19.23,5.37,21.66,5.38-.67-9.88-.67-9.88Z"/><path class="cls-66" d="M23,115.29S10.36,124.48,7.82,132,17,145.88,18.51,146s15-22.18,16.21-24.71Z"/><path class="cls-67" d="M21.69,115.15a23.86,23.86,0,0,0-10.57,9.68c-3.83,6.9,9.33,14.58,10.83,14.65s10.75-15.42,11.94-17.95Z"/><path class="cls-68" d="M21.69,115.15A41.17,41.17,0,0,0,15,118.92C8.7,123.75,25.33,132,26.83,132.08s5.87-8,7.06-10.55Z"/><path class="cls-69" d="M53.36,107.06S38.67,120.25,45,122.72,83.55,132.91,88.27,133s-1.66-17.47-1.66-17.47Z"/><path class="cls-70" d="M52.86,105.29c-1.1.32-9,7-6,8.95s37,9.94,41.77,10.56-.33-10.35-1.75-11.11-5.54-.28-16.59-3.16S54,105,52.86,105.29Z"/><path class="cls-71" d="M108.82,135.82s7.7,13.56,6.93,21.42-14.1,8.91-15.49,8.36-4-26-4.07-28.77Z"/><path class="cls-72" d="M110,136.21a23.89,23.89,0,0,1,5.65,13.18c.67,7.86-14.5,9.45-15.89,8.9s-3.45-18.48-3.5-21.28Z"/><path class="cls-73" d="M110,136.21a41,41,0,0,1,4.59,6.21c3.72,7-14.84,7.66-16.23,7.11s-2-9.72-2.1-12.52Z"/><path class="cls-74" d="M112.14,132.88a6.9,6.9,0,0,0-.22-3,6.69,6.69,0,0,0-.54-1.11c-3.87-1.18-33.11,2.17-51.15-2.52-18.46-4.81-35.32-18-38.55-16.47-.22.35-.43.72-.53.85a16.81,16.81,0,0,0-1.2,1.82c-.65,1.19-1.62,2.93-.79,4.18l.28.15c3,1.5,25.82,13.09,38.87,16.49,11.89,3.09,42,6.95,52.57,4.28C112,136.29,112,134.5,112.14,132.88Z"/><path class="cls-75" d="M43.2,129s-9.57,7.65-9.41,8.58,8.18,7.7,8.68,6-1.16-9.37,1.7-13.87S43.2,129,43.2,129Z"/><path class="cls-76" d="M42.47,127.71s-22.92-1.33-22.47.16,3,10.08,6.42,9.85,12-8.62,15.61-8.48S42.47,127.71,42.47,127.71Z"/><path class="cls-77" d="M49,122.32h0a3.91,3.91,0,0,0-3.49-1A4.45,4.45,0,0,0,42.55,124a8.06,8.06,0,0,0,.07,5.46A4.25,4.25,0,0,0,46.2,132c2.67.47,7.25.9,8.14-2.53C55.28,125.81,51.7,123.61,49,122.32Z"/><path class="cls-78" d="M47.42,79.68c.06-.23.11-.45.15-.68-.53-1.79-1.3-5.42.14-7.3,0,0-22.36,1.45-30,7.17C15.09,80.82,21.55,93,25.39,93,28.68,93,43,83.87,46.9,80.92A6,6,0,0,0,47.42,79.68Z"/><path class="cls-79" d="M47.42,79.68c.06-.23.11-.45.15-.68-.53-1.79-1.3-5.42.14-7.3,0,0-19.43.54-23.17,3.15-2.67,1.87,5.09,12.75,8.94,12.74,3.07,0,10.57-4.52,13.37-6.59A6.33,6.33,0,0,0,47.42,79.68Z"/><path class="cls-80" d="M45.59,82.5a5.78,5.78,0,0,0,1.83-2.82c.06-.23.11-.45.15-.68-.53-1.79-1.3-5.42.14-7.3,0,0-13.48-1.19-15.42.13-2.7,1.83,4.43,12.65,8.28,12.65a8.88,8.88,0,0,0,4.87-1.82A1.1,1.1,0,0,1,45.59,82.5Z"/><path class="cls-81" d="M103.77,94.16a6.26,6.26,0,0,1,.25-.65c1.43-1.19,4.91-3,4.75-5.31,0,0,17,12.76,20.18,21.77,1.09,3.07-11,9.61-14.23,7.47-2.73-1.83-9.56-17.31-11.21-22A5.81,5.81,0,0,1,103.77,94.16Z"/><path class="cls-82" d="M103.77,94.16a6.26,6.26,0,0,1,.25-.65c1.43-1.19,4.91-3,4.75-5.31,0,0,15,10.38,16.71,14.63,1.19,3-11.3,7.79-14.5,5.65-2.55-1.71-6.3-9.63-7.47-12.9A5.61,5.61,0,0,1,103.77,94.16Z"/><path class="cls-83" d="M103.72,97.52a5.74,5.74,0,0,1,0-3.36,6.26,6.26,0,0,1,.25-.65c1.43-1.19,4.91-3,4.75-5.31,0,0,11,5.64,11.94,7.82,1.23,3-10.7,8.07-13.9,5.93a8.78,8.78,0,0,1-3-4.21A2.07,2.07,0,0,0,103.72,97.52Z"/><path class="cls-84" d="M103.59,94.91a1.7,1.7,0,0,1,0-.22A1.7,1.7,0,0,0,103.59,94.91Z"/><path class="cls-85" d="M103.77,94.16c0,.13-.08.25-.11.38C103.69,94.41,103.73,94.29,103.77,94.16Z"/><path class="cls-86" d="M103.55,95.1a.88.88,0,0,1,0,.16A.88.88,0,0,0,103.55,95.1Z"/><path class="cls-87" d="M108.25,90.36c0,.11-.11.22-.17.33C108.14,90.58,108.2,90.47,108.25,90.36Z"/><path class="cls-88" d="M108.55,89.66a4.84,4.84,0,0,1-.28.66A4.84,4.84,0,0,0,108.55,89.66Z"/><path class="cls-89" d="M108.74,88.9a1.73,1.73,0,0,0,0-.32A1.73,1.73,0,0,1,108.74,88.9Z"/><path class="cls-90" d="M108.06,90.71c-.06.12-1-.6-1-.49C107.11,90.11,108,90.83,108.06,90.71Z"/><path class="cls-91" d="M108.66,89.29c0,.1-.06.21-.09.32C108.6,89.5,108.64,89.39,108.66,89.29Z"/><path class="cls-92" d="M108.77,88.2a1.71,1.71,0,0,1,0,.32A1.71,1.71,0,0,0,108.77,88.2Z"/><path class="cls-93" d="M108.73,89a1.36,1.36,0,0,1-.06.29A1.36,1.36,0,0,0,108.73,89Z"/><path class="cls-94" d="M71.85,45.63l-.21-.1,0,.09Z"/><path class="cls-95" d="M111.18,67.83A.84.84,0,0,1,110,68a.84.84,0,1,1,1-1.37A.85.85,0,0,1,111.18,67.83Zm3-.67a.85.85,0,0,0,1.18-.19.84.84,0,0,0-.2-1.17A.83.83,0,0,0,114,66,.83.83,0,0,0,114.18,67.16Zm-7.46-1.34a.84.84,0,0,0-1.17.2.84.84,0,1,0,1.17-.2Zm2.13,4.88a.85.85,0,0,0-1.18.2.84.84,0,0,0,1.37,1A.86.86,0,0,0,108.85,70.7Zm5.62,6.5a.84.84,0,1,0,.19,1.17A.83.83,0,0,0,114.47,77.2ZM119,78.55a.84.84,0,1,0,.2,1.17A.84.84,0,0,0,119,78.55Zm-5.35-6.09a.84.84,0,1,0-1,1.37.84.84,0,0,0,1-1.37Zm4-.24a.84.84,0,0,0-1,1.37.84.84,0,1,0,1-1.37ZM95,51.36a1.61,1.61,0,1,0,1.15,2A1.61,1.61,0,0,0,95,51.36ZM83,48.23a1.62,1.62,0,1,0,1.15,2A1.62,1.62,0,0,0,83,48.23ZM59.24,49.44a.84.84,0,1,0,.19,1.18A.84.84,0,0,0,59.24,49.44ZM53.5,54a.85.85,0,1,0-1.18.19A.86.86,0,0,0,53.5,54Zm-5.37,3.83A.83.83,0,0,0,47,58a.85.85,0,0,0,.19,1.18.84.84,0,1,0,1-1.36Zm4.69,1.62a.84.84,0,1,0-1,1.36.84.84,0,1,0,1-1.36Zm3.36-3.59a.84.84,0,0,0-1,1.36A.85.85,0,0,0,56.37,57,.84.84,0,0,0,56.18,55.85Zm4.7,1.61a.85.85,0,1,0,.19,1.18A.85.85,0,0,0,60.88,57.46Zm1-3.53a.83.83,0,0,0-.18-1.17.85.85,0,0,0-1.18.19.84.84,0,1,0,1.36,1Zm3.89.71A.84.84,0,1,0,66,55.81.83.83,0,0,0,65.82,54.64ZM51.11,139.36a.84.84,0,0,0,1.17-.21.84.84,0,1,0-1.38-1A.83.83,0,0,0,51.11,139.36Zm2.48-4.63a.85.85,0,0,0-1.17.21.84.84,0,1,0,1.17-.21Zm3.24,6.39a.84.84,0,1,0,1-1.39.84.84,0,0,0-1,1.39Zm2.38-5a.84.84,0,0,0-1,1.39.84.84,0,0,0,1-1.39Zm4.3,2.76a.85.85,0,0,0,1.17-.22.84.84,0,1,0-1.17.22Zm.6,2.34a.84.84,0,0,0-1,1.38.84.84,0,0,0,1-1.38Zm4.78,1.4a.84.84,0,1,0,1.17-.21A.84.84,0,0,0,68.89,142.65ZM49.77,147a.84.84,0,0,0-.21-1.17.84.84,0,1,0-1,1.38A.85.85,0,0,0,49.77,147Zm0-3.23a.84.84,0,0,0,1.17-.21.84.84,0,1,0-1.38-1A.84.84,0,0,0,49.81,143.73ZM54.59,149a.84.84,0,1,0-.22-1.17A.85.85,0,0,0,54.59,149Zm2-4.71a.84.84,0,0,0-1.17.21.84.84,0,0,0,1.38,1A.83.83,0,0,0,56.63,144.29Zm5.29,5a.84.84,0,1,0-1,1.38.85.85,0,0,0,1.17-.21A.83.83,0,0,0,61.92,149.24Zm-.37-2.08a.84.84,0,1,0,1-1.39.85.85,0,0,0-1.17.22A.84.84,0,0,0,61.55,147.16Zm6.84,3.14a.84.84,0,0,0-1.17.21.85.85,0,0,0,.22,1.17.84.84,0,1,0,1-1.38Zm-20,3.38a.85.85,0,0,0-1.17.21.86.86,0,0,0,.21,1.18.84.84,0,0,0,1-1.39Zm5.18,1.66a.84.84,0,1,0,.21,1.17A.85.85,0,0,0,53.54,155.34Zm5.91,1.58a.84.84,0,1,0,.21,1.17A.84.84,0,0,0,59.45,156.92Zm6.85,1a.84.84,0,0,0-1.17.21.85.85,0,0,0,.22,1.17.84.84,0,1,0,1-1.38Zm-17-7.56a.84.84,0,1,0,.21,1.17A.84.84,0,0,0,49.26,150.34Zm5.36,1.54a.84.84,0,0,0-1.17.21.84.84,0,0,0,1.39,1A.84.84,0,0,0,54.62,151.88Zm4.64,2.84a.84.84,0,1,0-.21-1.17A.85.85,0,0,0,59.26,154.72Zm7.73,1.1a.85.85,0,0,0-.22-1.17.84.84,0,0,0-1,1.39A.85.85,0,0,0,67,155.82Zm.56-7.49a.84.84,0,0,0,1-1.38.85.85,0,0,0-1.17.21A.83.83,0,0,0,67.55,148.33Zm2.31-8.46a.84.84,0,0,0-1.39-1,.84.84,0,1,0,1.39,1Zm-54.69-19a.77.77,0,0,0,.31.16.92.92,0,0,0,.33,0,.84.84,0,0,0,.58-.33.86.86,0,0,0,.18-.64.88.88,0,0,0-.33-.58.86.86,0,0,0-.64-.18.88.88,0,0,0-.58.33.82.82,0,0,0-.18.64A.84.84,0,0,0,15.17,120.86Zm-2.56,4.79a.84.84,0,1,0,.15,1.19A.84.84,0,0,0,12.61,125.65Zm-2.89,6.88a.84.84,0,0,0-1.18.14.85.85,0,0,0,.14,1.19.84.84,0,0,0,1-1.33Zm1.63,4.07a.84.84,0,0,0-1.18.14.86.86,0,0,0,.15,1.19.84.84,0,1,0,1-1.33Zm3.09,3.47a.86.86,0,0,0-1.19.15.84.84,0,0,0,1.33,1A.85.85,0,0,0,14.44,140.07Zm3.91,2.82a.84.84,0,0,0-1.18.15.84.84,0,1,0,1.33,1A.83.83,0,0,0,18.35,142.89Zm2-3.15a.84.84,0,0,0-1.18.14.83.83,0,0,0,.15,1.18.84.84,0,1,0,1-1.32Zm-3.57-2.46a.84.84,0,1,0,.14,1.18A.83.83,0,0,0,16.83,137.28Zm-2.84-3a.85.85,0,0,0-1.19.14.84.84,0,1,0,1.19-.14Zm.32-3.21a.84.84,0,0,0-.15-1.18A.84.84,0,0,0,13,130a.84.84,0,1,0,1.33,1Zm2.14,3.66a.84.84,0,0,0,1.18-.14.86.86,0,0,0-.15-1.19.84.84,0,0,0-1.18.15A.83.83,0,0,0,16.45,134.73Zm4.35-3.23a.84.84,0,0,0-.14-1.18.84.84,0,1,0-1,1.32A.84.84,0,0,0,20.8,131.5Zm1.05,4.75a.84.84,0,0,0-1,1.33.84.84,0,0,0,1-1.33Zm2.32-3.19a.84.84,0,0,0-1,1.33.84.84,0,1,0,1-1.33Zm-6.94-4.64h0a.91.91,0,0,0,.18-.64.88.88,0,0,0-.33-.58.86.86,0,0,0-1.22.15.82.82,0,0,0-.18.64.84.84,0,0,0,.33.58.77.77,0,0,0,.31.16A.89.89,0,0,0,17.23,128.42Zm.95-9.37a.81.81,0,0,0,.32.16.88.88,0,0,0,.9-.31.82.82,0,0,0,.18-.64.84.84,0,0,0-.33-.58.87.87,0,0,0-1.07,1.37Zm-.57,3.63A.84.84,0,0,0,17,123a.86.86,0,0,0-.18.64.88.88,0,0,0,.33.58,1,1,0,0,0,.64.18.87.87,0,0,0,.43-1.55A.82.82,0,0,0,17.61,122.68Zm4.26-.81a.91.91,0,0,0,.18-.64.88.88,0,0,0-1-.76.86.86,0,0,0-.58.33.82.82,0,0,0-.18.64.84.84,0,0,0,.33.58.92.92,0,0,0,.31.16,1.22,1.22,0,0,0,.33,0A.91.91,0,0,0,21.87,121.87Zm-.94,5.71a.84.84,0,1,0-.15-1.18A.84.84,0,0,0,20.93,127.58Zm3-3.21a.88.88,0,0,0,.32.16.89.89,0,0,0,.91-.31h0A.88.88,0,0,0,25,123a.87.87,0,0,0-1.23.15A.88.88,0,0,0,23.92,124.37Zm5.19.63a.89.89,0,0,0-1.23.15.87.87,0,0,0,.16,1.22.77.77,0,0,0,.31.16.87.87,0,0,0,.91-.3h0A.88.88,0,0,0,29.11,125Zm-2.52,3.49a.82.82,0,0,0-.64-.18.86.86,0,0,0-.58.33.91.91,0,0,0-.18.64.88.88,0,0,0,.33.58,1.07,1.07,0,0,0,.32.16,1.13,1.13,0,0,0,.32,0,.86.86,0,0,0,.58-.33.82.82,0,0,0,.18-.64A.84.84,0,0,0,26.59,128.49Zm24-17.17a1,1,0,1,0,.25,1.38A1,1,0,0,0,50.54,111.32Zm8,2.57a1,1,0,1,0,.25,1.38A1,1,0,0,0,58.55,113.89Zm9.6,2.75A1,1,0,1,0,68.4,118,1,1,0,0,0,68.15,116.64Zm10.07,2.13a1,1,0,1,0-1.12,1.63,1,1,0,0,0,1.12-1.63Zm9.93,2.09a1,1,0,1,0,.26,1.38A1,1,0,0,0,88.15,120.86Zm-35-13.47a1,1,0,1,0,.25,1.38A1,1,0,0,0,53.16,107.39Zm7.13,2.34a1,1,0,1,0-1.12,1.63,1,1,0,0,0,1.37-.25A1,1,0,0,0,60.29,109.73Zm9,2.58a1,1,0,1,0,.25,1.38A1,1,0,0,0,69.28,112.31Zm9.34,2a1,1,0,1,0,.25,1.38A1,1,0,0,0,78.62,114.26Zm8.28,1.66a1,1,0,0,0-1.38.26,1,1,0,0,0,.26,1.37,1,1,0,1,0,1.12-1.63Zm-39.3,3.7a1,1,0,1,0,.25,1.38A1,1,0,0,0,47.6,119.62Zm8.72,2.81a1,1,0,0,0-1.12,1.63,1,1,0,1,0,1.12-1.63Zm9.62,2.7a1,1,0,1,0,.26,1.38A1,1,0,0,0,65.94,125.13Zm10.52,2.29a1,1,0,1,0,.25,1.38A1,1,0,0,0,76.46,127.42ZM49.55,116.05a1,1,0,1,0,.26,1.38A1,1,0,0,0,49.55,116.05Zm8.64,2.65a1,1,0,0,0-1.12,1.64,1,1,0,0,0,1.12-1.64Zm8.75,2.55a1,1,0,0,0-1.12,1.63,1,1,0,1,0,1.12-1.63ZM77,123.48a1,1,0,1,0,.26,1.38A1,1,0,0,0,77,123.48ZM85.8,125a1,1,0,1,0-1.12,1.64A1,1,0,0,0,85.8,125Zm28.57,32.1a.84.84,0,1,0,.1,1.18A.84.84,0,0,0,114.37,157.12Zm-3.17,3a.84.84,0,0,0-1.08,1.29.84.84,0,1,0,1.08-1.29Zm-4.24,1.9a.84.84,0,0,0-1.08,1.29.84.84,0,1,0,1.08-1.29Zm-4.73,1a.84.84,0,0,0-1.08,1.28.84.84,0,1,0,1.08-1.28Zm-.56-3.72a.84.84,0,1,0,.1,1.19A.85.85,0,0,0,101.67,159.29Zm4.26-.77a.84.84,0,1,0,.1,1.18A.83.83,0,0,0,105.93,158.52Zm3.83-1.57a.84.84,0,1,0-1.08,1.29.84.84,0,0,0,1.18-.1A.85.85,0,0,0,109.76,157Zm4.79-7.29a.84.84,0,1,0,.1,1.18A.83.83,0,0,0,114.55,149.66Zm-3.15,3.22a.84.84,0,1,0,.1,1.19A.84.84,0,0,0,111.4,152.88Zm-4.68,2a.84.84,0,1,0,.1,1.19A.85.85,0,0,0,106.72,154.87Zm-4.94.65a.84.84,0,1,0,.1,1.19A.85.85,0,0,0,101.78,155.52Zm-.81-3.86a.84.84,0,1,0-1.08,1.28.84.84,0,0,0,1.08-1.28Zm4.55-.54a.84.84,0,1,0,.1,1.18A.83.83,0,0,0,105.52,151.12Zm4.12-1.71a.83.83,0,0,0-1.18.1.84.84,0,1,0,1.28,1.08A.83.83,0,0,0,109.64,149.41Zm3.94-6.68a.84.84,0,1,0,.1,1.18A.84.84,0,0,0,113.58,142.73Zm-3.09-1.6a.85.85,0,0,0,1.19-.11.84.84,0,0,0-1.29-1.08A.85.85,0,0,0,110.49,141.13Zm-.13,3.84a.84.84,0,1,0-1.08,1.28.84.84,0,0,0,1.08-1.28Zm-2.25-3.44a.84.84,0,1,0,.1,1.19A.85.85,0,0,0,108.11,141.53Zm-2.32,4.83a.84.84,0,1,0,.1,1.19A.85.85,0,0,0,105.79,146.36Zm-1.64-4a.84.84,0,0,0-1.18.11.84.84,0,1,0,1.28,1.08A.84.84,0,0,0,104.15,142.32Zm-4.57.14a.84.84,0,1,0,.1,1.19A.84.84,0,0,0,99.58,142.46Zm.86,4.21a.84.84,0,1,0,.1,1.19A.85.85,0,0,0,100.44,146.67ZM33.56,79.33a1,1,0,1,0-.23,1.35A1,1,0,0,0,33.56,79.33Zm2.93,4.12a1,1,0,0,0-.23,1.35A1,1,0,0,0,37.6,85a1,1,0,1,0-1.11-1.58Zm-3.93,1.23A1,1,0,0,0,32.33,86a1,1,0,0,0,1.58-1.11A1,1,0,0,0,32.56,84.68Zm2.27-10.36a1,1,0,0,0-1.11-1.58,1,1,0,0,0,1.11,1.58Zm4.77-1A1,1,0,0,0,39.83,72a1,1,0,0,0-1.58,1.11A1,1,0,0,0,39.6,73.35ZM40,81.49a1,1,0,0,0-.24,1.34,1,1,0,1,0,1.58-1.11A1,1,0,0,0,40,81.49Zm5.4-1.83A1,1,0,0,0,44,79.43a1,1,0,0,0-.23,1.34,1,1,0,1,0,1.58-1.11ZM36,77.6a1,1,0,0,0,1.11,1.58A1,1,0,1,0,36,77.6Zm-9-.85a1,1,0,1,0-1.11-1.58A1,1,0,0,0,27,76.75Zm3.9-1.08a1,1,0,1,0-1.34-.23A1,1,0,0,0,30.92,75.67ZM18.54,79.18a1,1,0,1,0,1.34.23A1,1,0,0,0,18.54,79.18Zm2.17,5.44a1,1,0,1,0,1.35.23A1,1,0,0,0,20.71,84.62Zm2.84-5.52a1,1,0,1,0-1.34-.23A1,1,0,0,0,23.55,79.1ZM25.87,83a1,1,0,1,0-.23,1.34A1,1,0,0,0,25.87,83Zm2.68,4.69a1,1,0,1,0,1.34.23A1,1,0,0,0,28.55,87.65ZM24.5,89.32a1,1,0,0,0,1.11,1.58,1,1,0,1,0-1.11-1.58Zm3.76-8.86A1,1,0,0,0,29.37,82a1,1,0,1,0-1.11-1.58Zm13.32-3.27A1,1,0,1,0,40.24,77,1,1,0,0,0,41.58,77.19Zm74.71,26.36a1,1,0,0,0-.16-1.36,1,1,0,1,0,.16,1.36Zm-6-.62a1,1,0,0,0-1.36.15,1,1,0,0,0,.16,1.36,1,1,0,0,0,1.2-1.51Zm2.45,3.72a1,1,0,0,0-1.2,1.51,1,1,0,1,0,1.2-1.51Zm4.46-9.07a1,1,0,0,0,1.36-.16,1,1,0,1,0-1.36.16ZM115.14,94a1,1,0,0,0-1.51-1.2,1,1,0,1,0,1.51,1.2Zm-6.76,5.93a1,1,0,1,0-1.2,1.51,1,1,0,0,0,1.2-1.51Zm-2.24-4a1,1,0,0,0-1.2,1.51,1,1,0,1,0,1.2-1.51ZM114,100.2a1,1,0,1,0-1.35.15A1,1,0,0,0,114,100.2Zm9.6,2.22a1,1,0,0,0-1.2,1.51,1,1,0,1,0,1.2-1.51Zm-3.84-1.55a1,1,0,0,0,1.35-.15,1,1,0,1,0-1.35.15Zm7.76,9a1,1,0,1,0-1.2,1.52,1,1,0,0,0,1.35-.16A1,1,0,0,0,127.48,109.84Zm-4.83,3.32a1,1,0,0,0-1.36.16,1,1,0,0,0,1.51,1.2A1,1,0,0,0,122.65,113.16Zm2.49-6.85a1,1,0,0,0-1.35.15,1,1,0,0,0,.15,1.36,1,1,0,0,0,1.36-.16A1,1,0,0,0,125.14,106.31Zm-4.62,3.16a1,1,0,0,0-1.2,1.51,1,1,0,1,0,1.2-1.51Zm-6.08,1.88a1,1,0,0,0-1.35.15,1,1,0,1,0,1.51,1.2A1,1,0,0,0,114.44,111.35Zm2.45,3.63a1,1,0,0,0-1.36.15,1,1,0,0,0,.16,1.36,1,1,0,0,0,1.2-1.51Zm1.94-8.11a1,1,0,1,0-1.36.16A1,1,0,0,0,118.83,106.87Zm-7.48-10.8a1,1,0,0,0-.15-1.35,1,1,0,1,0-1.2,1.51A1,1,0,0,0,111.35,96.07ZM90.56,36.68a.82.82,0,0,0-1,.58.81.81,0,0,0,.58,1,.79.79,0,0,0,1-.57A.81.81,0,0,0,90.56,36.68Zm1.33-3.54a.79.79,0,0,0-1,.57.81.81,0,0,0,.58,1,.79.79,0,0,0,1-.57A.81.81,0,0,0,91.89,33.14Zm2.4-4.34a.34.34,0,0,0-.41.24.33.33,0,0,0,.24.41.33.33,0,0,0,.4-.24A.34.34,0,0,0,94.29,28.8Zm2.8,1.42a.32.32,0,0,0,.4-.24.34.34,0,0,0-.23-.41.35.35,0,0,0-.41.24A.33.33,0,0,0,97.09,30.22ZM89.15,40a.86.86,0,1,0,.61,1A.87.87,0,0,0,89.15,40Zm-1.36,4a.9.9,0,0,0-.46,1.74.91.91,0,0,0,1.1-.65A.88.88,0,0,0,87.79,44Zm6.84-4.61a.82.82,0,0,0,1-.58.81.81,0,1,0-1,.58Zm1.44-5.19a.81.81,0,0,0-1,.58.79.79,0,0,0,.57,1,.81.81,0,1,0,.41-1.56Zm-2.43,8.71a.86.86,0,1,0-.61-1A.85.85,0,0,0,93.64,42.93ZM93,45.38a.9.9,0,1,0,.65,1.1A.91.91,0,0,0,93,45.38Zm7.31-5.32a.81.81,0,0,0-1.56-.41.82.82,0,0,0,.58,1A.81.81,0,0,0,100.33,40.06Zm.58-3.75a.81.81,0,1,0-1,.58A.8.8,0,0,0,100.91,36.31Zm0-3.17a.63.63,0,1,0-.77.45A.64.64,0,0,0,101,33.14Zm-.19-2a.34.34,0,1,0-.41.24A.34.34,0,0,0,100.77,31.11Zm2.83,1.63a.33.33,0,0,0-.24-.41.33.33,0,0,0-.4.24.34.34,0,0,0,.23.41A.34.34,0,0,0,103.6,32.74ZM98.74,44.26a.86.86,0,1,0-.61-1A.86.86,0,0,0,98.74,44.26Zm-.44,2.59a.91.91,0,1,0-.46,1.76.91.91,0,0,0,.46-1.76ZM85.65,35.7a.81.81,0,0,0-1,.57.82.82,0,0,0,.58,1,.81.81,0,0,0,.41-1.56Zm1.87-3.41a.81.81,0,1,0,.58,1A.81.81,0,0,0,87.52,32.29Zm1.73-2.56a.63.63,0,0,0-.77.45.64.64,0,0,0,.46.77.63.63,0,0,0,.77-.45A.64.64,0,0,0,89.25,29.73Zm1.29-1.61a.33.33,0,0,0-.17.64.33.33,0,0,0,.41-.24A.33.33,0,0,0,90.54,28.12ZM84,39a.86.86,0,1,0,.61,1A.85.85,0,0,0,84,39ZM82.7,43.08a.9.9,0,0,0-1.11.65.91.91,0,1,0,1.76.46A.9.9,0,0,0,82.7,43.08Zm-1.44-8.44a.74.74,0,1,0,.53.9A.74.74,0,0,0,81.26,34.64Zm2.21-3.15a.74.74,0,1,0-.37,1.43.73.73,0,0,0,.9-.53A.74.74,0,0,0,83.47,31.49ZM85.93,30a.58.58,0,1,0-.71.41A.58.58,0,0,0,85.93,30Zm.69-2a.66.66,0,1,1,.47.8A.66.66,0,0,1,86.62,28Zm-7.4,10a.82.82,0,0,0-1,.59.83.83,0,0,0,.59,1,.85.85,0,0,0,1-.6A.83.83,0,0,0,79.22,38Zm-1.4,4.21a.83.83,0,0,0-1,.6.84.84,0,1,0,1.63.43A.86.86,0,0,0,77.82,42.21Zm29.69.45a.79.79,0,0,0-.57-1,.8.8,0,1,0,.57,1Zm-.25-3.1a1,1,0,0,0,0,.17,1.14,1.14,0,0,0,.83,1h0a.52.52,0,0,0,.38-.07c1.12-.67,1.18-1.08,1.09-1.39s-.15-.51-1.46-.87h0a.54.54,0,0,0-.46.09,1.2,1.2,0,0,0-.37.59.66.66,0,0,0-.47-.46.67.67,0,0,0-.81.48.66.66,0,0,0,.48.8A.67.67,0,0,0,107.26,39.56Zm-1.49-3.64a.52.52,0,0,0,.37.63.5.5,0,0,0,.59-.28l.14,0h0a.51.51,0,0,0,0,.42l.35,1.12a.57.57,0,0,0,.32.34h0a.51.51,0,0,0,.42-.06c1-.61,1-1,.89-1.28s-.15-.49-1.36-.8h0c.37-.41.64-.81.38-1.18-.1-.16-.25-.3-1.11-.44a.53.53,0,0,0-.51.19.55.55,0,0,0-.08.54l.15.37A.52.52,0,0,0,105.77,35.92Zm-.18-1.56a.34.34,0,1,0,.17-.66.33.33,0,0,0-.14,0,.28.28,0,0,0-.25.2h0a.05.05,0,0,1,0,0A.34.34,0,0,0,105.59,34.36Zm2,12.26a.66.66,0,1,0-.81.47A.67.67,0,0,0,107.56,46.62Zm-.71,3.16a.75.75,0,1,0-.38,1.45.75.75,0,0,0,.38-1.45ZM70.12,41.86a.72.72,0,1,0-.36,1.4.71.71,0,0,0,.88-.51A.73.73,0,0,0,70.12,41.86Zm7-7a.86.86,0,0,0-.71.16c-.78-.45-1.27-.5-1.56-.16-.11.12-.32.36-.07,1.58a.54.54,0,0,0,.37.4h0a.54.54,0,0,0,.51-.13l.6-.58a.78.78,0,0,0,.44.3.81.81,0,1,0,.4-1.58ZM74.83,38a.81.81,0,0,0-1,.58.8.8,0,0,0,.58,1,.71.71,0,0,0,.25,0,.69.69,0,0,0,.79-.5.71.71,0,0,0,0-.48A.8.8,0,0,0,74.83,38Zm-1.67,3.89a.79.79,0,1,0,.57,1A.79.79,0,0,0,73.16,41.91Zm36.9,9.81a.79.79,0,1,0,.56,1A.79.79,0,0,0,110.06,51.72ZM80.65,31.87a.85.85,0,0,0,.23.09A1.32,1.32,0,0,0,82,31.75a1.14,1.14,0,0,0,.58-1.18.54.54,0,0,0-.21-.32c-1.07-.77-1.46-.66-1.71-.46s-.41.34-.22,1.69A.53.53,0,0,0,80.65,31.87ZM79.8,34a1.25,1.25,0,0,0,.44-1.42.53.53,0,0,0-.26-.27c-1.63-.79-1.93-.47-2.09-.29s-.42.45.14,2a.57.57,0,0,0,.31.32l.09,0A1.49,1.49,0,0,0,79.8,34Zm28.37,7.4a1.5,1.5,0,0,0-.4,1.44,1.27,1.27,0,0,0,.9,1l.15,0a.55.55,0,0,0,.35-.1c1.48-1.07,1.33-1.49,1.25-1.71s-.2-.58-1.82-.82A.51.51,0,0,0,108.17,41.4ZM111.28,47c0-.19-.18-.63-2-1a.58.58,0,0,0-.44.1,1.7,1.7,0,0,0-.53,1.57,1.39,1.39,0,0,0,1,1.22l.1,0a.52.52,0,0,0,.36-.08C111.48,47.65,111.35,47.2,111.28,47ZM73.22,39.81a1.19,1.19,0,0,0,.42-1.36.53.53,0,0,0-.26-.27c-1.53-.74-1.82-.43-2-.26s-.4.43.12,1.88a.56.56,0,0,0,.32.32l.08,0A1.42,1.42,0,0,0,73.22,39.81Zm9.56-9.51a.16.16,0,0,0,.09,0,.51.51,0,0,0,.43-.07l1-.68a.51.51,0,0,0,.24-.43.15.15,0,0,0,0-.07l0,0a.53.53,0,0,0,.17.08.56.56,0,0,0,.36,0l.81-.39a.53.53,0,0,0,.3-.43.53.53,0,0,0-.2-.48c-.5-.38-1-.67-1.33-.36-.15.12-.27.28-.34,1.13v.08c-1-.73-1.4-.62-1.65-.42s-.39.33-.22,1.61A.53.53,0,0,0,82.78,30.3Zm21.66,11a.79.79,0,1,0-1,.56A.78.78,0,0,0,104.44,41.29Zm.14-3.6a.79.79,0,1,0-1,.56A.78.78,0,0,0,104.58,37.69Zm-.33-3.16a.61.61,0,1,0-.75.44A.61.61,0,0,0,104.25,34.53Zm-1.37,13.83a.89.89,0,0,0-1.09.64.89.89,0,1,0,1.09-.64Zm.34-2.37a.86.86,0,1,0-.62-1A.86.86,0,0,0,103.22,46Z"/><path class="cls-26" d="M135.47,26.85a.29.29,0,0,0-.36,0c-6.31,6.48-9.77,7.21-11.56,6.68a4,4,0,0,1-2.44-2.84.26.26,0,0,0-.26-.22.28.28,0,0,0-.28.19c-2.2,6.87-6.32,10.56-12.51,12-4.43,1-9.88.67-16.65-1.09s-11.7-4.11-15.07-7.17c-4.7-4.26-6.5-9.49-5.08-16.56a.28.28,0,0,0-.15-.31.29.29,0,0,0-.34.07,3.93,3.93,0,0,1-3.51,1.29c-1.82-.41-4.48-2.73-6.84-11.47a.27.27,0,0,0-.29-.2.28.28,0,0,0-.26.25,39.07,39.07,0,0,0,2.94,16C66,31.29,73.37,41.46,90.19,45.9h0l.18.05c16.85,4.32,28.23-1,34.81-6.19A38.76,38.76,0,0,0,135.57,27.2.3.3,0,0,0,135.47,26.85Z"/><path class="cls-96" d="M135.47,26.85a.29.29,0,0,0-.36,0c-6.31,6.48-9.77,7.21-11.56,6.68a4,4,0,0,1-2.44-2.84.26.26,0,0,0-.26-.22.28.28,0,0,0-.28.19c-2.2,6.87-6.32,10.56-12.51,12-4.43,1-9.88.67-16.65-1.09s-11.7-4.11-15.07-7.17c-4.7-4.26-6.5-9.49-5.08-16.56a.28.28,0,0,0-.15-.31.29.29,0,0,0-.34.07,3.93,3.93,0,0,1-3.51,1.29c-1.82-.41-4.48-2.73-6.84-11.47a.27.27,0,0,0-.29-.2.28.28,0,0,0-.26.25,39.07,39.07,0,0,0,2.94,16C66,31.29,73.37,41.46,90.19,45.9h0l.18.05c16.85,4.32,28.23-1,34.81-6.19A38.76,38.76,0,0,0,135.57,27.2.3.3,0,0,0,135.47,26.85Z"/><path class="cls-97" d="M94.19,40.83l-5.55-1.44a.71.71,0,0,0-.87.51l-1.65,6.32a.71.71,0,0,0,.52.87l5.54,1.44a.72.72,0,0,0,.88-.51l1.64-6.31A.72.72,0,0,0,94.19,40.83Z"/><polygon class="cls-98" points="87.98 46.21 89.05 45.66 88.38 44.67 87.98 46.21"/><path class="cls-99" d="M91.09,43.32a5.06,5.06,0,0,0-1.51-.12L90.15,41l-.77-.21-.87,3.35.61-.11a4.89,4.89,0,0,1,1.77,0c.4.1.43.34.38.52l-.6,2.3.77.2.61-2.31a1.21,1.21,0,0,0-1-1.48Z"/><path class="cls-100" d="M91.17,42.62l.77.2a2.42,2.42,0,0,0,.91-1.1l-.77-.2A3.14,3.14,0,0,1,91.17,42.62Z"/><line class="cls-101" x1="148.23" y1="119.73" x2="148.38" y2="119.77"/><path class="cls-102" d="M32.09,121.8c2.13,2.48,5.26-2,3.14-4.47s-7.21-7.41-12.5-8.92c-2.52-.72-4.19-1.23-5.24-1.58.75-1.1.26-2.87-3.25-2.84-4.41,0-9,5.16-6.44,7.2a3.89,3.89,0,0,0,1.21.69c-.41,2.14-2.21,7.2,1.24,8.53,4.46,1.73,5,6.81,5.45,9.37s1.41,5.47,4.23,4.05.64-12.06-.29-12.72,1.05-.63,2.38,1.25,4.66,9.26,6.22,9.8,4.83.19,4.26-3.91-7.88-11-7.85-11.53S30,119.32,32.09,121.8Z"/><path class="cls-103" d="M174.53,86.94a9.19,9.19,0,0,0-6.26-5.74c.95-2.73.77-5.73-2.25-8.82a8.4,8.4,0,0,0-9.67-2.18,8.48,8.48,0,0,0-1.3-1.57c-2.46-2.36-7.12-3.86-12.16-.32-1.91,1.35-5.06,4.77-7.47,13.34a13.55,13.55,0,0,0-1.38-.29,8.88,8.88,0,0,0-8.89,3.79,10.13,10.13,0,0,0-1.64,4.54,37.44,37.44,0,0,0-3.45-2.45l.14,0,.16,0,.21-.05a6.77,6.77,0,0,0,.77-.22,7.55,7.55,0,0,0,4.31-3.77c1.68-3.33.76-7.32-.68-11.22a15.91,15.91,0,0,0-2.77-7.08c-.39-3-2.1-6.35-5.27-10.38,0-.15,0-.31-.05-.47a7,7,0,0,0,.09-2.62,41.32,41.32,0,0,0,12.24-6.74A45.05,45.05,0,0,0,141.4,29.75a6.57,6.57,0,0,0-10.68-7.31,30.34,30.34,0,0,1-4.71,4.1,6.57,6.57,0,0,0-11.31,2.18,16.87,16.87,0,0,1-1.27,3,4.28,4.28,0,0,0-.26-.42,6.91,6.91,0,0,0-2.82-2.38A6.53,6.53,0,0,0,109,27.74a6.39,6.39,0,0,0-3-2.26,6.91,6.91,0,0,0-1.36-1,7.14,7.14,0,0,0-13.45-3.34l0,.05h0a6.37,6.37,0,0,0-2.46-.11,6.35,6.35,0,0,0-4.86,0,6.68,6.68,0,0,0-2.19.82,7.1,7.1,0,0,0-2.91,1.43,6.46,6.46,0,0,0-.6.58,5.64,5.64,0,0,0-.77.42A13.26,13.26,0,0,1,77.54,19a6.55,6.55,0,0,0-8.82-7.39,30.52,30.52,0,0,1-2.11-5.87A6.57,6.57,0,0,0,53.71,7a45.18,45.18,0,0,0,3.4,18.86A41.83,41.83,0,0,0,64.72,38a7.39,7.39,0,0,0-.83,1.21l-.74.81c-4.47,1.22-7.56,2.74-9.57,4.75a16,16,0,0,0-6.51,3.91c-3.43,2.13-9.17,6.28-7.16,12.27a4.73,4.73,0,0,0,.25.66,7.79,7.79,0,0,0,1.38,2.13c.29.37.63.8,1,1.28-10.6-.53-12.37.67-13.71,1.58a7.79,7.79,0,0,0-.71.54,18.27,18.27,0,0,0-7.11,2.53,6.57,6.57,0,0,0-1.16,1A25.29,25.29,0,0,0,14,73.78a7.31,7.31,0,0,0-1.81,2l-.53.32a6.27,6.27,0,0,0-2.95,4.59c0,.06-.11.89-.2,2.19C4.86,84.71,3,86.32,2.05,88.4.93,90.77.23,94.46,3,103.63a10.41,10.41,0,0,0-2.09,5.63,8.17,8.17,0,0,0,1.34,4.9c-.58,4.42.25,7.75,2.48,10-.07.24-.13.47-.19.71A22.11,22.11,0,0,0,2,129.88a12.72,12.72,0,0,0-.66,5,10.92,10.92,0,0,0,1.29,7.49c-2.31,9.28-2,15.84.79,20.52,6.15,10.12,16.87,5.5,24,2.45l2.52-1.07c.43.18.84.35,1.25.5,9.46,3.62,15,4.34,19,2.48a9,9,0,0,0,3.06-2.3l1.47.36A9.07,9.07,0,0,0,58,169.64c2.71,1.84,7.67,3.43,10.84,4.33l.72,1.05c3.45,5.08,7.37,10.83,15.1,12.89l.12,0a13.16,13.16,0,0,0,3.22.41A13.46,13.46,0,0,0,95.48,186c3.15-2.09,6-5.56,8.58-10.56,11.32-2.27,17.65-5.72,18.83-10.28.48-1.84.31-4-.7-8.17a23.63,23.63,0,0,0-.32-4.84,11.5,11.5,0,0,0,.18-3.32,26.64,26.64,0,0,0-.59-3.81,9.77,9.77,0,0,0-1.18-5.58,28.3,28.3,0,0,0-2.07-3.24c.15-.85.22-1.62.27-2.25l0-.51a13.26,13.26,0,0,0-.47-5.46l1.29-.17c2.57,3.73,4.51,5.31,7,5.95l.22.06c7.17,1.74,12-5.36,16.35-12.79,1.09-1.86,2.12-3.74,3-5.37a8.61,8.61,0,0,0,3.89-1.68,20.61,20.61,0,0,0,3.26-.78c5-1.64,7.3-5.93,8.8-8.77a13.91,13.91,0,0,1,1.62-2.65,17.76,17.76,0,0,1,2.95-1.86,22.7,22.7,0,0,0,5.2-3.61C175.74,92.43,175,88.46,174.53,86.94Z"/></g></svg>