<svg xmlns="http://www.w3.org/2000/svg" viewBox="0 0 111.66 132.72"><defs><style>.cls-1{fill:#7673c0;}.cls-2,.cls-6{fill:none;}.cls-2{stroke:#79589f;stroke-linejoin:round;stroke-width:1.94px;opacity:0.3;}.cls-10,.cls-11,.cls-14,.cls-2,.cls-4,.cls-5,.cls-6,.cls-8,.cls-9{stroke-linecap:round;}.cls-3{opacity:0.7;}.cls-14,.cls-4{fill:#f6d2a2;}.cls-10,.cls-11,.cls-4,.cls-5,.cls-6,.cls-8,.cls-9{stroke:#000;}.cls-11,.cls-14,.cls-4,.cls-5,.cls-6,.cls-8{stroke-width:0.61px;}.cls-10,.cls-11,.cls-14,.cls-4,.cls-5,.cls-7,.cls-8,.cls-9{fill-rule:evenodd;}.cls-5{fill:#6ad7e5;}.cls-8{fill:#c6b198;}.cls-10,.cls-11,.cls-13,.cls-9{fill:#fff;}.cls-9{stroke-width:0.59px;}.cls-10{stroke-width:0.57px;}.cls-12{fill:#302c2d;}.cls-14{stroke:#231f20;}</style></defs><title>full-colorgo</title><g id="ecosystem-2" data-name="ecosystem"><path class="cls-1" d="M96,52.2c-.43-1.54-2.4-2.38-3.12-2.57a9.5,9.5,0,0,0-5,.12c-1.08-2.53-2.11-5.08-3.1-7.59C81.91,34.94,79,27.53,74.41,21c2.38-2.28,3.33-5.12,2.56-7.89a9,9,0,0,0-7.14-6.21,8.51,8.51,0,0,0-8.38,3.8c-7.93-2.47-16.36-.19-24.5,3l-.09,0c-7.43,3.57-14.91,8.1-18.93,15.1a8.83,8.83,0,0,0-8.42,3.55,8.73,8.73,0,0,0-.9,9.07c.74,1.38,2.59,3.55,6.69,3.71C16.39,52.63,19.67,59.4,22.87,66c1.25,2.57,2.52,5.2,3.66,7.87a9.68,9.68,0,0,0-4.34,3.54c-.41.63-1.31,2.58-.58,4a2.11,2.11,0,0,0,1.26,1.08A2.74,2.74,0,0,0,25,83.93a2.8,2.8,0,0,0,1.28-.2,7.4,7.4,0,0,0,2.95-2.62c.42,1.36.85,2.76,1.29,4.23,2.85,9.55,6.08,20.39,13.83,26.26A20.72,20.72,0,0,0,48.46,114c-1.5,2.25-4.17,6.35-.58,9l.22.12a2.19,2.19,0,0,0,1.12.24,2.94,2.94,0,0,0,2.82.39,4,4,0,0,0,1.69-1.33,17,17,0,0,0,1.78-2.78,8.84,8.84,0,0,1,2.85-3.56,45.35,45.35,0,0,0,15.32-2.57l2-.72c4.88-1.89,12.21-5.47,17.41-11.3a9.92,9.92,0,0,1,2.81,1.18c1.65.9,3.36,1.82,5,1.3l.18-.07a3.81,3.81,0,0,0,2-1.92,3.58,3.58,0,0,0,.59-3.54c-.82-2.14-3.66-3.63-5.93-4.33a21.94,21.94,0,0,0,1.5-6.08c1-10.65-3.57-21.26-8-30.76a6.24,6.24,0,0,0,2.88-.24,2.72,2.72,0,0,0,1.07-.71,2.54,2.54,0,0,0,.65-1.74A1.58,1.58,0,0,0,96,53,2.18,2.18,0,0,0,96,52.2ZM69.47,9.15a6.67,6.67,0,0,1,5.29,4.56,5.5,5.5,0,0,1-1.71,5.43c-.8-1.05-1.66-2.07-2.57-3.05a2.2,2.2,0,0,0-.58-3,2.34,2.34,0,0,0-3.2,0,22.18,22.18,0,0,0-3-1.61A6.13,6.13,0,0,1,69.47,9.15ZM10.62,40.32A6.63,6.63,0,0,1,16.82,31a22.33,22.33,0,0,0-1.23,3.73c-1.42,0-2.59.58-2.77,2.17s.79,2.44,2.15,2.76c0,.63,0,1.26,0,1.92,0,.42.08.83.11,1.24A5.08,5.08,0,0,1,10.62,40.32ZM25.19,81.65l-.05,0a2.49,2.49,0,0,0,.51-.94,1.14,1.14,0,0,0-1.95-1.06,3.76,3.76,0,0,1,.41-1,7.35,7.35,0,0,1,3.29-2.68c.35.89.69,1.77,1,2.67,0,0,0,0,0,0l0,0a5.44,5.44,0,0,0-1,1.1C26.57,80.93,25.58,81.68,25.19,81.65Zm28.33,36.91A15.49,15.49,0,0,1,52,121a1.53,1.53,0,0,1-.89.68.79.79,0,0,1-.5-.16,4.73,4.73,0,0,1,.18-1.32,9.27,9.27,0,0,0,.24-1.46,1.14,1.14,0,1,0-2.28-.11,6.52,6.52,0,0,1-.19,1.05c0,.12,0,.24-.08.36-.26-1.13.53-2.65,2-4.83l.24-.36a25.47,25.47,0,0,0,4.59,1A17.79,17.79,0,0,0,53.52,118.56Zm47.75-19.62a4.67,4.67,0,0,0-1.44-1,1.14,1.14,0,1,0-.88,2.11,4.28,4.28,0,0,1,1.42,1.22l.21.22a1.39,1.39,0,0,1-.4.3c-.73.23-2.06-.49-3.23-1.13a18.76,18.76,0,0,0-2.31-1.11,24.37,24.37,0,0,0,2.08-3.35C98.45,96.73,100.54,97.79,101.27,98.94ZM96.9,87.84a20.94,20.94,0,0,1-5.12,11.65,1,1,0,0,0-.19.21c-5.6,6.47-14.15,10.12-18.66,11.67-5.18,1.8-18.21,5.23-27.22-1.59-7.15-5.42-10.27-15.88-13-25.09C32,82.3,31.31,80,30.58,77.92c-.43-1.27-.91-2.52-1.42-3.75h0s0,0,0,0C27.85,71,26.38,67.94,24.93,65c-3.76-7.71-7.3-15-7.69-23.47-.61-13.61,9.52-20.41,20.57-25.72,12.16-4.7,22-6.21,30.75,1.59,6.83,7.25,10.34,16.18,14,25.64,1.1,2.79,2.25,5.64,3.47,8.46a.53.53,0,0,0,0,.12c0,.05.06.08.08.13.25.58.49,1.16.75,1.73.43,1,.88,1.93,1.33,2.9h0l.11.23C92.85,66.23,97.92,77.18,96.9,87.84ZM90.07,54.78c-.35-.77-.71-1.53-1-2.29-.1-.2-.18-.41-.27-.62a7.32,7.32,0,0,1,3.51,0,2.34,2.34,0,0,1,.24.09,1.62,1.62,0,0,0-.79.63,1.64,1.64,0,0,0,.52,2.26,3.92,3.92,0,0,0,.47.22,5.9,5.9,0,0,1-2-.17A4.87,4.87,0,0,0,90.07,54.78Z"/><path class="cls-1" d="M49.19,15.11c-4.46,2.52-7.95,8.1-5.06,14.39l.06.11a10.11,10.11,0,0,0,9.34,5.18,12.53,12.53,0,0,0,4.06-.85,12.38,12.38,0,0,0,6.59-5.78,9.6,9.6,0,0,0-.88-10.1C59.59,12.61,53.54,12.64,49.19,15.11Zm13,12a10.47,10.47,0,0,1-8.69,5.38,7.92,7.92,0,0,1-7.27-4c-2.24-4.95.57-9.37,4.14-11.39s8.2-2,11.09,2.24A7.29,7.29,0,0,1,62.14,27.12Z"/><path class="cls-1" d="M41.36,29.56a9.71,9.71,0,0,0-8.6-6,12.69,12.69,0,0,0-11.19,6.06,10,10,0,0,0,.48,10.79l0,.06c3.3,4.62,8.51,5.05,12.62,3.46a12,12,0,0,0,1.77-.84C40.68,40.62,44,35.36,41.36,29.56Zm-6,11.52c-3.51,2-8.37,2.21-11.36-1.95-2.28-3.61-1.48-6.55-.42-8.39a10.35,10.35,0,0,1,9.11-4.93,7.53,7.53,0,0,1,6.63,4.7C41.35,35,38.78,39.08,35.32,41.08Z"/><ellipse class="cls-1" cx="26.87" cy="36.36" rx="2.96" ry="3.2" transform="translate(-11.31 12.14) rotate(-21.14)"/><path class="cls-1" d="M48.54,23.7a3.22,3.22,0,0,0,2.31,6,3.21,3.21,0,0,0-2.31-6Z"/><path class="cls-1" d="M50.58,35.05v0c-2-2.66-8.1-.1-7.91,3.27-.08,0-.15.11-.23.16h0A5.11,5.11,0,0,0,40,42.25a4.44,4.44,0,0,0,1.51,4,3.29,3.29,0,0,0,2.66.85c.67,2.2,2.32,4.32,4.16,4.48a2.45,2.45,0,0,0,1.14-.16,3.4,3.4,0,0,0,1.76-1.79,3.93,3.93,0,0,0,2.51.3l.33-.07.24-.24a3.49,3.49,0,0,1,.35-.32A3.27,3.27,0,0,0,56,47.16v-.35a14.69,14.69,0,0,0-1.3-3.49l.35-.09a4,4,0,0,0,1.84-5.62C55.45,35.45,51.86,35.1,50.58,35.05ZM48.5,49.32c-.65,0-1.83-1.49-2.24-3.1a17.55,17.55,0,0,0,1.42-1.1c.16-.14.32-.28.49-.41A21,21,0,0,0,49.4,48.1C49.09,49,48.74,49.34,48.5,49.32Zm4.09-5.07A14.6,14.6,0,0,1,53.68,47a2,2,0,0,1-.53.56l-.2.17a1.65,1.65,0,0,1-1.21-.42A19.25,19.25,0,0,1,50.52,44c0-.13-.09-.26-.13-.39a10.23,10.23,0,0,1,1.77-.06h.1C52.37,43.77,52.47,44,52.59,44.25Zm2.38-4c-.4,1-1,1.09-2.74,1a8.29,8.29,0,0,0-3.12.31,2.15,2.15,0,0,0-.45.14l-.21.1h0s0,0,0,0a10.73,10.73,0,0,0-2.2,1.55c-1.75,1.48-2.42,1.83-3.24,1.14a2.2,2.2,0,0,1-.71-2,2.84,2.84,0,0,1,1.44-2.18l.49-.21c1.87.35,5-1,6.19-2.69l.23-.1c2.06.1,3.83.72,4.36,1.53A1.36,1.36,0,0,1,55,40.21Z"/><path class="cls-2" d="M110,97a12.21,12.21,0,0,0-4.27-5.4c.11-.64.19-1.29.25-1.94.93-9.66-1.95-19-5.68-27.83a9.23,9.23,0,0,0,2.15-4.26,8.14,8.14,0,0,0,.42-4.4,8.15,8.15,0,0,0-.31-1.83c-1.16-4.16-5-6.55-7.92-7.32a15.2,15.2,0,0,0-2.35-.42l-1.18-3a127.82,127.82,0,0,0-8.48-18.52,14,14,0,0,0,.93-9.86A15.81,15.81,0,0,0,71,1.16a14.9,14.9,0,0,0-11.64,3C50.56,2.81,42,5.42,34.55,8.29l-.27.11L34,8.54c-6.52,3.13-14.37,7.54-19.69,14.55A15.28,15.28,0,0,0,4.06,29.32,15.45,15.45,0,0,0,2.68,45.61a13.42,13.42,0,0,0,6.87,6.12c1.67,6.7,4.61,12.74,7.27,18.19l1.3,2.7a15.08,15.08,0,0,0-1.59,2.06c-1.65,2.55-2.88,6.89-.94,10.74a8.84,8.84,0,0,0,2.85,3.3,9.31,9.31,0,0,0,6,3l.66,0c2.8,9.14,6.6,19.49,14.74,25.93-1.06,3.91-.64,8.33,4.07,11.82a5.81,5.81,0,0,0,.61.4l.21.13a5.58,5.58,0,0,0,.69.35,10.13,10.13,0,0,0,1.83.62,9.67,9.67,0,0,0,3.81.79,8.55,8.55,0,0,0,1-.06,9.6,9.6,0,0,0,2.5-.6,10.69,10.69,0,0,0,4.51-3.38A24.76,24.76,0,0,0,61.5,124l.08-.13A54.57,54.57,0,0,0,76,120.93c.66-.23,1.39-.49,2.18-.8a56.76,56.76,0,0,0,16.38-9.53,11.45,11.45,0,0,0,8.52.83l.51-.18a10.49,10.49,0,0,0,5.3-4.67A10.31,10.31,0,0,0,110,97Z"/></g><g id="Color_stickers" data-name="Color stickers"><g class="cls-3"><path class="cls-4" d="M23.22,81.69c1.25,2.93,3.72.44,4.72-1s1.6-.76,1.06-2.55a30.58,30.58,0,0,0-1.14-3.51,9,9,0,0,0-5.1,3.54c-.59.9-1.42,3.37.46,3.52"/><path class="cls-5" d="M16.88,43.57c-12.61,1-9.53-16.66,1.86-14.09Z"/><path class="cls-5" d="M62.83,11.84c6.68-9.71,20.18,1.58,11,9.09Z"/><path class="cls-4" d="M96.45,96.26c2.82.57,8.61,3.31,6,6.67-2.19,4.27-6.4-1.4-9.64-1.21C93.38,99.56,94.39,97.42,96.45,96.26Z"/><path class="cls-6" d="M102.4,102.93c-.89-.82-1.51-1.94-2.66-2.45"/><path class="cls-4" d="M57.23,116.38c-2.54,1.42-3.15,4.41-4.93,6.48s-3.08.69-3.4.42c-.39,0-.25.25-.95-.07-3.12-2.37,0-6.13,1.56-8.44C52.2,113.1,55,114.94,57.23,116.38Z"/><path class="cls-6" d="M48.9,123.28c-.33-1.22.31-2.36.38-3.52"/><path class="cls-7" d="M15.86,39.38c-1.8-.24-3.31-.91-3-3,.25-1.93,1.9-2.34,3.7-2.11Z"/><path class="cls-7" d="M69.88,17.56c1.21-1.36,1.91-2.85.34-4.25s-3-.53-4.18.83Z"/><path class="cls-4" d="M95.39,54.41c1,3-2.53,2.77-4.22,2.34s-1.72.46-2.48-1.24a31.32,31.32,0,0,1-1.42-3.4,9,9,0,0,1,6.17-.66c1,.29,3.28,1.62,2,3"/><path class="cls-8" d="M95.39,54.41A2.46,2.46,0,0,1,94,54.18"/><path class="cls-5" d="M38,14.21C49.41,10,60.73,7.61,70.41,16.52,80,27,83.16,40.92,88.77,53.65,93.58,64.59,99.84,77,98.51,89.25c-1.4,12.92-14,20.73-25.38,24.5-8.93,3-20.65,4-28.63-2.16-9.35-7.28-11.82-22.37-15.3-33C25.06,65.89,16.54,54.83,16.09,41.12,15.63,26.89,26,19.77,38,14.21"/><path class="cls-9" d="M45.71,28.82C52.2,40,70.53,29.58,63.25,18.58,56.72,8.72,40.91,18,45.71,28.82"/><path class="cls-10" d="M23.12,39.42c6.52,9.4,22.17.55,17.66-9.64-5.39-12.21-25-2.19-17.66,9.64"/><path class="cls-11" d="M53.39,42.27c.58,1.55,1.58,3.16,1.9,4.92-.12.9-.87,1.26-1.43,1.82a2.87,2.87,0,0,1-2.67-.85,37.3,37.3,0,0,1-1.94-5.65Z"/><ellipse class="cls-12" cx="27.08" cy="36.01" rx="3" ry="3.25" transform="matrix(0.94, -0.35, 0.35, 0.94, -10.86, 11.7)"/><ellipse class="cls-13" cx="28.61" cy="36.23" rx="0.71" ry="0.83" transform="translate(-10.83 12.24) rotate(-20.4)"/><ellipse class="cls-12" cx="50.32" cy="26.5" rx="2.95" ry="3.25" transform="translate(-6.08 19.21) rotate(-20.4)"/><ellipse class="cls-13" cx="51.84" cy="26.72" rx="0.69" ry="0.83" transform="translate(-6.06 19.75) rotate(-20.4)"/><path class="cls-11" d="M45.3,45.08c-.12,3.43,4,8.66,5.69,3a36.88,36.88,0,0,1-1.93-5.65Z"/><path class="cls-14" d="M43.59,39.2c-2.21,1-3.07,4.46-1.08,6.17,2.63,2.26,5-2.14,7.28-2.67,2.54-.88,5.57,1,6.78-2,1.34-3.27-2.76-4.45-5.67-4.57Z"/><path class="cls-7" d="M43.26,39.19C41.62,35.3,49,32,51.1,35s-6.38,7-7.84,4.21Z"/><path class="cls-12" d="M96,52.14c-.43-1.55-2.4-2.38-3.12-2.57a9.6,9.6,0,0,0-5,.11c-1.08-2.52-2.11-5.08-3.1-7.59C82,34.87,79,27.46,74.46,20.92,76.84,18.64,77.78,15.81,77,13a9,9,0,0,0-7.14-6.21,8.54,8.54,0,0,0-8.39,3.79c-7.92-2.47-16.36-.18-24.5,3l-.08,0C29.48,17.19,22,21.72,18,28.73a8.83,8.83,0,0,0-8.42,3.54,8.72,8.72,0,0,0-.9,9.07c.74,1.38,2.59,3.56,6.69,3.71,1.09,7.52,4.37,14.28,7.57,20.85,1.25,2.57,2.51,5.2,3.66,7.87a9.7,9.7,0,0,0-4.34,3.55c-.41.63-1.31,2.57-.59,4a2.14,2.14,0,0,0,1.27,1.07A2.74,2.74,0,0,0,25,83.86a2.8,2.8,0,0,0,1.28-.2,7.33,7.33,0,0,0,3-2.62c.42,1.36.85,2.76,1.29,4.23,2.85,9.56,6.08,20.39,13.83,26.27A20.87,20.87,0,0,0,48.51,114c-1.5,2.25-4.17,6.35-.58,9l.22.13a2.08,2.08,0,0,0,1.12.23,3.06,3.06,0,0,0,2.08.57,2.76,2.76,0,0,0,.74-.18,4.09,4.09,0,0,0,1.69-1.33,17.37,17.37,0,0,0,1.78-2.77A8.87,8.87,0,0,1,58.41,116a45.35,45.35,0,0,0,15.32-2.57c.59-.2,1.25-.45,2-.72,4.88-1.89,12.21-5.47,17.41-11.29a9.75,9.75,0,0,1,2.81,1.18c1.65.89,3.35,1.81,5,1.29l.18-.06a3.85,3.85,0,0,0,2-1.92,3.62,3.62,0,0,0,.59-3.55c-.82-2.14-3.66-3.62-5.93-4.33A22.3,22.3,0,0,0,99.23,88c1-10.64-3.57-21.26-8-30.76A6.1,6.1,0,0,0,94.16,57a3,3,0,0,0,1.07-.71,2.57,2.57,0,0,0,.65-1.75,1.64,1.64,0,0,0,.33-1,1.58,1.58,0,0,0-.12-.58A2.15,2.15,0,0,0,96,52.14Zm-26.5-43a6.65,6.65,0,0,1,5.29,4.56,5.49,5.49,0,0,1-1.71,5.42C72.3,18,71.44,17,70.53,16a2.2,2.2,0,0,0-.58-3,2.34,2.34,0,0,0-3.2,0,23.34,23.34,0,0,0-3-1.61A6.09,6.09,0,0,1,69.52,9.09ZM10.67,40.26A6.63,6.63,0,0,1,16.87,31a22.05,22.05,0,0,0-1.24,3.73c-1.41,0-2.58.57-2.77,2.17s.8,2.43,2.16,2.75c0,.64,0,1.26,0,1.93,0,.42.08.82.11,1.24A5.12,5.12,0,0,1,10.67,40.26ZM25.24,81.58s0,0,0,0a2.53,2.53,0,0,0,.51-1,1.14,1.14,0,0,0-1.95-1.06,3.39,3.39,0,0,1,.41-1,7.37,7.37,0,0,1,3.29-2.69c.35.89.69,1.78,1,2.67,0,0,0,0,0,0l0,0a4.92,4.92,0,0,0-1,1.1C26.61,80.86,25.63,81.62,25.24,81.58Zm28.33,36.91A15.14,15.14,0,0,1,52,120.94a1.53,1.53,0,0,1-.89.68.83.83,0,0,1-.5-.16,4.75,4.75,0,0,1,.18-1.33,9.14,9.14,0,0,0,.24-1.45,1.14,1.14,0,0,0-1.08-1.2,1.13,1.13,0,0,0-1.2,1.08,6.62,6.62,0,0,1-.19,1.06c0,.11-.05.23-.08.35-.26-1.12.53-2.64,2-4.83l.23-.36a24.92,24.92,0,0,0,4.6,1A17.79,17.79,0,0,0,53.57,118.49Zm47.75-19.62a4.86,4.86,0,0,0-1.44-1A1.14,1.14,0,1,0,99,100a4.32,4.32,0,0,1,1.42,1.23l.21.22a1.33,1.33,0,0,1-.4.29c-.73.23-2.06-.49-3.23-1.13a18.76,18.76,0,0,0-2.31-1.11,24.27,24.27,0,0,0,2.08-3.34C98.5,96.66,100.59,97.73,101.32,98.87ZM97,87.78a20.91,20.91,0,0,1-5.12,11.64,1,1,0,0,0-.19.22C86,106.11,77.49,109.75,73,111.31c-5.19,1.79-18.21,5.23-27.22-1.6-7.16-5.42-10.27-15.87-13-25.09C32,82.23,31.35,80,30.63,77.85c-.43-1.26-.92-2.51-1.42-3.75h0l0,0C27.9,70.93,26.43,67.87,25,64.9c-3.76-7.71-7.31-15-7.69-23.48C16.68,27.82,26.81,21,37.86,15.7,50,11,59.91,9.5,68.61,17.3c6.83,7.24,10.34,16.17,14,25.63,1.1,2.79,2.25,5.65,3.47,8.46,0,0,0,.08,0,.12a.6.6,0,0,0,.09.13c.25.58.48,1.17.74,1.74l1.34,2.9h0l.11.23C92.9,66.17,98,77.12,97,87.78ZM90.12,54.72l-1.05-2.29c-.1-.21-.18-.42-.27-.62a7.2,7.2,0,0,1,3.51,0,1.57,1.57,0,0,1,.23.09,1.52,1.52,0,0,0-.78.62,1.64,1.64,0,0,0,.52,2.26,4,4,0,0,0,.47.23,6.49,6.49,0,0,1-2.06-.17A4.44,4.44,0,0,0,90.12,54.72Z"/><path class="cls-12" d="M49.24,15c-4.46,2.52-8,8.1-5.06,14.39l.06.11a10.11,10.11,0,0,0,9.34,5.18,12.69,12.69,0,0,0,10.65-6.63A9.61,9.61,0,0,0,63.35,18C59.64,12.55,53.59,12.58,49.24,15Zm12.95,12a10.49,10.49,0,0,1-8.69,5.38,7.93,7.93,0,0,1-7.27-4c-2.24-5,.57-9.37,4.14-11.39s8.2-2,11.09,2.25A7.29,7.29,0,0,1,62.19,27.06Z"/><path class="cls-12" d="M41.41,29.5a9.72,9.72,0,0,0-8.6-6,12.71,12.71,0,0,0-11.19,6.06c-2,3.38-1.8,7.21.48,10.8l0,0c3.3,4.63,8.51,5.06,12.62,3.47A12.4,12.4,0,0,0,36.51,43C40.73,40.56,44.06,35.29,41.41,29.5ZM35.37,41c-3.51,2-8.37,2.21-11.36-1.94-2.28-3.61-1.49-6.56-.42-8.4a10.34,10.34,0,0,1,9.11-4.92,7.5,7.5,0,0,1,6.63,4.7C41.4,35,38.83,39,35.37,41Z"/><path class="cls-12" d="M50.63,35v0c-1.95-2.66-8.11-.1-7.91,3.27-.08,0-.15.1-.23.15h0A5.13,5.13,0,0,0,40,42.18a4.44,4.44,0,0,0,1.51,4,3.33,3.33,0,0,0,2.66.86c.67,2.19,2.32,4.32,4.15,4.48a2.77,2.77,0,0,0,1.15-.16,3.44,3.44,0,0,0,1.76-1.79,4.07,4.07,0,0,0,2.51.3l.33-.08.24-.24.35-.32A3.29,3.29,0,0,0,56,47.09l0-.35a14.18,14.18,0,0,0-1.29-3.48l.34-.1a4,4,0,0,0,1.85-5.62C55.49,35.38,51.9,35,50.63,35ZM48.55,49.26c-.65-.06-1.83-1.49-2.24-3.1a17.82,17.82,0,0,0,1.41-1.11l.49-.41A23.09,23.09,0,0,0,49.44,48C49.14,48.9,48.78,49.27,48.55,49.26Zm4.09-5.08A14.6,14.6,0,0,1,53.73,47c-.06.15-.21.29-.53.57l-.2.17a1.74,1.74,0,0,1-1.21-.42,19.58,19.58,0,0,1-1.23-3.35c0-.13-.08-.26-.12-.39a9.32,9.32,0,0,1,1.77-.06h.1C52.42,43.71,52.52,43.94,52.64,44.18Zm2.38-4c-.4,1-1,1.09-2.74,1a8.49,8.49,0,0,0-3.12.31l-.46.14-.2.1h0l0,0a10.3,10.3,0,0,0-2.2,1.54c-1.75,1.48-2.42,1.83-3.24,1.15a2.22,2.22,0,0,1-.71-2,2.86,2.86,0,0,1,1.44-2.19l.49-.21c1.87.35,5-1,6.19-2.68l.23-.11c2.06.11,3.83.72,4.36,1.53A1.36,1.36,0,0,1,55,40.14Z"/></g><path class="cls-2" d="M110.73,97a12.24,12.24,0,0,0-4.27-5.41c.11-.64.19-1.28.25-1.93.92-9.66-1.95-19-5.68-27.83a9.33,9.33,0,0,0,2.15-4.26,8.14,8.14,0,0,0,.42-4.4,8.76,8.76,0,0,0-.31-1.83c-1.16-4.17-5-6.55-7.92-7.32A16.77,16.77,0,0,0,93,43.58c-.38-.94-.77-1.93-1.18-3A128.4,128.4,0,0,0,83.36,22.1a14,14,0,0,0,.93-9.87A15.79,15.79,0,0,0,71.68,1.13a14.88,14.88,0,0,0-11.63,3C51.28,2.78,42.69,5.39,35.27,8.26L35,8.37l-.31.14C28.17,11.64,20.32,16,15,23.05A15.71,15.71,0,0,0,3.4,45.58a13.47,13.47,0,0,0,6.87,6.12c1.67,6.69,4.61,12.74,7.26,18.18l1.31,2.71a15.08,15.08,0,0,0-1.59,2.06c-1.65,2.55-2.88,6.89-.94,10.74a8.84,8.84,0,0,0,2.85,3.3,9.36,9.36,0,0,0,6,3q.33,0,.66,0c2.8,9.14,6.6,19.49,14.74,25.94-1.06,3.91-.64,8.33,4.07,11.82.2.14.4.28.61.4l.21.13a7.43,7.43,0,0,0,.69.35,9.36,9.36,0,0,0,1.83.61,9.49,9.49,0,0,0,3.81.79,8.54,8.54,0,0,0,1-.05,10,10,0,0,0,2.5-.6,10.71,10.71,0,0,0,4.51-3.39,24.23,24.23,0,0,0,2.44-3.74l.08-.14a54.64,54.64,0,0,0,14.38-2.89c.66-.23,1.39-.5,2.18-.8a56.76,56.76,0,0,0,16.38-9.53,11.5,11.5,0,0,0,8.52.83c.19-.07.38-.13.51-.19a10.46,10.46,0,0,0,5.3-4.66A10.31,10.31,0,0,0,110.73,97Z"/></g></svg>