<svg xmlns="http://www.w3.org/2000/svg" xmlns:xlink="http://www.w3.org/1999/xlink" viewBox="0 0 85.51 94.41"><defs><style>.cls-1{fill:url(#linear-gradient);}.cls-2{fill:url(#linear-gradient-2);}.cls-3{fill:none;stroke:#7673c0;stroke-miterlimit:10;stroke-width:1.8px;opacity:0.3;}.cls-4{fill:#57a15c;}</style><linearGradient id="linear-gradient" x1="7.2" y1="47.21" x2="78.31" y2="47.21" gradientUnits="userSpaceOnUse"><stop offset="0" stop-color="#82c3e8"/><stop offset="1" stop-color="#91b1ef"/></linearGradient><linearGradient id="linear-gradient-2" x1="36.31" y1="47.62" x2="66.46" y2="47.62" xlink:href="#linear-gradient"/></defs><title>full-colornode</title><g id="ecosystem-2" data-name="ecosystem"><path class="cls-1" d="M42.92,87.22a6.19,6.19,0,0,1-3.08-.81L30,80.66c-1.47-.81-.76-1.11-.28-1.28a19.11,19.11,0,0,0,4.42-2,.76.76,0,0,1,.73.05l7.54,4.44a1,1,0,0,0,.91,0l29.25-17a.92.92,0,0,0,.45-.8L72.9,30.14a.93.93,0,0,0-.46-.8L43.06,12.55a.92.92,0,0,0-.91,0L12.92,29.6a.94.94,0,0,0-.46.8l.15,33.84a.91.91,0,0,0,.46.79l8.05,4.6c4.37,2.16,7-.41,7-3L28,33.22a.84.84,0,0,1,.84-.85h3.72a.86.86,0,0,1,.86.84l.14,33.41c0,5.82-3.13,9.17-8.64,9.19-1.7,0-3,0-6.77-1.8l-7.71-4.4a6.16,6.16,0,0,1-3.09-5.33L7.2,30.42a6.18,6.18,0,0,1,3.05-5.35L39.5,8a6.44,6.44,0,0,1,6.17,0L75.06,24.79a6.18,6.18,0,0,1,3.11,5.33L78.31,64a6.2,6.2,0,0,1-3,5.36L46,86.38A6.2,6.2,0,0,1,42.92,87.22Z"/><path class="cls-2" d="M51.88,63.86C39.05,63.92,36.33,58,36.31,53.1a.85.85,0,0,1,.85-.85l3.79,0a.86.86,0,0,1,.84.72c.59,3.86,2.31,5.8,10.07,5.76,6.17,0,8.8-1.43,8.78-4.71,0-1.89-.75-3.29-10.36-4.19-8-.76-13-2.51-13-8.93,0-5.91,5-9.46,13.31-9.5,9.4,0,14.06,3.2,14.68,10.19a.89.89,0,0,1-.22.66.86.86,0,0,1-.62.27l-3.81,0a.85.85,0,0,1-.82-.66c-.93-4.06-3.16-5.35-9.18-5.32-6.75,0-7.52,2.38-7.52,4.14,0,2.13.94,2.75,10,3.92s13.31,2.82,13.34,9.15S61.17,63.82,51.88,63.86Z"/><path class="cls-3" d="M84.47,30.09a12.52,12.52,0,0,0-6.28-10.78L48.76,2.48a12.78,12.78,0,0,0-12.43.07L7.09,19.62A12.47,12.47,0,0,0,.9,30.45l.15,33.84A12.49,12.49,0,0,0,7.32,75.07l7,4,12.61,7.09,9.82,5.75a12.4,12.4,0,0,0,6.18,1.64H43a12.47,12.47,0,0,0,6.23-1.69L78.45,74.75a12.53,12.53,0,0,0,6.16-10.82Z"/></g><g id="Color_stickers" data-name="Color stickers"><path class="cls-4" d="M42.92,87.22a6.19,6.19,0,0,1-3.08-.81L30,80.66c-1.47-.81-.76-1.11-.28-1.28a19.11,19.11,0,0,0,4.42-2,.76.76,0,0,1,.73.05l7.54,4.44a1,1,0,0,0,.91,0l29.25-17a.92.92,0,0,0,.45-.8L72.9,30.14a.93.93,0,0,0-.46-.8L43.06,12.55a.92.92,0,0,0-.91,0L12.92,29.6a.94.94,0,0,0-.46.8l.15,33.84a.91.91,0,0,0,.46.79l8.05,4.6c4.37,2.16,7-.41,7-3L28,33.22a.84.84,0,0,1,.84-.85h3.72a.86.86,0,0,1,.86.84l.14,33.41c0,5.82-3.13,9.17-8.64,9.19-1.7,0-3,0-6.77-1.8l-7.71-4.4a6.18,6.18,0,0,1-3.09-5.33L7.2,30.42a6.18,6.18,0,0,1,3.05-5.35L39.5,8a6.44,6.44,0,0,1,6.17,0L75.06,24.79a6.18,6.18,0,0,1,3.11,5.33L78.31,64a6.2,6.2,0,0,1-3,5.36L46,86.38A6.2,6.2,0,0,1,42.92,87.22Z"/><path class="cls-4" d="M51.88,63.86C39.05,63.92,36.33,58,36.31,53.1a.85.85,0,0,1,.85-.85l3.79,0a.86.86,0,0,1,.84.72c.59,3.86,2.31,5.8,10.07,5.76,6.17,0,8.8-1.43,8.78-4.71,0-1.89-.75-3.29-10.36-4.19-8-.76-13-2.51-13-8.93,0-5.91,5-9.46,13.31-9.5,9.4,0,14.06,3.2,14.68,10.19a.89.89,0,0,1-.22.66.86.86,0,0,1-.62.27l-3.81,0a.85.85,0,0,1-.82-.66c-.93-4.06-3.16-5.35-9.18-5.32-6.75,0-7.52,2.38-7.52,4.14,0,2.13.94,2.75,10,3.92s13.31,2.82,13.34,9.15S61.17,63.82,51.88,63.86Z"/><path class="cls-3" d="M84.47,30.09a12.52,12.52,0,0,0-6.28-10.78L48.76,2.48a12.78,12.78,0,0,0-12.43.07L7.09,19.62A12.47,12.47,0,0,0,.9,30.45l.15,33.84A12.49,12.49,0,0,0,7.32,75.07l7,4,12.61,7.09,9.82,5.75a12.4,12.4,0,0,0,6.18,1.64H43a12.47,12.47,0,0,0,6.23-1.69L78.45,74.75a12.53,12.53,0,0,0,6.16-10.82Z"/></g></svg>