<svg xmlns="http://www.w3.org/2000/svg" xmlns:xlink="http://www.w3.org/1999/xlink" viewBox="0 0 80.77 44.77"><defs><style>.cls-1,.cls-8{fill:none;}.cls-2{clip-path:url(#clip-path);}.cls-3{fill:#172065;}.cls-4{fill:#fff;}.cls-5{clip-path:url(#clip-path-2);}.cls-6{fill:#d02d35;}.cls-7{opacity:0.2;}.cls-8{stroke-miterlimit:10;stroke-width:0.77px;opacity:0.3;stroke:url(#New_Gradient_Swatch_6);}</style><clipPath id="clip-path"><path class="cls-1" d="M6.62,40.2l67.76.22a2,2,0,0,0,2-2L76.16,6.56a2,2,0,0,0-2-2L6.38,4.34a2,2,0,0,0-2,2l.21,31.85A2,2,0,0,0,6.62,40.2Z"/></clipPath><clipPath id="clip-path-2"><path class="cls-1" d="M4.39,4.32v9h42v9h-6Zm36,0h-18v21h-18v-3Z"/></clipPath><linearGradient id="New_Gradient_Swatch_6" x1="464.48" y1="2019.61" x2="545" y2="2019.61" gradientTransform="translate(-477.88 -1993.8) rotate(-0.38)" gradientUnits="userSpaceOnUse"><stop offset="0" stop-color="#79589f"/><stop offset="1" stop-color="#79589f"/></linearGradient></defs><title>austrailia</title><g id="Stickers"><g class="cls-2"><path class="cls-3" d="M4.39,4.32h72v36h-72Z"/><path d="M4.39,4.32l36,18m0-18-36,18"/><polygon class="cls-4" points="36.37 22.32 22.39 15.33 5.2 23.93 4.39 22.32 4.39 20.3 18.36 13.32 4.39 6.33 4.39 4.32 8.41 4.32 22.39 11.3 36.37 4.32 40.39 4.32 41.2 5.93 26.41 13.32 40.39 20.3 40.39 22.32 36.37 22.32"/><g class="cls-5"><path d="M4.39,4.32l36,18m0-18-36,18"/><polygon class="cls-6" points="39.85 23.39 22.39 14.66 4.93 23.39 3.85 21.24 19.71 13.32 3.85 5.39 4.93 3.24 22.39 11.97 39.85 3.24 40.93 5.39 25.07 13.32 40.93 21.24 39.85 23.39"/></g><path d="M22.39,4.32v21m-18-12h42"/><polygon class="cls-4" points="25.39 25.32 19.39 25.32 19.39 16.32 4.39 16.32 4.39 10.32 19.39 10.32 19.39 4.32 25.39 4.32 25.39 10.32 46.39 10.32 46.39 16.32 25.39 16.32 25.39 25.32"/><path d="M22.39,4.32v21m-18-12h42"/><polygon class="cls-6" points="24.19 25.32 20.59 25.32 20.59 15.12 4.39 15.12 4.39 11.52 20.59 11.52 20.59 4.32 24.19 4.32 24.19 11.52 46.39 11.52 46.39 15.12 24.19 15.12 24.19 25.32"/><path class="cls-3" d="M4.39,22.32h36v-18h12v24h-48Z"/><g id="c"><g id="a"><path class="cls-4" d="M22.39,25.92l1,3.23L26.61,28l-1.88,2.83,2.92,1.74-3.38.29.46,3.37-2.34-2.46-2.34,2.46.46-3.37-3.38-.29,2.92-1.74L18.17,28l3.18,1.2Z"/></g></g><path class="cls-4" d="M58.39,31.75l.5,1.54,1.51-.58-.9,1.35,1.4.83L59.28,35l.23,1.6-1.12-1.17-1.12,1.17L57.5,35l-1.62-.14,1.4-.83-.9-1.35,1.51.58Z"/><path class="cls-4" d="M49.39,17.5l.5,1.54,1.51-.58-.9,1.35,1.4.83-1.62.14.23,1.6-1.12-1.17-1.12,1.17.23-1.6-1.62-.14,1.4-.83-.9-1.35,1.51.58Z"/><path class="cls-4" d="M58.39,7.75l.5,1.54,1.51-.58-.9,1.35,1.4.83L59.28,11l.23,1.6-1.12-1.17-1.12,1.17L57.5,11l-1.62-.14,1.4-.83-.9-1.35,1.51.58Z"/><path class="cls-4" d="M66.39,15.1l.5,1.54,1.51-.58-.9,1.35,1.4.83-1.62.14.23,1.6-1.12-1.17L65.27,20l.23-1.6-1.62-.14,1.4-.83-.9-1.35,1.51.58Z"/><g id="d"><path class="cls-4" d="M62,22.32l.39,1,1,.07-.8.67.25,1L62,24.48l-.88.55.25-1-.8-.67,1-.07Z"/></g><g class="cls-7"><path d="M4.39,4.32h72v36h-72Z"/></g></g><path class="cls-8" d="M76.68.38,3.79.79A3.43,3.43,0,0,0,.38,4.21L.63,41a3.41,3.41,0,0,0,3.46,3.37L77,44a3.4,3.4,0,0,0,3.41-3.41L80.13,3.75c0-1.87-2-3.38-3.85-3.37Z"/></g></svg>