<svg xmlns="http://www.w3.org/2000/svg" xmlns:xlink="http://www.w3.org/1999/xlink" viewBox="0 0 68.76 44.76"><defs><style>.cls-1,.cls-2{fill:none;}.cls-2{stroke-miterlimit:10;stroke-width:0.76px;opacity:0.3;stroke:url(#New_Gradient_Swatch_6);}.cls-3{clip-path:url(#clip-path);}.cls-4{fill:#ca2b1d;}.cls-5{fill:#f6cf46;}.cls-6{opacity:0.2;}</style><linearGradient id="New_Gradient_Swatch_6" x1="464.82" y1="2020.4" x2="533.33" y2="2020.4" gradientTransform="translate(-478.22 -1994.63) rotate(-0.38)" gradientUnits="userSpaceOnUse"><stop offset="0" stop-color="#79589f"/><stop offset="1" stop-color="#79589f"/></linearGradient><clipPath id="clip-path"><path class="cls-1" d="M6.54,40.38,62,40a2,2,0,0,0,2-2L63.71,6.35a2,2,0,0,0-2-2l-55.4.37a2,2,0,0,0-2,2l.21,31.66A2,2,0,0,0,6.54,40.38Z"/></clipPath></defs><title>germany</title><g id="Stickers"><path class="cls-2" d="M64.74.38,3.73.79A3.38,3.38,0,0,0,.38,4.21L.63,41A3.38,3.38,0,0,0,4,44.38L65,44a3.38,3.38,0,0,0,3.35-3.42l-.25-36.8A3.38,3.38,0,0,0,64.74.38Z"/><g class="cls-3"><rect id="black_stripe" data-name="black stripe" x="4.13" y="4.38" width="60" height="36"/><rect id="red_stripe" data-name="red stripe" class="cls-4" x="4.13" y="16.38" width="60" height="24"/><rect id="gold_stripe" data-name="gold stripe" class="cls-5" x="4.13" y="28.38" width="60" height="12"/><rect id="gold_stripe-2" data-name="gold stripe" class="cls-6" x="4.13" y="4.38" width="60" height="36"/></g></g></svg>