<svg xmlns="http://www.w3.org/2000/svg" xmlns:xlink="http://www.w3.org/1999/xlink" viewBox="0 0 68.76 44.76"><defs><style>.cls-1,.cls-2{fill:none;}.cls-2{stroke-miterlimit:10;stroke-width:0.76px;opacity:0.3;stroke:url(#New_Gradient_Swatch_6);}.cls-3{clip-path:url(#clip-path);}.cls-4{fill:#4d2b9c;}.cls-5{fill:#fff;}</style><linearGradient id="New_Gradient_Swatch_6" x1="464.13" y1="2020.36" x2="532.65" y2="2020.36" gradientTransform="translate(-477.54 -1994.6) rotate(-0.38)" gradientUnits="userSpaceOnUse"><stop offset="0" stop-color="#79589f"/><stop offset="1" stop-color="#79589f"/></linearGradient><clipPath id="clip-path"><path class="cls-1" d="M7,40.38,62.39,40a2,2,0,0,0,2-2L64.15,6.35a2,2,0,0,0-2-2L6.74,4.75a2,2,0,0,0-2,2L5,38.41A2,2,0,0,0,7,40.38Z"/></clipPath></defs><title>heroku</title><g id="Stickers"><path class="cls-2" d="M64.74.38,3.73.79A3.38,3.38,0,0,0,.38,4.21L.63,41A3.38,3.38,0,0,0,4,44.38L65,44a3.38,3.38,0,0,0,3.35-3.42l-.25-36.8A3.38,3.38,0,0,0,64.74.38Z"/><g class="cls-3"><path class="cls-4" d="M4.57,40.38h60v-36h-60Z"/><path class="cls-5" d="M40,13.11H29.19a1.34,1.34,0,0,0-1.35,1.35V26.71a1.34,1.34,0,0,0,1.35,1.35H40a1.34,1.34,0,0,0,1.34-1.35V14.46A1.34,1.34,0,0,0,40,13.11Zm.59,13.6a.59.59,0,0,1-.59.6H29.19a.6.6,0,0,1-.6-.6V14.46a.6.6,0,0,1,.6-.6H40a.59.59,0,0,1,.59.6Z"/><polygon class="cls-5" points="31.2 25.82 32.88 24.32 31.2 22.83 31.2 25.82"/><path class="cls-5" d="M37.28,19.76a2.39,2.39,0,0,0-1.78-.67,9.2,9.2,0,0,0-2.8.51V15.35H31.2v6.49l1.06-.48a9.33,9.33,0,0,1,3.24-.77c.76,0,.93.41.93.76v4.47h1.5V21.33A2.35,2.35,0,0,0,37.28,19.76Z"/><path class="cls-5" d="M35.31,17.78h1.5a4.39,4.39,0,0,0,1.12-2.43h-1.5A5.7,5.7,0,0,1,35.31,17.78Z"/><path class="cls-5" d="M27.84,29.57h.55v.76h.68v-.76h.55v2h-.55v-.82h-.68v.82h-.55Z"/><path class="cls-5" d="M30.33,29.57h1.45V30h-.9v.33h.64v.43h-.64v.38h.95v.44h-1.5Z"/><path class="cls-5" d="M32.43,29.57h.8c.52,0,.84.18.84.67a.55.55,0,0,1-.4.59l.43.78h-.58l-.39-.71H33v.71h-.54Zm.78.91c.23,0,.33-.06.33-.23s-.1-.23-.33-.23H33v.46Z"/><path class="cls-5" d="M34.65,30.59a1,1,0,1,1,1,1.06A1,1,0,0,1,34.65,30.59Zm1.45,0c0-.37-.16-.6-.45-.6s-.45.23-.45.6.16.62.45.62S36.1,31,36.1,30.59Z"/><path class="cls-5" d="M37.26,29.57h.55v.74l.56-.74H39l-.68.81.74,1.23h-.62L38,30.79l-.16.19v.63h-.55Z"/><path class="cls-5" d="M39.58,30.79V29.57h.55v1.22c0,.28.09.41.31.41s.31-.13.31-.41V29.57h.54v1.22a.86.86,0,0,1-1.71,0Z"/></g></g></svg>