<svg xmlns="http://www.w3.org/2000/svg" xmlns:xlink="http://www.w3.org/1999/xlink" viewBox="0 0 80.77 44.77"><defs><style>.cls-1,.cls-2{fill:none;}.cls-2{stroke-miterlimit:10;stroke-width:0.77px;opacity:0.3;stroke:url(#New_Gradient_Swatch_6);}.cls-3{clip-path:url(#clip-path);}.cls-4{fill:#489867;}.cls-5{fill:#fff;}.cls-6{fill:#ee8d4f;}.cls-7{opacity:0.2;}</style><linearGradient id="New_Gradient_Swatch_6" x1="464.84" y1="2019.6" x2="545.36" y2="2019.6" gradientTransform="translate(-478.25 -1993.79) rotate(-0.38)" gradientUnits="userSpaceOnUse"><stop offset="0" stop-color="#79589f"/><stop offset="1" stop-color="#79589f"/></linearGradient><clipPath id="clip-path"><path class="cls-1" d="M6.62,40.2l67.76.22a2,2,0,0,0,2-2L76.16,6.56a2,2,0,0,0-2-2L6.38,4.34a2,2,0,0,0-2,2l.21,31.85A2,2,0,0,0,6.62,40.2Z"/></clipPath></defs><title>Artboard 55</title><g id="Stickers"><path class="cls-2" d="M76.68.38,3.79.79A3.43,3.43,0,0,0,.38,4.21L.63,41a3.41,3.41,0,0,0,3.46,3.37L77,44a3.4,3.4,0,0,0,3.41-3.41L80.13,3.75c0-1.87-2-3.38-3.85-3.37Z"/><g class="cls-3"><rect class="cls-4" x="4.38" y="4.38" width="72" height="36"/><rect class="cls-5" x="28.38" y="4.38" width="48" height="36"/><rect class="cls-6" x="52.38" y="4.38" width="24" height="36"/><rect class="cls-7" x="4.38" y="4.38" width="72" height="36"/></g></g></svg>