<svg xmlns="http://www.w3.org/2000/svg" xmlns:xlink="http://www.w3.org/1999/xlink" viewBox="0 0 62.76 44.76"><defs><style>.cls-1,.cls-2{fill:none;}.cls-2{stroke-miterlimit:10;stroke-width:0.76px;opacity:0.3;stroke:url(#New_Gradient_Swatch_6);}.cls-3{clip-path:url(#clip-path);}.cls-4{fill:#fff;}.cls-5{fill:#ab2332;}.cls-6{opacity:0.2;}</style><linearGradient id="New_Gradient_Swatch_6" x1="464.48" y1="2020.36" x2="527" y2="2020.36" gradientTransform="translate(-477.89 -1994.61) rotate(-0.38)" gradientUnits="userSpaceOnUse"><stop offset="0" stop-color="#79589f"/><stop offset="1" stop-color="#79589f"/></linearGradient><clipPath id="clip-path"><path class="cls-1" d="M6.54,40.38l50-.37a2,2,0,0,0,2-2L58.31,6.35a2,2,0,0,0-2-2l-50,.37a2,2,0,0,0-2,2l.22,31.66A2,2,0,0,0,6.54,40.38Z"/></clipPath></defs><title>japan</title><g id="Stickers"><path class="cls-2" d="M58.74.38,3.73.79A3.38,3.38,0,0,0,.38,4.21L.63,41A3.38,3.38,0,0,0,4,44.38L59,44a3.38,3.38,0,0,0,3.35-3.42l-.25-36.8A3.38,3.38,0,0,0,58.74.38Z"/><g class="cls-3"><rect class="cls-4" x="4.38" y="4.38" width="54" height="36"/><circle class="cls-5" cx="31.38" cy="22.38" r="10.8"/><rect class="cls-6" x="4.38" y="4.38" width="54" height="36"/></g></g></svg>