<svg xmlns="http://www.w3.org/2000/svg" xmlns:xlink="http://www.w3.org/1999/xlink" viewBox="0 0 68.76 44.76"><defs><style>.cls-1{fill:#0d2980;}.cls-2{fill:#faea50;}.cls-3{fill:none;stroke-miterlimit:10;stroke-width:0.76px;opacity:0.3;stroke:url(#New_Gradient_Swatch_6);}</style><linearGradient id="New_Gradient_Swatch_6" x1="465.22" y1="2020.41" x2="533.73" y2="2020.41" gradientTransform="translate(-478.63 -1994.64) rotate(-0.38)" gradientUnits="userSpaceOnUse"><stop offset="0" stop-color="#79589f"/><stop offset="1" stop-color="#79589f"/></linearGradient></defs><title>oregon</title><g id="Stickers"><path class="cls-1" d="M6.71,39.8l55.4-.37a2,2,0,0,0,2-2L63.87,5.77a2,2,0,0,0-2-2l-55.4.37a2,2,0,0,0-2,2l.22,31.65A2,2,0,0,0,6.71,39.8Z"/><path class="cls-2" d="M26.5,16.39c.15.2.37-.08.55-.13.23-.21.61-.32.83-.62l0-.09h0s-.1,0-.13,0h0v0h0c0-.06.13-.05.17-.09h0a3.06,3.06,0,0,0,.86-.59l.4-.33h.07a5.35,5.35,0,0,1-1.27.94v.1c.12,0,.22-.1.35-.12a6.66,6.66,0,0,1,.74-.48s0,.07,0,.1a.89.89,0,0,1-.25.14l0,0,0,0h0a.24.24,0,0,0-.09,0v0a.84.84,0,0,1-.36.25c-.09,0-.17.11-.25.12l0,0,0,0h0c-.13.45-.64.53-1,.81h0a.13.13,0,0,0,.09.14h.15c.36-.25.76-.54,1.11-.84a.27.27,0,0,1,.16-.06l0,0h0c0,.06-.13.07-.16.11a5.17,5.17,0,0,1-1,.77h0s0,0,.07,0c.4-.06.64-.44,1-.63s.57-.48.84-.75c0,0,.05,0,.06,0h0l0,0h0l0,0h0v0a6.42,6.42,0,0,0-.69.58c-.19.16-.44.32-.62.5.16.14.35-.08.54-.07a.5.5,0,0,1,.28-.29l0,0a1.15,1.15,0,0,0-.19.26.24.24,0,0,0,.27-.11c.38-.28.44-.78.84-1,.07.18-.19.19-.19.35a1.51,1.51,0,0,0-.25.42l0,0-.13.18a.23.23,0,0,0,.2.1c.2-.19.28-.42.49-.63l0,0h0v0a.78.78,0,0,0-.21.3c.24.11.3-.23.43-.35a1.86,1.86,0,0,1,.29-.54h0l0,0h0a2.27,2.27,0,0,0-.27.54h0s.05.07.09.09h.07l.18-.27h0a.17.17,0,0,1,0,.07h0c0,.05-.06.09-.08.13h0l0,0a.36.36,0,0,0,.27-.24l0,0h0c0,.07-.08.21-.08.26h0a.3.3,0,0,0,.13,0h0v0H31l0,0h0v0A.14.14,0,0,1,31,16l0,0c.1.13.27.09.37.22l.08-.14h.05v0h0a.25.25,0,0,0,0,.07h0a.14.14,0,0,0,.07.08h0a.24.24,0,0,0,.09,0h0a0,0,0,0,0,0,0,.15.15,0,0,1,0,.07s.05.05.08.06,0,0,.06,0,.08-.13.14-.14h0c0,.09,0,.2,0,.27h.06l.06,0h0v0h0l0,0h0l.11.06a1.68,1.68,0,0,0,.13-.5.23.23,0,0,0,.08-.11v0h0c-.05-.11-.31-.13-.37-.23h0a4.35,4.35,0,0,1-1-.92h0s0-.11-.07-.15c-.22.35-.64.23-1,.24a1.11,1.11,0,0,1-.79-.69v-.12h.06s0,.09,0,.13h0c.06,0,.05.14.12.16h0a1.45,1.45,0,0,1,.16-.18c.14.14-.27.26,0,.36l.18-.23.07.07a.53.53,0,0,0-.13.23.7.7,0,0,1,.16.1,1.22,1.22,0,0,1,.22-.44c.1.1-.08.23-.1.35s0,0-.06.07h0c.26,0,.58.16.72-.21l0,0h0v0a.31.31,0,0,1,0,.08l-.08.06c.23.1.28-.19.43-.3.07.06.06.18.11.26a3.72,3.72,0,0,0,1.32,1.12,1.43,1.43,0,0,0,.21-.43.53.53,0,0,1,.39-.06.81.81,0,0,1,.29.32,1.84,1.84,0,0,1,0,.62.6.6,0,0,0,.47,0c0-.24-.21-.64.1-.79a1.39,1.39,0,0,1,.5,0,1.29,1.29,0,0,0-.17-.77.1.1,0,0,1,0-.1l0,0c.06,0,.16,0,.22-.06h0c.52-.12,1.14-.33,1.33-.89h0c0,.56-.67.75-1.09.91a1.65,1.65,0,0,0-.46.14.76.76,0,0,0,.1.3,2.1,2.1,0,0,0,.79-.37.27.27,0,0,0,.17-.1c.31-.07.51-.48.83-.48.1,0,.2.17.32.13a.63.63,0,0,0,.64-.21s0,0,0,0,.1,0,.15,0a2.36,2.36,0,0,0,.65.37h.12a3,3,0,0,0-1.76-.83c-.74-.18-1.06.93-1.81.77-.17,0-.46,0-.55-.18a.64.64,0,0,1-.67.2c-.15-.11-.32-.18-.47-.3-.15.12-.31.27-.53.19-.56-.15-1-.73-1.6-.71h0a2.57,2.57,0,0,0-1.38.53c0,.11.13.1.22.07l0,0c.06,0,.14-.07.22-.11v0h0c.06,0,.17,0,.22-.07l0,0a1.84,1.84,0,0,1,1.22-.14v.09a1.51,1.51,0,0,0-1.19.17,1.33,1.33,0,0,0,1,.32l.27-.12c.14.54.73.77,1.18.94a.85.85,0,0,0,.1-.33c-.11-.13-.31-.13-.39-.27a.59.59,0,0,1,.45.22.4.4,0,0,1-.08.38.12.12,0,0,0,.14,0h0l.64-.52h0a.09.09,0,0,1,.13,0h0c.21.26.55.33.78.57l0,0h0s-.1-.06-.16-.09c-.22-.19-.48-.29-.71-.48-.19.24-.45.33-.67.54a2.34,2.34,0,0,1-1.21-.55,1.54,1.54,0,0,1-.23-.39c-.09,0-.17.08-.26.09a1.43,1.43,0,0,1-1.08-.37c-.25,0-.53.42-.78.11h0C28.37,14.85,27.19,15.39,26.5,16.39Zm5.67-2h0c-.07,0-.12-.1-.18-.14l0-.06h0a.48.48,0,0,1,.27.21Z"/><path class="cls-2" d="M33,13.89h0a0,0,0,0,1,.05,0h0a.3.3,0,0,0,.19.07h0a.12.12,0,0,0,0-.08h.07s0,0,0,0,0,.12,0,.16h.1c.23.07.35-.1.51-.22s-.21-.41-.1-.64.23-.05.38-.1l0,.07h0a.06.06,0,0,0,.07,0,.28.28,0,0,0-.1-.33A.29.29,0,0,0,34,13s0,0-.07,0h0s-.06-.11-.09-.13h0l-.1,0h-.09l-.24.05c-.27.09-.3.42-.32.68s-.1.21-.11.3Zm.65-.83h0s.09,0,.13.07-.06.09-.08.12a.14.14,0,0,1-.09-.16Z"/><path class="cls-2" d="M39.67,15.29a16.53,16.53,0,0,1-1.4-.9c-.29.07-.51-.14-.75-.24h0c-.11,0-.12-.18-.25-.11s0,.18.09.26a9,9,0,0,0,.81.56c.18.14.4.05.61.13.54.39,1.11.56,1.64.94C40.24,15.64,39.9,15.55,39.67,15.29Z"/><path class="cls-2" d="M36.37,14.21a.21.21,0,0,0-.19-.08.69.69,0,0,0-.24.21,6.64,6.64,0,0,1-1.41.76,2.3,2.3,0,0,0,.2.8c.14,0,.22-.09.33-.11C35.52,15.36,36.33,14.91,36.37,14.21Z"/><path class="cls-2" d="M39.38,15.44c-.27-.08-.48-.41-.78-.37a.05.05,0,0,0,0,0c-.25.15-.59-.19-.85-.3,0-.06-.05,0-.08,0l0,0c0,.11.1.26.19.37s.31.18.24.33a1.3,1.3,0,0,1-.51-.58c-.06,0-.09,0-.14,0s-.22.06-.28-.06-.13.12-.24.09c-.15-.24-.23.16-.37,0s-.36.12-.29-.11l.19,0c.18.12.21-.13.4-.07s.21-.06.31-.08.07,0,.05.1c.15,0,.28,0,.39-.09h0c-.16-.19-.46-.26-.5-.51a.94.94,0,0,1-.68.09,1.53,1.53,0,0,1-.55.91c-.36.3-.66.75-1.14.83-.06.13,0,.29.05.45s.11.08.09.16.08-.1.14-.13.11,0,.17,0,0-.11.06-.15a.28.28,0,0,1,.22,0v-.22c.12-.08.09.1.17.12s0-.24.13-.25c0,.12.1.08.17.13s0-.21.12-.27.06.07.06.12h0c.07-.23.4-.1.51-.3.14,0,.18.15.27.21.06-.13,0-.33,0-.48H37a1.2,1.2,0,0,1,.11.48c.17.09.26.28.44.28l0,0c0-.21-.21-.39-.24-.62,0,0,0,0,.07,0,0,.23.23.38.28.63.24.06.4.32.63.41,0,0,0-.06,0-.07a2.59,2.59,0,0,1-.66-.89.07.07,0,0,1,.08,0,2.34,2.34,0,0,0,.62.79s.05,0,.06,0l.31.29s.08-.06.12-.09c-.16-.21-.47-.45-.54-.68,0,0,0,0,.06,0a6.19,6.19,0,0,0,.73.8c.11,0,.28.1.37,0a.66.66,0,0,1,.41.16s0-.07,0-.1a6.66,6.66,0,0,1-1.49-1.28v0s0,0,.08-.05c.18.37.57.52.83.85a2.26,2.26,0,0,0,.84.49c.11.08.15-.05.19-.11a13.26,13.26,0,0,0-1.12-.8s-.1-.1,0-.14c.43.26.83.56,1.25.87h.06c.06,0,.06-.11.06-.17a.75.75,0,0,0-.48-.41C39.81,15.68,39.59,15.58,39.38,15.44Z"/><path class="cls-2" d="M32.43,17a.7.7,0,0,1,.22-.4c.1.15-.12.28-.14.43a.51.51,0,0,0,.2,0s0-.09,0-.12,0,.11.09.16c.32.15.11-.26.27-.29s0,.18,0,.26h.1a11.2,11.2,0,0,0,.15-1.34.51.51,0,0,0-.38-.3c0,.06-.06.1-.09.06a.25.25,0,0,0-.17.16c0,.09-.09.18-.08.25l0,0v0c-.18.33-.09.71-.25,1.05Z"/><polygon class="cls-2" points="33.36 15.78 33.36 15.78 33.36 15.78 33.36 15.78"/><path class="cls-2" d="M34.16,15.59H34c-.1,0-.11.13-.11.21.11.44,0,.9.18,1.33l0,0h0c.05,0,.12,0,.18,0l0-.06c0-.09-.08-.21,0-.29a0,0,0,0,0,0,0,.11.11,0,0,1,.06,0,1.11,1.11,0,0,1,.08.41L34.9,17c0-.09,0-.23-.08-.33l0,0h0c-.24-.31-.09-.72-.36-1A1.83,1.83,0,0,0,34.16,15.59Zm.42,1.3h0a0,0,0,0,1,0,0c.07,0,.06.13.08.21h-.06c0-.06-.07-.13-.06-.18Z"/><path class="cls-2" d="M33.39,16.44a6,6,0,0,0-.07.66c.13.07,0,.21.08.3h.14v-.1s.05-.09.1-.11,0,.14,0,.2.21.12.33.07.09-.08.06-.14a1.73,1.73,0,0,1-.19-.84C33.73,16.41,33.52,16.52,33.39,16.44Z"/><path class="cls-2" d="M33.15,17.42h.14l0-.21s-.07.07-.13.05Z"/><path class="cls-2" d="M40.53,17.27A1.56,1.56,0,0,0,38.92,17a1.94,1.94,0,0,0-.65.49H35.56a2.1,2.1,0,0,1,1.16-.35h0l0,0h0c-.47-.15-.76.14-1.23.15a.24.24,0,0,0-.06-.08h0c.35-.12.61-.42,1-.42a1.12,1.12,0,0,0,.51-.23.48.48,0,0,0-.29,0c-.14.09-.33.29-.49.16,0-.14.25-.17.33-.29h-.07l0,0a4.52,4.52,0,0,1-1.23.75,4.32,4.32,0,0,1-1.07.21h0v.07l0,0,0,0-.08.06h-.9a.14.14,0,0,1-.13-.13l-.07-.08a3,3,0,0,1-.71-.2L32,17c-.12-.05-.29-.09-.26-.27h0s-.06.06-.08.07h-.07c0-.06,0-.18-.14-.22h0c0,.05,0,.12-.07.16a1.14,1.14,0,0,1-.39-.27s0,0,0,.05a.26.26,0,0,1,0,.12c-.16-.06-.15-.26-.36-.25a.45.45,0,0,0,0,.16h-.07c-.07,0-.15-.12-.24-.14h0l0,0c-.07.07,0,.14-.06.2s-.25-.17-.38-.08,0,.24-.07.35l0,0h0c.06,0,.1-.13.16-.15s.14-.1.21-.12a.1.1,0,0,1,.09,0,.12.12,0,0,1,0,.1c0,.06-.09.1-.12.15h0a.19.19,0,0,0,.15,0h0c.07-.06.08-.22.14-.29h0a.24.24,0,0,1,.18.05h0v0c0,.07-.06.13-.06.18h0l.06,0c.07-.09.12-.2.24-.23s.06.12,0,.17l0,0h0c.17.11.25-.26.47-.1,0,.1,0,.16,0,.23s.23-.16.37-.09h0c.05.05.07.21.13.25h0s.06,0,.11-.05.33.16.5.05.21,0,.35.21h-4a1.18,1.18,0,0,0-.75-.6,1.32,1.32,0,0,0-1,.15A2.41,2.41,0,0,0,26,18.69a5.41,5.41,0,0,0-.21,2.41,11.6,11.6,0,0,0,1.84,4.73,11.73,11.73,0,0,0,3.48,3.36,28,28,0,0,0,2.73,1.11h.08a10.14,10.14,0,0,0,4.54-2.75,10.8,10.8,0,0,0,2.74-4.12l.05-.11a6.22,6.22,0,0,0,.47-3.18C41.64,19.6,41.36,17.83,40.53,17.27Zm-.29.16-2.57,2,2.18-2.15A1.73,1.73,0,0,1,40.24,17.43ZM39,17.25a1.11,1.11,0,0,1,.62-.07l-2.16,2.14,1.43-2,0,0Zm-.69.52h.05l-1.7,2.35.13.12.06-.06,0,0,3.51-2.68,0,0a1.48,1.48,0,0,1,.37.41l-.93.55,0-.06s-.17-.05-.24,0h0c-.07.07-.66.56-1,.82l-1.65,1,.07.12,0,0,.08.16,0,0,.06.14.79-.32a1.56,1.56,0,0,0-.07.14s0,0,.08.05h0a.63.63,0,0,1,.32-.06.21.21,0,0,1,.12.09h-.2a1,1,0,0,0-.45.2,1.5,1.5,0,0,1-.29.17l-.06,0,.42-.31s-.09-.07-.13,0h0s-.32.15-.44.21a1.09,1.09,0,0,0-.22.17v0s-.41-.66-1-.67-.94.65-1,.69l-1.16-.18,0,.13-.67,0,.33-.11,0,.06.2-.06-1.07-.27-.1.27-.3,0-.05-.47,1.51.42,0-.06.77.25.06-.17h0l.05-.14-2.49-1,0-.24,2.65,1.13,0-.11h0l0-.07,0,0,.09-.1,0,0,.14-.12-2.18-2.39h.33l1.86,2.34.15-.11-1.78-2.23h.43L35.46,20l.16-.08v0l.18,0-.53-2.09h.44l.09,2.16H36l-.08-2.15h.29L36,19.91h.18l.18-2.15h.3L36.2,20l.18,0h0l.09,0,.85-2.24h.62l-1.47,2.29.16.1,1.53-2.39Zm2.25,2,.11-.2h.07l-.18.37h.11c.06,0,.07.11.08.12s0,.22,0,.39a.3.3,0,0,1,0,.1s0,0,0,0h0l0,0h-.06l.11.1c.06,0,.07.18.07.51a.41.41,0,0,1-.22.42l-.23-.46.18-.09-.25-.46.24-.12a1.57,1.57,0,0,0-.15-.25c-.09-.12,0-.38,0-.38a.27.27,0,0,0,0-.23.18.18,0,0,1,0-.21h0a.48.48,0,0,1,0-.21v0h0a.46.46,0,0,0-.13-.2l.16.07c.06,0,.06.13.06.26a.61.61,0,0,1,0,.23Zm-.64,2.74.06-.44.14,0s0,.18,0,.24a2.66,2.66,0,0,1-.11.36Zm.11.49-.07.49-.08,0V23Zm-.11-1.69.18-.08,0,.23-.09.24,0-.06Zm.16-.53a2.49,2.49,0,0,1,0,.29H40L40,20.81l0-.11a3.66,3.66,0,0,0,0-.38,1.26,1.26,0,0,0-.09-.35,4.26,4.26,0,0,0-.58.14l-.3.12,0-.09s.66-.25.71-.28a.45.45,0,0,1,.17,0l.09-.37s-.11-.1-.11-.15h0a.89.89,0,0,1,.24-.17l-.07.12.14.15a.89.89,0,0,0,0,.35h0a.37.37,0,0,1,.1.47A1.06,1.06,0,0,0,40.1,20.8Zm-.52,1.52.07.12-.06.23H39.5V22.4Zm0-.17v-.26l.09-.2.09.19-.07.19Zm.08.66.06.14-.05.07H39.5Zm-.09.44.2.06,0,.06-.23.23-.06,0,0-.25Zm.14-2.14a.25.25,0,0,0,0,.25l0,.17H39.6v-.1a.22.22,0,0,0-.05-.16h0c-.05,0-.12,0-.16,0h0a.74.74,0,0,1-.18-.09l-.11.05h0s-.13-.08-.17-.16a1.56,1.56,0,0,1-.09-.34l-.08,0-.08-.07.32-.26,0,.12-.09.1a1.64,1.64,0,0,0,0,.25.27.27,0,0,0,.18.2l.14-.11.11.15.21,0,.08-.2a1.78,1.78,0,0,1-.43-.24l0,0a.25.25,0,0,1,.08-.26.5.5,0,0,1,.11-.1h.09a.23.23,0,0,1,0,.11l-.11.23.07.06.21.1.07-.33.1-.05a1.46,1.46,0,0,1,0,.2A2.07,2.07,0,0,1,39.69,21.11Zm-1.68-1,0-.07-.7.29.92-.5C38.16,19.94,38.08,20.05,38,20.15Zm.16-.47-.19.11.33-.2v0Zm1.86-1h0a.17.17,0,0,0-.06-.06l.89-.53.09.18-.86.44ZM32.2,20.75H32l0-.57.22.06Zm-1.48.16-.41-.05-.18-.8.58.17Zm-1.51,0h0l.15-.2v-.41l.08,0v-.08h-.39l-.05.22.12,0-.1.17-.17,0,0-.87.21-.06v-.14l-.47,0,0,1.11h-.39l0-.52.24,0v-.76l-.23,0v-.2l.18,0v0l1.36.38-.32,0V20l.39.06.21.9L30,21v0Zm-1.14-1.68v.17l-.43,0v.44h-.14V19l.1-.08.26.08v0l0,.13Zm-.78,1.52-.19,0v-.81h.11ZM27,18.92l-.12.26L26.2,19a2.27,2.27,0,0,1,.06-.25.75.75,0,0,1,0-.16l.83.23Zm-.11,1.74-.17-.15.12-.43h0Zm5.22-.79-1.24-.41,0-.22,1.25.5Zm.13-.07,1.78.7-1.76-.59Zm-.68.07-.66-.18v0Zm-1.48.07-.07-.3.66.18V20l-.57-.17Zm.83-.05.33.09L31,20Zm-.25-.26L28.44,19v-.17l2.25.75Zm-2.64-.77,0,0-.62-.18,0-.23.7.23Zm-1-.24h.15v0Zm.15-.13L27,18.6l-.64-.17c0-.09.07-.17.1-.25l.77.25Zm.2,2,.09,0v.07h.35l0-.48.19,0v.67h-.64Zm4.19-.16-.42-.12.28,0,0-.14.17.05Zm0,.19v.14h-.34l-.23.21,0-.53Zm2.94-2.73.5,1.19-.76-1.19Zm.2,0h.33l.52,2Zm-2.62.78a.39.39,0,0,0,0-.17l2.18,1.46-2.19-1.24Zm1.77.78-2.34-1.56h.64Zm-1.44-1.56h.38l1.88,2.07Zm-.41.55h0a.05.05,0,0,0,0,0c0,.06.05.16.06.18l-1.38-.79h.62l0,0Zm0,.45,0,.33L29,17.75h1.38v0Zm.09.06,2.24,1.26-2.2-.94Zm4.71-1.05h.26l-.61,1.59Zm-2-.37H35l0,0s0,0,0,0a.33.33,0,0,1-.22,0h0a0,0,0,0,1,0,0Zm-.62.07h0l.12-.06h.06s0,0,0,0h0a.08.08,0,0,1-.07,0H34.3Zm-6.21-.32c.22,0,.43.29.54.45l-1.05-.44a.69.69,0,0,1,.2,0Zm-.8.12.09,0v0l4.75,2,0,.24L30.86,19V18.9h-.17V19L27,17.49A2.68,2.68,0,0,1,27.27,17.27Zm-.46.37,3.87,1.53v.21l-2.44-.8v0h-.13L26.55,18A1.6,1.6,0,0,1,26.81,17.64Zm-.65,1.55.71.17v.25l-.65.61.59.69-.77,0A5.07,5.07,0,0,1,26.16,19.19Zm.4,1v.14l-.09-.09Zm2.1,3.21h0a.05.05,0,0,1,0,0,.06.06,0,0,1,0-.06s.53-.14.67-.14a.71.71,0,0,1,.23.05s.07,0,.08,0l.34-.09c.12,0,.87.05,1,.05a.05.05,0,0,1,0,.05,0,0,0,0,1-.05,0,6.28,6.28,0,0,0-.93-.06l-.33.09a.25.25,0,0,1-.14,0,.65.65,0,0,0-.2-.05A4.38,4.38,0,0,0,28.66,23.43Zm.25.38a.31.31,0,0,1-.06.12l0,0h-.05s0-.11,0-.14h.11Zm3,1-.13.62-.54,0,.3-1,0,.21Zm-.27-1.47a.07.07,0,0,1,0-.05h.2a0,0,0,0,1,0,.09l-.2,0h0A0,0,0,0,1,31.61,23.32Zm2.57-.09a.09.09,0,0,0,.07,0l.08,0a.24.24,0,0,1,.24-.1h.08c.17,0,.32,0,.33.22s0,.25,0,.25a0,0,0,0,1,0,.05h0a0,0,0,0,1-.05-.05s0-.06,0-.24-.07-.13-.25-.13h-.07c-.16,0-.18.1-.18.11v.23a0,0,0,0,1,0,0,0,0,0,0,1-.05,0v-.23s0,0-.09-.06l-.07,0a1.77,1.77,0,0,0-.33-.08s0,0,0-.05,0-.05,0,0A1.64,1.64,0,0,1,34.18,23.23Zm-.33-1.14s0-.05,0-.05a.05.05,0,0,1,0,0L34,23S34,23,34,23h0a.05.05,0,0,1-.05,0Zm1.07,1.1,0-.8a0,0,0,0,1,0,0s.05,0,0,0l0,.79a0,0,0,0,1,0,0h0A.05.05,0,0,1,34.92,23.19Zm3.14.68,0,.41s-.11-.18-.23-.22a1.75,1.75,0,0,0-.64-.06.76.76,0,0,0-.59.42l-.08,0,.09-.4-2,.08a1.24,1.24,0,0,1,.33.19,1.47,1.47,0,0,1,.31.44l0,.06H36a.9.9,0,0,0,0,.41,2,2,0,0,0,.19.3H34.86a1.8,1.8,0,0,0,.27-.38c0-.11.08-.34.08-.34a.54.54,0,0,1-.09-.16,1.07,1.07,0,0,0-.28-.32h0A2.9,2.9,0,0,0,34,24.1L33.81,24Zm-2.86-.21a.05.05,0,0,1,0,.05h0a0,0,0,0,1,0,0,.41.41,0,0,1,0-.3.19.19,0,0,1,.16-.07c.3,0,.5,0,.52.15l0,.22h-.09l0-.21s-.09-.08-.43-.08a.1.1,0,0,0-.09,0A.32.32,0,0,0,35.2,23.66Zm.7-.83,0-.49a0,0,0,0,1,.09,0l0,.49a0,0,0,0,1-.05,0h0S35.9,22.86,35.9,22.83Zm.48.84a.5.5,0,0,1,.1-.31.27.27,0,0,1,.17-.06.05.05,0,0,1,.05.05s0,0-.05,0a.12.12,0,0,0-.1,0,.35.35,0,0,0-.08.24,0,0,0,0,1,0,0h0A0,0,0,0,1,36.38,23.67Zm.34-.65.09-.78s0,0,0,0,0,0,0,.05l-.09.78a0,0,0,0,1,0,0h0A0,0,0,0,1,36.72,23Zm.5.61a0,0,0,0,1,0,.06h0l0,0a.51.51,0,0,1-.06-.22c0-.16.19-.23.31-.25a0,0,0,0,1,.06,0,.07.07,0,0,1,0,.06c-.06,0-.25.06-.24.15A.94.94,0,0,0,37.22,23.63Zm.58-.35.24-.06a0,0,0,0,1,.06,0,.05.05,0,0,1,0,.06l-.24.06s-.12.16-.15.26,0,0,0,0h0a.05.05,0,0,1,0-.06S37.67,23.32,37.8,23.28Zm-.17-.14.24-.72a0,0,0,0,1,.06,0s0,0,0,.05l-.24.72s0,0,0,0h0A0,0,0,0,1,37.63,23.14Zm0,1.59,0-.15.25,0,0,.11Zm.17.12,0,.08-.13,0v-.07Zm-.59.42.07,0v.15h-.14Zm-.16-1.07.18-.05,0,.29-.14,0Zm.22.61v0a.14.14,0,0,1,0-.07h0s0,0,0,0h.06l0,0h0a.17.17,0,0,1,0,.07v0a.08.08,0,0,1,0,0h-.13S37.3,24.82,37.29,24.81Zm.1-.35,0-.32.08.07-.06.26Zm.14.55.09.26-.16.07,0-.3Zm0-.54.1-.23.08.09-.12.17Zm-.58.17v.11l-.21.08,0-.32Zm-.19-.22.12-.19.11.22,0,.06Zm.19.48L37,25l-.2.14L36.75,25Zm.08.31v.18l-.11,0Zm-.76-.77-.06-.17,0-.11.1,0Zm.12.45,0,.13-.08.06v-.19Zm-.56-.47,0,.09h-.4v-.11Zm-.32-.09v-.16l0-.1.07.1v.15Zm-1.1.3v-.08l.06-.26.13.13-.09.21Zm.1.66-.11,0v-.21h.07Zm.13-.69h.09l0,.23H34.6l0-.07Zm-.09.35.22,0,0,.13-.2-.05Zm-.53-.55.09-.13h.13l0,.29Zm0,.23-.08.13-.15,0,.09-.23Zm.12.51.13.09,0,.12h-.2Zm.12-.2h0a.05.05,0,0,1,0,0v0h.1l0,0h0Zm-.26-.06,0,.09-.14.15-.11-.24Zm2.81,1.73h0l.18,0c0,.32.11.52.11.53h0a.84.84,0,0,1-.43-.07c-.13-.06-.17-.23-.19-.32h0a.58.58,0,0,0,.27-.12Zm.47.36c0-.09-.06-.24-.09-.44s0-.12,0-.15.28,0,.37,0a1.62,1.62,0,0,1,.57.29l-.32.06,0,.29a1.12,1.12,0,0,0-.29,0Zm-.54-.8a.28.28,0,0,0,0,.13c0,.18-.2.23-.24.24-.21,0-4.66,0-5.36.05a.45.45,0,0,1-.4-.13.48.48,0,0,1-.07-.37h0v0a.17.17,0,0,1,.05-.15.52.52,0,0,1,.32-.09h0s4,0,5,0C36.8,25.87,36.8,26,36.8,26.17ZM34.72,28.9a.09.09,0,0,1,0,.18h-.67l.45-.69a.09.09,0,0,1,.16.1l-.27.41Zm-1.24-.64a.09.09,0,0,1,0-.18h.69a.09.09,0,0,1,.09.1.09.09,0,0,1-.09.09Zm.35,1-.09.16a.1.1,0,0,1-.08.05h0a.08.08,0,0,1,0-.12l.09-.17a.09.09,0,0,1,.12,0A.11.11,0,0,1,33.83,29.24Zm-.89-.09.16-.25a.09.09,0,0,1,.13,0,.09.09,0,0,1,0,.12l-.17.25a.12.12,0,0,1-.08,0l0,0A.08.08,0,0,1,32.94,29.15Zm-.19-.36-.16-.38.4,0,0,.15Zm.57-2.05h.09v.19Zm.36,0h.11l0,.22Zm.55,2.53,0,.17a.1.1,0,0,1-.09.07h0A.1.1,0,0,1,34,29.4l.05-.17a.09.09,0,0,1,.11-.07A.09.09,0,0,1,34.23,29.27ZM34.28,27l.07-.26h.23Zm-3.35-.2v0a.66.66,0,0,0,0,.18s0,.12-.66.19l-.12,0s0-.18,0-.31a.49.49,0,0,1,0-.12l.39-.06a.56.56,0,0,1,.38.09Zm1.53-1.15.33,0h-.33Zm-1.59-.21-.33,0a1.28,1.28,0,0,1-.08-.2,4.12,4.12,0,0,1,0-.5l.7,0ZM30.29,24a0,0,0,0,1,0-.06,0,0,0,0,1,.05,0l.19.52a0,0,0,0,1,0,.06h0a.05.05,0,0,1-.05,0Zm-1.18.29.3-.11.08.16-.07,1a4.55,4.55,0,0,0-.17-.75h0A1.11,1.11,0,0,1,29.11,24.32Zm.37-.25c0-.06,0-.13.07-.18l0,0s0-.05-.05-.2.06-.16.15-.2a0,0,0,0,1,.06,0,0,0,0,0,1,0,.05c-.05,0-.1.07-.09.08s.08.23,0,.29l0,0a.34.34,0,0,0-.07.11h0a.67.67,0,0,0,.16.05.07.07,0,0,1,0,.06.05.05,0,0,1-.05,0h0a.62.62,0,0,1-.18-.06A.08.08,0,0,1,29.48,24.07Zm.27.53.37.29v.53l-.45,0Zm.34-.9a.42.42,0,0,0-.19,0s0,.13,0,.19a0,0,0,0,1,0,.06h0a.07.07,0,0,1,0,0s-.05-.25.09-.3a.61.61,0,0,1,.23,0s0,0,0,.05A0,0,0,0,1,30.09,23.7Zm8.16,3.67A10.12,10.12,0,0,1,33.88,30c-.28-.11-2-.74-2.65-1.08a11.7,11.7,0,0,1-3.39-3.29,6.43,6.43,0,0,1-.56-.9l.53,0,.1.16.3-.19.91,0v0a2,2,0,0,0,.09.2,1.69,1.69,0,0,1,0,.57,1.3,1.3,0,0,0-.31.09h0a.49.49,0,0,0,.31.1c.16,0,.64,0,1,0h.5l-.07.05a.33.33,0,0,0-.1.29.71.71,0,0,0,.06.42H30.5l-.38.05a.29.29,0,0,0-.38-.34h-.11a2.24,2.24,0,0,0-.82.28l-.15.08.51.26-.06.33.8-.1a.32.32,0,0,0,.08.24.28.28,0,0,0,.21.07h.06c.44,0,.85-.12.83-.38a.23.23,0,0,1,0-.12.15.15,0,0,0,0-.09h.09l1.84,0,.19.32-.35-.15L32.8,27l.23.23-.38-.06-.15.33.75.11-.08.54-.68-.06-.25-.68-.23,0,.16.67H31.3l.25.82h.17l-.15-.58.69,0,.08.29-.41-.09,0,.26.73.23.13.36a2.17,2.17,0,0,0,.62.15,12,12,0,0,0,1.42-.05l0-.34a1.71,1.71,0,0,1,.33-.17c.21-.09.43-.67.43-.67l.23-.1-.26-.1.38-.56h.66v-.16h-.71l-.25.17.16-.27.58-.07v-.12h-.7l-.8,1-.2,0,0-.52.24.06-.1-.15.19-.06-.1-.09.09-.17-.46-.09.21-.25-.18-.1h1.8a.57.57,0,0,0,.29.48,1,1,0,0,0,.43.1.52.52,0,0,0,.38-.14,0,0,0,0,1,0,0h.08a.62.62,0,0,1,.32.08l.12.08,0-.44.58-.12-.15-.12a2.37,2.37,0,0,0-.83-.44.6.6,0,0,0-.52.07.4.4,0,0,0-.07.13l-.11,0a.51.51,0,0,0,0-.13v-.1a.37.37,0,0,0-.29-.44h.16c.21,0,1.41.14,1.51.12h0l0,0h0v0h0l-.35-.12-.74,0h.08a1,1,0,0,0,.76-.55,1.73,1.73,0,0,0,0-.59l.25,0a3.05,3.05,0,0,1,.43,0,.44.44,0,0,0,.32-.12,1.42,1.42,0,0,1,.17-.13l-.51,0L39,24l0,.26.17-.05,0-.67,0,0-.18.2.06,0-.09.07-.11-.19-.21.4h.11l0,.23h-.3l0-.59A4.5,4.5,0,0,1,39,22.22a.44.44,0,0,0,.13-.46h0a1.19,1.19,0,0,0-.5-.12c-.16,0-.33.09-.49,0a.87.87,0,0,0-.54.06h0a.68.68,0,0,1-.55,0,.78.78,0,0,0-.58,0,.49.49,0,0,1-.44-.1.44.44,0,0,0-.46,0h0a.59.59,0,0,1-.42,0c-.14-.1-.23-.06-.53,0s-.29-.05-.48-.12-.62.08-.87.1-.26,0-.52-.23a.37.37,0,0,0-.25-.08h0a.79.79,0,0,0-.35.19h0c-.13.14,0,.56.11.88a6.43,6.43,0,0,0,.68,1.21l.29.54a1.31,1.31,0,0,0-.12.14,1.34,1.34,0,0,0-.13.72.73.73,0,0,0,.49.56,1,1,0,0,0,.46,0l.11.09-1.88-.08.13-.53.11-.25.07.43h0l0,0a.11.11,0,0,0,.08,0h0a1.59,1.59,0,0,0,0-.5c0-.26,0-1,0-1.15a.23.23,0,0,0-.18-.21l-.48,0a.78.78,0,0,0,0-.13h0a.76.76,0,0,0-.27-.12,7.33,7.33,0,0,0-.9-.07,11.06,11.06,0,0,1-1.11.08,5.69,5.69,0,0,0-1.1.15l-.28-.23-.15.13h-.2l.06.26s-.11.6-.14.69h0v0h0a.43.43,0,0,0,.21.25.83.83,0,0,0,.26,0l.14-.15s0,.05,0,.08a.41.41,0,0,0,.05.15,1.09,1.09,0,0,0,.29.06h0l.28,0,0,.09-.9,0-.07,0-.89,0v0a12.66,12.66,0,0,1-1.14-3.53l.9,0v0l0,0,2.18,0v0l.85.05.15.18.87-.08.12-.14.15.13h.3l.1-.15.22.12a3.81,3.81,0,0,1,.77-.18l4.2.08-.13.22a.17.17,0,0,0,.15.15c.14,0,2.48,0,2.48,0l-.14.39.06.26-.27.39h.26l-.38.55.25,0-.25.25.36,0v.86l.18,0v-.31h.25l0,.32h.25v-.47h.13v.49h.16l.07-1.35.22.14,0-.36.09,0a1.64,1.64,0,0,1-.21-.5c0-.16,0-.34,0-.34l.17.08.11.18-.08.2.19-.08,0,1.37-.21.3.2-.1,0,.09A10.91,10.91,0,0,1,38.25,27.37Zm-8.32-.67a.57.57,0,0,1,0,.13v0l-.59.08,0-.22-.31-.16a1.61,1.61,0,0,1,.57-.17h.28s0,.05,0,.22a.08.08,0,0,0,0,.07Zm3.36-2.93a0,0,0,0,1,0-.06l.28-.12a0,0,0,0,1,0,.08l-.28.12s0,0,0,0A.05.05,0,0,1,33.29,23.77Zm.21.75,0,0-.29-.07,0-.06Zm0-1-.27.13h0s0,0,0,0a0,0,0,0,1,0-.06l.28-.12a0,0,0,0,1,.06,0A0,0,0,0,1,33.53,23.53Zm0-.13-.27.12h0s0,0,0,0a0,0,0,0,1,0-.06l.27-.13a0,0,0,0,1,.06,0A0,0,0,0,1,33.49,23.4Zm-.08-.16-.27.13h0s0,0,0,0a0,0,0,0,1,0-.06l.28-.12a0,0,0,0,1,.06,0A0,0,0,0,1,33.41,23.24Zm0,1.46-.31.05v-.11Zm0,.16,0,.08-.25.14L33.18,25Zm.08.19.06.06-.06.15-.15-.06Zm0-.67-.19-.11,0-.09.3.06Zm.14-.57-.27.12h0a.05.05,0,0,1,0,0,0,0,0,0,1,0-.06l.28-.13a0,0,0,1,1,0,.09Zm0-.72h0a.05.05,0,0,1-.05,0,2.22,2.22,0,0,0-.12-.52l-.33-.81.09,0s.23.58.33.81a2.29,2.29,0,0,1,.12.54S33.7,23.09,33.67,23.09Zm-1-1.3s-.08-.07-.12-.05-.1.17-.09.27a2.17,2.17,0,0,0,.23.52,0,0,0,0,1,0,.06h0s0,0,0,0a2.3,2.3,0,0,1-.24-.55c0-.1,0-.31.14-.37a.2.2,0,0,1,.23.07c.2.21.29.36.27.48s0,.24,0,.24a0,0,0,0,1,0,0,0,0,0,0,1,0,0s0-.16,0-.25S32.94,22,32.71,21.79Zm-4.43,1.86v.11h0s0,0,0,0l-.06,0,0,0h0s0,0,0,0v0c0-.05.11-.07.13-.08ZM41,23.22v-1l.06-.38.25,0v-.12l-.23-.14.24-.14-.18-.18,0-.38.22-.2-.23-.08L41,20.14l.15-.11a2.42,2.42,0,0,1-.15-.27,1.57,1.57,0,0,1-.06-.23l.3-.11a4.6,4.6,0,0,0-.57-.42l-.39-.19.72-.37a7.07,7.07,0,0,1,.43,1.73A5.86,5.86,0,0,1,41,23.22Z"/><path class="cls-2" d="M38.77,25.34a0,0,0,0,0-.06,0s0,.05,0,.06a2.84,2.84,0,0,0,.45.07l.09,0s0,0,0-.06a0,0,0,0,0-.06,0A1.74,1.74,0,0,1,38.77,25.34Z"/><path class="cls-2" d="M38.85,24.72a.05.05,0,0,0,0,.06.07.07,0,0,0,0,0h0l.87-.19a0,0,0,0,0,0-.05,0,0,0,0,0-.05,0Z"/><path class="cls-2" d="M38.68,24.83a0,0,0,0,0,0,0,0,0,0,0,0,0-.05h-.16a0,0,0,0,0,0,.05,0,0,0,0,0,0,0Z"/><path class="cls-2" d="M38.78,25.17a0,0,0,0,0-.05,0l-.47.09a.05.05,0,0,0,0,.06,0,0,0,0,0,.05,0h0l.47-.09A0,0,0,0,0,38.78,25.17Z"/><path class="cls-2" d="M38.51,25.07a0,0,0,0,0,0,0h0l.23,0a0,0,0,0,0,0-.09l-.23,0A0,0,0,0,0,38.51,25.07Z"/><path class="cls-2" d="M26.52,21.38h0a.91.91,0,0,0,.25-.05l.07,0-.06,0s-.17-.13-.26-.11a1.43,1.43,0,0,0-.28.08l-.09,0,.09,0A1.21,1.21,0,0,0,26.52,21.38Z"/><path class="cls-2" d="M26.69,21.74l-.28.08-.1,0,.09,0a.63.63,0,0,0,.25.08h0a.62.62,0,0,0,.25-.06l.07,0-.06,0S26.78,21.72,26.69,21.74Z"/><path class="cls-2" d="M27.91,22l-.28.08-.09,0,.09,0a1.21,1.21,0,0,0,.24.08h0a.91.91,0,0,0,.25-.05l.07,0-.06-.05S28,22,27.91,22Z"/><path class="cls-2" d="M29,21.67l-.06,0-.09-.07.05,0h0a.91.91,0,0,0,.25,0l.07,0-.06,0s-.17-.13-.26-.11-.27.07-.28.07l-.09,0,.09.05.06,0h0l-.1,0v0a.55.55,0,0,0-.23-.1h0l-.05-.05s-.17-.13-.26-.11l-.28.08-.06,0a.34.34,0,0,0-.22-.09l-.27.08-.08,0a.26.26,0,0,0-.18-.06l-.28.08-.09,0,.09,0,.12.05-.09,0c-.06,0-.13-.09-.2-.07l-.28.08-.09,0,.09.05a1.21,1.21,0,0,0,.24.08h0a.74.74,0,0,0,.25-.05l.16.05h0a.87.87,0,0,0,.22,0h0l.15.06-.2.06-.09,0,.09,0a.76.76,0,0,0,.24.08h0a.91.91,0,0,0,.25-.05h0l.07,0a1.54,1.54,0,0,0,.24.08h0a1.15,1.15,0,0,0,.26-.05l.06,0-.05,0s-.18-.13-.27-.11a1.29,1.29,0,0,0-.27.08h0l0,0-.13-.08a.59.59,0,0,0,.18,0l.06,0-.05,0s-.17-.14-.26-.12l-.26.07h0l-.08-.06s.07,0,.07,0l.07,0-.05,0,0,0h0a1,1,0,0,0,.24.07h0a.64.64,0,0,0,.26-.06l.06,0a.61.61,0,0,0,.19.06h0l-.09,0,.09,0a.56.56,0,0,0,.24.08h.06l.05,0a1.21,1.21,0,0,0,.24.08h0A.91.91,0,0,0,29,21.7Z"/><path class="cls-2" d="M29.59,21.42h0a.91.91,0,0,0,.25-.05l.07,0-.06,0s-.17-.13-.26-.11a1.43,1.43,0,0,0-.28.08l-.09,0,.09,0A1.21,1.21,0,0,0,29.59,21.42Z"/><path class="cls-2" d="M29.8,21.55s-.16-.12-.24-.1a1.43,1.43,0,0,0-.28.08l-.1,0,.09,0a1.43,1.43,0,0,0,.25.08h0a1,1,0,0,0,.25-.05h0a.69.69,0,0,0,.23.07h0a1,1,0,0,0,.25-.05l0,0,0,0s-.17-.13-.26-.11l-.28.08Z"/><path class="cls-2" d="M29.51,22l-.05,0s-.18-.14-.27-.12l-.27.08-.1,0,.09,0a.56.56,0,0,0,.24.08h0a.78.78,0,0,0,.25-.06Z"/><path class="cls-2" d="M29.67,22l-.28.08-.1,0,.09,0a.63.63,0,0,0,.25.08h0a.87.87,0,0,0,.25-.06l.06,0-.05-.05S29.76,22,29.67,22Z"/><path class="cls-2" d="M30.42,21.93l-.27.07-.1,0,.09,0a1.21,1.21,0,0,0,.24.08h0a.91.91,0,0,0,.25-.05l.07,0,0,0S30.51,21.91,30.42,21.93Z"/><path class="cls-2" d="M28.54,25.11h.08l-.22.07-.09,0,.09,0a.76.76,0,0,0,.24.08h0a.91.91,0,0,0,.25-.05l.07,0-.06-.05a.45.45,0,0,0-.25-.11l.15,0,.06,0,0,0s-.18-.13-.26-.11l-.28.07-.1,0,.09.05A1.54,1.54,0,0,0,28.54,25.11Z"/><path class="cls-2" d="M28.13,25.34a1.43,1.43,0,0,0-.28.08l-.09,0,.09,0a1.21,1.21,0,0,0,.24.08h0a.91.91,0,0,0,.25-.05l.07,0-.06,0S28.22,25.32,28.13,25.34Z"/><path class="cls-2" d="M28.84,26.22a1,1,0,0,0,.25,0l.07,0-.06,0s-.17-.13-.26-.11a2.85,2.85,0,0,0-.28.08l-.09,0,.09,0a1,1,0,0,0,.24.08Z"/><polygon class="cls-2" points="31.25 26.1 31.42 26.1 31.43 26.52 31.67 26.52 31.66 26.1 31.84 26.09 31.84 25.91 31.24 25.92 31.25 26.1"/><polygon class="cls-2" points="32.23 26.16 32.03 26.16 32.03 25.95 31.87 25.95 31.87 26.48 32.03 26.48 32.03 26.26 32.23 26.26 32.23 26.48 32.39 26.48 32.39 25.95 32.23 25.95 32.23 26.16"/><polygon class="cls-2" points="32.5 26.48 32.94 26.47 32.94 26.37 32.66 26.37 32.66 26.26 32.92 26.26 32.92 26.16 32.66 26.16 32.66 26.05 32.94 26.05 32.94 25.95 32.5 25.95 32.5 26.48"/><path class="cls-2" d="M33.7,25.94v.33a.1.1,0,0,1-.11.11c-.08,0-.12,0-.12-.11v-.33H33.3v.34c0,.14.13.2.28.2s.27-.06.27-.21v-.33Z"/><polygon class="cls-2" points="34.4 26.33 34.39 26.33 34.2 25.94 33.97 25.94 33.97 26.47 34.12 26.47 34.12 26.06 34.12 26.06 34.32 26.46 34.54 26.46 34.54 25.93 34.39 25.93 34.4 26.33"/><rect class="cls-2" x="34.64" y="25.93" width="0.17" height="0.53" transform="translate(-0.17 0.23) rotate(-0.38)"/><path class="cls-2" d="M35.19,25.92a.26.26,0,0,0-.3.28.27.27,0,0,0,.31.27.26.26,0,0,0,.3-.28C35.5,26,35.39,25.92,35.19,25.92Zm0,.45c-.11,0-.14-.09-.14-.17s0-.18.13-.18.14.09.14.18S35.31,26.37,35.2,26.37Z"/><polygon class="cls-2" points="36.01 26.32 36.01 26.32 35.81 25.93 35.58 25.93 35.59 26.46 35.73 26.45 35.73 26.05 35.73 26.05 35.93 26.45 36.15 26.45 36.15 25.92 36 25.92 36.01 26.32"/><polygon class="cls-2" points="24.83 21.39 25.1 21.3 25.35 21.42 25.31 21.15 25.47 20.93 25.23 20.9 25.07 20.66 24.97 20.91 24.72 20.94 24.89 21.15 24.83 21.39"/><polygon class="cls-2" points="24.82 20.33 25.09 20.23 25.34 20.35 25.3 20.08 25.46 19.86 25.22 19.84 25.06 19.59 24.96 19.84 24.71 19.87 24.88 20.09 24.82 20.33"/><polygon class="cls-2" points="25.05 19.1 25.33 19.04 25.56 19.19 25.55 18.91 25.74 18.72 25.5 18.66 25.38 18.4 25.38 18.4 25.25 18.63 25 18.63 25.14 18.86 25.05 19.1"/><polygon class="cls-2" points="25.7 17.94 25.94 18.09 25.93 17.81 26.11 17.62 25.88 17.56 25.75 17.3 25.62 17.53 25.37 17.53 25.51 17.76 25.43 18 25.7 17.94"/><polygon class="cls-2" points="25.19 22.33 25.45 22.44 25.4 22.17 25.56 21.95 25.32 21.93 25.16 21.68 25.06 21.93 24.81 21.97 24.98 22.18 24.93 22.42 25.19 22.33"/><polygon class="cls-2" points="25.33 23.43 25.58 23.54 25.54 23.27 25.7 23.05 25.45 23.03 25.29 22.79 25.2 23.03 24.95 23.07 25.12 23.28 25.06 23.52 25.33 23.43"/><polygon class="cls-2" points="25.73 24.43 25.99 24.54 25.93 24.27 26.08 24.04 25.84 24.02 25.66 23.79 25.58 24.04 25.33 24.09 25.52 24.29 25.47 24.54 25.73 24.43"/><polygon class="cls-2" points="26.29 25.18 26.44 24.96 26.2 24.94 26.03 24.71 25.94 24.96 25.7 25.01 25.88 25.21 25.83 25.46 26.1 25.35 26.35 25.45 26.29 25.18"/><polygon class="cls-2" points="26.85 26.14 27 25.92 26.75 25.9 26.58 25.67 26.5 25.92 26.25 25.97 26.43 26.17 26.39 26.42 26.65 26.31 26.91 26.41 26.85 26.14"/><polygon class="cls-2" points="27.6 26.83 27.36 26.82 27.18 26.58 27.1 26.83 26.85 26.88 27.04 27.08 26.99 27.33 27.25 27.22 27.51 27.32 27.45 27.05 27.6 26.83"/><polygon class="cls-2" points="27.93 28.04 28.19 28.14 28.13 27.88 28.28 27.65 28.03 27.64 27.86 27.4 27.78 27.65 27.53 27.7 27.71 27.9 27.67 28.15 27.93 28.04"/><polygon class="cls-2" points="28.88 28.41 28.71 28.18 28.62 28.43 28.38 28.47 28.56 28.68 28.51 28.92 28.78 28.82 29.03 28.92 28.98 28.65 29.12 28.42 28.88 28.41"/><polygon class="cls-2" points="30.05 29.04 29.81 29.01 29.66 28.76 29.55 29.01 29.3 29.03 29.47 29.25 29.4 29.49 29.68 29.41 29.92 29.53 29.89 29.26 30.05 29.04"/><polygon class="cls-2" points="30.66 29.62 30.51 29.37 30.4 29.62 30.16 29.64 30.32 29.86 30.25 30.1 30.53 30.02 30.77 30.14 30.74 29.87 30.9 29.66 30.66 29.62"/><polygon class="cls-2" points="31.63 30.16 31.48 29.92 31.48 29.92 31.37 30.16 31.12 30.19 31.29 30.41 31.22 30.65 31.49 30.56 31.74 30.68 31.7 30.41 31.87 30.2 31.63 30.16"/><polygon class="cls-2" points="32.77 30.49 32.62 30.25 32.62 30.25 32.52 30.49 32.27 30.51 32.43 30.73 32.37 30.98 32.64 30.89 32.89 31.01 32.85 30.74 33.02 30.53 32.77 30.49"/><polygon class="cls-2" points="33.82 31.09 34.06 31.22 34.03 30.95 34.19 30.73 33.95 30.7 33.8 30.45 33.8 30.45 33.69 30.7 33.45 30.72 33.61 30.94 33.55 31.18 33.82 31.09"/><rect class="cls-2" x="27.83" y="32.96" width="1" height="3.52" transform="translate(-0.23 0.19) rotate(-0.38)"/><path class="cls-2" d="M32.06,34.72v0c.38-.06.49-.37.49-.8,0-.72-.48-.91-1.11-.91s-1.15.21-1.15.92c0,.46.15.73.58.79v0a.86.86,0,0,0-.81.94c0,.72.7,1,1.3,1s1.48-.07,1.48-.9A.92.92,0,0,0,32.06,34.72Zm-.62-1.18a.44.44,0,1,1,0,.87.44.44,0,1,1,0-.87Zm0,2.43c-.3,0-.54-.14-.55-.47s.24-.48.54-.48a.46.46,0,0,1,.54.47A.47.47,0,0,1,31.46,36Z"/><path class="cls-2" d="M35.12,34.22c-.37,0-.4-.06-.43,0l.12-.55H36v-.65h-2l-.33,1.8.55.21c0-.18.46-.25.64-.27s.31.22.31.54-.11.39-.46.4a1.38,1.38,0,0,1-.64-.24l-.3.73a1.74,1.74,0,0,0,1.1.3,1.16,1.16,0,0,0,1.28-1.26A1,1,0,0,0,35.12,34.22Z"/><path class="cls-2" d="M38.58,32.94a1.1,1.1,0,0,0-1.23,1.23,1.09,1.09,0,0,0,.89,1.16c.32,0,.6.06.79-.19a.6.6,0,0,1-.51.64c-.1,0-.2.12-.28.07s-.45,0-.45-.09l-.27.7a2,2,0,0,0,1,.12,1.63,1.63,0,0,0,1.05-.47A2,2,0,0,0,40,34.89C40,33.83,39.6,32.91,38.58,32.94Zm0,1.7a.5.5,0,0,1-.55-.52.51.51,0,0,1,.55-.53.49.49,0,0,1,.54.52A.52.52,0,0,1,38.57,34.64Z"/><path class="cls-2" d="M14.36,9.64c.27,0,.57.27.57.27l.5-.42s-.16-.23-.27-.36-.35-.23-1-.29a1,1,0,0,0-.79,1.24c.17.32.88,1,.95,1.41a.3.3,0,0,1-.3.39l-.76-.31-.4.67a2.86,2.86,0,0,0,1.42.42,1,1,0,0,0,.91-.92,1.44,1.44,0,0,0-.74-1.35C13.79,10,14.08,9.66,14.36,9.64Z"/><polygon class="cls-2" points="18.27 8.83 15.91 9.03 15.92 9.88 16.74 9.8 16.78 12.48 17.63 12.39 17.59 9.73 18.32 9.59 18.27 8.83"/><path class="cls-2" d="M19.62,8.64l-.75,3.67.84,0,.21-.57.93-.1L21,12l.75-.17L20.72,8.54ZM20,11l.29-1.44.46,1.32Z"/><polygon class="cls-2" points="21.89 9.06 22.83 8.94 22.89 11.73 23.9 11.57 23.86 8.82 24.52 8.61 24.52 7.8 21.89 8.28 21.89 9.06"/><polygon class="cls-2" points="27.59 10.85 27.53 10.12 26.25 10.27 26.27 9.67 26.84 9.55 26.82 8.89 26.31 8.92 26.26 8.21 27.61 7.95 27.54 7.21 25.27 7.66 25.39 11.19 27.59 10.85"/><path class="cls-2" d="M31.43,10.8c.78,0,1.39-1.06,1.34-2S32.37,7,31.27,7a1.41,1.41,0,0,0-1.43,1.66C30,10.35,30.65,10.81,31.43,10.8ZM31.3,7.69h0c.65,0,.65.73.65,1.14s-.08,1.12-.72,1.11-.63-.71-.7-1.19A1,1,0,0,1,31.3,7.69Z"/><polygon class="cls-2" points="34.19 9.12 34.61 9.11 34.58 8.43 34.17 8.4 34.16 7.7 35.19 7.71 35.16 7.07 33.31 7.04 33.31 10.66 34.2 10.65 34.19 9.12"/><path class="cls-2" d="M38.81,11.08c.78,0,1.43-1,1.41-1.92s-.33-1.89-1.43-1.88h0a1.4,1.4,0,0,0-1.46,1.6C37.37,10.58,38,11.06,38.81,11.08Zm0-3.11h.05c.64,0,.62.75.6,1.17s-.13,1.11-.77,1.07S38.08,9.48,38,9A1,1,0,0,1,38.79,8Z"/><path class="cls-2" d="M43.15,9.31a1.53,1.53,0,0,0-1-1.53A3.09,3.09,0,0,0,41,7.53h-.12l-.07,3.84.74.14,0-.87L42.8,11.8l.13-.8-.64-.66S43.18,9.86,43.15,9.31Zm-.87.23c-.09.28-.8.33-.8.33l0-1.33a1.09,1.09,0,0,1,.64,0C42.46,8.72,42.37,9.27,42.28,9.54Z"/><polygon class="cls-2" points="43.99 8.25 43.79 11.8 45.69 12.2 45.73 11.42 44.72 11.11 44.74 10.53 45.27 10.53 45.29 9.77 44.8 9.69 44.8 9.07 45.72 9.18 45.76 8.49 43.99 8.25 43.99 8.25"/><polygon class="cls-2" points="48.86 9.68 48.86 9.68 48.86 9.68 48.86 9.68"/><path class="cls-2" d="M48.08,9a1.71,1.71,0,0,0-1.24.19,2.06,2.06,0,0,0-.7,1.45,2.21,2.21,0,0,0,.59,1.88,1.5,1.5,0,0,0,1.85,0c.32-.25.27-1.59.27-1.59l-1.24-.06,0,.76.41,0s.16.41-.5.33c-.39,0-.51-.46-.6-.87a1.12,1.12,0,0,1,.47-1.33.63.63,0,0,1,.89.27l.55-.42A3.71,3.71,0,0,0,48.08,9Z"/><path class="cls-2" d="M50.83,9.35A1.4,1.4,0,0,0,49.4,11c.15,1.69.82,2.14,1.6,2.14s1.39-1.06,1.34-2S51.93,9.29,50.83,9.35Zm0,2.93c-.64,0-.62-.71-.69-1.19A1,1,0,0,1,50.87,10h0c.64,0,.64.73.65,1.14S51.47,12.3,50.83,12.28Z"/><polygon class="cls-2" points="55.5 9.22 54.7 9.3 54.8 11.18 53.46 9.44 52.89 9.47 52.89 9.47 52.96 13.02 53.74 12.99 53.75 11.48 54.77 12.85 55.64 12.84 55.5 9.22"/><polygon class="cls-2" points="42.34 20.64 42.34 20.64 42.19 20.88 41.95 20.91 42.11 21.13 42.07 21.4 42.32 21.28 42.59 21.37 42.53 21.13 42.7 20.91 42.45 20.88 42.34 20.64"/><polygon class="cls-2" points="42.34 19.57 42.34 19.57 42.19 19.81 41.95 19.85 42.11 20.06 42.07 20.33 42.32 20.21 42.59 20.3 42.53 20.06 42.69 19.84 42.45 19.81 42.34 19.57"/><polygon class="cls-2" points="42.14 18.61 42.01 18.38 41.89 18.64 41.65 18.7 41.84 18.9 41.84 19.17 42.07 19.02 42.35 19.07 42.26 18.84 42.39 18.61 42.14 18.61"/><polygon class="cls-2" points="41.75 17.51 41.62 17.28 41.5 17.55 41.26 17.61 41.45 17.8 41.45 18.07 41.68 17.92 41.96 17.98 41.86 17.75 42 17.51 41.75 17.51"/><polygon class="cls-2" points="42.38 21.91 42.27 21.66 42.12 21.91 41.88 21.93 42.04 22.15 41.99 22.42 42.24 22.3 42.51 22.4 42.45 22.16 42.62 21.94 42.38 21.91"/><polygon class="cls-2" points="42.25 23.01 42.15 22.76 41.99 23.01 41.75 23.04 41.91 23.25 41.87 23.52 42.12 23.41 42.39 23.5 42.33 23.26 42.5 23.04 42.25 23.01"/><polygon class="cls-2" points="41.88 24.02 41.79 23.78 41.63 24.01 41.38 24.03 41.53 24.25 41.48 24.52 41.73 24.42 42 24.52 41.95 24.27 42.13 24.07 41.88 24.02"/><polygon class="cls-2" points="41.53 24.95 41.44 24.7 41.28 24.93 41.03 24.95 41.18 25.18 41.13 25.45 41.38 25.34 41.65 25.45 41.6 25.2 41.78 24.99 41.53 24.95"/><polygon class="cls-2" points="40.99 25.91 40.9 25.66 40.73 25.9 40.49 25.92 40.64 26.14 40.58 26.41 40.84 26.3 41.1 26.41 41.06 26.16 41.24 25.96 40.99 25.91"/><polygon class="cls-2" points="40.4 26.84 40.31 26.59 40.14 26.82 39.9 26.84 40.05 27.06 39.99 27.33 40.25 27.23 40.52 27.33 40.47 27.09 40.65 26.88 40.4 26.84"/><polygon class="cls-2" points="39.65 27.41 39.48 27.65 39.23 27.67 39.38 27.89 39.33 28.16 39.58 28.05 39.85 28.16 39.8 27.91 39.98 27.71 39.73 27.66 39.65 27.41"/><polygon class="cls-2" points="38.9 28.45 38.81 28.2 38.64 28.43 38.4 28.45 38.55 28.68 38.49 28.95 38.75 28.84 39.01 28.94 38.97 28.7 39.15 28.49 38.9 28.45"/><polygon class="cls-2" points="37.98 29.04 37.87 28.8 37.72 29.05 37.48 29.09 37.65 29.3 37.61 29.57 37.86 29.44 38.13 29.52 38.06 29.28 38.23 29.06 37.98 29.04"/><polygon class="cls-2" points="37.38 29.69 37.13 29.66 37.02 29.42 37.02 29.42 36.88 29.67 36.63 29.71 36.8 29.92 36.77 30.19 37.02 30.07 37.29 30.15 37.22 29.91 37.38 29.69"/><polygon class="cls-2" points="36.18 30.22 36.06 29.98 36.06 29.98 35.92 30.23 35.68 30.26 35.84 30.48 35.81 30.75 36.06 30.62 36.33 30.7 36.26 30.46 36.42 30.24 36.18 30.22"/><polygon class="cls-2" points="35.03 30.56 34.92 30.32 34.77 30.57 34.53 30.61 34.7 30.82 34.67 31.09 34.91 30.96 35.19 31.05 35.12 30.81 35.28 30.59 35.03 30.56"/><path class="cls-3" d="M64.74.38,3.73.79A3.38,3.38,0,0,0,.38,4.21L.63,41A3.38,3.38,0,0,0,4,44.38L65,44a3.38,3.38,0,0,0,3.35-3.42l-.25-36.8A3.38,3.38,0,0,0,64.74.38Z"/></g></svg>