<svg xmlns="http://www.w3.org/2000/svg" xmlns:xlink="http://www.w3.org/1999/xlink" viewBox="0 0 80.77 44.77"><defs><style>.cls-1,.cls-2{fill:none;}.cls-2{stroke-miterlimit:10;stroke-width:0.77px;opacity:0.3;stroke:url(#New_Gradient_Swatch_6);}.cls-3{clip-path:url(#clip-path);}.cls-4{fill:#a33138;}.cls-5{fill:#fff;}.cls-6{fill:#3c3b6b;}</style><linearGradient id="New_Gradient_Swatch_6" x1="465.23" y1="2019.61" x2="545.75" y2="2019.61" gradientTransform="translate(-478.63 -1993.79) rotate(-0.38)" gradientUnits="userSpaceOnUse"><stop offset="0" stop-color="#79589f"/><stop offset="1" stop-color="#79589f"/></linearGradient><clipPath id="clip-path"><path class="cls-1" d="M6.49,39.52l67.78.22a2,2,0,0,0,2-2L76.05,6a2,2,0,0,0-2-2L6.25,3.74a2,2,0,0,0-2,2l.21,31.78A2,2,0,0,0,6.49,39.52Z"/></clipPath></defs><title>usa</title><g id="Stickers"><path class="cls-2" d="M76.68.38,3.79.79A3.43,3.43,0,0,0,.38,4.21L.63,41a3.41,3.41,0,0,0,3.46,3.37L77,44a3.4,3.4,0,0,0,3.41-3.41L80.13,3.75c0-1.87-2-3.38-3.85-3.37Z"/><g class="cls-3"><rect class="cls-4" x="4.65" y="3.98" width="71.22" height="35.52"/><path d="M4.65,8.08H75.87m0,5.46H4.65m0,5.47H75.87m0,5.46H4.65m0,5.47H75.87m0,5.46H4.65"/><path class="cls-5" d="M75.87,36.77H4.65V34H75.87Zm0-5.46H4.65V28.57H75.87Zm0-5.47H4.65V23.11H75.87Zm0-5.46H4.65V17.64H75.87Zm0-5.47H4.65V12.18H75.87Zm0-5.47H4.65V6.71H75.87Z"/><rect class="cls-6" x="4.65" y="3.98" width="27.07" height="19.13"/><polygon class="cls-5" points="6.9 4.8 6.66 5.55 5.86 5.55 6.51 6.02 6.26 6.78 6.9 6.31 7.55 6.78 7.3 6.02 7.95 5.55 7.15 5.55 6.9 4.8"/><polygon class="cls-5" points="6.9 8.63 6.66 9.38 5.86 9.38 6.51 9.85 6.26 10.6 6.9 10.14 7.55 10.6 7.3 9.85 7.95 9.38 7.15 9.38 6.9 8.63"/><polygon class="cls-5" points="6.9 12.45 6.66 13.21 5.86 13.21 6.51 13.67 6.26 14.43 6.9 13.96 7.55 14.43 7.3 13.67 7.95 13.21 7.15 13.21 6.9 12.45"/><polygon class="cls-5" points="6.9 16.28 6.66 17.03 5.86 17.03 6.51 17.5 6.26 18.25 6.9 17.79 7.55 18.25 7.3 17.5 7.95 17.03 7.15 17.03 6.9 16.28"/><polygon class="cls-5" points="7.15 20.86 6.9 20.1 6.66 20.86 5.86 20.86 6.51 21.32 6.26 22.08 6.9 21.61 7.55 22.08 7.3 21.32 7.95 20.86 7.15 20.86"/><polygon class="cls-5" points="9.16 6.71 8.91 7.47 8.12 7.47 8.76 7.93 8.52 8.69 9.16 8.22 9.8 8.69 9.56 7.93 10.2 7.47 9.41 7.47 9.16 6.71"/><polygon class="cls-5" points="9.16 10.54 8.91 11.29 8.12 11.29 8.76 11.76 8.52 12.52 9.16 12.05 9.8 12.52 9.56 11.76 10.2 11.29 9.41 11.29 9.16 10.54"/><polygon class="cls-5" points="9.16 14.36 8.91 15.12 8.12 15.12 8.76 15.59 8.52 16.34 9.16 15.87 9.8 16.34 9.56 15.59 10.2 15.12 9.41 15.12 9.16 14.36"/><polygon class="cls-5" points="9.41 18.94 9.16 18.19 8.91 18.94 8.12 18.94 8.76 19.41 8.52 20.17 9.16 19.7 9.8 20.17 9.56 19.41 10.2 18.94 9.41 18.94"/><polygon class="cls-5" points="11.42 4.8 11.17 5.55 10.37 5.55 11.02 6.02 10.77 6.78 11.42 6.31 12.06 6.78 11.81 6.02 12.46 5.55 11.66 5.55 11.42 4.8"/><polygon class="cls-5" points="11.42 8.63 11.17 9.38 10.37 9.38 11.02 9.85 10.77 10.6 11.42 10.14 12.06 10.6 11.81 9.85 12.46 9.38 11.66 9.38 11.42 8.63"/><polygon class="cls-5" points="11.42 12.45 11.17 13.21 10.37 13.21 11.02 13.67 10.77 14.43 11.42 13.96 12.06 14.43 11.81 13.67 12.46 13.21 11.66 13.21 11.42 12.45"/><polygon class="cls-5" points="11.42 16.28 11.17 17.03 10.37 17.03 11.02 17.5 10.77 18.25 11.42 17.79 12.06 18.25 11.81 17.5 12.46 17.03 11.66 17.03 11.42 16.28"/><polygon class="cls-5" points="11.66 20.86 11.42 20.1 11.17 20.86 10.37 20.86 11.02 21.32 10.77 22.08 11.42 21.61 12.06 22.08 11.81 21.32 12.46 20.86 11.66 20.86"/><polygon class="cls-5" points="13.67 6.71 13.43 7.47 12.63 7.47 13.27 7.93 13.03 8.69 13.67 8.22 14.32 8.69 14.07 7.93 14.71 7.47 13.92 7.47 13.67 6.71"/><polygon class="cls-5" points="13.67 10.54 13.43 11.29 12.63 11.29 13.27 11.76 13.03 12.52 13.67 12.05 14.32 12.52 14.07 11.76 14.71 11.29 13.92 11.29 13.67 10.54"/><polygon class="cls-5" points="13.67 14.36 13.43 15.12 12.63 15.12 13.27 15.59 13.03 16.34 13.67 15.87 14.32 16.34 14.07 15.59 14.71 15.12 13.92 15.12 13.67 14.36"/><polygon class="cls-5" points="13.92 18.94 13.67 18.19 13.43 18.94 12.63 18.94 13.27 19.41 13.03 20.17 13.67 19.7 14.32 20.17 14.07 19.41 14.71 18.94 13.92 18.94"/><polygon class="cls-5" points="15.93 4.8 15.68 5.55 14.88 5.55 15.53 6.02 15.28 6.78 15.93 6.31 16.57 6.78 16.32 6.02 16.97 5.55 16.17 5.55 15.93 4.8"/><polygon class="cls-5" points="15.93 8.63 15.68 9.38 14.88 9.38 15.53 9.85 15.28 10.6 15.93 10.14 16.57 10.6 16.32 9.85 16.97 9.38 16.17 9.38 15.93 8.63"/><polygon class="cls-5" points="15.93 12.45 15.68 13.21 14.88 13.21 15.53 13.67 15.28 14.43 15.93 13.96 16.57 14.43 16.32 13.67 16.97 13.21 16.17 13.21 15.93 12.45"/><polygon class="cls-5" points="15.93 16.28 15.68 17.03 14.88 17.03 15.53 17.5 15.28 18.25 15.93 17.79 16.57 18.25 16.32 17.5 16.97 17.03 16.17 17.03 15.93 16.28"/><polygon class="cls-5" points="16.17 20.86 15.93 20.1 15.68 20.86 14.88 20.86 15.53 21.32 15.28 22.08 15.93 21.61 16.57 22.08 16.32 21.32 16.97 20.86 16.17 20.86"/><polygon class="cls-5" points="18.18 6.71 17.94 7.47 17.14 7.47 17.79 7.93 17.54 8.69 18.18 8.22 18.83 8.69 18.58 7.93 19.23 7.47 18.43 7.47 18.18 6.71"/><polygon class="cls-5" points="18.18 10.54 17.94 11.29 17.14 11.29 17.79 11.76 17.54 12.52 18.18 12.05 18.83 12.52 18.58 11.76 19.23 11.29 18.43 11.29 18.18 10.54"/><polygon class="cls-5" points="18.18 14.36 17.94 15.12 17.14 15.12 17.79 15.59 17.54 16.34 18.18 15.87 18.83 16.34 18.58 15.59 19.23 15.12 18.43 15.12 18.18 14.36"/><polygon class="cls-5" points="18.43 18.94 18.18 18.19 17.94 18.94 17.14 18.94 17.79 19.41 17.54 20.17 18.18 19.7 18.83 20.17 18.58 19.41 19.23 18.94 18.43 18.94"/><polygon class="cls-5" points="20.44 4.8 20.19 5.55 19.4 5.55 20.04 6.02 19.8 6.78 20.44 6.31 21.08 6.78 20.84 6.02 21.48 5.55 20.68 5.55 20.44 4.8"/><polygon class="cls-5" points="20.44 8.63 20.19 9.38 19.4 9.38 20.04 9.85 19.8 10.6 20.44 10.14 21.08 10.6 20.84 9.85 21.48 9.38 20.68 9.38 20.44 8.63"/><polygon class="cls-5" points="20.44 12.45 20.19 13.21 19.4 13.21 20.04 13.67 19.8 14.43 20.44 13.96 21.08 14.43 20.84 13.67 21.48 13.21 20.68 13.21 20.44 12.45"/><polygon class="cls-5" points="20.44 16.28 20.19 17.03 19.4 17.03 20.04 17.5 19.8 18.25 20.44 17.79 21.08 18.25 20.84 17.5 21.48 17.03 20.68 17.03 20.44 16.28"/><polygon class="cls-5" points="20.68 20.86 20.44 20.1 20.19 20.86 19.4 20.86 20.04 21.32 19.8 22.08 20.44 21.61 21.08 22.08 20.84 21.32 21.48 20.86 20.68 20.86"/><polygon class="cls-5" points="22.7 6.71 22.45 7.47 21.65 7.47 22.3 7.93 22.05 8.69 22.7 8.22 23.34 8.69 23.09 7.93 23.74 7.47 22.94 7.47 22.7 6.71"/><polygon class="cls-5" points="22.7 10.54 22.45 11.29 21.65 11.29 22.3 11.76 22.05 12.52 22.7 12.05 23.34 12.52 23.09 11.76 23.74 11.29 22.94 11.29 22.7 10.54"/><polygon class="cls-5" points="22.7 14.36 22.45 15.12 21.65 15.12 22.3 15.59 22.05 16.34 22.7 15.87 23.34 16.34 23.09 15.59 23.74 15.12 22.94 15.12 22.7 14.36"/><polygon class="cls-5" points="22.94 18.94 22.7 18.19 22.45 18.94 21.65 18.94 22.3 19.41 22.05 20.17 22.7 19.7 23.34 20.17 23.09 19.41 23.74 18.94 22.94 18.94"/><polygon class="cls-5" points="24.95 4.8 24.7 5.55 23.91 5.55 24.55 6.02 24.31 6.78 24.95 6.31 25.59 6.78 25.35 6.02 25.99 5.55 25.2 5.55 24.95 4.8"/><polygon class="cls-5" points="24.95 8.63 24.7 9.38 23.91 9.38 24.55 9.85 24.31 10.6 24.95 10.14 25.59 10.6 25.35 9.85 25.99 9.38 25.2 9.38 24.95 8.63"/><polygon class="cls-5" points="24.95 12.45 24.7 13.21 23.91 13.21 24.55 13.67 24.31 14.43 24.95 13.96 25.59 14.43 25.35 13.67 25.99 13.21 25.2 13.21 24.95 12.45"/><polygon class="cls-5" points="24.95 16.28 24.7 17.03 23.91 17.03 24.55 17.5 24.31 18.25 24.95 17.79 25.59 18.25 25.35 17.5 25.99 17.03 25.2 17.03 24.95 16.28"/><polygon class="cls-5" points="25.2 20.86 24.95 20.1 24.7 20.86 23.91 20.86 24.55 21.32 24.31 22.08 24.95 21.61 25.59 22.08 25.35 21.32 25.99 20.86 25.2 20.86"/><polygon class="cls-5" points="27.21 6.71 26.96 7.47 26.16 7.47 26.81 7.93 26.56 8.69 27.21 8.22 27.85 8.69 27.6 7.93 28.25 7.47 27.45 7.47 27.21 6.71"/><polygon class="cls-5" points="27.21 10.54 26.96 11.29 26.16 11.29 26.81 11.76 26.56 12.52 27.21 12.05 27.85 12.52 27.6 11.76 28.25 11.29 27.45 11.29 27.21 10.54"/><polygon class="cls-5" points="27.21 14.36 26.96 15.12 26.16 15.12 26.81 15.59 26.56 16.34 27.21 15.87 27.85 16.34 27.6 15.59 28.25 15.12 27.45 15.12 27.21 14.36"/><polygon class="cls-5" points="27.45 18.94 27.21 18.19 26.96 18.94 26.16 18.94 26.81 19.41 26.56 20.17 27.21 19.7 27.85 20.17 27.6 19.41 28.25 18.94 27.45 18.94"/><polygon class="cls-5" points="29.06 6.02 28.82 6.78 29.46 6.31 30.11 6.78 29.86 6.02 30.5 5.55 29.71 5.55 29.46 4.8 29.22 5.55 28.42 5.55 29.06 6.02"/><polygon class="cls-5" points="29.46 8.63 29.22 9.38 28.42 9.38 29.06 9.85 28.82 10.6 29.46 10.14 30.11 10.6 29.86 9.85 30.5 9.38 29.71 9.38 29.46 8.63"/><polygon class="cls-5" points="29.46 12.45 29.22 13.21 28.42 13.21 29.06 13.67 28.82 14.43 29.46 13.96 30.11 14.43 29.86 13.67 30.5 13.21 29.71 13.21 29.46 12.45"/><polygon class="cls-5" points="29.46 16.28 29.22 17.03 28.42 17.03 29.06 17.5 28.82 18.25 29.46 17.79 30.11 18.25 29.86 17.5 30.5 17.03 29.71 17.03 29.46 16.28"/><polygon class="cls-5" points="29.71 20.86 29.46 20.1 29.22 20.86 28.42 20.86 29.06 21.32 28.82 22.08 29.46 21.61 30.11 22.08 29.86 21.32 30.5 20.86 29.71 20.86"/></g></g></svg>