<svg xmlns="http://www.w3.org/2000/svg" viewBox="0 0 62.29 88.35"><defs><style>.cls-1{fill:#7673c0;}.cls-2{fill:#fff;}.cls-3,.cls-6{fill:none;stroke:#7673c0;stroke-miterlimit:10;opacity:0.3;}.cls-3{stroke-width:1.8px;}.cls-4{fill:#8a0018;}.cls-5{fill:#ee0c21;}.cls-6{stroke-width:1.8px;}</style></defs><title>full-colorscala</title><g id="ecosystem-2" data-name="ecosystem"><path class="cls-1" d="M10.33,44.64c34.14,2.51,40.76,7.07,41.83,8.09l.24,10.52c-3.8-1.62-10.16-3.14-20.51-4.61-8.6-1.22-17.27-2-21.3-2.29l-.26-11.71M7.71,41.9l.38,16.82s46.84,3.14,47,10.15L54.7,52.05s-.16-7-47-10.15Z"/><path class="cls-1" d="M54.19,29.63s0-1.16-3.18-2.74a25.67,25.67,0,0,1-3,1.44,11.36,11.36,0,0,1,3.69,2l.24,10.53c-3.8-1.63-10.16-3.15-20.51-4.62-4.13-.58-8.26-1.06-11.9-1.43-3.58.51-7.53,1-11.9,1.51h0s46.84,3.15,47,10.16Z"/><path class="cls-1" d="M51.12,13.15l.23,10.25c-1.11,1.1-7.69,5.87-41.14,9.87L10,21.86C14,21.35,22.56,20.21,31,18.62,39.66,17,46.68,15.3,51.12,13.15M53.68,7.2c.16,7-46.48,12.27-46.48,12.27l.38,16.82C54.23,31,54.07,24,54.07,24L53.68,7.2Z"/><path class="cls-2" d="M9.09,43.1c3.31-.4,12.79-1.62,22.17-3.38C43.77,37.36,50,35.21,52.93,33.31l.29,13c-.38.72-4.58,6.36-43.81,10.92Z"/><path class="cls-1" d="M51.63,35.57l.23,10.25c-1.11,1.11-7.69,5.88-41.14,9.88l-.26-11.41c4.07-.51,12.61-1.66,21.05-3.25,8.66-1.63,15.67-3.31,20.12-5.47m2.56-5.94c.16,7-46.48,12.27-46.48,12.27l.38,16.82c46.65-5.27,46.49-12.27,46.49-12.27l-.39-16.82Z"/><path class="cls-2" d="M9.6,65.52c3.3-.4,12.79-1.61,22.17-3.38,12.51-2.35,18.69-4.51,21.67-6.4l.29,13c-.38.72-4.58,6.37-43.81,10.93Z"/><path class="cls-1" d="M52.14,58l.23,10.25c-1.11,1.1-7.69,5.87-41.14,9.87L11,66.71C15,66.2,23.58,65.06,32,63.47c8.66-1.63,15.67-3.32,20.12-5.47m2.56-6c.16,7-46.48,12.28-46.48,12.28L8.6,81.15c46.64-5.27,46.49-12.28,46.49-12.28L54.7,52.05Z"/><path class="cls-3" d="M61.38,68.73,61,51.91a7,7,0,0,0-.66-2.79,6.81,6.81,0,0,0,.53-2.82l-.38-16.82a7,7,0,0,0-.66-2.79,7,7,0,0,0,.54-2.81L60,7.06A6.3,6.3,0,0,0,47.89,4.73C43.74,7.1,27,10.91,6.51,13.21a6.36,6.36,0,0,0-3.59,1.64,6.29,6.29,0,0,0-2,4.77l.38,16.82A6.41,6.41,0,0,0,2,39.23,6.3,6.3,0,0,0,1.41,42l.38,16.82a6.34,6.34,0,0,0,.72,2.79,6.37,6.37,0,0,0-.59,2.82L2.3,81.29a6.3,6.3,0,0,0,2.16,4.6,7.26,7.26,0,0,0,.78.59,6.38,6.38,0,0,0,4.07.93C35.2,84.48,61.64,80,61.38,68.73Z"/></g><g id="Color_stickers" data-name="Color stickers"><path class="cls-4" d="M7.71,41.9l.38,16.82s46.84,3.14,47,10.15L54.7,52.05s-.16-7-47-10.15Z"/><path class="cls-4" d="M54.19,29.63s0-1.16-3.18-2.74c-.79.45-39.06,8.91-43.43,9.4h0s46.84,3.15,47,10.16Z"/><path class="cls-5" d="M53.68,7.2c.16,7-46.48,12.27-46.48,12.27l.38,16.82C54.23,31,54.07,24,54.07,24L53.68,7.2Z"/><path class="cls-2" d="M9.09,43.1c3.31-.4,12.79-1.62,22.17-3.38C43.77,37.36,50,35.21,52.93,33.31l.29,13c-.38.72-4.58,6.36-43.81,10.92Z"/><path class="cls-5" d="M54.19,29.63c.16,7-46.48,12.27-46.48,12.27l.38,16.82c46.65-5.27,46.49-12.27,46.49-12.27l-.39-16.82Z"/><path class="cls-2" d="M9.6,65.52c3.3-.4,12.79-1.61,22.17-3.38,12.51-2.35,18.69-4.51,21.67-6.4l.29,13c-.38.72-4.58,6.37-43.81,10.93Z"/><path class="cls-5" d="M54.7,52.05c.16,7-46.48,12.28-46.48,12.28L8.6,81.15c46.64-5.27,46.49-12.28,46.49-12.28L54.7,52.05Z"/><path class="cls-6" d="M61.38,68.73,61,51.91a7,7,0,0,0-.66-2.79,6.81,6.81,0,0,0,.53-2.82l-.38-16.82a7,7,0,0,0-.66-2.79,7,7,0,0,0,.54-2.81L60,7.06A6.3,6.3,0,0,0,47.89,4.73C43.74,7.1,27,10.91,6.51,13.21a6.36,6.36,0,0,0-3.59,1.64,6.29,6.29,0,0,0-2,4.77l.38,16.82A6.41,6.41,0,0,0,2,39.23,6.3,6.3,0,0,0,1.41,42l.38,16.82a6.34,6.34,0,0,0,.72,2.79,6.37,6.37,0,0,0-.59,2.82L2.3,81.29a6.3,6.3,0,0,0,2.16,4.6,7.26,7.26,0,0,0,.78.59,6.38,6.38,0,0,0,4.07.93C35.2,84.48,61.64,80,61.38,68.73Z"/></g></svg>