<svg xmlns="http://www.w3.org/2000/svg" viewBox="0 0 872.81 444.38"><defs><style>.cls-1{fill:#2a9eda;opacity:0.15;}.cls-2,.cls-6{opacity:0.4;}.cls-3{fill:#55a8dc;}.cls-4,.cls-5,.cls-6{fill:#fff;}.cls-4{fill-rule:evenodd;}.cls-7{fill:#4799c8;}</style></defs><title>diagram</title><g id="demo-diagram"><rect class="cls-1" x="577.01" y="18.98" width="151.05" height="390.21"/><g class="cls-2"><path class="cls-3" d="M728.06,19V409.19H577V19h151m0-1.77H577A1.77,1.77,0,0,0,575.24,19V409.19A1.77,1.77,0,0,0,577,411h151a1.77,1.77,0,0,0,1.77-1.77V19a1.77,1.77,0,0,0-1.77-1.77Z"/></g><g id="Shape"><path class="cls-4" d="M468.16,201.54h21.17a3.26,3.26,0,0,1,3.26,3.13V226a3.27,3.27,0,0,1-3.13,3.26h-21.3a3.26,3.26,0,0,1-3.26-3.14V204.8a3.26,3.26,0,0,1,3.13-3.26Zm21.17,1.63H468.16a1.63,1.63,0,0,0-1.63,1.53V226a1.62,1.62,0,0,0,1.53,1.62h21.27a1.63,1.63,0,0,0,1.63-1.53V204.8A1.63,1.63,0,0,0,489.33,203.17Zm-8.92,2.63a.82.82,0,0,1,.82.82v6.82l6.6-3.07a.81.81,0,1,1,.69,1.47l-7.29,3.39v.53l7.3,3.59a.81.81,0,0,1,.38,1.09.83.83,0,0,1-.74.45.72.72,0,0,1-.35-.08l-6.59-3.24v7a.82.82,0,0,1-.82.82.82.82,0,0,1-.81-.82V206.62A.82.82,0,0,1,480.41,205.8Zm-3.1,14.68a.81.81,0,0,1,.81.74v3.34a.82.82,0,0,1-.82.82,2.45,2.45,0,1,1,0-4.9Zm0-14.71a.82.82,0,0,1,.81.74v3.35a.82.82,0,0,1-.82.81,2.45,2.45,0,0,1,0-4.9Zm-2.18,12.32a4.34,4.34,0,0,0,1.87,1.45.81.81,0,0,0,.76-.08.82.82,0,0,0,.36-.68l0-6.4a.83.83,0,0,0-.36-.68.82.82,0,0,0-.76-.08,4.3,4.3,0,0,0-1.79,1.37l-1.8-.85c0-.08,0-.16,0-.24a2.46,2.46,0,1,0-.71,1.72l1.78.83a4.22,4.22,0,0,0-.15,1.13,4.06,4.06,0,0,0,.13,1l-1.79.88a2.45,2.45,0,1,0,.74,1.75,2.83,2.83,0,0,0,0-.29Z"/></g><path class="cls-5" d="M322.85,172.94H133.09a5.51,5.51,0,0,1-5.5-5.5V52a5.51,5.51,0,0,1,5.5-5.5H322.85a5.51,5.51,0,0,1,5.51,5.5V167.44A5.51,5.51,0,0,1,322.85,172.94ZM133.09,48.24A3.74,3.74,0,0,0,129.36,52V167.44a3.74,3.74,0,0,0,3.73,3.73H322.85a3.74,3.74,0,0,0,3.74-3.73V52a3.74,3.74,0,0,0-3.74-3.73Z"/><path class="cls-5" d="M318.63,164.1H137.32a.88.88,0,0,1-.88-.89V56.2a.88.88,0,0,1,.88-.89H318.63a.88.88,0,0,1,.88.89v107A.88.88,0,0,1,318.63,164.1Zm-180.42-1.77H317.74V57.08H138.21Z"/><path class="cls-5" d="M338.08,264.48H117.86a.89.89,0,0,1-.77-.46.88.88,0,0,1,0-.9l23.88-38a.92.92,0,0,1,.75-.41h48.18a.89.89,0,0,1,0,1.77H142.23l-22.77,36.26h217l-22.76-36.26H266.45a.89.89,0,1,1,0-1.77H314.2a.89.89,0,0,1,.75.41l23.88,38a.91.91,0,0,1,0,.9A.9.9,0,0,1,338.08,264.48Z"/><polygon class="cls-6" points="246.99 56.2 172.7 163.21 198.84 163.21 271.75 56.2 246.99 56.2"/><polygon class="cls-6" points="279.71 56.2 205.42 163.21 213.87 163.21 286.79 56.2 279.71 56.2"/><path class="cls-5" d="M338.08,271.56H117.86a.88.88,0,0,1-.88-.89V263.6a.89.89,0,1,1,1.77,0v6.19H337.2V263.6a.89.89,0,1,1,1.77,0v7.07A.89.89,0,0,1,338.08,271.56Z"/><path class="cls-5" d="M199.63,23.84l-2.72,9.4h-1.49l-2.21-7.52h0L191,33.24h-1.48l-2.72-9.4h1.51l2,7.47h0l2.11-7.47H194l2.13,7.47h0l2.06-7.47Z"/><path class="cls-5" d="M206.25,30.33h-4.91a2.21,2.21,0,0,0,.61,1.45,2,2,0,0,0,1.46.53,3.05,3.05,0,0,0,1.05-.16,5.12,5.12,0,0,0,1-.48l.61.89a4.34,4.34,0,0,1-1.24.65,4.85,4.85,0,0,1-1.48.21,3.55,3.55,0,0,1-1.83-.45,3,3,0,0,1-1.16-1.27,4.31,4.31,0,0,1-.4-1.89,3.89,3.89,0,0,1,.85-2.6,3,3,0,0,1,2.4-1,2.83,2.83,0,0,1,2.31,1,3.93,3.93,0,0,1,.8,2.57A3.28,3.28,0,0,1,206.25,30.33Zm-1.33-1.07a2.31,2.31,0,0,0-.47-1.43,1.53,1.53,0,0,0-1.28-.55,1.66,1.66,0,0,0-1.32.56,2.38,2.38,0,0,0-.52,1.42Z"/><path class="cls-5" d="M214.62,29.81a4.32,4.32,0,0,1-.38,1.84,3,3,0,0,1-1.11,1.3,3.24,3.24,0,0,1-1.77.47,3.15,3.15,0,0,1-2.11-.78l-.11.6H208v-9.4h1.39v3.37h0a2.59,2.59,0,0,1,2.2-1,2.78,2.78,0,0,1,1.66.48,2.88,2.88,0,0,1,1,1.29A4.75,4.75,0,0,1,214.62,29.81Zm-1.43,0A3,3,0,0,0,212.7,28a1.57,1.57,0,0,0-1.34-.66,1.92,1.92,0,0,0-1,.28,1.89,1.89,0,0,0-.7.73,2.08,2.08,0,0,0-.25,1v2.23a3.14,3.14,0,0,0,.85.55,2.58,2.58,0,0,0,.94.17,1.78,1.78,0,0,0,1.5-.68A2.94,2.94,0,0,0,213.19,29.81Z"/><path class="cls-5" d="M226.19,26.17a2.06,2.06,0,0,1-.46,1.37,2.24,2.24,0,0,1-1.2.74v0A2.37,2.37,0,0,1,226,29a2.29,2.29,0,0,1,.55,1.59,2.27,2.27,0,0,1-.9,2,4,4,0,0,1-2.34.64h-3.49v-9.4h3.42a3.61,3.61,0,0,1,2.11.56A2,2,0,0,1,226.19,26.17ZM221.28,25v2.88H223a2,2,0,0,0,1.28-.38,1.36,1.36,0,0,0,.46-1.12,1.22,1.22,0,0,0-.45-1.06A2.31,2.31,0,0,0,223,25Zm0,3.93v3.22h1.79a2.51,2.51,0,0,0,1.47-.39,1.43,1.43,0,0,0,.56-1.26c0-1.05-.65-1.57-2-1.57Z"/><path class="cls-5" d="M228.2,28a13.38,13.38,0,0,0-.09-1.54h1.33a6.16,6.16,0,0,1,.1.94h0a2.21,2.21,0,0,1,.79-.84,2.57,2.57,0,0,1,1.29-.29l.4,0L232,27.48a2.23,2.23,0,0,0-.47,0,1.74,1.74,0,0,0-1.42.61,2.42,2.42,0,0,0-.5,1.57v3.62h-1.4Z"/><path class="cls-5" d="M239.55,29.8a4.11,4.11,0,0,1-.42,1.89A3.11,3.11,0,0,1,237.92,33a3.71,3.71,0,0,1-1.88.45,3.55,3.55,0,0,1-1.85-.46,3.15,3.15,0,0,1-1.2-1.28,4.07,4.07,0,0,1-.42-1.88,4.13,4.13,0,0,1,.41-1.88,2.91,2.91,0,0,1,1.19-1.24,3.72,3.72,0,0,1,1.87-.45,3.79,3.79,0,0,1,1.9.45,3,3,0,0,1,1.2,1.24A4.13,4.13,0,0,1,239.55,29.8Zm-5.53,0a3.07,3.07,0,0,0,.49,1.83,1.77,1.77,0,0,0,1.53.68,1.84,1.84,0,0,0,1.57-.68,3,3,0,0,0,.5-1.83,2.91,2.91,0,0,0-.5-1.8,1.86,1.86,0,0,0-1.57-.67,1.78,1.78,0,0,0-1.53.67A3,3,0,0,0,234,29.8Z"/><path class="cls-5" d="M250.53,26.42l-1.91,6.82h-1.54l-1.64-5.34h0l-1.63,5.34h-1.53l-1.91-6.82h1.46l1.28,5.3h0l1.62-5.3h1.46l1.63,5.3h0l1.29-5.3Z"/><path class="cls-5" d="M256.1,27l-.59.86a3.1,3.1,0,0,0-1.66-.51,1.66,1.66,0,0,0-.9.21.68.68,0,0,0-.34.6.82.82,0,0,0,.14.5,1.17,1.17,0,0,0,.47.32,7.6,7.6,0,0,0,1,.29,3.42,3.42,0,0,1,1.53.74,1.75,1.75,0,0,1,.5,1.29,1.89,1.89,0,0,1-.37,1.18,2.32,2.32,0,0,1-1,.74,3.78,3.78,0,0,1-1.36.24,3.81,3.81,0,0,1-2.48-.78l.64-.88a3.45,3.45,0,0,0,.85.44,3.1,3.1,0,0,0,.94.13,1.65,1.65,0,0,0,1-.25.85.85,0,0,0,.35-.74.82.82,0,0,0-.14-.5,1,1,0,0,0-.45-.31,7.12,7.12,0,0,0-1-.29,3.37,3.37,0,0,1-1.51-.73,1.88,1.88,0,0,1,.22-2.74,3,3,0,0,1,1.88-.54A3.65,3.65,0,0,1,256.1,27Z"/><path class="cls-5" d="M263.63,30.33h-4.91a2.16,2.16,0,0,0,.61,1.45,2,2,0,0,0,1.46.53,3.09,3.09,0,0,0,1-.16,4.78,4.78,0,0,0,1-.48l.61.89a4.21,4.21,0,0,1-1.24.65,4.85,4.85,0,0,1-1.48.21,3.53,3.53,0,0,1-1.82-.45,2.86,2.86,0,0,1-1.16-1.27,4.18,4.18,0,0,1-.4-1.89,3.84,3.84,0,0,1,.85-2.6,3,3,0,0,1,2.4-1,2.83,2.83,0,0,1,2.31,1,3.93,3.93,0,0,1,.79,2.57A4.86,4.86,0,0,1,263.63,30.33Zm-1.33-1.07a2.37,2.37,0,0,0-.47-1.43,1.55,1.55,0,0,0-1.28-.55,1.63,1.63,0,0,0-1.32.56,2.39,2.39,0,0,0-.53,1.42Z"/><path class="cls-5" d="M265.35,28a13.38,13.38,0,0,0-.09-1.54h1.32a6.33,6.33,0,0,1,.11.94h0a2.07,2.07,0,0,1,.79-.84,2.57,2.57,0,0,1,1.29-.29l.4,0-.07,1.21a2.13,2.13,0,0,0-.46,0,1.72,1.72,0,0,0-1.42.61,2.37,2.37,0,0,0-.51,1.57v3.62h-1.39Z"/><path class="cls-5" d="M264.67,233.28h-73a2.67,2.67,0,0,1-2.66-2.66v-44.4a2.67,2.67,0,0,1,2.66-2.66h73a2.66,2.66,0,0,1,2.66,2.66v44.4A2.66,2.66,0,0,1,264.67,233.28Zm-73-48a.89.89,0,0,0-.89.9v44.4a.89.89,0,0,0,.89.89h73a.89.89,0,0,0,.89-.89v-44.4a.89.89,0,0,0-.89-.9Z"/><path class="cls-5" d="M271.75,254.51H185.09a2.66,2.66,0,0,1-2.66-2.66v-3.73a.88.88,0,0,1,1.76,0v3.73a.89.89,0,0,0,.9.89h86.66a.89.89,0,0,0,.89-.89v-3.73a.89.89,0,0,1,1.77,0v3.73A2.67,2.67,0,0,1,271.75,254.51Z"/><path class="cls-5" d="M261.28,229h-66.5a.89.89,0,0,1-.89-.89V188.86a.88.88,0,0,1,.89-.88h66.5a.88.88,0,0,1,.88.88v39.25A.89.89,0,0,1,261.28,229Zm-65.62-1.77h64.73V189.75H195.66Z"/><polygon class="cls-6" points="235 188.86 207.75 228.11 217.34 228.11 244.08 188.86 235 188.86"/><polygon class="cls-6" points="248.33 188.86 221.08 228.11 225.06 228.11 251.81 188.86 248.33 188.86"/><path class="cls-5" d="M273.52,249H183.31a.88.88,0,0,1-.79-1.27l7.36-15a.89.89,0,0,1,1.59.78l-6.74,13.76H272.1l-6.74-13.76a.89.89,0,0,1,1.59-.78l7.37,15a.91.91,0,0,1-.05.86A.87.87,0,0,1,273.52,249Z"/><path class="cls-5" d="M261.28,237.75h-66.5a.89.89,0,1,1,0-1.77h66.5a.89.89,0,0,1,0,1.77Z"/><path class="cls-5" d="M239.64,245.6H216.31a.89.89,0,0,1-.85-1.14l1.31-4.43a.88.88,0,0,1,.85-.63h20.7a.87.87,0,0,1,.85.63l1.32,4.43a.9.9,0,0,1-.14.78A.88.88,0,0,1,239.64,245.6Zm-22.15-1.77h21l-.79-2.67H218.28Z"/><path class="cls-5" d="M428.11,30.69l-.82.93A3.77,3.77,0,0,0,426.2,31a3.66,3.66,0,0,0-1.27-.23,3,3,0,0,0-2.44,1,4.21,4.21,0,0,0-.8,2.68,4.14,4.14,0,0,0,.8,2.65,2.88,2.88,0,0,0,2.41,1,3.39,3.39,0,0,0,1.35-.27,3.89,3.89,0,0,0,1.13-.72l.88.95a4.52,4.52,0,0,1-1.49,1,5,5,0,0,1-1.92.36,5,5,0,0,1-2.54-.62A4,4,0,0,1,420.72,37a6.46,6.46,0,0,1,0-5.17,4,4,0,0,1,1.61-1.73,4.86,4.86,0,0,1,2.54-.63,5.33,5.33,0,0,1,1.81.31A4.1,4.1,0,0,1,428.11,30.69Z"/><path class="cls-5" d="M429.07,37.27a1.92,1.92,0,0,1,.95-1.85,6,6,0,0,1,2.81-.52h.68v-.36c0-.86-.51-1.3-1.54-1.3a3.91,3.91,0,0,0-2,.55l-.47-.93a4.91,4.91,0,0,1,1.21-.52,5.22,5.22,0,0,1,1.35-.18,3,3,0,0,1,2.18.68,2.86,2.86,0,0,1,.68,2.09v2.69a14.34,14.34,0,0,0,.11,1.54h-1.29a5.16,5.16,0,0,1-.09-.81h0a2.53,2.53,0,0,1-.93.75,3.39,3.39,0,0,1-1.39.25,2.33,2.33,0,0,1-1.6-.54A2,2,0,0,1,429.07,37.27Zm4.44-.69v-.7H433a4.33,4.33,0,0,0-1.89.3,1,1,0,0,0-.57,1,1,1,0,0,0,.3.79,1.23,1.23,0,0,0,.84.27,2,2,0,0,0,1-.24,1.64,1.64,0,0,0,.65-.63A1.57,1.57,0,0,0,433.51,36.58Z"/><path class="cls-5" d="M437,33.89a11.59,11.59,0,0,0-.1-1.54h1.33a7.69,7.69,0,0,1,.11.78h0a2.69,2.69,0,0,1,.89-.69,2.87,2.87,0,0,1,1.28-.27,2.74,2.74,0,0,1,1.38.31,2,2,0,0,1,.83.87h0a2.91,2.91,0,0,1,3.74-.82,2.19,2.19,0,0,1,.84,1,3.17,3.17,0,0,1,.27,1.31v4.36h-1.39V35a2,2,0,0,0-.34-1.22,1.31,1.31,0,0,0-1.12-.47,1.51,1.51,0,0,0-1.29.63,2.42,2.42,0,0,0-.47,1.52v3.71h-1.4V34.93a1.87,1.87,0,0,0-.35-1.15,1.28,1.28,0,0,0-1.1-.47,1.61,1.61,0,0,0-1.3.57,2.24,2.24,0,0,0-.47,1.44v3.85H437Z"/><path class="cls-5" d="M456.35,35.75a4.37,4.37,0,0,1-.37,1.83,3,3,0,0,1-1.09,1.3,2.93,2.93,0,0,1-1.68.48,3.26,3.26,0,0,1-2.11-.73v3.78h-1.39V33.89a11.59,11.59,0,0,0-.1-1.54h1.33c.05.36.09.64.11.86h0a2.65,2.65,0,0,1,2.3-1,2.77,2.77,0,0,1,1.65.47,2.86,2.86,0,0,1,1,1.29A4.8,4.8,0,0,1,456.35,35.75Zm-1.44,0a3,3,0,0,0-.49-1.83,1.58,1.58,0,0,0-1.34-.65,2,2,0,0,0-1,.27,2,2,0,0,0-.7.73,2.12,2.12,0,0,0-.25,1v2.23a3.58,3.58,0,0,0,.86.54,2.49,2.49,0,0,0,.93.17,1.78,1.78,0,0,0,1.51-.67A3,3,0,0,0,454.91,35.75Z"/><path class="cls-5" d="M464,39.17h-1.39V33.41h-2.9v5.76h-1.4V33.41h-1.15v-.9l1.15-.16V31.9a2.14,2.14,0,0,1,.69-1.7,3.07,3.07,0,0,1,2.09-.61,5.15,5.15,0,0,1,1.46.2,6.94,6.94,0,0,1,1.34.56l-.5,1a4.68,4.68,0,0,0-2.28-.63A1.58,1.58,0,0,0,460,31a1.3,1.3,0,0,0-.32.95v.4H464Z"/><path class="cls-5" d="M466.13,33.89a13.52,13.52,0,0,0-.09-1.54h1.32a6.48,6.48,0,0,1,.11.94h0a2,2,0,0,1,.79-.83,2.47,2.47,0,0,1,1.29-.29,2.73,2.73,0,0,1,.4,0l-.07,1.2a3,3,0,0,0-.46,0A1.75,1.75,0,0,0,468,34a2.37,2.37,0,0,0-.51,1.57v3.62h-1.39Z"/><path class="cls-5" d="M476.81,36.26H471.9a2.25,2.25,0,0,0,.61,1.46,2,2,0,0,0,1.46.52,3.15,3.15,0,0,0,1.06-.16,4.29,4.29,0,0,0,1-.48l.61.89a4,4,0,0,1-1.24.65,4.56,4.56,0,0,1-1.48.22,3.55,3.55,0,0,1-1.83-.45,3.1,3.1,0,0,1-1.16-1.27,4.37,4.37,0,0,1-.39-1.89,3.85,3.85,0,0,1,.84-2.6,3,3,0,0,1,2.41-1,2.82,2.82,0,0,1,2.3,1,4,4,0,0,1,.8,2.58A3.24,3.24,0,0,1,476.81,36.26Zm-1.33-1.07a2.27,2.27,0,0,0-.47-1.43,1.56,1.56,0,0,0-1.28-.55,1.63,1.63,0,0,0-1.32.57,2.33,2.33,0,0,0-.52,1.41Z"/><path class="cls-5" d="M493.94,29.78l-2.72,9.39h-1.49l-2.21-7.52h0l-2.18,7.52h-1.49l-2.72-9.39h1.52l2,7.47h0l2.11-7.47h1.53l2.13,7.47h0l2.05-7.47Z"/><path class="cls-5" d="M500.56,36.26h-4.91a2.2,2.2,0,0,0,.61,1.46,2,2,0,0,0,1.46.52,3.05,3.05,0,0,0,1-.16,3.91,3.91,0,0,0,1-.48l.61.89a3.88,3.88,0,0,1-1.24.65,4.52,4.52,0,0,1-1.48.22,3.53,3.53,0,0,1-1.82-.45,3,3,0,0,1-1.16-1.27,4.23,4.23,0,0,1-.4-1.89,3.81,3.81,0,0,1,.85-2.6,3,3,0,0,1,2.4-1,2.83,2.83,0,0,1,2.31,1,4,4,0,0,1,.8,2.58A4.74,4.74,0,0,1,500.56,36.26Zm-1.33-1.07a2.33,2.33,0,0,0-.47-1.43,1.57,1.57,0,0,0-1.28-.55,1.61,1.61,0,0,0-1.32.57,2.33,2.33,0,0,0-.53,1.41Z"/><path class="cls-5" d="M508.93,35.75a4.31,4.31,0,0,1-.38,1.83,3,3,0,0,1-1.12,1.3,3.17,3.17,0,0,1-1.77.48,3.13,3.13,0,0,1-2.11-.79l-.1.6h-1.16V29.78h1.4v3.37h0a2.57,2.57,0,0,1,2.2-1,2.8,2.8,0,0,1,1.66.47,3,3,0,0,1,1,1.29A4.8,4.8,0,0,1,508.93,35.75Zm-1.44,0a3.06,3.06,0,0,0-.48-1.83,1.59,1.59,0,0,0-1.35-.65,1.91,1.91,0,0,0-1.72,1,2.12,2.12,0,0,0-.25,1v2.23a3.18,3.18,0,0,0,.85.54,2.54,2.54,0,0,0,.94.17,1.78,1.78,0,0,0,1.5-.67A3,3,0,0,0,507.49,35.75Z"/><path class="cls-5" d="M520.3,39.17,519.53,37h-4.14l-.81,2.15h-1.53l3.66-9.39h1.5l3.66,9.39Zm-2.84-8-1.67,4.71h3.34Z"/><path class="cls-5" d="M529.61,35.75a4.53,4.53,0,0,1-.37,1.83,3,3,0,0,1-1.09,1.3,3,3,0,0,1-1.69.48,3.23,3.23,0,0,1-2.1-.73v3.78H523V33.89a13.52,13.52,0,0,0-.09-1.54h1.33c0,.36.08.64.1.86h0a2.63,2.63,0,0,1,2.29-1,2.78,2.78,0,0,1,1.66.47,2.93,2.93,0,0,1,1,1.29A4.8,4.8,0,0,1,529.61,35.75Zm-1.45,0a3.06,3.06,0,0,0-.48-1.83,1.59,1.59,0,0,0-1.35-.65,1.91,1.91,0,0,0-1.72,1,2.12,2.12,0,0,0-.25,1v2.23a3.53,3.53,0,0,0,.85.54,2.54,2.54,0,0,0,.94.17,1.76,1.76,0,0,0,1.5-.67A3,3,0,0,0,528.16,35.75Z"/><path class="cls-5" d="M538,35.75a4.37,4.37,0,0,1-.37,1.83,3,3,0,0,1-1.09,1.3,2.93,2.93,0,0,1-1.68.48,3.26,3.26,0,0,1-2.11-.73v3.78h-1.39V33.89a11.59,11.59,0,0,0-.1-1.54h1.33c.05.36.09.64.11.86h0a2.65,2.65,0,0,1,2.3-1,2.77,2.77,0,0,1,1.65.47,2.86,2.86,0,0,1,1,1.29A4.8,4.8,0,0,1,538,35.75Zm-1.44,0a3,3,0,0,0-.49-1.83,1.58,1.58,0,0,0-1.34-.65,1.94,1.94,0,0,0-1,.27,1.91,1.91,0,0,0-.71.73,2.12,2.12,0,0,0-.25,1v2.23a3.58,3.58,0,0,0,.86.54,2.49,2.49,0,0,0,.93.17,1.78,1.78,0,0,0,1.51-.67A3,3,0,0,0,536.51,35.75Z"/><path class="cls-5" d="M438.66,407.16l.72-.92a3.84,3.84,0,0,0,1.15.6,4.16,4.16,0,0,0,1.32.2,2.41,2.41,0,0,0,1.44-.4,1.37,1.37,0,0,0,.53-1.17,1.4,1.4,0,0,0-.26-.89,1.77,1.77,0,0,0-.72-.55,8.24,8.24,0,0,0-1.26-.4,4.56,4.56,0,0,1-1.95-1A2.23,2.23,0,0,1,439,401a2.25,2.25,0,0,1,.43-1.39,2.65,2.65,0,0,1,1.16-.88,4.29,4.29,0,0,1,1.65-.3,4.87,4.87,0,0,1,2.94.92l-.65.95a5,5,0,0,0-1.11-.52,4.05,4.05,0,0,0-1.18-.17,2.28,2.28,0,0,0-1.3.33,1.11,1.11,0,0,0-.5,1,1.13,1.13,0,0,0,.48,1,5.25,5.25,0,0,0,1.57.61,5,5,0,0,1,2.12,1,2.41,2.41,0,0,1,.73,1.91,2.62,2.62,0,0,1-.46,1.56,2.77,2.77,0,0,1-1.26,1,4.68,4.68,0,0,1-1.76.32,5.13,5.13,0,0,1-1.72-.29A4.79,4.79,0,0,1,438.66,407.16Z"/><path class="cls-5" d="M452.74,405.11h-4.91a2.25,2.25,0,0,0,.61,1.46,2,2,0,0,0,1.46.52,3.05,3.05,0,0,0,1.05-.16,5.12,5.12,0,0,0,1-.48l.61.89a4.34,4.34,0,0,1-1.24.65,4.85,4.85,0,0,1-1.48.21,3.55,3.55,0,0,1-1.83-.45,3,3,0,0,1-1.16-1.26,4.37,4.37,0,0,1-.4-1.89,3.9,3.9,0,0,1,.85-2.61,3,3,0,0,1,2.4-1,2.83,2.83,0,0,1,2.31,1,4,4,0,0,1,.8,2.58A4.74,4.74,0,0,1,452.74,405.11ZM451.41,404a2.31,2.31,0,0,0-.47-1.43,1.57,1.57,0,0,0-1.28-.55,1.62,1.62,0,0,0-1.32.57,2.33,2.33,0,0,0-.52,1.41Z"/><path class="cls-5" d="M454.48,398.63h1.39V408h-1.39Z"/><path class="cls-5" d="M464,408h-1.39v-5.76h-2.9V408h-1.4v-5.76h-1.15v-.9l1.15-.16v-.45A2.16,2.16,0,0,1,459,399a3.12,3.12,0,0,1,2.09-.6,5.15,5.15,0,0,1,1.46.2,6.94,6.94,0,0,1,1.34.56l-.5,1a4.77,4.77,0,0,0-2.28-.62,1.53,1.53,0,0,0-1.08.31,1.26,1.26,0,0,0-.32.95v.4H464Z"/><path class="cls-5" d="M472.05,405.11h-4.9a2.2,2.2,0,0,0,.61,1.46,2,2,0,0,0,1.45.52,3.15,3.15,0,0,0,1.06-.16,4.78,4.78,0,0,0,1-.48l.61.89a4.21,4.21,0,0,1-1.24.65,4.85,4.85,0,0,1-1.48.21,3.51,3.51,0,0,1-1.82-.45,2.89,2.89,0,0,1-1.16-1.26,4.23,4.23,0,0,1-.4-1.89,3.85,3.85,0,0,1,.85-2.61,3,3,0,0,1,2.4-1,2.83,2.83,0,0,1,2.31,1,4,4,0,0,1,.79,2.58A3.24,3.24,0,0,1,472.05,405.11ZM470.73,404a2.37,2.37,0,0,0-.47-1.43,1.58,1.58,0,0,0-1.28-.55,1.61,1.61,0,0,0-1.32.57,2.33,2.33,0,0,0-.53,1.41Z"/><path class="cls-5" d="M487.42,398.63V408H486l0-7.71h0L482.85,408h-1.09l-3.1-7.71h0l0,7.71h-1.35v-9.39h2.12l2.88,7.45h0l2.9-7.45Z"/><path class="cls-5" d="M496.13,404.58a4.11,4.11,0,0,1-.42,1.89,3.08,3.08,0,0,1-1.2,1.28,3.76,3.76,0,0,1-1.88.45,3.56,3.56,0,0,1-1.86-.46,3.15,3.15,0,0,1-1.2-1.28,4.42,4.42,0,0,1,0-3.76,2.91,2.91,0,0,1,1.19-1.24,3.67,3.67,0,0,1,1.87-.45,3.78,3.78,0,0,1,1.89.45,2.87,2.87,0,0,1,1.2,1.24A4,4,0,0,1,496.13,404.58Zm-5.53,0a3.07,3.07,0,0,0,.5,1.83,1.77,1.77,0,0,0,1.53.68,1.84,1.84,0,0,0,1.57-.68,3.07,3.07,0,0,0,.5-1.83,3,3,0,0,0-.5-1.8,1.86,1.86,0,0,0-1.57-.67,1.8,1.8,0,0,0-1.54.67A3,3,0,0,0,490.6,404.58Z"/><path class="cls-5" d="M504.48,404.6a4.31,4.31,0,0,1-.38,1.83,3,3,0,0,1-1.12,1.3,3.24,3.24,0,0,1-1.77.47,3.17,3.17,0,0,1-2.11-.78l-.1.6h-1.16v-9.39h1.4V402h0a2.59,2.59,0,0,1,2.2-1,2.81,2.81,0,0,1,1.66.48,3,3,0,0,1,1,1.29A4.76,4.76,0,0,1,504.48,404.6Zm-1.44,0a3.06,3.06,0,0,0-.48-1.83,1.57,1.57,0,0,0-1.35-.66,2,2,0,0,0-1,.28,1.89,1.89,0,0,0-.7.73,2.08,2.08,0,0,0-.25,1v2.23a3,3,0,0,0,.85.55,2.54,2.54,0,0,0,.94.17,1.79,1.79,0,0,0,1.5-.68A2.92,2.92,0,0,0,503,404.6Z"/><path class="cls-5" d="M506,399a.76.76,0,0,1,.87-.84.87.87,0,0,1,.66.23.93.93,0,0,1,.2.61.9.9,0,0,1-.2.59.87.87,0,0,1-.66.23.87.87,0,0,1-.67-.23A.85.85,0,0,1,506,399Zm1.56,2.24V408h-1.39V401.2Z"/><path class="cls-5" d="M509.77,398.63h1.39V408h-1.39Z"/><path class="cls-5" d="M519.2,405.11h-4.91a2.31,2.31,0,0,0,.61,1.46,2,2,0,0,0,1.46.52,3.15,3.15,0,0,0,1.06-.16,5.36,5.36,0,0,0,1-.48l.61.89a4.21,4.21,0,0,1-1.24.65,4.85,4.85,0,0,1-1.48.21,3.48,3.48,0,0,1-1.82-.45,3,3,0,0,1-1.17-1.26,4.37,4.37,0,0,1-.39-1.89,3.85,3.85,0,0,1,.85-2.61,3,3,0,0,1,2.4-1,2.85,2.85,0,0,1,2.31,1,4,4,0,0,1,.79,2.58A3.24,3.24,0,0,1,519.2,405.11ZM517.88,404a2.32,2.32,0,0,0-.48-1.43,1.56,1.56,0,0,0-1.28-.55,1.63,1.63,0,0,0-1.32.57,2.39,2.39,0,0,0-.52,1.41Z"/><path class="cls-5" d="M463.25,414.55l-2.72,9.39H459l-2.22-7.52h0l-2.17,7.52h-1.49l-2.72-9.39h1.52l2,7.46h0l2.11-7.46h1.52l2.14,7.46h0l2.05-7.46Z"/><path class="cls-5" d="M469.87,421H465a2.2,2.2,0,0,0,.61,1.46A2,2,0,0,0,467,423a3.09,3.09,0,0,0,1.05-.16,4.78,4.78,0,0,0,1-.48l.61.89a4.21,4.21,0,0,1-1.24.65,4.81,4.81,0,0,1-1.48.21,3.53,3.53,0,0,1-1.82-.45,2.89,2.89,0,0,1-1.16-1.26,4.23,4.23,0,0,1-.4-1.89,3.85,3.85,0,0,1,.85-2.61,3,3,0,0,1,2.4-1,2.83,2.83,0,0,1,2.31,1,4,4,0,0,1,.8,2.58A4.74,4.74,0,0,1,469.87,421ZM468.54,420a2.37,2.37,0,0,0-.47-1.43,1.55,1.55,0,0,0-1.28-.55,1.63,1.63,0,0,0-1.32.56,2.39,2.39,0,0,0-.53,1.42Z"/><path class="cls-5" d="M478.24,420.52a4.31,4.31,0,0,1-.38,1.83,3,3,0,0,1-1.12,1.3,3.24,3.24,0,0,1-1.77.47,3.17,3.17,0,0,1-2.11-.78l-.1.6H471.6v-9.39H473v3.36h0a2.58,2.58,0,0,1,2.2-1,2.81,2.81,0,0,1,1.66.48,2.86,2.86,0,0,1,1,1.29A4.58,4.58,0,0,1,478.24,420.52Zm-1.44,0a3.06,3.06,0,0,0-.48-1.83A1.57,1.57,0,0,0,475,418a2,2,0,0,0-1,.28,1.89,1.89,0,0,0-.7.73,2.08,2.08,0,0,0-.25,1v2.23a3,3,0,0,0,.85.55,2.54,2.54,0,0,0,.94.17,1.79,1.79,0,0,0,1.5-.68A2.92,2.92,0,0,0,476.8,420.52Z"/><path class="cls-5" d="M489.61,423.94l-.77-2.15H484.7l-.81,2.15h-1.53l3.66-9.39h1.5l3.66,9.39Zm-2.84-8-1.68,4.71h3.35Z"/><path class="cls-5" d="M498.92,420.52a4.53,4.53,0,0,1-.37,1.83,3.08,3.08,0,0,1-1.09,1.3,3,3,0,0,1-1.69.47,3.18,3.18,0,0,1-2.1-.73v3.78h-1.4v-8.51a13.38,13.38,0,0,0-.09-1.54h1.33c.05.35.08.64.1.86h0a2.61,2.61,0,0,1,2.29-1.05,2.78,2.78,0,0,1,1.66.48,2.93,2.93,0,0,1,1,1.29A4.76,4.76,0,0,1,498.92,420.52Zm-1.45,0a3.06,3.06,0,0,0-.48-1.83,1.58,1.58,0,0,0-1.35-.66,2,2,0,0,0-1,.28,1.82,1.82,0,0,0-.7.73,2.08,2.08,0,0,0-.25,1v2.23a3.3,3.3,0,0,0,.85.55,2.54,2.54,0,0,0,.94.17,1.77,1.77,0,0,0,1.5-.68A2.92,2.92,0,0,0,497.47,420.52Z"/><path class="cls-5" d="M507.26,420.52a4.37,4.37,0,0,1-.37,1.83,3.08,3.08,0,0,1-1.09,1.3,3,3,0,0,1-1.68.47,3.19,3.19,0,0,1-2.11-.73v3.78h-1.39v-8.51a13.41,13.41,0,0,0-.1-1.54h1.33c0,.35.09.64.11.86h0a2.63,2.63,0,0,1,2.3-1.05,2.77,2.77,0,0,1,1.65.48,2.86,2.86,0,0,1,1,1.29A4.76,4.76,0,0,1,507.26,420.52Zm-1.44,0a3,3,0,0,0-.49-1.83A1.57,1.57,0,0,0,504,418a2,2,0,0,0-1,.28,1.89,1.89,0,0,0-.7.73,2.08,2.08,0,0,0-.25,1v2.23a3.34,3.34,0,0,0,.86.55,2.45,2.45,0,0,0,.93.17,1.79,1.79,0,0,0,1.51-.68A2.92,2.92,0,0,0,505.82,420.52Z"/><path class="cls-5" d="M166,398.63,162.64,404v4h-1.45v-4l-3.29-5.35h1.67l2.4,4.19h0l2.37-4.19Z"/><path class="cls-5" d="M172.33,404.58a4.24,4.24,0,0,1-.41,1.89,3.11,3.11,0,0,1-1.21,1.28,3.74,3.74,0,0,1-1.88.45,3.62,3.62,0,0,1-1.86-.46,3.15,3.15,0,0,1-1.2-1.28,4.16,4.16,0,0,1-.41-1.88,4,4,0,0,1,.41-1.88,2.91,2.91,0,0,1,1.19-1.24,4.15,4.15,0,0,1,3.76,0,2.87,2.87,0,0,1,1.2,1.24A4,4,0,0,1,172.33,404.58Zm-5.53,0a3.07,3.07,0,0,0,.5,1.83,1.77,1.77,0,0,0,1.53.68,1.84,1.84,0,0,0,1.57-.68,3.07,3.07,0,0,0,.5-1.83,3,3,0,0,0-.5-1.8,1.86,1.86,0,0,0-1.57-.67,1.8,1.8,0,0,0-1.54.67A3,3,0,0,0,166.8,404.58Z"/><path class="cls-5" d="M174,405.38V401.2h1.4v4a2.38,2.38,0,0,0,.37,1.41,1.32,1.32,0,0,0,1.16.51,1.67,1.67,0,0,0,1.36-.63,2.5,2.5,0,0,0,.51-1.61V401.2h1.39v5.28a14.34,14.34,0,0,0,.11,1.54h-1.33a7,7,0,0,1-.11-.86h0a2.58,2.58,0,0,1-2.26,1,2.38,2.38,0,0,1-1.93-.78A3,3,0,0,1,174,405.38Z"/><path class="cls-5" d="M192.34,404.58a4.11,4.11,0,0,1-.42,1.89,3.11,3.11,0,0,1-1.21,1.28,3.7,3.7,0,0,1-1.87.45,3.56,3.56,0,0,1-1.86-.46,3.15,3.15,0,0,1-1.2-1.28,4,4,0,0,1-.42-1.88,4.16,4.16,0,0,1,.41-1.88,2.93,2.93,0,0,1,1.2-1.24,3.67,3.67,0,0,1,1.87-.45,3.78,3.78,0,0,1,1.89.45,3,3,0,0,1,1.2,1.24A4.16,4.16,0,0,1,192.34,404.58Zm-5.53,0a3,3,0,0,0,.5,1.83,1.77,1.77,0,0,0,1.53.68,1.82,1.82,0,0,0,1.56-.68,3,3,0,0,0,.51-1.83,2.91,2.91,0,0,0-.51-1.8,1.84,1.84,0,0,0-1.56-.67,1.8,1.8,0,0,0-1.54.67A3,3,0,0,0,186.81,404.58Z"/><path class="cls-5" d="M194,402.74a11.48,11.48,0,0,0-.1-1.54h1.33a8,8,0,0,1,.11.94h0a2.11,2.11,0,0,1,.79-.83,2.5,2.5,0,0,1,1.3-.3l.39,0-.06,1.21a2.17,2.17,0,0,0-.47,0,1.74,1.74,0,0,0-1.42.61,2.42,2.42,0,0,0-.5,1.57V408H194Z"/><path class="cls-5" d="M205,409.53a3.22,3.22,0,0,1-.87,1.44,2.09,2.09,0,0,1-1.42.46,3.27,3.27,0,0,1-1.06-.17l.27-1.05a2.73,2.73,0,0,0,.59.09,1,1,0,0,0,.75-.27,2.24,2.24,0,0,0,.47-.82l.4-1.14-2.66-6.87H203l1.81,5.36h0l1.66-5.36h1.43Z"/><path class="cls-5" d="M215.49,404.58a4.11,4.11,0,0,1-.42,1.89,3.11,3.11,0,0,1-1.21,1.28,3.7,3.7,0,0,1-1.87.45,3.56,3.56,0,0,1-1.86-.46,3.15,3.15,0,0,1-1.2-1.28,4,4,0,0,1-.42-1.88,4.16,4.16,0,0,1,.41-1.88,2.93,2.93,0,0,1,1.2-1.24A3.67,3.67,0,0,1,212,401a3.78,3.78,0,0,1,1.89.45,3,3,0,0,1,1.2,1.24A4.16,4.16,0,0,1,215.49,404.58Zm-5.53,0a3.07,3.07,0,0,0,.49,1.83,2.11,2.11,0,0,0,3.1,0,3,3,0,0,0,.51-1.83,2.91,2.91,0,0,0-.51-1.8,1.84,1.84,0,0,0-1.56-.67,1.8,1.8,0,0,0-1.54.67A3,3,0,0,0,210,404.58Z"/><path class="cls-5" d="M217.12,405.38V401.2h1.41v4a2.45,2.45,0,0,0,.36,1.41,1.32,1.32,0,0,0,1.16.51,1.66,1.66,0,0,0,1.36-.63,2.5,2.5,0,0,0,.51-1.61V401.2h1.4v5.28a14,14,0,0,0,.1,1.54H222.1a5.45,5.45,0,0,1-.11-.86h0a2.57,2.57,0,0,1-2.25,1,2.37,2.37,0,0,1-1.93-.78A3.05,3.05,0,0,1,217.12,405.38Z"/><path class="cls-5" d="M225.48,402.74a13.38,13.38,0,0,0-.09-1.54h1.32a8,8,0,0,1,.11.94h0a2.11,2.11,0,0,1,.79-.83,2.53,2.53,0,0,1,1.3-.3l.4,0-.07,1.21a2.13,2.13,0,0,0-.46,0,1.71,1.71,0,0,0-1.42.61,2.37,2.37,0,0,0-.51,1.57V408h-1.39Z"/><path class="cls-5" d="M237,401a4.15,4.15,0,0,1,1.22.19,3.43,3.43,0,0,1,1.06.54l-.54,1a3,3,0,0,0-1.73-.54,1.81,1.81,0,0,0-1.53.65,2.79,2.79,0,0,0-.51,1.78,2.86,2.86,0,0,0,.51,1.77A1.79,1.79,0,0,0,237,407a3.31,3.31,0,0,0,1.76-.56l.51,1a4,4,0,0,1-2.38.74,3.33,3.33,0,0,1-2-.53,2.91,2.91,0,0,1-1-1.36,4.68,4.68,0,0,1-.32-1.71,4.05,4.05,0,0,1,.42-1.89,2.91,2.91,0,0,1,1.18-1.25A3.61,3.61,0,0,1,237,401Z"/><path class="cls-5" d="M240.52,405.38V401.2h1.41v4a2.45,2.45,0,0,0,.36,1.41,1.34,1.34,0,0,0,1.16.51,1.66,1.66,0,0,0,1.36-.63,2.5,2.5,0,0,0,.51-1.61V401.2h1.4v5.28a14,14,0,0,0,.1,1.54H245.5a5.45,5.45,0,0,1-.11-.86h0a2.55,2.55,0,0,1-2.25,1,2.38,2.38,0,0,1-1.93-.78A3.05,3.05,0,0,1,240.52,405.38Z"/><path class="cls-5" d="M253,401.74l-.6.87a3,3,0,0,0-1.66-.52,1.66,1.66,0,0,0-.9.21.67.67,0,0,0-.33.6.76.76,0,0,0,.14.5,1,1,0,0,0,.46.32,6.44,6.44,0,0,0,1,.29,3.37,3.37,0,0,1,1.52.74,1.72,1.72,0,0,1,.51,1.29,1.89,1.89,0,0,1-.38,1.18,2.26,2.26,0,0,1-1,.74,3.76,3.76,0,0,1-1.35.24,3.82,3.82,0,0,1-2.49-.78l.64-.87a3.78,3.78,0,0,0,.85.43,3.09,3.09,0,0,0,.94.14,1.65,1.65,0,0,0,1-.26.85.85,0,0,0,.35-.74.9.9,0,0,0-.13-.5,1.08,1.08,0,0,0-.45-.31,8.15,8.15,0,0,0-1-.29,3.42,3.42,0,0,1-1.52-.73,1.75,1.75,0,0,1-.49-1.31,1.71,1.71,0,0,1,.71-1.43,3,3,0,0,1,1.88-.54A3.7,3.7,0,0,1,253,401.74Z"/><path class="cls-5" d="M256.35,401.2h1.75v1.06h-1.75V406c0,.69.31,1,.94,1a2.31,2.31,0,0,0,.64-.1l.2,1a3.31,3.31,0,0,1-1.11.18,2.08,2.08,0,0,1-1.51-.53,2,2,0,0,1-.55-1.51v-3.9h-1.17v-.9l1.15-.16v-1.61l1.41-.5Z"/><path class="cls-5" d="M265.93,404.58a4.11,4.11,0,0,1-.42,1.89,3.11,3.11,0,0,1-1.21,1.28,3.71,3.71,0,0,1-1.88.45,3.55,3.55,0,0,1-1.85-.46,3.15,3.15,0,0,1-1.2-1.28,4,4,0,0,1-.42-1.88,4.16,4.16,0,0,1,.41-1.88,2.91,2.91,0,0,1,1.19-1.24,3.72,3.72,0,0,1,1.87-.45,3.79,3.79,0,0,1,1.9.45,3,3,0,0,1,1.2,1.24A4.16,4.16,0,0,1,265.93,404.58Zm-5.54,0a3.07,3.07,0,0,0,.5,1.83,1.77,1.77,0,0,0,1.53.68,1.84,1.84,0,0,0,1.57-.68,3,3,0,0,0,.5-1.83,2.91,2.91,0,0,0-.5-1.8,1.86,1.86,0,0,0-1.57-.67,1.78,1.78,0,0,0-1.53.67A3,3,0,0,0,260.39,404.58Z"/><path class="cls-5" d="M267.62,402.74a13.38,13.38,0,0,0-.09-1.54h1.33a5.37,5.37,0,0,1,.1.78h0a2.76,2.76,0,0,1,2.16-1,2.77,2.77,0,0,1,1.39.32,2.08,2.08,0,0,1,.83.86h0a2.88,2.88,0,0,1,3.74-.81,2.14,2.14,0,0,1,.84,1,3.15,3.15,0,0,1,.27,1.3V408h-1.39v-4.17a2,2,0,0,0-.35-1.22,1.27,1.27,0,0,0-1.11-.48,1.51,1.51,0,0,0-1.29.63,2.44,2.44,0,0,0-.48,1.52V408h-1.39v-4.25a1.81,1.81,0,0,0-.36-1.14,1.28,1.28,0,0,0-1.1-.48,1.58,1.58,0,0,0-1.29.58,2.19,2.19,0,0,0-.47,1.44V408h-1.4Z"/><path class="cls-5" d="M286.2,405.11h-4.91a2.25,2.25,0,0,0,.61,1.46,2,2,0,0,0,1.46.52,3.05,3.05,0,0,0,1.05-.16,5.12,5.12,0,0,0,1-.48l.61.89a4.27,4.27,0,0,1-1.25.65,4.79,4.79,0,0,1-1.47.21,3.55,3.55,0,0,1-1.83-.45,3,3,0,0,1-1.16-1.26,4.37,4.37,0,0,1-.4-1.89,3.9,3.9,0,0,1,.85-2.61,3,3,0,0,1,2.4-1,2.83,2.83,0,0,1,2.31,1,4,4,0,0,1,.8,2.58A4.74,4.74,0,0,1,286.2,405.11ZM284.87,404a2.31,2.31,0,0,0-.47-1.43,1.57,1.57,0,0,0-1.28-.55,1.61,1.61,0,0,0-1.32.57,2.33,2.33,0,0,0-.52,1.41Z"/><path class="cls-5" d="M287.92,402.74a13.38,13.38,0,0,0-.09-1.54h1.33a7.76,7.76,0,0,1,.1.94h0a2,2,0,0,1,.79-.83,2.46,2.46,0,0,1,1.29-.3l.4,0-.07,1.21a2.07,2.07,0,0,0-.46,0,1.74,1.74,0,0,0-1.42.61,2.37,2.37,0,0,0-.51,1.57V408h-1.39Z"/><path class="cls-5" d="M297.27,401.74l-.59.87a3,3,0,0,0-1.66-.52,1.66,1.66,0,0,0-.9.21.67.67,0,0,0-.33.6.76.76,0,0,0,.14.5,1,1,0,0,0,.46.32,6.61,6.61,0,0,0,1,.29,3.36,3.36,0,0,1,1.53.74,1.71,1.71,0,0,1,.5,1.29,1.89,1.89,0,0,1-.37,1.18,2.26,2.26,0,0,1-1,.74,3.78,3.78,0,0,1-1.36.24,3.81,3.81,0,0,1-2.48-.78l.64-.87a3.78,3.78,0,0,0,.85.43,3.09,3.09,0,0,0,.94.14,1.65,1.65,0,0,0,1-.26.85.85,0,0,0,.35-.74.9.9,0,0,0-.13-.5,1.05,1.05,0,0,0-.46-.31,7.35,7.35,0,0,0-1-.29,3.42,3.42,0,0,1-1.52-.73,1.88,1.88,0,0,1,.22-2.74A3,3,0,0,1,295,401,3.65,3.65,0,0,1,297.27,401.74Z"/><path class="cls-5" d="M445.59,81h-2.66a.89.89,0,0,1,0-1.77h2.66a.89.89,0,0,1,0,1.77Zm-8,0H435a.89.89,0,0,1,0-1.77h2.66a.89.89,0,0,1,0,1.77Zm-8,0H427a.89.89,0,0,1,0-1.77h2.66a.89.89,0,0,1,0,1.77Zm-8,0h-2.65a.89.89,0,1,1,0-1.77h2.65a.89.89,0,0,1,0,1.77Zm-8,0H411.1a.89.89,0,1,1,0-1.77h2.65a.89.89,0,0,1,0,1.77Zm-8,0h-2.65a.89.89,0,1,1,0-1.77h2.65a.89.89,0,0,1,0,1.77Zm-8,0h-2.65a.89.89,0,1,1,0-1.77h2.65a.89.89,0,0,1,0,1.77Zm-8,0h-2.65a.89.89,0,1,1,0-1.77h2.65a.89.89,0,0,1,0,1.77Zm-8,0h-2.65a.89.89,0,1,1,0-1.77h2.65a.89.89,0,0,1,0,1.77Zm-8,0H371.3a.89.89,0,1,1,0-1.77H374A.89.89,0,0,1,374,81Zm-8,0h-2.65a.89.89,0,1,1,0-1.77H366A.89.89,0,0,1,366,81Zm-8,0h-2.65a.89.89,0,1,1,0-1.77H358A.89.89,0,0,1,358,81Zm-8,0h-2.52a.89.89,0,1,1,0-1.77h2.52a.89.89,0,0,1,0,1.77Z"/><path class="cls-5" d="M347.15,86.59a.89.89,0,0,1-.62-.26l-5.6-5.6a.88.88,0,0,1,0-1.25l5.59-5.59a.89.89,0,0,1,1.25,0,.88.88,0,0,1,0,1.25l-5,5,5,5a.89.89,0,0,1-.63,1.51Z"/><path class="cls-5" d="M584.25,81h-2.66a.89.89,0,0,1,0-1.77h2.66a.89.89,0,0,1,0,1.77Zm-8,0h-2.65a.89.89,0,1,1,0-1.77h2.65a.89.89,0,0,1,0,1.77Zm-8,0h-2.65a.89.89,0,1,1,0-1.77h2.65a.89.89,0,0,1,0,1.77Zm-8,0h-2.65a.89.89,0,1,1,0-1.77h2.65a.89.89,0,0,1,0,1.77Zm-8,0h-2.65a.89.89,0,1,1,0-1.77h2.65a.89.89,0,0,1,0,1.77Zm-8,0H541.8a.89.89,0,1,1,0-1.77h2.65a.89.89,0,0,1,0,1.77Zm-8,0h-2.65a.89.89,0,1,1,0-1.77h2.65a.89.89,0,0,1,0,1.77Zm-8,0h-2.65a.89.89,0,1,1,0-1.77h2.65a.89.89,0,0,1,0,1.77Zm-8,0h-2.65a.89.89,0,1,1,0-1.77h2.65a.89.89,0,0,1,0,1.77Z"/><path class="cls-5" d="M459.36,166.87a.89.89,0,0,1-.89-.89v-2.65a.89.89,0,1,1,1.77,0V166A.89.89,0,0,1,459.36,166.87Zm0-8a.89.89,0,0,1-.89-.89v-2.65a.89.89,0,1,1,1.77,0V158A.89.89,0,0,1,459.36,158.91Zm0-8a.89.89,0,0,1-.89-.89v-2.65a.89.89,0,1,1,1.77,0v2.65A.89.89,0,0,1,459.36,151Zm0-8a.89.89,0,0,1-.89-.89v-2.65a.89.89,0,0,1,1.77,0v2.65A.89.89,0,0,1,459.36,143Zm0-8a.89.89,0,0,1-.89-.89v-2.65a.89.89,0,0,1,1.77,0v2.65A.89.89,0,0,1,459.36,135Zm0-8a.89.89,0,0,1-.89-.89v-2.65a.89.89,0,0,1,1.77,0v2.65A.89.89,0,0,1,459.36,127.07Z"/><path class="cls-5" d="M496.76,158.79a.89.89,0,0,1-.89-.88v-2.66a.89.89,0,0,1,1.77,0v2.66A.88.88,0,0,1,496.76,158.79Zm0-8a.89.89,0,0,1-.89-.88v-2.66a.89.89,0,0,1,1.77,0V150A.88.88,0,0,1,496.76,150.83Zm0-8a.88.88,0,0,1-.89-.88v-2.66a.89.89,0,0,1,1.77,0V142A.87.87,0,0,1,496.76,142.87Zm0-8a.88.88,0,0,1-.89-.88v-2.66a.89.89,0,0,1,1.77,0V134A.87.87,0,0,1,496.76,134.91Zm0-8a.88.88,0,0,1-.89-.88v-2.66a.89.89,0,0,1,1.77,0v2.66A.87.87,0,0,1,496.76,127Zm0-8a.88.88,0,0,1-.89-.88v-2.66a.89.89,0,0,1,1.77,0v2.66A.87.87,0,0,1,496.76,119Z"/><path class="cls-5" d="M610.35,254.2v9.39h-1.47v-4.24h-4.71v4.24h-1.44V254.2h1.44v4h4.71v-4Z"/><path class="cls-5" d="M618.41,260.69H613.5a2.18,2.18,0,0,0,.61,1.45,2,2,0,0,0,1.46.52,3.05,3.05,0,0,0,1-.16,4.24,4.24,0,0,0,1-.47l.61.89a4.33,4.33,0,0,1-1.24.65,4.81,4.81,0,0,1-1.48.21,3.53,3.53,0,0,1-1.82-.45,2.91,2.91,0,0,1-1.16-1.27,4.18,4.18,0,0,1-.4-1.89,3.81,3.81,0,0,1,.85-2.6,3,3,0,0,1,2.4-1,2.8,2.8,0,0,1,2.31,1,3.91,3.91,0,0,1,.8,2.57A5.09,5.09,0,0,1,618.41,260.69Zm-1.33-1.08a2.28,2.28,0,0,0-.47-1.42,1.54,1.54,0,0,0-1.28-.55,1.6,1.6,0,0,0-1.32.56,2.38,2.38,0,0,0-.53,1.41Z"/><path class="cls-5" d="M620.13,258.31a13.65,13.65,0,0,0-.09-1.54h1.32a6.6,6.6,0,0,1,.11,1h0a2,2,0,0,1,.79-.84,2.57,2.57,0,0,1,1.29-.29,2.73,2.73,0,0,1,.4,0l-.07,1.21a2.13,2.13,0,0,0-.46,0,1.72,1.72,0,0,0-1.42.61,2.33,2.33,0,0,0-.51,1.56v3.62h-1.39Z"/><path class="cls-5" d="M631.47,260.16a4.22,4.22,0,0,1-.41,1.88,3.05,3.05,0,0,1-1.21,1.28,3.64,3.64,0,0,1-1.88.46,3.59,3.59,0,0,1-1.86-.47,3.09,3.09,0,0,1-1.2-1.28,4,4,0,0,1-.41-1.87,4,4,0,0,1,.41-1.88A2.93,2.93,0,0,1,626.1,257a3.8,3.8,0,0,1,1.87-.44,3.85,3.85,0,0,1,1.89.44,2.9,2.9,0,0,1,1.2,1.25A4,4,0,0,1,631.47,260.16Zm-5.53,0a3,3,0,0,0,.5,1.82,1.75,1.75,0,0,0,1.53.68,1.81,1.81,0,0,0,1.57-.68,3,3,0,0,0,.5-1.82,3,3,0,0,0-.5-1.8,1.83,1.83,0,0,0-1.57-.67,1.78,1.78,0,0,0-1.54.67A3,3,0,0,0,625.94,260.16Z"/><path class="cls-5" d="M637.7,263.59l-2.5-3.11-.62.58v2.53h-1.4V254.2h1.4v5.29l2.92-2.72h1.67l-3,2.8,3.24,4Z"/><path class="cls-5" d="M640.1,261v-4.18h1.4v4a2.34,2.34,0,0,0,.37,1.41,1.33,1.33,0,0,0,1.16.52,1.65,1.65,0,0,0,1.36-.64,2.47,2.47,0,0,0,.51-1.6v-3.67h1.39v5.28a14.34,14.34,0,0,0,.11,1.54h-1.33a6.53,6.53,0,0,1-.11-.86h0a2.57,2.57,0,0,1-2.26,1,2.38,2.38,0,0,1-1.93-.78A3.15,3.15,0,0,1,640.1,261Z"/><path class="cls-5" d="M659.41,255.12l-.82.92a3.77,3.77,0,0,0-1.09-.62,3.66,3.66,0,0,0-1.27-.23,3,3,0,0,0-2.44,1,4.86,4.86,0,0,0,0,5.34,2.9,2.9,0,0,0,2.41,1,3.39,3.39,0,0,0,1.35-.27,3.76,3.76,0,0,0,1.13-.72l.88.95a4.42,4.42,0,0,1-1.49,1,5.42,5.42,0,0,1-4.46-.26,4.15,4.15,0,0,1-1.59-1.75,6.43,6.43,0,0,1,0-5.16,4,4,0,0,1,1.61-1.74,4.9,4.9,0,0,1,2.55-.63,5.18,5.18,0,0,1,1.81.32A3.86,3.86,0,0,1,659.41,255.12Z"/><path class="cls-5" d="M667.09,260.16a4.22,4.22,0,0,1-.41,1.88,3.05,3.05,0,0,1-1.21,1.28,3.64,3.64,0,0,1-1.88.46,3.59,3.59,0,0,1-1.86-.47,3.09,3.09,0,0,1-1.2-1.28,4,4,0,0,1-.41-1.87,4,4,0,0,1,.41-1.88,2.93,2.93,0,0,1,1.19-1.25,3.8,3.8,0,0,1,1.87-.44,3.85,3.85,0,0,1,1.89.44,2.9,2.9,0,0,1,1.2,1.25A4,4,0,0,1,667.09,260.16Zm-5.53,0a3,3,0,0,0,.5,1.82,1.75,1.75,0,0,0,1.53.68,1.81,1.81,0,0,0,1.57-.68,3,3,0,0,0,.5-1.82,3,3,0,0,0-.5-1.8,1.83,1.83,0,0,0-1.57-.67,1.78,1.78,0,0,0-1.54.67A3,3,0,0,0,661.56,260.16Z"/><path class="cls-5" d="M668.79,258.31a13.65,13.65,0,0,0-.09-1.54H670a5.49,5.49,0,0,1,.11.8h0a2.28,2.28,0,0,1,.91-.72,3.35,3.35,0,0,1,1.37-.26,2.39,2.39,0,0,1,1.92.73,2.69,2.69,0,0,1,.63,1.8v4.47h-1.4v-4.16a1.9,1.9,0,0,0-.37-1.21,1.4,1.4,0,0,0-1.18-.48,1.7,1.7,0,0,0-1.35.57,2.08,2.08,0,0,0-.51,1.44v3.84h-1.39Z"/><path class="cls-5" d="M677.07,258.31a13.65,13.65,0,0,0-.09-1.54h1.32a5.49,5.49,0,0,1,.11.8h0a2.32,2.32,0,0,1,.9-.72,3.43,3.43,0,0,1,1.38-.26,2.38,2.38,0,0,1,1.91.73,2.69,2.69,0,0,1,.63,1.8v4.47h-1.39v-4.16a1.9,1.9,0,0,0-.37-1.21,1.4,1.4,0,0,0-1.18-.48,1.7,1.7,0,0,0-1.35.57,2.08,2.08,0,0,0-.51,1.44v3.84h-1.39Z"/><path class="cls-5" d="M691.21,260.69H686.3a2.28,2.28,0,0,0,.61,1.45,2,2,0,0,0,1.46.52,3.15,3.15,0,0,0,1.06-.16,4.69,4.69,0,0,0,1-.47l.61.89a4.47,4.47,0,0,1-1.24.65,4.85,4.85,0,0,1-1.48.21,3.55,3.55,0,0,1-1.83-.45,3,3,0,0,1-1.16-1.27,4.31,4.31,0,0,1-.39-1.89,3.85,3.85,0,0,1,.84-2.6,3,3,0,0,1,2.41-1,2.83,2.83,0,0,1,2.31,1,3.91,3.91,0,0,1,.79,2.57A3.43,3.43,0,0,1,691.21,260.69Zm-1.33-1.08a2.22,2.22,0,0,0-.47-1.42,1.53,1.53,0,0,0-1.28-.55,1.63,1.63,0,0,0-1.32.56,2.37,2.37,0,0,0-.52,1.41Z"/><path class="cls-5" d="M695.92,256.59a4.14,4.14,0,0,1,1.22.18,3.68,3.68,0,0,1,1.06.55l-.54,1a2.88,2.88,0,0,0-1.73-.55,1.83,1.83,0,0,0-1.53.65,2.83,2.83,0,0,0-.51,1.78,2.86,2.86,0,0,0,.51,1.77,1.77,1.77,0,0,0,1.51.67,3.23,3.23,0,0,0,1.76-.56l.51,1a4,4,0,0,1-2.38.74,3.26,3.26,0,0,1-1.95-.54,2.94,2.94,0,0,1-1.05-1.35,4.76,4.76,0,0,1-.31-1.72,4,4,0,0,1,.41-1.88,3,3,0,0,1,1.18-1.26A3.71,3.71,0,0,1,695.92,256.59Z"/><path class="cls-5" d="M701.61,256.77h1.75v1.07h-1.75v3.78c0,.69.32,1,.94,1a2.25,2.25,0,0,0,.64-.09l.2,1a3,3,0,0,1-1.1.19,2.15,2.15,0,0,1-1.52-.53,2,2,0,0,1-.55-1.51v-3.9h-1.17v-.91l1.15-.16v-1.6l1.41-.51Z"/><path class="cls-5" d="M646,361.26a1.44,1.44,0,0,0-1.3.66,2.53,2.53,0,0,0-.37,1.07h3.25a2.32,2.32,0,0,0-.3-1.07A1.42,1.42,0,0,0,646,361.26Z"/><path class="cls-5" d="M634.47,364.23a1,1,0,0,0-.4.87,1.09,1.09,0,0,0,.13.59.87.87,0,0,0,.27.27,2.08,2.08,0,0,0,1.33.28,8.66,8.66,0,0,0,1.23-.17V364a10.38,10.38,0,0,0-1.24-.11A2.08,2.08,0,0,0,634.47,364.23Z"/><path class="cls-5" d="M676.47,345.42a16.69,16.69,0,0,0-6.85,1.45,13.86,13.86,0,0,0-12.09-7.16,13.68,13.68,0,0,0-9.92,4.26,15.22,15.22,0,0,0-26.08,15.27,13.24,13.24,0,0,0,6.55,24.66,12.87,12.87,0,0,0,2.69-.28,14.08,14.08,0,0,0,26.19.63,12.35,12.35,0,0,0,16.18-5.08,17,17,0,1,0,3.33-33.75Zm-44.68,19.77c0,1.38-1,2.23-2.61,2.23a4.69,4.69,0,0,1-2.79-.82s-.09-.05,0-.17l.33-.87a.19.19,0,0,1,0-.08.14.14,0,0,1,.19,0,2,2,0,0,0,.26.17,3.81,3.81,0,0,0,2.07.6c.7,0,1.13-.37,1.13-.87v0c0-.55-.66-.75-1.44-1l-.17-.05c-1.06-.3-2.19-.74-2.19-2.08v0a2.25,2.25,0,0,1,2.5-2.16h.16a4.54,4.54,0,0,1,2.3.62.15.15,0,0,1,.08.18l-.33.87c-.06.15-.21.05-.21.05a4.58,4.58,0,0,0-2-.52c-.62,0-1,.33-1,.77v0c0,.53.69.75,1.48,1l.14,0c1,.33,2.18.8,2.18,2.07Zm6.68,1.64a.15.15,0,0,1-.1.15l-.32.08-1.14.22a8,8,0,0,1-1.38.11,4.92,4.92,0,0,1-1.21-.12,2.44,2.44,0,0,1-.92-.4,1.85,1.85,0,0,1-.59-.71,2.32,2.32,0,0,1-.22-1,2.12,2.12,0,0,1,.9-1.79,3,3,0,0,1,1-.44,4.64,4.64,0,0,1,1.12-.14l.71,0s.36,0,.76.1v-.19c0-.61-.13-.9-.38-1.09a1.85,1.85,0,0,0-1.12-.29,4.67,4.67,0,0,0-2,.46l-.07,0h0a.11.11,0,0,1-.14-.07l-.32-.88a.13.13,0,0,1,0-.18,4.36,4.36,0,0,1,1.4-.51,7,7,0,0,1,1.21-.11,3.09,3.09,0,0,1,2.09.63,2.52,2.52,0,0,1,.72,2Zm2.94-9.41v9.69a.13.13,0,0,1-.12.14h-1.21a.13.13,0,0,1-.13-.13h0v-9.69a.13.13,0,0,1,.12-.14h1.21a.13.13,0,0,1,.13.13Zm7.51,6.58a.14.14,0,0,1-.14.11h-4.54a2.14,2.14,0,0,0,.53,1.51,2.18,2.18,0,0,0,1.56.54,4.39,4.39,0,0,0,1.86-.34h0a.12.12,0,0,1,.16.08l.3.83c.06.14,0,.19,0,.22a4.64,4.64,0,0,1-2.29.46,4.56,4.56,0,0,1-1.64-.27,2.93,2.93,0,0,1-1.8-1.91,4.47,4.47,0,0,1-.21-1.45,5.08,5.08,0,0,1,.2-1.45,3.32,3.32,0,0,1,.61-1.18,3.06,3.06,0,0,1,1-.8,3.65,3.65,0,0,1,1.5-.29,3.39,3.39,0,0,1,1.3.26,2.68,2.68,0,0,1,.87.65,2.8,2.8,0,0,1,.58,1.07A4.8,4.8,0,0,1,648.92,364Zm3.78,3.42a4.71,4.71,0,0,1-2.79-.82.13.13,0,0,1,0-.17l.33-.87a.08.08,0,0,1,0-.05.14.14,0,0,1,.19,0,2.12,2.12,0,0,0,.27.17,3.79,3.79,0,0,0,2.07.6c.69,0,1.13-.37,1.13-.87v0c0-.55-.67-.75-1.44-1l-.17-.05c-1.06-.3-2.19-.74-2.19-2.08v0a2.24,2.24,0,0,1,2.49-2.16h.16a4.57,4.57,0,0,1,2.31.62.16.16,0,0,1,.08.18l-.33.87c-.06.15-.22.05-.22.05a4.54,4.54,0,0,0-2-.52c-.62,0-1,.33-1,.77v0c0,.53.68.75,1.48,1l.14,0c1.05.33,2.17.8,2.17,2.07v0C655.31,366.57,654.31,367.42,652.7,367.42Zm7.93-6.13a.15.15,0,0,1-.15.13H659l-1,5.79a7.91,7.91,0,0,1-.4,1.52,3.06,3.06,0,0,1-.59,1,2,2,0,0,1-.84.58,3.22,3.22,0,0,1-1.11.17,2.54,2.54,0,0,1-.67-.06,2.77,2.77,0,0,1-.41-.12h0a.14.14,0,0,1-.06-.18c0-.09.3-.83.34-.92h0a.13.13,0,0,1,.16-.07.75.75,0,0,0,.24.08,1.55,1.55,0,0,0,.37,0,1.58,1.58,0,0,0,.53-.07.9.9,0,0,0,.42-.32,2.22,2.22,0,0,0,.31-.66,6.12,6.12,0,0,0,.28-1.12l1-5.68h-1c-.12,0-.16-.05-.14-.15l.17-.94a.14.14,0,0,1,.15-.13h1l0-.31a3.76,3.76,0,0,1,.92-2.06,2.58,2.58,0,0,1,1.92-.69,4.32,4.32,0,0,1,.62.05,3.69,3.69,0,0,1,.45.11h0a.12.12,0,0,1,.08.15l-.35.95c0,.07,0,.12-.2.07l-.23,0a1.74,1.74,0,0,0-.86,0,.88.88,0,0,0-.38.24,1.31,1.31,0,0,0-.32.48,6.15,6.15,0,0,0-.24,1h1.45c.12,0,.16.05.15.14Zm6.65,3.88a3.2,3.2,0,0,1-.61,1.17,2.93,2.93,0,0,1-1,.78,3.85,3.85,0,0,1-2.87,0,2.93,2.93,0,0,1-1-.78,3.22,3.22,0,0,1-.62-1.17,5.41,5.41,0,0,1,0-2.88,3.45,3.45,0,0,1,.61-1.17,3,3,0,0,1,1-.78,3.78,3.78,0,0,1,2.88,0,2.93,2.93,0,0,1,1,.78,3.28,3.28,0,0,1,.61,1.17h0A5.22,5.22,0,0,1,667.28,365.17Zm5.62-4.74c0,.12-.27.75-.35,1a.17.17,0,0,1-.16.12,2.14,2.14,0,0,0-.5-.06,2.49,2.49,0,0,0-.61.08,1.34,1.34,0,0,0-.56.34,1.64,1.64,0,0,0-.4.67,4,4,0,0,0-.15,1.19v3.38h0a.13.13,0,0,1-.14.13h-1.19a.13.13,0,0,1-.14-.13v-6.78h0a.13.13,0,0,1,.13-.13H670a.13.13,0,0,1,.13.13v.56a2,2,0,0,1,.77-.56,2.14,2.14,0,0,1,1.17-.19,4,4,0,0,1,.76.13h0A.13.13,0,0,1,672.9,360.43Zm5.68,6.64a5.6,5.6,0,0,1-1.9.34,3.4,3.4,0,0,1-2.65-1,3.88,3.88,0,0,1-.89-2.67,4.38,4.38,0,0,1,.22-1.44,3.29,3.29,0,0,1,.65-1.17,3,3,0,0,1,1.09-.78,3.63,3.63,0,0,1,1.49-.29,6.77,6.77,0,0,1,1,.07,4.63,4.63,0,0,1,.89.22h0a.12.12,0,0,1,.08.15l-.34.92c0,.14-.15.09-.15.09a4.56,4.56,0,0,0-1.42-.2,1.77,1.77,0,0,0-1.49.65,2.87,2.87,0,0,0-.51,1.77,2.55,2.55,0,0,0,.57,1.84,2.06,2.06,0,0,0,1.53.57,4.48,4.48,0,0,0,.73-.05,3.26,3.26,0,0,0,.63-.18h0a.14.14,0,0,1,.16.09l.33.92A.12.12,0,0,1,678.58,367.07Zm6.71-3.08a.13.13,0,0,1-.13.12h-4.54a1.85,1.85,0,0,0,2.08,2,4.28,4.28,0,0,0,1.87-.33h0a.13.13,0,0,1,.17.08l.29.83c.05.14,0,.19,0,.22a5.59,5.59,0,0,1-3.94.19,2.93,2.93,0,0,1-1.8-1.91,5.36,5.36,0,0,1,0-2.9,3.32,3.32,0,0,1,.61-1.18,3.06,3.06,0,0,1,1-.8,3.65,3.65,0,0,1,1.5-.29,3.43,3.43,0,0,1,1.3.26,2.68,2.68,0,0,1,1.45,1.72A4.75,4.75,0,0,1,685.29,364Z"/><path class="cls-5" d="M682.32,361.26a1.44,1.44,0,0,0-1.3.66,2.53,2.53,0,0,0-.37,1.07h3.24a2.1,2.1,0,0,0-.3-1.07A1.39,1.39,0,0,0,682.32,361.26Z"/><path class="cls-5" d="M664.2,361.28a1.42,1.42,0,0,0-1.3.63,4.07,4.07,0,0,0,0,3.64,1.4,1.4,0,0,0,1.3.64,1.43,1.43,0,0,0,1.31-.64,3.24,3.24,0,0,0,.43-1.82,3.35,3.35,0,0,0-.43-1.82A1.44,1.44,0,0,0,664.2,361.28Z"/><path class="cls-5" d="M652.68,183.36a.88.88,0,0,1-.88-.89v-1.79a.89.89,0,0,1,1.77,0v1.79A.89.89,0,0,1,652.68,183.36Zm0-7.1a.88.88,0,0,1-.88-.89v-2.65a.89.89,0,0,1,1.77,0v2.65A.89.89,0,0,1,652.68,176.26Zm0-8a.88.88,0,0,1-.88-.89v-2.65a.89.89,0,0,1,1.77,0v2.65A.89.89,0,0,1,652.68,168.3Zm0-8a.88.88,0,0,1-.88-.89V156.8a.89.89,0,0,1,1.77,0v2.65A.89.89,0,0,1,652.68,160.34Zm0-8a.88.88,0,0,1-.88-.89v-2.65a.89.89,0,0,1,1.77,0v2.65A.89.89,0,0,1,652.68,152.38Z"/><path class="cls-5" d="M365.48,101.45l.58-.73a3,3,0,0,0,.92.48,3.13,3.13,0,0,0,1,.16,1.89,1.89,0,0,0,1.15-.32,1.08,1.08,0,0,0,.43-.94,1.24,1.24,0,0,0-.2-.71,1.5,1.5,0,0,0-.59-.44,7,7,0,0,0-1-.32,3.56,3.56,0,0,1-1.56-.77,1.77,1.77,0,0,1-.53-1.35,1.84,1.84,0,0,1,.34-1.12,2.13,2.13,0,0,1,.93-.7,3.45,3.45,0,0,1,1.32-.24,3.86,3.86,0,0,1,2.35.73l-.52.76a3.86,3.86,0,0,0-.88-.41,3.26,3.26,0,0,0-.95-.14,1.8,1.8,0,0,0-1,.27,1,1,0,0,0,0,1.57,4,4,0,0,0,1.25.49,4.28,4.28,0,0,1,1.7.81,2,2,0,0,1,.58,1.53,2,2,0,0,1-.37,1.25,2.27,2.27,0,0,1-1,.77,3.73,3.73,0,0,1-1.41.25,4.16,4.16,0,0,1-1.38-.22A3.8,3.8,0,0,1,365.48,101.45Z"/><path class="cls-5" d="M372.06,94.63h1.12v2.68h0a2.12,2.12,0,0,1,1.79-.77,1.9,1.9,0,0,1,1.53.59,2.16,2.16,0,0,1,.5,1.44v3.57h-1.11V98.81a1.54,1.54,0,0,0-.3-1,1.14,1.14,0,0,0-.95-.38,1.36,1.36,0,0,0-1.08.46,1.66,1.66,0,0,0-.4,1.15v3.07h-1.12Z"/><path class="cls-5" d="M383.91,99.39a3.2,3.2,0,0,1-.34,1.51,2.45,2.45,0,0,1-1,1,3,3,0,0,1-1.5.36,2.84,2.84,0,0,1-1.49-.37,2.48,2.48,0,0,1-1-1,3.32,3.32,0,0,1-.33-1.51,3.25,3.25,0,0,1,.33-1.5,2.29,2.29,0,0,1,.95-1,3.08,3.08,0,0,1,1.5-.35,3.12,3.12,0,0,1,1.51.35,2.37,2.37,0,0,1,1,1A3.25,3.25,0,0,1,383.91,99.39Zm-4.43,0a2.45,2.45,0,0,0,.4,1.46,1.41,1.41,0,0,0,1.23.55,1.45,1.45,0,0,0,1.25-.55,2.39,2.39,0,0,0,.4-1.46,2.29,2.29,0,0,0-.4-1.43,1.47,1.47,0,0,0-1.25-.54,1.41,1.41,0,0,0-1.23.54A2.29,2.29,0,0,0,379.48,99.39Z"/><path class="cls-5" d="M392.7,96.69l-1.53,5.45h-1.23l-1.32-4.26h0l-1.31,4.26h-1.22l-1.53-5.45h1.17l1,4.24h0l1.3-4.24h1.16l1.31,4.24h0l1-4.24Z"/><path class="cls-5" d="M393.69,97.92a10.38,10.38,0,0,0-.07-1.23h1.06q.06.32.09.63h0a1.79,1.79,0,0,1,.72-.57,2.67,2.67,0,0,1,1.1-.21,1.93,1.93,0,0,1,1.54.59,2.16,2.16,0,0,1,.5,1.44v3.57h-1.11V98.81a1.54,1.54,0,0,0-.3-1,1.14,1.14,0,0,0-.95-.38,1.36,1.36,0,0,0-1.08.46,1.66,1.66,0,0,0-.4,1.15v3.07h-1.12Z"/><path class="cls-5" d="M374,112.13a3.2,3.2,0,0,1-.34,1.51,2.37,2.37,0,0,1-1,1,3,3,0,0,1-1.5.37,2.94,2.94,0,0,1-1.49-.37,2.45,2.45,0,0,1-1-1,3.25,3.25,0,0,1-.33-1.5,3.38,3.38,0,0,1,.32-1.5,2.37,2.37,0,0,1,1-1,3,3,0,0,1,1.5-.36,3,3,0,0,1,1.51.36,2.37,2.37,0,0,1,1,1A3.25,3.25,0,0,1,374,112.13Zm-4.43,0a2.48,2.48,0,0,0,.4,1.46,1.43,1.43,0,0,0,1.23.55,1.47,1.47,0,0,0,1.25-.55,2.41,2.41,0,0,0,.4-1.46,2.34,2.34,0,0,0-.4-1.44,1.46,1.46,0,0,0-1.25-.53,1.41,1.41,0,0,0-1.23.53A2.34,2.34,0,0,0,369.61,112.13Z"/><path class="cls-5" d="M375.4,110.65a10.43,10.43,0,0,0-.08-1.23h1.06a4.92,4.92,0,0,1,.09.64h0a1.83,1.83,0,0,1,.73-.57,2.6,2.6,0,0,1,1.1-.22,1.92,1.92,0,0,1,1.53.59,2.19,2.19,0,0,1,.5,1.44v3.58h-1.11v-3.33a1.54,1.54,0,0,0-.3-1,1.13,1.13,0,0,0-.94-.38,1.39,1.39,0,0,0-1.09.45,1.73,1.73,0,0,0-.4,1.15v3.08H375.4Z"/><path class="cls-5" d="M389.8,107.36v1h-2.32v6.53h-1.17v-6.53H384v-1Z"/><path class="cls-5" d="M396.71,107.36l-2.87,7.52h-1.17l-2.85-7.52h1.25l2.21,6.2h0l2.16-6.2Z"/><path class="cls-5" d="M445.59,362.39h-2.66a.89.89,0,0,1,0-1.77h2.66a.89.89,0,0,1,0,1.77Zm-8,0H435a.89.89,0,0,1,0-1.77h2.66a.89.89,0,0,1,0,1.77Zm-8,0H427a.89.89,0,0,1,0-1.77h2.66a.89.89,0,0,1,0,1.77Zm-8,0h-2.65a.89.89,0,1,1,0-1.77h2.65a.89.89,0,0,1,0,1.77Zm-8,0H411.1a.89.89,0,1,1,0-1.77h2.65a.89.89,0,0,1,0,1.77Zm-8,0h-2.65a.89.89,0,1,1,0-1.77h2.65a.89.89,0,0,1,0,1.77Zm-8,0h-2.65a.89.89,0,1,1,0-1.77h2.65a.89.89,0,0,1,0,1.77Zm-8,0h-2.65a.89.89,0,1,1,0-1.77h2.65a.89.89,0,0,1,0,1.77Zm-8,0h-2.65a.89.89,0,1,1,0-1.77h2.65a.89.89,0,0,1,0,1.77Zm-8,0H371.3a.89.89,0,1,1,0-1.77H374a.89.89,0,0,1,0,1.77Zm-8,0h-2.65a.89.89,0,1,1,0-1.77H366a.89.89,0,0,1,0,1.77Zm-8,0h-2.65a.89.89,0,1,1,0-1.77H358a.89.89,0,0,1,0,1.77Zm-8,0h-2.52a.89.89,0,1,1,0-1.77h2.52a.89.89,0,0,1,0,1.77Z"/><path class="cls-5" d="M365.48,382.85l.58-.73a3,3,0,0,0,.92.48,3.4,3.4,0,0,0,1,.16,1.89,1.89,0,0,0,1.15-.32,1.1,1.1,0,0,0,.43-.94,1.22,1.22,0,0,0-.2-.71,1.5,1.5,0,0,0-.59-.44,5.93,5.93,0,0,0-1-.32,3.67,3.67,0,0,1-1.56-.77,1.78,1.78,0,0,1-.53-1.36,1.81,1.81,0,0,1,.34-1.11,2.06,2.06,0,0,1,.93-.7,3.45,3.45,0,0,1,1.32-.24,3.86,3.86,0,0,1,2.35.73l-.52.76a3.86,3.86,0,0,0-.88-.41,3.26,3.26,0,0,0-.95-.14,1.8,1.8,0,0,0-1,.27.87.87,0,0,0-.4.78.9.9,0,0,0,.39.79,4,4,0,0,0,1.25.48,4.28,4.28,0,0,1,1.7.82,2,2,0,0,1,.58,1.53,2,2,0,0,1-.37,1.25,2.27,2.27,0,0,1-1,.77,3.73,3.73,0,0,1-1.41.25,3.92,3.92,0,0,1-1.38-.23A3.77,3.77,0,0,1,365.48,382.85Z"/><path class="cls-5" d="M372.06,376h1.12v2.68h0a2.12,2.12,0,0,1,1.79-.77,1.86,1.86,0,0,1,1.53.59A2.15,2.15,0,0,1,377,380v3.58h-1.11v-3.33a1.54,1.54,0,0,0-.3-1,1.14,1.14,0,0,0-.95-.38,1.36,1.36,0,0,0-1.08.46,1.64,1.64,0,0,0-.4,1.14v3.08h-1.12Z"/><path class="cls-5" d="M383.91,380.79a3.2,3.2,0,0,1-.34,1.51,2.37,2.37,0,0,1-1,1,2.88,2.88,0,0,1-1.5.37,2.84,2.84,0,0,1-1.49-.37,2.45,2.45,0,0,1-1-1,3.57,3.57,0,0,1,0-3,2.29,2.29,0,0,1,.95-1,3.08,3.08,0,0,1,1.5-.35,3.12,3.12,0,0,1,1.51.35,2.37,2.37,0,0,1,1,1A3.25,3.25,0,0,1,383.91,380.79Zm-4.43,0a2.45,2.45,0,0,0,.4,1.46,1.41,1.41,0,0,0,1.23.55,1.45,1.45,0,0,0,1.25-.55,2.39,2.39,0,0,0,.4-1.46,2.34,2.34,0,0,0-.4-1.44,1.49,1.49,0,0,0-1.25-.53,1.43,1.43,0,0,0-1.23.53A2.34,2.34,0,0,0,379.48,380.79Z"/><path class="cls-5" d="M392.7,378.09l-1.53,5.45h-1.23l-1.32-4.27h0l-1.31,4.27h-1.22l-1.53-5.45h1.17l1,4.24h0l1.3-4.24h1.16l1.31,4.24h0l1-4.24Z"/><path class="cls-5" d="M393.69,379.32a10.14,10.14,0,0,0-.07-1.23h1.06q.06.32.09.63h0a1.79,1.79,0,0,1,.72-.57,2.67,2.67,0,0,1,1.1-.21,1.9,1.9,0,0,1,1.54.59,2.15,2.15,0,0,1,.5,1.43v3.58h-1.11v-3.33a1.54,1.54,0,0,0-.3-1,1.14,1.14,0,0,0-.95-.38,1.36,1.36,0,0,0-1.08.46,1.64,1.64,0,0,0-.4,1.14v3.08h-1.12Z"/><path class="cls-5" d="M361.93,393.53a3.16,3.16,0,0,1-.34,1.5,2.45,2.45,0,0,1-1,1,3,3,0,0,1-1.5.36,2.84,2.84,0,0,1-1.49-.37,2.42,2.42,0,0,1-1-1,3.31,3.31,0,0,1-.33-1.5,3.19,3.19,0,0,1,.33-1.5,2.35,2.35,0,0,1,.95-1,3,3,0,0,1,1.5-.36,3,3,0,0,1,1.51.36,2.37,2.37,0,0,1,1,1A3.19,3.19,0,0,1,361.93,393.53Zm-4.43,0a2.48,2.48,0,0,0,.4,1.46,1.44,1.44,0,0,0,1.23.54,1.47,1.47,0,0,0,1.25-.54,2.41,2.41,0,0,0,.4-1.46,2.34,2.34,0,0,0-.4-1.44,1.47,1.47,0,0,0-1.25-.54,1.41,1.41,0,0,0-1.23.54A2.34,2.34,0,0,0,357.5,393.53Z"/><path class="cls-5" d="M363.29,392.05a10.43,10.43,0,0,0-.08-1.23h1.06a3.52,3.52,0,0,1,.09.64h0a1.94,1.94,0,0,1,.73-.58,2.63,2.63,0,0,1,1.1-.21,1.92,1.92,0,0,1,1.53.59,2.11,2.11,0,0,1,.5,1.44v3.58h-1.11v-3.34a1.49,1.49,0,0,0-.3-1,1.1,1.1,0,0,0-.94-.38,1.39,1.39,0,0,0-1.09.45,1.73,1.73,0,0,0-.4,1.15v3.08h-1.11Z"/><path class="cls-5" d="M377.72,396.28h-1c0-.34-.07-.57-.07-.7h0a1.86,1.86,0,0,1-.76.63,2.65,2.65,0,0,1-1.11.21,2.08,2.08,0,0,1-1.77-.79,3.3,3.3,0,0,1-.6-2.06,3.41,3.41,0,0,1,.31-1.48,2.53,2.53,0,0,1,.87-1,2.4,2.4,0,0,1,1.35-.38,2.38,2.38,0,0,1,1.65.6v-2.51h1.12V395A10.41,10.41,0,0,0,377.72,396.28Zm-1.2-2.37v-1.67a1.87,1.87,0,0,0-1.48-.68,1.32,1.32,0,0,0-1.13.56,2.81,2.81,0,0,0,0,2.89,1.27,1.27,0,0,0,1.08.52,1.48,1.48,0,0,0,1.12-.45A1.64,1.64,0,0,0,376.52,393.91Z"/><path class="cls-5" d="M384.06,394h-3.93a1.73,1.73,0,0,0,.49,1.16,1.58,1.58,0,0,0,1.17.42,2.7,2.7,0,0,0,.84-.12,4.29,4.29,0,0,0,.77-.39l.49.71a3.19,3.19,0,0,1-1,.52,3.62,3.62,0,0,1-1.18.17,2.85,2.85,0,0,1-1.46-.36,2.4,2.4,0,0,1-.93-1,3.42,3.42,0,0,1-.32-1.51,3.06,3.06,0,0,1,.68-2.08,2.41,2.41,0,0,1,1.93-.79,2.23,2.23,0,0,1,1.84.78,3.1,3.1,0,0,1,.64,2.06A3.15,3.15,0,0,1,384.06,394Zm-1.06-.86a1.88,1.88,0,0,0-.38-1.14,1.25,1.25,0,0,0-1-.44,1.3,1.3,0,0,0-1.06.45,1.92,1.92,0,0,0-.42,1.13Z"/><path class="cls-5" d="M389.84,390.82l-2,5.46h-1.23l-2-5.46h1.19l1.49,4.34h0l1.44-4.34Z"/><path class="cls-5" d="M390.58,389c0-.45.24-.67.7-.67a.69.69,0,0,1,.53.18.72.72,0,0,1,.16.49.67.67,0,0,1-.16.47.83.83,0,0,1-1.06,0A.68.68,0,0,1,390.58,389Zm1.26,1.79v5.46h-1.12v-5.46Z"/><path class="cls-5" d="M396,390.67a3.19,3.19,0,0,1,1,.15,2.65,2.65,0,0,1,.85.44l-.44.77a2.32,2.32,0,0,0-1.37-.43,1.45,1.45,0,0,0-1.23.52,2.65,2.65,0,0,0,0,2.83,1.41,1.41,0,0,0,1.2.54,2.66,2.66,0,0,0,1.42-.45l.4.79a3.15,3.15,0,0,1-1.9.59,2.55,2.55,0,0,1-1.56-.43,2.22,2.22,0,0,1-.84-1.08,3.7,3.7,0,0,1-.25-1.37,3.26,3.26,0,0,1,.33-1.51,2.33,2.33,0,0,1,.94-1A2.91,2.91,0,0,1,396,390.67Z"/><path class="cls-5" d="M403.49,394h-3.93a1.77,1.77,0,0,0,.49,1.16,1.58,1.58,0,0,0,1.17.42,2.66,2.66,0,0,0,.84-.12,4,4,0,0,0,.77-.39l.49.71a3.14,3.14,0,0,1-1,.52,3.68,3.68,0,0,1-1.19.17,2.85,2.85,0,0,1-1.46-.36,2.31,2.31,0,0,1-.92-1,3.29,3.29,0,0,1-.32-1.51,3,3,0,0,1,.68-2.08,2.38,2.38,0,0,1,1.92-.79,2.23,2.23,0,0,1,1.84.78,3.1,3.1,0,0,1,.64,2.06A3.15,3.15,0,0,1,403.49,394Zm-1.06-.86a1.88,1.88,0,0,0-.38-1.14,1.25,1.25,0,0,0-1-.44A1.3,1.3,0,0,0,400,392a1.92,1.92,0,0,0-.42,1.13Z"/><path class="cls-5" d="M408.33,391.26l-.48.69a2.4,2.4,0,0,0-1.33-.42,1.37,1.37,0,0,0-.72.17.55.55,0,0,0-.26.48.61.61,0,0,0,.11.4.84.84,0,0,0,.37.26,5.2,5.2,0,0,0,.78.23,2.58,2.58,0,0,1,1.22.6,1.35,1.35,0,0,1,.4,1,1.58,1.58,0,0,1-.29.95,1.85,1.85,0,0,1-.8.59,2.92,2.92,0,0,1-1.08.19,3,3,0,0,1-2-.62l.51-.7a2.88,2.88,0,0,0,.68.34,2.29,2.29,0,0,0,.76.11,1.29,1.29,0,0,0,.78-.2.69.69,0,0,0,.28-.59.68.68,0,0,0-.11-.4.79.79,0,0,0-.36-.25,5.39,5.39,0,0,0-.77-.23,2.67,2.67,0,0,1-1.22-.59,1.5,1.5,0,0,1,.18-2.19,2.47,2.47,0,0,1,1.5-.43A2.92,2.92,0,0,1,408.33,391.26Z"/><path class="cls-5" d="M325.84,389.79H301.5a3.13,3.13,0,0,1-3.13-3.12V343.12A3.13,3.13,0,0,1,301.5,340h24.34a3.12,3.12,0,0,1,3.12,3.12v43.55A3.12,3.12,0,0,1,325.84,389.79Zm-24.34-48a1.35,1.35,0,0,0-1.36,1.35v43.55A1.35,1.35,0,0,0,301.5,388h24.34a1.34,1.34,0,0,0,1.35-1.35V343.12a1.34,1.34,0,0,0-1.35-1.35Z"/><path class="cls-5" d="M324.94,386.54H302.4a.88.88,0,0,1-.88-.89V344.28a.88.88,0,0,1,.88-.88h22.54a.88.88,0,0,1,.88.88v41.37A.88.88,0,0,1,324.94,386.54Zm-21.66-1.77h20.77v-39.6H303.28Z"/><polygon class="cls-6" points="324.67 355.98 304.37 385.65 310.25 385.65 324.76 364.53 324.67 355.98"/><polygon class="cls-6" points="324.7 368.28 312.56 385.65 315.36 385.65 324.29 372.59 324.7 368.28"/><path class="cls-5" d="M296.86,379.52H160c-10,0-11-6.83-11-9.77,0-12.68,18.89-14.2,19.7-14.26,2.71-.4,3-1.78,3-2.95,0-.33-.53-.89-1.13-1.53-2.06-2.22-5.89-6.34-5.89-17.63,0-9.47,6.4-16.61,14.87-16.61s14.87,7.14,14.87,16.61c0,9.83-3.59,14.42-5.73,17.16a6,6,0,0,0-1.28,2c-.06,1.17.23,2.55,3,3,.29,0,8.13.66,13.83,4.64,5.65-3.67,12.93-4.6,13.24-4.64,2.76-.41,3.06-1.79,3-3,0-.33-.53-.89-1.13-1.53-2.06-2.22-5.89-6.34-5.89-17.63,0-9.47,6.4-16.61,14.87-16.61s14.87,7.14,14.87,16.61c0,9.83-3.59,14.42-5.73,17.16a6,6,0,0,0-1.28,2c-.06,1.17.23,2.55,3,3a36.24,36.24,0,0,1,11,2.83l.12.05.08,0a20.84,20.84,0,0,1,3,1.71c5.64-3.66,12.91-4.59,13.23-4.63,2.76-.41,3.05-1.79,3-3,0-.33-.53-.89-1.13-1.53-2.05-2.22-5.88-6.34-5.88-17.63,0-9.47,6.39-16.61,14.87-16.61s14.87,7.14,14.87,16.61c0,9.83-3.59,14.42-5.74,17.16a6,6,0,0,0-1.28,2c-.05,1.17.24,2.55,3,3a35.7,35.7,0,0,1,11.37,3,.89.89,0,0,1,.42,1.18.88.88,0,0,1-1.18.41,34.8,34.8,0,0,0-10.8-2.82c-4-.58-4.68-2.93-4.6-4.8,0-1,.73-1.82,1.66-3,2-2.56,5.36-6.85,5.36-16.07,0-8.46-5.63-14.84-13.1-14.84s-13.1,6.38-13.1,14.84c0,10.59,3.38,14.24,5.41,16.42.87.94,1.56,1.68,1.6,2.66.09,1.87-.62,4.22-4.52,4.79-.1,0-7.65,1-13,4.69a.9.9,0,0,1-1,0,18,18,0,0,0-3.19-1.89l0,0-.06,0a35,35,0,0,0-10.58-2.72c-4-.58-4.68-2.93-4.59-4.8.05-1,.72-1.82,1.65-3,2-2.56,5.36-6.85,5.36-16.07,0-8.46-5.63-14.84-13.1-14.84s-13.1,6.38-13.1,14.84c0,10.59,3.39,14.24,5.41,16.43.87.93,1.56,1.67,1.61,2.65.09,1.87-.63,4.22-4.53,4.79-.1,0-7.65,1-13,4.69a.89.89,0,0,1-1,0c-5.31-4-13.39-4.66-13.47-4.66-4-.58-4.68-2.93-4.59-4.8,0-1,.72-1.82,1.65-3,2-2.56,5.36-6.85,5.36-16.07,0-8.46-5.63-14.84-13.1-14.84s-13.1,6.38-13.1,14.84c0,10.59,3.39,14.24,5.41,16.42.87.94,1.56,1.68,1.61,2.66.09,1.87-.63,4.22-4.53,4.79-.24,0-18.12,1.46-18.12,12.5,0,3,1.2,8,9.27,8H296.86a16.47,16.47,0,0,0,2.28-.15.88.88,0,0,1,1,.75.9.9,0,0,1-.76,1A18.21,18.21,0,0,1,296.86,379.52Z"/><path class="cls-5" d="M347.15,368a.89.89,0,0,1-.62-.26l-5.6-5.6a.85.85,0,0,1-.26-.62.88.88,0,0,1,.26-.63l5.59-5.59a.88.88,0,0,1,1.25,1.25l-5,5,5,5a.89.89,0,0,1-.63,1.51Z"/><path class="cls-5" d="M453.76,121.94a.89.89,0,0,1-.62-1.51l5.59-5.6a.91.91,0,0,1,1.25,0l5.6,5.59a.89.89,0,0,1,0,1.25.88.88,0,0,1-1.25,0l-5-5-5,5A.91.91,0,0,1,453.76,121.94Z"/><path class="cls-5" d="M496.76,166.92a.92.92,0,0,1-.63-.26l-5.59-5.6a.88.88,0,0,1,0-1.25.89.89,0,0,1,1.25,0l5,5,5-5a.88.88,0,0,1,1.25,0,.89.89,0,0,1,0,1.25l-5.6,5.6A.91.91,0,0,1,496.76,166.92Z"/><path class="cls-5" d="M459.36,332.26a.89.89,0,0,1-.89-.88v-2.66a.89.89,0,0,1,1.77,0v2.66A.89.89,0,0,1,459.36,332.26Zm0-8a.89.89,0,0,1-.89-.88v-2.66a.89.89,0,0,1,1.77,0v2.66A.89.89,0,0,1,459.36,324.3Zm0-8a.89.89,0,0,1-.89-.88V312.8a.89.89,0,0,1,1.77,0v2.66A.89.89,0,0,1,459.36,316.34Zm0-8a.89.89,0,0,1-.89-.88v-2.66a.89.89,0,0,1,1.77,0v2.66A.89.89,0,0,1,459.36,308.38Zm0-8a.89.89,0,0,1-.89-.88v-2.66a.89.89,0,0,1,1.77,0v2.66A.89.89,0,0,1,459.36,300.42Zm0-8a.88.88,0,0,1-.89-.88v-2.66a.89.89,0,0,1,1.77,0v2.66A.88.88,0,0,1,459.36,292.46Z"/><path class="cls-5" d="M496.76,325.11a.89.89,0,0,1-.89-.88v-2.66a.89.89,0,0,1,1.77,0v2.66A.88.88,0,0,1,496.76,325.11Zm0-8a.89.89,0,0,1-.89-.88v-2.66a.89.89,0,0,1,1.77,0v2.66A.88.88,0,0,1,496.76,317.15Zm0-8a.89.89,0,0,1-.89-.88v-2.66a.89.89,0,0,1,1.77,0v2.66A.88.88,0,0,1,496.76,309.19Zm0-8a.89.89,0,0,1-.89-.88v-2.66a.89.89,0,0,1,1.77,0v2.66A.88.88,0,0,1,496.76,301.23Zm0-8a.89.89,0,0,1-.89-.88v-2.66a.89.89,0,0,1,1.77,0v2.66A.88.88,0,0,1,496.76,293.27Zm0-8a.89.89,0,0,1-.89-.88v-2.66a.89.89,0,0,1,1.77,0v2.66A.88.88,0,0,1,496.76,285.31Z"/><path class="cls-5" d="M453.76,288.26a.89.89,0,0,1-.62-1.51l5.59-5.6a.91.91,0,0,1,1.25,0l5.6,5.59a.89.89,0,0,1,0,1.25.88.88,0,0,1-1.25,0l-5-5-5,5A.91.91,0,0,1,453.76,288.26Z"/><path class="cls-5" d="M496.76,332.31a.88.88,0,0,1-.63-.26l-5.59-5.59a.88.88,0,0,1,1.25-1.25l5,5,5-5a.88.88,0,0,1,1.25,1.25l-5.6,5.6A.87.87,0,0,1,496.76,332.31Z"/><path class="cls-5" d="M515.67,86.59a.89.89,0,0,1-.62-.26l-5.6-5.6a.88.88,0,0,1,0-1.25L515,73.89a.89.89,0,0,1,1.25,0,.88.88,0,0,1,0,1.25l-5,5,5,5a.89.89,0,0,1-.63,1.51Z"/><path class="cls-5" d="M587.3,86.59a.89.89,0,0,1-.63-1.51l5-5-5-5a.89.89,0,0,1,0-1.25.91.91,0,0,1,1.26,0l5.59,5.6a.88.88,0,0,1,0,1.25l-5.59,5.59A.89.89,0,0,1,587.3,86.59Z"/><path class="cls-5" d="M647,147.52a.85.85,0,0,1-.63-.26.89.89,0,0,1,0-1.25l5.6-5.6a.91.91,0,0,1,1.25,0l5.59,5.6a.88.88,0,0,1,0,1.25.89.89,0,0,1-1.25,0l-5-5-5,5A.85.85,0,0,1,647,147.52Z"/><path class="cls-5" d="M652.58,189a.92.92,0,0,1-.63-.26l-5.59-5.59a.91.91,0,0,1,0-1.26.89.89,0,0,1,1.25,0l5,5,5-5a.88.88,0,0,1,1.25,1.25l-5.6,5.6A.9.9,0,0,1,652.58,189Z"/><path class="cls-5" d="M652.68,320.92a.88.88,0,0,1-.88-.89V318a.89.89,0,1,1,1.77,0V320A.89.89,0,0,1,652.68,320.92Zm0-7.39a.88.88,0,0,1-.88-.89V310a.89.89,0,1,1,1.77,0v2.65A.89.89,0,0,1,652.68,313.53Zm0-8a.88.88,0,0,1-.88-.89V302a.89.89,0,1,1,1.77,0v2.65A.89.89,0,0,1,652.68,305.57Zm0-8a.88.88,0,0,1-.88-.89v-2.65a.89.89,0,1,1,1.77,0v2.65A.89.89,0,0,1,652.68,297.61Zm0-8a.88.88,0,0,1-.88-.89v-2.65a.89.89,0,1,1,1.77,0v2.65A.89.89,0,0,1,652.68,289.65Z"/><path class="cls-5" d="M647,284.79a.89.89,0,0,1-.63-1.51l5.6-5.6a.91.91,0,0,1,1.25,0l5.59,5.59a.88.88,0,0,1-1.25,1.25l-5-5-5,5A.89.89,0,0,1,647,284.79Z"/><path class="cls-5" d="M652.58,326.52a.92.92,0,0,1-.63-.26l-5.59-5.6a.88.88,0,0,1,1.25-1.25l5,5,5-5a.88.88,0,0,1,1.25,1.25l-5.6,5.6A.9.9,0,0,1,652.58,326.52Z"/><path class="cls-5" d="M710.1,215v1h-3.49v2.33h3.06v.95h-3.06v3.27h-1.16V215Z"/><path class="cls-5" d="M715.83,219.72a3.31,3.31,0,0,1-.33,1.5,2.53,2.53,0,0,1-1,1,3,3,0,0,1-1.5.36,2.87,2.87,0,0,1-1.49-.37,2.48,2.48,0,0,1-1-1,3.31,3.31,0,0,1-.33-1.5,3.26,3.26,0,0,1,.33-1.51,2.33,2.33,0,0,1,.95-1,3.33,3.33,0,0,1,3,0,2.35,2.35,0,0,1,1,1A3.26,3.26,0,0,1,715.83,219.72Zm-4.43,0a2.5,2.5,0,0,0,.4,1.46,1.44,1.44,0,0,0,1.23.54,1.47,1.47,0,0,0,1.25-.54,2.43,2.43,0,0,0,.4-1.46,2.32,2.32,0,0,0-.4-1.44,1.47,1.47,0,0,0-1.25-.54,1.41,1.41,0,0,0-1.23.54A2.32,2.32,0,0,0,711.4,219.72Z"/><path class="cls-5" d="M717.19,218.24a10.43,10.43,0,0,0-.08-1.23h1.06a6.77,6.77,0,0,1,.09.75h0a1.77,1.77,0,0,1,.63-.67,2.11,2.11,0,0,1,1-.23l.32,0-.06,1a2,2,0,0,0-.37,0,1.35,1.35,0,0,0-1.13.49,1.88,1.88,0,0,0-.41,1.25v2.89h-1.11Z"/><path class="cls-5" d="M729,222.46h-1c0-.33-.07-.56-.07-.7h0a1.9,1.9,0,0,1-.77.64,2.62,2.62,0,0,1-1.11.21,2.08,2.08,0,0,1-1.77-.79,3.3,3.3,0,0,1-.6-2.06,3.38,3.38,0,0,1,.31-1.48,2.54,2.54,0,0,1,.87-1,2.4,2.4,0,0,1,1.35-.38,2.36,2.36,0,0,1,1.65.6V215h1.12v6.28C728.94,221.56,729,222,729,222.46Zm-1.2-2.36v-1.67a1.87,1.87,0,0,0-1.48-.68,1.34,1.34,0,0,0-1.13.55,2.83,2.83,0,0,0,0,2.9,1.27,1.27,0,0,0,1.08.52,1.47,1.47,0,0,0,1.12-.45A1.64,1.64,0,0,0,727.82,220.1Z"/><path class="cls-5" d="M730.24,221a1.54,1.54,0,0,1,.77-1.48,4.76,4.76,0,0,1,2.25-.42h.54v-.29c0-.69-.41-1-1.23-1a3.18,3.18,0,0,0-1.62.44l-.38-.75a4.22,4.22,0,0,1,1-.41,4,4,0,0,1,1.08-.15,2.39,2.39,0,0,1,1.75.55,2.28,2.28,0,0,1,.54,1.67v2.15a10.43,10.43,0,0,0,.09,1.23h-1a4,4,0,0,1-.08-.64h0a2,2,0,0,1-.74.6,2.75,2.75,0,0,1-1.12.19,1.84,1.84,0,0,1-1.27-.43A1.52,1.52,0,0,1,730.24,221Zm3.56-.55v-.57h-.44a3.43,3.43,0,0,0-1.51.24.84.84,0,0,0-.46.82.82.82,0,0,0,.24.63,1,1,0,0,0,.67.22,1.58,1.58,0,0,0,.8-.19,1.41,1.41,0,0,0,.52-.51A1.23,1.23,0,0,0,733.8,220.4Z"/><path class="cls-5" d="M737.88,217h1.41v.85h-1.41v3c0,.56.25.83.76.83a1.79,1.79,0,0,0,.51-.07l.16.82a2.56,2.56,0,0,1-.89.15,1.67,1.67,0,0,1-1.2-.42,1.58,1.58,0,0,1-.45-1.21v-3.12h-.93v-.72l.92-.13v-1.28l1.12-.41Z"/><path class="cls-5" d="M740.05,221a1.54,1.54,0,0,1,.76-1.48,4.79,4.79,0,0,1,2.25-.42h.54v-.29c0-.69-.41-1-1.23-1a3.17,3.17,0,0,0-1.61.44l-.38-.75a4,4,0,0,1,1-.41,4,4,0,0,1,1.08-.15,2.34,2.34,0,0,1,1.74.55,2.24,2.24,0,0,1,.55,1.67v2.15c0,.33,0,.74.08,1.23h-1a3.8,3.8,0,0,1-.07-.64h0a2,2,0,0,1-.75.6,2.67,2.67,0,0,1-1.11.19,1.83,1.83,0,0,1-1.27-.43A1.52,1.52,0,0,1,740.05,221Zm3.55-.55v-.57h-.43a3.51,3.51,0,0,0-1.52.24.86.86,0,0,0-.46.82.83.83,0,0,0,.25.63.93.93,0,0,0,.67.22,1.54,1.54,0,0,0,.79-.19,1.34,1.34,0,0,0,.52-.51A1.23,1.23,0,0,0,743.6,220.4Z"/><path class="cls-5" d="M689.77,230.18l-.48.69a2.38,2.38,0,0,0-1.32-.41,1.29,1.29,0,0,0-.73.17.54.54,0,0,0-.26.47.71.71,0,0,0,.11.41.83.83,0,0,0,.37.25,7,7,0,0,0,.78.24,2.58,2.58,0,0,1,1.22.59,1.36,1.36,0,0,1,.41,1,1.49,1.49,0,0,1-.3.94,1.77,1.77,0,0,1-.8.59,2.92,2.92,0,0,1-1.08.2,3,3,0,0,1-2-.63l.5-.7a2.94,2.94,0,0,0,.68.35,2.58,2.58,0,0,0,.76.11,1.36,1.36,0,0,0,.78-.2.72.72,0,0,0,.28-.6.68.68,0,0,0-.11-.4.87.87,0,0,0-.36-.24,5.17,5.17,0,0,0-.77-.24,2.67,2.67,0,0,1-1.22-.58,1.39,1.39,0,0,1-.39-1.05,1.34,1.34,0,0,1,.57-1.14,2.41,2.41,0,0,1,1.5-.43A2.89,2.89,0,0,1,689.77,230.18Z"/><path class="cls-5" d="M693,236.41a2.54,2.54,0,0,1-.7,1.15,1.65,1.65,0,0,1-1.14.37,2.61,2.61,0,0,1-.85-.14l.23-.84a2,2,0,0,0,.46.08.82.82,0,0,0,.6-.22,1.8,1.8,0,0,0,.38-.65l.32-.92-2.13-5.49h1.21l1.46,4.28h0l1.33-4.28h1.14Z"/><path class="cls-5" d="M696.22,231a10.14,10.14,0,0,0-.07-1.23h1.06a4.52,4.52,0,0,1,.08.63h0a1.73,1.73,0,0,1,.72-.57,2.67,2.67,0,0,1,1.1-.21,1.86,1.86,0,0,1,1.53.59,2.11,2.11,0,0,1,.51,1.43v3.58h-1.12v-3.33a1.53,1.53,0,0,0-.29-1,1.15,1.15,0,0,0-.95-.38,1.36,1.36,0,0,0-1.08.46,1.64,1.64,0,0,0-.4,1.14v3.08h-1.12Z"/><path class="cls-5" d="M705.23,229.6a3.19,3.19,0,0,1,1,.15,2.73,2.73,0,0,1,.85.43l-.44.78a2.34,2.34,0,0,0-1.38-.44A1.45,1.45,0,0,0,704,231a2.2,2.2,0,0,0-.41,1.42,2.24,2.24,0,0,0,.41,1.42,1.41,1.41,0,0,0,1.2.54,2.6,2.6,0,0,0,1.41-.45l.41.78a3.16,3.16,0,0,1-1.9.6,2.55,2.55,0,0,1-1.56-.43,2.4,2.4,0,0,1-.85-1.08,4,4,0,0,1-.25-1.38,3.25,3.25,0,0,1,.33-1.5,2.38,2.38,0,0,1,1-1A3,3,0,0,1,705.23,229.6Z"/><path class="cls-5" d="M708.24,227.69h1.11v2.68h0a2.12,2.12,0,0,1,1.79-.77,1.86,1.86,0,0,1,1.53.59,2.1,2.1,0,0,1,.5,1.43v3.58h-1.11v-3.33a1.54,1.54,0,0,0-.3-1,1.13,1.13,0,0,0-.94-.38,1.36,1.36,0,0,0-1.09.46,1.68,1.68,0,0,0-.4,1.14v3.08h-1.11Z"/><path class="cls-5" d="M714.86,231a10.16,10.16,0,0,0-.08-1.23h1.07a6,6,0,0,1,.08.75h0a1.77,1.77,0,0,1,.63-.67,2,2,0,0,1,1-.23l.32,0-.06,1a2,2,0,0,0-.37,0,1.4,1.4,0,0,0-1.13.49,1.9,1.9,0,0,0-.41,1.25v2.9h-1.11Z"/><path class="cls-5" d="M723.93,232.45a3.32,3.32,0,0,1-.33,1.51,2.39,2.39,0,0,1-1,1,3.21,3.21,0,0,1-3,0,2.58,2.58,0,0,1-1-1,3.57,3.57,0,0,1,0-3,2.41,2.41,0,0,1,1-1,3.41,3.41,0,0,1,3,0,2.37,2.37,0,0,1,1,1A3.25,3.25,0,0,1,723.93,232.45Zm-4.42,0a2.39,2.39,0,0,0,.4,1.46,1.39,1.39,0,0,0,1.22.55,1.43,1.43,0,0,0,1.25-.55,2.39,2.39,0,0,0,.41-1.46,2.34,2.34,0,0,0-.41-1.44,1.47,1.47,0,0,0-1.25-.53,1.43,1.43,0,0,0-1.23.53A2.41,2.41,0,0,0,719.51,232.45Z"/><path class="cls-5" d="M725.29,231a10.14,10.14,0,0,0-.07-1.23h1.06a4.52,4.52,0,0,1,.08.63h0a1.83,1.83,0,0,1,.73-.57,2.67,2.67,0,0,1,1.1-.21,1.86,1.86,0,0,1,1.53.59,2.11,2.11,0,0,1,.51,1.43v3.58h-1.12v-3.33a1.6,1.6,0,0,0-.29-1,1.15,1.15,0,0,0-1-.38,1.36,1.36,0,0,0-1.08.46,1.64,1.64,0,0,0-.4,1.14v3.08h-1.12Z"/><path class="cls-5" d="M731.79,228c0-.44.23-.67.7-.67a.67.67,0,0,1,.52.19.69.69,0,0,1,.17.48.68.68,0,0,1-.17.47.64.64,0,0,1-.52.19.61.61,0,0,1-.7-.66Zm1.25,1.8v5.45h-1.12v-5.45Z"/><path class="cls-5" d="M738.31,229.75v.82l-2.72,3.75h2.84v.88h-4.18v-.89l2.7-3.73h-2.57v-.83Z"/><path class="cls-5" d="M739.19,233.68a1.55,1.55,0,0,1,.77-1.48,4.79,4.79,0,0,1,2.25-.42h.54v-.28c0-.7-.41-1-1.23-1a3.16,3.16,0,0,0-1.61.43l-.39-.74a3.5,3.5,0,0,1,1-.41,4,4,0,0,1,1.08-.15,2.43,2.43,0,0,1,1.75.54,2.31,2.31,0,0,1,.54,1.67V234a10.58,10.58,0,0,0,.09,1.23h-1a3.89,3.89,0,0,1-.07-.65h0a2,2,0,0,1-.74.6,2.66,2.66,0,0,1-1.11.2,1.85,1.85,0,0,1-1.28-.43A1.59,1.59,0,0,1,739.19,233.68Zm3.56-.55v-.56h-.44a3.46,3.46,0,0,0-1.51.24.84.84,0,0,0-.46.82.82.82,0,0,0,.24.63,1,1,0,0,0,.67.22,1.58,1.58,0,0,0,.8-.2,1.39,1.39,0,0,0,.52-.5A1.27,1.27,0,0,0,742.75,233.13Z"/><path class="cls-5" d="M746.84,229.75h1.4v.84h-1.4v3c0,.55.25.83.75.83a1.7,1.7,0,0,0,.51-.08l.16.83a2.5,2.5,0,0,1-.88.15,1.64,1.64,0,0,1-1.21-.43,1.57,1.57,0,0,1-.45-1.21v-3.12h-.93v-.72l.92-.12v-1.29l1.13-.4Z"/><path class="cls-5" d="M749.3,228c0-.44.23-.67.7-.67a.67.67,0,0,1,.52.19.69.69,0,0,1,.17.48.68.68,0,0,1-.17.47.64.64,0,0,1-.52.19.61.61,0,0,1-.7-.66Zm1.25,1.8v5.45h-1.11v-5.45Z"/><path class="cls-5" d="M757.51,232.45a3.32,3.32,0,0,1-.33,1.51,2.45,2.45,0,0,1-1,1,3.21,3.21,0,0,1-3,0,2.58,2.58,0,0,1-1-1,3.57,3.57,0,0,1,0-3,2.41,2.41,0,0,1,1-1,3.41,3.41,0,0,1,3,0,2.37,2.37,0,0,1,1,1A3.25,3.25,0,0,1,757.51,232.45Zm-4.42,0a2.45,2.45,0,0,0,.39,1.46,1.67,1.67,0,0,0,2.48,0,2.39,2.39,0,0,0,.41-1.46A2.34,2.34,0,0,0,756,231a1.47,1.47,0,0,0-1.25-.53,1.43,1.43,0,0,0-1.23.53A2.41,2.41,0,0,0,753.09,232.45Z"/><path class="cls-5" d="M758.87,231a10.14,10.14,0,0,0-.07-1.23h1.06a4.52,4.52,0,0,1,.08.63h0a1.83,1.83,0,0,1,.73-.57,2.63,2.63,0,0,1,1.1-.21,1.86,1.86,0,0,1,1.53.59,2.11,2.11,0,0,1,.51,1.43v3.58h-1.12v-3.33a1.54,1.54,0,0,0-.3-1,1.12,1.12,0,0,0-.94-.38,1.36,1.36,0,0,0-1.08.46,1.64,1.64,0,0,0-.41,1.14v3.08h-1.11Z"/><path class="cls-5" d="M363.21,213v.95h-3.49v2.34h3.07v.94h-3.07v3.28h-1.15V213Z"/><path class="cls-5" d="M369,217.73a3.32,3.32,0,0,1-.34,1.51,2.33,2.33,0,0,1-1,1,2.88,2.88,0,0,1-1.5.37,2.93,2.93,0,0,1-1.48-.37,2.45,2.45,0,0,1-1-1,3.13,3.13,0,0,1-.34-1.5,3.25,3.25,0,0,1,.33-1.5,2.37,2.37,0,0,1,1-1,2.91,2.91,0,0,1,1.49-.35,3,3,0,0,1,1.52.35,2.37,2.37,0,0,1,1,1A3.25,3.25,0,0,1,369,217.73Zm-4.43,0a2.39,2.39,0,0,0,.4,1.46,1.39,1.39,0,0,0,1.22.55,1.45,1.45,0,0,0,1.26-.55,2.45,2.45,0,0,0,.4-1.46,2.41,2.41,0,0,0-.4-1.44,1.49,1.49,0,0,0-1.26-.53,1.43,1.43,0,0,0-1.23.53A2.41,2.41,0,0,0,364.52,217.73Z"/><path class="cls-5" d="M370.3,216.26a10.14,10.14,0,0,0-.07-1.23h1.06a6.26,6.26,0,0,1,.09.75h0a1.63,1.63,0,0,1,.63-.67,2,2,0,0,1,1-.23l.32,0-.05,1a2.05,2.05,0,0,0-.37,0,1.39,1.39,0,0,0-1.14.49,1.89,1.89,0,0,0-.4,1.25v2.9H370.3Z"/><path class="cls-5" d="M380.58,215.46l-.48.69a2.39,2.39,0,0,0-1.33-.41,1.28,1.28,0,0,0-.72.17.52.52,0,0,0-.26.47.64.64,0,0,0,.11.41.83.83,0,0,0,.37.25,6.4,6.4,0,0,0,.78.24,2.63,2.63,0,0,1,1.22.59,1.36,1.36,0,0,1,.4,1,1.55,1.55,0,0,1-.29.94,1.77,1.77,0,0,1-.8.59,2.92,2.92,0,0,1-1.08.2,3,3,0,0,1-2-.63l.51-.7a2.75,2.75,0,0,0,.68.35,2.56,2.56,0,0,0,.75.11,1.32,1.32,0,0,0,.78-.2.7.7,0,0,0,.29-.6.68.68,0,0,0-.11-.4,1,1,0,0,0-.36-.25,6.77,6.77,0,0,0-.78-.23,2.68,2.68,0,0,1-1.21-.58,1.39,1.39,0,0,1-.39-1.05,1.34,1.34,0,0,1,.57-1.14,2.41,2.41,0,0,1,1.5-.43A2.93,2.93,0,0,1,380.58,215.46Z"/><path class="cls-5" d="M386.59,218.16h-3.92a1.75,1.75,0,0,0,.49,1.16,1.57,1.57,0,0,0,1.16.42,2.76,2.76,0,0,0,.85-.13,4.2,4.2,0,0,0,.77-.38l.48.71a3.36,3.36,0,0,1-1,.52,3.91,3.91,0,0,1-1.18.17,2.82,2.82,0,0,1-1.46-.36,2.3,2.3,0,0,1-.93-1,3.42,3.42,0,0,1-.32-1.51,3.1,3.1,0,0,1,.68-2.08,2.4,2.4,0,0,1,1.92-.78,2.25,2.25,0,0,1,1.85.77,3.17,3.17,0,0,1,.64,2.06A2.22,2.22,0,0,1,386.59,218.16Zm-1.06-.86a1.85,1.85,0,0,0-.37-1.14,1.24,1.24,0,0,0-1-.45,1.3,1.3,0,0,0-1.05.46,1.78,1.78,0,0,0-.42,1.13Z"/><path class="cls-5" d="M388,216.26a10.14,10.14,0,0,0-.07-1.23H389a6.26,6.26,0,0,1,.09.75h0a1.63,1.63,0,0,1,.63-.67,2,2,0,0,1,1-.23l.32,0-.05,1a2.05,2.05,0,0,0-.37,0,1.39,1.39,0,0,0-1.14.49,1.89,1.89,0,0,0-.4,1.25v2.9H388Z"/><path class="cls-5" d="M396.67,215l-2,5.45h-1.23L391.36,215h1.2l1.48,4.34h0l1.44-4.34Z"/><path class="cls-5" d="M397.41,213.23c0-.44.23-.67.7-.67a.62.62,0,0,1,.52.19.69.69,0,0,1,.17.48.68.68,0,0,1-.17.47.62.62,0,0,1-.52.19.61.61,0,0,1-.7-.66Zm1.25,1.8v5.45h-1.11V215Z"/><path class="cls-5" d="M402.79,214.88a3.24,3.24,0,0,1,1,.15,2.57,2.57,0,0,1,.84.43l-.43.78a2.27,2.27,0,0,0-1.38-.44,1.48,1.48,0,0,0-1.23.52,2.26,2.26,0,0,0-.4,1.42,2.3,2.3,0,0,0,.4,1.42,1.43,1.43,0,0,0,1.21.53,2.59,2.59,0,0,0,1.41-.44l.4.78a3.14,3.14,0,0,1-1.9.6,2.59,2.59,0,0,1-1.56-.43,2.45,2.45,0,0,1-.84-1.08,3.79,3.79,0,0,1-.25-1.38,3.25,3.25,0,0,1,.33-1.5,2.38,2.38,0,0,1,.95-1A2.86,2.86,0,0,1,402.79,214.88Z"/><path class="cls-5" d="M410.31,218.16h-3.92a1.75,1.75,0,0,0,.49,1.16,1.57,1.57,0,0,0,1.16.42,2.76,2.76,0,0,0,.85-.13,4.2,4.2,0,0,0,.77-.38l.48.71a3.36,3.36,0,0,1-1,.52,3.91,3.91,0,0,1-1.18.17,2.82,2.82,0,0,1-1.46-.36,2.3,2.3,0,0,1-.93-1,3.42,3.42,0,0,1-.32-1.51,3.1,3.1,0,0,1,.68-2.08,2.4,2.4,0,0,1,1.92-.78,2.25,2.25,0,0,1,1.85.77,3.17,3.17,0,0,1,.64,2.06A2.22,2.22,0,0,1,410.31,218.16Zm-1.06-.86a1.85,1.85,0,0,0-.37-1.14,1.24,1.24,0,0,0-1-.45,1.3,1.3,0,0,0-1.05.46,1.78,1.78,0,0,0-.42,1.13Z"/><path class="cls-5" d="M347.74,227.61a3.19,3.19,0,0,1,1,.15,2.75,2.75,0,0,1,.85.44l-.44.77a2.33,2.33,0,0,0-1.38-.43,1.48,1.48,0,0,0-1.23.52,2.7,2.7,0,0,0,0,2.83,1.44,1.44,0,0,0,1.21.54,2.6,2.6,0,0,0,1.41-.45l.4.79a3.12,3.12,0,0,1-1.89.59,2.61,2.61,0,0,1-1.57-.43,2.35,2.35,0,0,1-.84-1.08,3.7,3.7,0,0,1-.25-1.37,3.26,3.26,0,0,1,.33-1.51,2.35,2.35,0,0,1,.95-1A2.86,2.86,0,0,1,347.74,227.61Z"/><path class="cls-5" d="M355.8,230.47a3.28,3.28,0,0,1-.34,1.5,2.41,2.41,0,0,1-1,1,3,3,0,0,1-1.5.36,2.83,2.83,0,0,1-1.48-.37,2.42,2.42,0,0,1-1-1,3.53,3.53,0,0,1,0-3,2.32,2.32,0,0,1,1-1,2.91,2.91,0,0,1,1.49-.36,3.05,3.05,0,0,1,1.52.36,2.32,2.32,0,0,1,1,1A3.19,3.19,0,0,1,355.8,230.47Zm-4.43,0a2.41,2.41,0,0,0,.4,1.46,1.41,1.41,0,0,0,1.22.54,1.47,1.47,0,0,0,1.26-.54,2.48,2.48,0,0,0,.4-1.46,2.41,2.41,0,0,0-.4-1.44,1.47,1.47,0,0,0-1.26-.54,1.43,1.43,0,0,0-1.23.54A2.41,2.41,0,0,0,351.37,230.47Z"/><path class="cls-5" d="M357.15,229a10.38,10.38,0,0,0-.07-1.23h1.06q.06.31.09.63h0a2,2,0,0,1,.71-.56,2.19,2.19,0,0,1,1-.22,2.22,2.22,0,0,1,1.11.26,1.69,1.69,0,0,1,.66.69h0a2.31,2.31,0,0,1,3-.66,1.83,1.83,0,0,1,.68.78,2.58,2.58,0,0,1,.21,1v3.5h-1.11v-3.34a1.64,1.64,0,0,0-.27-1,1,1,0,0,0-.9-.39,1.2,1.2,0,0,0-1,.51,2,2,0,0,0-.38,1.21v3h-1.11v-3.4a1.49,1.49,0,0,0-.29-.92,1,1,0,0,0-.88-.38,1.25,1.25,0,0,0-1,.47,1.7,1.7,0,0,0-.38,1.15v3.08h-1.12Z"/><path class="cls-5" d="M367.32,229a10.38,10.38,0,0,0-.07-1.23h1.06a4.52,4.52,0,0,1,.08.63h0a2.12,2.12,0,0,1,.72-.56,2.47,2.47,0,0,1,2.12,0,1.65,1.65,0,0,1,.67.69h0a2.31,2.31,0,0,1,3-.66,1.8,1.8,0,0,1,.67.78,2.43,2.43,0,0,1,.22,1v3.5h-1.11v-3.34a1.57,1.57,0,0,0-.28-1,1,1,0,0,0-.89-.39,1.2,1.2,0,0,0-1,.51,1.92,1.92,0,0,0-.38,1.21v3H371v-3.4a1.48,1.48,0,0,0-.28-.92,1,1,0,0,0-.88-.38,1.27,1.27,0,0,0-1,.47,1.75,1.75,0,0,0-.37,1.15v3.08h-1.12Z"/><path class="cls-5" d="M377.44,231.1v-3.34h1.12v3.18a2,2,0,0,0,.29,1.13,1.06,1.06,0,0,0,.93.41,1.33,1.33,0,0,0,1.09-.51,2,2,0,0,0,.41-1.28v-2.93h1.11V232a10.73,10.73,0,0,0,.09,1.24h-1.06a5.47,5.47,0,0,1-.09-.69h0a2.07,2.07,0,0,1-1.81.83,1.89,1.89,0,0,1-1.54-.62A2.46,2.46,0,0,1,377.44,231.1Z"/><path class="cls-5" d="M384.12,229a10.38,10.38,0,0,0-.07-1.23h1.06a4.66,4.66,0,0,1,.08.64h0a1.94,1.94,0,0,1,.73-.58,2.67,2.67,0,0,1,1.1-.21,1.9,1.9,0,0,1,1.53.59,2.11,2.11,0,0,1,.51,1.44v3.58H388v-3.34a1.54,1.54,0,0,0-.29-1,1.12,1.12,0,0,0-.95-.38,1.38,1.38,0,0,0-1.08.45,1.68,1.68,0,0,0-.4,1.15v3.08h-1.12Z"/><path class="cls-5" d="M390.62,226c0-.45.23-.67.7-.67a.67.67,0,0,1,.52.18.73.73,0,0,1,.17.49.68.68,0,0,1-.17.47.67.67,0,0,1-.52.18.7.7,0,0,1-.54-.18A.67.67,0,0,1,390.62,226Zm1.25,1.79v5.46h-1.12v-5.46Z"/><path class="cls-5" d="M396,227.61a3.12,3.12,0,0,1,1,.15,2.65,2.65,0,0,1,.85.44l-.43.77a2.33,2.33,0,0,0-1.38-.43,1.45,1.45,0,0,0-1.23.52,2.65,2.65,0,0,0,0,2.83,1.42,1.42,0,0,0,1.21.54,2.66,2.66,0,0,0,1.41-.45l.4.79a3.13,3.13,0,0,1-1.9.59,2.59,2.59,0,0,1-1.56-.43,2.28,2.28,0,0,1-.84-1.08,3.7,3.7,0,0,1-.25-1.37,3.26,3.26,0,0,1,.33-1.51,2.3,2.3,0,0,1,.95-1A2.86,2.86,0,0,1,396,227.61Z"/><path class="cls-5" d="M398.57,231.7a1.54,1.54,0,0,1,.76-1.48,4.79,4.79,0,0,1,2.25-.42h.54v-.29c0-.69-.41-1-1.23-1a3.17,3.17,0,0,0-1.61.44l-.39-.75a4.12,4.12,0,0,1,1-.41,3.89,3.89,0,0,1,1.07-.15,2.39,2.39,0,0,1,1.75.55,2.28,2.28,0,0,1,.55,1.67V232a10.41,10.41,0,0,0,.08,1.24h-1a4,4,0,0,1-.07-.65h0a1.93,1.93,0,0,1-.74.6,2.67,2.67,0,0,1-1.11.19,1.85,1.85,0,0,1-1.28-.43A1.55,1.55,0,0,1,398.57,231.7Zm3.55-.55v-.57h-.43a3.48,3.48,0,0,0-1.52.24.85.85,0,0,0-.46.82.79.79,0,0,0,.25.63.92.92,0,0,0,.66.22,1.58,1.58,0,0,0,.8-.19,1.34,1.34,0,0,0,.52-.51A1.21,1.21,0,0,0,402.12,231.15Z"/><path class="cls-5" d="M406.21,227.76h1.4v.85h-1.4v3c0,.56.25.83.75.83a1.7,1.7,0,0,0,.51-.07l.16.83a2.75,2.75,0,0,1-.88.14,1.7,1.7,0,0,1-1.21-.42,1.58,1.58,0,0,1-.45-1.21v-3.12h-.93v-.72l.92-.13v-1.28l1.13-.41Z"/><path class="cls-5" d="M408.67,226c0-.45.23-.67.7-.67a.65.65,0,0,1,.52.18.73.73,0,0,1,.17.49.68.68,0,0,1-.17.47.65.65,0,0,1-.52.18.7.7,0,0,1-.54-.18A.67.67,0,0,1,408.67,226Zm1.25,1.79v5.46h-1.11v-5.46Z"/><path class="cls-5" d="M416.88,230.47a3.28,3.28,0,0,1-.33,1.5,2.47,2.47,0,0,1-1,1,3,3,0,0,1-1.5.36,2.8,2.8,0,0,1-1.48-.37,2.42,2.42,0,0,1-1-1,3.53,3.53,0,0,1,0-3,2.32,2.32,0,0,1,1-1,2.91,2.91,0,0,1,1.49-.36,3,3,0,0,1,1.51.36,2.26,2.26,0,0,1,1,1A3.19,3.19,0,0,1,416.88,230.47Zm-4.42,0a2.41,2.41,0,0,0,.4,1.46,1.41,1.41,0,0,0,1.22.54,1.45,1.45,0,0,0,1.25-.54,2.41,2.41,0,0,0,.41-1.46,2.34,2.34,0,0,0-.41-1.44,1.45,1.45,0,0,0-1.25-.54,1.41,1.41,0,0,0-1.23.54A2.41,2.41,0,0,0,412.46,230.47Z"/><path class="cls-5" d="M418.24,229a10.38,10.38,0,0,0-.07-1.23h1.06a4.66,4.66,0,0,1,.08.64h0a1.94,1.94,0,0,1,.73-.58,2.67,2.67,0,0,1,1.1-.21,1.9,1.9,0,0,1,1.53.59,2.11,2.11,0,0,1,.51,1.44v3.58h-1.12v-3.34a1.54,1.54,0,0,0-.29-1,1.12,1.12,0,0,0-1-.38,1.38,1.38,0,0,0-1.08.45,1.68,1.68,0,0,0-.4,1.15v3.08h-1.12Z"/><g id="Shape-2" data-name="Shape"><path class="cls-4" d="M662.52,233.2v-3l2.63-1.5v3Zm-9-8.23,11.63-6.71v7.14l-3.1-1.78a.93.93,0,0,0-.94,0l-4.5,2.6a1,1,0,0,0-.39.51,1,1,0,0,0-.07.3v5.19a.94.94,0,0,0,.46.82l3.1,1.78-6.19,3.58ZM640,228.65l2.63,1.52v3L640,231.68Zm12.56-18.73,2.63,1.52L652.58,213,650,211.44Zm.94,4.66,1.62-.93,1-.59v3l-2.63,1.51Zm-4.5-1.52,1,.59,1.62.93v3L649,216.1Zm3.56,10.29-3.3-1.91-8.32-4.8,6.19-3.58v3.58a1,1,0,0,0,.46.81l4.5,2.6a1,1,0,0,0,.47.12,1,1,0,0,0,.47-.12l4.5-2.6a.94.94,0,0,0,.47-.81v-3.58l6.19,3.58Zm5.44,5.3.75.43,1.88,1.07v3L658,231.68Zm3.56-.12L659,227l2.62-1.52,2.63,1.52Zm-18,0L641,227l2.62-1.52,2.63,1.52Zm.94,1.62,2.63-1.52v3l-2.63,1.52Zm7.13,8.23-6.19-3.58,3.09-1.78a1,1,0,0,0,.47-.82V227h0a.93.93,0,0,0-.11-.41l-.07-.11a1,1,0,0,0-.23-.22s0-.05-.06-.06l-4.5-2.6a.91.91,0,0,0-.93,0l-3.1,1.79v-7.15l9.66,5.58,2,1.13Zm14.9-22.57-9-5.2h0l-4.5-2.6a1,1,0,0,0-.94,0l-4.49,2.6h0l-9,5.2a.93.93,0,0,0-.46.81h0V227h0v5.19a1,1,0,0,0,.46.82l4.51,2.6h0l9,5.19a.94.94,0,0,0,.46.13,1,1,0,0,0,.47-.13l9-5.19h0l4.5-2.59a1,1,0,0,0,.47-.82V216.64a.92.92,0,0,0-.47-.81Zm2.78,16a3.94,3.94,0,0,1-2,3.42l-12.8,7.39a4,4,0,0,1-3.95,0l-12.8-7.39a4,4,0,0,1-2-3.42V217a4,4,0,0,1,2-3.42l12.8-7.39a3.94,3.94,0,0,1,3.95,0l12.8,7.39a3.94,3.94,0,0,1,2,3.42Zm-.72-20.37L655.8,204a6.47,6.47,0,0,0-6.44,0l-12.8,7.39a6.48,6.48,0,0,0-3.23,5.59V231.8a6.46,6.46,0,0,0,3.23,5.58l12.8,7.39a6.39,6.39,0,0,0,6.44,0l12.81-7.39a6.45,6.45,0,0,0,3.22-5.58V217a6.47,6.47,0,0,0-3.22-5.59Z"/></g><g id="Combined-Shape"><path class="cls-4" d="M483.85,81.38a.7.7,0,0,1-.35.6l-4.08,2.36a.71.71,0,0,1-.69,0L474.64,82a.72.72,0,0,1-.35-.6V76.66a.7.7,0,0,1,.35-.6l4.09-2.36a.67.67,0,0,1,.34-.09.73.73,0,0,1,.35.09l4.08,2.36a.68.68,0,0,1,.35.6Zm.9-7.48-4.08-2.36a3.19,3.19,0,0,0-3.19,0l-4.09,2.36a3.18,3.18,0,0,0-1.59,2.76v4.72a3.21,3.21,0,0,0,1.59,2.76l4.09,2.36a3.22,3.22,0,0,0,1.59.43,3.28,3.28,0,0,0,1.6-.43l4.08-2.36a3.2,3.2,0,0,0,1.6-2.76V76.66a3.17,3.17,0,0,0-1.6-2.76Zm11.16,12.2a4.59,4.59,0,0,1-2.29,4l-12.26,7.08a4.62,4.62,0,0,1-4.58,0l-12.25-7.08a4.57,4.57,0,0,1-2.29-4V71.94a4.56,4.56,0,0,1,2.29-4l12.25-7.08a4.57,4.57,0,0,1,4.58,0L493.62,68a4.58,4.58,0,0,1,2.29,4Zm-1-20.29-12.26-7.07a7.1,7.1,0,0,0-7.08,0l-12.25,7.07a7.08,7.08,0,0,0-3.54,6.13V86.1a7.08,7.08,0,0,0,3.54,6.12l12.25,7.08a7.14,7.14,0,0,0,7.08,0l12.26-7.08a7.09,7.09,0,0,0,3.53-6.12V71.94a7.1,7.1,0,0,0-3.53-6.13Z"/></g><g id="Combined-Shape-2" data-name="Combined-Shape"><path class="cls-4" d="M483.85,364.63a.7.7,0,0,1-.35.6l-4.08,2.36a.71.71,0,0,1-.69,0l-4.09-2.36a.72.72,0,0,1-.35-.6v-4.72a.7.7,0,0,1,.35-.6l4.09-2.36a.67.67,0,0,1,.34-.09.73.73,0,0,1,.35.09l4.08,2.36a.68.68,0,0,1,.35.6Zm.9-7.48-4.08-2.36a3.19,3.19,0,0,0-3.19,0l-4.09,2.36a3.18,3.18,0,0,0-1.59,2.76v4.72a3.21,3.21,0,0,0,1.59,2.76l4.09,2.36a3.22,3.22,0,0,0,1.59.43,3.28,3.28,0,0,0,1.6-.43l4.08-2.36a3.2,3.2,0,0,0,1.6-2.76v-4.72a3.17,3.17,0,0,0-1.6-2.76Zm11.16,12.19a4.61,4.61,0,0,1-2.29,4l-12.26,7.08a4.62,4.62,0,0,1-4.58,0l-12.25-7.08a4.59,4.59,0,0,1-2.29-4V355.19a4.56,4.56,0,0,1,2.29-4l12.25-7.08a4.57,4.57,0,0,1,4.58,0l12.26,7.08a4.58,4.58,0,0,1,2.29,4Zm-1-20.28L482.61,342a7.1,7.1,0,0,0-7.08,0l-12.25,7.07a7.08,7.08,0,0,0-3.54,6.13v14.15a7.08,7.08,0,0,0,3.54,6.13l12.25,7.08a7.14,7.14,0,0,0,7.08,0l12.26-7.08a7.1,7.1,0,0,0,3.53-6.13V355.19a7.1,7.1,0,0,0-3.53-6.13Z"/></g><g id="Shape-3" data-name="Shape"><path class="cls-4" d="M654.48,71.39V63.73c4,.08,6.35.78,6.35,1.9,0,1.86-2.63,5.31-6.35,5.76m-.82-9.3a.82.82,0,0,0-.81.82V77.82a.79.79,0,0,1-.5.74.81.81,0,0,1-.87-.18.81.81,0,0,0-1.15,0,.82.82,0,0,0,0,1.16,2.39,2.39,0,0,0,1.7.72,2.45,2.45,0,0,0,1-.2,2.39,2.39,0,0,0,1.5-2.24V73c4.61-.45,8-4.63,8-7.4,0-3.17-5-3.54-8.8-3.54m-2,.82a.82.82,0,0,0-.82-.82c-3.78,0-8.8.37-8.8,3.54,0,2.93,3.78,7.44,8.8,7.44a.82.82,0,0,0,.82-.82Zm12.84,18.77a1.63,1.63,0,0,1-1.63,1.63H641.63A1.63,1.63,0,0,1,640,81.68V60.47a1.63,1.63,0,0,1,1.63-1.63h21.21a1.63,1.63,0,0,1,1.63,1.63ZM641.63,57.21a3.26,3.26,0,0,0-3.26,3.26V81.68a3.26,3.26,0,0,0,3.26,3.26h21.21a3.26,3.26,0,0,0,3.26-3.26V60.47a3.26,3.26,0,0,0-3.26-3.26Z"/></g><path class="cls-5" d="M652.58,43.21c-11.16,0-21.66-.42-29.56-1.19-13-1.27-13-2.82-13-3.75s0-2.48,13-3.74c7.9-.77,18.4-1.19,29.56-1.19s21.66.42,29.56,1.19c13,1.26,13,2.82,13,3.74s0,2.48-13,3.75C674.24,42.79,663.74,43.21,652.58,43.21ZM612,38.27c2.52,1.4,17.1,3.17,40.55,3.17s38-1.77,40.56-3.17c-2.53-1.39-17.11-3.16-40.56-3.16S614.55,36.88,612,38.27Zm81.42.24h0Z"/><path class="cls-5" d="M652.58,124.7c-11.16,0-21.66-.42-29.56-1.19-13-1.27-13-2.82-13-3.75V38.27a.89.89,0,0,1,1.77,0V119.6c1.62,1.42,16.41,3.33,40.8,3.33s39.19-1.91,40.8-3.33V38.27a.89.89,0,0,1,1.77,0v81.49c0,.93,0,2.48-13,3.75C674.24,124.28,663.74,124.7,652.58,124.7Z"/><path class="cls-5" d="M643.17,90.44V98H642V94.56h-3.76V98h-1.16V90.44h1.16v3.18H642V90.44Z"/><path class="cls-5" d="M649.61,95.63h-3.92a1.79,1.79,0,0,0,.48,1.16,1.61,1.61,0,0,0,1.17.42,2.49,2.49,0,0,0,.85-.13,3.65,3.65,0,0,0,.77-.38l.48.71a3.36,3.36,0,0,1-1,.52,3.91,3.91,0,0,1-1.18.17,2.82,2.82,0,0,1-1.46-.36,2.33,2.33,0,0,1-.93-1,3.47,3.47,0,0,1-.32-1.52,3.1,3.1,0,0,1,.68-2.08,2.4,2.4,0,0,1,1.92-.78,2.28,2.28,0,0,1,1.85.77,3.19,3.19,0,0,1,.64,2.06A3.14,3.14,0,0,1,649.61,95.63Zm-1.06-.86a1.85,1.85,0,0,0-.37-1.14,1.23,1.23,0,0,0-1-.44,1.29,1.29,0,0,0-1,.45,1.8,1.8,0,0,0-.42,1.13Z"/><path class="cls-5" d="M651,93.73a10.14,10.14,0,0,0-.07-1.23H652a6.51,6.51,0,0,1,.09.75h0a1.63,1.63,0,0,1,.63-.67,2.07,2.07,0,0,1,1-.23l.32,0-.05,1a1.4,1.4,0,0,0-.37,0,1.42,1.42,0,0,0-1.14.49,1.89,1.89,0,0,0-.4,1.25V98H651Z"/><path class="cls-5" d="M660.07,95.2a3.2,3.2,0,0,1-.34,1.51,2.37,2.37,0,0,1-1,1,2.88,2.88,0,0,1-1.5.37,2.84,2.84,0,0,1-1.49-.37,2.45,2.45,0,0,1-1-1,3.62,3.62,0,0,1,0-3,2.37,2.37,0,0,1,1-1,3.08,3.08,0,0,1,1.5-.35,3.12,3.12,0,0,1,1.51.35,2.37,2.37,0,0,1,1,1A3.25,3.25,0,0,1,660.07,95.2Zm-4.43,0a2.39,2.39,0,0,0,.4,1.46,1.4,1.4,0,0,0,1.23.55,1.45,1.45,0,0,0,1.25-.55,2.39,2.39,0,0,0,.4-1.46,2.29,2.29,0,0,0-.4-1.43,1.47,1.47,0,0,0-1.25-.54,1.45,1.45,0,0,0-1.24.54A2.36,2.36,0,0,0,655.64,95.2Z"/><path class="cls-5" d="M665.05,98l-2-2.49-.5.46v2h-1.11V90.44h1.11v4.23l2.34-2.17h1.33l-2.4,2.24L666.41,98Z"/><path class="cls-5" d="M667,95.84V92.5h1.12v3.18a2,2,0,0,0,.29,1.13,1.08,1.08,0,0,0,.93.41,1.33,1.33,0,0,0,1.09-.51,2,2,0,0,0,.41-1.28V92.5h1.11v4.22A10.43,10.43,0,0,0,672,98H671a5.47,5.47,0,0,1-.09-.69h0a2,2,0,0,1-1.8.84,1.91,1.91,0,0,1-1.55-.63A2.43,2.43,0,0,1,667,95.84Z"/><path class="cls-5" d="M639.61,105.65a2.47,2.47,0,0,1-.38,1.39,2.39,2.39,0,0,1-1,.85,3.39,3.39,0,0,1-1.35.27h-1.48v2.53h-1.16v-7.52h2.63a3.13,3.13,0,0,1,2,.61A2.25,2.25,0,0,1,639.61,105.65Zm-4.22-1.54v3.11h1.38a1.73,1.73,0,0,0,1.17-.4,1.69,1.69,0,0,0,0-2.35,1.89,1.89,0,0,0-1.19-.36Z"/><path class="cls-5" d="M645.67,107.94a3.35,3.35,0,0,1-.33,1.51,2.51,2.51,0,0,1-1,1,3,3,0,0,1-1.5.37,2.87,2.87,0,0,1-1.49-.38,2.49,2.49,0,0,1-1-1,3.57,3.57,0,0,1,0-3,2.41,2.41,0,0,1,1-1,3.33,3.33,0,0,1,3,0,2.37,2.37,0,0,1,1,1A3.25,3.25,0,0,1,645.67,107.94Zm-4.42,0a2.47,2.47,0,0,0,.39,1.46,1.69,1.69,0,0,0,2.48,0,2.41,2.41,0,0,0,.41-1.46,2.34,2.34,0,0,0-.41-1.44,1.45,1.45,0,0,0-1.25-.54,1.41,1.41,0,0,0-1.23.54A2.41,2.41,0,0,0,641.25,107.94Z"/><path class="cls-5" d="M650.49,105.67l-.48.69a2.4,2.4,0,0,0-1.33-.42,1.37,1.37,0,0,0-.72.17.56.56,0,0,0-.26.48.61.61,0,0,0,.11.4.84.84,0,0,0,.37.26,5.2,5.2,0,0,0,.78.23,2.58,2.58,0,0,1,1.22.6,1.36,1.36,0,0,1,.4,1,1.5,1.5,0,0,1-.29.94,1.85,1.85,0,0,1-.8.59,2.92,2.92,0,0,1-1.08.2,3,3,0,0,1-2-.63l.51-.7a2.54,2.54,0,0,0,.68.34,2.29,2.29,0,0,0,.76.12,1.29,1.29,0,0,0,.78-.21.69.69,0,0,0,.28-.59.68.68,0,0,0-.11-.4.87.87,0,0,0-.36-.25,5.39,5.39,0,0,0-.77-.23,2.77,2.77,0,0,1-1.22-.58,1.4,1.4,0,0,1-.39-1.06,1.37,1.37,0,0,1,.57-1.14,2.47,2.47,0,0,1,1.5-.43A2.92,2.92,0,0,1,650.49,105.67Z"/><path class="cls-5" d="M653.16,105.23h1.4v.85h-1.4v3c0,.55.26.82.76.82a1.79,1.79,0,0,0,.51-.07l.16.83a2.54,2.54,0,0,1-.88.15,1.69,1.69,0,0,1-1.21-.43,1.57,1.57,0,0,1-.45-1.21v-3.12h-.93v-.72l.92-.13V104l1.12-.41Z"/><path class="cls-5" d="M655.09,111.75a1.44,1.44,0,0,1,.25-.81,2.19,2.19,0,0,1,.78-.66,1.07,1.07,0,0,1-.35-.31.74.74,0,0,1-.12-.42.76.76,0,0,1,.2-.52,1.1,1.1,0,0,1,.56-.35,1.65,1.65,0,0,1-1-1.63,1.8,1.8,0,0,1,.62-1.44,2.55,2.55,0,0,1,1.71-.53,3.67,3.67,0,0,1,.52,0c.14,0,.3.06.47.11h1.94v.88l-1.15-.16a1.3,1.3,0,0,1,.36.49,1.81,1.81,0,0,1,.13.72,1.64,1.64,0,0,1-.6,1.35,2.62,2.62,0,0,1-1.68.48,2.07,2.07,0,0,0-.8.12c-.19.08-.28.19-.28.34a.33.33,0,0,0,.24.3,2.35,2.35,0,0,0,.8.12,5.05,5.05,0,0,1,2.16.42,1.26,1.26,0,0,1,.68,1.16,1.64,1.64,0,0,1-.78,1.45,3.91,3.91,0,0,1-2.17.51,3.29,3.29,0,0,1-1.87-.43A1.41,1.41,0,0,1,655.09,111.75Zm4.36-.19c0-.29-.19-.5-.57-.64a7,7,0,0,0-2-.21,1.62,1.62,0,0,0-.56.43.94.94,0,0,0-.17.54q0,.9,1.44.9a2.92,2.92,0,0,0,1.37-.26A.85.85,0,0,0,659.45,111.56Zm-.46-4.49a1.16,1.16,0,0,0-.31-.86,1.35,1.35,0,0,0-1-.31,1.3,1.3,0,0,0-.92.31,1,1,0,0,0-.35.82,1.21,1.21,0,0,0,.31.86,1.35,1.35,0,0,0,1,.3C658.57,108.19,659,107.82,659,107.07Z"/><path class="cls-5" d="M661.78,106.46a10.38,10.38,0,0,0-.07-1.23h1.06a4.8,4.8,0,0,1,.08.76h0a1.66,1.66,0,0,1,.64-.67,2,2,0,0,1,1-.24,1.78,1.78,0,0,1,.32,0l-.05,1a2.09,2.09,0,0,0-.38,0,1.38,1.38,0,0,0-1.13.49,1.88,1.88,0,0,0-.4,1.25v2.9h-1.12Z"/><path class="cls-5" d="M670.33,108.36H666.4a1.75,1.75,0,0,0,.49,1.17,1.61,1.61,0,0,0,1.16.41,2.77,2.77,0,0,0,.85-.12,4.29,4.29,0,0,0,.77-.39l.49.72a3.82,3.82,0,0,1-1,.52,3.91,3.91,0,0,1-1.18.17,2.73,2.73,0,0,1-1.46-.37,2.28,2.28,0,0,1-.93-1,3.42,3.42,0,0,1-.32-1.51,3.08,3.08,0,0,1,.68-2.08,2.44,2.44,0,0,1,1.92-.79,2.24,2.24,0,0,1,1.85.78,3.56,3.56,0,0,1,.61,2.5Zm-1.07-.86a1.89,1.89,0,0,0-.37-1.14,1.26,1.26,0,0,0-1-.44,1.29,1.29,0,0,0-1.05.45,1.92,1.92,0,0,0-.42,1.13Z"/><path class="cls-5" d="M675.16,105.67l-.47.69a2.42,2.42,0,0,0-1.33-.42,1.37,1.37,0,0,0-.72.17.55.55,0,0,0-.27.48.68.68,0,0,0,.11.4.88.88,0,0,0,.38.26,5.2,5.2,0,0,0,.78.23,2.63,2.63,0,0,1,1.22.6,1.36,1.36,0,0,1,.4,1,1.51,1.51,0,0,1-.3.94,1.81,1.81,0,0,1-.79.59,3.3,3.3,0,0,1-3.07-.43l.51-.7a2.4,2.4,0,0,0,.68.34,2.23,2.23,0,0,0,.75.12,1.29,1.29,0,0,0,.78-.21.67.67,0,0,0,.28-.59.68.68,0,0,0-.1-.4.87.87,0,0,0-.36-.25,5.2,5.2,0,0,0-.78-.23,2.73,2.73,0,0,1-1.21-.58,1.4,1.4,0,0,1-.39-1.06,1.37,1.37,0,0,1,.57-1.14,2.47,2.47,0,0,1,1.5-.43A2.89,2.89,0,0,1,675.16,105.67Z"/><path class="cls-5" d="M479.07,187.54c-11.16,0-21.66-.42-29.56-1.19-13-1.26-13-2.82-13-3.75s0-2.48,13-3.74c7.9-.77,18.4-1.19,29.56-1.19s21.66.42,29.56,1.19c13,1.26,13,2.82,13,3.74s0,2.49-13,3.75C500.73,187.12,490.23,187.54,479.07,187.54Zm-40.55-4.94c2.52,1.4,17.1,3.17,40.55,3.17s38-1.77,40.56-3.17c-2.53-1.39-17.11-3.16-40.56-3.16S441,181.21,438.52,182.6Zm81.42.24h0Z"/><path class="cls-5" d="M479.07,269c-11.16,0-21.66-.42-29.56-1.19-13-1.27-13-2.82-13-3.75V182.6a.89.89,0,0,1,1.77,0v81.33c1.62,1.42,16.41,3.33,40.8,3.33s39.19-1.91,40.8-3.33V182.6a.89.89,0,0,1,1.77,0v81.49c0,.93,0,2.48-13,3.75C500.73,268.61,490.23,269,479.07,269Z"/><path class="cls-5" d="M452.56,242.28l-.62-1.72h-3.31l-.64,1.72h-1.23l2.93-7.51h1.2l2.93,7.51Zm-2.27-6.39L449,239.66h2.68Z"/><path class="cls-5" d="M460,239.54a3.51,3.51,0,0,1-.3,1.47,2.46,2.46,0,0,1-.87,1,2.4,2.4,0,0,1-1.35.38,2.54,2.54,0,0,1-1.68-.58v3h-1.12v-6.81a10.38,10.38,0,0,0-.07-1.23h1.06c0,.28.07.51.08.69h0a2.07,2.07,0,0,1,1.83-.84,2.22,2.22,0,0,1,1.32.38,2.28,2.28,0,0,1,.8,1A3.75,3.75,0,0,1,460,239.54Zm-1.16,0a2.45,2.45,0,0,0-.38-1.45,1.27,1.27,0,0,0-1.08-.53,1.5,1.5,0,0,0-.82.22,1.45,1.45,0,0,0-.56.59,1.6,1.6,0,0,0-.2.81V241a2.73,2.73,0,0,0,.68.43,2,2,0,0,0,.75.14,1.41,1.41,0,0,0,1.2-.54A2.32,2.32,0,0,0,458.85,239.54Z"/><path class="cls-5" d="M460.94,240.77a1.56,1.56,0,0,1,.77-1.49,4.93,4.93,0,0,1,2.25-.41h.54v-.29c0-.69-.41-1-1.23-1a3.2,3.2,0,0,0-1.62.43l-.38-.74a3.83,3.83,0,0,1,1-.41,4,4,0,0,1,1.08-.15,2.39,2.39,0,0,1,1.75.55,2.28,2.28,0,0,1,.54,1.67v2.15a10.43,10.43,0,0,0,.09,1.23h-1a4.18,4.18,0,0,1-.08-.64h0a2.08,2.08,0,0,1-.74.59,2.51,2.51,0,0,1-1.11.2,1.85,1.85,0,0,1-1.28-.43A1.58,1.58,0,0,1,460.94,240.77Zm3.56-.56v-.56h-.44a3.46,3.46,0,0,0-1.51.24.84.84,0,0,0-.46.82.82.82,0,0,0,.24.63,1,1,0,0,0,.67.22,1.49,1.49,0,0,0,.8-.2,1.39,1.39,0,0,0,.52-.5A1.27,1.27,0,0,0,464.5,240.21Z"/><path class="cls-5" d="M469.68,236.68a3.24,3.24,0,0,1,1,.15,2.78,2.78,0,0,1,.84.43l-.43.78a2.34,2.34,0,0,0-1.38-.44,1.49,1.49,0,0,0-1.23.52,2.26,2.26,0,0,0-.41,1.42,2.3,2.3,0,0,0,.41,1.42,1.44,1.44,0,0,0,1.21.54,2.6,2.6,0,0,0,1.41-.45l.4.79a3.2,3.2,0,0,1-1.9.59A2.59,2.59,0,0,1,468,242a2.45,2.45,0,0,1-.84-1.08,3.75,3.75,0,0,1-.25-1.38,3.25,3.25,0,0,1,.33-1.5,2.37,2.37,0,0,1,.95-1A3,3,0,0,1,469.68,236.68Z"/><path class="cls-5" d="M472.68,234.77h1.12v2.68h0a2.1,2.1,0,0,1,1.79-.77,1.9,1.9,0,0,1,1.53.59,2.16,2.16,0,0,1,.5,1.44v3.57h-1.12V239a1.6,1.6,0,0,0-.29-1,1.15,1.15,0,0,0-1-.38,1.36,1.36,0,0,0-1.08.46,1.66,1.66,0,0,0-.4,1.15v3.07h-1.12Z"/><path class="cls-5" d="M484,240h-3.93a1.75,1.75,0,0,0,.49,1.16,1.57,1.57,0,0,0,1.16.42,2.49,2.49,0,0,0,.85-.13,3.65,3.65,0,0,0,.77-.38l.49.71a3.54,3.54,0,0,1-1,.52,3.91,3.91,0,0,1-1.18.17,2.82,2.82,0,0,1-1.46-.36,2.33,2.33,0,0,1-.93-1,3.47,3.47,0,0,1-.32-1.52,3.1,3.1,0,0,1,.68-2.08,2.43,2.43,0,0,1,1.92-.78,2.27,2.27,0,0,1,1.85.77,3.13,3.13,0,0,1,.64,2.06A3.19,3.19,0,0,1,484,240Zm-1.07-.86a1.85,1.85,0,0,0-.37-1.14,1.23,1.23,0,0,0-1-.44,1.29,1.29,0,0,0-1,.45,1.92,1.92,0,0,0-.42,1.13Z"/><path class="cls-5" d="M492.73,242.28l-2.9-3.29-.46.49v2.8h-1.16v-7.51h1.16v3.3l3.14-3.3h1.36l-3.29,3.45,3.56,4.06Z"/><path class="cls-5" d="M494.43,240.77a1.55,1.55,0,0,1,.76-1.49,4.93,4.93,0,0,1,2.25-.41H498v-.29c0-.69-.41-1-1.23-1a3.16,3.16,0,0,0-1.61.43l-.38-.74a3.68,3.68,0,0,1,1-.41,4,4,0,0,1,1.07-.15,2.37,2.37,0,0,1,1.75.55,2.24,2.24,0,0,1,.55,1.67v2.15c0,.33,0,.74.08,1.23h-1a3.9,3.9,0,0,1-.07-.64h0a2.11,2.11,0,0,1-.75.59,2.51,2.51,0,0,1-1.11.2,1.83,1.83,0,0,1-1.27-.43A1.55,1.55,0,0,1,494.43,240.77Zm3.55-.56v-.56h-.43a3.48,3.48,0,0,0-1.52.24.86.86,0,0,0-.46.82.79.79,0,0,0,.25.63.93.93,0,0,0,.67.22,1.45,1.45,0,0,0,.79-.2,1.32,1.32,0,0,0,.52-.5A1.27,1.27,0,0,0,498,240.21Z"/><path class="cls-5" d="M503.89,234.78l-.25.8a2.4,2.4,0,0,0-.67-.08c-.61,0-.91.36-.91,1v.32h1.34v.85h-1.34v4.6h-1.12v-4.6H500V237l.92-.13v-.36a1.87,1.87,0,0,1,.48-1.36,2,2,0,0,1,1.46-.49A3.1,3.1,0,0,1,503.89,234.78Z"/><path class="cls-5" d="M508,242.28l-2-2.49-.49.47v2h-1.12v-7.51h1.12V239l2.33-2.17h1.34l-2.4,2.24,2.59,3.21Z"/><path class="cls-5" d="M509.7,240.77a1.57,1.57,0,0,1,.76-1.49,4.93,4.93,0,0,1,2.25-.41h.55v-.29c0-.69-.41-1-1.24-1a3.16,3.16,0,0,0-1.61.43l-.38-.74a3.68,3.68,0,0,1,1-.41,4,4,0,0,1,1.08-.15,2.34,2.34,0,0,1,1.74.55,2.24,2.24,0,0,1,.55,1.67v2.15c0,.33,0,.74.08,1.23h-1a4.18,4.18,0,0,1-.08-.64h0a2.08,2.08,0,0,1-.74.59,2.58,2.58,0,0,1-1.12.2,1.83,1.83,0,0,1-1.27-.43A1.55,1.55,0,0,1,509.7,240.77Zm3.56-.56v-.56h-.44a3.51,3.51,0,0,0-1.52.24.85.85,0,0,0-.45.82.82.82,0,0,0,.24.63,1,1,0,0,0,.67.22,1.45,1.45,0,0,0,.79-.2,1.32,1.32,0,0,0,.52-.5A1.19,1.19,0,0,0,513.26,240.21Z"/><path class="cls-5" d="M460.74,252.27a3.32,3.32,0,0,1-.33,1.51,2.45,2.45,0,0,1-1,1,3.21,3.21,0,0,1-3,0,2.58,2.58,0,0,1-1-1,3.57,3.57,0,0,1,0-3,2.41,2.41,0,0,1,.95-1,3.33,3.33,0,0,1,3,0,2.37,2.37,0,0,1,1,1A3.25,3.25,0,0,1,460.74,252.27Zm-4.42,0a2.47,2.47,0,0,0,.39,1.46,1.67,1.67,0,0,0,2.48,0,2.41,2.41,0,0,0,.41-1.46,2.34,2.34,0,0,0-.41-1.44,1.45,1.45,0,0,0-1.25-.53,1.41,1.41,0,0,0-1.23.53A2.41,2.41,0,0,0,456.32,252.27Z"/><path class="cls-5" d="M462.1,250.79a10.38,10.38,0,0,0-.07-1.23h1.06a4.86,4.86,0,0,1,.08.64h0a1.83,1.83,0,0,1,.73-.57,2.63,2.63,0,0,1,1.1-.22,1.9,1.9,0,0,1,1.53.59,2.15,2.15,0,0,1,.51,1.44V255h-1.12v-3.33a1.57,1.57,0,0,0-.29-1,1.15,1.15,0,0,0-.95-.38,1.38,1.38,0,0,0-1.08.45,1.68,1.68,0,0,0-.4,1.15V255H462.1Z"/><path class="cls-5" d="M477.66,247.5V255h-1.18v-3.4h-3.77V255h-1.15V247.5h1.15v3.19h3.77V247.5Z"/><path class="cls-5" d="M484.1,252.69h-3.93a1.85,1.85,0,0,0,.49,1.17,1.6,1.6,0,0,0,1.17.42,2.65,2.65,0,0,0,.84-.13,3.91,3.91,0,0,0,.77-.38l.49.71a3.62,3.62,0,0,1-1,.52,4,4,0,0,1-1.18.17,2.8,2.8,0,0,1-1.46-.36,2.3,2.3,0,0,1-.93-1,3.29,3.29,0,0,1-.32-1.51,3.08,3.08,0,0,1,.68-2.08,2.41,2.41,0,0,1,1.92-.79,2.26,2.26,0,0,1,1.85.78,3.6,3.6,0,0,1,.6,2.5Zm-1.06-.86a1.84,1.84,0,0,0-.38-1.14,1.24,1.24,0,0,0-1-.44,1.31,1.31,0,0,0-1.06.45,1.92,1.92,0,0,0-.42,1.13Z"/><path class="cls-5" d="M485.48,250.79a10.38,10.38,0,0,0-.07-1.23h1.06a6.36,6.36,0,0,1,.08.76h0a1.7,1.7,0,0,1,.63-.67,2,2,0,0,1,1-.24l.32,0-.06,1a2,2,0,0,0-.37,0,1.38,1.38,0,0,0-1.13.49,1.88,1.88,0,0,0-.41,1.25V255h-1.11Z"/><path class="cls-5" d="M494.55,252.27a3.32,3.32,0,0,1-.33,1.51,2.33,2.33,0,0,1-1,1,3,3,0,0,1-1.5.37,2.9,2.9,0,0,1-1.48-.37,2.45,2.45,0,0,1-1-1,3.13,3.13,0,0,1-.34-1.5,3.25,3.25,0,0,1,.33-1.5,2.37,2.37,0,0,1,1-1,2.91,2.91,0,0,1,1.49-.36,3.05,3.05,0,0,1,1.52.36,2.37,2.37,0,0,1,1,1A3.38,3.38,0,0,1,494.55,252.27Zm-4.42,0a2.41,2.41,0,0,0,.4,1.46,1.41,1.41,0,0,0,1.22.55,1.48,1.48,0,0,0,1.26-.55,2.48,2.48,0,0,0,.4-1.46,2.41,2.41,0,0,0-.4-1.44,1.47,1.47,0,0,0-1.26-.53,1.41,1.41,0,0,0-1.23.53A2.41,2.41,0,0,0,490.13,252.27Z"/><path class="cls-5" d="M499.53,255l-2-2.5-.5.47v2h-1.12V247.5H497v4.24l2.33-2.18h1.34l-2.4,2.24L500.9,255Z"/><path class="cls-5" d="M501.45,252.91v-3.35h1.13v3.19a1.93,1.93,0,0,0,.29,1.12,1,1,0,0,0,.93.42,1.34,1.34,0,0,0,1.09-.51,2,2,0,0,0,.4-1.29v-2.93h1.12v4.23c0,.32,0,.73.08,1.23h-1.06a5.23,5.23,0,0,1-.08-.69h0a2,2,0,0,1-1.81.84,1.89,1.89,0,0,1-1.54-.63A2.46,2.46,0,0,1,501.45,252.91Z"/><path class="cls-7" d="M705.93,397.21l-2.45,3.4H706v.74h-3.58v-.76l2.42-3.36h-2.34v-.72h3.44Z"/><path class="cls-7" d="M706.56,398.93a2.88,2.88,0,0,1,.3-1.34,2.09,2.09,0,0,1,.85-.89,2.92,2.92,0,0,1,2.66,0,2.11,2.11,0,0,1,.86.89,3.24,3.24,0,0,1,0,2.68,2.11,2.11,0,0,1-.86.89,2.92,2.92,0,0,1-2.66,0,2.09,2.09,0,0,1-.85-.89A2.88,2.88,0,0,1,706.56,398.93Zm4,0a2,2,0,0,0-.39-1.3,1.67,1.67,0,0,0-2.34,0,2.36,2.36,0,0,0,0,2.6,1.67,1.67,0,0,0,2.34,0A2,2,0,0,0,710.6,398.93Z"/><path class="cls-7" d="M712.12,398.93a2.87,2.87,0,0,1,.29-1.34,2.15,2.15,0,0,1,.85-.89,2.57,2.57,0,0,1,1.33-.32,2.61,2.61,0,0,1,1.34.32,2.09,2.09,0,0,1,.85.89,3.14,3.14,0,0,1,0,2.68,2.09,2.09,0,0,1-.85.89,2.61,2.61,0,0,1-1.34.32,2.57,2.57,0,0,1-1.33-.32,2.15,2.15,0,0,1-.85-.89A2.87,2.87,0,0,1,712.12,398.93Zm4,0a2,2,0,0,0-.39-1.3,1.45,1.45,0,0,0-1.18-.48,1.41,1.41,0,0,0-1.16.48,2.31,2.31,0,0,0,0,2.6,1.41,1.41,0,0,0,1.16.48,1.45,1.45,0,0,0,1.18-.48A2,2,0,0,0,716.16,398.93Z"/><path class="cls-7" d="M723.24,401.35h-.88l0-3.81h0l-1.49,3.81h-.67l-1.47-3.81h0l0,3.81h-.83v-4.84h1.31l1.32,3.61h0l1.36-3.61h1.32Z"/><path class="cls-7" d="M692.8,402.14a3.82,3.82,0,1,1,3.82-3.82A3.82,3.82,0,0,1,692.8,402.14Zm0-6.61a2.8,2.8,0,1,0,2.79,2.79A2.8,2.8,0,0,0,692.8,395.53Z"/><path class="cls-7" d="M699.29,405.32a.51.51,0,0,1-.36-.15L695,401.23a.52.52,0,0,1,.73-.73l3.94,3.95a.51.51,0,0,1-.36.87Z"/></g></svg>