<svg xmlns="http://www.w3.org/2000/svg" xmlns:xlink="http://www.w3.org/1999/xlink" width="770" height="500" viewBox="0 0 770 500"><title>architecture-diagram copy 2</title><g id="Layer_1" data-name="Layer 1"><rect x="-44.8" y="-5.82" width="817.95" height="516.82" fill="none"/></g><g id="Layer_2" data-name="Layer 2"><g id="Marketing"><g id="kafka-48"><g id="Shape"><path d="M414.36,223.34H438.3a3.68,3.68,0,0,1,3.68,3.54V251a3.69,3.69,0,0,1-3.55,3.68H414.36a3.69,3.69,0,0,1-3.69-3.54V227a3.68,3.68,0,0,1,3.54-3.68Zm23.94,1.84H414.36a1.83,1.83,0,0,0-1.84,1.73V251a1.85,1.85,0,0,0,1.73,1.84H438.3a1.85,1.85,0,0,0,1.84-1.73V227A1.84,1.84,0,0,0,438.3,225.18Zm-10.09,3a.93.93,0,0,1,.93.92v7.71l7.46-3.47a.92.92,0,1,1,.78,1.66l-8.24,3.84v.59l8.26,4.06a.92.92,0,0,1-.41,1.75.82.82,0,0,1-.4-.1l-7.45-3.66v7.91a.93.93,0,0,1-1.85,0V229.08A.92.92,0,0,1,428.21,228.16Zm-3.5,16.59a.91.91,0,0,1,.91.83v3.79a.92.92,0,0,1-.92.92,2.77,2.77,0,1,1,0-5.54Zm0-16.63a.91.91,0,0,1,.91.83v3.79a.92.92,0,0,1-.92.92,2.77,2.77,0,1,1,0-5.54Zm-2.46,13.93a4.79,4.79,0,0,0,2.11,1.64,1,1,0,0,0,.34.06.91.91,0,0,0,.52-.16.93.93,0,0,0,.4-.76l0-7.24a.92.92,0,0,0-.41-.76.91.91,0,0,0-.86-.09,4.78,4.78,0,0,0-2,1.54l-2-.95a2.72,2.72,0,0,0,0-.28,2.77,2.77,0,1,0-.79,1.94l2,.94a4.94,4.94,0,0,0-.17,1.28,4.52,4.52,0,0,0,.15,1.17l-2,1a2.77,2.77,0,1,0,.83,2,1.83,1.83,0,0,0,0-.33Z" fill="#fff" fill-rule="evenodd"/></g></g></g><path d="M250.07,191H35.51a6.23,6.23,0,0,1-6.22-6.22V54.22A6.23,6.23,0,0,1,35.51,48H250.07a6.23,6.23,0,0,1,6.22,6.22V184.78A6.23,6.23,0,0,1,250.07,191ZM35.51,50a4.22,4.22,0,0,0-4.22,4.22V184.78A4.22,4.22,0,0,0,35.51,189H250.07a4.23,4.23,0,0,0,4.22-4.22V54.22A4.23,4.23,0,0,0,250.07,50Z" fill="#fff"/><path d="M245.29,181h-205a1,1,0,0,1-1-1V59a1,1,0,0,1,1-1h205a1,1,0,0,1,1,1V180A1,1,0,0,1,245.29,181Zm-204-2h203V60h-203Z" fill="#fff"/><path d="M267.29,294.5h-249a1,1,0,0,1-.85-1.53l27-43a1,1,0,0,1,.85-.47H99.76a1,1,0,0,1,0,2H45.84l-25.75,41H265.48l-25.75-41H186.29a1,1,0,1,1,0-2h54a1,1,0,0,1,.84.47l27,43a1,1,0,0,1,0,1A1,1,0,0,1,267.29,294.5Z" fill="#fff"/><g opacity="0.3"><polygon points="164.29 59 80.29 180 109.84 180 192.29 59 164.29 59" fill="#fff"/></g><g opacity="0.3"><polygon points="201.29 59 117.29 180 126.84 180 209.29 59 201.29 59" fill="#fff"/></g><path d="M267.29,302.5h-249a1,1,0,0,1-1-1v-8a1,1,0,0,1,2,0v7h247v-7a1,1,0,0,1,2,0v8A1,1,0,0,1,267.29,302.5Z" fill="#fff"/><path d="M110.74,22.42,107.66,33H106l-2.5-8.51h0L101,33H99.29L96.22,22.42h1.71l2.26,8.44h0l2.38-8.44h1.73l2.41,8.44h0l2.33-8.44Z" fill="#fff"/><path d="M118.22,29.75h-5.55a2.55,2.55,0,0,0,.69,1.65A2.27,2.27,0,0,0,115,32a3.69,3.69,0,0,0,1.2-.18,5.43,5.43,0,0,0,1.08-.54l.69,1a4.72,4.72,0,0,1-1.4.74,5.39,5.39,0,0,1-1.67.24,4,4,0,0,1-2.07-.51,3.36,3.36,0,0,1-1.31-1.43,4.85,4.85,0,0,1-.45-2.14,4.34,4.34,0,0,1,1-2.94,3.41,3.41,0,0,1,2.72-1.11,3.18,3.18,0,0,1,2.61,1.09,4.44,4.44,0,0,1,.9,2.91A4.23,4.23,0,0,1,118.22,29.75Zm-1.5-1.21a2.57,2.57,0,0,0-.53-1.61,1.74,1.74,0,0,0-1.45-.63,1.86,1.86,0,0,0-1.49.64,2.73,2.73,0,0,0-.59,1.6Z" fill="#fff"/><path d="M127.69,29.17a4.84,4.84,0,0,1-.43,2.08A3.51,3.51,0,0,1,126,32.71a3.79,3.79,0,0,1-4.39-.35l-.12.68h-1.3V22.42h1.57v3.81h0a2.93,2.93,0,0,1,2.49-1.11,3.15,3.15,0,0,1,1.87.54,3.23,3.23,0,0,1,1.14,1.45A5.4,5.4,0,0,1,127.69,29.17Zm-1.62,0a3.42,3.42,0,0,0-.55-2.07,1.8,1.8,0,0,0-1.52-.74,2.26,2.26,0,0,0-1.16.31,2.17,2.17,0,0,0-.79.83,2.4,2.4,0,0,0-.29,1.16v2.52a3.42,3.42,0,0,0,1,.61,2.83,2.83,0,0,0,1.07.2,2,2,0,0,0,1.69-.77A3.29,3.29,0,0,0,126.07,29.17Z" fill="#fff"/><path d="M140.77,25a2.41,2.41,0,0,1-.52,1.56,2.55,2.55,0,0,1-1.36.83v0a2.66,2.66,0,0,1,1.7.81,2.53,2.53,0,0,1,.63,1.8,2.58,2.58,0,0,1-1,2.25,4.49,4.49,0,0,1-2.65.72h-3.95V22.42h3.87a4.17,4.17,0,0,1,2.39.62A2.26,2.26,0,0,1,140.77,25Zm-5.55-1.36v3.25h1.95a2.19,2.19,0,0,0,1.44-.43,1.51,1.51,0,0,0,.52-1.26,1.39,1.39,0,0,0-.51-1.2,2.59,2.59,0,0,0-1.5-.36Zm0,4.44v3.64h2a2.82,2.82,0,0,0,1.67-.44,1.61,1.61,0,0,0,.63-1.42c0-1.19-.74-1.78-2.22-1.78Z" fill="#fff"/><path d="M143.05,27.07a14.78,14.78,0,0,0-.11-1.74h1.5a8.36,8.36,0,0,1,.12,1.06h0a2.38,2.38,0,0,1,.89-.94,2.91,2.91,0,0,1,1.47-.33,3.39,3.39,0,0,1,.45,0l-.08,1.37a2.62,2.62,0,0,0-.52-.05,2,2,0,0,0-1.61.69,2.69,2.69,0,0,0-.57,1.77V33h-1.57Z" fill="#fff"/><path d="M155.87,29.15a4.57,4.57,0,0,1-.47,2.13A3.37,3.37,0,0,1,154,32.73a4.09,4.09,0,0,1-2.12.52,4,4,0,0,1-2.1-.53,3.44,3.44,0,0,1-1.35-1.45,4.51,4.51,0,0,1-.48-2.12,4.6,4.6,0,0,1,.47-2.12,3.4,3.4,0,0,1,1.35-1.41,4.25,4.25,0,0,1,2.11-.5,4.37,4.37,0,0,1,2.14.5A3.42,3.42,0,0,1,155.41,27,4.6,4.6,0,0,1,155.87,29.15Zm-6.25,0a3.43,3.43,0,0,0,.56,2.07,2,2,0,0,0,1.73.77,2.07,2.07,0,0,0,1.77-.77,3.43,3.43,0,0,0,.57-2.07,3.28,3.28,0,0,0-.57-2,2.09,2.09,0,0,0-1.77-.76,2,2,0,0,0-1.74.76A3.35,3.35,0,0,0,149.62,29.15Z" fill="#fff"/><path d="M168.29,25.33,166.13,33h-1.74l-1.86-6h0l-1.84,6h-1.73l-2.16-7.71h1.65l1.44,6h0l1.83-6h1.65l1.85,6h0l1.45-6Z" fill="#fff"/><path d="M174.59,25.94l-.67,1a3.46,3.46,0,0,0-1.88-.59,1.88,1.88,0,0,0-1,.24.76.76,0,0,0-.37.68,1,1,0,0,0,.15.57,1.23,1.23,0,0,0,.53.36,8.14,8.14,0,0,0,1.1.33,3.73,3.73,0,0,1,1.73.84,1.93,1.93,0,0,1,.57,1.45,2.16,2.16,0,0,1-.42,1.34,2.52,2.52,0,0,1-1.13.83,4.66,4.66,0,0,1-4.33-.61l.72-1a4,4,0,0,0,1,.49,3.23,3.23,0,0,0,1.06.16,1.84,1.84,0,0,0,1.1-.29,1,1,0,0,0,.4-.84.93.93,0,0,0-.15-.56,1.23,1.23,0,0,0-.51-.35,7.91,7.91,0,0,0-1.09-.33,3.83,3.83,0,0,1-1.72-.83,2,2,0,0,1-.55-1.48,1.91,1.91,0,0,1,.81-1.61,3.38,3.38,0,0,1,2.12-.61A4.09,4.09,0,0,1,174.59,25.94Z" fill="#fff"/><path d="M183.1,29.75h-5.55a2.55,2.55,0,0,0,.69,1.65,2.27,2.27,0,0,0,1.65.59,3.63,3.63,0,0,0,1.19-.18,5.49,5.49,0,0,0,1.09-.54l.69,1a4.77,4.77,0,0,1-1.41.74,5.39,5.39,0,0,1-1.67.24,4,4,0,0,1-2.06-.51,3.3,3.3,0,0,1-1.31-1.43,4.85,4.85,0,0,1-.45-2.14,4.34,4.34,0,0,1,1-2.94,3.39,3.39,0,0,1,2.71-1.11,3.18,3.18,0,0,1,2.61,1.09,4.44,4.44,0,0,1,.9,2.91A4.26,4.26,0,0,1,183.1,29.75Zm-1.5-1.21a2.57,2.57,0,0,0-.54-1.61,1.72,1.72,0,0,0-1.44-.63,1.88,1.88,0,0,0-1.5.64,2.73,2.73,0,0,0-.59,1.6Z" fill="#fff"/><path d="M185.05,27.07a14.78,14.78,0,0,0-.11-1.74h1.5a8.36,8.36,0,0,1,.12,1.06h0a2.38,2.38,0,0,1,.89-.94,2.91,2.91,0,0,1,1.47-.33,3.39,3.39,0,0,1,.45,0l-.08,1.37a2.62,2.62,0,0,0-.52-.05,2,2,0,0,0-1.61.69,2.69,2.69,0,0,0-.57,1.77V33h-1.57Z" fill="#fff"/><path d="M184.28,259.23H101.76a3,3,0,0,1-3-3V206a3,3,0,0,1,3-3h82.52a3,3,0,0,1,3,3v50.21A3,3,0,0,1,184.28,259.23ZM101.76,205a1,1,0,0,0-1,1v50.21a1,1,0,0,0,1,1h82.52a1,1,0,0,0,1-1V206a1,1,0,0,0-1-1Z" fill="#fff"/><path d="M192.28,283.23h-98a3,3,0,0,1-3-3V276a1,1,0,0,1,2,0v4.21a1,1,0,0,0,1,1h98a1,1,0,0,0,1-1V276a1,1,0,0,1,2,0v4.21A3,3,0,0,1,192.28,283.23Z" fill="#fff"/><path d="M180.44,254.38H105.25a1,1,0,0,1-1-1V209a1,1,0,0,1,1-1h75.19a1,1,0,0,1,1,1v44.38A1,1,0,0,1,180.44,254.38Zm-74.19-2h73.19V210H106.25Z" fill="#fff"/><g opacity="0.3"><polygon points="150.73 209 119.92 253.38 130.76 253.38 161 209 150.73 209" fill="#fff"/></g><g opacity="0.3"><polygon points="165.8 209 134.99 253.38 139.5 253.38 169.74 209 165.8 209" fill="#fff"/></g><path d="M194.29,277h-102a1,1,0,0,1-.85-.47,1,1,0,0,1,0-1l8.33-17a1,1,0,1,1,1.79.88L93.89,275h98.79l-7.62-15.56a1,1,0,1,1,1.8-.88l8.32,17a1,1,0,0,1,0,1A1,1,0,0,1,194.29,277Z" fill="#fff"/><path d="M180.44,264.28H105.25a1,1,0,0,1,0-2h75.19a1,1,0,0,1,0,2Z" fill="#fff"/><path d="M156,273.15H129.59a1,1,0,0,1-.8-.4,1,1,0,0,1-.15-.88l1.48-5a1,1,0,0,1,1-.71h23.41a1,1,0,0,1,1,.71l1.48,5a1,1,0,0,1-.15.88A1,1,0,0,1,156,273.15Zm-25-2h23.71l-.9-3H131.83Z" fill="#fff"/><path d="M369.08,30.16l-.93,1.05a4.27,4.27,0,0,0-2.67-1,3.33,3.33,0,0,0-2.76,1.14,4.75,4.75,0,0,0-.9,3,4.7,4.7,0,0,0,.9,3,3.29,3.29,0,0,0,2.73,1.14,3.77,3.77,0,0,0,1.53-.31,4.3,4.3,0,0,0,1.27-.81l1,1.08a5,5,0,0,1-1.68,1.09,5.67,5.67,0,0,1-2.17.41,5.53,5.53,0,0,1-2.87-.71,4.58,4.58,0,0,1-1.8-2,7.29,7.29,0,0,1,0-5.84,4.56,4.56,0,0,1,1.82-2,5.59,5.59,0,0,1,2.88-.7,5.68,5.68,0,0,1,2,.35A4.54,4.54,0,0,1,369.08,30.16Z" fill="#fff"/><path d="M370.16,37.6a2.17,2.17,0,0,1,1.08-2.09,6.71,6.71,0,0,1,3.18-.59h.76v-.4q0-1.47-1.74-1.47a4.48,4.48,0,0,0-2.28.61l-.54-1.05A5.43,5.43,0,0,1,372,32a5.76,5.76,0,0,1,1.53-.21,3.33,3.33,0,0,1,2.46.77,3.18,3.18,0,0,1,.78,2.36v3a15.85,15.85,0,0,0,.12,1.74h-1.46a5.68,5.68,0,0,1-.1-.92h-.05a2.93,2.93,0,0,1-1,.85,3.84,3.84,0,0,1-1.57.28,2.65,2.65,0,0,1-1.8-.61A2.22,2.22,0,0,1,370.16,37.6Zm5-.78V36l-.61,0a4.89,4.89,0,0,0-2.15.34,1.19,1.19,0,0,0-.64,1.16,1.15,1.15,0,0,0,.34.89,1.36,1.36,0,0,0,.95.31,2.14,2.14,0,0,0,1.12-.28,2,2,0,0,0,.74-.71A1.75,1.75,0,0,0,375.18,36.82Z" fill="#fff"/><path d="M379.13,33.78A14.78,14.78,0,0,0,379,32h1.5a6.87,6.87,0,0,1,.12.88h0a3.09,3.09,0,0,1,1-.79,3.25,3.25,0,0,1,1.44-.3,3.05,3.05,0,0,1,1.56.36,2.31,2.31,0,0,1,.94,1h0a3,3,0,0,1,2.63-1.33,2.86,2.86,0,0,1,1.6.41,2.44,2.44,0,0,1,.95,1.09,3.51,3.51,0,0,1,.31,1.48v4.94h-1.57V35a2.3,2.3,0,0,0-.39-1.38,1.45,1.45,0,0,0-1.26-.54,1.73,1.73,0,0,0-1.47.71,2.82,2.82,0,0,0-.53,1.72v4.2h-1.57V35a2.08,2.08,0,0,0-.41-1.3,1.44,1.44,0,0,0-1.24-.53,1.79,1.79,0,0,0-1.47.65,2.51,2.51,0,0,0-.53,1.63v4.35h-1.57Z" fill="#fff"/><path d="M401,35.88a5,5,0,0,1-.42,2.07,3.41,3.41,0,0,1-1.23,1.47,3.34,3.34,0,0,1-1.9.54,3.66,3.66,0,0,1-2.39-.83v4.28H393.5V33.78a14.78,14.78,0,0,0-.11-1.74h1.5c.06.4.1.72.12,1h0a3,3,0,0,1,2.6-1.18,3.1,3.1,0,0,1,1.86.54,3.23,3.23,0,0,1,1.14,1.45A5.4,5.4,0,0,1,401,35.88Zm-1.63,0a3.49,3.49,0,0,0-.55-2.07,1.8,1.8,0,0,0-1.52-.74,2.17,2.17,0,0,0-1.16.31,2.1,2.1,0,0,0-.79.83,2.4,2.4,0,0,0-.29,1.16v2.52a3.61,3.61,0,0,0,1,.61,2.74,2.74,0,0,0,1.06.2,2,2,0,0,0,1.7-.77A3.35,3.35,0,0,0,399.38,35.88Z" fill="#fff"/><path d="M409.61,39.75H408V33.24h-3.28v6.51h-1.58V33.24h-1.3v-1l1.3-.18v-.51A2.42,2.42,0,0,1,404,29.6a3.48,3.48,0,0,1,2.36-.68,5.73,5.73,0,0,1,1.65.22,7.81,7.81,0,0,1,1.51.63l-.55,1.1a5.35,5.35,0,0,0-2.58-.71,1.79,1.79,0,0,0-1.23.35,1.47,1.47,0,0,0-.36,1.08V32h4.86Z" fill="#fff"/><path d="M412.07,33.78A14.78,14.78,0,0,0,412,32h1.5a8.36,8.36,0,0,1,.12,1.06h0a2.38,2.38,0,0,1,.89-.94,2.91,2.91,0,0,1,1.47-.33,3.39,3.39,0,0,1,.45,0l-.08,1.37a2.62,2.62,0,0,0-.52-.05,2,2,0,0,0-1.61.69,2.69,2.69,0,0,0-.57,1.77v4.1h-1.57Z" fill="#fff"/><path d="M424.14,36.46h-5.55a2.51,2.51,0,0,0,.69,1.64,2.23,2.23,0,0,0,1.65.6,3.59,3.59,0,0,0,1.19-.18,5.24,5.24,0,0,0,1.09-.54l.69,1a4.84,4.84,0,0,1-1.4.74,5.43,5.43,0,0,1-1.67.24,4,4,0,0,1-2.07-.51A3.33,3.33,0,0,1,417.45,38a4.77,4.77,0,0,1-.45-2.13,4.34,4.34,0,0,1,1-2.94,3.41,3.41,0,0,1,2.72-1.11,3.18,3.18,0,0,1,2.61,1.09,4.44,4.44,0,0,1,.9,2.91A4.23,4.23,0,0,1,424.14,36.46Zm-1.5-1.21a2.68,2.68,0,0,0-.53-1.62,1.78,1.78,0,0,0-1.45-.62,1.81,1.81,0,0,0-1.49.64,2.64,2.64,0,0,0-.59,1.6Z" fill="#fff"/><path d="M443.51,29.13l-3.08,10.62h-1.68l-2.5-8.51h-.05l-2.46,8.51h-1.68L429,29.13h1.71L433,37.57H433l2.38-8.44h1.73l2.41,8.44h0l2.33-8.44Z" fill="#fff"/><path d="M451,36.46h-5.55a2.51,2.51,0,0,0,.69,1.64,2.23,2.23,0,0,0,1.65.6,3.59,3.59,0,0,0,1.19-.18,5.24,5.24,0,0,0,1.09-.54l.69,1a4.84,4.84,0,0,1-1.4.74,5.43,5.43,0,0,1-1.67.24,4,4,0,0,1-2.07-.51A3.33,3.33,0,0,1,444.3,38a4.77,4.77,0,0,1-.45-2.13,4.34,4.34,0,0,1,1-2.94,3.41,3.41,0,0,1,2.72-1.11,3.18,3.18,0,0,1,2.61,1.09,4.44,4.44,0,0,1,.9,2.91A4.23,4.23,0,0,1,451,36.46Zm-1.5-1.21a2.68,2.68,0,0,0-.53-1.62,1.78,1.78,0,0,0-1.45-.62,1.81,1.81,0,0,0-1.49.64,2.64,2.64,0,0,0-.59,1.6Z" fill="#fff"/><path d="M460.46,35.88A4.91,4.91,0,0,1,460,38a3.48,3.48,0,0,1-1.26,1.47,3.79,3.79,0,0,1-4.39-.35l-.12.68H453V29.13h1.57v3.81h.05a2.93,2.93,0,0,1,2.49-1.11,3.15,3.15,0,0,1,1.87.54,3.23,3.23,0,0,1,1.14,1.45A5.4,5.4,0,0,1,460.46,35.88Zm-1.62,0a3.49,3.49,0,0,0-.55-2.07,1.8,1.8,0,0,0-1.52-.74,2.17,2.17,0,0,0-1.16.31,2.1,2.1,0,0,0-.79.83,2.4,2.4,0,0,0-.29,1.16v2.52a3.42,3.42,0,0,0,1,.61,2.83,2.83,0,0,0,1.07.2,2,2,0,0,0,1.69-.77A3.29,3.29,0,0,0,458.84,35.88Z" fill="#fff"/><path d="M473.31,39.75l-.87-2.43h-4.68l-.91,2.43h-1.73l4.14-10.62H471l4.14,10.62Zm-3.21-9L468.21,36H472Z" fill="#fff"/><path d="M483.84,35.88a5,5,0,0,1-.42,2.07,3.41,3.41,0,0,1-1.23,1.47,3.34,3.34,0,0,1-1.9.54,3.66,3.66,0,0,1-2.39-.83v4.28h-1.57V33.78a14.78,14.78,0,0,0-.11-1.74h1.5c.06.4.1.72.12,1h0a3,3,0,0,1,2.6-1.18,3.1,3.1,0,0,1,1.86.54,3.23,3.23,0,0,1,1.14,1.45A5.4,5.4,0,0,1,483.84,35.88Zm-1.63,0a3.49,3.49,0,0,0-.55-2.07,1.8,1.8,0,0,0-1.52-.74,2.17,2.17,0,0,0-1.16.31,2.1,2.1,0,0,0-.79.83,2.4,2.4,0,0,0-.29,1.16v2.52a3.61,3.61,0,0,0,1,.61,2.74,2.74,0,0,0,1.06.2,2,2,0,0,0,1.7-.77A3.35,3.35,0,0,0,482.21,35.88Z" fill="#fff"/><path d="M493.28,35.88a5,5,0,0,1-.42,2.07,3.41,3.41,0,0,1-1.23,1.47,3.37,3.37,0,0,1-1.91.54,3.63,3.63,0,0,1-2.38-.83v4.28h-1.58V33.78a14.74,14.74,0,0,0-.1-1.74h1.5c.06.4.1.72.12,1h0a3,3,0,0,1,2.59-1.18,3.15,3.15,0,0,1,1.87.54,3.28,3.28,0,0,1,1.13,1.45A5.4,5.4,0,0,1,493.28,35.88Zm-1.64,0a3.42,3.42,0,0,0-.55-2.07,1.78,1.78,0,0,0-1.52-.74,2.19,2.19,0,0,0-1.95,1.14,2.4,2.4,0,0,0-.28,1.16v2.52a3.73,3.73,0,0,0,1,.61,2.78,2.78,0,0,0,1.06.2,2,2,0,0,0,1.7-.77A3.28,3.28,0,0,0,491.64,35.88Z" fill="#fff"/><path d="M381,455.82l.81-1a4.64,4.64,0,0,0,1.3.68,4.91,4.91,0,0,0,1.49.22,2.69,2.69,0,0,0,1.63-.45,1.55,1.55,0,0,0,.6-1.32,1.61,1.61,0,0,0-.29-1,1.94,1.94,0,0,0-.82-.62,9.14,9.14,0,0,0-1.42-.46,5.13,5.13,0,0,1-2.21-1.09,2.47,2.47,0,0,1-.75-1.91,2.6,2.6,0,0,1,.49-1.57,3,3,0,0,1,1.31-1,4.78,4.78,0,0,1,1.86-.34,5.52,5.52,0,0,1,3.33,1l-.73,1.08a5.64,5.64,0,0,0-1.25-.59,4.54,4.54,0,0,0-1.35-.19,2.53,2.53,0,0,0-1.46.37,1.4,1.4,0,0,0,0,2.22,5.77,5.77,0,0,0,1.77.69,5.84,5.84,0,0,1,2.4,1.16,2.74,2.74,0,0,1,.82,2.16,2.92,2.92,0,0,1-.52,1.77,3.16,3.16,0,0,1-1.42,1.08,5.26,5.26,0,0,1-2,.36,5.75,5.75,0,0,1-1.95-.33A5.13,5.13,0,0,1,381,455.82Z" fill="#fff"/><path d="M396.93,453.51h-5.56a2.51,2.51,0,0,0,.69,1.64,2.23,2.23,0,0,0,1.65.6,3.69,3.69,0,0,0,1.2-.18A5.43,5.43,0,0,0,396,455l.69,1a4.72,4.72,0,0,1-1.4.74,5.39,5.39,0,0,1-1.67.24,4,4,0,0,1-2.06-.51,3.29,3.29,0,0,1-1.32-1.44,4.77,4.77,0,0,1-.45-2.13,4.34,4.34,0,0,1,1-2.94,3.41,3.41,0,0,1,2.72-1.11,3.18,3.18,0,0,1,2.61,1.09,4.44,4.44,0,0,1,.9,2.91A6.26,6.26,0,0,1,396.93,453.51Zm-1.5-1.21a2.69,2.69,0,0,0-.54-1.62,1.76,1.76,0,0,0-1.45-.62,1.83,1.83,0,0,0-1.49.64,2.71,2.71,0,0,0-.59,1.6Z" fill="#fff"/><path d="M398.89,446.18h1.58V456.8h-1.58Z" fill="#fff"/><path d="M409.67,456.8H408.1v-6.51h-3.29v6.51h-1.57v-6.51h-1.31v-1l1.31-.18v-.51a2.42,2.42,0,0,1,.78-1.93,3.45,3.45,0,0,1,2.35-.68,5.8,5.8,0,0,1,1.66.22,7.81,7.81,0,0,1,1.51.63l-.56,1.1a5.35,5.35,0,0,0-2.58-.71,1.76,1.76,0,0,0-1.22.35,1.47,1.47,0,0,0-.37,1.08v.45h4.86Z" fill="#fff"/><path d="M418.76,453.51h-5.55a2.51,2.51,0,0,0,.69,1.64,2.23,2.23,0,0,0,1.65.6,3.69,3.69,0,0,0,1.2-.18,5.43,5.43,0,0,0,1.08-.54l.69,1a4.72,4.72,0,0,1-1.4.74,5.39,5.39,0,0,1-1.67.24,4,4,0,0,1-2.06-.51,3.29,3.29,0,0,1-1.32-1.44,4.77,4.77,0,0,1-.45-2.13,4.34,4.34,0,0,1,1-2.94,3.41,3.41,0,0,1,2.72-1.11,3.18,3.18,0,0,1,2.61,1.09,4.44,4.44,0,0,1,.9,2.91A4.23,4.23,0,0,1,418.76,453.51Zm-1.5-1.21a2.62,2.62,0,0,0-.53-1.62,1.76,1.76,0,0,0-1.45-.62,1.83,1.83,0,0,0-1.49.64,2.71,2.71,0,0,0-.59,1.6Z" fill="#fff"/><path d="M436.13,446.18V456.8h-1.62l.05-8.72h0L431,456.8h-1.23l-3.51-8.72h0l.05,8.72h-1.53V446.18h2.4l3.25,8.43h0l3.29-8.43Z" fill="#fff"/><path d="M446,452.91a4.7,4.7,0,0,1-.47,2.13,3.48,3.48,0,0,1-1.37,1.45A4.19,4.19,0,0,1,442,457a4,4,0,0,1-2.1-.53,3.52,3.52,0,0,1-1.36-1.45,4.63,4.63,0,0,1-.47-2.12,4.57,4.57,0,0,1,.46-2.12,3.28,3.28,0,0,1,1.35-1.41,4.18,4.18,0,0,1,2.12-.5,4.26,4.26,0,0,1,2.14.5,3.28,3.28,0,0,1,1.35,1.41A4.57,4.57,0,0,1,446,452.91Zm-6.26,0a3.38,3.38,0,0,0,.57,2.06,2,2,0,0,0,1.73.78,2,2,0,0,0,1.77-.78,3.38,3.38,0,0,0,.57-2.06,3.28,3.28,0,0,0-.57-2,2.06,2.06,0,0,0-1.77-.76,2,2,0,0,0-1.74.76A3.35,3.35,0,0,0,439.73,452.91Z" fill="#fff"/><path d="M455.42,452.93A4.91,4.91,0,0,1,455,455a3.48,3.48,0,0,1-1.26,1.47,3.64,3.64,0,0,1-2,.54,3.55,3.55,0,0,1-2.38-.89l-.12.68h-1.31V446.18h1.58V450h0a2.93,2.93,0,0,1,2.49-1.11,3.18,3.18,0,0,1,1.88.54,3.23,3.23,0,0,1,1.14,1.45A5.4,5.4,0,0,1,455.42,452.93Zm-1.62,0a3.49,3.49,0,0,0-.54-2.07,1.82,1.82,0,0,0-1.53-.74,2.19,2.19,0,0,0-2,1.14,2.4,2.4,0,0,0-.28,1.16v2.52a3.42,3.42,0,0,0,1,.61,2.78,2.78,0,0,0,1.06.2,2,2,0,0,0,1.7-.77A3.28,3.28,0,0,0,453.8,452.93Z" fill="#fff"/><path d="M457.16,446.55c0-.63.33-.94,1-.94a1,1,0,0,1,.75.26,1.11,1.11,0,0,1,0,1.35,1,1,0,0,1-.75.26.87.87,0,0,1-1-.93Zm1.77,2.54v7.71h-1.57v-7.71Z" fill="#fff"/><path d="M461.41,446.18H463V456.8h-1.57Z" fill="#fff"/><path d="M472.07,453.51h-5.55a2.51,2.51,0,0,0,.69,1.64,2.23,2.23,0,0,0,1.65.6,3.69,3.69,0,0,0,1.2-.18,5.43,5.43,0,0,0,1.08-.54l.69,1a4.72,4.72,0,0,1-1.4.74,5.39,5.39,0,0,1-1.67.24,4,4,0,0,1-2.06-.51,3.29,3.29,0,0,1-1.32-1.44,4.77,4.77,0,0,1-.45-2.13,4.34,4.34,0,0,1,1-2.94,3.41,3.41,0,0,1,2.72-1.11,3.18,3.18,0,0,1,2.61,1.09,4.44,4.44,0,0,1,.9,2.91A4.23,4.23,0,0,1,472.07,453.51Zm-1.5-1.21a2.62,2.62,0,0,0-.53-1.62,1.76,1.76,0,0,0-1.45-.62,1.83,1.83,0,0,0-1.49.64,2.71,2.71,0,0,0-.59,1.6Z" fill="#fff"/><path d="M408.8,464.18l-3.07,10.62h-1.68l-2.51-8.51h0L399,474.8h-1.68l-3.08-10.62H396l2.27,8.44h0l2.39-8.44h1.72l2.42,8.44h0l2.32-8.44Z" fill="#fff"/><path d="M416.29,471.51h-5.55a2.51,2.51,0,0,0,.69,1.64,2.23,2.23,0,0,0,1.65.6,3.59,3.59,0,0,0,1.19-.18,5.24,5.24,0,0,0,1.09-.54l.69,1a4.84,4.84,0,0,1-1.4.74A5.5,5.5,0,0,1,413,475a4,4,0,0,1-2.06-.51,3.33,3.33,0,0,1-1.31-1.44,4.77,4.77,0,0,1-.45-2.13,4.34,4.34,0,0,1,1-2.94,3.39,3.39,0,0,1,2.71-1.11,3.15,3.15,0,0,1,2.61,1.09,4.44,4.44,0,0,1,.91,2.91A4.23,4.23,0,0,1,416.29,471.51Zm-1.5-1.21a2.68,2.68,0,0,0-.53-1.62,1.78,1.78,0,0,0-1.45-.62,1.81,1.81,0,0,0-1.49.64,2.65,2.65,0,0,0-.6,1.6Z" fill="#fff"/><path d="M425.75,470.93a4.91,4.91,0,0,1-.42,2.07,3.48,3.48,0,0,1-1.26,1.47,3.64,3.64,0,0,1-2,.54,3.55,3.55,0,0,1-2.38-.89l-.12.68h-1.31V464.18h1.58V468h0a2.93,2.93,0,0,1,2.49-1.11,3.18,3.18,0,0,1,1.88.54,3.23,3.23,0,0,1,1.14,1.45A5.4,5.4,0,0,1,425.75,470.93Zm-1.62,0a3.49,3.49,0,0,0-.54-2.07,1.82,1.82,0,0,0-1.53-.74,2.19,2.19,0,0,0-1.95,1.14,2.4,2.4,0,0,0-.28,1.16v2.52a3.42,3.42,0,0,0,1,.61,2.78,2.78,0,0,0,1.06.2,2,2,0,0,0,1.7-.77A3.28,3.28,0,0,0,424.13,470.93Z" fill="#fff"/><path d="M438.61,474.8l-.87-2.43h-4.68l-.92,2.43h-1.72l4.14-10.62h1.69l4.14,10.62Zm-3.21-9-1.89,5.32h3.78Z" fill="#fff"/><path d="M449.14,470.93a5,5,0,0,1-.42,2.07,3.41,3.41,0,0,1-1.23,1.47,3.37,3.37,0,0,1-1.91.54,3.63,3.63,0,0,1-2.38-.83v4.28h-1.58v-9.63a14.74,14.74,0,0,0-.1-1.74H443c.06.4.1.72.12,1h0a3,3,0,0,1,2.59-1.18,3.13,3.13,0,0,1,1.87.54,3.21,3.21,0,0,1,1.13,1.45A5.4,5.4,0,0,1,449.14,470.93Zm-1.64,0a3.49,3.49,0,0,0-.54-2.07,1.82,1.82,0,0,0-1.53-.74,2.19,2.19,0,0,0-1.95,1.14,2.4,2.4,0,0,0-.28,1.16v2.52a3.61,3.61,0,0,0,1,.61,2.69,2.69,0,0,0,1.05.2,2,2,0,0,0,1.71-.77A3.35,3.35,0,0,0,447.5,470.93Z" fill="#fff"/><path d="M458.57,470.93a5,5,0,0,1-.42,2.07,3.41,3.41,0,0,1-1.23,1.47,3.34,3.34,0,0,1-1.9.54,3.66,3.66,0,0,1-2.39-.83v4.28h-1.57v-9.63a14.78,14.78,0,0,0-.11-1.74h1.5c.06.4.1.72.12,1h0a3,3,0,0,1,2.6-1.18,3.15,3.15,0,0,1,1.87.54,3.28,3.28,0,0,1,1.13,1.45A5.4,5.4,0,0,1,458.57,470.93Zm-1.63,0a3.42,3.42,0,0,0-.55-2.07,1.78,1.78,0,0,0-1.52-.74,2.17,2.17,0,0,0-1.16.31,2.1,2.1,0,0,0-.79.83,2.4,2.4,0,0,0-.29,1.16v2.52a3.77,3.77,0,0,0,1,.61,2.78,2.78,0,0,0,1.06.2,2,2,0,0,0,1.7-.77A3.28,3.28,0,0,0,456.94,470.93Z" fill="#fff"/><path d="M72.69,446.18l-3.78,6.09v4.53H67.28v-4.56l-3.72-6.06h1.89l2.71,4.74h0l2.69-4.74Z" fill="#fff"/><path d="M79.88,452.91A4.58,4.58,0,0,1,79.4,455,3.46,3.46,0,0,1,78,456.49a4.21,4.21,0,0,1-2.12.52,4,4,0,0,1-2.1-.53A3.46,3.46,0,0,1,72.46,455a4.51,4.51,0,0,1-.47-2.12,4.57,4.57,0,0,1,.46-2.12,3.28,3.28,0,0,1,1.35-1.41,4.77,4.77,0,0,1,4.25,0,3.25,3.25,0,0,1,1.36,1.41A4.57,4.57,0,0,1,79.88,452.91Zm-6.26,0a3.45,3.45,0,0,0,.56,2.06,2,2,0,0,0,1.74.78,2,2,0,0,0,1.77-.78,3.38,3.38,0,0,0,.57-2.06,3.28,3.28,0,0,0-.57-2,2.06,2.06,0,0,0-1.77-.76,2,2,0,0,0-1.74.76A3.35,3.35,0,0,0,73.62,452.91Z" fill="#fff"/><path d="M81.72,453.81v-4.72h1.59v4.5a2.75,2.75,0,0,0,.41,1.59,1.51,1.51,0,0,0,1.32.58,1.85,1.85,0,0,0,1.53-.72,2.77,2.77,0,0,0,.58-1.81v-4.14h1.58v6a15.85,15.85,0,0,0,.12,1.74h-1.5a7,7,0,0,1-.12-1h0A2.9,2.9,0,0,1,84.65,457a2.71,2.71,0,0,1-2.19-.89A3.5,3.5,0,0,1,81.72,453.81Z" fill="#fff"/><path d="M102.5,452.91A4.58,4.58,0,0,1,102,455a3.46,3.46,0,0,1-1.36,1.45,4.21,4.21,0,0,1-2.12.52,4,4,0,0,1-2.1-.53A3.4,3.4,0,0,1,95.08,455a4.51,4.51,0,0,1-.47-2.12,4.57,4.57,0,0,1,.46-2.12,3.28,3.28,0,0,1,1.35-1.41,4.77,4.77,0,0,1,4.25,0,3.25,3.25,0,0,1,1.36,1.41A4.57,4.57,0,0,1,102.5,452.91Zm-6.26,0A3.45,3.45,0,0,0,96.8,455a2.35,2.35,0,0,0,3.5,0,3.31,3.31,0,0,0,.58-2.06,3.22,3.22,0,0,0-.58-2,2,2,0,0,0-1.76-.76,2,2,0,0,0-1.74.76A3.35,3.35,0,0,0,96.24,452.91Z" fill="#fff"/><path d="M104.42,450.83a14.78,14.78,0,0,0-.11-1.74h1.5a8.36,8.36,0,0,1,.12,1.06h0a2.38,2.38,0,0,1,.89-.94,2.91,2.91,0,0,1,1.47-.33,3.28,3.28,0,0,1,.44,0l-.07,1.37a2.62,2.62,0,0,0-.52-.05,2,2,0,0,0-1.61.69,2.69,2.69,0,0,0-.57,1.77v4.1h-1.57Z" fill="#fff"/><path d="M116.84,458.51a3.51,3.51,0,0,1-1,1.62,2.36,2.36,0,0,1-1.61.52,3.59,3.59,0,0,1-1.2-.19l.31-1.19a3.06,3.06,0,0,0,.66.11,1.15,1.15,0,0,0,.85-.31,2.35,2.35,0,0,0,.53-.92l.45-1.29-3-7.77h1.71l2.06,6.06h0l1.87-6.06h1.63Z" fill="#fff"/><path d="M128.67,452.91a4.7,4.7,0,0,1-.47,2.13,3.48,3.48,0,0,1-1.37,1.45,4.19,4.19,0,0,1-2.12.52,4,4,0,0,1-2.1-.53,3.52,3.52,0,0,1-1.36-1.45,4.63,4.63,0,0,1-.47-2.12,4.45,4.45,0,0,1,.47-2.12,3.26,3.26,0,0,1,1.34-1.41,4.18,4.18,0,0,1,2.12-.5,4.26,4.26,0,0,1,2.14.5,3.36,3.36,0,0,1,1.36,1.41A4.7,4.7,0,0,1,128.67,452.91Zm-6.25,0A3.38,3.38,0,0,0,123,455a2,2,0,0,0,1.73.78,2,2,0,0,0,1.77-.78,3.38,3.38,0,0,0,.57-2.06,3.28,3.28,0,0,0-.57-2,2.06,2.06,0,0,0-1.77-.76,2,2,0,0,0-1.74.76A3.35,3.35,0,0,0,122.42,452.91Z" fill="#fff"/><path d="M130.51,453.81v-4.72h1.59v4.5a2.68,2.68,0,0,0,.42,1.59,1.48,1.48,0,0,0,1.31.58,1.88,1.88,0,0,0,1.54-.72,2.82,2.82,0,0,0,.57-1.81v-4.14h1.58v6a15.85,15.85,0,0,0,.12,1.74h-1.5a7,7,0,0,1-.12-1h0a2.9,2.9,0,0,1-2.55,1.19,2.68,2.68,0,0,1-2.18-.89A3.45,3.45,0,0,1,130.51,453.81Z" fill="#fff"/><path d="M140,450.83a14.78,14.78,0,0,0-.11-1.74h1.5a8.36,8.36,0,0,1,.12,1.06h0a2.38,2.38,0,0,1,.89-.94,2.88,2.88,0,0,1,1.47-.33,3.28,3.28,0,0,1,.44,0l-.07,1.37a2.62,2.62,0,0,0-.52-.05,2,2,0,0,0-1.61.69,2.69,2.69,0,0,0-.57,1.77v4.1H140Z" fill="#fff"/><path d="M153,448.88a4.52,4.52,0,0,1,1.38.21,4,4,0,0,1,1.2.61l-.62,1.1a3.28,3.28,0,0,0-2-.62,2.09,2.09,0,0,0-1.73.74,3.2,3.2,0,0,0-.57,2,3.25,3.25,0,0,0,.57,2,2,2,0,0,0,1.71.76,3.75,3.75,0,0,0,2-.63l.57,1.11a4.49,4.49,0,0,1-2.68.84,3.73,3.73,0,0,1-2.21-.61,3.34,3.34,0,0,1-1.19-1.53,5.29,5.29,0,0,1-.35-1.94,4.64,4.64,0,0,1,.46-2.13,3.34,3.34,0,0,1,1.34-1.42A4.08,4.08,0,0,1,153,448.88Z" fill="#fff"/><path d="M157,453.81v-4.72h1.59v4.5a2.68,2.68,0,0,0,.42,1.59,1.48,1.48,0,0,0,1.31.58,1.88,1.88,0,0,0,1.54-.72,2.82,2.82,0,0,0,.57-1.81v-4.14H164v6a15.85,15.85,0,0,0,.12,1.74h-1.5a7,7,0,0,1-.12-1h0A2.9,2.9,0,0,1,159.9,457a2.68,2.68,0,0,1-2.18-.89A3.45,3.45,0,0,1,157,453.81Z" fill="#fff"/><path d="M171.09,449.7l-.67,1a3.49,3.49,0,0,0-1.88-.59,1.88,1.88,0,0,0-1,.24.77.77,0,0,0-.38.68,1,1,0,0,0,.16.57,1.23,1.23,0,0,0,.53.36,8.14,8.14,0,0,0,1.1.33,3.69,3.69,0,0,1,1.72.84,1.93,1.93,0,0,1,.57,1.45,2.16,2.16,0,0,1-.42,1.34,2.56,2.56,0,0,1-1.12.83,4.25,4.25,0,0,1-1.53.28,4.3,4.3,0,0,1-2.81-.89l.72-1a4.16,4.16,0,0,0,1,.49,3.59,3.59,0,0,0,1.07.16,1.84,1.84,0,0,0,1.1-.29,1,1,0,0,0,.4-.84.91.91,0,0,0-.15-.56,1.14,1.14,0,0,0-.51-.35,8.38,8.38,0,0,0-1.09-.33,3.78,3.78,0,0,1-1.72-.83,1.93,1.93,0,0,1-.55-1.48,2,2,0,0,1,.8-1.62,3.46,3.46,0,0,1,2.12-.6A4.12,4.12,0,0,1,171.09,449.7Z" fill="#fff"/><path d="M174.87,449.09h2v1.2h-2v4.27c0,.78.35,1.17,1.06,1.17a2.46,2.46,0,0,0,.72-.1l.23,1.17a3.6,3.6,0,0,1-1.25.21,2.38,2.38,0,0,1-1.71-.6,2.25,2.25,0,0,1-.63-1.71v-4.41H172v-1l1.31-.18v-1.82l1.59-.57Z" fill="#fff"/><path d="M185.7,452.91a4.7,4.7,0,0,1-.47,2.13,3.48,3.48,0,0,1-1.37,1.45,4.19,4.19,0,0,1-2.12.52,4,4,0,0,1-2.1-.53,3.52,3.52,0,0,1-1.36-1.45,4.63,4.63,0,0,1-.47-2.12,4.57,4.57,0,0,1,.46-2.12,3.28,3.28,0,0,1,1.35-1.41,4.18,4.18,0,0,1,2.12-.5,4.26,4.26,0,0,1,2.14.5,3.28,3.28,0,0,1,1.35,1.41A4.57,4.57,0,0,1,185.7,452.91Zm-6.26,0A3.38,3.38,0,0,0,180,455a2,2,0,0,0,1.73.78,2,2,0,0,0,1.77-.78,3.38,3.38,0,0,0,.57-2.06,3.28,3.28,0,0,0-.57-2,2.06,2.06,0,0,0-1.77-.76,2,2,0,0,0-1.74.76A3.35,3.35,0,0,0,179.44,452.91Z" fill="#fff"/><path d="M187.62,450.83a14.78,14.78,0,0,0-.11-1.74H189a6.87,6.87,0,0,1,.12.88h0a3.09,3.09,0,0,1,1-.79,3.25,3.25,0,0,1,1.44-.3,3.12,3.12,0,0,1,1.57.36,2.35,2.35,0,0,1,.93,1h0a3,3,0,0,1,2.63-1.33,2.86,2.86,0,0,1,1.6.41,2.53,2.53,0,0,1,1,1.09,3.66,3.66,0,0,1,.3,1.48v4.94h-1.57v-4.71a2.3,2.3,0,0,0-.39-1.38,1.45,1.45,0,0,0-1.26-.54,1.7,1.7,0,0,0-1.46.71,2.76,2.76,0,0,0-.54,1.72v4.2h-1.57V452a2.08,2.08,0,0,0-.41-1.3,1.44,1.44,0,0,0-1.24-.53,1.76,1.76,0,0,0-1.46.65,2.46,2.46,0,0,0-.54,1.63v4.35h-1.57Z" fill="#fff"/><path d="M208.62,453.51h-5.55a2.51,2.51,0,0,0,.69,1.64,2.23,2.23,0,0,0,1.65.6,3.59,3.59,0,0,0,1.19-.18,5.24,5.24,0,0,0,1.09-.54l.69,1a4.84,4.84,0,0,1-1.4.74,5.5,5.5,0,0,1-1.68.24,4,4,0,0,1-2.06-.51,3.33,3.33,0,0,1-1.31-1.44,4.77,4.77,0,0,1-.45-2.13,4.34,4.34,0,0,1,1-2.94,3.39,3.39,0,0,1,2.71-1.11,3.18,3.18,0,0,1,2.61,1.09,4.44,4.44,0,0,1,.9,2.91A4.26,4.26,0,0,1,208.62,453.51Zm-1.5-1.21a2.68,2.68,0,0,0-.53-1.62,1.78,1.78,0,0,0-1.45-.62,1.81,1.81,0,0,0-1.49.64,2.65,2.65,0,0,0-.6,1.6Z" fill="#fff"/><path d="M210.57,450.83a14.78,14.78,0,0,0-.11-1.74H212a8.36,8.36,0,0,1,.12,1.06h0a2.33,2.33,0,0,1,.9-.94,2.84,2.84,0,0,1,1.46-.33,3.39,3.39,0,0,1,.45,0l-.08,1.37a2.62,2.62,0,0,0-.52-.05,2,2,0,0,0-1.61.69,2.69,2.69,0,0,0-.57,1.77v4.1h-1.57Z" fill="#fff"/><path d="M221.14,449.7l-.67,1a3.46,3.46,0,0,0-1.88-.59,1.88,1.88,0,0,0-1,.24.76.76,0,0,0-.37.68.9.9,0,0,0,.16.57,1.19,1.19,0,0,0,.52.36,8.63,8.63,0,0,0,1.1.33,3.73,3.73,0,0,1,1.73.84,1.93,1.93,0,0,1,.57,1.45,2.16,2.16,0,0,1-.42,1.34,2.59,2.59,0,0,1-1.13.83,4.66,4.66,0,0,1-4.33-.61l.72-1a4,4,0,0,0,1,.49,3.52,3.52,0,0,0,1.06.16,1.9,1.9,0,0,0,1.11-.29,1,1,0,0,0,.39-.84.91.91,0,0,0-.15-.56,1.14,1.14,0,0,0-.51-.35,7.91,7.91,0,0,0-1.09-.33,3.89,3.89,0,0,1-1.72-.83,2,2,0,0,1-.55-1.48,1.94,1.94,0,0,1,.81-1.62,3.44,3.44,0,0,1,2.12-.6A4.09,4.09,0,0,1,221.14,449.7Z" fill="#fff"/><path d="M388.84,87h-3a1,1,0,0,1,0-2h3a1,1,0,0,1,0,2Zm-9,0h-3a1,1,0,0,1,0-2h3a1,1,0,0,1,0,2Zm-9,0h-3a1,1,0,0,1,0-2h3a1,1,0,0,1,0,2Zm-9,0h-3a1,1,0,0,1,0-2h3a1,1,0,0,1,0,2Zm-9,0h-3a1,1,0,0,1,0-2h3a1,1,0,0,1,0,2Zm-9,0h-3a1,1,0,0,1,0-2h3a1,1,0,0,1,0,2Zm-9,0h-3a1,1,0,0,1,0-2h3a1,1,0,0,1,0,2Zm-9,0h-3a1,1,0,0,1,0-2h3a1,1,0,0,1,0,2Zm-9,0h-3a1,1,0,0,1,0-2h3a1,1,0,0,1,0,2Zm-9,0h-3a1,1,0,0,1,0-2h3a1,1,0,0,1,0,2Zm-9,0h-3a1,1,0,0,1,0-2h3a1,1,0,0,1,0,2Zm-9,0h-3a1,1,0,0,1,0-2h3a1,1,0,0,1,0,2Zm-9,0H278a1,1,0,0,1,0-2h2.86a1,1,0,0,1,0,2Z" fill="#fff"/><path d="M277.54,93.36a1,1,0,0,1-.71-.29l-6.33-6.33a1,1,0,0,1,0-1.41L276.83,79a1,1,0,0,1,1.41,0,1,1,0,0,1,0,1.42L272.62,86l5.63,5.63a1,1,0,0,1,0,1.41A1,1,0,0,1,277.54,93.36Z" fill="#fff"/><path d="M545.62,87h-3a1,1,0,0,1,0-2h3a1,1,0,0,1,0,2Zm-9,0h-3a1,1,0,0,1,0-2h3a1,1,0,0,1,0,2Zm-9,0h-3a1,1,0,0,1,0-2h3a1,1,0,0,1,0,2Zm-9,0h-3a1,1,0,0,1,0-2h3a1,1,0,0,1,0,2Zm-9,0h-3a1,1,0,0,1,0-2h3a1,1,0,0,1,0,2Zm-9,0h-3a1,1,0,0,1,0-2h3a1,1,0,0,1,0,2Zm-9,0h-3a1,1,0,0,1,0-2h3a1,1,0,0,1,0,2Zm-9,0h-3a1,1,0,0,1,0-2h3a1,1,0,0,1,0,2Zm-9,0h-3a1,1,0,0,1,0-2h3a1,1,0,0,1,0,2Z" fill="#fff"/><path d="M404.41,184.13a1,1,0,0,1-1-1v-3a1,1,0,1,1,2,0v3A1,1,0,0,1,404.41,184.13Zm0-9a1,1,0,0,1-1-1v-3a1,1,0,1,1,2,0v3A1,1,0,0,1,404.41,175.13Zm0-9a1,1,0,0,1-1-1v-3a1,1,0,1,1,2,0v3A1,1,0,0,1,404.41,166.13Zm0-9a1,1,0,0,1-1-1v-3a1,1,0,1,1,2,0v3A1,1,0,0,1,404.41,157.13Zm0-9a1,1,0,0,1-1-1v-3a1,1,0,1,1,2,0v3A1,1,0,0,1,404.41,148.13Zm0-9a1,1,0,0,1-1-1v-3a1,1,0,1,1,2,0v3A1,1,0,0,1,404.41,139.13Z" fill="#fff"/><path d="M446.7,175a1,1,0,0,1-1-1v-3a1,1,0,0,1,2,0v3A1,1,0,0,1,446.7,175Zm0-9a1,1,0,0,1-1-1v-3a1,1,0,0,1,2,0v3A1,1,0,0,1,446.7,166Zm0-9a1,1,0,0,1-1-1v-3a1,1,0,0,1,2,0v3A1,1,0,0,1,446.7,157Zm0-9a1,1,0,0,1-1-1v-3a1,1,0,0,1,2,0v3A1,1,0,0,1,446.7,148Zm0-9a1,1,0,0,1-1-1v-3a1,1,0,0,1,2,0v3A1,1,0,0,1,446.7,139Zm0-9a1,1,0,0,1-1-1v-3a1,1,0,0,1,2,0v3A1,1,0,0,1,446.7,130Z" fill="#fff"/><path d="M575.14,282.88V293.5h-1.67v-4.8h-5.32v4.8h-1.64V282.88h1.64v4.5h5.32v-4.5Z" fill="#fff"/><path d="M584.24,290.21h-5.55a2.51,2.51,0,0,0,.69,1.64,2.23,2.23,0,0,0,1.65.6,3.59,3.59,0,0,0,1.19-.18,5.24,5.24,0,0,0,1.09-.54l.69,1a4.84,4.84,0,0,1-1.4.74,5.43,5.43,0,0,1-1.67.24,4,4,0,0,1-2.07-.51,3.33,3.33,0,0,1-1.31-1.44,4.77,4.77,0,0,1-.45-2.13,4.34,4.34,0,0,1,1-2.94,3.41,3.41,0,0,1,2.72-1.11,3.18,3.18,0,0,1,2.61,1.09,4.44,4.44,0,0,1,.9,2.91A4.23,4.23,0,0,1,584.24,290.21Zm-1.5-1.21a2.62,2.62,0,0,0-.53-1.62,1.76,1.76,0,0,0-1.45-.62,1.83,1.83,0,0,0-1.49.64,2.64,2.64,0,0,0-.59,1.6Z" fill="#fff"/><path d="M586.19,287.53a14.74,14.74,0,0,0-.1-1.74h1.5a8.36,8.36,0,0,1,.12,1.06h0a2.31,2.31,0,0,1,.89-.94,2.84,2.84,0,0,1,1.46-.33,3.39,3.39,0,0,1,.45,0l-.07,1.37a2.73,2.73,0,0,0-.53-.05,2,2,0,0,0-1.6.69,2.69,2.69,0,0,0-.57,1.77v4.1h-1.58Z" fill="#fff"/><path d="M599,289.61a4.7,4.7,0,0,1-.47,2.13,3.55,3.55,0,0,1-1.37,1.45,4.21,4.21,0,0,1-2.12.52,4,4,0,0,1-2.1-.53,3.46,3.46,0,0,1-1.36-1.45,4.51,4.51,0,0,1-.47-2.12,4.57,4.57,0,0,1,.46-2.12,3.28,3.28,0,0,1,1.35-1.41,4.77,4.77,0,0,1,4.25,0,3.25,3.25,0,0,1,1.36,1.41A4.57,4.57,0,0,1,599,289.61Zm-6.26,0a3.45,3.45,0,0,0,.56,2.06,2,2,0,0,0,1.74.78,2,2,0,0,0,1.77-.78,3.38,3.38,0,0,0,.57-2.06,3.28,3.28,0,0,0-.57-2,2.06,2.06,0,0,0-1.77-.76,2,2,0,0,0-1.74.76A3.35,3.35,0,0,0,592.76,289.61Z" fill="#fff"/><path d="M606.05,293.5,603.23,290l-.7.66v2.87H601V282.88h1.58v6l3.3-3.07h1.89L604.33,289,608,293.5Z" fill="#fff"/><path d="M608.77,290.51v-4.72h1.59v4.5a2.68,2.68,0,0,0,.41,1.59,1.49,1.49,0,0,0,1.31.58,1.88,1.88,0,0,0,1.54-.72,2.82,2.82,0,0,0,.58-1.81v-4.14h1.57v6a15.85,15.85,0,0,0,.12,1.74h-1.5a7,7,0,0,1-.12-1h0a2.9,2.9,0,0,1-2.55,1.19,2.68,2.68,0,0,1-2.18-.89A3.45,3.45,0,0,1,608.77,290.51Z" fill="#fff"/><path d="M630.61,283.91l-.93,1a4.27,4.27,0,0,0-2.67-1,3.33,3.33,0,0,0-2.76,1.14,4.75,4.75,0,0,0-.9,3,4.7,4.7,0,0,0,.9,3,3.29,3.29,0,0,0,2.73,1.14,3.77,3.77,0,0,0,1.53-.31,4.3,4.3,0,0,0,1.27-.81l1,1.08a5,5,0,0,1-1.68,1.09,5.67,5.67,0,0,1-2.17.41,5.53,5.53,0,0,1-2.87-.71,4.58,4.58,0,0,1-1.8-2,7.29,7.29,0,0,1,0-5.84,4.56,4.56,0,0,1,1.82-2,5.59,5.59,0,0,1,2.88-.7,5.68,5.68,0,0,1,2,.35A4.54,4.54,0,0,1,630.61,283.91Z" fill="#fff"/><path d="M639.29,289.61a4.57,4.57,0,0,1-.47,2.13,3.48,3.48,0,0,1-1.37,1.45,4.19,4.19,0,0,1-2.12.52,4,4,0,0,1-2.1-.53,3.44,3.44,0,0,1-1.35-1.45,4.51,4.51,0,0,1-.48-2.12,4.57,4.57,0,0,1,.47-2.12,3.28,3.28,0,0,1,1.35-1.41,4.15,4.15,0,0,1,2.11-.5,4.26,4.26,0,0,1,2.14.5,3.31,3.31,0,0,1,1.36,1.41A4.57,4.57,0,0,1,639.29,289.61Zm-6.25,0a3.38,3.38,0,0,0,.56,2.06,2,2,0,0,0,1.73.78,2,2,0,0,0,1.77-.78,3.38,3.38,0,0,0,.57-2.06,3.28,3.28,0,0,0-.57-2,2.06,2.06,0,0,0-1.77-.76,2,2,0,0,0-1.74.76A3.35,3.35,0,0,0,633,289.61Z" fill="#fff"/><path d="M641.21,287.53a14.74,14.74,0,0,0-.1-1.74h1.5a6.94,6.94,0,0,1,.12.9h0a2.59,2.59,0,0,1,1-.81,3.74,3.74,0,0,1,1.56-.3,2.66,2.66,0,0,1,2.16.83,3,3,0,0,1,.72,2v5.06h-1.58v-4.71a2.17,2.17,0,0,0-.42-1.37,1.58,1.58,0,0,0-1.33-.54,1.94,1.94,0,0,0-1.53.65,2.36,2.36,0,0,0-.57,1.62v4.35h-1.58Z" fill="#fff"/><path d="M650.57,287.53a14.74,14.74,0,0,0-.1-1.74H652a6.94,6.94,0,0,1,.12.9h0a2.59,2.59,0,0,1,1-.81,3.74,3.74,0,0,1,1.56-.3,2.66,2.66,0,0,1,2.16.83,3,3,0,0,1,.72,2v5.06H656v-4.71a2.17,2.17,0,0,0-.42-1.37,1.58,1.58,0,0,0-1.33-.54,1.94,1.94,0,0,0-1.53.65,2.36,2.36,0,0,0-.57,1.62v4.35h-1.58Z" fill="#fff"/><path d="M666.56,290.21H661a2.51,2.51,0,0,0,.69,1.64,2.23,2.23,0,0,0,1.65.6,3.59,3.59,0,0,0,1.19-.18,5.24,5.24,0,0,0,1.09-.54l.69,1a4.84,4.84,0,0,1-1.4.74,5.43,5.43,0,0,1-1.67.24,4,4,0,0,1-2.07-.51,3.33,3.33,0,0,1-1.31-1.44,4.77,4.77,0,0,1-.45-2.13,4.34,4.34,0,0,1,1-2.94,3.41,3.41,0,0,1,2.72-1.11,3.18,3.18,0,0,1,2.61,1.09,4.44,4.44,0,0,1,.9,2.91A4.23,4.23,0,0,1,666.56,290.21Zm-1.5-1.21a2.68,2.68,0,0,0-.53-1.62,1.78,1.78,0,0,0-1.45-.62,1.81,1.81,0,0,0-1.49.64A2.64,2.64,0,0,0,661,289Z" fill="#fff"/><path d="M671.89,285.58a4.52,4.52,0,0,1,1.38.21,4,4,0,0,1,1.2.61l-.62,1.1a3.3,3.3,0,0,0-2-.62,2.06,2.06,0,0,0-1.73.74,3.14,3.14,0,0,0-.58,2,3.19,3.19,0,0,0,.58,2,2,2,0,0,0,1.7.76,3.75,3.75,0,0,0,2-.63l.57,1.11a4.5,4.5,0,0,1-2.69.84,3.7,3.7,0,0,1-2.2-.61,3.43,3.43,0,0,1-1.2-1.53,5.51,5.51,0,0,1-.35-1.94,4.64,4.64,0,0,1,.47-2.13,3.28,3.28,0,0,1,1.34-1.42A4.06,4.06,0,0,1,671.89,285.58Z" fill="#fff"/><path d="M678.32,285.79h2V287h-2v4.27c0,.78.36,1.17,1.07,1.17a2.46,2.46,0,0,0,.72-.1l.22,1.17a3.55,3.55,0,0,1-1.24.21,2.38,2.38,0,0,1-1.71-.6,2.25,2.25,0,0,1-.63-1.71V287h-1.32v-1l1.3-.18V284l1.59-.57Z" fill="#fff"/><path d="M615.39,403.93a1.65,1.65,0,0,0-1.48.74,3.05,3.05,0,0,0-.41,1.21h3.67a2.59,2.59,0,0,0-.34-1.21A1.6,1.6,0,0,0,615.39,403.93Z" fill="#fff"/><path d="M602.41,407.29a1.15,1.15,0,0,0-.46,1,1.19,1.19,0,0,0,.16.67,1,1,0,0,0,.29.31,2.46,2.46,0,0,0,1.51.31,10.65,10.65,0,0,0,1.38-.19V407a10.71,10.71,0,0,0-1.39-.12A2.33,2.33,0,0,0,602.41,407.29Z" fill="#fff"/><path d="M649.89,386a18.81,18.81,0,0,0-7.74,1.64,15.68,15.68,0,0,0-13.67-8.1,15.5,15.5,0,0,0-11.22,4.82,17.21,17.21,0,0,0-29.49,17.27,15,15,0,0,0,7.41,27.88,14.81,14.81,0,0,0,3-.32,15.93,15.93,0,0,0,29.62.71,14,14,0,0,0,18.29-5.75A19.25,19.25,0,1,0,649.89,386Zm-50.52,22.35c0,1.56-1.14,2.52-3,2.52a5.32,5.32,0,0,1-3.16-.92.16.16,0,0,1,0-.2l.37-1a.15.15,0,0,1,0-.09.15.15,0,0,1,.2,0,2.61,2.61,0,0,0,.3.19,4.31,4.31,0,0,0,2.34.68c.79,0,1.28-.42,1.28-1v0c0-.62-.75-.84-1.63-1.11l-.19-.06c-1.2-.34-2.48-.84-2.48-2.35v0a2.54,2.54,0,0,1,2.83-2.44h.18a5.17,5.17,0,0,1,2.6.7.16.16,0,0,1,.09.2c0,.08-.33.89-.37,1s-.25.06-.25.06a5.27,5.27,0,0,0-2.3-.59c-.71,0-1.16.37-1.16.88v0c0,.6.78.85,1.68,1.14l.15.05c1.19.37,2.46.9,2.46,2.34Zm7.56,1.86a.17.17,0,0,1-.12.17l-.36.09c-.17,0-.8.16-1.29.24a9.12,9.12,0,0,1-1.56.13,6.21,6.21,0,0,1-1.36-.13,3,3,0,0,1-1-.46,2.06,2.06,0,0,1-.66-.8,2.65,2.65,0,0,1-.25-1.17,2.39,2.39,0,0,1,1-2,3.06,3.06,0,0,1,1.07-.49,4.92,4.92,0,0,1,1.27-.17c.32,0,.59,0,.8,0,0,0,.4,0,.85.11v-.21c0-.69-.14-1-.42-1.23a2,2,0,0,0-1.27-.34,5.3,5.3,0,0,0-2.24.53l-.08,0h0a.14.14,0,0,1-.17-.09l-.36-1a.15.15,0,0,1,0-.2,4.73,4.73,0,0,1,1.58-.58,7.85,7.85,0,0,1,1.37-.13,3.5,3.5,0,0,1,2.36.71,2.86,2.86,0,0,1,.82,2.26Zm3.32-10.64v11a.14.14,0,0,1-.14.15h-1.37a.14.14,0,0,1-.14-.15h0v-11a.15.15,0,0,1,.14-.16h1.37a.15.15,0,0,1,.14.15Zm8.49,7.43a.14.14,0,0,1-.15.13h-5.13a2.43,2.43,0,0,0,.59,1.71,2.5,2.5,0,0,0,1.76.61,4.94,4.94,0,0,0,2.11-.38h0a.15.15,0,0,1,.19.09l.33.94c.07.16,0,.21,0,.24a5.31,5.31,0,0,1-2.59.52,5.09,5.09,0,0,1-1.86-.31,3.26,3.26,0,0,1-2-2.16,5.33,5.33,0,0,1-.23-1.64,5.62,5.62,0,0,1,.22-1.63,3.74,3.74,0,0,1,.7-1.34,3.38,3.38,0,0,1,1.18-.9,4.08,4.08,0,0,1,1.69-.33,3.77,3.77,0,0,1,1.48.3,2.86,2.86,0,0,1,1,.74,3.11,3.11,0,0,1,.65,1.2A5.32,5.32,0,0,1,618.74,407Zm4.28,3.87a5.32,5.32,0,0,1-3.16-.92.16.16,0,0,1,0-.2l.37-1a.07.07,0,0,1,0-.06.15.15,0,0,1,.21,0l.3.19a4.31,4.31,0,0,0,2.34.68c.79,0,1.28-.42,1.28-1v0c0-.62-.75-.84-1.63-1.11l-.19-.06c-1.2-.34-2.48-.84-2.48-2.35v0a2.54,2.54,0,0,1,2.83-2.44h.18a5.17,5.17,0,0,1,2.6.7.16.16,0,0,1,.09.2l-.37,1c-.07.17-.24.06-.24.06a5.35,5.35,0,0,0-2.31-.59c-.71,0-1.16.37-1.16.88v0c0,.6.78.85,1.68,1.14l.15.05c1.19.37,2.46.9,2.46,2.34v0C626,409.93,624.84,410.89,623,410.89Zm9-6.93a.18.18,0,0,1-.18.15h-1.69L629,410.65a10.23,10.23,0,0,1-.45,1.73,3.36,3.36,0,0,1-.67,1.14,2.36,2.36,0,0,1-1,.67,3.85,3.85,0,0,1-1.26.19,3.13,3.13,0,0,1-.75-.07,3.64,3.64,0,0,1-.47-.14h0a.15.15,0,0,1-.07-.2l.38-1.05h0a.14.14,0,0,1,.18-.08,1.52,1.52,0,0,0,.28.09,3.05,3.05,0,0,0,.41.05,2.1,2.1,0,0,0,.61-.09,1,1,0,0,0,.47-.36,3,3,0,0,0,.36-.74,9.23,9.23,0,0,0,.3-1.26l1.15-6.43h-1.13c-.14,0-.18-.06-.16-.17l.19-1.07a.17.17,0,0,1,.17-.15h1.16l.07-.34a4.17,4.17,0,0,1,1-2.33,2.93,2.93,0,0,1,2.17-.78,5.36,5.36,0,0,1,.7.05,4.7,4.7,0,0,1,.51.12h0a.14.14,0,0,1,.09.17l-.39,1.08c0,.08-.06.13-.23.08l-.26-.07a2,2,0,0,0-.42,0,1.7,1.7,0,0,0-.55.08.93.93,0,0,0-.43.27,1.35,1.35,0,0,0-.36.55,5.66,5.66,0,0,0-.27,1.15H632c.14,0,.18.07.17.17Zm7.52,4.39a3.71,3.71,0,0,1-.69,1.32,3.26,3.26,0,0,1-1.17.88,4.35,4.35,0,0,1-3.25,0,3.26,3.26,0,0,1-1.17-.88,3.88,3.88,0,0,1-.69-1.32,6,6,0,0,1,0-3.26,3.59,3.59,0,0,1,.69-1.31,3.29,3.29,0,0,1,1.17-.89,4.17,4.17,0,0,1,3.25,0,3.17,3.17,0,0,1,1.16.89,3.61,3.61,0,0,1,.7,1.31h0A6,6,0,0,1,639.51,408.35Zm6.34-5.36c0,.14-.3.84-.39,1.08a.17.17,0,0,1-.18.14,2.78,2.78,0,0,0-.57-.07,2.35,2.35,0,0,0-.69.1,1.53,1.53,0,0,0-.63.38,1.86,1.86,0,0,0-.45.75,4.43,4.43,0,0,0-.17,1.35v3.82h0a.15.15,0,0,1-.16.15h-1.34a.15.15,0,0,1-.16-.15v-7.66h0a.15.15,0,0,1,.15-.15h1.32a.15.15,0,0,1,.14.16v.63a2.37,2.37,0,0,1,.87-.64,2.51,2.51,0,0,1,1.32-.21,4.28,4.28,0,0,1,.87.15h0A.14.14,0,0,1,645.85,403Zm6.43,7.51a6.32,6.32,0,0,1-2.15.38,3.82,3.82,0,0,1-3-1.13,4.36,4.36,0,0,1-1-3,5.32,5.32,0,0,1,.24-1.63,3.91,3.91,0,0,1,.74-1.32,3.48,3.48,0,0,1,1.23-.88,4.11,4.11,0,0,1,1.69-.33,7.28,7.28,0,0,1,1.14.08,5.93,5.93,0,0,1,1,.24h0a.14.14,0,0,1,.09.17c-.15.41-.25.67-.38,1-.06.16-.17.11-.17.11a4.87,4.87,0,0,0-1.61-.23,2,2,0,0,0-1.68.74,3.15,3.15,0,0,0-.58,2,2.88,2.88,0,0,0,.65,2.08,2.33,2.33,0,0,0,1.72.65,5.69,5.69,0,0,0,.83-.06,3.58,3.58,0,0,0,.71-.2h0a.14.14,0,0,1,.17.1l.38,1A.14.14,0,0,1,652.28,410.5Zm7.59-3.48a.15.15,0,0,1-.15.13h-5.13a2.43,2.43,0,0,0,.59,1.71,2.5,2.5,0,0,0,1.76.6,4.94,4.94,0,0,0,2.11-.38h0a.13.13,0,0,1,.18.09l.33.95c.07.16,0,.21-.05.24a5.26,5.26,0,0,1-2.58.52,5.09,5.09,0,0,1-1.86-.31,3.26,3.26,0,0,1-2-2.16,5.33,5.33,0,0,1-.23-1.64,5.62,5.62,0,0,1,.22-1.63,3.74,3.74,0,0,1,.7-1.34,3.38,3.38,0,0,1,1.18-.9,4.12,4.12,0,0,1,1.7-.33,3.72,3.72,0,0,1,1.47.3,2.86,2.86,0,0,1,1,.74,3.11,3.11,0,0,1,.65,1.2A5.5,5.5,0,0,1,659.87,407Z" fill="#fff"/><path d="M656.51,403.93a1.66,1.66,0,0,0-1.48.74,3.05,3.05,0,0,0-.41,1.21h3.67a2.59,2.59,0,0,0-.34-1.21A1.6,1.6,0,0,0,656.51,403.93Z" fill="#fff"/><path d="M636,404a1.59,1.59,0,0,0-1.47.72,3.7,3.7,0,0,0-.48,2.05,3.76,3.76,0,0,0,.48,2.06,1.59,1.59,0,0,0,1.47.72,1.62,1.62,0,0,0,1.48-.72,3.67,3.67,0,0,0,.49-2.06,3.72,3.72,0,0,0-.49-2.05A1.64,1.64,0,0,0,636,404Z" fill="#fff"/><path d="M623,202.78a1,1,0,0,1-1-1v-2a1,1,0,0,1,2,0v2A1,1,0,0,1,623,202.78Zm0-8a1,1,0,0,1-1-1v-3a1,1,0,0,1,2,0v3A1,1,0,0,1,623,194.75Zm0-9a1,1,0,0,1-1-1v-3a1,1,0,0,1,2,0v3A1,1,0,0,1,623,185.75Zm0-9a1,1,0,0,1-1-1v-3a1,1,0,0,1,2,0v3A1,1,0,0,1,623,176.75Zm0-9a1,1,0,0,1-1-1v-3a1,1,0,0,1,2,0v3A1,1,0,0,1,623,167.75Z" fill="#fff"/><path d="M298.27,110.17l.65-.83a3.68,3.68,0,0,0,1,.55,4.09,4.09,0,0,0,1.2.17,2.13,2.13,0,0,0,1.3-.36,1.24,1.24,0,0,0,.48-1.06,1.29,1.29,0,0,0-.23-.8,1.56,1.56,0,0,0-.66-.5,8,8,0,0,0-1.13-.36,4.18,4.18,0,0,1-1.77-.87,2,2,0,0,1-.6-1.53,2.05,2.05,0,0,1,.39-1.26,2.35,2.35,0,0,1,1.05-.8,3.92,3.92,0,0,1,1.49-.27,4.37,4.37,0,0,1,2.67.83l-.59.86a4.73,4.73,0,0,0-1-.47,3.81,3.81,0,0,0-1.08-.15,2,2,0,0,0-1.17.3,1,1,0,0,0-.45.88,1,1,0,0,0,.43.89,4.44,4.44,0,0,0,1.42.55,4.78,4.78,0,0,1,1.92.93,2.2,2.2,0,0,1,.66,1.73,2.31,2.31,0,0,1-.42,1.41,2.57,2.57,0,0,1-1.14.87,4.19,4.19,0,0,1-1.58.28,4.64,4.64,0,0,1-1.56-.25A4.32,4.32,0,0,1,298.27,110.17Z" fill="#fff"/><path d="M305.71,102.45H307v3h0a2.37,2.37,0,0,1,2-.88,2.13,2.13,0,0,1,1.73.67,2.44,2.44,0,0,1,.56,1.62v4h-1.26v-3.77a1.75,1.75,0,0,0-.33-1.09,1.27,1.27,0,0,0-1.07-.43,1.58,1.58,0,0,0-1.23.51,1.92,1.92,0,0,0-.45,1.3V111h-1.26Z" fill="#fff"/><path d="M319.1,107.84a3.7,3.7,0,0,1-.38,1.7,2.72,2.72,0,0,1-1.09,1.16,3.3,3.3,0,0,1-1.7.42,3.22,3.22,0,0,1-1.68-.42,2.81,2.81,0,0,1-1.08-1.16,3.58,3.58,0,0,1-.38-1.7,3.67,3.67,0,0,1,.37-1.7,2.73,2.73,0,0,1,1.08-1.13,3.43,3.43,0,0,1,1.69-.4,3.51,3.51,0,0,1,1.71.4,2.7,2.7,0,0,1,1.09,1.13A3.8,3.8,0,0,1,319.1,107.84Zm-5,0a2.74,2.74,0,0,0,.46,1.65,1.59,1.59,0,0,0,1.38.62,1.66,1.66,0,0,0,1.42-.62,2.74,2.74,0,0,0,.45-1.65,2.69,2.69,0,0,0-.45-1.63,1.68,1.68,0,0,0-1.42-.6,1.62,1.62,0,0,0-1.39.6A2.69,2.69,0,0,0,314.09,107.84Z" fill="#fff"/><path d="M329,104.78,327.31,111h-1.39l-1.49-4.83h0L322.93,111h-1.38l-1.73-6.17h1.32l1.15,4.8h0l1.47-4.8h1.32l1.48,4.8h0l1.16-4.8Z" fill="#fff"/><path d="M330.16,106.17a11,11,0,0,0-.08-1.39h1.2a5.93,5.93,0,0,1,.1.72h0a2.07,2.07,0,0,1,.82-.65,3,3,0,0,1,1.24-.24,2.15,2.15,0,0,1,1.74.67,2.39,2.39,0,0,1,.57,1.62v4h-1.26v-3.77a1.75,1.75,0,0,0-.34-1.09,1.26,1.26,0,0,0-1.07-.43,1.55,1.55,0,0,0-1.22.51,1.88,1.88,0,0,0-.46,1.3V111h-1.26Z" fill="#fff"/><path d="M307.94,122.24a3.7,3.7,0,0,1-.38,1.7,2.66,2.66,0,0,1-1.09,1.16,3.3,3.3,0,0,1-1.7.42,3.22,3.22,0,0,1-1.68-.42,2.81,2.81,0,0,1-1.08-1.16,3.58,3.58,0,0,1-.38-1.7,3.67,3.67,0,0,1,.37-1.7,2.73,2.73,0,0,1,1.08-1.13,3.81,3.81,0,0,1,3.4,0,2.7,2.7,0,0,1,1.09,1.13A3.67,3.67,0,0,1,307.94,122.24Zm-5,0a2.74,2.74,0,0,0,.45,1.65,1.6,1.6,0,0,0,1.38.62,1.66,1.66,0,0,0,1.42-.62,2.74,2.74,0,0,0,.45-1.65,2.69,2.69,0,0,0-.45-1.63,1.68,1.68,0,0,0-1.42-.6,1.62,1.62,0,0,0-1.39.6A2.69,2.69,0,0,0,302.94,122.24Z" fill="#fff"/><path d="M309.48,120.57a11,11,0,0,0-.09-1.39h1.2a5.93,5.93,0,0,1,.1.72h0a2.14,2.14,0,0,1,.82-.65,3,3,0,0,1,1.25-.24,2.14,2.14,0,0,1,1.73.67,2.39,2.39,0,0,1,.57,1.62v4h-1.26v-3.77a1.69,1.69,0,0,0-.34-1.09,1.25,1.25,0,0,0-1.06-.43,1.57,1.57,0,0,0-1.23.51,1.92,1.92,0,0,0-.45,1.3v3.48h-1.26Z" fill="#fff"/><path d="M325.76,116.85V118h-2.62v7.38h-1.33V118h-2.62v-1.12Z" fill="#fff"/><path d="M333.57,116.85l-3.24,8.5H329l-3.23-8.5h1.42l2.5,7h0l2.44-7Z" fill="#fff"/><path d="M388.84,405.21h-3a1,1,0,0,1,0-2h3a1,1,0,0,1,0,2Zm-9,0h-3a1,1,0,0,1,0-2h3a1,1,0,0,1,0,2Zm-9,0h-3a1,1,0,0,1,0-2h3a1,1,0,0,1,0,2Zm-9,0h-3a1,1,0,0,1,0-2h3a1,1,0,0,1,0,2Zm-9,0h-3a1,1,0,0,1,0-2h3a1,1,0,0,1,0,2Zm-9,0h-3a1,1,0,0,1,0-2h3a1,1,0,0,1,0,2Zm-9,0h-3a1,1,0,0,1,0-2h3a1,1,0,0,1,0,2Zm-9,0h-3a1,1,0,0,1,0-2h3a1,1,0,0,1,0,2Zm-9,0h-3a1,1,0,0,1,0-2h3a1,1,0,0,1,0,2Zm-9,0h-3a1,1,0,0,1,0-2h3a1,1,0,0,1,0,2Zm-9,0h-3a1,1,0,0,1,0-2h3a1,1,0,0,1,0,2Zm-9,0h-3a1,1,0,0,1,0-2h3a1,1,0,0,1,0,2Zm-9,0H278a1,1,0,0,1,0-2h2.86a1,1,0,0,1,0,2Z" fill="#fff"/><path d="M298.27,428.34l.65-.83a3.68,3.68,0,0,0,1,.55,4.09,4.09,0,0,0,1.2.17,2.13,2.13,0,0,0,1.3-.36,1.23,1.23,0,0,0,.48-1.05,1.3,1.3,0,0,0-.23-.81,1.56,1.56,0,0,0-.66-.5,8,8,0,0,0-1.13-.36,4.18,4.18,0,0,1-1.77-.87,2,2,0,0,1-.6-1.53,2.05,2.05,0,0,1,.39-1.26,2.42,2.42,0,0,1,1.05-.8,3.92,3.92,0,0,1,1.49-.27,4.44,4.44,0,0,1,2.67.83l-.59.86a4.73,4.73,0,0,0-1-.47,3.81,3.81,0,0,0-1.08-.15,2,2,0,0,0-1.17.3,1,1,0,0,0-.45.89,1,1,0,0,0,.43.88,4.65,4.65,0,0,0,1.42.56,4.65,4.65,0,0,1,1.92.92,2.2,2.2,0,0,1,.66,1.73,2.31,2.31,0,0,1-.42,1.41,2.5,2.5,0,0,1-1.14.87,4.19,4.19,0,0,1-1.58.29,4.64,4.64,0,0,1-1.56-.26A4.12,4.12,0,0,1,298.27,428.34Z" fill="#fff"/><path d="M305.71,420.62H307v3h0a2.39,2.39,0,0,1,2-.88,2.16,2.16,0,0,1,1.73.67,2.46,2.46,0,0,1,.56,1.63v4h-1.26v-3.77a1.75,1.75,0,0,0-.33-1.09,1.27,1.27,0,0,0-1.07-.43,1.58,1.58,0,0,0-1.23.51,1.92,1.92,0,0,0-.45,1.3v3.48h-1.26Z" fill="#fff"/><path d="M319.1,426a3.77,3.77,0,0,1-.38,1.71,2.75,2.75,0,0,1-1.09,1.15,3.3,3.3,0,0,1-1.7.42,3.22,3.22,0,0,1-1.68-.42,2.81,2.81,0,0,1-1.08-1.16,3.58,3.58,0,0,1-.38-1.7,3.67,3.67,0,0,1,.37-1.7,2.65,2.65,0,0,1,1.08-1.12,3.33,3.33,0,0,1,1.69-.41,3.41,3.41,0,0,1,1.71.41,2.62,2.62,0,0,1,1.09,1.12A3.8,3.8,0,0,1,319.1,426Zm-5,0a2.74,2.74,0,0,0,.46,1.65,1.59,1.59,0,0,0,1.38.62,1.66,1.66,0,0,0,1.42-.62,2.74,2.74,0,0,0,.45-1.65,2.64,2.64,0,0,0-.45-1.62,1.66,1.66,0,0,0-1.42-.61,1.6,1.6,0,0,0-1.39.61A2.64,2.64,0,0,0,314.09,426Z" fill="#fff"/><path d="M329,423l-1.73,6.17h-1.39l-1.49-4.82h0l-1.47,4.82h-1.38L319.82,423h1.32l1.15,4.8h0l1.47-4.8h1.32l1.48,4.8h0l1.16-4.8Z" fill="#fff"/><path d="M330.16,424.34a11,11,0,0,0-.08-1.39h1.2a5.93,5.93,0,0,1,.1.72h0a2.07,2.07,0,0,1,.82-.65,3,3,0,0,1,1.24-.24,2.18,2.18,0,0,1,1.74.67,2.42,2.42,0,0,1,.57,1.63v4h-1.26v-3.77a1.75,1.75,0,0,0-.34-1.09,1.26,1.26,0,0,0-1.07-.43,1.55,1.55,0,0,0-1.22.51,1.88,1.88,0,0,0-.46,1.3v3.48h-1.26Z" fill="#fff"/><path d="M294.25,440.41a3.77,3.77,0,0,1-.38,1.71,2.75,2.75,0,0,1-1.09,1.15,3.3,3.3,0,0,1-1.7.42,3.22,3.22,0,0,1-1.68-.42,2.9,2.9,0,0,1-1.09-1.16,4.09,4.09,0,0,1,0-3.4,2.65,2.65,0,0,1,1.08-1.12,3.33,3.33,0,0,1,1.69-.41,3.43,3.43,0,0,1,1.71.41,2.62,2.62,0,0,1,1.09,1.12A3.8,3.8,0,0,1,294.25,440.41Zm-5,0a2.74,2.74,0,0,0,.45,1.65,1.62,1.62,0,0,0,1.39.62,1.66,1.66,0,0,0,1.42-.62,2.74,2.74,0,0,0,.45-1.65,2.64,2.64,0,0,0-.45-1.62,1.66,1.66,0,0,0-1.42-.61,1.59,1.59,0,0,0-1.39.61A2.64,2.64,0,0,0,289.24,440.41Z" fill="#fff"/><path d="M295.78,438.74a11,11,0,0,0-.08-1.39h1.2a5.93,5.93,0,0,1,.1.72h0a2.07,2.07,0,0,1,.82-.65,3,3,0,0,1,1.24-.24,2.18,2.18,0,0,1,1.74.67,2.42,2.42,0,0,1,.57,1.63v4h-1.26v-3.77a1.69,1.69,0,0,0-.34-1.09,1.26,1.26,0,0,0-1.07-.43,1.55,1.55,0,0,0-1.22.51A1.93,1.93,0,0,0,297,440v3.48h-1.26Z" fill="#fff"/><path d="M312.1,443.52h-1.17c-.05-.38-.08-.64-.09-.79h0a2.21,2.21,0,0,1-.86.72,3,3,0,0,1-1.26.24,2.33,2.33,0,0,1-2-.9,3.75,3.75,0,0,1-.68-2.33,3.93,3.93,0,0,1,.35-1.67,2.77,2.77,0,0,1,1-1.17,2.64,2.64,0,0,1,1.52-.44,2.72,2.72,0,0,1,1.87.68V435H312v7.11A13.45,13.45,0,0,0,312.1,443.52Zm-1.35-2.68V439a2.13,2.13,0,0,0-1.68-.77,1.5,1.5,0,0,0-1.28.63,2.66,2.66,0,0,0-.46,1.64,2.61,2.61,0,0,0,.44,1.63,1.46,1.46,0,0,0,1.23.59,1.64,1.64,0,0,0,1.26-.52A1.81,1.81,0,0,0,310.75,440.84Z" fill="#fff"/><path d="M319.27,440.89h-4.44a2.05,2.05,0,0,0,.55,1.32,1.82,1.82,0,0,0,1.32.47,3,3,0,0,0,.95-.14,4,4,0,0,0,.87-.44l.56.81a4.07,4.07,0,0,1-1.13.59,4.54,4.54,0,0,1-1.33.19,3.18,3.18,0,0,1-1.65-.41,2.6,2.6,0,0,1-1.05-1.15,3.84,3.84,0,0,1-.37-1.71,3.48,3.48,0,0,1,.77-2.35,2.75,2.75,0,0,1,2.18-.89,2.55,2.55,0,0,1,2.08.88,3.55,3.55,0,0,1,.72,2.33A4.07,4.07,0,0,1,319.27,440.89Zm-1.2-1a2.1,2.1,0,0,0-.43-1.29,1.41,1.41,0,0,0-1.16-.5,1.46,1.46,0,0,0-1.19.51,2.16,2.16,0,0,0-.47,1.28Z" fill="#fff"/><path d="M325.81,437.35l-2.28,6.17h-1.39l-2.33-6.17h1.35l1.68,4.91h0l1.63-4.91Z" fill="#fff"/><path d="M326.65,435.32c0-.5.26-.75.79-.75a.74.74,0,0,1,.59.21.86.86,0,0,1,0,1.08.74.74,0,0,1-.59.21.79.79,0,0,1-.61-.21A.8.8,0,0,1,326.65,435.32Zm1.41,2v6.17H326.8v-6.17Z" fill="#fff"/><path d="M332.73,437.18a3.73,3.73,0,0,1,1.11.17,3.35,3.35,0,0,1,1,.49l-.5.88a2.61,2.61,0,0,0-1.56-.49,1.63,1.63,0,0,0-1.38.59,2.5,2.5,0,0,0-.47,1.6,2.59,2.59,0,0,0,.47,1.61,1.61,1.61,0,0,0,1.36.6,3,3,0,0,0,1.59-.5l.46.89a3.64,3.64,0,0,1-2.15.67,2.89,2.89,0,0,1-1.76-.49,2.57,2.57,0,0,1-.95-1.22,4.28,4.28,0,0,1-.29-1.56,3.7,3.7,0,0,1,.38-1.7,2.54,2.54,0,0,1,1.07-1.13A3.27,3.27,0,0,1,332.73,437.18Z" fill="#fff"/><path d="M341.24,440.89H336.8a2.05,2.05,0,0,0,.55,1.32,1.82,1.82,0,0,0,1.32.47,3.13,3.13,0,0,0,1-.14,4.45,4.45,0,0,0,.87-.44l.55.81a4.16,4.16,0,0,1-1.12.59,4.66,4.66,0,0,1-1.34.19,3.2,3.2,0,0,1-1.65-.41,2.6,2.6,0,0,1-1.05-1.15,3.84,3.84,0,0,1-.36-1.71,3.43,3.43,0,0,1,.77-2.35,2.71,2.71,0,0,1,2.17-.89,2.55,2.55,0,0,1,2.08.88,3.55,3.55,0,0,1,.72,2.33A4.07,4.07,0,0,1,341.24,440.89Zm-1.2-1a2.1,2.1,0,0,0-.43-1.29,1.4,1.4,0,0,0-1.15-.5,1.48,1.48,0,0,0-1.2.51,2.16,2.16,0,0,0-.47,1.28Z" fill="#fff"/><path d="M346.71,437.84l-.54.78a2.77,2.77,0,0,0-1.5-.46,1.51,1.51,0,0,0-.82.19.61.61,0,0,0-.3.54.75.75,0,0,0,.13.45.87.87,0,0,0,.42.29,7.54,7.54,0,0,0,.88.27,2.87,2.87,0,0,1,1.38.67,1.51,1.51,0,0,1,.46,1.16,1.69,1.69,0,0,1-.34,1.07,2,2,0,0,1-.9.67,3.77,3.77,0,0,1-3.47-.49l.58-.79a3.49,3.49,0,0,0,.77.39,2.82,2.82,0,0,0,.85.12,1.49,1.49,0,0,0,.88-.22.8.8,0,0,0,.32-.68.75.75,0,0,0-.12-.45,1,1,0,0,0-.41-.28,5.62,5.62,0,0,0-.87-.26,3.06,3.06,0,0,1-1.38-.66,1.58,1.58,0,0,1-.44-1.19,1.53,1.53,0,0,1,.65-1.29,2.75,2.75,0,0,1,1.7-.49A3.29,3.29,0,0,1,346.71,437.84Z" fill="#fff"/><path d="M253.44,436.19H225.92a3.54,3.54,0,0,1-3.53-3.53V383.42a3.53,3.53,0,0,1,3.53-3.53h27.52a3.53,3.53,0,0,1,3.53,3.53v49.24A3.54,3.54,0,0,1,253.44,436.19Zm-27.52-54.3a1.52,1.52,0,0,0-1.53,1.53v49.24a1.53,1.53,0,0,0,1.53,1.53h27.52a1.53,1.53,0,0,0,1.53-1.53V383.42a1.52,1.52,0,0,0-1.53-1.53Z" fill="#fff"/><path d="M252.42,432.51H226.94a1,1,0,0,1-1-1V384.73a1,1,0,0,1,1-1h25.48a1,1,0,0,1,1,1v46.78A1,1,0,0,1,252.42,432.51Zm-24.48-2h23.48V385.73H227.94Z" fill="#fff"/><g opacity="0.3"><polygon points="252.12 397.96 229.16 431.51 235.82 431.51 252.22 407.63 252.12 397.96" fill="#fff"/></g><g opacity="0.3"><polygon points="252.15 411.87 238.43 431.51 241.59 431.51 251.69 416.74 252.15 411.87" fill="#fff"/></g><path d="M220.68,424.58H65.9c-11.27,0-12.49-7.73-12.49-11.05,0-14.34,21.36-16.06,22.27-16.12,3.08-.46,3.41-2,3.34-3.34,0-.37-.6-1-1.28-1.73-2.32-2.51-6.65-7.17-6.65-19.94,0-10.7,7.23-18.78,16.81-18.78s16.82,8.08,16.82,18.78c0,11.12-4.06,16.31-6.49,19.4a6.94,6.94,0,0,0-1.45,2.27c-.06,1.32.27,2.88,3.41,3.35.32,0,9.2.74,15.64,5.24,6.38-4.14,14.61-5.2,15-5.25,3.12-.46,3.45-2,3.39-3.34,0-.37-.6-1-1.28-1.73-2.33-2.51-6.65-7.17-6.65-19.94,0-10.7,7.22-18.78,16.81-18.78s16.81,8.08,16.81,18.78c0,11.12-4.06,16.31-6.48,19.4a6.77,6.77,0,0,0-1.45,2.27c-.06,1.32.27,2.88,3.41,3.35a40.63,40.63,0,0,1,12.46,3.2l.14.05.1.05a23.56,23.56,0,0,1,3.38,1.93c6.38-4.13,14.6-5.19,15-5.24,3.12-.46,3.45-2,3.39-3.34,0-.37-.6-1-1.28-1.73-2.33-2.51-6.65-7.17-6.65-19.94,0-10.7,7.23-18.78,16.81-18.78s16.81,8.08,16.81,18.78c0,11.12-4.06,16.31-6.48,19.4a6.77,6.77,0,0,0-1.45,2.27c-.06,1.32.27,2.88,3.41,3.35a40.44,40.44,0,0,1,12.86,3.37,1,1,0,0,1-.86,1.81,39.46,39.46,0,0,0-12.22-3.2c-4.48-.65-5.29-3.31-5.19-5.42,0-1.09.82-2.06,1.87-3.41,2.27-2.89,6.06-7.74,6.06-18.17,0-9.56-6.37-16.78-14.81-16.78s-14.81,7.22-14.81,16.78c0,12,3.83,16.11,6.11,18.58,1,1.06,1.77,1.9,1.82,3,.1,2.11-.7,4.77-5.12,5.42-.11,0-8.64,1.11-14.68,5.29a1,1,0,0,1-1.17,0,20,20,0,0,0-3.6-2.13l-.05,0s0,0-.07,0a39.94,39.94,0,0,0-12-3.08c-4.49-.65-5.29-3.31-5.19-5.42.05-1.09.81-2.06,1.87-3.41,2.27-2.9,6.06-7.74,6.06-18.17,0-9.56-6.37-16.78-14.81-16.78s-14.81,7.22-14.81,16.78c0,12,3.83,16.11,6.11,18.58,1,1.06,1.76,1.9,1.82,3,.1,2.11-.71,4.77-5.12,5.42-.11,0-8.65,1.11-14.69,5.3a1,1,0,0,1-1.18,0c-6-4.52-15.14-5.27-15.23-5.28-4.48-.65-5.29-3.31-5.19-5.42.06-1.09.82-2.06,1.87-3.41,2.27-2.9,6.07-7.74,6.07-18.17,0-9.56-6.37-16.78-14.82-16.78s-14.81,7.22-14.81,16.78c0,12,3.83,16.11,6.12,18.58,1,1.06,1.76,1.9,1.81,3,.1,2.11-.7,4.77-5.12,5.42-.27,0-20.49,1.65-20.49,14.13,0,3.38,1.36,9.05,10.49,9.05H220.68a18.9,18.9,0,0,0,2.57-.17,1,1,0,1,1,.28,2A19.86,19.86,0,0,1,220.68,424.58Z" fill="#fff"/><path d="M277.54,411.54a1,1,0,0,1-.71-.3l-6.33-6.33a1,1,0,0,1-.29-.7,1,1,0,0,1,.29-.71l6.33-6.32a1,1,0,0,1,1.41,1.41l-5.62,5.62,5.63,5.62a1,1,0,0,1-.71,1.71Z" fill="#fff"/><path d="M398.08,133.33a1,1,0,0,1-.71-.29,1,1,0,0,1,0-1.42l6.33-6.33a1,1,0,0,1,1.42,0l6.32,6.32a1,1,0,0,1,0,1.42,1,1,0,0,1-1.41,0l-5.62-5.62L398.79,133A1,1,0,0,1,398.08,133.33Z" fill="#fff"/><path d="M446.69,184.19a1,1,0,0,1-.7-.3l-6.33-6.32a1,1,0,0,1,0-1.41,1,1,0,0,1,1.42,0l5.61,5.61,5.63-5.62a1,1,0,0,1,1.41,1.41l-6.33,6.33A1,1,0,0,1,446.69,184.19Z" fill="#fff"/><path d="M404.41,371.14a1,1,0,0,1-1-1v-3a1,1,0,0,1,2,0v3A1,1,0,0,1,404.41,371.14Zm0-9a1,1,0,0,1-1-1v-3a1,1,0,0,1,2,0v3A1,1,0,0,1,404.41,362.14Zm0-9a1,1,0,0,1-1-1v-3a1,1,0,0,1,2,0v3A1,1,0,0,1,404.41,353.14Zm0-9a1,1,0,0,1-1-1v-3a1,1,0,0,1,2,0v3A1,1,0,0,1,404.41,344.14Zm0-9a1,1,0,0,1-1-1v-3a1,1,0,0,1,2,0v3A1,1,0,0,1,404.41,335.14Zm0-9a1,1,0,0,1-1-1v-3a1,1,0,0,1,2,0v3A1,1,0,0,1,404.41,326.14Z" fill="#fff"/><path d="M446.7,363.05a1,1,0,0,1-1-1v-3a1,1,0,0,1,2,0v3A1,1,0,0,1,446.7,363.05Zm0-9a1,1,0,0,1-1-1v-3a1,1,0,0,1,2,0v3A1,1,0,0,1,446.7,354.05Zm0-9a1,1,0,0,1-1-1v-3a1,1,0,0,1,2,0v3A1,1,0,0,1,446.7,345.05Zm0-9a1,1,0,0,1-1-1v-3a1,1,0,0,1,2,0v3A1,1,0,0,1,446.7,336.05Zm0-9a1,1,0,0,1-1-1v-3a1,1,0,0,1,2,0v3A1,1,0,0,1,446.7,327.05Zm0-9a1,1,0,0,1-1-1v-3a1,1,0,0,1,2,0v3A1,1,0,0,1,446.7,318.05Z" fill="#fff"/><path d="M398.08,321.38a1,1,0,0,1-.71-.29,1,1,0,0,1,0-1.41l6.33-6.33a1,1,0,0,1,1.42,0l6.32,6.32a1,1,0,1,1-1.41,1.41l-5.62-5.61-5.62,5.62A1,1,0,0,1,398.08,321.38Z" fill="#fff"/><path d="M446.69,371.19a1,1,0,0,1-.7-.29l-6.33-6.32a1,1,0,0,1,1.42-1.42l5.61,5.62,5.63-5.62a1,1,0,0,1,1.41,1.41l-6.33,6.33A1,1,0,0,1,446.69,371.19Z" fill="#fff"/><path d="M468.08,93.36a1,1,0,0,1-.7-.29l-6.33-6.33a1,1,0,0,1,0-1.41L467.37,79a1,1,0,0,1,1.41,1.42L463.17,86l5.62,5.63a1,1,0,0,1,0,1.41A1,1,0,0,1,468.08,93.36Z" fill="#fff"/><path d="M549.07,93.36a1,1,0,0,1-.71-.29,1,1,0,0,1,0-1.41L554,86l-5.63-5.62A1,1,0,1,1,549.77,79l6.33,6.33a1,1,0,0,1,0,1.42l-6.33,6.32A1,1,0,0,1,549.07,93.36Z" fill="#fff"/><path d="M616.56,162.26a1,1,0,0,1-.71-1.71l6.33-6.33a1,1,0,0,1,1.41,0l6.33,6.32A1,1,0,1,1,628.5,162l-5.61-5.62L617.26,162A1,1,0,0,1,616.56,162.26Z" fill="#fff"/><path d="M622.88,209.11a1,1,0,0,1-.71-.3l-6.32-6.32a1,1,0,0,1,1.41-1.41l5.62,5.61,5.62-5.62a1,1,0,0,1,1.42,0,1,1,0,0,1,0,1.41l-6.33,6.33A1,1,0,0,1,622.88,209.11Z" fill="#fff"/><path d="M623,358.31a1,1,0,0,1-1-1V355a1,1,0,0,1,2,0v2.35A1,1,0,0,1,623,358.31Zm0-8.35a1,1,0,0,1-1-1v-3a1,1,0,0,1,2,0v3A1,1,0,0,1,623,350Zm0-9a1,1,0,0,1-1-1v-3a1,1,0,0,1,2,0v3A1,1,0,0,1,623,341Zm0-9a1,1,0,0,1-1-1v-3a1,1,0,0,1,2,0v3A1,1,0,0,1,623,332Zm0-9a1,1,0,0,1-1-1v-3a1,1,0,0,1,2,0v3A1,1,0,0,1,623,323Z" fill="#fff"/><path d="M616.56,317.46a1,1,0,0,1-.71-.29,1,1,0,0,1,0-1.41l6.33-6.33a1,1,0,0,1,1.41,0l6.33,6.32a1,1,0,0,1,0,1.41,1,1,0,0,1-1.42,0l-5.61-5.61-5.63,5.62A1,1,0,0,1,616.56,317.46Z" fill="#fff"/><path d="M622.88,364.64a1,1,0,0,1-.71-.29L615.85,358a1,1,0,0,1,0-1.42,1,1,0,0,1,1.41,0l5.62,5.62,5.62-5.62a1,1,0,1,1,1.42,1.41l-6.33,6.33A1,1,0,0,1,622.88,364.64Z" fill="#fff"/><path d="M687.92,238.5v1.08H684v2.64h3.47v1.07H684V247h-1.31V238.5Z" fill="#fff"/><path d="M694.4,243.89a3.73,3.73,0,0,1-.38,1.7,2.77,2.77,0,0,1-1.09,1.16,3.4,3.4,0,0,1-1.7.41,3.22,3.22,0,0,1-1.68-.42,2.84,2.84,0,0,1-1.09-1.16,4.07,4.07,0,0,1,0-3.39,2.68,2.68,0,0,1,1.08-1.13,3.33,3.33,0,0,1,1.69-.4,3.43,3.43,0,0,1,1.71.4,2.64,2.64,0,0,1,1.09,1.13A3.77,3.77,0,0,1,694.4,243.89Zm-5,0a2.78,2.78,0,0,0,.45,1.65,1.61,1.61,0,0,0,1.39.61,1.66,1.66,0,0,0,1.42-.61,2.78,2.78,0,0,0,.45-1.65,2.67,2.67,0,0,0-.45-1.63,1.69,1.69,0,0,0-1.42-.61,1.61,1.61,0,0,0-1.39.61A2.67,2.67,0,0,0,689.39,243.89Z" fill="#fff"/><path d="M695.93,242.22a10.9,10.9,0,0,0-.08-1.39h1.2a6.38,6.38,0,0,1,.1.85h0a1.93,1.93,0,0,1,.71-.76,2.36,2.36,0,0,1,1.17-.26l.36,0-.06,1.1a1.76,1.76,0,0,0-.42,0,1.55,1.55,0,0,0-1.28.55,2.18,2.18,0,0,0-.46,1.42V247h-1.26Z" fill="#fff"/><path d="M709.31,247h-1.17c0-.37-.08-.64-.09-.79h0a2.21,2.21,0,0,1-.86.72,3,3,0,0,1-1.26.24,2.37,2.37,0,0,1-2-.89,3.8,3.8,0,0,1-.68-2.34,3.88,3.88,0,0,1,.35-1.66,2.8,2.8,0,0,1,1-1.18,2.64,2.64,0,0,1,1.52-.43,2.72,2.72,0,0,1,1.87.67V238.5h1.26v7.1A13.45,13.45,0,0,0,709.31,247ZM708,244.32v-1.89a2.12,2.12,0,0,0-1.68-.76,1.49,1.49,0,0,0-1.28.62,2.68,2.68,0,0,0-.46,1.64,2.73,2.73,0,0,0,.44,1.64,1.46,1.46,0,0,0,1.23.58,1.65,1.65,0,0,0,1.26-.51A1.84,1.84,0,0,0,708,244.32Z" fill="#fff"/><path d="M710.69,245.28a1.75,1.75,0,0,1,.87-1.68,5.46,5.46,0,0,1,2.54-.47h.61v-.32c0-.79-.46-1.18-1.39-1.18a3.62,3.62,0,0,0-1.82.49l-.44-.84a4.33,4.33,0,0,1,1.1-.46,4.28,4.28,0,0,1,1.22-.17,2.69,2.69,0,0,1,2,.62,2.57,2.57,0,0,1,.61,1.89v2.43a13.87,13.87,0,0,0,.1,1.39h-1.16a4.27,4.27,0,0,1-.09-.73h0a2.26,2.26,0,0,1-.84.68,3,3,0,0,1-1.26.22,2.09,2.09,0,0,1-1.44-.48A1.77,1.77,0,0,1,710.69,245.28Zm4-.63V244h-.49a3.92,3.92,0,0,0-1.71.27,1,1,0,0,0-.52.93.87.87,0,0,0,.28.7,1.05,1.05,0,0,0,.75.26,1.72,1.72,0,0,0,.9-.23,1.47,1.47,0,0,0,.59-.57A1.45,1.45,0,0,0,714.71,244.65Z" fill="#fff"/><path d="M719.33,240.83h1.59v1h-1.59v3.42c0,.62.29.93.86.93a2.12,2.12,0,0,0,.57-.08l.18.93a2.68,2.68,0,0,1-1,.17,1.89,1.89,0,0,1-1.37-.48,1.78,1.78,0,0,1-.51-1.37v-3.52H717V241l1-.14v-1.46l1.27-.45Z" fill="#fff"/><path d="M721.78,245.28a1.77,1.77,0,0,1,.86-1.68,5.54,5.54,0,0,1,2.55-.47h.61v-.32c0-.79-.46-1.18-1.39-1.18a3.62,3.62,0,0,0-1.82.49l-.44-.84a4.33,4.33,0,0,1,1.1-.46,4.23,4.23,0,0,1,1.22-.17,2.66,2.66,0,0,1,2,.62,2.53,2.53,0,0,1,.62,1.89v2.43a11.41,11.41,0,0,0,.1,1.39H726a5.26,5.26,0,0,1-.08-.73h0a2.26,2.26,0,0,1-.84.68,3,3,0,0,1-1.26.22,2.12,2.12,0,0,1-1.44-.48A1.8,1.8,0,0,1,721.78,245.28Zm4-.63V244h-.49a4,4,0,0,0-1.72.27,1,1,0,0,0-.51.93.9.9,0,0,0,.27.7,1.09,1.09,0,0,0,.76.26,1.77,1.77,0,0,0,.9-.23,1.47,1.47,0,0,0,.59-.57A1.45,1.45,0,0,0,725.8,244.65Z" fill="#fff"/><path d="M664.93,255.72l-.54.78a2.78,2.78,0,0,0-1.5-.47,1.47,1.47,0,0,0-.81.19.61.61,0,0,0-.3.54.78.78,0,0,0,.12.46,1.07,1.07,0,0,0,.42.29,7.91,7.91,0,0,0,.88.26,3,3,0,0,1,1.38.67,1.55,1.55,0,0,1,.46,1.17,1.66,1.66,0,0,1-.34,1.06,2,2,0,0,1-.9.67,3.23,3.23,0,0,1-1.22.22,3.36,3.36,0,0,1-2.24-.71l.57-.79a2.8,2.8,0,0,0,.77.39,2.57,2.57,0,0,0,.85.13,1.49,1.49,0,0,0,.88-.23.88.88,0,0,0,.2-1.12.89.89,0,0,0-.41-.28,6.71,6.71,0,0,0-.87-.27A3.12,3.12,0,0,1,661,258a1.56,1.56,0,0,1-.43-1.19,1.55,1.55,0,0,1,.64-1.29,2.76,2.76,0,0,1,1.7-.48A3.29,3.29,0,0,1,664.93,255.72Z" fill="#fff"/><path d="M668.6,262.76a2.88,2.88,0,0,1-.78,1.3,1.93,1.93,0,0,1-1.29.42,2.69,2.69,0,0,1-1-.16l.25-.95a2.15,2.15,0,0,0,.53.09.91.91,0,0,0,.68-.25,2,2,0,0,0,.42-.74l.36-1-2.4-6.21h1.37l1.64,4.84h0l1.5-4.84h1.29Z" fill="#fff"/><path d="M672.23,256.62a10.93,10.93,0,0,0-.09-1.39h1.2a5.93,5.93,0,0,1,.1.72h0a2,2,0,0,1,.83-.65,2.92,2.92,0,0,1,1.24-.24,2.17,2.17,0,0,1,1.73.66,2.44,2.44,0,0,1,.57,1.63v4h-1.26v-3.76a1.78,1.78,0,0,0-.33-1.1,1.3,1.3,0,0,0-1.07-.43,1.56,1.56,0,0,0-1.23.52,1.88,1.88,0,0,0-.45,1.29v3.48h-1.26Z" fill="#fff"/><path d="M682.42,255.06a3.38,3.38,0,0,1,1.1.17,3.12,3.12,0,0,1,1,.49l-.49.87a2.72,2.72,0,0,0-1.56-.49,1.67,1.67,0,0,0-1.39.59,2.53,2.53,0,0,0-.46,1.61,2.55,2.55,0,0,0,.46,1.6,1.62,1.62,0,0,0,1.36.61A3,3,0,0,0,684,260l.46.89a3.59,3.59,0,0,1-2.15.67,3,3,0,0,1-1.77-.48,2.78,2.78,0,0,1-.95-1.23,4.26,4.26,0,0,1-.28-1.55,3.71,3.71,0,0,1,.37-1.71,2.77,2.77,0,0,1,1.07-1.13A3.3,3.3,0,0,1,682.42,255.06Z" fill="#fff"/><path d="M685.81,252.9h1.26v3h0a2.37,2.37,0,0,1,2-.87,2.14,2.14,0,0,1,1.73.66,2.44,2.44,0,0,1,.57,1.63v4h-1.26v-3.76a1.78,1.78,0,0,0-.34-1.1,1.29,1.29,0,0,0-1.07-.43,1.52,1.52,0,0,0-1.22.52,1.84,1.84,0,0,0-.46,1.29v3.48h-1.26Z" fill="#fff"/><path d="M693.3,256.62a13.1,13.1,0,0,0-.08-1.39h1.2a8.26,8.26,0,0,1,.09.85h0a1.86,1.86,0,0,1,.71-.76,2.36,2.36,0,0,1,1.17-.26l.36,0-.06,1.1a1.76,1.76,0,0,0-.42,0,1.55,1.55,0,0,0-1.28.55,2.13,2.13,0,0,0-.46,1.42v3.27H693.3Z" fill="#fff"/><path d="M703.56,258.29a3.73,3.73,0,0,1-.38,1.7,2.71,2.71,0,0,1-1.09,1.16,3.4,3.4,0,0,1-1.7.41,3.22,3.22,0,0,1-1.68-.42,2.75,2.75,0,0,1-1.08-1.16,3.54,3.54,0,0,1-.38-1.69,3.64,3.64,0,0,1,.37-1.7,2.68,2.68,0,0,1,1.08-1.13,3.81,3.81,0,0,1,3.4,0,2.64,2.64,0,0,1,1.09,1.13A3.64,3.64,0,0,1,703.56,258.29Zm-5,0a2.78,2.78,0,0,0,.45,1.65,1.59,1.59,0,0,0,1.38.61,1.66,1.66,0,0,0,1.42-.61,2.78,2.78,0,0,0,.45-1.65,2.67,2.67,0,0,0-.45-1.63,1.69,1.69,0,0,0-1.42-.61,1.63,1.63,0,0,0-1.39.61A2.67,2.67,0,0,0,698.56,258.29Z" fill="#fff"/><path d="M705.1,256.62a10.93,10.93,0,0,0-.09-1.39h1.2a5.93,5.93,0,0,1,.1.72h0a2,2,0,0,1,.82-.65,3,3,0,0,1,1.25-.24,2.17,2.17,0,0,1,1.73.66,2.44,2.44,0,0,1,.57,1.63v4h-1.26v-3.76a1.72,1.72,0,0,0-.34-1.1,1.28,1.28,0,0,0-1.06-.43,1.55,1.55,0,0,0-1.23.52,1.88,1.88,0,0,0-.45,1.29v3.48H705.1Z" fill="#fff"/><path d="M712.44,253.2c0-.51.26-.76.79-.76a.78.78,0,0,1,.6.21.81.81,0,0,1,.18.55.79.79,0,0,1-.18.53.78.78,0,0,1-.6.21.7.7,0,0,1-.79-.74Zm1.42,2v6.16H712.6v-6.16Z" fill="#fff"/><path d="M719.82,255.23v.93l-3.08,4.24H720v1h-4.73v-1l3.06-4.22h-2.91v-.94Z" fill="#fff"/><path d="M720.82,259.68a1.75,1.75,0,0,1,.86-1.68,5.49,5.49,0,0,1,2.54-.47h.62v-.32c0-.79-.47-1.18-1.4-1.18a3.68,3.68,0,0,0-1.82.49l-.43-.84a4.72,4.72,0,0,1,2.31-.63,2.69,2.69,0,0,1,2,.62,2.57,2.57,0,0,1,.62,1.89V260a13.45,13.45,0,0,0,.09,1.39H725a4.27,4.27,0,0,1-.09-.73h0a2.26,2.26,0,0,1-.84.68,3,3,0,0,1-1.26.22,2.12,2.12,0,0,1-1.44-.48A1.77,1.77,0,0,1,720.82,259.68Zm4-.63v-.63h-.5a3.92,3.92,0,0,0-1.71.27,1,1,0,0,0-.52.93.87.87,0,0,0,.28.7,1.05,1.05,0,0,0,.75.26,1.72,1.72,0,0,0,.9-.23,1.41,1.41,0,0,0,.59-.57A1.37,1.37,0,0,0,724.84,259.05Z" fill="#fff"/><path d="M729.46,255.23H731v1h-1.58v3.42c0,.62.28.93.85.93a2.12,2.12,0,0,0,.57-.08l.18.93a2.64,2.64,0,0,1-1,.17,1.91,1.91,0,0,1-1.37-.48,1.78,1.78,0,0,1-.5-1.37v-3.52h-1.06v-.82l1-.14v-1.46l1.28-.45Z" fill="#fff"/><path d="M732.24,253.2c0-.51.26-.76.79-.76a.78.78,0,0,1,.6.21.81.81,0,0,1,.18.55.79.79,0,0,1-.18.53.78.78,0,0,1-.6.21.7.7,0,0,1-.79-.74Zm1.42,2v6.16h-1.27v-6.16Z" fill="#fff"/><path d="M741.53,258.29a3.73,3.73,0,0,1-.38,1.7,2.77,2.77,0,0,1-1.09,1.16,3.42,3.42,0,0,1-1.7.41,3.22,3.22,0,0,1-1.68-.42,2.77,2.77,0,0,1-1.09-1.16,4.07,4.07,0,0,1,0-3.39,2.68,2.68,0,0,1,1.08-1.13,3.33,3.33,0,0,1,1.69-.4,3.43,3.43,0,0,1,1.71.4,2.56,2.56,0,0,1,1.08,1.13A3.64,3.64,0,0,1,741.53,258.29Zm-5,0a2.78,2.78,0,0,0,.45,1.65,1.6,1.6,0,0,0,1.39.61,1.66,1.66,0,0,0,1.42-.61,2.78,2.78,0,0,0,.45-1.65,2.67,2.67,0,0,0-.45-1.63,1.69,1.69,0,0,0-1.42-.61,1.61,1.61,0,0,0-1.39.61A2.67,2.67,0,0,0,736.52,258.29Z" fill="#fff"/><path d="M743.06,256.62a10.9,10.9,0,0,0-.08-1.39h1.2a5.93,5.93,0,0,1,.1.72h0a2,2,0,0,1,.82-.65,3,3,0,0,1,1.24-.24,2.18,2.18,0,0,1,1.74.66,2.44,2.44,0,0,1,.57,1.63v4h-1.26v-3.76a1.72,1.72,0,0,0-.34-1.1,1.29,1.29,0,0,0-1.07-.43,1.52,1.52,0,0,0-1.22.52,1.84,1.84,0,0,0-.46,1.29v3.48h-1.26Z" fill="#fff"/><path d="M295.7,236.25v1.08h-3.95V240h3.47V241h-3.47v3.71h-1.31v-8.5Z" fill="#fff"/><path d="M302.18,241.64a3.77,3.77,0,0,1-.38,1.71,2.69,2.69,0,0,1-1.09,1.15,3.3,3.3,0,0,1-1.7.42,3.22,3.22,0,0,1-1.68-.42,2.81,2.81,0,0,1-1.08-1.16,3.58,3.58,0,0,1-.38-1.7,3.67,3.67,0,0,1,.37-1.7,2.65,2.65,0,0,1,1.08-1.12,3.73,3.73,0,0,1,3.4,0,2.62,2.62,0,0,1,1.09,1.12A3.67,3.67,0,0,1,302.18,241.64Zm-5,0a2.74,2.74,0,0,0,.45,1.65,1.6,1.6,0,0,0,1.38.62,1.66,1.66,0,0,0,1.42-.62,2.74,2.74,0,0,0,.46-1.65,2.64,2.64,0,0,0-.46-1.62,1.66,1.66,0,0,0-1.42-.61,1.6,1.6,0,0,0-1.39.61A2.64,2.64,0,0,0,297.18,241.64Z" fill="#fff"/><path d="M303.72,240a11,11,0,0,0-.09-1.39h1.2a6.57,6.57,0,0,1,.1.85h0a1.93,1.93,0,0,1,.72-.75,2.25,2.25,0,0,1,1.17-.27l.36,0-.06,1.09a2.58,2.58,0,0,0-.42,0,1.57,1.57,0,0,0-1.29.55,2.17,2.17,0,0,0-.45,1.41v3.28h-1.26Z" fill="#fff"/><path d="M315.33,239.07l-.54.78a2.77,2.77,0,0,0-1.5-.46,1.47,1.47,0,0,0-.81.19.61.61,0,0,0-.3.54.75.75,0,0,0,.12.45,1,1,0,0,0,.42.29,7.54,7.54,0,0,0,.88.27,2.87,2.87,0,0,1,1.38.67,1.51,1.51,0,0,1,.46,1.16,1.69,1.69,0,0,1-.34,1.07,2,2,0,0,1-.9.67,3.75,3.75,0,0,1-3.46-.49l.57-.79a3.49,3.49,0,0,0,.77.39,2.86,2.86,0,0,0,.85.12,1.49,1.49,0,0,0,.88-.22.78.78,0,0,0,.32-.68.75.75,0,0,0-.12-.45,1,1,0,0,0-.41-.28,5.62,5.62,0,0,0-.87-.26,3.12,3.12,0,0,1-1.38-.66,1.58,1.58,0,0,1-.43-1.19,1.52,1.52,0,0,1,.64-1.29,2.77,2.77,0,0,1,1.7-.49A3.29,3.29,0,0,1,315.33,239.07Z" fill="#fff"/><path d="M322.14,242.12H317.7a2,2,0,0,0,.55,1.32,1.82,1.82,0,0,0,1.32.47,3,3,0,0,0,.95-.14,4,4,0,0,0,.87-.44l.55.81a3.89,3.89,0,0,1-1.12.59,4.56,4.56,0,0,1-1.34.19,3.2,3.2,0,0,1-1.65-.41,2.6,2.6,0,0,1-1.05-1.15,3.84,3.84,0,0,1-.36-1.71,3.48,3.48,0,0,1,.77-2.35,2.73,2.73,0,0,1,2.17-.89,2.55,2.55,0,0,1,2.09.88,3.55,3.55,0,0,1,.72,2.33A4.07,4.07,0,0,1,322.14,242.12Zm-1.2-1a2.1,2.1,0,0,0-.43-1.29,1.41,1.41,0,0,0-1.16-.5,1.46,1.46,0,0,0-1.19.51,2.17,2.17,0,0,0-.48,1.28Z" fill="#fff"/><path d="M323.7,240a11,11,0,0,0-.09-1.39h1.2a6.57,6.57,0,0,1,.1.85h0a1.93,1.93,0,0,1,.72-.75,2.25,2.25,0,0,1,1.17-.27l.36,0-.06,1.09a2.58,2.58,0,0,0-.42,0,1.57,1.57,0,0,0-1.29.55,2.17,2.17,0,0,0-.45,1.41v3.28H323.7Z" fill="#fff"/><path d="M333.52,238.58l-2.28,6.17h-1.39l-2.33-6.17h1.36l1.68,4.91h0l1.64-4.91Z" fill="#fff"/><path d="M334.36,236.55c0-.5.27-.75.8-.75a.74.74,0,0,1,.59.21.86.86,0,0,1,0,1.08.74.74,0,0,1-.59.21.78.78,0,0,1-.61-.21A.81.81,0,0,1,334.36,236.55Zm1.42,2v6.17h-1.26v-6.17Z" fill="#fff"/><path d="M340.45,238.41a3.67,3.67,0,0,1,1.1.17,3.35,3.35,0,0,1,1,.49L342,240a2.61,2.61,0,0,0-1.56-.49,1.64,1.64,0,0,0-1.39.59,2.56,2.56,0,0,0-.46,1.6,2.65,2.65,0,0,0,.46,1.61,1.63,1.63,0,0,0,1.37.6,3,3,0,0,0,1.59-.5l.46.89a3.66,3.66,0,0,1-2.15.67,2.87,2.87,0,0,1-1.76-.49,2.65,2.65,0,0,1-1-1.22,4.27,4.27,0,0,1-.28-1.56,3.7,3.7,0,0,1,.37-1.7,2.62,2.62,0,0,1,1.08-1.13A3.24,3.24,0,0,1,340.45,238.41Z" fill="#fff"/><path d="M349,242.12h-4.44a2,2,0,0,0,.55,1.32,1.82,1.82,0,0,0,1.32.47,3,3,0,0,0,.95-.14,4,4,0,0,0,.87-.44l.55.81a3.89,3.89,0,0,1-1.12.59,4.56,4.56,0,0,1-1.34.19,3.2,3.2,0,0,1-1.65-.41,2.6,2.6,0,0,1-1-1.15,3.84,3.84,0,0,1-.36-1.71,3.48,3.48,0,0,1,.77-2.35,2.73,2.73,0,0,1,2.17-.89,2.55,2.55,0,0,1,2.09.88,3.55,3.55,0,0,1,.72,2.33A4.07,4.07,0,0,1,349,242.12Zm-1.2-1a2.1,2.1,0,0,0-.43-1.29,1.41,1.41,0,0,0-1.16-.5,1.46,1.46,0,0,0-1.19.51,2.17,2.17,0,0,0-.48,1.28Z" fill="#fff"/><path d="M278.2,252.81a3.68,3.68,0,0,1,1.11.17,3.35,3.35,0,0,1,1,.49l-.49.88a2.65,2.65,0,0,0-1.56-.49,1.64,1.64,0,0,0-1.39.59,2.5,2.5,0,0,0-.46,1.6,2.59,2.59,0,0,0,.46,1.61,1.61,1.61,0,0,0,1.36.6,3.05,3.05,0,0,0,1.6-.5l.45.89a3.63,3.63,0,0,1-2.14.67,2.92,2.92,0,0,1-1.77-.49,2.7,2.7,0,0,1-.95-1.22,4.27,4.27,0,0,1-.28-1.56,3.7,3.7,0,0,1,.37-1.7,2.6,2.6,0,0,1,1.07-1.13A3.27,3.27,0,0,1,278.2,252.81Z" fill="#fff"/><path d="M287.31,256a3.65,3.65,0,0,1-.38,1.71,2.69,2.69,0,0,1-1.09,1.15,3.61,3.61,0,0,1-3.38,0,2.81,2.81,0,0,1-1.08-1.16,4,4,0,0,1,0-3.4,2.65,2.65,0,0,1,1.08-1.12,3.73,3.73,0,0,1,3.4,0,2.62,2.62,0,0,1,1.09,1.12A3.67,3.67,0,0,1,287.31,256Zm-5,0a2.74,2.74,0,0,0,.45,1.65,1.6,1.6,0,0,0,1.38.62,1.65,1.65,0,0,0,1.42-.62A2.74,2.74,0,0,0,286,256a2.64,2.64,0,0,0-.46-1.62,1.65,1.65,0,0,0-1.42-.61,1.6,1.6,0,0,0-1.39.61A2.71,2.71,0,0,0,282.31,256Z" fill="#fff"/><path d="M288.85,254.37a11,11,0,0,0-.09-1.39H290a6.06,6.06,0,0,1,.1.71h0a2.33,2.33,0,0,1,.81-.63,2.6,2.6,0,0,1,1.15-.25,2.49,2.49,0,0,1,1.25.29,1.76,1.76,0,0,1,.75.78h0a2.36,2.36,0,0,1,2.1-1.07,2.32,2.32,0,0,1,1.28.33,2,2,0,0,1,.76.88,2.75,2.75,0,0,1,.25,1.18v3.95H297.2v-3.77a1.81,1.81,0,0,0-.31-1.1,1.16,1.16,0,0,0-1-.43,1.37,1.37,0,0,0-1.17.57,2.24,2.24,0,0,0-.43,1.37v3.36H293v-3.84a1.65,1.65,0,0,0-.32-1,1.19,1.19,0,0,0-1-.42,1.44,1.44,0,0,0-1.17.52,2,2,0,0,0-.42,1.3v3.48h-1.26Z" fill="#fff"/><path d="M300.34,254.37a11,11,0,0,0-.08-1.39h1.2a6.06,6.06,0,0,1,.1.71h0a2.33,2.33,0,0,1,.81-.63,2.57,2.57,0,0,1,1.15-.25,2.49,2.49,0,0,1,1.25.29,1.88,1.88,0,0,1,.75.78h0a2.38,2.38,0,0,1,2.1-1.07,2.35,2.35,0,0,1,1.29.33,2,2,0,0,1,.76.88,2.9,2.9,0,0,1,.25,1.18v3.95H308.7v-3.77a1.88,1.88,0,0,0-.31-1.1,1.16,1.16,0,0,0-1-.43,1.37,1.37,0,0,0-1.17.57,2.18,2.18,0,0,0-.43,1.37v3.36h-1.26v-3.84a1.71,1.71,0,0,0-.32-1,1.19,1.19,0,0,0-1-.42,1.41,1.41,0,0,0-1.17.52,2,2,0,0,0-.43,1.3v3.48h-1.26Z" fill="#fff"/><path d="M311.78,256.76V253h1.27v3.6a2.15,2.15,0,0,0,.33,1.27,1.18,1.18,0,0,0,1.05.47,1.51,1.51,0,0,0,1.23-.57,2.26,2.26,0,0,0,.46-1.46V253h1.26v4.78a13.87,13.87,0,0,0,.1,1.39h-1.2a5.2,5.2,0,0,1-.1-.78h0a2.32,2.32,0,0,1-2,.95,2.17,2.17,0,0,1-1.75-.71A2.81,2.81,0,0,1,311.78,256.76Z" fill="#fff"/><path d="M319.34,254.37a13.26,13.26,0,0,0-.08-1.39h1.2a5.9,5.9,0,0,1,.09.72h0a2.07,2.07,0,0,1,.82-.65,3,3,0,0,1,1.24-.24,2.16,2.16,0,0,1,1.73.67,2.42,2.42,0,0,1,.57,1.63v4h-1.26v-3.77a1.75,1.75,0,0,0-.33-1.09,1.27,1.27,0,0,0-1.07-.43,1.55,1.55,0,0,0-1.22.51,1.88,1.88,0,0,0-.46,1.3v3.48h-1.26Z" fill="#fff"/><path d="M326.68,251c0-.5.27-.75.8-.75a.74.74,0,0,1,.59.21.86.86,0,0,1,0,1.08.74.74,0,0,1-.59.21.78.78,0,0,1-.61-.21A.81.81,0,0,1,326.68,251Zm1.42,2v6.17h-1.26V253Z" fill="#fff"/><path d="M332.77,252.81a3.67,3.67,0,0,1,1.1.17,3.35,3.35,0,0,1,1,.49l-.49.88a2.61,2.61,0,0,0-1.56-.49,1.64,1.64,0,0,0-1.39.59,2.56,2.56,0,0,0-.46,1.6,2.65,2.65,0,0,0,.46,1.61,1.63,1.63,0,0,0,1.37.6,3,3,0,0,0,1.59-.5l.46.89a3.66,3.66,0,0,1-2.15.67,2.87,2.87,0,0,1-1.76-.49,2.65,2.65,0,0,1-1-1.22,4.27,4.27,0,0,1-.28-1.56,3.7,3.7,0,0,1,.37-1.7,2.62,2.62,0,0,1,1.08-1.13A3.24,3.24,0,0,1,332.77,252.81Z" fill="#fff"/><path d="M335.67,257.43a1.74,1.74,0,0,1,.87-1.67,5.34,5.34,0,0,1,2.54-.47h.61V255c0-.78-.46-1.17-1.39-1.17a3.53,3.53,0,0,0-1.82.49l-.44-.84a4.34,4.34,0,0,1,1.1-.47,4.66,4.66,0,0,1,1.22-.17,2.7,2.7,0,0,1,2,.62,2.53,2.53,0,0,1,.62,1.89v2.44a11.41,11.41,0,0,0,.1,1.39h-1.17a5.26,5.26,0,0,1-.08-.73h0a2.36,2.36,0,0,1-.84.68,3.17,3.17,0,0,1-1.26.22,2.08,2.08,0,0,1-1.44-.49A1.79,1.79,0,0,1,335.67,257.43Zm4-.62v-.64h-.49a4,4,0,0,0-1.72.27,1,1,0,0,0-.51.93.92.92,0,0,0,.27.71,1.09,1.09,0,0,0,.76.25,1.77,1.77,0,0,0,.9-.22,1.62,1.62,0,0,0,.59-.57A1.45,1.45,0,0,0,339.69,256.81Z" fill="#fff"/><path d="M344.31,253h1.59v1h-1.59v3.42c0,.63.29.94.85.94a1.85,1.85,0,0,0,.58-.09l.18.94a2.91,2.91,0,0,1-1,.17,1.88,1.88,0,0,1-1.36-.48,1.8,1.8,0,0,1-.51-1.37v-3.53H342v-.81l1-.15v-1.45l1.27-.46Z" fill="#fff"/><path d="M347.1,251c0-.5.26-.75.79-.75a.74.74,0,0,1,.59.21.86.86,0,0,1,0,1.08.74.74,0,0,1-.59.21.79.79,0,0,1-.61-.21A.8.8,0,0,1,347.1,251Zm1.41,2v6.17h-1.26V253Z" fill="#fff"/><path d="M356.38,256a3.77,3.77,0,0,1-.37,1.71,2.77,2.77,0,0,1-1.1,1.15,3.26,3.26,0,0,1-1.69.42,3.22,3.22,0,0,1-1.68-.42,2.77,2.77,0,0,1-1.09-1.16,3.7,3.7,0,0,1-.38-1.7,3.8,3.8,0,0,1,.37-1.7,2.65,2.65,0,0,1,1.08-1.12,3.4,3.4,0,0,1,1.7-.41,3.43,3.43,0,0,1,1.71.41,2.65,2.65,0,0,1,1.08,1.12A3.67,3.67,0,0,1,356.38,256Zm-5,0a2.74,2.74,0,0,0,.45,1.65,1.61,1.61,0,0,0,1.39.62,1.63,1.63,0,0,0,1.41-.62,2.67,2.67,0,0,0,.46-1.65,2.58,2.58,0,0,0-.46-1.62,1.63,1.63,0,0,0-1.41-.61,1.61,1.61,0,0,0-1.4.61A2.71,2.71,0,0,0,351.38,256Z" fill="#fff"/><path d="M357.92,254.37a13.26,13.26,0,0,0-.08-1.39H359a5.9,5.9,0,0,1,.09.72h0a2.07,2.07,0,0,1,.82-.65,3,3,0,0,1,1.24-.24,2.16,2.16,0,0,1,1.73.67,2.42,2.42,0,0,1,.57,1.63v4h-1.26v-3.77a1.75,1.75,0,0,0-.33-1.09,1.27,1.27,0,0,0-1.07-.43,1.55,1.55,0,0,0-1.22.51,1.88,1.88,0,0,0-.46,1.3v3.48h-1.26Z" fill="#fff"/><g id="Marketing-2" data-name="Marketing"><g id="connect-48"><g id="Shape-2" data-name="Shape"><path d="M634.12,259.13v-3.44l3-1.71v3.44Zm-10.18-9.3,13.15-7.59v8.08l-3.5-2a1.06,1.06,0,0,0-1.06,0l-5.09,2.94a1,1,0,0,0-.44.58,1.24,1.24,0,0,0-.09.33V258a1.08,1.08,0,0,0,.53.92l3.5,2-7,4ZM608.68,254l3,1.71v3.43l-3-1.71Zm14.21-21.17,3,1.71-3,1.71-3-1.71Zm1.05,5.26,1.83-1.06,1.14-.66v3.43l-3,1.72Zm-5.08-1.72L620,237l1.83,1.06v3.43l-3-1.72Zm4,11.63-3.74-2.15-9.41-5.44,7-4v4a1.06,1.06,0,0,0,.53.92l5.09,2.94a1.05,1.05,0,0,0,1,0l5.09-2.94a1.06,1.06,0,0,0,.53-.92v-4l7,4Zm6.14,6,.85.49,2.12,1.22v3.44l-3-1.71Zm4-.13-3-1.7,3-1.71,3,1.71Zm-20.35,0-3-1.72,3-1.71,3,1.71Zm1.06,1.83,3-1.71v3.43l-3,1.71Zm8.06,9.31-7-4,3.5-2a1.08,1.08,0,0,0,.53-.92v-5.87h0a1.17,1.17,0,0,0-.13-.46.5.5,0,0,0-.08-.12,1.07,1.07,0,0,0-.26-.26s0-.05-.06-.06l-5.09-2.94a1.06,1.06,0,0,0-1.06,0l-3.5,2v-8.08l10.93,6.31,2.22,1.28Zm16.85-25.52-10.18-5.88h0l-5.09-2.93a1,1,0,0,0-1,0l-5.09,2.93h0l-10.18,5.88a1.05,1.05,0,0,0-.53.91h0v11.74h0V258a1.06,1.06,0,0,0,.53.92l5.09,2.94h0l10.16,5.87a1.08,1.08,0,0,0,.53.14,1.13,1.13,0,0,0,.53-.14l10.17-5.87h0l5.09-2.93a1.06,1.06,0,0,0,.53-.92V240.4a1.05,1.05,0,0,0-.53-.91Zm3.14,18.06a4.45,4.45,0,0,1-2.23,3.86l-14.47,8.36a4.46,4.46,0,0,1-4.47,0l-14.47-8.36a4.45,4.45,0,0,1-2.23-3.86V240.83a4.45,4.45,0,0,1,2.23-3.86l14.47-8.36a4.53,4.53,0,0,1,4.47,0L639.59,237a4.45,4.45,0,0,1,2.23,3.86Zm-.82-23-14.47-8.35a7.3,7.3,0,0,0-7.29,0l-14.48,8.35a7.33,7.33,0,0,0-3.64,6.31v16.72a7.32,7.32,0,0,0,3.64,6.31l14.48,8.36a7.33,7.33,0,0,0,7.29,0L641,263.86a7.3,7.3,0,0,0,3.65-6.31V240.83a7.32,7.32,0,0,0-3.65-6.31Z" fill="#fff" fill-rule="evenodd"/></g></g></g><g id="Marketing-3" data-name="Marketing"><g id="app-48"><g id="Combined-Shape"><path d="M432.1,87.47a.79.79,0,0,1-.39.68l-4.62,2.67a.78.78,0,0,1-.78,0l-4.62-2.67a.79.79,0,0,1-.39-.68V82.13a.79.79,0,0,1,.39-.67l4.62-2.67a.77.77,0,0,1,.39-.11.79.79,0,0,1,.39.11l4.62,2.67a.79.79,0,0,1,.39.67Zm1-8.46-4.62-2.67a3.61,3.61,0,0,0-3.6,0L420.28,79a3.6,3.6,0,0,0-1.81,3.12v5.34a3.6,3.6,0,0,0,1.81,3.12l4.62,2.67a3.62,3.62,0,0,0,3.6,0l4.62-2.67a3.6,3.6,0,0,0,1.81-3.12V82.13A3.6,3.6,0,0,0,433.12,79ZM445.73,92.8a5.21,5.21,0,0,1-2.58,4.49l-13.86,8a5.21,5.21,0,0,1-5.18,0l-13.86-8a5.22,5.22,0,0,1-2.59-4.49v-16a5.2,5.2,0,0,1,2.59-4.48l13.86-8a5.16,5.16,0,0,1,5.18,0l13.86,8a5.19,5.19,0,0,1,2.58,4.48Zm-1.17-22.93-13.86-8a8,8,0,0,0-8,0l-13.86,8a8,8,0,0,0-4,6.93v16a8,8,0,0,0,4,6.93l13.86,8a8,8,0,0,0,8,0l13.86-8a8,8,0,0,0,4-6.93v-16a8,8,0,0,0-4-6.93Z" fill="#fff" fill-rule="evenodd"/></g></g></g><g id="Marketing-4" data-name="Marketing"><g id="app-48-2" data-name="app-48"><g id="Combined-Shape-2" data-name="Combined-Shape"><path d="M432.1,407.73a.79.79,0,0,1-.39.68l-4.62,2.67a.78.78,0,0,1-.78,0l-4.62-2.67a.79.79,0,0,1-.39-.68V402.4a.79.79,0,0,1,.39-.68l4.62-2.67a.76.76,0,0,1,.39-.1.78.78,0,0,1,.39.1l4.62,2.67a.79.79,0,0,1,.39.68Zm1-8.45-4.62-2.67a3.59,3.59,0,0,0-3.6,0l-4.62,2.67a3.59,3.59,0,0,0-1.81,3.12v5.33a3.61,3.61,0,0,0,1.81,3.13l4.62,2.67a3.62,3.62,0,0,0,3.6,0l4.62-2.67a3.61,3.61,0,0,0,1.81-3.13V402.4a3.59,3.59,0,0,0-1.81-3.12Zm12.61,13.79a5.19,5.19,0,0,1-2.58,4.48l-13.86,8a5.16,5.16,0,0,1-5.18,0l-13.86-8a5.2,5.2,0,0,1-2.59-4.48v-16a5.21,5.21,0,0,1,2.59-4.49l13.86-8a5.21,5.21,0,0,1,5.18,0l13.86,8a5.2,5.2,0,0,1,2.58,4.49Zm-1.17-22.93-13.86-8a8,8,0,0,0-8,0l-13.86,8a8,8,0,0,0-4,6.93v16a8,8,0,0,0,4,6.93l13.86,8a8,8,0,0,0,8,0l13.86-8a8,8,0,0,0,4-6.93v-16a8,8,0,0,0-4-6.93Z" fill="#fff" fill-rule="evenodd"/></g></g></g><g id="Marketing-5" data-name="Marketing"><g id="postgres-48"><g id="Shape-3" data-name="Shape"><path d="M625,76.17V67.52c4.52.09,7.18.88,7.18,2.15,0,2.1-3,6-7.18,6.5m-.92-10.51a.93.93,0,0,0-.92.93V83.44a.91.91,0,0,1-1.55.64.93.93,0,0,0-1.31,1.31,2.74,2.74,0,0,0,1.93.81A2.79,2.79,0,0,0,625,83.44V78c5.21-.51,9-5.24,9-8.36,0-3.59-5.68-4-9.95-4m-2.31.93a.93.93,0,0,0-.92-.93c-4.27,0-10,.42-10,4,0,3.31,4.27,8.41,10,8.41a.93.93,0,0,0,.92-.93Zm14.53,21.22a1.85,1.85,0,0,1-1.85,1.85h-24a1.85,1.85,0,0,1-1.85-1.85v-24A1.84,1.84,0,0,1,610.51,62h24a1.84,1.84,0,0,1,1.85,1.84ZM610.51,60.14a3.69,3.69,0,0,0-3.69,3.69v24a3.69,3.69,0,0,0,3.69,3.69h24a3.69,3.69,0,0,0,3.69-3.69v-24a3.69,3.69,0,0,0-3.69-3.69Z" fill="#fff" fill-rule="evenodd"/></g></g></g><path d="M622.88,44.31c-12.62,0-24.49-.47-33.42-1.34-14.71-1.43-14.71-3.19-14.71-4.24s0-2.8,14.71-4.23c8.93-.87,20.8-1.35,33.42-1.35s24.5.48,33.43,1.35C671,35.93,671,37.68,671,38.73s0,2.81-14.71,4.24C647.38,43.84,635.51,44.31,622.88,44.31ZM577,38.73c2.86,1.58,19.34,3.58,45.85,3.58s43-2,45.86-3.58c-2.86-1.58-19.34-3.58-45.86-3.58S579.89,37.15,577,38.73Zm92.06.27h0Z" fill="#fff"/><path d="M622.88,136.45c-12.62,0-24.49-.48-33.42-1.34-14.71-1.43-14.71-3.19-14.71-4.24V38.73a1,1,0,0,1,2,0v92c1.83,1.61,18.55,3.77,46.13,3.77s44.31-2.16,46.14-3.77v-92a1,1,0,0,1,2,0v92.14c0,1,0,2.81-14.71,4.24C647.38,136,635.51,136.45,622.88,136.45Z" fill="#fff"/><path d="M612.24,97.71v8.5h-1.33v-3.84h-4.26v3.84h-1.31v-8.5h1.31v3.6h4.26v-3.6Z" fill="#fff"/><path d="M619.53,103.58h-4.44a2.05,2.05,0,0,0,.55,1.32,1.82,1.82,0,0,0,1.32.47,3,3,0,0,0,.95-.14,4,4,0,0,0,.87-.44l.56.81a4.07,4.07,0,0,1-1.13.59,4.54,4.54,0,0,1-1.33.19,3.2,3.2,0,0,1-1.65-.41,2.6,2.6,0,0,1-1.05-1.15,3.84,3.84,0,0,1-.36-1.71,3.48,3.48,0,0,1,.76-2.35,2.75,2.75,0,0,1,2.18-.89,2.55,2.55,0,0,1,2.08.88,3.55,3.55,0,0,1,.72,2.33A4.07,4.07,0,0,1,619.53,103.58Zm-1.2-1a2.1,2.1,0,0,0-.43-1.29,1.41,1.41,0,0,0-1.16-.5,1.46,1.46,0,0,0-1.19.51,2.16,2.16,0,0,0-.47,1.28Z" fill="#fff"/><path d="M621.09,101.43A11,11,0,0,0,621,100h1.2a6.57,6.57,0,0,1,.1.85h0a1.93,1.93,0,0,1,.72-.75,2.25,2.25,0,0,1,1.17-.27l.36,0-.06,1.09a2.58,2.58,0,0,0-.42,0,1.59,1.59,0,0,0-1.29.55,2.17,2.17,0,0,0-.45,1.41v3.28h-1.26Z" fill="#fff"/><path d="M631.35,103.1a3.77,3.77,0,0,1-.38,1.71,2.75,2.75,0,0,1-1.09,1.15,3.3,3.3,0,0,1-1.7.42,3.22,3.22,0,0,1-1.68-.42,2.9,2.9,0,0,1-1.09-1.16,4.09,4.09,0,0,1,0-3.4,2.65,2.65,0,0,1,1.08-1.12,3.33,3.33,0,0,1,1.69-.41,3.43,3.43,0,0,1,1.71.41A2.62,2.62,0,0,1,631,101.4,3.8,3.8,0,0,1,631.35,103.1Zm-5,0a2.74,2.74,0,0,0,.45,1.65,1.62,1.62,0,0,0,1.39.62,1.66,1.66,0,0,0,1.42-.62,2.74,2.74,0,0,0,.45-1.65,2.64,2.64,0,0,0-.45-1.62,1.66,1.66,0,0,0-1.42-.61,1.59,1.59,0,0,0-1.39.61A2.64,2.64,0,0,0,626.34,103.1Z" fill="#fff"/><path d="M637,106.21l-2.26-2.82-.56.53v2.29H632.9v-8.5h1.26v4.79L636.8,100h1.51l-2.71,2.53,2.92,3.64Z" fill="#fff"/><path d="M639.15,103.82V100h1.27v3.6a2.15,2.15,0,0,0,.33,1.27,1.18,1.18,0,0,0,1,.47,1.51,1.51,0,0,0,1.23-.57,2.26,2.26,0,0,0,.46-1.46V100h1.26v4.78a11.41,11.41,0,0,0,.1,1.39h-1.2a5.2,5.2,0,0,1-.1-.78h0a2.32,2.32,0,0,1-2,.95,2.17,2.17,0,0,1-1.75-.71A2.81,2.81,0,0,1,639.15,103.82Z" fill="#fff"/><path d="M608.22,114.91a2.85,2.85,0,0,1-.43,1.58,2.64,2.64,0,0,1-1.14,1,3.74,3.74,0,0,1-1.53.31h-1.68v2.86h-1.31v-8.5h3a3.46,3.46,0,0,1,2.24.69A2.54,2.54,0,0,1,608.22,114.91Zm-4.78-1.74v3.52H605a2,2,0,0,0,1.33-.45,1.92,1.92,0,0,0,0-2.66,2.19,2.19,0,0,0-1.35-.41Z" fill="#fff"/><path d="M615.07,117.5a3.77,3.77,0,0,1-.38,1.71,2.69,2.69,0,0,1-1.09,1.15,3.3,3.3,0,0,1-1.7.42,3.22,3.22,0,0,1-1.68-.42,2.81,2.81,0,0,1-1.08-1.16,4,4,0,0,1,0-3.4,2.65,2.65,0,0,1,1.08-1.12,3.73,3.73,0,0,1,3.4,0,2.62,2.62,0,0,1,1.09,1.12A3.67,3.67,0,0,1,615.07,117.5Zm-5,0a2.74,2.74,0,0,0,.45,1.65,1.6,1.6,0,0,0,1.38.62,1.66,1.66,0,0,0,1.42-.62,2.74,2.74,0,0,0,.45-1.65,2.64,2.64,0,0,0-.45-1.62,1.66,1.66,0,0,0-1.42-.61,1.6,1.6,0,0,0-1.39.61A2.64,2.64,0,0,0,610.07,117.5Z" fill="#fff"/><path d="M620.52,114.93l-.54.78a2.77,2.77,0,0,0-1.5-.46,1.49,1.49,0,0,0-.82.19.61.61,0,0,0-.3.54.69.69,0,0,0,.13.45.87.87,0,0,0,.42.29,7,7,0,0,0,.88.27,2.87,2.87,0,0,1,1.38.67,1.55,1.55,0,0,1,.46,1.16,1.75,1.75,0,0,1-.34,1.07,2,2,0,0,1-.9.67,3.77,3.77,0,0,1-3.47-.49l.58-.79a3.28,3.28,0,0,0,.77.39,2.82,2.82,0,0,0,.85.12,1.51,1.51,0,0,0,.88-.22.8.8,0,0,0,.32-.68.75.75,0,0,0-.12-.45,1,1,0,0,0-.41-.28,5.48,5.48,0,0,0-.88-.26,3.07,3.07,0,0,1-1.37-.66,1.58,1.58,0,0,1-.44-1.19,1.55,1.55,0,0,1,.64-1.29,2.79,2.79,0,0,1,1.7-.49A3.3,3.3,0,0,1,620.52,114.93Z" fill="#fff"/><path d="M623.54,114.44h1.59v1h-1.59v3.42c0,.63.29.94.85.94a1.85,1.85,0,0,0,.58-.09l.18.94a2.91,2.91,0,0,1-1,.17,1.88,1.88,0,0,1-1.36-.48,1.8,1.8,0,0,1-.51-1.37V115.4h-1v-.81l1-.15V113l1.27-.46Z" fill="#fff"/><path d="M625.73,121.81a1.6,1.6,0,0,1,.27-.91,2.63,2.63,0,0,1,.89-.75,1.16,1.16,0,0,1-.4-.35.82.82,0,0,1-.14-.47.92.92,0,0,1,.23-.6,1.26,1.26,0,0,1,.63-.39,1.88,1.88,0,0,1-1.11-1.85,2,2,0,0,1,.69-1.62,2.89,2.89,0,0,1,1.94-.6,3.13,3.13,0,0,1,.58,0,4.34,4.34,0,0,1,.53.12H632v1l-1.3-.18a1.35,1.35,0,0,1,.4.55,2,2,0,0,1,.15.82,1.83,1.83,0,0,1-.67,1.51,3,3,0,0,1-1.91.55,2.35,2.35,0,0,0-.9.14c-.21.09-.32.22-.32.38s.09.26.28.34a2.54,2.54,0,0,0,.9.14,5.52,5.52,0,0,1,2.44.48,1.4,1.4,0,0,1,.77,1.3,1.86,1.86,0,0,1-.87,1.64,4.43,4.43,0,0,1-2.46.58,3.73,3.73,0,0,1-2.12-.49A1.59,1.59,0,0,1,625.73,121.81Zm4.92-.22c0-.32-.22-.56-.64-.72a7.77,7.77,0,0,0-2.23-.24,1.75,1.75,0,0,0-.63.49,1,1,0,0,0-.2.62c0,.67.54,1,1.63,1a3.13,3.13,0,0,0,1.54-.3A.93.93,0,0,0,630.65,121.59Zm-.52-5.07a1.34,1.34,0,0,0-.35-1,1.52,1.52,0,0,0-1.09-.35,1.47,1.47,0,0,0-1,.35,1.17,1.17,0,0,0-.39.92,1.31,1.31,0,0,0,.35,1,1.48,1.48,0,0,0,1.08.35C629.65,117.79,630.13,117.37,630.13,116.52Z" fill="#fff"/><path d="M633.29,115.83a11,11,0,0,0-.09-1.39h1.2a6.57,6.57,0,0,1,.1.85h0a1.93,1.93,0,0,1,.72-.75,2.25,2.25,0,0,1,1.17-.27l.36,0-.06,1.09a2.58,2.58,0,0,0-.42,0,1.57,1.57,0,0,0-1.29.55,2.17,2.17,0,0,0-.45,1.41v3.28h-1.26Z" fill="#fff"/><path d="M643,118h-4.44a2,2,0,0,0,.55,1.32,1.82,1.82,0,0,0,1.32.47,3,3,0,0,0,1-.14,4,4,0,0,0,.87-.44l.55.81a3.89,3.89,0,0,1-1.12.59,4.56,4.56,0,0,1-1.34.19,3.2,3.2,0,0,1-1.65-.41,2.6,2.6,0,0,1-1-1.15,3.84,3.84,0,0,1-.36-1.71,3.48,3.48,0,0,1,.77-2.35,2.73,2.73,0,0,1,2.17-.89,2.55,2.55,0,0,1,2.09.88,3.55,3.55,0,0,1,.72,2.33A4.07,4.07,0,0,1,643,118Zm-1.2-1a2.1,2.1,0,0,0-.43-1.29,1.41,1.41,0,0,0-1.16-.5,1.46,1.46,0,0,0-1.19.51,2.17,2.17,0,0,0-.48,1.28Z" fill="#fff"/><path d="M648.42,114.93l-.54.78a2.77,2.77,0,0,0-1.5-.46,1.49,1.49,0,0,0-.82.19.61.61,0,0,0-.3.54.69.69,0,0,0,.13.45.87.87,0,0,0,.42.29,7,7,0,0,0,.88.27,2.87,2.87,0,0,1,1.38.67,1.55,1.55,0,0,1,.46,1.16,1.75,1.75,0,0,1-.34,1.07,2,2,0,0,1-.9.67,3.77,3.77,0,0,1-3.47-.49l.58-.79a3.28,3.28,0,0,0,.77.39,2.82,2.82,0,0,0,.85.12,1.51,1.51,0,0,0,.88-.22.8.8,0,0,0,.32-.68.75.75,0,0,0-.12-.45,1,1,0,0,0-.41-.28,5.48,5.48,0,0,0-.88-.26,3.07,3.07,0,0,1-1.37-.66,1.58,1.58,0,0,1-.44-1.19,1.55,1.55,0,0,1,.64-1.29,2.79,2.79,0,0,1,1.7-.49A3.3,3.3,0,0,1,648.42,114.93Z" fill="#fff"/><path d="M426.7,207.51c-12.62,0-24.49-.48-33.43-1.35-14.7-1.43-14.7-3.19-14.7-4.23s0-2.81,14.7-4.24c8.94-.87,20.81-1.35,33.43-1.35s24.49.48,33.42,1.35c14.71,1.43,14.71,3.19,14.71,4.24s0,2.8-14.71,4.23C451.19,207,439.32,207.51,426.7,207.51Zm-45.86-5.58c2.86,1.58,19.34,3.58,45.86,3.58s43-2,45.85-3.58c-2.85-1.59-19.34-3.59-45.85-3.59S383.7,200.34,380.84,201.93Zm92.07.26h0Z" fill="#fff"/><path d="M426.7,299.64c-12.62,0-24.49-.47-33.43-1.34-14.7-1.43-14.7-3.19-14.7-4.24V201.93a1,1,0,0,1,2,0v91.95c1.82,1.6,18.55,3.76,46.13,3.76s44.31-2.16,46.13-3.76V201.93a1,1,0,0,1,2,0v92.13c0,1.05,0,2.81-14.71,4.24C451.19,299.17,439.32,299.64,426.7,299.64Z" fill="#fff"/><path d="M396.72,269.4l-.69-1.94h-3.75l-.73,1.94h-1.38l3.31-8.49h1.36l3.31,8.49Zm-2.57-7.22-1.51,4.26h3Z" fill="#fff"/><path d="M405.15,266.31a4,4,0,0,1-.34,1.65,2.63,2.63,0,0,1-2.51,1.61,2.94,2.94,0,0,1-1.91-.66v3.42h-1.26v-7.7a11.16,11.16,0,0,0-.08-1.4h1.2c.05.32.08.58.1.78h0a2.38,2.38,0,0,1,2.08-.94,2.48,2.48,0,0,1,1.49.43,2.63,2.63,0,0,1,.91,1.16A4.33,4.33,0,0,1,405.15,266.31Zm-1.31,0a2.72,2.72,0,0,0-.44-1.65,1.42,1.42,0,0,0-1.22-.6,1.77,1.77,0,0,0-1.56.91,1.94,1.94,0,0,0-.23.93v2a3.17,3.17,0,0,0,.78.5,2.24,2.24,0,0,0,.84.15,1.61,1.61,0,0,0,1.37-.61A2.73,2.73,0,0,0,403.84,266.31Z" fill="#fff"/><path d="M406.2,267.69a1.75,1.75,0,0,1,.87-1.68,5.46,5.46,0,0,1,2.54-.47h.61v-.32c0-.79-.46-1.18-1.39-1.18a3.53,3.53,0,0,0-1.82.49l-.44-.84a4.74,4.74,0,0,1,1.1-.47,4.65,4.65,0,0,1,1.22-.16,2.7,2.7,0,0,1,2,.61,2.56,2.56,0,0,1,.62,1.89V268a11.41,11.41,0,0,0,.1,1.39h-1.17a5.26,5.26,0,0,1-.08-.73h0a2.36,2.36,0,0,1-.84.68,3,3,0,0,1-1.26.22,2.08,2.08,0,0,1-1.44-.49A1.78,1.78,0,0,1,406.2,267.69Zm4-.63v-.63l-.49,0a4,4,0,0,0-1.72.27,1,1,0,0,0-.51.93.92.92,0,0,0,.27.71,1.09,1.09,0,0,0,.76.25,1.77,1.77,0,0,0,.9-.22,1.62,1.62,0,0,0,.59-.57A1.45,1.45,0,0,0,410.22,267.06Z" fill="#fff"/><path d="M416.08,263.07a3.66,3.66,0,0,1,1.1.16,3.38,3.38,0,0,1,1,.5l-.49.87a2.61,2.61,0,0,0-1.56-.49,1.67,1.67,0,0,0-1.39.59,2.59,2.59,0,0,0-.46,1.61,2.64,2.64,0,0,0,.46,1.6,1.63,1.63,0,0,0,1.37.6,2.94,2.94,0,0,0,1.59-.5l.46.89a3.59,3.59,0,0,1-2.15.67,2.87,2.87,0,0,1-1.76-.49,2.65,2.65,0,0,1-1-1.22,4.26,4.26,0,0,1-.28-1.55,3.71,3.71,0,0,1,.37-1.71,2.68,2.68,0,0,1,1.08-1.13A3.24,3.24,0,0,1,416.08,263.07Z" fill="#fff"/><path d="M419.47,260.91h1.26v3h0a2.38,2.38,0,0,1,2-.87,2.13,2.13,0,0,1,1.72.66,2.44,2.44,0,0,1,.57,1.63v4h-1.26v-3.77a1.69,1.69,0,0,0-.34-1.09,1.26,1.26,0,0,0-1.07-.43,1.52,1.52,0,0,0-1.22.52,1.88,1.88,0,0,0-.46,1.29v3.48h-1.26Z" fill="#fff"/><path d="M432.27,266.77h-4.44a2,2,0,0,0,.55,1.32,1.82,1.82,0,0,0,1.32.47,3,3,0,0,0,.95-.14,4.38,4.38,0,0,0,.87-.43l.55.8a3.89,3.89,0,0,1-1.12.59,4.25,4.25,0,0,1-1.34.19,3.2,3.2,0,0,1-1.65-.41,2.63,2.63,0,0,1-1-1.14,3.9,3.9,0,0,1-.36-1.71,3.51,3.51,0,0,1,.77-2.36,2.72,2.72,0,0,1,2.17-.88,2.55,2.55,0,0,1,2.09.87,3.57,3.57,0,0,1,.72,2.33A4,4,0,0,1,432.27,266.77Zm-1.2-1a2.1,2.1,0,0,0-.43-1.29,1.41,1.41,0,0,0-1.16-.5,1.46,1.46,0,0,0-1.19.51,2.17,2.17,0,0,0-.48,1.28Z" fill="#fff"/><path d="M442.14,269.4l-3.27-3.72-.53.55v3.17H437v-8.49h1.31v3.73l3.55-3.73h1.54l-3.72,3.9,4,4.59Z" fill="#fff"/><path d="M444.06,267.69a1.75,1.75,0,0,1,.87-1.68,5.46,5.46,0,0,1,2.54-.47h.61v-.32c0-.79-.46-1.18-1.39-1.18a3.53,3.53,0,0,0-1.82.49l-.44-.84a4.74,4.74,0,0,1,1.1-.47,4.65,4.65,0,0,1,1.22-.16,2.7,2.7,0,0,1,2,.61,2.56,2.56,0,0,1,.62,1.89V268a11.41,11.41,0,0,0,.1,1.39h-1.17a5.26,5.26,0,0,1-.08-.73h0a2.36,2.36,0,0,1-.84.68,3,3,0,0,1-1.26.22,2.08,2.08,0,0,1-1.44-.49A1.78,1.78,0,0,1,444.06,267.69Zm4-.63v-.63l-.49,0a4,4,0,0,0-1.72.27,1,1,0,0,0-.51.93.92.92,0,0,0,.27.71,1.09,1.09,0,0,0,.76.25,1.77,1.77,0,0,0,.9-.22,1.62,1.62,0,0,0,.59-.57A1.45,1.45,0,0,0,448.08,267.06Z" fill="#fff"/><path d="M454.77,260.92l-.29.9a2.63,2.63,0,0,0-.76-.09c-.69,0-1,.41-1,1.14v.36h1.51v1h-1.51v5.21h-1.26v-5.21h-1v-.81l1-.15v-.4a2.07,2.07,0,0,1,.54-1.53,2.24,2.24,0,0,1,1.64-.56A3.75,3.75,0,0,1,454.77,260.92Z" fill="#fff"/><path d="M459.39,269.4l-2.26-2.82-.56.53v2.29h-1.26v-8.49h1.26v4.78l2.64-2.46h1.51L458,265.77l2.92,3.63Z" fill="#fff"/><path d="M461.33,267.69a1.77,1.77,0,0,1,.86-1.68,5.54,5.54,0,0,1,2.55-.47h.61v-.32c0-.79-.46-1.18-1.39-1.18a3.59,3.59,0,0,0-1.83.49l-.43-.84a4.74,4.74,0,0,1,1.1-.47,4.59,4.59,0,0,1,1.22-.16,2.7,2.7,0,0,1,2,.61,2.61,2.61,0,0,1,.62,1.89V268a11.41,11.41,0,0,0,.1,1.39h-1.17a5.26,5.26,0,0,1-.08-.73h0a2.36,2.36,0,0,1-.84.68,3,3,0,0,1-1.26.22,2.08,2.08,0,0,1-1.44-.49A1.74,1.74,0,0,1,461.33,267.69Zm4-.63v-.63l-.49,0a4,4,0,0,0-1.72.27,1,1,0,0,0-.51.93.92.92,0,0,0,.27.71,1.09,1.09,0,0,0,.76.25,1.77,1.77,0,0,0,.9-.22,1.7,1.7,0,0,0,.59-.57A1.45,1.45,0,0,0,465.35,267.06Z" fill="#fff"/><path d="M406,280.69a3.77,3.77,0,0,1-.37,1.71,2.86,2.86,0,0,1-1.1,1.16,3.36,3.36,0,0,1-1.69.41,3.22,3.22,0,0,1-1.68-.42,2.77,2.77,0,0,1-1.09-1.16,3.7,3.7,0,0,1-.38-1.7A3.76,3.76,0,0,1,400,279a2.68,2.68,0,0,1,1.08-1.13,3.39,3.39,0,0,1,1.7-.4,3.43,3.43,0,0,1,1.71.4A2.68,2.68,0,0,1,405.6,279,3.63,3.63,0,0,1,406,280.69Zm-5,0a2.74,2.74,0,0,0,.45,1.65,1.58,1.58,0,0,0,1.39.62,1.61,1.61,0,0,0,1.41-.62,2.67,2.67,0,0,0,.46-1.65,2.58,2.58,0,0,0-.46-1.62,1.63,1.63,0,0,0-1.41-.61,1.61,1.61,0,0,0-1.4.61A2.71,2.71,0,0,0,401,280.69Z" fill="#fff"/><path d="M407.51,279a13.45,13.45,0,0,0-.08-1.4h1.2a5.9,5.9,0,0,1,.09.72h0a2,2,0,0,1,.82-.64,3,3,0,0,1,1.24-.24,2.15,2.15,0,0,1,1.73.66,2.44,2.44,0,0,1,.57,1.63v4h-1.26V280a1.75,1.75,0,0,0-.33-1.09,1.27,1.27,0,0,0-1.07-.43,1.52,1.52,0,0,0-1.22.52,1.84,1.84,0,0,0-.46,1.29v3.48h-1.26Z" fill="#fff"/><path d="M425.1,275.31v8.49h-1.33V280h-4.26v3.84H418.2v-8.49h1.31v3.6h4.26v-3.6Z" fill="#fff"/><path d="M432.39,281.17H428a2,2,0,0,0,.55,1.32,1.82,1.82,0,0,0,1.32.47,3,3,0,0,0,.95-.14,4.38,4.38,0,0,0,.87-.43l.55.8a3.89,3.89,0,0,1-1.12.59,4.25,4.25,0,0,1-1.34.19,3.2,3.2,0,0,1-1.65-.41,2.63,2.63,0,0,1-1.05-1.14,3.9,3.9,0,0,1-.36-1.71,3.51,3.51,0,0,1,.77-2.36,2.72,2.72,0,0,1,2.17-.88,2.55,2.55,0,0,1,2.09.87,3.57,3.57,0,0,1,.72,2.33A4,4,0,0,1,432.39,281.17Zm-1.2-1a2.1,2.1,0,0,0-.43-1.29,1.41,1.41,0,0,0-1.16-.5,1.46,1.46,0,0,0-1.19.51,2.17,2.17,0,0,0-.48,1.28Z" fill="#fff"/><path d="M433.94,279a11.16,11.16,0,0,0-.08-1.4h1.2a6.51,6.51,0,0,1,.1.86h0a1.93,1.93,0,0,1,.71-.76,2.28,2.28,0,0,1,1.17-.26l.37,0-.07,1.09a2.5,2.5,0,0,0-.42,0,1.57,1.57,0,0,0-1.28.55,2.18,2.18,0,0,0-.45,1.42v3.27h-1.27Z" fill="#fff"/><path d="M444.21,280.69a3.77,3.77,0,0,1-.38,1.71,2.83,2.83,0,0,1-1.09,1.16,3.42,3.42,0,0,1-1.7.41,3.22,3.22,0,0,1-1.68-.42,2.83,2.83,0,0,1-1.09-1.16,3.7,3.7,0,0,1-.38-1.7,3.76,3.76,0,0,1,.37-1.69,2.68,2.68,0,0,1,1.08-1.13,3.39,3.39,0,0,1,1.7-.4,3.43,3.43,0,0,1,1.71.4,2.62,2.62,0,0,1,1.08,1.13A3.63,3.63,0,0,1,444.21,280.69Zm-5,0a2.74,2.74,0,0,0,.45,1.65A1.58,1.58,0,0,0,441,283a1.61,1.61,0,0,0,1.41-.62,2.67,2.67,0,0,0,.46-1.65,2.58,2.58,0,0,0-.46-1.62,1.63,1.63,0,0,0-1.41-.61,1.59,1.59,0,0,0-1.39.61A2.64,2.64,0,0,0,439.2,280.69Z" fill="#fff"/><path d="M449.83,283.8,447.58,281l-.57.53v2.29h-1.26v-8.49H447v4.78l2.64-2.46h1.52l-2.72,2.54,2.93,3.63Z" fill="#fff"/><path d="M452,281.41v-3.78h1.27v3.6a2.21,2.21,0,0,0,.33,1.28,1.2,1.2,0,0,0,1.05.46,1.51,1.51,0,0,0,1.23-.57,2.31,2.31,0,0,0,.46-1.45v-3.32h1.26v4.78a11.41,11.41,0,0,0,.1,1.39h-1.2a5.2,5.2,0,0,1-.1-.78h0a2.35,2.35,0,0,1-2.05,1,2.16,2.16,0,0,1-1.74-.71A2.76,2.76,0,0,1,452,281.41Z" fill="#fff"/></g><g id="Layer_5" data-name="Layer 5"><g opacity="0.5"><g opacity="0.1"><rect x="537.44" y="16.91" width="170.79" height="441.21" fill="#29abe2"/></g><g opacity="0.25"><path d="M708.23,16.91V458.12H537.44V16.91H708.23m0-2H537.44a2,2,0,0,0-2,2V458.12a2,2,0,0,0,2,2H708.23a2,2,0,0,0,2-2V16.91a2,2,0,0,0-2-2Z" fill="#29abe2"/></g></g><path d="M683.2,444.58l-2.76,3.84h2.83v.84h-4v-.86l2.74-3.81h-2.64v-.81h3.88Z" fill="#0d9cce"/><path d="M683.92,446.52a3.29,3.29,0,0,1,.33-1.51,2.34,2.34,0,0,1,1-1,3.35,3.35,0,0,1,3,0,2.34,2.34,0,0,1,1,1,3.52,3.52,0,0,1,0,3,2.37,2.37,0,0,1-1,1,3.35,3.35,0,0,1-3,0,2.37,2.37,0,0,1-1-1A3.29,3.29,0,0,1,683.92,446.52Zm4.57,0a2.28,2.28,0,0,0-.44-1.47,1.9,1.9,0,0,0-2.65,0,2.68,2.68,0,0,0,0,2.94,1.9,1.9,0,0,0,2.65,0A2.28,2.28,0,0,0,688.49,446.52Z" fill="#0d9cce"/><path d="M690.2,446.52a3.29,3.29,0,0,1,.33-1.51,2.34,2.34,0,0,1,1-1,3.35,3.35,0,0,1,3,0,2.34,2.34,0,0,1,1,1,3.52,3.52,0,0,1,0,3,2.37,2.37,0,0,1-1,1,3.35,3.35,0,0,1-3,0,2.37,2.37,0,0,1-1-1A3.29,3.29,0,0,1,690.2,446.52Zm4.57,0a2.28,2.28,0,0,0-.44-1.47,1.9,1.9,0,0,0-2.65,0,2.68,2.68,0,0,0,0,2.94,1.9,1.9,0,0,0,2.65,0A2.28,2.28,0,0,0,694.77,446.52Z" fill="#0d9cce"/><path d="M702.77,449.26h-1l0-4.31h0l-1.68,4.31h-.76L697.69,445h0l0,4.31h-.94v-5.48h1.48l1.49,4.09h0l1.53-4.09h1.49Z" fill="#0d9cce"/><path d="M668.36,450.15a4.32,4.32,0,1,1,4.32-4.32A4.31,4.31,0,0,1,668.36,450.15Zm0-7.48a3.16,3.16,0,1,0,3.16,3.16A3.16,3.16,0,0,0,668.36,442.67Z" fill="#0d9cce"/><path d="M675.69,453.75a.62.62,0,0,1-.41-.17l-4.46-4.46a.59.59,0,0,1,0-.82.57.57,0,0,1,.82,0l4.46,4.46a.57.57,0,0,1,0,.82A.58.58,0,0,1,675.69,453.75Z" fill="#0d9cce"/></g></svg>
