<svg xmlns="http://www.w3.org/2000/svg" xmlns:xlink="http://www.w3.org/1999/xlink" width="770" height="500" viewBox="0 0 770 500"><defs><linearGradient id="linear-gradient" x1="180.54" y1="147.87" x2="589.51" y2="856.21" gradientTransform="matrix(1, 0, 0, -1, 0, 752)" gradientUnits="userSpaceOnUse"><stop offset="0" stop-color="#473f99"/><stop offset="0.54" stop-color="#4f4a92"/><stop offset="1" stop-color="#6a4c9a"/></linearGradient></defs><title>Artboard 3 copy</title><g id="Layer_2" data-name="Layer 2"><path d="M770,0V500L0,499.89V0Z" fill="url(#linear-gradient)"/><path d="M649.24,259.89v9.18H647.8v-4.15h-4.61v4.15h-1.41v-9.18h1.41v3.89h4.61v-3.89Z" fill="#fff"/><path d="M657.12,266.23h-4.81a2.24,2.24,0,0,0,.6,1.42,2,2,0,0,0,1.43.51,3.24,3.24,0,0,0,1-.15,4.84,4.84,0,0,0,.94-.47l.6.87a4.08,4.08,0,0,1-1.22.64,4.91,4.91,0,0,1-1.44.2,3.42,3.42,0,0,1-1.79-.44,2.84,2.84,0,0,1-1.13-1.24,4.13,4.13,0,0,1-.39-1.85,3.77,3.77,0,0,1,.83-2.54,2.94,2.94,0,0,1,2.35-1,2.77,2.77,0,0,1,2.26.95,3.89,3.89,0,0,1,.77,2.52A4.63,4.63,0,0,1,657.12,266.23Zm-1.3-1.05a2.25,2.25,0,0,0-.46-1.39,1.52,1.52,0,0,0-1.26-.54,1.59,1.59,0,0,0-1.29.55,2.41,2.41,0,0,0-.51,1.38Z" fill="#fff"/><path d="M658.8,263.91a13,13,0,0,0-.09-1.51H660a7.7,7.7,0,0,1,.1.92h0a2.07,2.07,0,0,1,.77-.81,2.49,2.49,0,0,1,1.27-.29,2.53,2.53,0,0,1,.38,0l-.06,1.18a2.89,2.89,0,0,0-.45,0,1.7,1.7,0,0,0-1.39.6,2.33,2.33,0,0,0-.5,1.53v3.54H658.8Z" fill="#fff"/><path d="M669.9,265.71a4,4,0,0,1-.41,1.84,3.05,3.05,0,0,1-1.18,1.26,3.61,3.61,0,0,1-1.84.44,3.53,3.53,0,0,1-1.82-.45,3,3,0,0,1-1.17-1.25,4,4,0,0,1-.41-1.84,3.92,3.92,0,0,1,.4-1.83,2.87,2.87,0,0,1,1.17-1.22,3.65,3.65,0,0,1,1.83-.44,3.72,3.72,0,0,1,1.85.44,2.81,2.81,0,0,1,1.17,1.22A3.92,3.92,0,0,1,669.9,265.71Zm-5.42,0a3,3,0,0,0,.49,1.79,1.75,1.75,0,0,0,1.5.66,1.79,1.79,0,0,0,1.53-.66,2.94,2.94,0,0,0,.49-1.79A2.87,2.87,0,0,0,668,264a1.81,1.81,0,0,0-1.53-.65A1.77,1.77,0,0,0,665,264,3,3,0,0,0,664.48,265.71Z" fill="#fff"/><path d="M676,269.07,673.54,266l-.61.57v2.48h-1.36v-9.18h1.36v5.17l2.86-2.66h1.63l-2.93,2.74,3.17,3.93Z" fill="#fff"/><path d="M678.33,266.49V262.4h1.38v3.9a2.32,2.32,0,0,0,.35,1.37,1.3,1.3,0,0,0,1.14.51,1.63,1.63,0,0,0,1.33-.63A2.42,2.42,0,0,0,683,266V262.4h1.36v5.17a13.2,13.2,0,0,0,.1,1.5H683.2a6.49,6.49,0,0,1-.11-.84h0a2.53,2.53,0,0,1-2.21,1,2.33,2.33,0,0,1-1.89-.76A3,3,0,0,1,678.33,266.49Z" fill="#fff"/><path d="M697.22,260.78l-.8.91a3.63,3.63,0,0,0-1.07-.61,3.45,3.45,0,0,0-1.24-.22,2.84,2.84,0,0,0-2.38,1,4.69,4.69,0,0,0,0,5.21,2.82,2.82,0,0,0,2.35,1,3.33,3.33,0,0,0,1.33-.27,3.85,3.85,0,0,0,1.1-.71l.85.94a4.35,4.35,0,0,1-1.45.95,5,5,0,0,1-1.88.35,4.85,4.85,0,0,1-2.48-.61A4,4,0,0,1,690,267a6.28,6.28,0,0,1,0-5.05,3.92,3.92,0,0,1,1.57-1.7,4.85,4.85,0,0,1,2.5-.61,5.14,5.14,0,0,1,1.77.3A4,4,0,0,1,697.22,260.78Z" fill="#fff"/><path d="M704.73,265.71a4,4,0,0,1-.4,1.84,3.05,3.05,0,0,1-1.18,1.26,3.61,3.61,0,0,1-1.84.44,3.53,3.53,0,0,1-1.82-.45,3,3,0,0,1-1.17-1.25,4,4,0,0,1-.41-1.84,3.92,3.92,0,0,1,.4-1.83,2.87,2.87,0,0,1,1.17-1.22,3.65,3.65,0,0,1,1.83-.44,3.72,3.72,0,0,1,1.85.44,2.87,2.87,0,0,1,1.17,1.22A3.92,3.92,0,0,1,704.73,265.71Zm-5.41,0a3,3,0,0,0,.49,1.79,1.74,1.74,0,0,0,1.5.66,1.79,1.79,0,0,0,1.53-.66,2.94,2.94,0,0,0,.49-1.79,2.87,2.87,0,0,0-.49-1.76,1.81,1.81,0,0,0-1.53-.65,1.77,1.77,0,0,0-1.51.65A2.94,2.94,0,0,0,699.32,265.71Z" fill="#fff"/><path d="M706.39,263.91a13,13,0,0,0-.09-1.51h1.3a7,7,0,0,1,.11.78h0a2.25,2.25,0,0,1,.89-.7,3.23,3.23,0,0,1,1.34-.26,2.34,2.34,0,0,1,1.88.72,2.63,2.63,0,0,1,.62,1.76v4.37h-1.37V265a1.86,1.86,0,0,0-.36-1.18,1.38,1.38,0,0,0-1.16-.47,1.69,1.69,0,0,0-1.32.56,2,2,0,0,0-.49,1.4v3.76h-1.37Z" fill="#fff"/><path d="M714.49,263.91a13,13,0,0,0-.09-1.51h1.3a5.2,5.2,0,0,1,.1.78h0a2.18,2.18,0,0,1,.89-.7,3.2,3.2,0,0,1,1.34-.26,2.32,2.32,0,0,1,1.87.72,2.58,2.58,0,0,1,.62,1.76v4.37h-1.36V265a1.86,1.86,0,0,0-.36-1.18,1.4,1.4,0,0,0-1.16-.47,1.69,1.69,0,0,0-1.32.56,2,2,0,0,0-.5,1.4v3.76h-1.36Z" fill="#fff"/><path d="M728.32,266.23h-4.8a2.14,2.14,0,0,0,.6,1.42,2,2,0,0,0,1.43.51,3.24,3.24,0,0,0,1-.15,4.84,4.84,0,0,0,.94-.47l.6.87a4.21,4.21,0,0,1-1.22.64,5,5,0,0,1-1.44.2,3.4,3.4,0,0,1-1.79-.44,2.78,2.78,0,0,1-1.13-1.24,4.13,4.13,0,0,1-.39-1.85,3.72,3.72,0,0,1,.83-2.54,2.93,2.93,0,0,1,2.35-1,2.74,2.74,0,0,1,2.25.95,3.83,3.83,0,0,1,.78,2.52A3.12,3.12,0,0,1,728.32,266.23ZM727,265.18a2.31,2.31,0,0,0-.46-1.39,1.52,1.52,0,0,0-1.26-.54,1.59,1.59,0,0,0-1.29.55,2.34,2.34,0,0,0-.51,1.38Z" fill="#fff"/><path d="M732.93,262.22a3.94,3.94,0,0,1,1.19.18,3.32,3.32,0,0,1,1,.54l-.53.94a2.87,2.87,0,0,0-1.69-.53,1.79,1.79,0,0,0-1.5.64,2.74,2.74,0,0,0-.5,1.73,2.83,2.83,0,0,0,.5,1.74,1.77,1.77,0,0,0,1.48.65,3.24,3.24,0,0,0,1.72-.54l.5,1a3.93,3.93,0,0,1-2.33.72,3.17,3.17,0,0,1-1.9-.52,2.9,2.9,0,0,1-1-1.32,4.81,4.81,0,0,1-.3-1.69,4,4,0,0,1,.4-1.84,2.91,2.91,0,0,1,1.16-1.22A3.58,3.58,0,0,1,732.93,262.22Z" fill="#fff"/><path d="M738.5,262.4h1.71v1H738.5v3.7c0,.67.3,1,.92,1a2.16,2.16,0,0,0,.62-.09l.19,1a3,3,0,0,1-1.07.18,2.06,2.06,0,0,1-1.48-.51,1.93,1.93,0,0,1-.55-1.48v-3.82H736v-.88l1.13-.16v-1.57l1.38-.49Z" fill="#fff"/><path d="M684.06,383.6a1.42,1.42,0,0,0-1.28.64,2.63,2.63,0,0,0-.36,1.05h3.18a2.16,2.16,0,0,0-.3-1.05A1.38,1.38,0,0,0,684.06,383.6Z" fill="#fff"/><path d="M672.83,386.51a.93.93,0,0,0-.39.85.94.94,0,0,0,.13.57.81.81,0,0,0,.25.27,2.09,2.09,0,0,0,1.31.27,9.87,9.87,0,0,0,1.2-.16v-2a9.89,9.89,0,0,0-1.21-.11A2,2,0,0,0,672.83,386.51Z" fill="#fff"/><path d="M713.9,368.1a16.25,16.25,0,0,0-6.69,1.43,13.56,13.56,0,0,0-11.82-7,13.39,13.39,0,0,0-9.71,4.17,14.88,14.88,0,0,0-25.51,14.94,12.95,12.95,0,0,0,6.41,24.11,12.8,12.8,0,0,0,2.62-.27,13.79,13.79,0,0,0,25.63.61,12.07,12.07,0,0,0,15.82-5,16.14,16.14,0,0,0,3.25.33,16.67,16.67,0,0,0,0-33.34Zm-43.7,19.34c0,1.35-1,2.18-2.55,2.18a4.64,4.64,0,0,1-2.73-.79s-.08-.05,0-.18l.32-.85a.09.09,0,0,1,0-.07.13.13,0,0,1,.18,0l.26.16a3.72,3.72,0,0,0,2,.59c.68,0,1.11-.37,1.11-.85v0c0-.54-.65-.73-1.41-1l-.16-.05c-1-.29-2.15-.72-2.15-2v0a2.19,2.19,0,0,1,2.44-2.12h.16a4.44,4.44,0,0,1,2.25.61.15.15,0,0,1,.08.18c0,.06-.29.77-.32.85s-.21,0-.21,0a4.51,4.51,0,0,0-2-.52c-.61,0-1,.33-1,.77v0c0,.52.67.73,1.45,1l.13,0c1,.32,2.13.78,2.13,2Zm6.54,1.61a.13.13,0,0,1-.1.14l-.31.08-1.12.22a8.78,8.78,0,0,1-1.35.11,5.83,5.83,0,0,1-1.18-.12,2.49,2.49,0,0,1-.9-.39,1.79,1.79,0,0,1-.58-.7,2.21,2.21,0,0,1-.21-1,2.07,2.07,0,0,1,.88-1.76,2.8,2.8,0,0,1,.93-.42,3.63,3.63,0,0,1,1.09-.14c.28,0,.51,0,.7,0,0,0,.35,0,.74.1V385c0-.6-.13-.88-.37-1.06a1.73,1.73,0,0,0-1.1-.29,4.44,4.44,0,0,0-1.93.45l-.08,0h0a.11.11,0,0,1-.14-.08l-.32-.85a.14.14,0,0,1,0-.17,4.18,4.18,0,0,1,1.37-.5,8,8,0,0,1,1.19-.12,3,3,0,0,1,2,.62,2.48,2.48,0,0,1,.71,2Zm2.88-9.21v9.48a.15.15,0,0,1-.13.14h-1.18a.13.13,0,0,1-.13-.13h0v-9.48a.12.12,0,0,1,.12-.13h1.19a.13.13,0,0,1,.13.13Zm7.34,6.43a.14.14,0,0,1-.13.12h-4.44a2.09,2.09,0,0,0,.51,1.48,2.17,2.17,0,0,0,1.52.52,4.25,4.25,0,0,0,1.83-.33h0a.14.14,0,0,1,.17.08l.29.81c0,.14,0,.19,0,.21a4.52,4.52,0,0,1-2.24.45,4.65,4.65,0,0,1-1.61-.26,2.85,2.85,0,0,1-1.76-1.87,4.56,4.56,0,0,1-.2-1.42,4.86,4.86,0,0,1,.19-1.42,3.17,3.17,0,0,1,.6-1.15,3,3,0,0,1,1-.78,3.57,3.57,0,0,1,1.47-.29,3.33,3.33,0,0,1,1.28.26,2.65,2.65,0,0,1,.85.64,2.79,2.79,0,0,1,.57,1A4.73,4.73,0,0,1,687,386.27Zm3.7,3.35a4.64,4.64,0,0,1-2.73-.79s-.08-.05,0-.18l.32-.85s0,0,0-.05a.13.13,0,0,1,.19,0,2,2,0,0,0,.26.16,3.72,3.72,0,0,0,2,.59c.68,0,1.11-.37,1.11-.85v0c0-.54-.65-.73-1.41-1l-.16-.05c-1-.29-2.15-.72-2.15-2v0a2.19,2.19,0,0,1,2.44-2.12h.16A4.44,4.44,0,0,1,693,383a.15.15,0,0,1,.08.18l-.32.85c-.06.14-.21,0-.21,0a4.51,4.51,0,0,0-2-.52c-.61,0-1,.33-1,.77v0c0,.52.67.73,1.45,1l.13,0c1,.32,2.13.78,2.13,2v0C693.21,388.79,692.23,389.62,690.66,389.62Zm7.75-6a.13.13,0,0,1-.14.13H696.8l-1,5.67a8,8,0,0,1-.39,1.49,3,3,0,0,1-.57,1,2.1,2.1,0,0,1-.82.57,3.15,3.15,0,0,1-1.09.17,2.46,2.46,0,0,1-.66-.06,3,3,0,0,1-.4-.12h0a.14.14,0,0,1-.06-.18c0-.09.29-.81.33-.9h0a.12.12,0,0,1,.16-.07l.24.08.35,0a1.89,1.89,0,0,0,.53-.08.87.87,0,0,0,.4-.31,2.23,2.23,0,0,0,.31-.64,6.94,6.94,0,0,0,.27-1.09l1-5.56h-1c-.12,0-.16-.06-.15-.15l.17-.92a.14.14,0,0,1,.15-.13h1l.06-.3a3.65,3.65,0,0,1,.89-2,2.55,2.55,0,0,1,1.88-.68,3.08,3.08,0,0,1,.61.05,3.48,3.48,0,0,1,.44.1h0a.11.11,0,0,1,.07.15l-.34.93c0,.07,0,.12-.19.07l-.23-.05a1.47,1.47,0,0,0-.36,0,1.59,1.59,0,0,0-.48.07,1,1,0,0,0-.37.23,1.28,1.28,0,0,0-.31.48,5.61,5.61,0,0,0-.24,1h1.42c.12,0,.16.05.15.14Zm6.51,3.81a3.21,3.21,0,0,1-.6,1.14,3,3,0,0,1-1,.76,3.82,3.82,0,0,1-2.82,0,3,3,0,0,1-1-.76,3.35,3.35,0,0,1-.59-1.14,5.2,5.2,0,0,1,0-2.82,3,3,0,0,1,.59-1.14,2.93,2.93,0,0,1,1-.77,3.63,3.63,0,0,1,2.82,0,2.89,2.89,0,0,1,1,.77,3,3,0,0,1,.6,1.14h0A5.2,5.2,0,0,1,704.92,387.43Zm5.49-4.64c0,.11-.26.73-.34.93a.15.15,0,0,1-.16.12,3.86,3.86,0,0,0-.49-.06,2.33,2.33,0,0,0-.59.08,1.4,1.4,0,0,0-.55.33,1.7,1.7,0,0,0-.39.66,3.81,3.81,0,0,0-.15,1.16v3.31h0a.13.13,0,0,1-.13.13h-1.17a.13.13,0,0,1-.13-.13v-6.63h0a.12.12,0,0,1,.13-.12h1.14a.12.12,0,0,1,.12.13v.55a2,2,0,0,1,.75-.55,2.18,2.18,0,0,1,1.15-.19,3.7,3.7,0,0,1,.74.13h0A.12.12,0,0,1,710.41,382.79Zm5.56,6.49a5.36,5.36,0,0,1-1.86.33,3.33,3.33,0,0,1-2.59-1,3.8,3.8,0,0,1-.87-2.62,4.55,4.55,0,0,1,.21-1.41,3.14,3.14,0,0,1,.64-1.14,3,3,0,0,1,1.06-.76,3.53,3.53,0,0,1,1.47-.28,6.45,6.45,0,0,1,1,.06,6.13,6.13,0,0,1,.87.21h0a.12.12,0,0,1,.08.15l-.33.9c0,.13-.15.09-.15.09a4.37,4.37,0,0,0-1.39-.2,1.68,1.68,0,0,0-1.45.64,2.73,2.73,0,0,0-.51,1.73,2.48,2.48,0,0,0,.57,1.79,2,2,0,0,0,1.49.56,4.36,4.36,0,0,0,.72-.05,2.64,2.64,0,0,0,.61-.17h0a.11.11,0,0,1,.15.09l.33.89A.12.12,0,0,1,716,389.28Zm6.56-3a.11.11,0,0,1-.13.11H718a1.83,1.83,0,0,0,2,2,4.4,4.4,0,0,0,1.83-.33h0a.12.12,0,0,1,.16.07l.28.82c.06.14,0,.19,0,.21a4.52,4.52,0,0,1-2.24.45,4.61,4.61,0,0,1-1.61-.26,2.83,2.83,0,0,1-1.76-1.87,4.56,4.56,0,0,1-.2-1.42,4.86,4.86,0,0,1,.19-1.42,3.33,3.33,0,0,1,.6-1.15,2.93,2.93,0,0,1,1-.78,3.5,3.5,0,0,1,1.46-.29,3.33,3.33,0,0,1,1.28.26,2.65,2.65,0,0,1,.85.64,2.79,2.79,0,0,1,.57,1A4.73,4.73,0,0,1,722.53,386.27Z" fill="#fff"/><path d="M719.63,383.6a1.42,1.42,0,0,0-1.28.64,2.63,2.63,0,0,0-.36,1.05h3.18a2.16,2.16,0,0,0-.3-1.05A1.37,1.37,0,0,0,719.63,383.6Z" fill="#fff"/><path d="M701.91,383.62a1.4,1.4,0,0,0-1.28.62,3.17,3.17,0,0,0-.42,1.77,3.27,3.27,0,0,0,.42,1.79,1.62,1.62,0,0,0,2.55,0,3.9,3.9,0,0,0,0-3.56A1.4,1.4,0,0,0,701.91,383.62Z" fill="#fff"/><g id="Marketing"><g id="connect-48"><g id="Shape"><path d="M700.26,239.35v-3l2.57-1.48v3Zm-8.8-8,11.37-6.57v7l-3-1.75a.92.92,0,0,0-.91,0l-4.4,2.55a.89.89,0,0,0-.39.5,1,1,0,0,0-.07.29v5.08a.92.92,0,0,0,.46.8l3,1.74-6,3.5Zm-13.21,3.6,2.57,1.48v3l-2.57-1.49Zm12.29-18.32,2.57,1.48-2.57,1.49L688,218.06Zm.92,4.55,1.58-.91,1-.57v3l-2.57,1.48Zm-4.4-1.48,1,.57,1.58.91v3l-2.57-1.48Zm3.48,10.06-3.23-1.86-8.14-4.7,6.06-3.5v3.5a.91.91,0,0,0,.45.79l4.4,2.54a1,1,0,0,0,.46.12.93.93,0,0,0,.46-.12l4.4-2.54a.9.9,0,0,0,.46-.79v-3.5l6,3.5Zm5.32,5.18.73.42,1.84,1.06v3l-2.57-1.49Zm3.48-.11-2.56-1.47,2.56-1.48,2.57,1.48Zm-17.6,0-2.57-1.48,2.57-1.48,2.57,1.48Zm.92,1.59,2.57-1.48v3l-2.57,1.49Zm7,8.05-6.06-3.5,3-1.74a.94.94,0,0,0,.46-.8v-5.08h0a1,1,0,0,0-.11-.4.86.86,0,0,0-.07-.1,1,1,0,0,0-.22-.23s0,0-.06,0L682.2,230a.89.89,0,0,0-.92,0l-3,1.74v-7l9.45,5.46,1.92,1.11Zm14.57-22.08-8.8-5.08h0l-4.4-2.54a.94.94,0,0,0-.92,0l-4.4,2.54h0l-8.8,5.08a.94.94,0,0,0-.46.8h0v10.16h0v5.08a.94.94,0,0,0,.46.8l4.4,2.54h0l8.78,5.07a1,1,0,0,0,.46.12.93.93,0,0,0,.46-.12l8.8-5.08h0l4.4-2.54a.92.92,0,0,0,.46-.8V223.15a.92.92,0,0,0-.46-.8ZM706.92,238a3.88,3.88,0,0,1-1.93,3.34l-12.52,7.23a3.86,3.86,0,0,1-3.86,0l-12.52-7.23a3.88,3.88,0,0,1-1.93-3.34V223.52a3.88,3.88,0,0,1,1.93-3.35L688.61,213a3.84,3.84,0,0,1,3.86,0L705,220.17a3.88,3.88,0,0,1,1.93,3.35Zm-.7-19.92-12.53-7.23a6.33,6.33,0,0,0-6.3,0l-12.52,7.23a6.3,6.3,0,0,0-3.15,5.46V238a6.32,6.32,0,0,0,3.15,5.46l12.52,7.23a6.33,6.33,0,0,0,6.3,0l12.53-7.23a6.34,6.34,0,0,0,3.15-5.46V223.52a6.32,6.32,0,0,0-3.15-5.46Z" fill="#fff" fill-rule="evenodd"/></g></g></g><g id="Marketing-2" data-name="Marketing"><g id="postgres-48"><g id="Shape-2" data-name="Shape"><path d="M692.11,100.2V93.89c3.29.07,5.23.64,5.23,1.57,0,1.53-2.17,4.37-5.23,4.74m-.68-7.66a.67.67,0,0,0-.67.67V105.5a.63.63,0,0,1-.41.61.64.64,0,0,1-.72-.14.67.67,0,1,0-1,1,2,2,0,0,0,1.41.6,2.17,2.17,0,0,0,.78-.16,2,2,0,0,0,1.24-1.86v-3.94c3.8-.38,6.58-3.82,6.58-6.1,0-2.62-4.14-2.92-7.26-2.92m-1.68.67a.67.67,0,0,0-.67-.67c-3.12,0-7.26.3-7.26,2.92,0,2.41,3.12,6.13,7.26,6.13a.67.67,0,0,0,.67-.67Zm10.6,15.48A1.36,1.36,0,0,1,699,110H681.51a1.35,1.35,0,0,1-1.34-1.35V91.2a1.35,1.35,0,0,1,1.34-1.35H699a1.36,1.36,0,0,1,1.35,1.35ZM681.51,88.51a2.7,2.7,0,0,0-2.69,2.69v17.49a2.7,2.7,0,0,0,2.69,2.69H699a2.69,2.69,0,0,0,2.69-2.69V91.2A2.69,2.69,0,0,0,699,88.51Z" fill="#fff" fill-rule="evenodd"/></g></g></g><path d="M690.54,77c-9.2,0-17.86-.35-24.38-1-10.73-1-10.73-2.32-10.73-3.09s0-2,10.73-3.09c6.52-.63,15.18-1,24.38-1s17.87.35,24.38,1c10.73,1,10.73,2.33,10.73,3.09s0,2-10.73,3.09C708.41,76.61,699.75,77,690.54,77Zm-33.45-4.07c2.09,1.16,14.11,2.61,33.45,2.61S721.9,74.05,724,72.89c-2.09-1.15-14.11-2.61-33.45-2.61S659.18,71.74,657.09,72.89Zm67.16.2Z" fill="#fff"/><path d="M690.54,144.17c-9.2,0-17.86-.35-24.38-1-10.73-1-10.73-2.33-10.73-3.09V72.89a.73.73,0,1,1,1.46,0V140c1.33,1.17,13.53,2.75,33.65,2.75s32.32-1.58,33.65-2.75V72.89a.73.73,0,0,1,1.46,0V140.1c0,.76,0,2.05-10.73,3.09C708.41,143.82,699.75,144.17,690.54,144.17Z" fill="#fff"/><path d="M682.78,115.91v6.2h-1v-2.8H678.7v2.8h-1v-6.2h1v2.63h3.11v-2.63Z" fill="#fff"/><path d="M688.09,120.19h-3.24a1.47,1.47,0,0,0,.41,1,1.3,1.3,0,0,0,1,.35,2.19,2.19,0,0,0,.7-.11,3,3,0,0,0,.63-.31l.4.58a2.48,2.48,0,0,1-.82.43,2.91,2.91,0,0,1-1,.14,2.37,2.37,0,0,1-1.2-.29,1.9,1.9,0,0,1-.77-.84,2.77,2.77,0,0,1-.26-1.25,2.48,2.48,0,0,1,.56-1.71,2,2,0,0,1,1.58-.65,1.83,1.83,0,0,1,1.52.64,2.58,2.58,0,0,1,.53,1.7A2.1,2.1,0,0,1,688.09,120.19Zm-.87-.71a1.58,1.58,0,0,0-.31-.94,1,1,0,0,0-.85-.36,1.07,1.07,0,0,0-.87.37,1.53,1.53,0,0,0-.34.93Z" fill="#fff"/><path d="M689.23,118.63a8.85,8.85,0,0,0-.06-1h.88a6.17,6.17,0,0,1,.07.62h0a1.45,1.45,0,0,1,.52-.55,1.69,1.69,0,0,1,.86-.19l.26,0,0,.79a1.47,1.47,0,0,0-.31,0,1.16,1.16,0,0,0-.94.4,1.57,1.57,0,0,0-.33,1v2.39h-.92Z" fill="#fff"/><path d="M696.72,119.84a2.8,2.8,0,0,1-.28,1.25,2,2,0,0,1-.8.84,2.42,2.42,0,0,1-1.24.3,2.37,2.37,0,0,1-1.22-.3,2,2,0,0,1-.79-.85,2.61,2.61,0,0,1-.28-1.24,2.73,2.73,0,0,1,.27-1.24,2,2,0,0,1,.79-.82,2.51,2.51,0,0,1,1.23-.29,2.57,2.57,0,0,1,1.25.29,2,2,0,0,1,.79.82A2.73,2.73,0,0,1,696.72,119.84Zm-3.65,0a2,2,0,0,0,.32,1.21,1.17,1.17,0,0,0,1,.45,1.21,1.21,0,0,0,1-.45,2,2,0,0,0,.33-1.21,1.92,1.92,0,0,0-.33-1.18,1.2,1.2,0,0,0-1-.44,1.16,1.16,0,0,0-1,.44A1.92,1.92,0,0,0,693.07,119.84Z" fill="#fff"/><path d="M700.82,122.11l-1.65-2.06-.41.39v1.67h-.92v-6.2h.92v3.5l1.93-1.8h1.1l-2,1.85,2.14,2.65Z" fill="#fff"/><path d="M702.41,120.37v-2.76h.92v2.63a1.6,1.6,0,0,0,.24.93.9.9,0,0,0,.77.34,1.11,1.11,0,0,0,.9-.42,1.68,1.68,0,0,0,.33-1.06v-2.42h.92v3.49c0,.26,0,.6.07,1h-.87a3.38,3.38,0,0,1-.07-.57h0a1.69,1.69,0,0,1-1.49.69,1.57,1.57,0,0,1-1.27-.51A2,2,0,0,1,702.41,120.37Z" fill="#fff"/><path d="M679.84,128.46a2,2,0,0,1-.31,1.15,1.92,1.92,0,0,1-.83.69,2.79,2.79,0,0,1-1.11.23h-1.23v2.08h-1v-6.19h2.17a2.5,2.5,0,0,1,1.63.5A1.86,1.86,0,0,1,679.84,128.46Zm-3.48-1.27v2.56h1.14a1.51,1.51,0,0,0,1-.32,1.19,1.19,0,0,0,.39-1,1.16,1.16,0,0,0-.39-1,1.55,1.55,0,0,0-1-.3Z" fill="#fff"/><path d="M684.84,130.35a2.76,2.76,0,0,1-.27,1.24,2,2,0,0,1-.8.84,2.6,2.6,0,0,1-2.46,0,2.09,2.09,0,0,1-.8-.84,2.76,2.76,0,0,1-.27-1.24,2.67,2.67,0,0,1,.27-1.24,1.9,1.9,0,0,1,.79-.82,2.39,2.39,0,0,1,1.23-.3,2.46,2.46,0,0,1,1.25.3,1.9,1.9,0,0,1,.79.82A2.67,2.67,0,0,1,684.84,130.35Zm-3.65,0a2,2,0,0,0,.33,1.2,1.17,1.17,0,0,0,1,.45,1.19,1.19,0,0,0,1-.45,1.92,1.92,0,0,0,.34-1.2,1.89,1.89,0,0,0-.34-1.19,1.21,1.21,0,0,0-1-.44,1.17,1.17,0,0,0-1,.44A2,2,0,0,0,681.19,130.35Z" fill="#fff"/><path d="M688.82,128.47l-.4.57a2.05,2.05,0,0,0-1.09-.34,1.16,1.16,0,0,0-.6.14.46.46,0,0,0-.22.4.48.48,0,0,0,.1.33.72.72,0,0,0,.3.21,4.59,4.59,0,0,0,.65.19,2.13,2.13,0,0,1,1,.49,1.15,1.15,0,0,1,.33.85,1.29,1.29,0,0,1-.24.78,1.42,1.42,0,0,1-.66.48,2.35,2.35,0,0,1-.89.17,2.54,2.54,0,0,1-1.64-.52l.42-.58a2.31,2.31,0,0,0,.56.29,2.08,2.08,0,0,0,.63.09,1.1,1.1,0,0,0,.64-.17.57.57,0,0,0,.23-.49.54.54,0,0,0-.09-.33.86.86,0,0,0-.29-.2,5.31,5.31,0,0,0-.64-.19,2.27,2.27,0,0,1-1-.49,1.14,1.14,0,0,1-.32-.86,1.12,1.12,0,0,1,.47-.94,2,2,0,0,1,1.24-.36A2.42,2.42,0,0,1,688.82,128.47Z" fill="#fff"/><path d="M691,128.11h1.16v.71H691v2.49c0,.45.21.68.62.68a1.42,1.42,0,0,0,.42-.06l.13.68a1.88,1.88,0,0,1-.72.13,1.42,1.42,0,0,1-1-.35,1.35,1.35,0,0,1-.37-1v-2.57h-.77v-.6l.76-.11v-1.05l.93-.34Z" fill="#fff"/><path d="M692.61,133.49a1.13,1.13,0,0,1,.21-.67,1.86,1.86,0,0,1,.64-.54.92.92,0,0,1-.29-.26.55.55,0,0,1-.1-.34.64.64,0,0,1,.17-.44.92.92,0,0,1,.46-.28,1.38,1.38,0,0,1-.81-1.35,1.48,1.48,0,0,1,.5-1.18,2.11,2.11,0,0,1,1.41-.44,2.54,2.54,0,0,1,.43,0l.39.09h1.6v.73l-1-.13a1,1,0,0,1,.3.4,1.57,1.57,0,0,1,.11.6,1.36,1.36,0,0,1-.5,1.11,2.19,2.19,0,0,1-1.39.39,1.91,1.91,0,0,0-.66.1c-.15.07-.23.16-.23.28a.27.27,0,0,0,.2.25,2,2,0,0,0,.66.1,4,4,0,0,1,1.78.35,1,1,0,0,1,.56,1,1.36,1.36,0,0,1-.63,1.2,3.28,3.28,0,0,1-1.8.42,2.72,2.72,0,0,1-1.54-.36A1.15,1.15,0,0,1,692.61,133.49Zm3.59-.16c0-.24-.15-.41-.46-.52a5.71,5.71,0,0,0-1.63-.18,1.25,1.25,0,0,0-.46.36.77.77,0,0,0-.14.45c0,.49.39.73,1.19.73a2.37,2.37,0,0,0,1.12-.21A.68.68,0,0,0,696.2,133.33Zm-.37-3.7a1,1,0,0,0-.26-.71,1.33,1.33,0,0,0-1.55,0,.86.86,0,0,0-.29.67,1,1,0,0,0,.26.71,1.07,1.07,0,0,0,.79.26Q695.83,130.56,695.83,129.63Z" fill="#fff"/><path d="M698.13,129.13a9,9,0,0,0-.06-1h.87a4.29,4.29,0,0,1,.07.63h0a1.32,1.32,0,0,1,.52-.55,1.64,1.64,0,0,1,.85-.2l.27,0,0,.8a1.32,1.32,0,0,0-.3,0,1.14,1.14,0,0,0-.94.4,1.57,1.57,0,0,0-.33,1v2.39h-.92Z" fill="#fff"/><path d="M705.18,130.7h-3.24a1.46,1.46,0,0,0,.4,1,1.3,1.3,0,0,0,1,.34,2.15,2.15,0,0,0,.7-.1,3.12,3.12,0,0,0,.63-.32l.4.59a2.87,2.87,0,0,1-.81.43,3.31,3.31,0,0,1-1,.14,2.27,2.27,0,0,1-1.2-.3,2,2,0,0,1-.77-.84,2.86,2.86,0,0,1-.26-1.24,2.54,2.54,0,0,1,.56-1.72,2,2,0,0,1,1.58-.65,1.88,1.88,0,0,1,1.53.64,2.6,2.6,0,0,1,.52,1.7C705.2,130.46,705.19,130.58,705.18,130.7Zm-.88-.71a1.53,1.53,0,0,0-.31-.94,1,1,0,0,0-.85-.37,1.08,1.08,0,0,0-.87.38,1.54,1.54,0,0,0-.34.93Z" fill="#fff"/><path d="M709.17,128.47l-.4.57a2.05,2.05,0,0,0-1.09-.34,1.16,1.16,0,0,0-.6.14.46.46,0,0,0-.22.4.48.48,0,0,0,.1.33.72.72,0,0,0,.3.21,5,5,0,0,0,.65.19,2.08,2.08,0,0,1,1,.49,1.15,1.15,0,0,1,.34.85,1.3,1.3,0,0,1-.25.78,1.42,1.42,0,0,1-.66.48,2.35,2.35,0,0,1-.89.17,2.54,2.54,0,0,1-1.64-.52l.42-.58a2.31,2.31,0,0,0,.56.29,2.08,2.08,0,0,0,.63.09,1.1,1.1,0,0,0,.64-.17.57.57,0,0,0,.23-.49.54.54,0,0,0-.09-.33.69.69,0,0,0-.29-.2,4.8,4.8,0,0,0-.64-.19,2.17,2.17,0,0,1-1-.49,1.24,1.24,0,0,1,.14-1.8,2,2,0,0,1,1.24-.36A2.42,2.42,0,0,1,709.17,128.47Z" fill="#fff"/><line x1="691.22" y1="282.28" x2="691.22" y2="343.1" fill="none" stroke-dasharray="3 6" stroke-linecap="round" stroke-linejoin="round" stroke-width="2" stroke="#fff"/><polyline points="684.89 343.1 691.22 349.43 697.55 343.1" fill="none" stroke="#fff" stroke-linecap="round" stroke-linejoin="round" stroke-width="2"/><line x1="691.22" y1="199.42" x2="691.22" y2="162.61" fill="none" stroke-dasharray="3 6" stroke-linecap="round" stroke-linejoin="round" stroke-width="2" stroke="#fff"/><polyline points="697.55 162.61 691.22 156.28 684.89 162.61" fill="none" stroke="#fff" stroke-linecap="round" stroke-linejoin="round" stroke-width="2"/><text transform="translate(171.7 234.26)" font-size="12" fill="#fff" font-family="SalesforceSans-Semibold, Salesforce Sans" font-weight="600"><tspan letter-spacing="-0.05em">F</tspan><tspan x="5.88" y="0">ull</tspan><tspan x="19.86" y="0" letter-spacing="-0.01em">y</tspan><tspan x="25.6" y="0">-</tspan><tspan x="29.38" y="0" letter-spacing="-0.01em">m</tspan><tspan x="40.75" y="0" letter-spacing="0em">a</tspan><tspan x="47.45" y="0" letter-spacing="-0.01em">n</tspan><tspan x="54.82" y="0" letter-spacing="0em">a</tspan><tspan x="61.51" y="0" letter-spacing="-0.01em">g</tspan><tspan x="68.21" y="0">ed </tspan><tspan x="85.76" y="0" letter-spacing="0em">s</tspan><tspan x="91.12" y="0">ync</tspan><tspan x="0" y="14.4" letter-spacing="-0.02em">u</tspan><tspan x="7.32" y="14.4">sing He</tspan><tspan x="49.22" y="14.4" letter-spacing="-0.02em">r</tspan><tspan x="53.58" y="14.4">o</tspan><tspan x="61.02" y="14.4" letter-spacing="-0.02em">k</tspan><tspan x="67.34" y="14.4">u </tspan><tspan x="78" y="14.4" letter-spacing="-0.03em">C</tspan><tspan x="85.8" y="14.4">onne</tspan><tspan x="115.08" y="14.4" letter-spacing="0.02em">c</tspan><tspan x="121.4" y="14.4">t</tspan></text><text transform="translate(436.24 227.06)" font-size="12" fill="#fff" font-family="SalesforceSans-Semibold, Salesforce Sans" font-weight="600"><tspan letter-spacing="-0.02em">R</tspan><tspan x="7.44" y="0" letter-spacing="0em">eal-time O</tspan><tspan x="66.95" y="0" letter-spacing="-0.01em">D</tspan><tspan x="75.66" y="0" letter-spacing="-0.01em">a</tspan><tspan x="82.29" y="0" letter-spacing="0em">ta que</tspan><tspan x="118.51" y="0" letter-spacing="0.02em">r</tspan><tspan x="123.3" y="0">y</tspan><tspan x="0" y="14.4" letter-spacing="-0.02em">u</tspan><tspan x="7.32" y="14.4">sing He</tspan><tspan x="49.22" y="14.4" letter-spacing="-0.02em">r</tspan><tspan x="53.58" y="14.4">o</tspan><tspan x="61.02" y="14.4" letter-spacing="-0.02em">k</tspan><tspan x="67.34" y="14.4">u E</tspan><tspan x="84.78" y="14.4" letter-spacing="-0.02em">x</tspan><tspan x="91.11" y="14.4" letter-spacing="-0.01em">t</tspan><tspan x="95.4" y="14.4" letter-spacing="0em">er</tspan><tspan x="106.81" y="14.4" letter-spacing="-0.01em">n</tspan><tspan x="114.18" y="14.4" letter-spacing="0em">al Obje</tspan><tspan x="154.64" y="14.4" letter-spacing="0.02em">c</tspan><tspan x="160.97" y="14.4">ts</tspan><tspan x="0" y="28.8">and Salesfo</tspan><tspan x="65.44" y="28.8" letter-spacing="-0.02em">r</tspan><tspan x="69.79" y="28.8" letter-spacing="-0.02em">c</tspan><tspan x="75.69" y="28.8">e </tspan><tspan x="85.71" y="28.8" letter-spacing="-0.02em">C</tspan><tspan x="93.51" y="28.8">onne</tspan><tspan x="122.79" y="28.8" letter-spacing="0.02em">c</tspan><tspan x="129.12" y="28.8" letter-spacing="0em">t</tspan></text><text transform="translate(95.23 172.64)" font-size="10" fill="#fff" font-family="SalesforceSans-Semibold, Salesforce Sans" font-weight="600"><tspan letter-spacing="-0.03em">P</tspan><tspan x="5.9" y="0" letter-spacing="0em">ostg</tspan><tspan x="26" y="0" letter-spacing="-0.02em">r</tspan><tspan x="29.63" y="0">es </tspan><tspan x="42.49" y="0" letter-spacing="-0.07em">T</tspan><tspan x="47.34" y="0">able</tspan></text><path d="M185.85,156H72.25c-.55,0-1,.55-1,0V59.63a1,1,0,0,1,1-1h113.6a1,1,0,0,1,1,1V156C186.85,156.55,186.4,156,185.85,156Z" fill="#29abe2" opacity="0.1"/><g opacity="0.25"><path d="M184.85,60.63V154H73.25V60.63h111.6m1-2H72.25a1,1,0,0,0-1,1V156c0,.18,0,.24.13.24s.5-.24.87-.24h113.6c.36,0,.69.24.86.24s.14-.06.14-.24V59.63a1,1,0,0,0-1-1Z" fill="#29abe2"/><line x1="71.25" y1="85.76" x2="186.85" y2="85.76" fill="none" stroke="#29abe2" stroke-miterlimit="10" stroke-width="2"/></g><text transform="translate(78.67 77.65)" font-size="15" fill="#fff" font-family="SalesforceSans-Semibold, Salesforce Sans" font-weight="600">Selfies</text><text transform="translate(78.67 107.56)" font-size="15" fill="#fff" font-family="SalesforceSans-Semibold, Salesforce Sans" font-weight="600">C<tspan x="10.13" y="0" letter-spacing="-0.02em">r</tspan><tspan x="15.57" y="0" letter-spacing="0em">e</tspan><tspan x="24.15" y="0" letter-spacing="0em">a</tspan><tspan x="32.45" y="0" letter-spacing="-0.01em">t</tspan><tspan x="37.8" y="0">ed</tspan><tspan x="55.8" y="0" letter-spacing="-0.04em">_</tspan><tspan x="64.35" y="0">d</tspan><tspan x="73.77" y="0" letter-spacing="-0.01em">a</tspan><tspan x="82.06" y="0" letter-spacing="-0.01em">t</tspan><tspan x="87.42" y="0">e</tspan><tspan x="0" y="18">url_</tspan><tspan x="28.26" y="18" letter-spacing="-0.04em">_</tspan><tspan x="36.81" y="18">c</tspan><tspan x="0" y="36">...</tspan></text><line x1="107.9" y1="279.37" x2="107.9" y2="209.56" fill="none" stroke-dasharray="3 6" stroke-linecap="round" stroke-linejoin="round" stroke-width="2" stroke="#fff"/><line x1="150.19" y1="203.28" x2="150.19" y2="273.09" fill="none" stroke-dasharray="3 6" stroke-linecap="round" stroke-linejoin="round" stroke-width="2" stroke="#fff"/><polyline points="114.23 209.61 107.91 203.28 101.58 209.61" fill="none" stroke="#fff" stroke-linecap="round" stroke-linejoin="round" stroke-width="2"/><polyline points="143.87 273.1 150.19 279.43 156.52 273.1" fill="none" stroke="#fff" stroke-linecap="round" stroke-linejoin="round" stroke-width="2"/><text transform="translate(68.21 453.23)" font-size="10" fill="#fff" font-family="SalesforceSans-Semibold, Salesforce Sans" font-weight="600">Salesfo<tspan x="33.8" y="0" letter-spacing="-0.02em">r</tspan><tspan x="37.43" y="0" letter-spacing="-0.02em">c</tspan><tspan x="42.35" y="0">e </tspan><tspan x="50.7" y="0" letter-spacing="-0.02em">Cu</tspan><tspan x="63.4" y="0">s</tspan><tspan x="67.91" y="0" letter-spacing="-0.01em">t</tspan><tspan x="71.48" y="0">om Obje</tspan><tspan x="112.7" y="0" letter-spacing="0.02em">c</tspan><tspan x="117.97" y="0">t</tspan></text><path d="M185.85,437H72.25c-.55,0-1,.55-1,0V308a1,1,0,0,1,1-1h113.6a1,1,0,0,1,1,1V437C186.85,437.55,186.4,437,185.85,437Z" fill="#29abe2" opacity="0.1"/><g opacity="0.25"><path d="M184.85,309V435H73.25V309h111.6m1-2H72.25a1,1,0,0,0-1,1V437c0,.18,0,.24.13.24s.5-.24.87-.24h113.6c.36,0,.69.24.86.24s.14-.06.14-.24V308a1,1,0,0,0-1-1Z" fill="#29abe2"/><line x1="71.25" y1="334.1" x2="186.85" y2="334.1" fill="none" stroke="#29abe2" stroke-miterlimit="10" stroke-width="2"/></g><text transform="translate(78.67 325.98)" font-size="15" fill="#fff" font-family="SalesforceSans-Semibold, Salesforce Sans" font-weight="600">Selfi<tspan x="30.33" y="0" letter-spacing="-0.04em">e</tspan><tspan x="38.31" y="0">_</tspan><tspan x="47.46" y="0" letter-spacing="-0.04em">_</tspan><tspan x="56.01" y="0" letter-spacing="0em">c</tspan></text><text transform="translate(78.67 355.9)" font-size="15" fill="#fff" font-family="SalesforceSans-Semibold, Salesforce Sans" font-weight="600">C<tspan x="10.13" y="0" letter-spacing="-0.02em">r</tspan><tspan x="15.57" y="0" letter-spacing="0em">e</tspan><tspan x="24.15" y="0" letter-spacing="0em">a</tspan><tspan x="32.45" y="0" letter-spacing="-0.01em">t</tspan><tspan x="37.8" y="0">ed</tspan><tspan x="55.8" y="0" letter-spacing="-0.01em">D</tspan><tspan x="66.69" y="0" letter-spacing="-0.01em">a</tspan><tspan x="74.98" y="0" letter-spacing="-0.01em">t</tspan><tspan x="80.34" y="0">e</tspan><tspan x="0" y="18">url_</tspan><tspan x="28.26" y="18" letter-spacing="-0.04em">_</tspan><tspan x="36.81" y="18">c</tspan><tspan x="0" y="36">...</tspan></text><text transform="translate(357.73 172.64)" font-size="10" fill="#fff" font-family="SalesforceSans-Semibold, Salesforce Sans" font-weight="600"><tspan letter-spacing="-0.03em">P</tspan><tspan x="5.9" y="0" letter-spacing="0em">ostg</tspan><tspan x="26" y="0" letter-spacing="-0.02em">r</tspan><tspan x="29.63" y="0">es </tspan><tspan x="42.49" y="0" letter-spacing="-0.07em">T</tspan><tspan x="47.34" y="0">able</tspan></text><path d="M448.35,156H334.75c-.55,0-1,.55-1,0V59.63a1,1,0,0,1,1-1h113.6a1,1,0,0,1,1,1V156C449.35,156.55,448.9,156,448.35,156Z" fill="#29abe2" opacity="0.1"/><g opacity="0.25"><path d="M447.35,60.24V154H335.75V60.24h111.6m1-2H334.75a1,1,0,0,0-1,1V156c0,.18.05.24.13.24s.5-.24.87-.24h113.6c.36,0,.69.24.86.24s.14-.06.14-.24V59.24a1,1,0,0,0-1-1Z" fill="#29abe2"/><line x1="333.75" y1="85.37" x2="449.35" y2="85.37" fill="none" stroke="#29abe2" stroke-miterlimit="10" stroke-width="2"/></g><text transform="translate(341.17 77.25)" font-size="15" fill="#fff" font-family="SalesforceSans-Semibold, Salesforce Sans" font-weight="600">C<tspan x="10.13" y="0" letter-spacing="-0.01em">h</tspan><tspan x="19.35" y="0">a</tspan><tspan x="27.72" y="0" letter-spacing="-0.02em">r</tspan><tspan x="33.17" y="0">a</tspan><tspan x="41.54" y="0" letter-spacing="0.02em">c</tspan><tspan x="49.44" y="0" letter-spacing="-0.01em">t</tspan><tspan x="54.79" y="0" letter-spacing="0em">ers</tspan></text><text transform="translate(341.17 107.17)" font-size="15" fill="#fff" font-family="SalesforceSans-Semibold, Salesforce Sans" font-weight="600">id<tspan x="0" y="18" letter-spacing="-0.01em">n</tspan><tspan x="9.21" y="18">ame</tspan><tspan x="0" y="36">visible</tspan></text><line x1="370.4" y1="279.37" x2="370.4" y2="209.56" fill="none" stroke-dasharray="3 6" stroke-linecap="round" stroke-linejoin="round" stroke-width="2" stroke="#fff"/><line x1="412.69" y1="203.28" x2="412.69" y2="273.09" fill="none" stroke-dasharray="3 6" stroke-linecap="round" stroke-linejoin="round" stroke-width="2" stroke="#fff"/><polyline points="376.73 209.61 370.4 203.28 364.07 209.61" fill="none" stroke="#fff" stroke-linecap="round" stroke-linejoin="round" stroke-width="2"/><polyline points="406.37 273.1 412.69 279.43 419.02 273.1" fill="none" stroke="#fff" stroke-linecap="round" stroke-linejoin="round" stroke-width="2"/><path d="M448.35,437H334.75c-.55,0-1,.55-1,0V308a1,1,0,0,1,1-1h113.6a1,1,0,0,1,1,1V437C449.35,437.55,448.9,437,448.35,437Z" fill="#29abe2" opacity="0.1"/><g opacity="0.25"><path d="M447.35,309.06V435H335.75V309.06h111.6m1-2H334.75a1,1,0,0,0-1,1V437c0,.18.05.24.13.24s.5-.24.87-.24h113.6c.36,0,.69.24.86.24s.14-.06.14-.24V308.06a1,1,0,0,0-1-1Z" fill="#29abe2"/><line x1="333.75" y1="334.19" x2="449.35" y2="334.19" fill="none" stroke="#29abe2" stroke-miterlimit="10" stroke-width="2"/></g><text transform="translate(341.17 326.08)" font-size="15" fill="#fff" font-family="SalesforceSans-Semibold, Salesforce Sans" font-weight="600">C<tspan x="10.13" y="0" letter-spacing="-0.01em">h</tspan><tspan x="19.35" y="0">a</tspan><tspan x="27.72" y="0" letter-spacing="-0.02em">r</tspan><tspan x="33.17" y="0">a</tspan><tspan x="41.54" y="0" letter-spacing="0.02em">c</tspan><tspan x="49.44" y="0" letter-spacing="-0.01em">t</tspan><tspan x="54.79" y="0" letter-spacing="0em">er</tspan><tspan x="69.06" y="0" letter-spacing="-0.02em">s</tspan><tspan x="75.52" y="0">__x</tspan></text><text transform="translate(341.17 355.99)" font-size="15" fill="#fff" font-family="SalesforceSans-Semibold, Salesforce Sans" font-weight="600">id_<tspan x="22.62" y="0" letter-spacing="-0.04em">_</tspan><tspan x="31.17" y="0" letter-spacing="0em">c</tspan><tspan x="0" y="18" letter-spacing="-0.01em">n</tspan><tspan x="9.21" y="18">am</tspan><tspan x="31.95" y="18" letter-spacing="-0.04em">e</tspan><tspan x="39.93" y="18">_</tspan><tspan x="49.08" y="18" letter-spacing="-0.04em">_</tspan><tspan x="57.63" y="18">c</tspan><tspan x="0" y="36">visibl</tspan><tspan x="35.88" y="36" letter-spacing="-0.04em">e</tspan><tspan x="43.86" y="36">_</tspan><tspan x="53.01" y="36" letter-spacing="-0.04em">_</tspan><tspan x="61.56" y="36" letter-spacing="0em">c</tspan><tspan x="0" y="54">Displ</tspan><tspan x="35.34" y="54" letter-spacing="-0.03em">a</tspan><tspan x="43.33" y="54">yUrl</tspan><tspan x="0" y="72">E</tspan><tspan x="8.47" y="72" letter-spacing="-0.02em">x</tspan><tspan x="16.39" y="72" letter-spacing="-0.01em">t</tspan><tspan x="21.75" y="72" letter-spacing="0em">er</tspan><tspan x="36.01" y="72" letter-spacing="-0.01em">n</tspan><tspan x="45.22" y="72">al</tspan><tspan x="57.64" y="72" letter-spacing="-0.01em">I</tspan><tspan x="63.15" y="72">d</tspan></text><text transform="translate(329.77 453.23)" font-size="10" fill="#fff" font-family="SalesforceSans-Semibold, Salesforce Sans" font-weight="600">Salesfo<tspan x="33.8" y="0" letter-spacing="-0.02em">r</tspan><tspan x="37.43" y="0" letter-spacing="-0.02em">c</tspan><tspan x="42.35" y="0">e E</tspan><tspan x="56.35" y="0" letter-spacing="-0.02em">x</tspan><tspan x="61.63" y="0" letter-spacing="-0.01em">t</tspan><tspan x="65.2" y="0">er</tspan><tspan x="74.71" y="0" letter-spacing="-0.01em">n</tspan><tspan x="80.85" y="0">al Obje</tspan><tspan x="114.57" y="0" letter-spacing="0.02em">c</tspan><tspan x="119.84" y="0">t</tspan></text><g opacity="0.3"><path d="M36.83,151.85v24.76a10,10,0,0,0,10,10H593.64a10,10,0,0,0,10-10v-40.7c0-5.5,2.29-12.2,5.08-14.89a68.78,68.78,0,0,0,5.09-5.18,69.79,69.79,0,0,0-5.09-5.17c-2.79-2.69-5.08-9.4-5.08-14.9V55.08a10,10,0,0,0-10-10H46.83a10,10,0,0,0-10,10v96.77Z" fill="none" stroke="#29abe2" stroke-linecap="round" stroke-linejoin="round" stroke-width="2"/></g><g opacity="0.3"><path d="M36.83,408.24V455a10,10,0,0,0,10,10H593.64a10,10,0,0,0,10-10v-57.7c0-5.5,2.29-12.2,5.08-14.9a69.79,69.79,0,0,0,5.09-5.17,69.79,69.79,0,0,0-5.09-5.17c-2.79-2.7-5.08-9.4-5.08-14.9v-53.7a10,10,0,0,0-10-10H46.83a10,10,0,0,0-10,10V408.24Z" fill="none" stroke="#29abe2" stroke-linecap="round" stroke-linejoin="round" stroke-width="2"/></g></g></svg>