<svg xmlns="http://www.w3.org/2000/svg" xmlns:xlink="http://www.w3.org/1999/xlink" viewBox="0 0 116.09 129.32"><defs><style>.cls-1{opacity:0.7;}.cls-2{fill:url(#linear-gradient);}.cls-3{fill:url(#linear-gradient-2);}.cls-4{fill:url(#linear-gradient-3);}.cls-5{fill:url(#linear-gradient-4);}</style><linearGradient id="linear-gradient" x1="14.05" y1="64.66" x2="102.05" y2="64.66" gradientUnits="userSpaceOnUse"><stop offset="0" stop-color="#93aff0"/><stop offset="1" stop-color="#9ea2f6"/></linearGradient><linearGradient id="linear-gradient-2" x1="36.05" y1="89.16" x2="47.05" y2="89.16" xlink:href="#linear-gradient"/><linearGradient id="linear-gradient-3" x1="36.05" y1="64.66" x2="79.57" y2="64.66" xlink:href="#linear-gradient"/><linearGradient id="linear-gradient-4" x1="62.45" y1="38.5" x2="80.03" y2="38.5" xlink:href="#linear-gradient"/></defs><title>Artboard 50</title><g id="Stickers"><g class="cls-1"><path class="cls-2" d="M93.25,15.77H22.86a8.8,8.8,0,0,0-8.81,8.81v80.16a8.8,8.8,0,0,0,8.81,8.81H93.25a8.83,8.83,0,0,0,8.8-8.8V24.58a8.81,8.81,0,0,0-8.81-8.81m0,92.89H22.85a3.92,3.92,0,0,1-3.91-3.91V24.57a3.92,3.92,0,0,1,3.91-3.91h70.4a3.92,3.92,0,0,1,3.91,3.91v80.18A3.92,3.92,0,0,1,93.25,108.66Z"/><polygon class="cls-3" points="36.05 98.91 47.05 89.18 36.05 79.4 36.05 98.91"/><path class="cls-4" d="M75.79,59.36c-2-2-5.57-4.35-11.63-4.35a61.47,61.47,0,0,0-18.34,3.32V30.44H36.05V72.78L43,69.65c.1-.05,11.26-5,21.2-5,4.94,0,6.07,2.74,6.12,5V98.88h9.29V69.63a14.77,14.77,0,0,0-4.21-10.27"/><path class="cls-5" d="M62.45,46.57H72.58A29.28,29.28,0,0,0,80,30.44H70.1a39.19,39.19,0,0,1-7.45,16.13"/></g></g></svg>