<svg xmlns="http://www.w3.org/2000/svg" xmlns:xlink="http://www.w3.org/1999/xlink" viewBox="0 0 1920 1080"><defs><style>.cls-1{fill:#fff;}.cls-2{opacity:0.7;}.cls-3{fill:url(#linear-gradient);}.cls-4{fill:url(#linear-gradient-2);}.cls-5{fill:url(#linear-gradient-3);}.cls-6{fill:url(#linear-gradient-4);}.cls-10,.cls-11,.cls-12,.cls-13,.cls-14,.cls-15,.cls-7,.cls-9{fill:none;stroke-linecap:round;stroke-linejoin:round;}.cls-7,.cls-9{stroke:#7673c0;opacity:0.3;}.cls-10,.cls-13,.cls-7{stroke-width:3px;}.cls-10,.cls-8{opacity:0.5;}.cls-8{fill:url(#New_Gradient_Swatch_2);}.cls-9{stroke-width:2px;}.cls-10{stroke:url(#linear-gradient-5);}.cls-11,.cls-14,.cls-15{stroke-width:3.98px;}.cls-11{stroke:url(#New_Gradient_Swatch_2-2);}.cls-12{stroke-width:4px;stroke:url(#New_Gradient_Swatch_2-3);}.cls-13{opacity:0.8;stroke:url(#New_Gradient_Swatch_2-4);}.cls-14{stroke:url(#New_Gradient_Swatch_2-5);}.cls-15{stroke:url(#New_Gradient_Swatch_2-6);}</style><linearGradient id="linear-gradient" x1="929" y1="573" x2="1017" y2="573" gradientUnits="userSpaceOnUse"><stop offset="0" stop-color="#93aff0"/><stop offset="1" stop-color="#9ea2f6"/></linearGradient><linearGradient id="linear-gradient-2" x1="951" y1="597.5" x2="962" y2="597.5" xlink:href="#linear-gradient"/><linearGradient id="linear-gradient-3" x1="951" x2="994.52" xlink:href="#linear-gradient"/><linearGradient id="linear-gradient-4" x1="977.4" y1="546.84" x2="994.98" y2="546.84" xlink:href="#linear-gradient"/><linearGradient id="New_Gradient_Swatch_2" x1="535.2" y1="323.12" x2="658.2" y2="323.12" gradientUnits="userSpaceOnUse"><stop offset="0" stop-color="#7ec7e6"/><stop offset="1" stop-color="#b28cff"/></linearGradient><linearGradient id="linear-gradient-5" x1="1128.61" y1="584.55" x2="1414.73" y2="584.55" gradientUnits="userSpaceOnUse"><stop offset="0" stop-color="#8db6ed"/><stop offset="0.91" stop-color="#b28cff"/></linearGradient><linearGradient id="New_Gradient_Swatch_2-2" x1="490.32" y1="896" x2="1454.3" y2="896" xlink:href="#New_Gradient_Swatch_2"/><linearGradient id="New_Gradient_Swatch_2-3" x1="470.42" y1="573.5" x2="1474.58" y2="573.5" xlink:href="#New_Gradient_Swatch_2"/><linearGradient id="New_Gradient_Swatch_2-4" x1="-1.5" y1="529.67" x2="1921.61" y2="529.67" xlink:href="#New_Gradient_Swatch_2"/><linearGradient id="New_Gradient_Swatch_2-5" x1="1369.05" y1="899" x2="1373.03" y2="899" xlink:href="#New_Gradient_Swatch_2"/><linearGradient id="New_Gradient_Swatch_2-6" x1="556.09" y1="899" x2="560.07" y2="899" xlink:href="#New_Gradient_Swatch_2"/></defs><title>Artboard 1 copy 4</title><g id="white_masking" data-name="white masking"><path class="cls-1" d="M1448.58,259H496.42a24,24,0,0,0-24,24l11,410.58h0l6,179.82a17.93,17.93,0,0,0,2.84,8.72v16.23a10,10,0,0,0,10,9.95h940.09a10,10,0,0,0,10-9.95V882.52a17.9,17.9,0,0,0,3.11-9.23l4.85-179.71h0L1472.58,283A24,24,0,0,0,1448.58,259Z"/><path class="cls-1" d="M1745.79,709c-3.35-2.9-11.55-8.19-21.69-13.83h-2.91c-18.55-10.07-42.38-20.67-55.58-20.67H1557.69c-23.45,0-43.45,5.56-55.57,20.67h-1.22c-7.12,9.7-11.21,23-11.21,41h0c0,10.64,58.3,46.18,69.35,46.18H1757c11,0,20-8.62,20-19.26h0C1777,743.22,1760,721.35,1745.79,709Z"/><path class="cls-1" d="M447.1,544.15h-228a3,3,0,0,0-3,3v22.53c-50.13.87-90.53,46.13-90.53,101.87a113,113,0,0,0,2.17,22h.32c9.52,44.37,45.23,77.49,88,78.23v3.54a20,20,0,0,0,20,20h4v4a10,10,0,0,0,10,10h166a10,10,0,0,0,10-10v-4h4a20,20,0,0,0,20-20V547.15A3,3,0,0,0,447.1,544.15Zm-231,149.43v39.78c-22.92-.63-42.48-16.17-51.11-38.18h-.61a69.22,69.22,0,0,1-4.12-23.63c0-34.52,24.87-62.56,55.84-63.42Z"/></g><g id="ecosystem"><g class="cls-2"><path class="cls-3" d="M1008.2,524.11H937.81a8.8,8.8,0,0,0-8.81,8.81v80.16a8.81,8.81,0,0,0,8.81,8.81h70.39a8.83,8.83,0,0,0,8.8-8.8V532.92a8.8,8.8,0,0,0-8.81-8.81m0,92.89H937.8a3.92,3.92,0,0,1-3.91-3.91V532.91A3.92,3.92,0,0,1,937.8,529h70.4a3.92,3.92,0,0,1,3.91,3.91v80.18A3.92,3.92,0,0,1,1008.2,617Z"/><polygon class="cls-4" points="951 607.25 962 597.52 951 587.74 951 607.25"/><path class="cls-5" d="M990.75,567.7c-2-2-5.58-4.35-11.64-4.35a61.4,61.4,0,0,0-18.33,3.32V538.78H951v42.34l6.9-3.13c.1,0,11.26-5,21.2-5,4.95,0,6.07,2.74,6.12,5v29.23h9.29V578a14.79,14.79,0,0,0-4.2-10.27"/><path class="cls-6" d="M977.4,554.91h10.13A29.21,29.21,0,0,0,995,538.78h-9.93a39.3,39.3,0,0,1-7.44,16.13"/></g><path class="cls-7" d="M1412.63,361.84a28.78,28.78,0,0,0-20.23-9.06c-.68,0-1.35,0-2,0a19.76,19.76,0,0,0-3.75-5.64,20.08,20.08,0,0,0-13.27-6.29,33.67,33.67,0,0,0-13-17.48,34.85,34.85,0,0,0-52.2,15.55h0a26,26,0,0,0-14.89,4.69l0,0c-.41.28-.8.58-1.19.89l-.41.33c-.33.28-.66.55-1,.84l-.31.28c-.4.37-.78.76-1.16,1.16l-.28.3q-.45.49-.87,1l-.28.33q-.46.6-.9,1.23l-.41.6c-.14.22-.28.44-.41.66a24.68,24.68,0,0,0-2,4,25.82,25.82,0,0,0-25.39,24.84,25.3,25.3,0,0,0,6.93,18.22,25.9,25.9,0,0,0,18.2,8.16,26.54,26.54,0,0,0,10.38-1.83,26.11,26.11,0,0,0,34.12,3.66,37.63,37.63,0,0,0,18.93,5.72l1.14,0a37.57,37.57,0,0,0,25.85-10.2,29,29,0,0,0,6.63,3.71l.48.18,1.26.45,1,.3.54.15c.49.14,1,.25,1.49.36l.45.09c.52.1,1,.19,1.57.27l.4.05c.53.06,1.07.12,1.61.16l.36,0,.79,0h.4l.5,0,.5,0h.21a28.93,28.93,0,0,0,12.25-3.05,7.69,7.69,0,0,0,.69-.39,28.4,28.4,0,0,0,15.1-24.15A28.08,28.08,0,0,0,1412.63,361.84Z"/><path class="cls-8" d="M535.2,332.39v-2.52h3.15v-8.05h-3V319.3h6.14v10.57h2.86v2.52Zm3.53-15.62a1.9,1.9,0,0,1-.71-.67,1.85,1.85,0,0,1,.29-2.26,1.93,1.93,0,0,1,1.41-.52,1.91,1.91,0,0,1,1,.25,2,2,0,0,1,.74.69,1.68,1.68,0,0,1,.27.92,1.7,1.7,0,0,1-.27.92,2,2,0,0,1-.74.67,1.92,1.92,0,0,1-1,.26A2,2,0,0,1,538.73,316.77Zm32.63,14.52-12.25-7.17v-1.63l12.16-6.42v2.78l-8.75,4.48,8.84,5Zm13.82-6.67a4.63,4.63,0,0,1,.84,2.87,5.51,5.51,0,0,1-.71,2.76,5,5,0,0,1-2,1.95,7.43,7.43,0,0,1-8.61-1.63L576,328h0l0,0a3.87,3.87,0,0,0,1.6,1.71,5.5,5.5,0,0,0,2.56.52,2.61,2.61,0,0,0,2-.77,2.93,2.93,0,0,0,.72-2.07,2.63,2.63,0,0,0-.79-2.1,4,4,0,0,0-2.66-.69c-.44,0-.92,0-1.46.08v-2.53h.59a4.86,4.86,0,0,0,3-.69,2.41,2.41,0,0,0,.84-1.95,2.32,2.32,0,0,0-.59-1.64,2.21,2.21,0,0,0-1.68-.63,4.58,4.58,0,0,0-1.75.33,5.93,5.93,0,0,0-1.67,1.13l-1.77-1.8a6.32,6.32,0,0,1,2.33-1.78,7.09,7.09,0,0,1,2.83-.58,6.41,6.41,0,0,1,2.84.61,4.72,4.72,0,0,1,1.93,1.67,4.28,4.28,0,0,1,.7,2.38,4.1,4.1,0,0,1-.72,2.43,4.28,4.28,0,0,1-1.72,1.47A4.28,4.28,0,0,1,585.18,324.62Zm-9.25,3.14s0,0,0,0l.11,0-.08.16A.35.35,0,0,1,575.93,327.76Zm.45.15,0,0a.33.33,0,0,1-.14-.07l-.16-.08,0,0,.28.14Zm32.17,1.82a4.6,4.6,0,0,0,1.59-1.32l1.82,2.1a6.61,6.61,0,0,1-2.37,1.76,7,7,0,0,1-2.79.57,6.61,6.61,0,0,1-3.42-.89,6.19,6.19,0,0,1-2.35-2.46,7.82,7.82,0,0,1,0-7.05,6.34,6.34,0,0,1,2.36-2.51,6.51,6.51,0,0,1,3.44-.92,7.06,7.06,0,0,1,3,.66,5.25,5.25,0,0,1,2.21,1.86l-1.75,2.06v0h0a3.94,3.94,0,0,0-1.39-1.49,4.06,4.06,0,0,0-2.07-.48,3,3,0,0,0-1.75.55,3.69,3.69,0,0,0-1.24,1.54,5.43,5.43,0,0,0-.46,2.3,5.11,5.11,0,0,0,.43,2.18,3.37,3.37,0,0,0,1.21,1.44,3.27,3.27,0,0,0,1.78.5A3.9,3.9,0,0,0,608.55,329.73Zm1.37-6.17s0,0,0,0,.15.06.28.19l-.06.07-.25-.21Zm.47.24s0,0,0,0-.08,0-.15-.11l.08-.1Zm8,8.15a6.22,6.22,0,0,1-2.25-2.48,7.83,7.83,0,0,1-.82-3.61,7.21,7.21,0,0,1,.84-3.47,6.35,6.35,0,0,1,2.26-2.47,5.84,5.84,0,0,1,6.26,0,6.35,6.35,0,0,1,2.26,2.47,7.21,7.21,0,0,1,.84,3.47,7.71,7.71,0,0,1-.82,3.61,6.22,6.22,0,0,1-2.25,2.48,6.05,6.05,0,0,1-6.32,0Zm4.78-2.2a3.44,3.44,0,0,0,1.06-1.56,6.66,6.66,0,0,0,.37-2.33,6.45,6.45,0,0,0-.37-2.32,3.27,3.27,0,0,0-1.06-1.49,2.66,2.66,0,0,0-1.62-.52,2.55,2.55,0,0,0-1.57.52,3.38,3.38,0,0,0-1,1.5,6.42,6.42,0,0,0-.38,2.31,6.74,6.74,0,0,0,.37,2.35,3.39,3.39,0,0,0,1,1.55,2.43,2.43,0,0,0,1.6.55A2.51,2.51,0,0,0,623.2,329.75Zm10.35,2.3a5.12,5.12,0,0,1-2-2.28,9.65,9.65,0,0,1,0-7.46,5.91,5.91,0,0,1,2-2.45,4.94,4.94,0,0,1,2.77-.85,4.12,4.12,0,0,1,1.61.37,4.27,4.27,0,0,1,1.41.95v-6.86h3.43v.31a.7.7,0,0,0-.19.37,2.91,2.91,0,0,0,0,.66l-.06,16a5.39,5.39,0,0,0,.06.85,2.4,2.4,0,0,0,.24.73h-3.05a1.75,1.75,0,0,1-.22-.67,7.05,7.05,0,0,1,0-.91,3,3,0,0,1-1.3,1.5,3.71,3.71,0,0,1-1.83.5A5.42,5.42,0,0,1,633.55,332.05Zm5.86-6.36a6.86,6.86,0,0,0-.55-3,2,2,0,0,0-1.94-1.12,2.4,2.4,0,0,0-2.21,1.23A6.2,6.2,0,0,0,634,326a5.81,5.81,0,0,0,.43,2.41,3.17,3.17,0,0,0,1.08,1.36,2.37,2.37,0,0,0,1.35.43Q639.41,330.2,639.41,325.69ZM649.59,332a5.86,5.86,0,0,1-2.32-2.36,7.5,7.5,0,0,1-.84-3.64,8.21,8.21,0,0,1,.79-3.71,5.83,5.83,0,0,1,2.21-2.44,6,6,0,0,1,3.19-.86,5.57,5.57,0,0,1,2.84.74,5.09,5.09,0,0,1,2,2.17,7.53,7.53,0,0,1,.74,3.49c0,.22,0,.53-.05.93l0,.38h-8.58a4.38,4.38,0,0,0,1.12,2.71,3,3,0,0,0,2.19.91,4.35,4.35,0,0,0,1.82-.42,4.08,4.08,0,0,0,1.51-1.17l1.73,1.74a6.2,6.2,0,0,1-4.95,2.35A6.81,6.81,0,0,1,649.59,332Zm5.48-7.6a3.52,3.52,0,0,0-.33-1.52,2.69,2.69,0,0,0-.91-1.11,2.35,2.35,0,0,0-1.38-.42,2.42,2.42,0,0,0-1.9.83,3.88,3.88,0,0,0-.91,2.22Z"/><path class="cls-9" d="M514.87,323.06v.12a18.92,18.92,0,0,0,18.92,18.92H659.61a18.92,18.92,0,0,0,18.92-18.92h0a18.92,18.92,0,0,0-18.9-18.92l-125.83-.12A18.93,18.93,0,0,0,514.87,323.06Z"/><path class="cls-10" d="M1348.22,407h-.93a30.56,30.56,0,0,1-19.56-7.79,19,19,0,0,1-31.58-3.79,19.05,19.05,0,0,1-12.28,4,18.82,18.82,0,0,1-13.27-5.93,18.28,18.28,0,0,1-5-13.17h0a18.93,18.93,0,0,1,23.7-17.37,18.77,18.77,0,0,1,18.78-17h.57a19.33,19.33,0,0,1,4.55.69,27.59,27.59,0,0,1,54.52,1.85,13.22,13.22,0,0,1,13.73,3.45,12.67,12.67,0,0,1,3.48,8.83,22.07,22.07,0,0,1,22.52,5.86,21.09,21.09,0,0,1,5.78,15.18,21.61,21.61,0,0,1-21.73,20.75h-.66a21.89,21.89,0,0,1-17.16-9.12A30.4,30.4,0,0,1,1348.22,407Zm.87-47.6a7.5,7.5,0,0,0,.78-5.78,7.64,7.64,0,0,0-3.64-4.67,10.53,10.53,0,0,0-14.22,3.79,13.72,13.72,0,0,0-1.43,10.6,14,14,0,0,0,6.68,8.57,19.94,19.94,0,0,0,26.91-7.14,26.72,26.72,0,0,0-10-36.93m27.91,55.72a6.41,6.41,0,0,0,8.54,2.74,8.32,8.32,0,0,0,4.22-4.89,8.18,8.18,0,0,0-.53-6.32A11.51,11.51,0,0,0,1379,370.2a15.39,15.39,0,0,0-7.83,9.05,15.16,15.16,0,0,0,1,11.71,22,22,0,0,0,29.24,9.34m-104.15-50.87a18.35,18.35,0,0,0-4.39,25.89,13.82,13.82,0,0,0,19,3.13,9.76,9.76,0,0,0,2.33-13.77,7.54,7.54,0,0,0-10.38-1.71,5.54,5.54,0,0,0-1.32,7.82M1266.23,680l5.52-3.64a6.09,6.09,0,0,1,9.44,4.81v.28a17.13,17.13,0,0,0,15.3,3.84,6,6,0,0,1,3.5,5.1v.19a6.09,6.09,0,0,1,8.85,5.3m-43.17-8.81v-.46a16.06,16.06,0,0,1-11.21-9.27,5.43,5.43,0,0,0-5.31,0v0a5.59,5.59,0,0,0-9.13.46l-.07.11a5.58,5.58,0,0,0-8.17,4.95m20.6,88a.36.36,0,0,1-.2.06.42.42,0,0,1-.21-.06.4.4,0,0,1-.2-.35v-6.36a.39.39,0,0,1,.21-.35.4.4,0,0,1,.42,0l5.21,3.35a.39.39,0,0,1,.18.35.4.4,0,0,1-.2.34Zm.78,4.93c7.66-4.51,7.56-4.34,8.19-4.82,1.56-1.19,7.25-4.24,7.25-6.19s-5.4-5-7.73-6.31l-28.12-15.55c-.07,0-9.26-4.56-8.5-15.42v-9.64l-8-4.55m8.36,4.41,8.18-4.45m30.15,30.81,10.4-6.09a32,32,0,0,1,31.66-.39l.15.09a5.5,5.5,0,0,0,5.39,0l5-2.88.15,1.48a5.48,5.48,0,0,0,8.19,4.17l1.3-.74v1.26a5.45,5.45,0,0,0,2.69,4.69,5.51,5.51,0,0,0,2.79.77,5.58,5.58,0,0,0,2.62-.67l1.69-.92a4.72,4.72,0,0,0,6.72-4.22v-.78a4.63,4.63,0,0,0,.26-7.85,4.63,4.63,0,0,0-.42-7.74l-.15-.09a9.37,9.37,0,0,0-5.63-1.48v-3.09a4.31,4.31,0,0,0-6.41-3.77l-2.6,1.45,0-2.81a4.32,4.32,0,0,0-6.5-3.77l-2.38,1.4v-3.18a4.31,4.31,0,0,0-6.34-3.81,1.91,1.91,0,0,1-2.82-1.68v-1.62m-75-13.71a5.31,5.31,0,0,0-8.19,4.11l-.36-.2a5.3,5.3,0,0,0-7.91,4.39l-1.27-.73a5.2,5.2,0,0,0-7.8,4.5v1.53l-1.75-1a4.82,4.82,0,0,0-7.24,3.79l-.21,2.79-2.7-.5a4.66,4.66,0,0,0-5.3,3.2m117.4,15.5v-1.63a5,5,0,0,0-7.6-4.25l-.44.27-.07-1.17a5,5,0,0,0-7.58-4l-1.29.79m-55.82,63.23a.4.4,0,0,1,.4.4,2.29,2.29,0,0,1-1.15,2l-4.76,2.75a1.49,1.49,0,0,0-.74,1.26l-.1,6.49,3.19,1.87m7-14.54.59.33a2.41,2.41,0,0,0,3.62-2.1v-.45l.34-.2a2.35,2.35,0,0,0,1.2-2.09,2.39,2.39,0,0,0-1.21-2.09l-4-2.27v-.31a2.4,2.4,0,0,0-3.68-2.05l-.31.19-.32-.2a2.41,2.41,0,0,0-3.69,1.92l-2-1.15a2.43,2.43,0,0,0-2.42,0l-1.91,1.1a2.41,2.41,0,0,0-3.61-2l-.45.25-2.3-1.39a2.42,2.42,0,0,0-2.44,0l-1.6.91a2.41,2.41,0,0,0-1.22,2.15l.05,2.69-.46.27a2.41,2.41,0,0,0,0,4.2l.35.2v.42a2.41,2.41,0,0,0,3.62,2.09h0a2.41,2.41,0,0,0,3.71,1.78l3.41-2a2.42,2.42,0,0,0,3.6,2.06l.59-.33m16.45,9.94,2.65,1.43a2.08,2.08,0,0,0,2.07-3.61l-.67-.41v-.8a2.09,2.09,0,0,0-1-1.77,2.05,2.05,0,0,0-2.06,0l-.33.19v-.26a2.08,2.08,0,0,0-3.12-1.81l-.66.38-.6-.35a2.09,2.09,0,0,0-3.14,1.84v.2l-2-1.11a2.11,2.11,0,0,0-2.08,0,2.08,2.08,0,0,0,0,3.6l.65.38v.73a2.08,2.08,0,0,0,1,1.8,2,2,0,0,0,2.07,0l.88-.49M1328,774.81a.39.39,0,0,0,.18,0,4.7,4.7,0,0,0,.58-8,4.69,4.69,0,0,0,0-8l-.56-.34,0-.5a4.2,4.2,0,0,0-2-3.71,4.16,4.16,0,0,0-4.2-.14l-.67.35a4.22,4.22,0,0,0-6.47-3.4v-.55a4.23,4.23,0,0,0-6.43-3.6l-.05,0v0a4.23,4.23,0,0,0-6.76-3.27l-.5.38-.17-.11a4.22,4.22,0,0,0-6.66,2.94,12.73,12.73,0,0,1-11,4.1,4.67,4.67,0,0,0-2.41,3.51l-6.82-3.83M1214.77,723v-1.88a5.22,5.22,0,0,0-7.82-4.53l-1.06.6V717a5.23,5.23,0,0,0-8-4.65l-1.19.74a5.22,5.22,0,0,0-8.2,4.11,15.12,15.12,0,0,1-14.27,5.49,6,6,0,0,0-3.18,5.27l-2.89,1.67a3.81,3.81,0,0,0,.17,6.69l2.43,1.25a.37.37,0,0,0,.18,0m10.07,56a2.2,2.2,0,0,1,2.19-2.19h19.27a2.2,2.2,0,0,1,2.19,2.19v.31a2.2,2.2,0,0,1-2.19,2.19h-19.27a2.2,2.2,0,0,1-2.19-2.19Zm10.23,28.9a.4.4,0,0,0,.41-.4v-4.57a.42.42,0,0,0-.2-.35.43.43,0,0,0-.41,0l-3.92,2.21a.41.41,0,1,0,.39.71l3.33-1.88v3.88A.4.4,0,0,0,1191.28,822.48Zm134.89-24h-16.68A1.47,1.47,0,0,0,1308,800v.44a1.47,1.47,0,0,0,1.47,1.48h16.68a1.48,1.48,0,0,0,1.48-1.48V800A1.48,1.48,0,0,0,1326.17,798.5Zm-118.85-69.4a5.08,5.08,0,0,0-7.77,4.31v0a5.08,5.08,0,0,0-7.27,4.43l-.38-.24a5.07,5.07,0,0,0-7.76,4.31v.51a5.07,5.07,0,0,0-7.71,4.34v.44a.39.39,0,0,0,.19.34l3.09,1.89a9.87,9.87,0,0,0,10.18.09,20.08,20.08,0,0,1,20.47.05,10,10,0,0,0,5.08,1.39,9.88,9.88,0,0,0,4.86-1.27l2.93-1.63m19.48,40.68c0,2.22-1.24,5-3.15,6.12l-2.76,1.37h0s0,0,0,0,0,0,0,0,0,0,0,0h0s0,0,0,0l-.13,8m.13-8,4,2.34a3.75,3.75,0,0,1,1.88,3.28l0,9.29,1.69,1.12a3.78,3.78,0,0,1,1.68,3.14v7.09l.08,0,3,1.75a1.93,1.93,0,0,0,1.92,0l3-1.75a.41.41,0,0,1,.4,0l3,1.75a1.93,1.93,0,0,0,1.92,0l3-1.75a.43.43,0,0,1,.41,0l3,1.75a2,2,0,0,0,1.93,0l3-1.75a.43.43,0,0,1,.41,0l3,1.75a1.93,1.93,0,0,0,1.92,0l3-1.75a.41.41,0,0,1,.4,0l3,1.75a1.93,1.93,0,0,0,1.92,0l1.26-.73a4.09,4.09,0,0,1,4-.08l2.3,1.2M1302,830l-1.51.88a2.41,2.41,0,0,1-2.41,0l-3.66-2.11a.36.36,0,0,0-.4,0l-3.66,2.11a2.39,2.39,0,0,1-2.4,0l-3.66-2.11a.41.41,0,0,0-.4,0l-3.66,2.11a2.41,2.41,0,0,1-2.41,0l-3.65-2.11a.38.38,0,0,0-.41,0l-3.65,2.11a2.41,2.41,0,0,1-2.41,0l-3.66-2.11a.36.36,0,0,0-.4,0l-3.66,2.11a2.41,2.41,0,0,1-2.41,0l-3.65-2.11a.4.4,0,0,0-.42,0l-4.85,3.14M1285,843.71l-1.52.87a2.41,2.41,0,0,1-2.41,0l-3.65-2.11a.43.43,0,0,0-.41,0l-3.65,2.11a2.41,2.41,0,0,1-2.41,0l-3.66-2.11a.41.41,0,0,0-.4,0l-3.66,2.11a2.41,2.41,0,0,1-2.41,0l-3.65-2.11a.43.43,0,0,0-.41,0l-3.65,2.11M1209,829.09l3.06-1.7a.38.38,0,0,1,.4,0l3,1.79a1.94,1.94,0,0,0,1.92,0l3.06-1.71a.38.38,0,0,1,.4,0l3,1.79a2,2,0,0,0,1.93,0l3-1.7a.38.38,0,0,1,.4,0l3,1.79a1.93,1.93,0,0,0,1.92,0l3-1.7a.43.43,0,0,1,.41,0l.77.46V815.5a3,3,0,0,0-1.48-2.56l-8.36-4.83a.42.42,0,0,1-.2-.35V801.9a3,3,0,0,0-1.49-2.57l-5.1-2.91a.38.38,0,0,1-.2-.36l0-1.88a3,3,0,0,0-1.45-2.59l-4.83-2.86-10.73,0a4.82,4.82,0,0,0-3.63,1.68m14.3-2.53a.35.35,0,0,1,.17,0l6.58-3.76m17.21,44.57,1.42.85a1.91,1.91,0,0,0,1.92,0l1.27-.7M1197,772.64a.46.46,0,0,0,.2.05.39.39,0,0,0,.35-.2.42.42,0,0,0-.15-.56l-3.55-2h0l-.14,0h0a.23.23,0,0,0-.14,0h0l-.1,0-3.51,2a.41.41,0,0,0,.41.7l2.9-1.68v3.12L1190,776a.42.42,0,0,0-.15.56.42.42,0,0,0,.36.2.41.41,0,0,0,.2-.06l2.88-1.66v3l-3.29,1.9a.41.41,0,1,0,.41.7l2.88-1.67v9.34a.41.41,0,1,0,.81,0V778.9l3,1.8a.4.4,0,1,0,.42-.69l-3.37-2.06V775l2.89,1.65a.4.4,0,0,0,.55-.16.41.41,0,0,0-.15-.55l-3.29-1.87V771ZM1207.2,779a.37.37,0,0,0,.2,0,.39.39,0,0,0,.35-.2.39.39,0,0,0-.15-.55l-3.55-2h0a.35.35,0,0,0-.13,0h0a.37.37,0,0,0-.23,0l-3.51,2a.41.41,0,0,0-.15.56.4.4,0,0,0,.55.14l2.91-1.68v3.13l-3.29,1.89a.41.41,0,0,0-.15.56.39.39,0,0,0,.35.2.46.46,0,0,0,.2-.05l2.89-1.67v3.2a.41.41,0,1,0,.81,0v-3.2l2.88,1.64a.41.41,0,0,0,.4-.71l-3.28-1.87v-3.12Zm80.6-2.11,1.57,1.77a5,5,0,0,0,3.74,1.7,5.15,5.15,0,0,0,1.1-.12,5,5,0,0,1,8.07-2,5,5,0,0,0,3.79-3.39l.1-.31a13.72,13.72,0,0,1,12.58-.44,5,5,0,0,0,3.78-3.53l.09-.32m-12.81-5.48,3.3,1.72M1248,762.61l-4.51-2.67m-62.27,25.9a.39.39,0,0,0,.35.2.41.41,0,0,0,.2-.06l4-2.35a.41.41,0,0,0,.21-.35.43.43,0,0,0-.2-.35l-4-2.48a.41.41,0,1,0-.43.69l3.48,2.13-3.47,2A.41.41,0,0,0,1181.24,785.84Zm-34.11,41.51h-17m71.7.4h-21.47m15.13-30.08-3.21,4.28,5.53,11.38,6.18-6.7m-6.13,6.84,9.76-3.21m-9.76,3.21,6.75,3.59m14.35,8.76,6.76-4a.39.39,0,0,0,.17-.47l0-5.65a3.77,3.77,0,0,0-1.86-3.25l-8.67-4.85V802a3.07,3.07,0,0,0-1.66-2.9l-4.65-3.2.14-2m4.13,19.53,2-5.59V802m-.6-78.93v-1.88a5.22,5.22,0,0,0-7.82-4.53l-1.06.6V717a5.23,5.23,0,0,0-8-4.65l-1.19.74a5.22,5.22,0,0,0-8.2,4.11,15.12,15.12,0,0,1-14.27,5.49,6,6,0,0,0-3.18,5.27l-2.89,1.67a3.81,3.81,0,0,0,.17,6.69l2.43,1.25m17.69,62.35h-16.3a1.73,1.73,0,0,0-1.85,1.56v.2a1.73,1.73,0,0,0,1.85,1.56h9.64a2.38,2.38,0,1,1,0,4.72h-17.95a1.73,1.73,0,0,0-1.85,1.55v.62a1.72,1.72,0,0,0,1.85,1.55h29.75m-2.35,10.82a.4.4,0,0,0,.41-.4v-4.57a.42.42,0,0,0-.2-.35.43.43,0,0,0-.41,0l-3.92,2.21a.41.41,0,1,0,.39.71l3.33-1.88v3.88A.4.4,0,0,0,1191.28,822.48Zm138-16.18h17.58c.68,0,1.23-.74,1.23-1.64v-.4c0-.91-.55-1.64-1.23-1.64H1334a2.49,2.49,0,0,1,0-4.89h4.46m-63.75-5.63v-5.2a.4.4,0,0,0-.2-.35.38.38,0,0,0-.4,0l-4.57,2.52m32.4,41-1.51.88a2.41,2.41,0,0,1-2.41,0l-3.66-2.11a.36.36,0,0,0-.4,0l-3.66,2.11a2.39,2.39,0,0,1-2.4,0l-3.66-2.11a.41.41,0,0,0-.4,0l-3.66,2.11a2.41,2.41,0,0,1-2.41,0l-3.65-2.11a.38.38,0,0,0-.41,0l-3.65,2.11a2.41,2.41,0,0,1-2.41,0l-3.66-2.11a.36.36,0,0,0-.4,0l-3.66,2.11a2.41,2.41,0,0,1-2.41,0l-3.65-2.11a.4.4,0,0,0-.42,0l-4.85,3.14m26.72,4.94-1.51.88a2.41,2.41,0,0,1-2.41,0l-3.66-2.11a.36.36,0,0,0-.4,0l-3.66,2.11a2.39,2.39,0,0,1-2.4,0l-3.66-2.11a.38.38,0,0,0-.41,0l-3.65,2.11a2.41,2.41,0,0,1-2.41,0l-3.65-2.11a.38.38,0,0,0-.41,0l-3.66,2.11a2.39,2.39,0,0,1-2.4,0l-3.66-2.11a.36.36,0,0,0-.4,0l-3.66,2.11a2.41,2.41,0,0,1-2.41,0l-3.65-2.11a.38.38,0,0,0-.42,0l-4.86,3.14M1332,813h22.51a1.86,1.86,0,0,1,1.86,1.86v.38a1.87,1.87,0,0,1-1.86,1.86h-16.84a2.67,2.67,0,0,0,0,5.34h23.79m-180.19-36.63a.39.39,0,0,0,.35.2.41.41,0,0,0,.2-.06l4-2.35a.41.41,0,0,0,.21-.35.43.43,0,0,0-.2-.35l-4-2.48a.41.41,0,1,0-.43.69l3.48,2.13-3.47,2A.41.41,0,0,0,1181.24,785.84Zm2.35,31.34h-37a2.88,2.88,0,0,0-2.86,2.25,2.81,2.81,0,0,0,2.75,3.37h24.24a2.38,2.38,0,0,1,2.38,2.38h0a2.38,2.38,0,0,1-2.38,2.38h-18.88m-4.66-.22h-17m242.65.4H1324.4a12.66,12.66,0,0,0-17.21-18.51v-.08a5.48,5.48,0,0,0-1.51-4,5.72,5.72,0,0,0-4-1.79,5.9,5.9,0,0,0-2.28.4,12.54,12.54,0,0,0-.4-2.49,12,12,0,0,0-5.71-7.32.59.59,0,0,0-.19,0,12.25,12.25,0,0,0-18.17,9.71,12.69,12.69,0,0,0-5.06-1,12.87,12.87,0,0,0-12.58,10.29c-.51,0-1-.06-1.56,0a13.1,13.1,0,0,0-3.18.5m56.13,9a2.23,2.23,0,0,0,1.84,2.54,3,3,0,0,0,3.44-2.49,4.12,4.12,0,0,0-3.41-4.7,5.88,5.88,0,0,0-4.55,1.17,5.08,5.08,0,0,0-2,3.59,7.85,7.85,0,0,0,2,6.46c2.46,2.49,6.41,2.83,8.4,2.83.48,0,.85,0,1.06,0a12.64,12.64,0,0,0,8.1-3.15.37.37,0,0,0,.15,0M1290.87,808a3.12,3.12,0,0,0,.33-2.42,3.2,3.2,0,0,0-1.53-2,4.52,4.52,0,0,0-6.11,1.62,6,6,0,0,0-.62,4.63,6.1,6.1,0,0,0,2.91,3.74,8.82,8.82,0,0,0,11.91-3.16,12,12,0,0,0,1.65-5.77M1258.1,813a12.65,12.65,0,0,1,3.37,1m86.58-20.11-8.79-4.85a7.52,7.52,0,0,0-7.34,0l-5.68,3.13-11.19-6.9a7.57,7.57,0,0,0-8,0l-8.81,5.42m-41,11.73a12.68,12.68,0,0,1,2.11-20.3l17.78-10.48a7.78,7.78,0,0,0,0-13.43l-41-23.24c-3.74-2.23-3.66-4.88-3.55-8.55,0-.69,0-1.41,0-2.19v-1.81a.4.4,0,0,1,.6-.35l2.8,1.56a3.26,3.26,0,0,0,4.85-2.84.42.42,0,0,1,.2-.35.43.43,0,0,1,.41,0l1.48.87a6.5,6.5,0,0,0,6.7-.07l1.37-.84m-1.55,21.21,2.15-1.4a12.2,12.2,0,0,0,5.54-10.24v-3.2m-1.87-4.68v.49a3.81,3.81,0,0,0,5.56,3.38l.51-.26a.41.41,0,0,1,.39,0,.41.41,0,0,1,.2.35v.24a3.81,3.81,0,0,0,5.83,3.22l.2-.12m-5.06.54v2.67a13,13,0,0,1-5.9,10.92l-1.93,1.27m16.52,31.05,1.52.87a10.26,10.26,0,0,0,10.16,0l24.45-14.11v-3.07"/><path class="cls-9" d="M1373,819.8h-3.86a7.65,7.65,0,0,0-4.53-5.51v-.13a9.9,9.9,0,0,0-8.27-9.76c0-.16,0-.31,0-.47v-.41a9.88,9.88,0,0,0-1.88-5.83c.1-.16.21-.32.3-.49a7.62,7.62,0,0,0-3-10.37L1343,782a14.73,14.73,0,0,0-14.33,0h0l-2,1.09-4.82-3a13.62,13.62,0,0,0,1.42-.58,7.57,7.57,0,0,0,4.92,1.79,7.73,7.73,0,0,0,3.41-.8,11.82,11.82,0,0,0,6.57-10,12.22,12.22,0,0,0-.52-4.28,11.94,11.94,0,0,0,.78-4.23,11.76,11.76,0,0,0-3.25-8.24,10.75,10.75,0,0,0-.56-1.5,13.14,13.14,0,0,0,1.58-.6,12,12,0,0,0,7.08-1.65,30.21,30.21,0,0,0,8.15-14.73,12,12,0,0,0-.69-4.28,11.91,11.91,0,0,0-5.4-13.82l-.15-.09-.06,0a22,22,0,0,0-2.29-1.13,11.42,11.42,0,0,0-5.34-7.09,11.82,11.82,0,0,1-9-5.22,11.25,11.25,0,0,1-8.73-5.42,11.69,11.69,0,0,0-3.61-1.41,7.87,7.87,0,0,0,.19-1.82,13.18,13.18,0,0,0-7-11.45,15.35,15.35,0,0,1-9.5-5.53,13.49,13.49,0,0,0-5-1.24,13.2,13.2,0,0,0-3.79-2.89,13.53,13.53,0,0,1-9.57-5,13.17,13.17,0,0,0-13.36.75l-5.49,3.61c-.26,0-.52-.08-.79-.1a12.87,12.87,0,0,0-3.58-2.86,509.06,509.06,0,0,1-13.79-3,119.73,119.73,0,0,1-13.31,3.88,12.65,12.65,0,0,0-6.17,9.69,12.64,12.64,0,0,0-3.12,2.48,12.4,12.4,0,0,0-5.29,1.69,12.73,12.73,0,0,0-2.5,1.91,12.59,12.59,0,0,0-10.37,5.07,85.13,85.13,0,0,0-19.28,15,7.39,7.39,0,0,0-.31,1.78,13.44,13.44,0,0,0-8.61,5.3,13.79,13.79,0,0,0-4.36,1.47,13.25,13.25,0,0,0-6.1,7l-.12.07a11,11,0,0,0,.48,19.37l2.4,1.22a7.36,7.36,0,0,0,1.94.69,12,12,0,0,0-.2,2.16v.44a7.65,7.65,0,0,0,3.65,6.5l3.08,1.89a17.08,17.08,0,0,0,17.61.15,12.88,12.88,0,0,1,13.11,0,17.18,17.18,0,0,0,17.17.22l2.92-1.63a7.55,7.55,0,0,0,3.61-4.57l8.17,4.52a7.52,7.52,0,0,0-2.85,5.8,9.7,9.7,0,0,0-5.37.84,10,10,0,0,0-2.68,0,34.3,34.3,0,0,0-14.27-.93l-1.6.91a9.63,9.63,0,0,0-4.87,8.14c-.09.14-.18.28-.26.43a7.58,7.58,0,0,0-1.48-.42l-.19,0-.52-.06h-.32a7.61,7.61,0,0,0-3.1-3.33l-3.55-2-.35-.19h0a7.36,7.36,0,0,0-2.2-.71l-.1,0-.51-.06a7.73,7.73,0,0,0-2.58.23l-.41.13a8.1,8.1,0,0,0-1.45.64l-3.5,2a7.62,7.62,0,0,0-3.74,7.55,7.63,7.63,0,0,0-7.53,3.56,7.55,7.55,0,0,0-.92,5.77c0,.22.11.44.18.65a7.65,7.65,0,0,0,.53,6,9.34,9.34,0,0,0-.9,2.62h-1.79a9.81,9.81,0,0,0-9.77,8.14,9.7,9.7,0,0,0-8.42,9.48v.47h-7.57a10,10,0,0,0-10,10s0,.09,0,.13h-6.29a7.63,7.63,0,0,0,0,15.26h17a7.49,7.49,0,0,0,2.6-.47,7.82,7.82,0,0,0,2.06.29h21.26a10,10,0,0,0,3.3-.56,7.56,7.56,0,0,0,4,1.14h21.47a7.54,7.54,0,0,0,2.52-.44,7.68,7.68,0,0,0,2.76,1.44,7.55,7.55,0,0,0,5-.28,9.87,9.87,0,0,0,2.72.85c0,.07,0,.14,0,.22a7.63,7.63,0,0,0,11.61,8l.94-.61a106.23,106.23,0,0,1,18.59.52,7.07,7.07,0,0,0,.91,2.72l.41.7a7.23,7.23,0,0,0,9.71,2.74,10.5,10.5,0,0,0,10.12,0,1165.69,1165.69,0,0,0,20.41-.09l1.52-.88a7.64,7.64,0,0,0,2.78-10.42,7.06,7.06,0,0,0-.8-1.14,10.25,10.25,0,0,0,3.22-1.14,10.48,10.48,0,0,0,10.29-.09l1.18-.68a22.2,22.2,0,0,0,8.78,1.74c.57,0,1,0,1.38,0a19.82,19.82,0,0,0,10.11-3.11H1373a7.63,7.63,0,1,0,0-15.25Z"/><path class="cls-11" d="M1452.31,884.1V898a10,10,0,0,1-10,9.95H502.27a10,10,0,0,1-10-9.95V884.1"/><path class="cls-12" d="M496.42,257h952.16a24,24,0,0,1,24,24l-17.16,591.89a18,18,0,0,1-18,17.11h-930a18,18,0,0,1-18-17L472.42,281A24,24,0,0,1,496.42,257Z"/><path class="cls-1" d="M1772.78,886.63h-36.29c-2.46,0-4.46-3.88-4.46-8.66s2-8.66,4.46-8.66h36.29a20.89,20.89,0,0,0,0,17.32Z"/><circle class="cls-1" cx="1791.96" cy="877.97" r="21.06"/><path class="cls-1" d="M1809.14,845.42c0-9.72,8.4-18.76,20-18.76"/><path class="cls-1" d="M1851.27,847.82c0,11.63-42.13,11.63-42.13,0a20.57,20.57,0,0,1,.22-2.86h-28.88c-2.47,0-4.47-3.88-4.47-8.66s2-8.67,4.47-8.67c0,0,47.64-.88,49.73-.88A21.06,21.06,0,0,1,1851.27,847.82Z"/><path class="cls-13" d="M1569.19,539.25h96.43a10,10,0,0,0,10-10v-1.37a10,10,0,0,0-10-10H1541.33a10,10,0,0,1-10-10v-1.05a10,10,0,0,1,10-10h231.92a10,10,0,0,1,10,10v1.31a10,10,0,0,1-10,10h-52a10,10,0,0,0-10,10v1.05a10,10,0,0,0,10,10h18.15a10,10,0,0,1,10,10V550a10,10,0,0,1-10,10H1630.5a10,10,0,0,0-10,10v1.11a10,10,0,0,0,10,10h71a10,10,0,0,1,10,10v1a10,10,0,0,1-10,10H1676M1693.9,465h107.66M1693.9,444.46h76.44M1639.41,602.07H1568m180-.28,18-10,17.25,10.42-17.72,10.35Zm-1550.17-105H90.23m53.9-61H99.48a9.54,9.54,0,0,0-9.54,9.54h0a9.54,9.54,0,0,0,9.54,9.54h71.76a9.54,9.54,0,0,1,9.54,9.53v1.64a9.54,9.54,0,0,1-9.54,9.53H125.47m18.2-74.84H168.1a10.09,10.09,0,0,0,10.09-10.09v-1.13a10.09,10.09,0,0,0-10.09-10.09H117.54a10.09,10.09,0,0,1-10.09-10.09h0a10.09,10.09,0,0,1,10.09-10.09H260.13a10.09,10.09,0,0,0,10.09-10.09v-.58a10.09,10.09,0,0,0-10.09-10.09h-106A10.09,10.09,0,0,1,144,328.42V328a10.09,10.09,0,0,1,10.09-10.09H234.2m152-21.05H322.11m-18.58-.11H267.88M180.16,422.21l18.32-9.28v20.93ZM198.48,381h53.74m0-63H352.31M1628.23,257.1a29.94,29.94,0,0,1,20.39,1.48,16.3,16.3,0,0,1-.36-3,17,17,0,0,1,25.09-15.44,38.23,38.23,0,0,1,76.25-3.1,25.5,25.5,0,0,1,34.8,23c0,.5,0,1,0,1.47a25.5,25.5,0,0,1,24.14,44.46m-108-53.95a9.18,9.18,0,0,1,3.38-12.54,13.11,13.11,0,0,1,17.9,4.83,18.74,18.74,0,0,1-6.9,25.59,26.77,26.77,0,0,1-36.54-9.87,38.06,38.06,0,0,1,13.91-52.11M1773.67,240a25.5,25.5,0,0,1,5.93,35.56,17.85,17.85,0,0,1-24.89,4.15,12.5,12.5,0,0,1-2.91-17.42,8.75,8.75,0,0,1,12.2-2,6.12,6.12,0,0,1,1.42,8.54m-36.77,427.85h191.46m-455.13,0h34.82m-1049.8,0h30.42m-314.69,0h49.39M0,696.65H129.42M1655.41,286H1520a10,10,0,0,1-10-10h0a10,10,0,0,1,10-10h63.41m20,41H1764m-213.61,0h35.11m-76.5,0h30.33m10,106H1640m-132-85h302a10,10,0,0,1,10,10h0a10,10,0,0,1-10,10H1650a10,10,0,0,0-10,10v2a10,10,0,0,0,10,10h51a10,10,0,0,1,10,10h0a10,10,0,0,1-10,10H1541a10,10,0,0,1-10-10h0a10,10,0,0,1,10-10h53a10,10,0,0,0,10-10v-2a10,10,0,0,0-10-10h-86a10,10,0,0,1-10-10h0A10,10,0,0,1,1508,328Zm167,85h73m18-32-18,11V371Zm18,32h36m-325,84,18-11v22Zm10-53h161a10,10,0,0,1,10,10v1a10,10,0,0,1-10,10H1505a10,10,0,0,1-10-10v-1A10,10,0,0,1,1505,444Zm267.78,442.63h-36.29c-2.46,0-4.46-3.88-4.46-8.66s2-8.66,4.46-8.66h36.29a20.89,20.89,0,0,0,0,17.32ZM1813,878A21.07,21.07,0,1,1,1792,856.91,21.06,21.06,0,0,1,1813,878Zm-3.89-32.55c0-9.72,8.4-18.76,20-18.76m22.09,21.16c0,11.63-42.13,11.63-42.13,0a20.57,20.57,0,0,1,.22-2.86h-28.88c-2.47,0-4.47-3.88-4.47-8.66s2-8.67,4.47-8.67c0,0,47.64-.88,49.73-.88A21.06,21.06,0,0,1,1851.27,847.82ZM1776,835.58H1547a15.8,15.8,0,0,1-15.8-15.8h0A15.8,15.8,0,0,1,1547,804h46.16a10,10,0,0,1,10,10v1.2a10,10,0,0,1-10,10h-86.28a10,10,0,0,0-10,10V837a10,10,0,0,0,10,10h96.32a20,20,0,0,1,20,20.49v.54a20,20,0,0,1-20,19.51h-42.55a10,10,0,0,1-10-10v-.79a10,10,0,0,1,10-10h65.56a16,16,0,0,1,16,16h0a16,16,0,0,1-16,16H1497.28a20,20,0,0,1-20-20V865.42a20,20,0,0,0-20-20m275.21,32H1676a20,20,0,0,1-20-20v-1.84a20,20,0,0,1,20-20h15.6M415,391.69h31M414.36,496.83V475.78l17.72,10.7Zm22-157.87H398.34a10,10,0,0,1-10-10v-1a10,10,0,0,1,10-10h28.07a10,10,0,0,0,10-10v-1.05a10,10,0,0,0-10-10H407M216.59,771.42c-50.36-.57-91-46-91-101.87s40.66-101.31,91-101.88v38.44c-31.2.57-56.33,28.74-56.33,63.44s25.13,62.86,56.33,63.43Zm-12.46-102c0,.06,0,.13,0,.2v-.2Zm234-67.21v.2a1.36,1.36,0,0,0,0-.2Zm-210,67.39v-.17h0A1,1,0,0,0,228.08,669.63Zm186,0a1,1,0,0,0,0-.17h0Zm-209.92-.18c0,.06,0,.13,0,.2v-.2Zm234-67.21v.2a1.36,1.36,0,0,0,0-.2ZM324.19,795H236.1a20,20,0,0,1-20-20V545.15a3,3,0,0,1,3-3h228a3,3,0,0,1,3,3V775a20,20,0,0,1-20,20H406.34m19.74.12v4.31a10,10,0,0,1-10,10h-166a10,10,0,0,1-10-10v-4.31m1505.67-86.46C1760,721,1777,742.82,1777,762.72h0c0,10.64-9,19.26-20,19.26H1559c-11,0-69.35-35.54-69.35-46.18h0c0-48.23,29.34-63.29,68-63.29h107.92C1687,672.51,1736.2,700.29,1745.79,708.61Zm-225.66-8.83,17.11,9.7c9.78,5.33,24.24,20.27,23.8,31.07M1531.33,160.3H1666a10,10,0,0,1,10,10v.38a10,10,0,0,1-10,10h-63.3m-71.49,42.5h100.3a10,10,0,0,0,10-10v-1a10,10,0,0,0-10-10H1469.27a10,10,0,0,1-10-10v-1.46a10,10,0,0,1,10-10h116.11m-144.13,42.5h72.06m-126.11,0h36M171.08,529a9.41,9.41,0,1,1-9.41-9.41A9.41,9.41,0,0,1,171.08,529Zm-7.45,31.65H108.09m342.32,294H306.28m-17.85,0H216m161.9,42.1h62a10.54,10.54,0,0,0,10.53-10.53h0a10.53,10.53,0,0,0-10.53-10.53H270.23"/><line class="cls-14" x1="1371.04" y1="907.95" x2="1371.04" y2="890.05"/><line class="cls-15" x1="558.08" y1="907.95" x2="558.08" y2="890.05"/></g></svg>