<?xml version="1.0" encoding="utf-8"?>
<!-- Generator: Adobe Illustrator 24.0.3, SVG Export Plug-In . SVG Version: 6.00 Build 0)  -->
<svg version="1.1" id="Layer_1" xmlns="http://www.w3.org/2000/svg" xmlns:xlink="http://www.w3.org/1999/xlink" x="0px" y="0px"
	 width="1920px" height="1080px" viewBox="0 0 1920 1080" style="enable-background:new 0 0 1920 1080;" xml:space="preserve">
<style type="text/css">
	.st0{fill:#FFFFFF;stroke:#FFFFFF;stroke-miterlimit:10;}
	.st1{fill:#FFFFFF;}
	.st2{fill:none;stroke:url(#SVGID_1_);stroke-width:3.98;stroke-linecap:round;stroke-linejoin:round;}
	.st3{fill:none;stroke:url(#SVGID_2_);stroke-width:4;stroke-linecap:round;stroke-linejoin:round;}
	.st4{fill:none;stroke:url(#SVGID_3_);stroke-width:3.98;stroke-linecap:round;stroke-linejoin:round;}
	.st5{fill:none;stroke:url(#SVGID_4_);stroke-width:4;stroke-linecap:round;stroke-linejoin:round;}
	.st6{fill:none;stroke:url(#SVGID_5_);stroke-width:3.62;stroke-linecap:round;stroke-linejoin:round;}
	
		.st7{opacity:0.8;fill:none;stroke:url(#SVGID_6_);stroke-width:3;stroke-linecap:round;stroke-linejoin:round;enable-background:new    ;}
	
		.st8{opacity:0.8;fill:none;stroke:url(#SVGID_7_);stroke-width:3;stroke-linecap:round;stroke-linejoin:round;enable-background:new    ;}
	
		.st9{opacity:0.8;fill:none;stroke:url(#SVGID_8_);stroke-width:3;stroke-linecap:round;stroke-linejoin:round;enable-background:new    ;}
	
		.st10{opacity:0.8;fill:none;stroke:url(#SVGID_9_);stroke-width:3;stroke-linecap:round;stroke-linejoin:round;enable-background:new    ;}
	
		.st11{opacity:0.5;fill:none;stroke:url(#SVGID_10_);stroke-width:3;stroke-linecap:round;stroke-linejoin:round;enable-background:new    ;}
</style>
<title>eco-bg-reverse</title>
<g id="white_masking">
	<path class="st0" d="M1467.5,547.9v229.4c0,10.2,7.6,18.7,17.6,20c3.4,0.4,7.5,0.9,12.3,1.3h-5.7v3c0,4.7,3.3,8.8,7.9,9.9
		c10.3,2.3,33.6,5.3,86.1,5.3s75.8-2.9,86.1-5.3c4.6-1.1,7.9-5.1,7.9-9.9v-3h-6.6c5.2-0.5,9.6-0.9,13.2-1.4
		c10.1-1.3,17.6-9.8,17.7-20v-5.7c50.7-0.9,85.4-46.6,85.4-102.9s-34.8-102-85.4-102.9v-17.5h0.2c-0.1-0.1-0.1-0.1-0.2-0.2l0,0
		c-1.6-1.3-14.8-7.9-118.4-7.9s-116.2,6.6-117.6,7.9L1467.5,547.9z M1703.9,604.5c31.3,0.9,50.4,29.2,50.4,64.1
		s-19.1,63.2-50.4,64.1V604.5z"/>
	<path class="st0" d="M1417.6,785l-942-0.1l-82.9,157.2V956c0,5.5,4.5,10,10,10h1086c5.5,0,10-4.4,10-10v-13.9L1417.6,785z"/>
	<path class="st1" d="M1407.7,281c0-13.3-10.7-24-24-24H511.5c-13.3,0-24,10.7-24,24l-10.9,503.9l942,0.1L1407.7,281z"/>
	<path class="st0" d="M232.2,785.6h108c38.7,0,68-4.1,68,59.7l0,0c0,14.1-58.3,85.1-69.4,85.1h-198c-11.1,0-20-11.4-20-25.5l0,0
		c0-26.3,17-55.2,31.2-71.6C161.6,822.4,210.8,785.6,232.2,785.6z"/>
	<path class="st0" d="M336.8,875.7c-0.4-14.3,14-34.1,23.8-41.1l17.1-12.8"/>
	<path class="st0" d="M232.2,785.6h108c38.7,0,68-4.1,68,59.7l0,0c0,14.1-58.3,85.1-69.4,85.1h-198c-11.1,0-20-11.4-20-25.5l0,0
		c0-26.3,17-55.2,31.2-71.6C161.6,822.4,210.8,785.6,232.2,785.6z"/>
</g>
<g id="ecosystem-2">
	
		<linearGradient id="SVGID_1_" gradientUnits="userSpaceOnUse" x1="5056.0098" y1="206.58" x2="6166.04" y2="206.58" gradientTransform="matrix(-1 0 0 -1 6556.71 1082)">
		<stop  offset="0" style="stop-color:#7EC7E6"/>
		<stop  offset="1" style="stop-color:#B28CFF"/>
	</linearGradient>
	<path class="st2" d="M1498.7,942.1V956c0,5.5-4.5,10-10,10h-1086c-5.5,0-10-4.4-10-10v-13.9l82.9-157.2l942,0.1L1498.7,942.1z"/>
	
		<linearGradient id="SVGID_2_" gradientUnits="userSpaceOnUse" x1="5136.0298" y1="561" x2="6081.98" y2="561" gradientTransform="matrix(-1 0 0 -1 6556.71 1082)">
		<stop  offset="0" style="stop-color:#7EC7E6"/>
		<stop  offset="1" style="stop-color:#B28CFF"/>
	</linearGradient>
	<path class="st3" d="M1407.7,281l11,504l-942-0.1L487.5,281c0-13.3,10.7-24,24-24h872.2C1396.9,257,1407.7,267.7,1407.7,281z"/>
	
		<linearGradient id="SVGID_3_" gradientUnits="userSpaceOnUse" x1="5056.0098" y1="206.58" x2="6166.04" y2="206.58" gradientTransform="matrix(-1 0 0 -1 6556.71 1082)">
		<stop  offset="0" style="stop-color:#7EC7E6"/>
		<stop  offset="1" style="stop-color:#B28CFF"/>
	</linearGradient>
	<path class="st4" d="M1498.7,942.1V956c0,5.5-4.5,10-10,10h-1086c-5.5,0-10-4.4-10-10v-13.9l82.9-157.2l942,0.1L1498.7,942.1z"/>
	
		<linearGradient id="SVGID_4_" gradientUnits="userSpaceOnUse" x1="5136.0298" y1="561" x2="6081.98" y2="561" gradientTransform="matrix(-1 0 0 -1 6556.71 1082)">
		<stop  offset="0" style="stop-color:#7EC7E6"/>
		<stop  offset="1" style="stop-color:#B28CFF"/>
	</linearGradient>
	<path class="st5" d="M1407.7,281l11,504l-942-0.1L487.5,281c0-13.3,10.7-24,24-24h872.2C1396.9,257,1407.7,267.7,1407.7,281z"/>
	
		<linearGradient id="SVGID_5_" gradientUnits="userSpaceOnUse" x1="5172.1099" y1="549.65" x2="6048.54" y2="549.65" gradientTransform="matrix(-1 0 0 -1 6556.71 1082)">
		<stop  offset="0" style="stop-color:#7EC7E6"/>
		<stop  offset="1" style="stop-color:#B28CFF"/>
	</linearGradient>
	<polygon class="st6" points="1372.6,310.2 1382.8,754.5 510,754.4 520,310.2 	"/>
	<path class="st1" d="M142.6,724.2h36.3c2.5,0,4.5,3.9,4.5,8.7s-2,8.7-4.5,8.7h-36.3C145.1,736,145.1,729.7,142.6,724.2L142.6,724.2
		z"/>
	<circle class="st1" cx="123.4" cy="732.8" r="21.1"/>
	<path class="st1" d="M106.2,765.4c0,9.7-8.4,18.8-20,18.8"/>
	<path class="st1" d="M85.2,762.3c2.1,0,49.7,0.9,49.7,0.9c2.5,0,4.5,3.9,4.5,8.7s-2,8.7-4.5,8.7H106c0.1,0.9,0.2,1.9,0.2,2.9
		c0,11.6-42.1,11.6-42.1,0C64.1,771.7,73.5,762.3,85.2,762.3C85.2,762.3,85.2,762.3,85.2,762.3z"/>
	
		<linearGradient id="SVGID_6_" gradientUnits="userSpaceOnUse" x1="5925.9102" y1="-304.4751" x2="6432.9502" y2="-304.4751" gradientTransform="matrix(-1 0 0 1 6556.71 1037.3301)">
		<stop  offset="0" style="stop-color:#7EC7E6"/>
		<stop  offset="1" style="stop-color:#B28CFF"/>
	</linearGradient>
	<path class="st7" d="M135.4,724.2h43.5c2.5,0,4.5,3.9,4.5,8.7s-2,8.7-4.5,8.7h-53.6"/>
	
		<linearGradient id="SVGID_7_" gradientUnits="userSpaceOnUse" x1="5925.9102" y1="-304.4812" x2="6455.8501" y2="-304.4812" gradientTransform="matrix(-1 0 0 1 6556.71 1037.3301)">
		<stop  offset="0" style="stop-color:#7EC7E6"/>
		<stop  offset="1" style="stop-color:#B28CFF"/>
	</linearGradient>
	<path class="st8" d="M142.8,741c-4.5,10.7-16.9,15.7-27.6,11.2c-10.7-4.5-15.7-16.9-11.2-27.6c4.5-10.7,16.9-15.7,27.6-11.2
		c4.9,2.1,8.8,5.9,11,10.7"/>
	
		<linearGradient id="SVGID_8_" gradientUnits="userSpaceOnUse" x1="5925.9102" y1="349.87" x2="6472" y2="349.87" gradientTransform="matrix(-1 0 0 -1 6556.71 1121.53)">
		<stop  offset="0" style="stop-color:#7EC7E6"/>
		<stop  offset="1" style="stop-color:#B28CFF"/>
	</linearGradient>
	<path class="st9" d="M86.2,762.3c11.6,0,20,9,20,18.8"/>
	
		<linearGradient id="SVGID_9_" gradientUnits="userSpaceOnUse" x1="5925.9102" y1="344.2638" x2="6494.1001" y2="344.2638" gradientTransform="matrix(-1 0 0 -1 6556.71 1121.53)">
		<stop  offset="0" style="stop-color:#7EC7E6"/>
		<stop  offset="1" style="stop-color:#B28CFF"/>
	</linearGradient>
	<path class="st10" d="M85.2,762.4c2.1,0,49.7,0.9,49.7,0.9c2.5,0,4.5,3.9,4.5,8.7s-2,8.7-4.5,8.7H106c0.1,0.9,0.2,1.9,0.2,2.9
		c0,11.6-42.1,11.6-42.1,0C64.1,771.8,73.5,762.4,85.2,762.4C85.2,762.4,85.2,762.4,85.2,762.4z"/>
	
		<linearGradient id="SVGID_10_" gradientUnits="userSpaceOnUse" x1="-1.5" y1="528.71" x2="1921.64" y2="528.71" gradientTransform="matrix(1 0 0 -1 0 1082)">
		<stop  offset="0" style="stop-color:#B28CFF"/>
		<stop  offset="1" style="stop-color:#7EC7E6"/>
	</linearGradient>
	<path class="st11" d="M232.5,785.6h108c38.7,0,68-4.1,68,59.7l0,0c0,14.1-58.3,85.1-69.4,85.1h-198c-11,0-20-11.4-20-25.5l0,0
		c0-26.3,17-55.2,31.2-71.6C161.9,822.4,211.1,785.6,232.5,785.6z M378,821.7l-17.1,12.8c-9.8,7-24.2,26.8-23.8,41.1 M350.8,539.2
		h-96.4c-5.5,0-10-4.5-10-10v-1.4c0-5.5,4.5-10,10-10h124.3c5.5,0,10-4.5,10-10v-1c0-5.5-4.5-10-10-10H146.9c-5.5,0-10,4.5-10,10
		v1.3c0,5.5,4.5,10,10,10h52.1c5.5,0,10,4.5,10,10v1c0,5.5-4.5,10-10,10h-18.2c-5.5,0-10,4.5-10,10v0.8c0,5.5,4.5,10,10,10h108.9
		c5.5,0,10,4.5,10,10v1.1c0,5.5-4.5,10-10,10h-71c-5.5,0-10,4.5-10,10v1c0,5.5,4.5,10,10,10h25.5 M118.5,465h107.7 M149.8,444.5
		h76.4 M352.1,602.1h-71.4 M172.1,601.8l-18-10l-17.3,10.4l17.7,10.3L172.1,601.8z M1829.9,496.8h-107.6 M1776,435.8h44.7
		c5.3,0,9.5,4.3,9.5,9.5c0,0,0,0,0,0l0,0c0,5.3-4.3,9.5-9.5,9.5l0,0h-71.8c-5.3,0-9.5,4.3-9.5,9.5v1.6c0,5.3,4.3,9.5,9.5,9.5h45.8
		 M1776.4,400.7H1752c-5.6,0-10.1-4.5-10.1-10.1v-1.1c0-5.6,4.5-10.1,10.1-10.1h50.6c5.6,0,10.1-4.5,10.1-10.1l0,0
		c0-5.6-4.5-10.1-10.1-10.1H1660c-5.6,0-10.1-4.5-10.1-10.1v-0.6c0-5.6,4.5-10.1,10.1-10.1c0,0,0,0,0,0h106
		c5.6,0,10.1-4.5,10.1-10.1V328c0-5.6-4.5-10.1-10.1-10.1h-80.1 M1533.9,296.9h64.1 M1616.6,296.8h35.7 M1740,422.2l-18.3-9.3v20.9
		L1740,422.2z M1667.9,381h53.7 M1567.8,318h100.1 M1781.4,306c11.4-8.2,14-24.2,5.8-35.6c-6.8-9.4-19.1-13.1-29.9-8.9
		c0-0.5,0-1,0-1.5c-0.4-14.1-12.2-25.2-26.2-24.7c-2.9,0.1-5.8,0.7-8.6,1.7c-2.2-21-20.9-36.3-41.9-34.1
		c-19.2,2-33.9,17.9-34.3,37.2c-8.3-4.5-18.6-1.4-23,6.9c-1.4,2.6-2.1,5.6-2,8.6c0,1,0.1,2,0.4,3c-6.4-2.9-13.6-3.4-20.4-1.5
		 M1665.2,207.9c-18.2,10.5-24.5,33.8-14,52c0,0,0,0.1,0.1,0.1c7.4,12.8,23.7,17.2,36.5,9.9c9-5.2,12.1-16.6,6.9-25.6c0,0,0,0,0,0
		c-3.6-6.3-11.6-8.4-17.9-4.8c-4.4,2.5-5.9,8.1-3.4,12.5c0,0,0,0,0,0 M1738.3,268.8c2-2.7,1.3-6.6-1.4-8.5c0,0,0,0,0,0
		c-3.9-2.8-9.4-1.9-12.2,2c-4,5.6-2.7,13.4,2.9,17.4c8,5.7,19.2,3.9,24.9-4.1c8.2-11.5,5.5-27.4-5.9-35.6 M455.1,696.7H0
		 M1464.7,696.7h-49 M1705,696.7h41.4 M1920.1,696.7h-135.5 M264.7,286h135.4c5.5,0,10-4.5,10-10l0,0c0-5.5-4.5-10-10-10h-63.4
		 M156.1,307h160.6 M334.6,307h35.1 M380.8,307h30.3 M280.1,413h90.6 M412.1,328h-302c-5.5,0-10,4.5-10,10l0,0c0,5.5,4.5,10,10,10
		h160c5.5,0,10,4.5,10,10v2c0,5.5-4.5,10-10,10h-51c-5.5,0-10,4.5-10,10l0,0c0,5.5,4.5,10,10,10h160c5.5,0,10-4.5,10-10l0,0
		c0-5.5-4.5-10-10-10h-53c-5.5,0-10-4.5-10-10v-2c0-5.5,4.5-10,10-10h86c5.5,0,10-4.5,10-10l0,0C422.1,332.5,417.6,328,412.1,328
		L412.1,328L412.1,328z M172.1,413h73 M154.1,381l18,11v-21L154.1,381z M100.1,413h36 M425.1,497l-18-11v22L425.1,497z M415.1,444
		h-161c-5.5,0-10,4.5-10,10v1c0,5.5,4.5,10,10,10h161c5.5,0,10-4.5,10-10v-1C425.1,448.5,420.6,444,415.1,444L415.1,444L415.1,444z
		 M1474.1,391.7h31 M1505.7,516.8v-21.1l-17.7,10.7L1505.7,516.8z M1483.7,339h38c5.5,0,10-4.5,10-10v-1c0-5.5-4.5-10-10-10h-28
		c-5.5,0-10-4.5-10-10v-1c0-5.5,4.5-10,10-10h19.4 M1575.5,180.7h63.3c5.5,0,10-4.5,10-10v-0.4c0-5.5-4.5-10-10-10h-134.7
		 M1558.2,180.7h-116.1c-5.5,0-10,4.5-10,10v1.5c0,5.5,4.5,10,10,10h162.2c5.5,0,10,4.5,10,10v1c0,5.5-4.5,10-10,10H1504
		 M1486.1,223.2h-72.1 M1396.1,223.2h-36 M1749,529c0,5.2,4.2,9.4,9.4,9.4c5.2,0,9.4-4.2,9.4-9.4c0-5.2-4.2-9.4-9.4-9.4
		S1749,523.8,1749,529L1749,529z M1812,560.7h-55.5 M1635.8,854.7h-144.1 M1726.1,854.7h-72.4 M1564.2,896.8h-62
		c-5.8,0-10.5-4.7-10.5-10.5v0l0,0c0-5.8,4.7-10.5,10.5-10.5c0,0,0,0,0,0h69.8 M1671.9,875.7H1572 M476.7,764.7
		c-11,0-39.2-2.4-38.6-19.4V732c0-11-9-20-20-20H289.2c-8.8,0-16,7.2-16,16l0,0c0,8.8,7.2,16,16,16h65.6c5.5,0,10-4.5,10-10v-0.8
		c0-5.5-4.5-10-10-10h-42.5c-10.9,0-19.7,8.7-20,19.5v0.5c-0.3,11,8.5,20.2,19.5,20.5c0.2,0,0.3,0,0.5,0h95.4
		c6,0,10.9,4.9,10.9,10.9l0,0c0,6-4.9,10.9-10.9,10.9H327c-8.8,0-16-7.1-16-15.9c0,0,0,0,0,0l0,0c0-8.8,7.1-15.9,15.9-15.9
		c0,0,0,0,0.1,0h47c5.9,0,10.7,4.8,10.7,10.7l0,0c0,5.9-4.8,10.7-10.7,10.7H139.4 M223.7,775.2h15.6c11,0,20-9,20-20v-1.8
		c0-11-9-20-20-20h-56.4 M396.4,940.5c0,0-3,5.8,19.7,5.8h535.6 M1495.9,940.5c0,0,3,5.8-19.7,5.8h-158.6 M543.4,879.1h51.5
		 M604.9,879.1h51.5 M666.4,879.1h69.5 M481.9,879.1h51.5 M1230.4,879.1h51.5 M1291.8,879.1h51.5 M1353.3,879.1h51.5 M1168.9,879.1
		h51.5 M1089.4,879.1h69.5 M745.8,879.1h333.6 M1142.6,900.5h33.8c19.8,0,20.3,5.8,20.3,5.8l6.4,12.6 M1006.6,900.5h77.7
		 M799.7,925.3h-83.5c-22.7,0-19.7-5.8-19.7-5.8l7.5-14.5c3.6-3,8.1-4.6,12.8-4.6h270.2 M1135.1,925.3H839.9 M618.3,860.3H672
		 M683.1,860.3h53.7 M492.3,860.3h114.9 M812.6,860.6h53.7 M877.4,860.6h53.7 M942.2,860.6h59.7 M747.9,860.6h53.7 M1077.8,860.6
		h53.7 M1142.6,860.6h53.7 M1207.4,860.6h53.6 M1272.1,860.3H1393 M1013,860.6h53.7 M656.1,843.3h52.5 M719.8,843.3h52.5
		 M502.6,843.3h78.8 M847.1,843.6h52.5 M910.7,843.6h52.5 M974.4,843.6h58.4 M783.4,843.6h52.5 M1107.6,843.6h52.5 M1171.2,843.6
		h52.5 M1234.9,843.6h52.5 M1298.5,843.3h84.3 M1043.9,843.6h52.5 M592.4,843.3H645 M650.5,828.9h50.7 M711.8,828.9h50.7
		 M512.1,828.9h66.3 M834.6,829.2h50.6 M896,829.2h50.6 M957.3,829.2h56.3 M773.2,829.2h50.7 M1085.8,829.2h50.6 M1147.1,829.2h50.6
		 M1208.5,829.2h50.7 M1267.2,829.2h50.7 M1326.5,828.9h48 M1024.3,829.2h50.7 M589.1,828.9h50.7 M1228.8,815.8h-49.4 M1168.9,815.8
		h-49.4 M1363.9,815.8h-64.7 M1049,815.5h-49.4 M989.1,815.5h-49.5 M929.2,815.5h-55 M1109,815.5h-49.5 M803.8,815.5h-49.5
		 M743.8,815.5h-49.5 M683.9,815.5h-49.5 M626.5,815.5h-49.4 M568.7,815.8h-46.9 M863.7,815.5h-49.5 M1288.7,815.8h-49.4
		 M1097.1,900.5h31.7 M1703.4,771.5c50.9-0.6,85.9-46.4,85.9-102.9s-35-102.3-85.9-102.9v38.8c31.5,0.6,50.9,29,50.9,64.1
		s-19.3,63.5-50.9,64.1V771.5z M1605.5,801.2c42.7-0.4,67-2.2,80.8-4c10.1-1.3,17.6-9.8,17.7-20V547.9c0,0-4.2,8.1-118.6,8.1
		s-117.8-8.1-117.8-8.1v229.4c0,10.2,7.6,18.7,17.6,20c5.6,0.7,13.1,1.4,22.8,2.1 M1491.8,798.5v3c0,4.7,3.3,8.8,7.9,9.9
		c10.3,2.3,33.6,5.3,86.1,5.3s75.8-2.9,86.1-5.3c4.6-1.1,7.9-5.1,7.9-9.9v-3 M1704.1,548.1c0,0-4.2-8.1-118.6-8.1
		s-117.8,8.1-117.8,8.1"/>
</g>
</svg>
