<svg xmlns="http://www.w3.org/2000/svg" xmlns:xlink="http://www.w3.org/1999/xlink" viewBox="0 0 1920 1080"><defs><style>.cls-1,.cls-2{fill:#fff;}.cls-1{stroke:#fff;stroke-miterlimit:10;}.cls-10,.cls-3,.cls-4,.cls-5,.cls-6,.cls-7,.cls-8,.cls-9{fill:none;stroke-linecap:round;stroke-linejoin:round;}.cls-3{stroke-width:3.98px;stroke:url(#New_Gradient_Swatch_2);}.cls-4{stroke-width:4px;stroke:url(#New_Gradient_Swatch_2-2);}.cls-5{stroke-width:3.62px;stroke:url(#New_Gradient_Swatch_2-5);}.cls-10,.cls-6,.cls-7,.cls-8,.cls-9{stroke-width:3px;}.cls-6,.cls-7,.cls-8,.cls-9{opacity:0.8;}.cls-6{stroke:url(#New_Gradient_Swatch_2-6);}.cls-7{stroke:url(#New_Gradient_Swatch_2-7);}.cls-8{stroke:url(#New_Gradient_Swatch_2-8);}.cls-9{stroke:url(#New_Gradient_Swatch_2-9);}.cls-10{opacity:0.5;stroke:url(#linear-gradient);}</style><linearGradient id="New_Gradient_Swatch_2" x1="6134.01" y1="875.39" x2="7243.99" y2="875.39" gradientTransform="matrix(-1, 0, 0, 1, 7634.71, 0)" gradientUnits="userSpaceOnUse"><stop offset="0" stop-color="#7ec7e6"/><stop offset="1" stop-color="#b28cff"/></linearGradient><linearGradient id="New_Gradient_Swatch_2-2" x1="6214.08" y1="521" x2="7160.02" y2="521" xlink:href="#New_Gradient_Swatch_2"/><linearGradient id="New_Gradient_Swatch_2-5" x1="6250.11" y1="532.35" x2="7126.53" y2="532.35" xlink:href="#New_Gradient_Swatch_2"/><linearGradient id="New_Gradient_Swatch_2-6" x1="7003.91" y1="3304.48" x2="7510.95" y2="3304.48" gradientTransform="translate(7634.71 4037.33) rotate(180)" xlink:href="#New_Gradient_Swatch_2"/><linearGradient id="New_Gradient_Swatch_2-7" x1="7003.91" y1="3304.48" x2="7533.85" y2="3304.48" gradientTransform="translate(7634.71 4037.33) rotate(180)" xlink:href="#New_Gradient_Swatch_2"/><linearGradient id="New_Gradient_Swatch_2-8" x1="7003.91" y1="732.14" x2="7550" y2="732.14" gradientTransform="matrix(-1, 0, 0, 1, 7634.71, 39.53)" xlink:href="#New_Gradient_Swatch_2"/><linearGradient id="New_Gradient_Swatch_2-9" x1="7003.91" y1="737.74" x2="7572.1" y2="737.74" gradientTransform="matrix(-1, 0, 0, 1, 7634.71, 39.53)" xlink:href="#New_Gradient_Swatch_2"/><linearGradient id="linear-gradient" x1="-1.5" y1="553.27" x2="1921.61" y2="553.27" gradientUnits="userSpaceOnUse"><stop offset="0" stop-color="#b28cff"/><stop offset="1" stop-color="#7ec7e6"/></linearGradient></defs><title>eco-bg-reverse</title><g id="white_masking" data-name="white masking"><path class="cls-1" d="M1467.49,547.9V777.26a20.21,20.21,0,0,0,17.64,20c3.41.43,7.49.87,12.33,1.29h-5.71v3a10.11,10.11,0,0,0,7.87,9.86c10.26,2.33,33.61,5.26,86.08,5.26s75.81-2.93,86.08-5.26a10.11,10.11,0,0,0,7.86-9.86v-3h-6.57c5.22-.45,9.57-.91,13.19-1.38a20.21,20.21,0,0,0,17.65-20v-5.72c50.65-.87,85.41-46.61,85.41-102.92s-34.76-102-85.41-102.92V548.11h.2a.89.89,0,0,0-.2-.2h0c-1.58-1.26-14.84-7.88-118.4-7.88s-116.16,6.62-117.64,7.87Zm236.42,56.57c31.29.86,50.36,29.2,50.36,64.07s-19.07,63.21-50.36,64.07Z"/><path class="cls-1" d="M1417.55,785l-941.95-.11L392.71,942.1V956a10,10,0,0,0,10,9.95H1488.75a10,10,0,0,0,10-9.95V942.1Z"/><path class="cls-2" d="M1407.68,281a24,24,0,0,0-24-24H511.53a24,24,0,0,0-24,24L476.68,784.89l942,.11Z"/><path class="cls-1" d="M232.18,785.64h108c38.68,0,68-4.08,68,59.72h0c0,14.08-58.34,85.1-69.39,85.1h-198c-11.05,0-20-11.41-20-25.49h0c0-26.32,17-55.25,31.19-71.57C161.55,822.39,210.8,785.64,232.18,785.64Z"/><path class="cls-1" d="M336.81,875.65c-.44-14.3,14-34.06,23.81-41.11l17.12-12.83"/><path class="cls-1" d="M232.18,785.64h108c38.68,0,68-4.08,68,59.72h0c0,14.08-58.34,85.1-69.39,85.1h-198c-11.05,0-20-11.41-20-25.49h0c0-26.32,17-55.25,31.19-71.57C161.55,822.39,210.8,785.64,232.18,785.64Z"/></g><g id="ecosystem-2" data-name="ecosystem"><path class="cls-3" d="M1498.71,942.1V956a10,10,0,0,1-10,9.95H402.66a10,10,0,0,1-10-9.95V942.1L475.6,784.89l942,.11Z"/><path class="cls-4" d="M1407.68,281l11,504-941.95-.11L487.53,281a24,24,0,0,1,24-24h872.15A24,24,0,0,1,1407.68,281Z"/><path class="cls-3" d="M1498.71,942.1V956a10,10,0,0,1-10,9.95H402.66a10,10,0,0,1-10-9.95V942.1L475.6,784.89l942,.11Z"/><path class="cls-4" d="M1407.68,281l11,504-941.95-.11L487.53,281a24,24,0,0,1,24-24h872.15A24,24,0,0,1,1407.68,281Z"/><polygon class="cls-5" points="1372.64 310.16 1382.79 754.54 509.98 754.44 520.03 310.16 1372.64 310.16"/><path class="cls-2" d="M142.6,724.19h36.29c2.46,0,4.46,3.88,4.46,8.66s-2,8.67-4.46,8.67H142.6a20.91,20.91,0,0,0,0-17.33Z"/><circle class="cls-2" cx="123.42" cy="732.85" r="21.06"/><path class="cls-2" d="M106.24,765.4c0,9.72-8.4,18.76-20,18.76"/><path class="cls-2" d="M85.17,762.28c2.09,0,49.73.89,49.73.89,2.47,0,4.47,3.87,4.47,8.66s-2,8.66-4.47,8.66H106a20.69,20.69,0,0,1,.22,2.86c0,11.63-42.13,11.63-42.13,0A21.06,21.06,0,0,1,85.17,762.28Z"/><path class="cls-6" d="M135.37,724.19h43.52c2.46,0,4.46,3.88,4.46,8.66s-2,8.67-4.46,8.67H125.26"/><path class="cls-7" d="M142.82,741.05a21.06,21.06,0,1,1-.2-16.86"/><path class="cls-8" d="M86.2,762.28c11.64,0,20,9,20,18.76"/><path class="cls-9" d="M85.17,762.37c2.09,0,49.73.88,49.73.88,2.47,0,4.47,3.88,4.47,8.67s-2,8.66-4.47,8.66H106a20.57,20.57,0,0,1,.22,2.86c0,11.63-42.13,11.63-42.13,0A21.06,21.06,0,0,1,85.17,762.37Z"/><path class="cls-10" d="M232.48,785.64h108c38.68,0,68-4.08,68,59.72h0c0,14.08-58.34,85.1-69.39,85.1h-198c-11,0-20-11.41-20-25.49h0c0-26.32,17-55.25,31.19-71.57C161.85,822.39,211.1,785.64,232.48,785.64Zm145.57,36.07-17.13,12.83c-9.78,7.05-24.25,26.81-23.81,41.11M1630.81,520c-.65-17.55-.17-56.2,12.23-73.36,18.91-26.16,65.56-16.93,66.26,17.79M1684.7,475a8.07,8.07,0,0,0-3-11.13,12,12,0,0,0-16.17,4.29,16.47,16.47,0,0,0,6.23,22.7,24.4,24.4,0,0,0,33-8.75,33.47,33.47,0,0,0-12.56-46.24m-142.63,54.65s2.4-30.73-3.6-49.34c-4.42-13.69-12.86-24.64-28.58-24.64-12.08,0-20.6,7.07-22.54,16.68-2.94,14.61,3.89,24.66,14.07,26.43A13.09,13.09,0,0,0,1524,449a9.17,9.17,0,0,0-7.46-10.59,6.42,6.42,0,0,0-7.42,5.22m130.38-22.31-12.15-9.36a5.87,5.87,0,0,0-1.41-8.3,8.75,8.75,0,0,0-12.07,2,12,12,0,0,0,2.88,17c4.41,3.1,10,3.72,15,2.74,7.18-1.4,14.36-9.42,14.36-21.91s-12.05-24.46-26-24.05a25.75,25.75,0,0,0-8.47,1.7c-2-19.24-18.81-34-38.79-33.39-20.26.6-36.71,16.87-36.71,36.43s13.32,28.81,19,30.82a26.86,26.86,0,0,0,22.18-1.93,18,18,0,0,0,6.83-24.88,13.1,13.1,0,0,0-17.72-4.71,8.84,8.84,0,0,0-3.35,12.2m34.48,25.64v92.57m-17.73-20.57V428.92m-1229,110.33H254.48a10,10,0,0,1-10-10v-1.37a10,10,0,0,1,10-10h124.3a10,10,0,0,0,10-10v-1.05a10,10,0,0,0-10-10H146.85a10,10,0,0,0-10,10v1.31a10,10,0,0,0,10,10h52.06a10,10,0,0,1,10,10v1.05a10,10,0,0,1-10,10H180.75a10,10,0,0,0-10,10V550a10,10,0,0,0,10,10H289.61a10,10,0,0,1,10,10v1.11a10,10,0,0,1-10,10h-71a10,10,0,0,0-10,10v1a10,10,0,0,0,10,10h25.5M118.54,465H226.2m-76.43-20.54H226.2M352.11,602.07H280.7m-108.59-.28-18-10-17.26,10.42,17.72,10.35Zm1657.77-105H1722.27m53.71-61h44.65a9.54,9.54,0,0,1,9.54,9.54h0a9.54,9.54,0,0,1-9.54,9.54h-71.76a9.54,9.54,0,0,0-9.54,9.53v1.64a9.54,9.54,0,0,0,9.54,9.53h45.77m-18.2-74.84H1752a10.09,10.09,0,0,1-10.09-10.09v-1.13A10.08,10.08,0,0,1,1752,379.46h50.55a10.09,10.09,0,0,0,10.09-10.09h0a10.09,10.09,0,0,0-10.09-10.09H1660a10.09,10.09,0,0,1-10.09-10.09v-.58A10.09,10.09,0,0,1,1660,338.51h106a10.09,10.09,0,0,0,10.09-10.09V328A10.09,10.09,0,0,0,1766,317.91H1685.9m-152-21.05H1598m18.57-.11h35.66M1740,422.21l-18.32-9.28v20.93ZM1667.89,381h53.74m-153.84-63h100.1m113.49-12a25.5,25.5,0,0,0-24.14-44.46c0-.48,0-1,0-1.47a25.5,25.5,0,0,0-34.8-23,38.23,38.23,0,0,0-76.25,3.1,17,17,0,0,0-25.09,15.44,16.3,16.3,0,0,0,.36,3,29.94,29.94,0,0,0-20.39-1.48m64.11-49.21A38.06,38.06,0,0,0,1651.27,260a26.77,26.77,0,0,0,36.54,9.87,18.74,18.74,0,0,0,6.9-25.59,13.11,13.11,0,0,0-17.9-4.83,9.18,9.18,0,0,0-3.38,12.54m64.83,16.81a6.12,6.12,0,0,0-1.42-8.54,8.75,8.75,0,0,0-12.2,2,12.49,12.49,0,0,0,2.91,17.42,17.85,17.85,0,0,0,24.89-4.15,25.5,25.5,0,0,0-5.93-35.56M455.13,696.65H0m1464.71,0h-49m289.3,0h41.39m173.74,0H1784.68M264.7,286H400.11a10,10,0,0,0,10-10h0a10,10,0,0,0-10-10H336.7M156.11,307h160.6m17.9,0h35.11m11.06,0h30.33m-131,106h90.65m41.35-85h-302a10,10,0,0,0-10,10h0a10,10,0,0,0,10,10h160a10,10,0,0,1,10,10v2a10,10,0,0,1-10,10h-51a10,10,0,0,0-10,10h0a10,10,0,0,0,10,10h160a10,10,0,0,0,10-10h0a10,10,0,0,0-10-10h-53a10,10,0,0,1-10-10v-2a10,10,0,0,1,10-10h86a10,10,0,0,0,10-10h0A10,10,0,0,0,412.11,328Zm-240,85h73m-91-32,18,11V371Zm-54,32h36m289,84-18-11v22Zm-10-53h-161a10,10,0,0,0-10,10v1a10,10,0,0,0,10,10h161a10,10,0,0,0,10-10v-1A10,10,0,0,0,415.11,444Zm1059-52.31h31m.6,125.14V495.78L1488,506.48Zm-22-177.87h38a10,10,0,0,0,10-10v-1a10,10,0,0,0-10-10H1493.7a10,10,0,0,1-10-10v-1.05a10,10,0,0,1,10-10h19.45m62.39-116.18h63.3a10,10,0,0,0,10-10v-.38a10,10,0,0,0-10-10H1504.17m54,20.38h-116.1a10,10,0,0,0-10,10v1.46a10,10,0,0,0,10,10h162.24a10,10,0,0,1,10,10v1a10,10,0,0,1-10,10h-100.3m-17.9,0h-72.06m-18,0h-36M1749,529a9.41,9.41,0,1,0,9.41-9.41A9.41,9.41,0,0,0,1749,529Zm63,31.65h-55.53m-120.65,294H1491.7m234.4,0h-72.42m-89.48,42.1h-62a10.53,10.53,0,0,1-10.53-10.53h0a10.52,10.52,0,0,1,10.53-10.53H1572m99.88,0H1572m-1095.31-111c-11,0-39.23-2.39-38.58-19.36V732a20,20,0,0,0-20-20H289.19a16,16,0,0,0-16,16h0a16,16,0,0,0,16,16h65.56a10,10,0,0,0,10-10v-.78a10,10,0,0,0-10-10H312.2a20,20,0,0,0-20,19.5v.54a20,20,0,0,0,20,20.49h95.39a10.93,10.93,0,0,1,10.93,10.93h0a10.93,10.93,0,0,1-10.93,10.93H327A15.93,15.93,0,0,1,311,769.71h0A15.93,15.93,0,0,1,327,753.78h47a10.74,10.74,0,0,1,10.73,10.73h0A10.73,10.73,0,0,1,374,775.24H139.37m84.37,0h15.6a20,20,0,0,0,20-20v-1.83a20,20,0,0,0-20-20H182.89M396.37,940.46s-3,5.77,19.74,5.77H951.68m544.22-5.77s3,5.77-19.74,5.77H1317.59m-774.17-67.1H594.9m10,0h51.47m10,0h69.48m-253.9,0h51.48m696.94,0h51.48m10,0h51.47m10,0h51.48m-235.9,0h51.48m-131,0h69.47m-413.05,0h333.58m63.18,21.36h33.79c19.83,0,20.34,5.78,20.34,5.78l6.4,12.59m-196.53-18.37h77.72M799.68,925.35h-83.5c-22.74,0-19.74-5.78-19.74-5.78l7.48-14.48a20,20,0,0,1,12.76-4.6H986.83m148.27,24.86H839.87m-221.6-65H672m11.1,0h53.68m-244.48,0H607.16m205.46.27H866.3m11.1,0h53.68m11.1,0h59.7m-254,0h53.68m276.26,0h53.68m11.1,0h53.68m11.11,0H1261m11.1-.27h120.93m-380.06.27h53.68M656.11,843.28h52.53m11.12,0h52.53m-269.73,0h78.77m265.74.27h52.52m11.13,0h52.52m11.13,0h58.42m-249.38,0h52.53m271.63,0h52.52m11.13,0h52.52m11.13,0h52.53m11.12-.27h84.27m-338.88.27h52.53m-504-.27H645m5.48-14.34h50.65m10.72,0h50.65m-250.42,0h66.31m256.21.26h50.64m10.73,0H946.6m10.73,0h56.32m-240.44,0h50.65m261.89,0h50.64m10.73,0h50.64m10.73,0h50.65m8.11,0h50.65m8.58-.26h48m-350.14.26H1075m-485.92-.26h50.65m589.05-13.12h-49.45m-10.48,0h-49.45m244.53,0H1299.2M1049,815.53H999.57m-10.47,0H939.64m-10.47,0h-55m234.78,0H1059.5m-255.73,0H754.32m-10.48,0H694.39m-10.47,0H634.47m-7.93,0H577.09m-8.38.29H521.8m341.9-.29H814.24m474.48.29h-49.45m-142.15,84.67h31.72m574.57-129c50.88-.58,85.91-46.44,85.91-102.93s-35-102.35-85.91-102.93v38.83c31.52.58,50.86,29,50.86,64.1s-19.34,63.52-50.86,64.1Zm-97.94,29.73c42.74-.43,67-2.21,80.79-4a20.21,20.21,0,0,0,17.65-20V547.9s-4.22,8.09-118.6,8.09-117.82-8.09-117.82-8.09V777.26a20.21,20.21,0,0,0,17.64,20c5.64.72,13.07,1.44,22.84,2.07m-16.22-.78v3a10.11,10.11,0,0,0,7.87,9.86c10.26,2.33,33.61,5.26,86.08,5.26s75.81-2.93,86.08-5.26a10.11,10.11,0,0,0,7.86-9.86v-3m24.47-250.49s-4.21-8.08-118.6-8.08-117.82,8.08-117.82,8.08"/></g></svg>