<?xml version="1.0" encoding="utf-8"?>
<!-- Generator: Adobe Illustrator 24.0.3, SVG Export Plug-In . SVG Version: 6.00 Build 0)  -->
<svg version="1.1" id="Layer_1" xmlns="http://www.w3.org/2000/svg" xmlns:xlink="http://www.w3.org/1999/xlink" x="0px" y="0px"
	 width="1920px" height="1080px" viewBox="0 0 1920 1080" style="enable-background:new 0 0 1920 1080;" xml:space="preserve">
<style type="text/css">
	.st0{fill:#FFFFFF;}
	.st1{fill:none;stroke:url(#SVGID_1_);stroke-width:3.98;stroke-linecap:round;stroke-linejoin:round;}
	.st2{fill:#BD0012;}
	.st3{fill:#FFFFFF;stroke:#FFFFFF;stroke-miterlimit:10;}
	
		.st4{opacity:0.5;fill:none;stroke:url(#SVGID_2_);stroke-width:3;stroke-linecap:round;stroke-linejoin:round;enable-background:new    ;}
</style>
<title>eco-bg-default</title>
<g id="white_masking">
	<path class="st0" d="M1448.6,259H496.4c-13.3,0-24,10.7-24,24l11,410.6l0,0l6,179.8c0.2,3.1,1.2,6.1,2.8,8.7v16.2
		c0,5.5,4.5,10,10,10h940.1c5.5,0,10-4.4,10-10v-15.8c1.9-2.7,2.9-5.9,3.1-9.2l4.8-179.7l0,0l12.3-410.6
		C1472.6,269.7,1461.8,259,1448.6,259z"/>
	<path class="st0" d="M1745.8,709c-3.3-2.9-11.6-8.2-21.7-13.8h-2.9c-18.6-10.1-42.4-20.7-55.6-20.7h-107.9
		c-23.4,0-43.4,5.6-55.6,20.7h-1.2c-7.1,9.7-11.2,23-11.2,41l0,0c0,10.6,58.3,46.2,69.3,46.2h198c11,0,20-8.6,20-19.3l0,0
		C1777,743.2,1760,721.3,1745.8,709z"/>
</g>
<g id="ecosystem-2">
	<path class="st0" d="M1772.8,886.6h-36.3c-2.5,0-4.5-3.9-4.5-8.7s2-8.7,4.5-8.7h36.3C1770.3,874.8,1770.3,881.1,1772.8,886.6
		L1772.8,886.6z"/>
	<circle class="st0" cx="1792" cy="878" r="21.1"/>
	<path class="st0" d="M1809.1,845.4c0-9.7,8.4-18.8,20-18.8"/>
	<path class="st0" d="M1851.3,847.8c0,11.6-42.1,11.6-42.1,0c0-1,0.1-1.9,0.2-2.9h-28.9c-2.5,0-4.5-3.9-4.5-8.7s2-8.7,4.5-8.7
		c0,0,47.6-0.9,49.7-0.9C1841.8,826.8,1851.3,836.2,1851.3,847.8L1851.3,847.8z"/>
	
		<linearGradient id="SVGID_1_" gradientUnits="userSpaceOnUse" x1="470.41" y1="2502.5" x2="1474.49" y2="2502.5" gradientTransform="matrix(1 0 0 1 0 -1920)">
		<stop  offset="0" style="stop-color:#83C2E8"/>
		<stop  offset="1" style="stop-color:#AD92FC"/>
	</linearGradient>
	<path class="st1" d="M1452.3,884.1V898c0,5.5-4.5,10-10,10h-940c-5.5,0-10-4.4-10-10v-13.9 M472.4,281l17,592c0.5,9.5,8.4,17,18,17
		h930c9.6,0,17.5-7.5,18-17.1l17.1-591.9c0-13.3-10.7-24-24-24H496.4C483.2,257,472.4,267.7,472.4,281z M1371,908v-17.9 M558,908
		v-17.9"/>
	<path class="st2" d="M1262.8,1034c0.8,0,1.5-0.7,1.5-1.5s-0.7-1.5-1.5-1.5s-1.5,0.7-1.5,1.5S1261.9,1034,1262.8,1034z"/>
	<path class="st3" d="M449.6,550c-1.5-1.3-14.1-7.9-117.6-7.9s-116.8,6.6-118.4,7.9l0,0c-0.1,0.1-0.2,0.1-0.2,0.2h0.2v17.5
		c-50.7,0.9-85.4,46.6-85.4,102.9s34.8,102,85.4,102.9v5.7c0,10.2,7.6,18.7,17.6,20c3.6,0.5,8,0.9,13.2,1.4h-6.6v3
		c0,4.7,3.3,8.8,7.9,9.9c10.3,2.3,33.6,5.3,86.1,5.3s75.8-2.9,86.1-5.3c4.6-1.1,7.9-5.1,7.9-9.9v-3H420c4.8-0.4,8.9-0.8,12.3-1.3
		c10.1-1.3,17.6-9.8,17.6-20V550H449.6z M213.6,734.7c-31.3-0.9-50.4-29.2-50.4-64.1s19.1-63.2,50.4-64.1V734.7z"/>
	
		<linearGradient id="SVGID_2_" gradientUnits="userSpaceOnUse" x1="-1.5" y1="2449.6504" x2="1921.7" y2="2449.6504" gradientTransform="matrix(1 0 0 1 0 -1920)">
		<stop  offset="0" style="stop-color:#7EC7E6"/>
		<stop  offset="1" style="stop-color:#B28CFF"/>
	</linearGradient>
	<path class="st4" d="M1569.2,539.2h96.4c5.5,0,10-4.5,10-10v-1.4c0-5.5-4.5-10-10-10h-124.3c-5.5,0-10-4.5-10-10v-1
		c0-5.5,4.5-10,10-10h231.9c5.5,0,10,4.5,10,10v1.3c0,5.5-4.5,10-10,10h-52c-5.5,0-10,4.5-10,10v1c0,5.5,4.5,10,10,10h18.2
		c5.5,0,10,4.5,10,10v0.8c0,5.5-4.5,10-10,10h-108.9c-5.5,0-10,4.5-10,10v1.1c0,5.5,4.5,10,10,10h71c5.5,0,10,4.5,10,10v1
		c0,5.5-4.5,10-10,10H1676 M1693.9,465h107.7 M1693.9,444.5h76.4 M1639.4,602.1H1568 M1748,601.8l18-10l17.2,10.4l-17.7,10.3
		L1748,601.8z M197.8,496.8H90.2 M144.1,435.8H99.5c-5.3,0-9.5,4.3-9.5,9.5l0,0l0,0c0,5.3,4.3,9.5,9.5,9.5l0,0h71.8
		c5.3,0,9.5,4.3,9.5,9.5v1.6c0,5.3-4.3,9.5-9.5,9.5h-45.8 M143.7,400.7h24.4c5.6,0,10.1-4.5,10.1-10.1v-1.1
		c0-5.6-4.5-10.1-10.1-10.1h-50.6c-5.6,0-10.1-4.5-10.1-10.1l0,0c0-5.6,4.5-10.1,10.1-10.1h142.6c5.6,0,10.1-4.5,10.1-10.1v-0.6
		c0-5.6-4.5-10.1-10.1-10.1h-106c-5.6,0-10.1-4.5-10.1-10l0,0V328c0-5.6,4.5-10.1,10.1-10.1h80.1 M386.2,296.9h-64.1 M303.5,296.8
		h-35.6 M180.2,422.2l18.3-9.3v20.9L180.2,422.2z M198.5,381h53.7 M252.2,318h100.1 M1628.2,257.1c6.8-1.9,14-1.4,20.4,1.5
		c-0.2-1-0.3-2-0.4-3c-0.3-9.4,7.1-17.2,16.5-17.5c3-0.1,6,0.6,8.6,2c0.5-21.1,17.9-37.9,39-37.4c19.3,0.4,35.2,15.1,37.2,34.3
		c13.1-5.1,27.9,1.3,33.1,14.4c1.1,2.7,1.7,5.6,1.7,8.6c0,0.5,0,1,0,1.5c13.1-5.1,27.9,1.4,33,14.5c4.2,10.8,0.6,23.1-8.9,29.9
		 M1700.5,252c-2.5-4.4-1-10,3.4-12.5l0,0c6.3-3.6,14.3-1.4,17.9,4.8c5.2,9,2.1,20.4-6.9,25.6l0,0c-12.8,7.4-29.2,2.9-36.5-9.9
		c-10.6-18.2-4.4-41.5,13.8-52l0.1-0.1 M1773.7,240c11.5,8.2,14.1,24.1,5.9,35.6c-5.7,8-16.9,9.9-24.9,4.1c-5.6-4-6.9-11.8-2.9-17.4
		c2.8-3.9,8.3-4.8,12.2-2c2.8,2,3.4,5.8,1.4,8.5l0,0 M1728.7,694.7h191.5 M1465,694.7h34.8 M450,694.7h30.4 M167.7,694.7l45.4,2
		 M0,694.7h129.4 M1655.4,286H1520c-5.5,0-10-4.5-10-10l0,0c0-5.5,4.5-10,10-10h63.4 M1603.4,307H1764 M1550.4,307h35.1 M1509,307
		h30.3 M1549.3,413h90.7 M1508,328h302c5.5,0,10,4.5,10,10l0,0c0,5.5-4.5,10-10,10h-160c-5.5,0-10,4.5-10,10v2c0,5.5,4.5,10,10,10
		h51c5.5,0,10,4.5,10,10l0,0c0,5.5-4.5,10-10,10h-160c-5.5,0-10-4.5-10-10l0,0c0-5.5,4.5-10,10-10h53c5.5,0,10-4.5,10-10v-2
		c0-5.5-4.5-10-10-10h-86c-5.5,0-10-4.5-10-10l0,0C1498,332.5,1502.5,328,1508,328z M1675,413h73 M1766,381l-18,11v-21L1766,381z
		 M1784,413h36 M1495,497l18-11v22L1495,497z M1505,444h161c5.5,0,10,4.5,10,10v1c0,5.5-4.5,10-10,10h-161c-5.5,0-10-4.5-10-10v-1
		C1495,448.5,1499.5,444,1505,444z M1772.8,886.6h-36.3c-2.5,0-4.5-3.9-4.5-8.7s2-8.7,4.5-8.7h36.3
		C1770.3,874.8,1770.3,881.1,1772.8,886.6L1772.8,886.6z M1813,878c0,11.6-9.5,21.1-21.1,21c-11.6,0-21.1-9.5-21-21.1
		s9.5-21.1,21.1-21l0,0C1803.6,856.9,1813,866.4,1813,878z M1809.1,845.5c0-9.7,8.4-18.8,20-18.8 M1851.2,847.8
		c0,11.6-42.1,11.6-42.1,0c0-1,0.1-1.9,0.2-2.9h-28.9c-2.5,0-4.5-3.9-4.5-8.7s2-8.7,4.5-8.7c0,0,47.6-0.9,49.7-0.9
		C1841.8,826.7,1851.2,836.1,1851.2,847.8C1851.3,847.8,1851.3,847.8,1851.2,847.8L1851.2,847.8z M1776,835.6h-229
		c-8.7,0-15.8-7.1-15.8-15.8l0,0l0,0c0-8.7,7.1-15.8,15.8-15.8h46.2c5.5,0,10,4.5,10,10v1.2c0,5.5-4.5,10-10,10h-86.3
		c-5.5,0-10,4.5-10,10v1.8c0,5.5,4.5,10,10,10h96.3c11,0,20,8.9,20,20c0,0.2,0,0.3,0,0.5v0.5c-0.3,10.9-9.1,19.5-20,19.5h-42.6
		c-5.5,0-10-4.5-10-10v-0.8c0-5.5,4.5-10,10-10h65.6c8.8,0,16,7.2,16,16l0,0c0,8.8-7.2,16-16,16h-128.9c-11,0-20-9-20-20v-13.3
		c0-11-9-20-20-20 M1732.5,877.4H1676c-11,0-20-9-20-20v-1.8c0-11,9-20,20-20h15.6 M415,391.7h31 M414.4,518.8v-21.1l17.7,10.7
		L414.4,518.8z M436.4,339h-38c-5.5,0-10-4.5-10-10v-1c0-5.5,4.5-10,10-10h28.1c5.5,0,10-4.5,10-10v-1c0-5.5-4.5-10-10-10H407
		 M1745.8,708.6c14.2,12.4,31.2,34.2,31.2,54.1l0,0c0,10.6-9,19.3-20,19.3h-198c-11,0-69.3-35.5-69.3-46.2l0,0
		c0-48.2,29.3-63.3,68-63.3h107.9C1687,672.5,1736.2,700.3,1745.8,708.6 M1523.9,700.7l17.1,9.7c9.8,5.3,24.2,20.3,23.8,31.1
		 M1531.3,160.3H1666c5.5,0,10,4.5,10,10v0.4c0,5.5-4.5,10-10,10h-63.3 M1531.2,223.2h100.3c5.5,0,10-4.5,10-10v-1
		c0-5.5-4.5-10-10-10h-162.2c-5.5,0-10-4.5-10-10v-1.5c0-5.5,4.5-10,10-10h116.1 M1441.2,223.2h72.1 M1387.2,223.2h36 M171.1,529
		c0,5.2-4.2,9.4-9.4,9.4s-9.4-4.2-9.4-9.4s4.2-9.4,9.4-9.4l0,0C166.9,519.6,171.1,523.8,171.1,529z M157.6,560.7h-49.5 M450.4,854.7
		H306.3 M406.4,834.7H278.3 M288.4,854.7H216 M377.9,896.8h62c5.8,0,10.5-4.7,10.5-10.5l0,0c0-5.8-4.7-10.5-10.5-10.5l0,0H270.2
		 M214.1,773.6c-50.9-0.6-85.9-46.4-85.9-102.9s35-102.3,85.9-102.9v38.8c-31.5,0.6-50.9,29-50.9,64.1s19.3,63.5,50.9,64.1V773.6z
		 M312,803.3c-42.7-0.4-67-2.2-80.8-4c-10.1-1.3-17.6-9.8-17.6-20V550c0,0,4.2,8.1,118.6,8.1S450,550,450,550v229.4
		c0,10.2-7.6,18.7-17.6,20c-5.6,0.7-13.1,1.5-22.8,2.1 M425.7,800.7v3c0,4.7-3.3,8.8-7.9,9.9c-10.3,2.3-33.6,5.3-86.1,5.3
		s-75.8-2.9-86.1-5.3c-4.6-1-7.9-5.1-7.9-9.9v-3 M213.4,550.2c0,0,4.2-8.1,118.6-8.1s117.8,8.1,117.8,8.1"/>
</g>
</svg>
