<svg xmlns="http://www.w3.org/2000/svg" xmlns:xlink="http://www.w3.org/1999/xlink" viewBox="0 0 1920 1080"><defs><style>.cls-1,.cls-2{fill:#fff;}.cls-1{stroke:#fff;stroke-miterlimit:10;}.cls-3,.cls-4,.cls-5,.cls-6{fill:none;stroke-linecap:round;stroke-linejoin:round;}.cls-3{stroke-width:3.98px;stroke:url(#New_Gradient_Swatch_2);}.cls-4{stroke-width:4px;stroke:url(#New_Gradient_Swatch_2-2);}.cls-5{stroke-width:3.62px;stroke:url(#New_Gradient_Swatch_2-5);}.cls-6{stroke-width:3px;opacity:0.5;stroke:url(#linear-gradient);}</style><linearGradient id="New_Gradient_Swatch_2" x1="-3081.97" y1="875.39" x2="-1971.99" y2="875.39" gradientTransform="matrix(-1, 0, 0, 1, -1581.27, 0)" gradientUnits="userSpaceOnUse"><stop offset="0" stop-color="#7ec7e6"/><stop offset="1" stop-color="#b28cff"/></linearGradient><linearGradient id="New_Gradient_Swatch_2-2" x1="-3001.91" y1="521" x2="-2055.96" y2="521" xlink:href="#New_Gradient_Swatch_2"/><linearGradient id="New_Gradient_Swatch_2-5" x1="-2965.87" y1="532.35" x2="-2089.45" y2="532.35" xlink:href="#New_Gradient_Swatch_2"/><linearGradient id="linear-gradient" x1="-1.5" y1="553.27" x2="1921.61" y2="553.27" gradientUnits="userSpaceOnUse"><stop offset="0" stop-color="#b28cff"/><stop offset="1" stop-color="#7ec7e6"/></linearGradient></defs><title>eco-bg-reverse_wheel-1</title><g id="white_masking" data-name="white masking"><path class="cls-1" d="M1467.49,547.9V777.26a20.21,20.21,0,0,0,17.64,20c3.41.43,7.49.87,12.33,1.29h-5.71v3a10.11,10.11,0,0,0,7.87,9.86c10.26,2.33,33.61,5.26,86.08,5.26s75.81-2.93,86.08-5.26a10.11,10.11,0,0,0,7.86-9.86v-3h-6.57c5.22-.45,9.57-.91,13.19-1.38a20.21,20.21,0,0,0,17.65-20v-5.72c50.65-.87,85.41-46.61,85.41-102.92s-34.76-102-85.41-102.92V548.11h.2a.89.89,0,0,0-.2-.2h0c-1.58-1.26-14.84-7.88-118.4-7.88s-116.16,6.62-117.64,7.87Zm236.42,56.57c31.29.86,50.36,29.2,50.36,64.07s-19.07,63.21-50.36,64.07Z"/><path class="cls-1" d="M232.18,785.64h108c38.68,0,68-4.08,68,59.72h0c0,14.08-58.34,85.1-69.39,85.1h-198c-11.05,0-20-11.41-20-25.49h0c0-26.32,17-55.25,31.19-71.57C161.55,822.39,210.8,785.64,232.18,785.64Z"/><path class="cls-1" d="M336.81,875.65c-.44-14.3,14-34.06,23.81-41.11l17.12-12.83"/><path class="cls-1" d="M232.18,785.64h108c38.68,0,68-4.08,68,59.72h0c0,14.08-58.34,85.1-69.39,85.1h-198c-11.05,0-20-11.41-20-25.49h0c0-26.32,17-55.25,31.19-71.57C161.55,822.39,210.8,785.64,232.18,785.64Z"/><path class="cls-2" d="M1417.55,785h1.08l-11-504a24,24,0,0,0-24-24H511.53a24,24,0,0,0-24,24L476.79,780l-1.19,4.91L392.71,942.1V956a10,10,0,0,0,10,9.95H1488.75a10,10,0,0,0,10-9.95V942.1ZM510,754.44l10-444.28h852.61l10.15,444.38Z"/></g><g id="ecosystem-2" data-name="ecosystem"><path class="cls-3" d="M1498.71,942.1V956a10,10,0,0,1-10,9.95H402.66a10,10,0,0,1-10-9.95V942.1L475.6,784.89l942,.11Z"/><path class="cls-4" d="M1407.68,281l11,504-941.95-.11L487.53,281a24,24,0,0,1,24-24h872.15A24,24,0,0,1,1407.68,281Z"/><path class="cls-3" d="M1498.71,942.1V956a10,10,0,0,1-10,9.95H402.66a10,10,0,0,1-10-9.95V942.1L475.6,784.89l942,.11Z"/><path class="cls-4" d="M1407.68,281l11,504-941.95-.11L487.53,281a24,24,0,0,1,24-24h872.15A24,24,0,0,1,1407.68,281Z"/><polygon class="cls-5" points="1372.64 310.16 1382.79 754.54 509.98 754.44 520.03 310.16 1372.64 310.16"/><path class="cls-2" d="M142.6,724.19h36.29c2.46,0,4.46,3.88,4.46,8.66s-2,8.67-4.46,8.67H142.6a20.91,20.91,0,0,0,0-17.33Z"/><circle class="cls-2" cx="123.42" cy="732.85" r="21.06"/><path class="cls-2" d="M106.24,765.4c0,9.72-8.4,18.76-20,18.76"/><path class="cls-2" d="M85.17,762.28c2.09,0,49.73.89,49.73.89,2.47,0,4.47,3.87,4.47,8.66s-2,8.66-4.47,8.66H106a20.69,20.69,0,0,1,.22,2.86c0,11.63-42.13,11.63-42.13,0A21.06,21.06,0,0,1,85.17,762.28Z"/><path class="cls-6" d="M135.37,724.19h43.52c2.46,0,4.46,3.88,4.46,8.66s-2,8.67-4.46,8.67H125.26m17.36-17.33a21.07,21.07,0,1,0,.2,16.86m-36.58,40c0-9.72-8.4-18.76-20-18.76M64.11,783.44c0,11.63,42.13,11.63,42.13,0a20.57,20.57,0,0,0-.22-2.86H134.9c2.47,0,4.47-3.88,4.47-8.66s-2-8.67-4.47-8.67c0,0-47.64-.88-49.73-.88A21.06,21.06,0,0,0,64.11,783.44Zm88.14,50C138,849.72,121.06,878.65,121.06,905h0c0,14.08,9,25.49,20,25.49h198c11.05,0,69.39-71,69.39-85.1h0c0-63.8-29.36-59.72-68-59.72h-108C211.1,785.64,161.85,822.39,152.25,833.4Zm184.86,42.25c-.44-14.3,14-34.06,23.81-41.11l17.13-12.83M244.11,602.07h-25.5a10,10,0,0,1-10-10v-1a10,10,0,0,1,10-10h71a10,10,0,0,0,10-10V570a10,10,0,0,0-10-10H180.75a10,10,0,0,1-10-10v-.79a10,10,0,0,1,10-10h18.16a10,10,0,0,0,10-10v-1.05a10,10,0,0,0-10-10H146.85a10,10,0,0,1-10-10v-1.31a10,10,0,0,1,10-10H378.78a10,10,0,0,1,10,10v1.05a10,10,0,0,1-10,10H254.48a10,10,0,0,0-10,10v1.37a10,10,0,0,0,10,10h96.43M118.54,465H226.2m-76.43-20.54H226.2M352.11,602.07H280.7M154.57,612.6l-17.72-10.35,17.26-10.42,18,10ZM1829.88,496.83H1722.27m72.37-21.22h-45.77a9.54,9.54,0,0,1-9.54-9.53v-1.64a9.54,9.54,0,0,1,9.54-9.53h71.76a9.54,9.54,0,0,0,9.54-9.54h0a9.54,9.54,0,0,0-9.54-9.54H1776M1685.9,317.91H1766A10.09,10.09,0,0,1,1776.08,328v.42A10.09,10.09,0,0,1,1766,338.51H1660a10.09,10.09,0,0,0-10.09,10.09v.58A10.09,10.09,0,0,0,1660,359.27h142.58a10.09,10.09,0,0,1,10.09,10.09h0a10.09,10.09,0,0,1-10.09,10.09H1752a10.08,10.08,0,0,0-10.09,10.09v1.13A10.09,10.09,0,0,0,1752,400.77h24.43m-242.5-103.91H1598m18.57-.11h35.66m69.4,137.11V412.93l18.32,9.28ZM1667.89,381h53.74m-153.84-63h100.1m-66.82-60.81a29.94,29.94,0,0,1,20.39,1.48,16.3,16.3,0,0,1-.36-3,17,17,0,0,1,25.09-15.44,38.23,38.23,0,0,1,76.25-3.1,25.5,25.5,0,0,1,34.8,23c0,.5,0,1,0,1.47a25.5,25.5,0,0,1,24.14,44.46m-108-53.95a9.18,9.18,0,0,1,3.38-12.54,13.11,13.11,0,0,1,17.9,4.83,18.74,18.74,0,0,1-6.9,25.59,26.77,26.77,0,0,1-36.54-9.87,38.06,38.06,0,0,1,13.91-52.11M1746.51,240a25.5,25.5,0,0,1,5.93,35.56,17.85,17.85,0,0,1-24.89,4.15,12.49,12.49,0,0,1-2.91-17.42,8.75,8.75,0,0,1,12.2-2,6.12,6.12,0,0,1,1.42,8.54M0,696.65H455.13m1009.58,0h-49m289.3,0h41.39m173.74,0H1784.68M336.7,266h63.41a10,10,0,0,1,10,10h0a10,10,0,0,1-10,10H264.7M156.11,307h160.6m17.9,0h35.11m11.06,0h30.33m-131,106h90.65m51.35-75h0a10,10,0,0,1-10,10h-86a10,10,0,0,0-10,10v2a10,10,0,0,0,10,10h53a10,10,0,0,1,10,10h0a10,10,0,0,1-10,10h-160a10,10,0,0,1-10-10h0a10,10,0,0,1,10-10h51a10,10,0,0,0,10-10v-2a10,10,0,0,0-10-10h-160a10,10,0,0,1-10-10h0a10,10,0,0,1,10-10h302A10,10,0,0,1,422.11,338Zm-250,75h73m-73-42v21l-18-11Zm-72,42h36m271,95V486l18,11Zm18-54v1a10,10,0,0,1-10,10h-161a10,10,0,0,1-10-10v-1a10,10,0,0,1,10-10h161A10,10,0,0,1,425.11,454Zm1049-62.31h31M1488,506.48l17.72-10.7v21.05Zm25.12-209.62H1493.7a10,10,0,0,0-10,10v1.05a10,10,0,0,0,10,10h28.06a10,10,0,0,1,10,10v1a10,10,0,0,1-10,10h-38m20.46-178.66h134.67a10,10,0,0,1,10,10v.38a10,10,0,0,1-10,10h-63.3m-71.49,42.5h100.3a10,10,0,0,0,10-10v-1a10,10,0,0,0-10-10H1442.11a10,10,0,0,1-10-10v-1.46a10,10,0,0,1,10-10h116.1m-144.12,42.5h72.06m-90.08,0h-36m398.39,296.41A9.41,9.41,0,1,1,1749,529,9.41,9.41,0,0,1,1758.43,519.59ZM1812,560.65h-55.53m-120.65,294H1491.7m234.4,0h-72.42m-81.69,21h-69.76a10.52,10.52,0,0,0-10.53,10.53h0a10.53,10.53,0,0,0,10.53,10.53h62m107.67-21.06H1572M139.37,775.24H374a10.73,10.73,0,0,0,10.73-10.73h0A10.74,10.74,0,0,0,374,753.78H327A15.93,15.93,0,0,0,311,769.71h0A15.93,15.93,0,0,0,327,785.64h80.61a10.93,10.93,0,0,0,10.93-10.93h0a10.93,10.93,0,0,0-10.93-10.93H312.18a20,20,0,0,1-20-20.49v-.54a20,20,0,0,1,20-19.5h42.55a10,10,0,0,1,10,10V734a10,10,0,0,1-10,10H289.19a16,16,0,0,1-16-16h0a16,16,0,0,1,16-16H418.1a20,20,0,0,1,20,20V745.4c-.65,17,27.54,19.36,38.58,19.36M182.89,733.37h56.45a20,20,0,0,1,20,20v1.83a20,20,0,0,1-20,20h-15.6m727.94,171H416.11c-22.75,0-19.74-5.77-19.74-5.77m921.22,5.77h158.57c22.74,0,19.74-5.77,19.74-5.77M543.42,879.13H594.9m10,0h51.47m10,0h69.48m-253.9,0h51.48m696.94,0h51.48m10,0h51.47m10,0h51.48m-235.9,0h51.48m-131,0h69.47m-413.05,0h333.58m123.71,39.73-6.4-12.59s-.51-5.78-20.34-5.78h-33.79m-136,0h77.72m-97.5,0H716.68a20,20,0,0,0-12.76,4.6l-7.48,14.48s-3,5.78,19.74,5.78h83.5m335.42,0H839.87m-221.6-65H672m11.1,0h53.68m-244.48,0H607.16m205.46.27H866.3m11.1,0h53.68m11.1,0h59.7m-254,0h53.68m276.26,0h53.68m11.1,0h53.68m11.11,0H1261m11.1-.27h120.93m-380.06.27h53.68M656.11,843.28h52.53m11.12,0h52.53m-269.73,0h78.77m265.74.27h52.52m11.13,0h52.52m11.13,0h58.42m-249.38,0h52.53m271.63,0h52.52m11.13,0h52.52m11.13,0h52.53m11.12-.27h84.27m-338.88.27h52.53m-504-.27H645m5.48-14.34h50.65m10.72,0h50.65m-250.42,0h66.31m256.21.26h50.64m10.73,0H946.6m10.73,0h56.32m-240.44,0h50.65m261.89,0h50.64m10.73,0h50.64m10.73,0h50.65m8.11,0h50.65m8.58-.26h48m-350.14.26H1075m-485.92-.26h50.65m589.05-13.12h-49.45m-10.48,0h-49.45m244.53,0H1299.2M1049,815.53H999.57m-10.47,0H939.64m-10.47,0h-55m234.78,0H1059.5m-255.73,0H754.32m-10.48,0H694.39m-10.47,0H634.47m-7.93,0H577.09m-8.38.29H521.8m341.9-.29H814.24m474.48.29h-49.45m-142.15,84.67h31.72m574.57-167.85c31.52-.58,50.86-29,50.86-64.1s-19.34-63.52-50.86-64.1V565.61c50.88.58,85.91,46.44,85.91,102.93s-35,102.35-85.91,102.93ZM1508,799.38c-9.77-.63-17.2-1.35-22.84-2.07a20.21,20.21,0,0,1-17.64-20V547.9s3.43,8.09,117.82,8.09,118.6-8.09,118.6-8.09V777.18a20.21,20.21,0,0,1-17.65,20c-13.76,1.77-38,3.55-80.79,4m74.17-2.6v3a10.11,10.11,0,0,1-7.86,9.86c-10.27,2.33-33.61,5.26-86.08,5.26s-75.82-2.93-86.08-5.26a10.11,10.11,0,0,1-7.87-9.86v-3m-24.06-250.49s3.43-8.08,117.82-8.08,118.6,8.08,118.6,8.08"/></g></svg>