<svg xmlns="http://www.w3.org/2000/svg" viewBox="0 0 1732.71 135.03"><defs><style>.cls-1,.cls-2{fill:#fff;}.cls-2{fill-rule:evenodd;}</style></defs><title>client-brands</title><g id="ecosystem-2" data-name="ecosystem"><path class="cls-1" d="M1476.94,58.11V77.78c0,4.4,0,4.88-3.42,5.37v.74h11v-.74c-3.29-.36-3.42-1-3.42-5.37V59.94c0-4.39,0-7,.13-9.28l-7.7,2.56V54c3.42,0,3.42,0,3.42,4.15M1465,80a5.47,5.47,0,0,1-4,2.07,4.63,4.63,0,0,1-4.4-4.39c-.12-1.84.86-2.81,2.57-3.91a33.84,33.84,0,0,1,6-2.69L1465,80Zm.12,1.22a3.27,3.27,0,0,0,3.42,3.17c2.08,0,3.18-1.58,4.28-3.05l-.37-.37a3.14,3.14,0,0,1-1.83.86c-1.1,0-1.59-.37-1.47-2.69l.25-11c.12-5.62-3.42-7.21-7.33-7.21-5.5,0-9.16,4-9.41,7.94h4.15c-.24-3.66.25-6.35,4.28-6.35,2.81,0,4.4,1.46,4.4,6v1c-3.18,1.34-5.5,2.44-6.6,2.93-4.4,2.08-6.84,3.79-6.84,6.48,0,3.3,3.54,5.62,6.72,5.62a6.35,6.35,0,0,0,3.54-.86c.73-.61,1.83-1.59,2.81-2.44m-24.8-18.94c2.69,0,4,2,4.16,4.77h-9.78c1-3.67,3.42-4.77,5.62-4.77m9.29,15.64a9.38,9.38,0,0,1-6.84,2.81c-5.5,0-8.31-4.52-8.31-10.63V68.74h15.15c-.61-4.89-4.16-7.94-8.55-7.94-5.75,0-10.39,5.25-10.39,12s3.18,11.73,10.14,11.73c4.89,0,7.82-3.55,9.29-6.11l-.49-.49ZM1410,54.69h3c5.26,0,8.06,1.47,8.06,6.23s-2.8,6.35-8.06,6.35h-3Zm3,14.17,13.2,15h5.61l-13.55-15.4c5.86-1.1,7.81-4.27,7.81-7.45,0-5.62-5.74-7.82-12.95-7.82H1401V54c3.66.49,4.15.61,4.15,5.37V77.66c0,4.76-.49,4.88-4.15,5.37v.73h13.19V83c-3.66-.49-4.15-.61-4.15-5.37v-8.8Zm-22.84-10.75V77.78c0,4.4,0,4.88-3.42,5.37v.74h11v-.74c-3.3-.36-3.42-1-3.42-5.37V59.94c0-4.39,0-7,.12-9.28l-7.69,2.56V54c3.42,0,3.42,0,3.42,4.15m-12,21.87a5.49,5.49,0,0,1-4,2.07,4.63,4.63,0,0,1-4.4-4.39c-.12-1.84.85-2.81,2.56-3.91a34.51,34.51,0,0,1,6-2.69Zm.12,1.22a3.27,3.27,0,0,0,3.42,3.17c2.08,0,3.18-1.58,4.28-3.05l-.37-.37a3.14,3.14,0,0,1-1.83.86c-1.1,0-1.59-.37-1.47-2.69l.25-11c.12-5.62-3.43-7.21-7.33-7.21-5.5,0-9.17,4-9.41,7.94h4.15c-.24-3.66.25-6.35,4.28-6.35,2.81,0,4.4,1.46,4.4,6v1c-3.18,1.34-5.5,2.44-6.6,2.93-4.4,2.08-6.84,3.79-6.84,6.48,0,3.3,3.54,5.62,6.72,5.62a6.37,6.37,0,0,0,3.54-.86c.73-.61,1.83-1.59,2.81-2.44m-24.8-18.94c2.69,0,4,2,4.16,4.77h-9.78c.86-3.67,3.42-4.77,5.62-4.77m9.29,15.64a9.38,9.38,0,0,1-6.85,2.81c-5.49,0-8.3-4.52-8.3-10.63V68.74h15.15c-.62-4.89-4.16-7.94-8.56-7.94-5.74,0-10.38,5.25-10.38,12s3.18,11.73,10.14,11.73c4.89,0,7.82-3.55,9.28-6.11Zm-39.58-23.21h2.93c5.25,0,8.06,1.47,8.06,6.23s-2.81,6.35-8.06,6.35h-3.06V54.69Zm3,14.17,13.19,15h5.62l-13.56-15.4c5.87-1.1,7.82-4.27,7.82-7.45,0-5.62-5.74-7.82-13-7.82h-12.21V54c3.66.49,4.15.61,4.15,5.37V77.66c0,4.76-.49,4.88-4.15,5.37v.73h13.19V83c-3.66-.49-4.15-.61-4.15-5.37v-8.8Zm-26.75-6.6c2.69,0,4,2,4.15,4.77H1294c.85-3.67,3.3-4.77,5.62-4.77m9.16,15.64a9.36,9.36,0,0,1-6.84,2.81c-5.5,0-8.31-4.52-8.31-10.63V68.74h15.15c-.61-4.89-4.15-7.94-8.55-7.94-5.74,0-10.38,5.25-10.38,12S1293,84.5,1299.93,84.5c4.89,0,7.82-3.55,9.29-6.11Zm-43.12,6h11v-.74c-3.3-.36-3.42-1-3.42-5.37V65.68a5.84,5.84,0,0,1,4.64-2c2.94,0,4.4,2,4.4,5.86v8.19c0,4.4,0,4.88-3.42,5.37v.74h11v-.74c-3.3-.36-3.42-1-3.42-5.37v-9c0-5.62-2.81-8.06-6.48-8.06-3.18,0-5.25,2-6.72,3.78V58.23c0-4.4,0-5.49.12-7.69l-6.71,2.56h-15.27c-2.57,0-6.23,0-9.29-.12l-1.22,9.28h.86c2.32-7,4.27-7.81,10.62-7.81h1.35V77.66c0,4.39-.49,5-4.64,5.37v.86h13.92V83c-4.15-.37-4.64-1-4.64-5.37V54.45h1.34c9.41,0,9.41,0,9.41,2.93v20.4c0,4.4,0,4.88-3.42,5.37Z"/><path class="cls-1" d="M1627.75,84.45l14.39-33.87h-7.53l-14.39,33.87Z"/><path class="cls-1" d="M1574,64.16c-5.89-1.47-7.33-2.21-7.33-4.46v-.08c0-1.63,1.48-2.91,4.35-2.91s5.82,1.28,8.8,3.3l2.76-6.44a19.58,19.58,0,0,0-11.45-3.49c-6.9,0-11.87,4.07-11.87,10.24v.08c0,6.75,4.39,8.65,11.21,10.4,5.67,1.43,6.83,2.4,6.83,4.3v.12c0,2-1.82,3.18-4.89,3.18-3.84,0-7.06-1.59-10.12-4.11v.15l-2.8,6.37A22,22,0,0,0,1572.31,85c7.33,0,12.45-3.81,12.45-10.52v-.11C1584.76,68.43,1580.88,66,1574,64.16Zm35.7-.15H1596V50.58h-7.45V84.45H1596V70.87h13.74V84.45h7.49V50.58h-7.49Zm35.46,20.44h7.48V71.34h16.18V64.55h-16.18V57.41H1671V50.58h-25.8Zm28.78-27h10.32v27h7.45v-27H1702V50.58H1674v6.83Zm31.58-6.13H1707v3.88h.81V51.28h1.44v-.7h-3.69v.7Zm7.8-.7-1.2,3.57h0l-1.24-3.57h-1.13v4.58h.78V51.59l1.28,3.57h.62l1.28-3.57v3.57h.78V50.58Z"/><path class="cls-1" d="M958,110.67h.63q-1,3.4-5,3.41a5.86,5.86,0,0,1-4.31-1.74,6.2,6.2,0,0,1-1.75-4.61,6.34,6.34,0,0,1,1.89-4.77,6.34,6.34,0,0,1,7.31-1.15c.87.46,1.3,1,1.3,1.66a1.11,1.11,0,0,1-.24.69.79.79,0,0,1-.69.32c-.65,0-1-.37-1.19-1.12a2.28,2.28,0,0,0-.54-1.19,2.36,2.36,0,0,0-1.48-.33,3.41,3.41,0,0,0-3,1.36,7,7,0,0,0-1,4.09,7.9,7.9,0,0,0,1.06,4.42,3.61,3.61,0,0,0,3.22,1.59A3.47,3.47,0,0,0,958,110.67Z"/><path class="cls-1" d="M968.09,103.59a6.19,6.19,0,0,1,2-1.84,4.76,4.76,0,0,1,2.39-.62,4.52,4.52,0,0,1,2.45.62,2.8,2.8,0,0,1,1.26,1.51,10.12,10.12,0,0,1,.3,2.92v3.3a20.7,20.7,0,0,0,.08,2.56.88.88,0,0,0,.47.67,3.51,3.51,0,0,0,1.47.21v.67h-6.19v-.67h.28a2.07,2.07,0,0,0,1.38-.31,1.13,1.13,0,0,0,.36-.72c0-.28.05-1.08.05-2.41v-3.59a10,10,0,0,0-.17-2.21,2,2,0,0,0-.83-1.19,2.71,2.71,0,0,0-1.63-.46,3.41,3.41,0,0,0-2.05.66,5.63,5.63,0,0,0-1.59,2v4.79a23.58,23.58,0,0,0,.07,2.49,1,1,0,0,0,.44.71,2.85,2.85,0,0,0,1.39.24v.67h-6.08v-.67h.31a2.09,2.09,0,0,0,1.36-.3,1.15,1.15,0,0,0,.37-.71c0-.28,0-1.09,0-2.43V97.55a4.77,4.77,0,0,0-.34-2.3q-.35-.48-1.65-.48V94.1a10,10,0,0,0,3.77-.62h.31Z"/><path class="cls-1" d="M996.51,111.4h.54c-.09,1.67-.91,2.5-2.46,2.5a2.21,2.21,0,0,1-1.56-.52,2.62,2.62,0,0,1-.75-1.57,16.12,16.12,0,0,1-2.68,1.57,5.46,5.46,0,0,1-2.16.52,3.22,3.22,0,0,1-2.09-.7,2.26,2.26,0,0,1-.88-1.86,3.27,3.27,0,0,1,1.47-2.63,18.11,18.11,0,0,1,4.07-2.19l2.27-.93V105a7.52,7.52,0,0,0-.16-1.8,1.85,1.85,0,0,0-.84-1,3.15,3.15,0,0,0-1.78-.44c-1.46,0-2.28.49-2.44,1.46s-.57,1.49-1.23,1.49-.89-.28-.89-.85a2.55,2.55,0,0,1,1.18-1.79,5.82,5.82,0,0,1,3.69-1,5.89,5.89,0,0,1,2.88.59,3,3,0,0,1,1.35,1.33,6,6,0,0,1,.33,2.28v4.84a8,8,0,0,0,.18,2.18.72.72,0,0,0,.76.48C996,112.83,996.35,112.36,996.51,111.4Zm-4.23-5.12-1.6.65c-2.52,1-3.79,2.31-3.79,3.86a2.2,2.2,0,0,0,.49,1.48,1.56,1.56,0,0,0,1.26.56,3.72,3.72,0,0,0,1.6-.45,12,12,0,0,0,2-1.36Z"/><path class="cls-1" d="M1006.52,104.19a5,5,0,0,1,1.61-2.18,3.62,3.62,0,0,1,2.19-.88,2,2,0,0,1,1.52.6,1.82,1.82,0,0,1,.56,1.23,1,1,0,0,1-.29.73.89.89,0,0,1-.69.31q-.74,0-1.11-1.08c-.18-.49-.44-.73-.79-.73a2.42,2.42,0,0,0-1.51.85,4.08,4.08,0,0,0-1.13,1.78,10.48,10.48,0,0,0-.24,2.53v2.13c0,1.28,0,2.09.05,2.42a1,1,0,0,0,.42.76,2.4,2.4,0,0,0,1.31.26h.41v.67h-6.36v-.67h.3a2.38,2.38,0,0,0,1.25-.24,1,1,0,0,0,.45-.68,23.52,23.52,0,0,0,.07-2.52v-3.37c0-1.29,0-2.1,0-2.42a1,1,0,0,0-.41-.76,2.23,2.23,0,0,0-1.31-.28h-.3V102a20.71,20.71,0,0,0,3.58-.87A9.83,9.83,0,0,1,1006.52,104.19Z"/><path class="cls-1" d="M1021.49,101.13v8.35c0,1.28,0,2.09.06,2.42a1.06,1.06,0,0,0,.42.76,2.41,2.41,0,0,0,1.3.26h.31v.67h-6.45v-.67h.5a2.08,2.08,0,0,0,1.35-.3,1.2,1.2,0,0,0,.37-.71c0-.28,0-1.09,0-2.43v-3.62a9.47,9.47,0,0,0-.2-2.58,1,1,0,0,0-.52-.58,3.81,3.81,0,0,0-1.15-.12h-.4v-.67a18.23,18.23,0,0,0,4-.78ZM1018.67,95a1.5,1.5,0,0,1,.44-1.08,1.48,1.48,0,0,1,1.08-.46,1.46,1.46,0,0,1,1.07.46,1.5,1.5,0,0,1,.44,1.08,1.55,1.55,0,0,1-.44,1.1,1.45,1.45,0,0,1-1.07.45,1.47,1.47,0,0,1-1.08-.45A1.55,1.55,0,0,1,1018.67,95Z"/><path class="cls-1" d="M1036.57,102.27H1033v7.24a10.8,10.8,0,0,0,.15,2.25,1.65,1.65,0,0,0,.62.93,1.72,1.72,0,0,0,1,.35,2.21,2.21,0,0,0,1.83-1.2l.46.28a3.1,3.1,0,0,1-1.34,1.45,3.61,3.61,0,0,1-1.79.49,2.89,2.89,0,0,1-1.85-.62,2.58,2.58,0,0,1-1-1.45,14.8,14.8,0,0,1-.2-2.93v-6.79h-1.73v-.66a3,3,0,0,0,2.14-1,4.77,4.77,0,0,0,1.21-2.75h.47v3.75h3.62Z"/><path class="cls-1" d="M1049,111.33l2.79-6.65a11.17,11.17,0,0,0,.6-1.63c0-.49-.54-.74-1.63-.76v-.67H1055v.67a2,2,0,0,0-1.43.52,7.91,7.91,0,0,0-1.13,2.1l-5.35,12.88a9.49,9.49,0,0,1-1.34,2.51,1.72,1.72,0,0,1-1.29.67c-.63,0-1-.29-1-.87s.5-1.23,1.52-1.68a4.86,4.86,0,0,0,1.19-.68,3,3,0,0,0,.59-1l1.14-2.84-4.49-9.66a5.21,5.21,0,0,0-1-1.6,2.05,2.05,0,0,0-1.35-.34v-.67h5.5v.67q-1.44,0-1.44.6a6.32,6.32,0,0,0,.57,1.43Z"/><path class="cls-1" d="M1061.4,102.36a1.53,1.53,0,0,1,.45-1.1,1.47,1.47,0,0,1,1.12-.48,1.56,1.56,0,0,1,1.12.46,1.57,1.57,0,0,1,0,2.23,1.55,1.55,0,0,1-1.11.46,1.49,1.49,0,0,1-1.11-.47A1.54,1.54,0,0,1,1061.4,102.36Zm0,10.14a1.59,1.59,0,0,1,1.57-1.57,1.56,1.56,0,0,1,1.12.46,1.51,1.51,0,0,1,.46,1.11,1.53,1.53,0,0,1-.47,1.12,1.55,1.55,0,0,1-1.11.46,1.46,1.46,0,0,1-1.11-.48A1.56,1.56,0,0,1,1061.4,112.5Z"/><path class="cls-1" d="M1097,114.08h-.66l-3.57-9.51-3.66,9.51h-.61l-3.68-9.52a7.76,7.76,0,0,0-.94-2,1.73,1.73,0,0,0-1.23-.32v-.67h5.47v.67a3.22,3.22,0,0,0-1.26.17.6.6,0,0,0-.34.58,7.47,7.47,0,0,0,.58,1.71l2.43,6.43,3.72-9.56h.57l3.6,9.56,2.64-6.81a6,6,0,0,0,.42-1.31c0-.47-.49-.73-1.48-.77v-.67h3.89v.67a2.15,2.15,0,0,0-1.1.27,2.25,2.25,0,0,0-.74,1.15l-.32.85Z"/><path class="cls-1" d="M1120.24,111.4h.53c-.09,1.67-.9,2.5-2.45,2.5a2.26,2.26,0,0,1-1.57-.52,2.73,2.73,0,0,1-.75-1.57,15.68,15.68,0,0,1-2.67,1.57,5.53,5.53,0,0,1-2.16.52,3.26,3.26,0,0,1-2.1-.7,2.28,2.28,0,0,1-.88-1.86,3.27,3.27,0,0,1,1.47-2.63,18.33,18.33,0,0,1,4.07-2.19l2.27-.93V105a7,7,0,0,0-.16-1.8,1.83,1.83,0,0,0-.83-1,3.17,3.17,0,0,0-1.78-.44c-1.47,0-2.28.49-2.45,1.46s-.56,1.49-1.23,1.49-.89-.28-.89-.85a2.54,2.54,0,0,1,1.19-1.79,7.44,7.44,0,0,1,6.56-.37,3,3,0,0,1,1.36,1.33,6.17,6.17,0,0,1,.33,2.28v4.84a8.11,8.11,0,0,0,.17,2.18.73.73,0,0,0,.76.48C1119.68,112.83,1120.08,112.36,1120.24,111.4Zm-4.24-5.12-1.6.65q-3.78,1.53-3.78,3.86a2.15,2.15,0,0,0,.49,1.48,1.55,1.55,0,0,0,1.25.56,3.72,3.72,0,0,0,1.61-.45,11.94,11.94,0,0,0,2-1.36Z"/><path class="cls-1" d="M1133.2,102.27h-3.61v7.24a11,11,0,0,0,.14,2.25,1.7,1.7,0,0,0,.62.93,1.72,1.72,0,0,0,1,.35,2.21,2.21,0,0,0,1.83-1.2l.47.28a3.2,3.2,0,0,1-1.34,1.45,3.63,3.63,0,0,1-1.79.49,2.89,2.89,0,0,1-1.85-.62,2.6,2.6,0,0,1-1-1.45,14.8,14.8,0,0,1-.2-2.93v-6.79h-1.73v-.66a3,3,0,0,0,2.15-1,4.9,4.9,0,0,0,1.21-2.75h.47v3.75h3.61Z"/><path class="cls-1" d="M1149.87,105.68h-8.37c0,.58-.06,1-.06,1.29a9.1,9.1,0,0,0,1,4.74,3.28,3.28,0,0,0,3,1.58,3.87,3.87,0,0,0,3.78-2.39h.7a4.15,4.15,0,0,1-1.86,2.34,5.83,5.83,0,0,1-5.91.07,6.07,6.07,0,0,1-2.22-2.17,6.35,6.35,0,0,1-.86-3.41,6.87,6.87,0,0,1,1.66-4.72,5.38,5.38,0,0,1,4.18-1.88,4.65,4.65,0,0,1,3.65,1.44A5,5,0,0,1,1149.87,105.68Zm-2.56-.6a4.41,4.41,0,0,0,0-.6,2.51,2.51,0,0,0-2.61-2.7q-2.67,0-3.18,3.3Z"/><path class="cls-1" d="M1160.17,104.19a5,5,0,0,1,1.62-2.18,3.58,3.58,0,0,1,2.19-.88,2,2,0,0,1,1.52.6,1.81,1.81,0,0,1,.55,1.23,1,1,0,0,1-.28.73.9.9,0,0,1-.7.31c-.49,0-.85-.36-1.11-1.08-.17-.49-.44-.73-.79-.73a2.38,2.38,0,0,0-1.5.85,4,4,0,0,0-1.13,1.78,10.4,10.4,0,0,0-.25,2.53v2.13c0,1.28,0,2.09,0,2.42a1.06,1.06,0,0,0,.42.76,2.43,2.43,0,0,0,1.31.26h.41v.67h-6.36v-.67h.31a2.43,2.43,0,0,0,1.25-.24,1,1,0,0,0,.45-.68,23.52,23.52,0,0,0,.07-2.52v-3.37c0-1.29,0-2.1,0-2.42a1.06,1.06,0,0,0-.42-.76,2.19,2.19,0,0,0-1.3-.28h-.31V102a20.57,20.57,0,0,0,3.59-.87A9.87,9.87,0,0,1,1160.17,104.19Z"/><path class="cls-1" d="M1061.67,41.23h-8.9a1.43,1.43,0,0,0-1.42,1.43v3.85a1.43,1.43,0,0,0,1.42,1.43h8.9a1.42,1.42,0,0,0,1.42-1.43V42.66A1.42,1.42,0,0,0,1061.67,41.23ZM1076.2,21.3c-.26-.53-2-3.94-2-3.94s.65-.39,1-.53.52-.34.11-1.1-.86-.58-.86-.58l-1.21.64a3.65,3.65,0,0,0-3-1.72H1068a1.35,1.35,0,0,0-1,.29,1.4,1.4,0,0,1-1.1.45h-15c-.15,0-.18-.09-.27-.15a2.18,2.18,0,0,0-2.36.25c-.24.27-1.19,1.43-1.75,2.06a2.65,2.65,0,0,1-1.44.88.55.55,0,0,0,.06-.61l-.22-.44.31-.85.28-.15-.16-.38s-.18.07-.51.23-.32.32-.32.32c-.15.53-.54.56-.54.56s-.86-1.63-1-1.84-.35-.86-3.23.68-2.19,2.14-2.19,2.14l1,1.89-.3.24.71,1.43a7,7,0,0,0-.8.5,2.19,2.19,0,0,0-1.3,2v41.4c0,3.12.89,4.54,4.36,4.54h31.67c2.05,0,4-1.07,4-4.63V23.91C1076.86,21.87,1076.47,21.84,1076.2,21.3Zm-22.75-3.44H1064a1.64,1.64,0,1,1,0,3.27h-10.56a1.64,1.64,0,0,1,0-3.27Zm13.38,32.59s3.53,6.16,4.27,7.58c1,1.87-.35,2.67-.35,2.67a2,2,0,0,1-2.67-.71c-.76-1.37-3.22-5.71-4.1-7.05-1.12-1.72-1.6-2.32-3.11-2.32h-7.44c-1.53,0-2,.6-3.14,2.32-.89,1.34-3.37,5.68-4.13,7.05a2,2,0,0,1-2.69.71s-1.34-.8-.36-2.67c.75-1.42,4.31-7.58,4.31-7.58a5.72,5.72,0,0,0,.89-2.5V41.06a5.66,5.66,0,0,0-.89-2.49s-3.56-6.16-4.31-7.57c-1-1.87.36-2.67.36-2.67a2,2,0,0,1,2.69.72c.76,1.36,3.24,5.69,4.13,7,1.13,1.73,1.61,2.32,3.14,2.32h7.44c1.51,0,2-.59,3.11-2.32.88-1.33,3.34-5.66,4.1-7a2,2,0,0,1,2.67-.72s1.33.8.35,2.67c-.74,1.41-4.27,7.57-4.27,7.57a5.66,5.66,0,0,0-.89,2.49V48A5.72,5.72,0,0,0,1066.83,50.45Z"/><path class="cls-2" d="M445.76,75.42a6.16,6.16,0,0,0-2.35-5,11.94,11.94,0,0,0-4.2-1.75l-.16,0a7.74,7.74,0,0,1-3-1.32,2.8,2.8,0,0,1-.93-2.18,3.28,3.28,0,0,1,.19-1.3,3,3,0,0,1,.65-1.07,3.41,3.41,0,0,1,1.21-.8,4.63,4.63,0,0,1,1.66-.29,3.84,3.84,0,0,1,1.47.23,3,3,0,0,1,1.1.68,2.87,2.87,0,0,1,.67,1,4.35,4.35,0,0,1,.26,1.49l0,1h2.82v-1a6.15,6.15,0,0,0-1.8-4.44A6.46,6.46,0,0,0,438.82,59a6.92,6.92,0,0,0-4.43,1.5,6,6,0,0,0-2.09,4.79,5.39,5.39,0,0,0,2,4.34,12.58,12.58,0,0,0,4.31,1.88A6.62,6.62,0,0,1,442,73a3.67,3.67,0,0,1,1,2.65v.14a4.26,4.26,0,0,1-.29,1.57,3.91,3.91,0,0,1-.83,1.29,3.78,3.78,0,0,1-1.31.88,4.83,4.83,0,0,1-4.89-.86,4.34,4.34,0,0,1-1.23-3.13l0-1-2.77,0-.06,1.25a6.62,6.62,0,0,0,.45,2.42,6.54,6.54,0,0,0,1.3,2.05A7.38,7.38,0,0,0,435.78,82a8,8,0,0,0,3,.59,7.05,7.05,0,0,0,2.81-.56A6.59,6.59,0,0,0,444,80.42a6.71,6.71,0,0,0,1.81-5Z"/><polygon class="cls-2" points="429.47 53.56 432.42 51.4 435.38 53.56 434.25 50.07 437.23 47.91 433.55 47.91 432.43 44.41 431.29 47.91 427.61 47.91 430.59 50.07 429.47 53.56"/><path class="cls-2" d="M420.24,77.55,412.84,59h-3.07l.8,2c.06.16,2.1,5.33,4.13,10.46l3.91,9.87-4.08,9.32h3.15L430.43,61l.82-2h-3.16Z"/><path class="cls-2" d="M392.2,64.29a10.18,10.18,0,0,1,3-2,9.36,9.36,0,0,1,3.54-.61A9.08,9.08,0,0,1,403.43,63a8.25,8.25,0,0,1,3.48,4.28l.24.66h3l-.47-1.32a11.19,11.19,0,0,0-4.86-6A12.46,12.46,0,0,0,398.61,59,11.6,11.6,0,0,0,386.8,70.82a12,12,0,0,0,3.06,8.07,12.39,12.39,0,0,0,15.63,1.67,11.17,11.17,0,0,0,4.19-5.47l.48-1.32h-3.07l-.22.67a7.94,7.94,0,0,1-2.78,3.63,9.37,9.37,0,0,1-8.91,1.12,8.7,8.7,0,0,1-4.86-4.79,9.52,9.52,0,0,1-.69-3.62,10,10,0,0,1,.72-3.69A7.74,7.74,0,0,1,392.2,64.29Z"/><path class="cls-2" d="M381.17,62.84A10.73,10.73,0,0,0,379.06,61a12,12,0,0,0-6.75-2,11.39,11.39,0,0,0-8.79,3.77,12.2,12.2,0,0,0,0,16.09,11.39,11.39,0,0,0,8.79,3.77,11.75,11.75,0,0,0,6.22-1.65,10.73,10.73,0,0,0,2.64-2.25v3.9H384V59h-2.83Zm0,9.45a7.65,7.65,0,0,1-.43,1.63,8.89,8.89,0,0,1-3.2,4.33A9.32,9.32,0,0,1,365.66,77a9.53,9.53,0,0,1-2.34-6.24,9.09,9.09,0,0,1,2.57-6.48,8.91,8.91,0,0,1,6.42-2.58,9.24,9.24,0,0,1,5.1,1.5,8.6,8.6,0,0,1,3.25,4,8.34,8.34,0,0,1,.47,1.56,8.93,8.93,0,0,1,.16,1.76A8.24,8.24,0,0,1,381.18,72.29Z"/><path class="cls-2" d="M355.05,61.3a7.56,7.56,0,0,0-2.78-1.77,10.38,10.38,0,0,0-7.21.17,8.5,8.5,0,0,0-3,2.1,7.75,7.75,0,0,0-.86,1.12,6,6,0,0,0-.74-1.09,7.73,7.73,0,0,0-3-2.15,10,10,0,0,0-3.84-.72,8.89,8.89,0,0,0-3.65.79,8.11,8.11,0,0,0-2.47,1.75V59h-2.83V82.59h2.83V69.32A11.06,11.06,0,0,1,328,66a6.6,6.6,0,0,1,1.32-2.37,5,5,0,0,1,1.88-1.44,5.35,5.35,0,0,1,2.47-.49,7.6,7.6,0,0,1,2.88.6,5.05,5.05,0,0,1,1.94,1.53,5.68,5.68,0,0,1,1,1.87,11.32,11.32,0,0,1,.36,3.17v13.7h2.83V69.51a15.24,15.24,0,0,1,.27-3.44,5.85,5.85,0,0,1,1.16-2.29,5,5,0,0,1,2.18-1.58,7.54,7.54,0,0,1,5-.09A4.6,4.6,0,0,1,353,63.24a5.78,5.78,0,0,1,1.37,2.41,13.09,13.09,0,0,1,.49,3.86V82.59h2.83V69.51a16.2,16.2,0,0,0-.64-4.77A8.11,8.11,0,0,0,355.05,61.3Z"/><polygon class="cls-2" points="306.57 58.96 301.85 44.42 297.13 58.96 281.76 58.96 294.21 68 289.49 82.55 301.83 73.55 314.24 82.59 309.5 67.98 321.9 58.96 306.57 58.96"/><path class="cls-1" d="M572.77,68.15v0l-3.94,1.93,6.29,3.07v0l0,0-6.31-3.06Zm33.58-17h0l-5.62-2.73,5.61,2.74Zm-37.54,12.7h0l-2.37-1.16,2.37,1.16h0Zm36.94-19.16h0l-5-2.45,5,2.46Zm-2.69-7.48h0l-2.27-1.1ZM568.81,70.05h0v0l-6.16-3v0l6.15,3Zm19-40.13L583.51,32l4.33-2.09v-.08h0l-6.25-3h0l6.23,3ZM568.87,33l3.9,1.9h0L568.87,33Zm25.27,6.08v0h0v.05h0v2.15l0,.07V39.11l0,0h0v0l0,0v.07Zm-21.37,2h0l-3.92-1.9,3.91-1.91v0l-3.93,1.93Zm8.73,29-3.62,1.78,3.62-1.77v0l0,0Zm6-3.28.35.18v0l-4.3,2.11,4.34-2.1V66.9l-.34-.16Zm6.7-3.05,0,0V59.27l0,.08ZM572.77,47.25l-3.92-1.9,3.92-1.91v0l-3.94,1.93,3.94,1.92Zm-3.9,4.25,3.9,1.91v0l-3.9-1.89Zm-6.35-21.58,6.29-3.07h0l-6.29,3.08h0l-4-2,4,2h0Zm6.29,9.24v0h0Zm4,26.64v0l-3.92-1.9L572.77,62v0l-3.94,1.93Zm0-6.23-3.92-1.9,3.92-1.91v0l-3.94,1.93.06,0h0l0,0,3.91,1.9Zm-6.35-27.74L568.81,33h0Zm.05-6.15,2.34,1.14h0Zm0,49.37,2.35,1.15h0Zm0-24.73,2.39,1.17h0Zm0-12.31,2.39,1.16h0Zm-10.26-7.17v1c0,.07,0,.15,0,.23V30.61C556.19,30.68,556.17,30.76,556.16,30.84ZM581.5,76.23h0L577.83,78Zm12.72-6.36h0l0,0V70h0v0h0v0h0v3.67l0,0v-3.8ZM568.81,33h0l-6.16,3h0l6.16-3Zm6.31-9.25,0,0-.93-.45h0l.92.45ZM560.55,35.12h0L558,33.87Zm21,41.09,2.92,1.42h0l-2.94-1.42ZM562.65,60.74h0L565,59.6Zm6.16-15.39h0v0l-6.16-3v0l6.16,3Z"/><path class="cls-1" d="M575.21,79.29h0V73.13h0V69.94h0v9.32l-6.29-3.05,0,0h0l-4.48,2.2h0l4.48-2.18h0l6.29,3.07v0l-.1.05.25,0-.08,0Zm-6.4-27.78h0l-6.16,3h0l6.16-3Zm31.67,15.32h0V68h0V66.84ZM605.63,57h0l-4.93-2.39,4.93,2.4Zm-5.14,9.84.61.3,0,0-.59-.29,0,0Zm-6.3-3.1,0,0v.17h0v6l0,0V63.73ZM600.45,36v6l-6.19-3,0,0,6.24,3h0V36Zm0,12.2L595.87,46h0l4.59,2.24V42.21h0ZM575.16,29.88l-6.29-3.05,0,0,6.29,3.07h0l0,0v3h.05V29.94h0l6.3-3.08v0l-6.3-3.07h0v-.5h0v6.66Zm0-6.12h0l6.28,3.06v0l-6.28,3.07h0Zm25.29,30.61-4.31-2.08v0l4.32,2.11v-6.1h0Zm0,12.37h0V60.69h0Zm0-6.09h0l3.37,1.64,0,0-3.35-1.62Zm0-.07-5.62-2.71,5.63,2.74v-6.1h0ZM594.15,33v0h0v6l0,0V32.93h0l6.24,3v0l-6.23-3,4.09-2,0,0-4.08,2,0,0v-5.2l0,0V33Zm-12.62,37.1,6.27,3.07v0l0,0v0l-6.29-3Zm15.78,1.33h0l-2.49-1.2Z"/><path class="cls-2" d="M572.77,41.09l-3.94-1.92h0v6.16h0l3.94-1.93Z"/><path class="cls-2" d="M572.77,41.08V37.27l-3.92,1.91Z"/><path class="cls-2" d="M568.81,39.19l-6.16,3v.1l6.16,3Zm0,0Z"/><path class="cls-2" d="M572.77,37.24V34.91l-3.9-1.9,0,0h0v6.14h0Z"/><path class="cls-2" d="M568.87,33l3.9,1.89V33.22l2.39-.33v-3l0,0h0L568.87,33Z"/><path class="cls-2" d="M568.81,33h0l-2.39-1.17-3.91-1.9v4.93l.14,0V36l6.16-3Z"/><path class="cls-2" d="M562.5,29.93l.26-.12.13.26-.26.13Z"/><path class="cls-2" d="M568.81,39.18h0L566.42,38l-3.77-1.83v6l6.16-3Z"/><path class="cls-2" d="M562.52,29.92l6.29-3.08v0l-2.34-1.14-1.54-.75-.57.16c-.62.19-1.24.4-1.85.63v4.2Z"/><path class="cls-2" d="M568.81,26.82v0h0l0,0h0l6.27-3.05v0l-.92-.45c-.87.08-1.81.18-2.82.31s-1.72.25-2.57.4Z"/><path class="cls-2" d="M575.16,23.75l0,0-6.27,3.05h0l6.29,3.05Z"/><path class="cls-2" d="M568.87,33h0L575.12,30v0l-6.29-3.07h0V33h0Z"/><path class="cls-2" d="M575.16,23.23l-.93.07.93.45Z"/><path class="cls-2" d="M568.81,26.86h0l-6.29,3.07h0l3.91,1.9L568.81,33Z"/><path class="cls-2" d="M572.77,47.25V43.44l-3.92,1.91Z"/><path class="cls-2" d="M568.81,39.17V33l-6.16,3v.14L566.42,38Z"/><path class="cls-2" d="M568.81,26.82V24c-1.32.25-2.61.56-3.88.92l1.54.75Z"/><path class="cls-2" d="M581.46,26.85v0l-6.28-3.06h0v6.15h0Z"/><path class="cls-2" d="M575.21,23.74h0l6.3,3.07V23.35a39.48,39.48,0,0,0-4.07-.21l-1,0-1.19.59Z"/><path class="cls-2" d="M575.21,23.74h0l1.19-.59-1.21.07v.51Z"/><path class="cls-2" d="M581.43,33h.07V26.85l-6.3,3.08h0Z"/><path class="cls-2" d="M577.8,32.7a24.84,24.84,0,0,1,3.63.25l-6.21-3h0v2.95l.13,0a18.87,18.87,0,0,1,2.47-.17Z"/><path class="cls-2" d="M568.81,51.48V45.37l-6.16,3v.09l3.77,1.84Zm0-6.13Z"/><path class="cls-2" d="M572.77,53.39v-3.8l-3.9,1.91Z"/><path class="cls-2" d="M568.87,51.5h0l3.9-1.91V47.27l-3.94-1.92h0v6.14h0Z"/><path class="cls-2" d="M568.81,45.35h0l-6.16-3v6l6.16-3Z"/><path class="cls-2" d="M592.75,38.35l1.39.67v.07h0V33h0v6Z"/><path class="cls-2" d="M587.88,29.83l.06,0,.13-.06-.09-.05-.1.05,0,0v.07Z"/><path class="cls-2" d="M594.14,39.17v2.14h0V39.17Z"/><path class="cls-2" d="M588.07,29.8l-.13.06,6.2,3v0h0V27.65h0v5.09Z"/><path class="cls-2" d="M594.15,39.17v-.05h0v.05Z"/><path class="cls-2" d="M594.14,33h0v-.05h0Z"/><path class="cls-2" d="M568.81,51.49h0l-2.39-1.17-3.77-1.84v6.05l6.16-3Z"/><path class="cls-2" d="M568.81,51.52l-6.16,3v.13l6.16,3Z"/><path class="cls-2" d="M572.77,53.41l-3.9-1.91,0,0h0v6.16h0l3.94-1.93Z"/><path class="cls-2" d="M572.77,59.57V55.76l-3.92,1.9Z"/><path class="cls-2" d="M581.5,26.83h.09l-.05,0,5.11-2.48a32.24,32.24,0,0,0-5.15-1v3.48Z"/><path class="cls-2" d="M581.59,26.83l6.25,3v-.06h0V24.69l-1.19-.37-5.11,2.48Z"/><path class="cls-2" d="M581.55,33l2-.95,4.29-2.1v0l-6.23-3,0,0h0V33Z"/><path class="cls-2" d="M583.51,32l-2,.95a18.51,18.51,0,0,1,4.23,1.16,20.64,20.64,0,0,1,2.06,1V29.93L583.51,32Z"/><path class="cls-2" d="M562.51,29.92v-4.2a21.46,21.46,0,0,0-4,1.93,3.28,3.28,0,0,0-.31.2l.26.13,4,1.94Z"/><path class="cls-2" d="M558.5,28l-.26-.12a4.51,4.51,0,0,0-2,2.76V32a2.73,2.73,0,0,0,.32.81l6-2.92Z"/><path class="cls-2" d="M556.84,33.31a5.31,5.31,0,0,0,.93.87,4.54,4.54,0,0,0,2.78.94L558,33.87Z"/><path class="cls-2" d="M562.51,29.93h0l-6,2.92a3,3,0,0,0,.32.46l1.16.56,2.57,1.25h.22a10.45,10.45,0,0,0,1.72-.26Z"/><path class="cls-2" d="M556.13,31.31a4.19,4.19,0,0,0,0,.5v-1A3.83,3.83,0,0,0,556.13,31.31Z"/><path class="cls-2" d="M568.81,57.74v0h0l0,0,0,0v0l-.06,0h0l-6.16-3v6.08L565,59.6Z"/><path class="cls-2" d="M572.77,65.8l-3.94-1.92h0V70h0l3.94-1.93Z"/><path class="cls-2" d="M568.81,63.88Zm0,0-6.16,3V67l6.16,3Z"/><path class="cls-2" d="M572.77,68.15l-3.92,1.91,6.31,3.06V69.94c-.82.11-1.62.21-2.39.29V68.15Z"/><path class="cls-2" d="M562.65,67.05v6l6.15-3Z"/><path class="cls-2" d="M575.12,79.3l-6.29-3.07h0v3.83q3-.3,6.21-.7l.1-.05Z"/><path class="cls-2" d="M575.12,73.15l-6.25,3.06,6.29,3.05V73.12l0,0Z"/><path class="cls-2" d="M575.12,73.14v0l-6.29-3.07h0v6.16h0l0,0,6.24-3.06Z"/><path class="cls-2" d="M568.81,76.19V70.05h0l-6.16,3v.13l3.81,1.86Z"/><path class="cls-2" d="M568.81,76.2l-2.35-1.15-3.81-1.86v1.64a7.64,7.64,0,0,0,.86,2.54,4.57,4.57,0,0,0,.82,1l4.48-2.2Z"/><path class="cls-2" d="M568.81,76.23l-4.48,2.18a6.88,6.88,0,0,0,3.61,1.73h.19l.68-.07Z"/><path class="cls-2" d="M577.83,78l-2.61,1.28h0l.08,0,.67-.08c1.86-.23,3.72-.54,5.56-.93v-2.1L577.83,78Z"/><path class="cls-2" d="M581.5,76.19l-6.3-3.06h0v6.16h0L577.83,78l3.67-1.8h0Z"/><path class="cls-2" d="M581.5,76.19V70.05l-3.62,1.77-2.66,1.3h0l6.3,3.06Z"/><path class="cls-2" d="M568.81,63.88V57.74L565,59.6l-2.34,1.14v.13l3.79,1.85Z"/><path class="cls-2" d="M568.83,63.88,572.77,62V59.62l-3.91-1.9,0,0h0v6.16Zm0,0h0l-2.37-1.16-3.79-1.85v6.05l6.16-3Z"/><path class="cls-2" d="M577.88,71.82,581.5,70v0l-1.66-.8c-.7.14-1.41.26-2.13.37l-2.51.36v3.17h0Z"/><path class="cls-2" d="M581.5,68.85c-.54.13-1.1.25-1.66.36l1.66.8Z"/><path class="cls-2" d="M572.77,65.78V62l-3.92,1.91Zm21.37-6.42v4.27l-2-1,0,.05,2,1h0v.12h0V59.35Z"/><path class="cls-2" d="M587.84,66.84h0l0,0Zm0,0,.08,0,0,0-.08,0Zm6.25-2.95h0v-.05h0Z"/><path class="cls-2" d="M594.14,63.88V69.8l-6.12-3,0,0,6.16,3h0V70h0V63.88Z"/><path class="cls-2" d="M588,73.06,591.89,75l.07,0L588.06,73l0,0Zm6.13-3v3.67h0V70.05Z"/><path class="cls-2" d="M587.84,73h0l0,0Zm.17,0,0,0-.12-.06-.05,0Zm6.14-3v0h0v0Z"/><path class="cls-2" d="M583.5,69.09l-2,1,6.29,3V73h0v0h0V67Z"/><path class="cls-2" d="M581.53,76.23l0,0v2.12c.82-.17,1.63-.36,2.44-.56l.55-.14-2.92-1.42Z"/><path class="cls-2" d="M587.8,73.14v0l-6.21,3,2.94,1.42c1.12-.29,2.22-.63,3.31-1V73.12Z"/><path class="cls-2" d="M581.53,70.05l0,0v6.14l0,0,0,0h0l6.21-3v0Z"/><path class="cls-2" d="M587.8,66.94l-.35-.18-.15.08a24.77,24.77,0,0,1-4.56,1.7l-1.24.31V70h0l2-1L587.8,67Zm0-.13v-.25l-.34.18.34.16v-.05h0v0Z"/><path class="cls-2" d="M600.46,66.82h0l0,0,0,0h0Zm0-6.15,0,0v6.06h0l1.3-.63a26.7,26.7,0,0,0,2.07-3.83l-3.37-1.64Z"/><path class="cls-2" d="M600.49,66.76v0l0,0,.59.29c.23-.32.45-.65.67-1l-1.3.63Z"/><path class="cls-2" d="M600.48,66.82h0V68l.64-.86-.61-.3Z"/><path class="cls-2" d="M603.88,62.26q.17-.37.33-.78a32.21,32.21,0,0,0,1.09-3.18l-4.77,2.34Z"/><path class="cls-2" d="M600.49,48.31v0h0v6.1l0,0,5.84-2.86c0-.14,0-.28,0-.43l-5.62-2.74Z"/><path class="cls-2" d="M600.49,42.14h0v0l0,0v6.06h0l5.44-2.65c0-.31-.11-.61-.18-.92l-5-2.46Z"/><path class="cls-2" d="M600.49,48.29v0l.24.12,5.62,2.73v-.54a29.39,29.39,0,0,0-.42-5l-5.44,2.65Z"/><path class="cls-2" d="M600.49,54.46v0l.21.1L605.63,57a27.82,27.82,0,0,0,.7-5.38l-5.84,2.85Z"/><path class="cls-2" d="M600.49,54.48v0h0v6.1l0,0v0h0l4.77-2.34c.12-.43.23-.87.33-1.31l-4.93-2.4Z"/><path class="cls-2" d="M600.49,42.14l.22.11,5,2.45a28.17,28.17,0,0,0-1.32-4.49Z"/><path class="cls-2" d="M600.61,36l-.13.06h0v6.05h0l3.94-1.93,0-.08a26.21,26.21,0,0,0-1.34-2.9l-2.27-1.11-.18-.09Z"/><path class="cls-2" d="M600.61,36l.18.09,2.27,1.1c-.34-.63-.7-1.25-1.09-1.85Z"/><path class="cls-2" d="M600.46,35.94V33.27a25.17,25.17,0,0,0-2.14-2.36l-4.09,2Z"/><path class="cls-2" d="M594.14,39.05v0l-1.39-.67-1.43-.69A15,15,0,0,1,593,39.59Z"/><path class="cls-2" d="M594.14,39.17v-.12l-1.1.54a16.19,16.19,0,0,1,1.1,1.72Z"/><path class="cls-2" d="M587.84,29.85h0v5.27c.27.15.54.3.8.47l5.5-2.67v0l-6.2-3-.06,0Z"/><path class="cls-2" d="M588.64,35.59a15.72,15.72,0,0,1,2.68,2.07l1.43.69,1.39.67v-6.1l-5.5,2.67Z"/><path class="cls-2" d="M594.14,63.7h0Zm0,.12v-.06l-6.2,3,.08,0,6.12,3v-6Z"/><path class="cls-2" d="M594.14,63.76v0h0l-2-1a18,18,0,0,1-1.2,1.44,11.33,11.33,0,0,1-3,2.41v.25h0l0,0h0l.05,0,6.2-3Z"/><path class="cls-2" d="M588,66.87l-.08,0h0v6.09l6.29-3.05Z"/><path class="cls-2" d="M587.84,73l0,0h0l.05,0-.1,0v0Z"/><path class="cls-2" d="M594.14,70.05v-.18h0l-6.29,3.05.1,0,.12.06,3.9,1.89a24.18,24.18,0,0,0,2.18-1.2V70.05Z"/><path class="cls-2" d="M594.14,59.36a19.52,19.52,0,0,1-2,3.3l2,1Z"/><path class="cls-2" d="M587.89,73h0v3.59c1.21-.42,2.41-.9,3.58-1.43l.47-.23L588,73.06l-.12-.06Z"/><path class="cls-2" d="M594.19,39.08h0l0,0-.07,0Zm6.26-3h0V36l-6.24-3h0V39l6.26-3Z"/><path class="cls-2" d="M594.22,39.09h0l0,0v2.28a16.35,16.35,0,0,1,.91,2c.14.39.27.77.39,1.16l5-2.4v.07h0l0,0v0h0l-6.24-3Z"/><path class="cls-2" d="M594.26,39.07l6.19,3V36l-6.26,3,0,0,0,0Z"/><path class="cls-2" d="M600.46,36v.12h0l.13-.06,1.36-.66a24.29,24.29,0,0,0-1.51-2.1V36Z"/><path class="cls-2" d="M595.87,46l4.58,2.22v-6.1l-5,2.4c.15.49.27,1,.38,1.48Z"/><path class="cls-2" d="M600.45,66.75l-6.23-3h0v6.09l6.26-3v0h0l0,0v0h0Zm-6.23,3.12Z"/><path class="cls-2" d="M600.45,66.79l-6.26,3,0,0,0,0h0l.61.3,2.49,1.2.57-.51A27.9,27.9,0,0,0,600.45,68Z"/><path class="cls-2" d="M596.27,49.9c0,.13,0,.27,0,.4l4.19-2v.08h0v0h0L595.87,46a18.42,18.42,0,0,1,.4,3.87Z"/><path class="cls-2" d="M594.19,63.73v0l0,0Zm6.26,3v-6l-6.23,3.05,6.23,3Z"/><path class="cls-2" d="M594.22,69.87h0l0,0v3.8a24.19,24.19,0,0,0,3.12-2.31l-2.48-1.21-.61-.3Z"/><path class="cls-2" d="M596.14,52.29l4.31,2.08v-6.1l-4.18,2C596.25,51,596.21,51.63,596.14,52.29Z"/><path class="cls-2" d="M595.07,57.09l5.38-2.61v0h0v0h0l0,0-4.32-2.11A22.17,22.17,0,0,1,595.07,57.09Z"/><path class="cls-2" d="M594.8,57.85c-.19.48-.39.95-.61,1.42v4.46h0l6.23-3.05h0l0,0v0l0,0-5.63-2.74Z"/><path class="cls-2" d="M594.93,57.51a3.42,3.42,0,0,0-.13.34l0,0,5.62,2.71v-6.1l-5.38,2.61C595,57.23,595,57.37,594.93,57.51Z"/><path class="cls-2" d="M588.07,29.8l6.07,2.93V27.64l-.84-.5L588,29.75l.09.05Z"/><path class="cls-2" d="M587.84,29.78h0l0,0,.1-.05,5.32-2.61a30,30,0,0,0-3.6-1.77c-.61-.25-1.23-.48-1.86-.68Z"/><path class="cls-2" d="M594.22,32.89l4.08-2a26,26,0,0,0-4.11-3.22v5.2Z"/><path class="cls-1" d="M526.06,111.66h-5.53V98.72H526c4.13,0,7.1,2.45,7.1,6.46S530.17,111.66,526.06,111.66Zm0-2.91a3.46,3.46,0,0,0,3.64-3.57,3.34,3.34,0,0,0-3.62-3.55h-2.14v7.12Zm16.83,3.14c-4.21,0-6.21-2.29-6.21-5.47v-7.7h3.44v7.58a2.77,2.77,0,0,0,5.53,0V98.72h3.42v7.68C549.05,109.62,547.08,111.89,542.87,111.89Zm18-.23h-7.68V98.72h7.44c2.62,0,3.84,1.67,3.84,3.3a2.91,2.91,0,0,1-2.25,3,3.1,3.1,0,0,1,2.5,3.16c0,1.88-1.28,3.51-3.85,3.51Zm-1-8c.69,0,1.16-.37,1.16-1a1,1,0,0,0-1.16-1h-3.28v2Zm.12,5.1c.81,0,1.3-.41,1.3-1.11s-.47-1.08-1.3-1.08h-3.4v2.19Zm13.29,3.14a8.19,8.19,0,0,1-5.82-2.06l1.79-2.6a6,6,0,0,0,4.21,1.71c1.14,0,1.85-.39,1.85-1,0-1.7-7.42-.29-7.42-5.27,0-2.17,1.85-4.11,5.22-4.11a8.1,8.1,0,0,1,5.33,1.8l-1.85,2.5a6.14,6.14,0,0,0-3.84-1.35c-1,0-1.41.33-1.41.89,0,1.59,7.41.39,7.41,5.2,0,2.59-1.94,4.32-5.47,4.32Zm23.76-.23h-3.38v-8.55l-3.31,8.55h-1.49l-3.33-8.55v8.55h-3.38V98.72h4.7l2.76,7.14,2.73-7.14h4.7Zm16.94,0h-3.84l-.65-1.86h-5.18l-.64,1.86h-3.84l4.94-12.94h4.27L614,111.66Zm-5.42-4.77L606.94,102l-1.67,4.87Zm13,5a8.16,8.16,0,0,1-5.82-2.06l1.79-2.6a6,6,0,0,0,4.21,1.71c1.14,0,1.85-.39,1.85-1,0-1.7-7.42-.29-7.42-5.27,0-2.17,1.85-4.11,5.21-4.11a8.11,8.11,0,0,1,5.34,1.8l-1.86,2.5a6.12,6.12,0,0,0-3.83-1.35c-1,0-1.42.33-1.42.89,0,1.59,7.42.39,7.42,5.2C627.06,110.16,625.11,111.89,621.59,111.89Zm21.08-.23h-3.38v-5.2h-5.45v5.2h-3.38V98.72h3.38v4.83h5.45V98.72h3.38Z"/><polygon class="cls-1" points="718.52 112.56 726.23 112.56 726.23 114.19 720.35 114.19 720.35 116.89 725.55 116.89 725.55 118.52 720.35 118.52 720.35 121.31 726.3 121.31 726.3 122.94 718.52 122.94 718.52 112.56"/><polygon class="cls-1" points="730.1 112.56 731.79 112.56 737.37 119.74 737.37 112.56 739.14 112.56 739.14 122.94 737.62 122.94 731.88 115.55 731.88 122.94 730.1 122.94 730.1 112.56"/><polygon class="cls-1" points="745.7 114.25 742.4 114.25 742.4 112.56 750.85 112.56 750.85 114.25 747.56 114.25 747.56 122.94 745.7 122.94 745.7 114.25"/><polygon class="cls-1" points="754.4 112.56 762.1 112.56 762.1 114.19 756.23 114.19 756.23 116.89 761.44 116.89 761.44 118.52 756.23 118.52 756.23 121.31 762.19 121.31 762.19 122.94 754.4 122.94 754.4 112.56"/><path class="cls-1" d="M770.48,117.7c1.31,0,2.14-.68,2.14-1.73v0c0-1.11-.8-1.72-2.15-1.72H767.8v3.48ZM766,112.56h4.62a4.16,4.16,0,0,1,3,1,3.15,3.15,0,0,1,.85,2.24v0A3.14,3.14,0,0,1,772,119l2.8,3.93h-2.16l-2.54-3.63h-2.3V123H766Z"/><polygon class="cls-1" points="780.6 114.25 777.32 114.25 777.32 112.56 785.74 112.56 785.74 114.25 782.45 114.25 782.45 122.94 780.6 122.94 780.6 114.25"/><path class="cls-1" d="M793.67,118.82l-1.8-4.15-1.78,4.15Zm-2.62-6.33h1.7L797.32,123h-1.93l-1.06-2.5h-4.9l-1.07,2.5h-1.87Z"/><rect class="cls-1" x="800.24" y="112.57" width="1.82" height="10.38"/><polygon class="cls-1" points="806.48 112.56 808.17 112.56 813.74 119.74 813.74 112.56 815.54 112.56 815.54 122.94 814 122.94 808.27 115.55 808.27 122.94 806.48 122.94 806.48 112.56"/><polygon class="cls-1" points="819.84 112.56 821.78 112.56 824.95 117.47 828.11 112.56 830.06 112.56 830.06 122.94 828.23 122.94 828.23 115.5 824.95 120.39 824.88 120.39 821.63 115.52 821.63 122.94 819.84 122.94 819.84 112.56"/><polygon class="cls-1" points="834.35 112.56 842.05 112.56 842.05 114.19 836.18 114.19 836.18 116.89 841.39 116.89 841.39 118.52 836.18 118.52 836.18 121.31 842.12 121.31 842.12 122.94 834.35 122.94 834.35 112.56"/><polygon class="cls-1" points="845.93 112.56 847.63 112.56 853.18 119.74 853.18 112.56 854.99 112.56 854.99 122.94 853.46 122.94 847.73 115.55 847.73 122.94 845.93 122.94 845.93 112.56"/><polygon class="cls-1" points="861.85 114.25 858.54 114.25 858.54 112.56 866.98 112.56 866.98 114.25 863.68 114.25 863.68 122.94 861.85 122.94 861.85 114.25"/><path class="cls-1" d="M870.54,120.38c.29,0,.45-.15.45-.37v0c0-.25-.18-.38-.46-.38H870v.77Zm-1.15-1.28h1.16a1.1,1.1,0,0,1,.81.29.79.79,0,0,1,.21.57h0a.8.8,0,0,1-.56.81l.64.94H871l-.56-.84H870v.84h-.57Zm3.18,1.38h0a2.18,2.18,0,0,0-4.35,0v0a2.18,2.18,0,1,0,4.35,0m-4.63,0v0a2.46,2.46,0,0,1,4.92,0h0a2.48,2.48,0,0,1-2.47,2.47,2.45,2.45,0,0,1-2.45-2.45"/><path class="cls-1" d="M729.07,105.4c-7.17,0-11.64-4.81-11.64-10.18,0-5.16,4.88-11,11.76-11a14.57,14.57,0,0,1,6.65,1.67,15.46,15.46,0,0,1,.59,4.35c0,.15-.49.12-.53,0-.53-2.41-2.82-5.1-7.45-5.1s-8.16,3.28-8.16,8.9c0,6.85,4.62,10.33,9.05,10.33,3.24,0,6.43-1.92,6.68-5.09,0-.1.58-.13.58.07-.08,1.91-.39,4.16-.65,4.34-1.11.84-3.06,1.67-6.88,1.67"/><path class="cls-1" d="M748.13,96.17h6.39l-2.89-7.94Zm11.42,8.61a41.64,41.64,0,0,0-4.76.19c-.23.06-.12-.59,0-.59,1.41-.16,2.16-.12,2.16-1a14.31,14.31,0,0,0-1.18-3.91L754.84,97h-7.09l-1.08,2.47a12,12,0,0,0-1.33,3.91c0,.71.59.85,2,1,.16,0,.22.65,0,.59a18.4,18.4,0,0,0-3-.19,17.33,17.33,0,0,0-3.17.19c-.26.06-.12-.59,0-.59,2.1-.16,2.89-1.45,4.43-4.94l6.74-15a.34.34,0,0,1,.58,0l5.74,15c1.44,3.76,2,4.78,4.61,5,.08,0,.22.6-.1.57a27,27,0,0,0-3.57-.19"/><path class="cls-1" d="M781.59,104.92c-1.16,0-3.14-.15-5.43-.15-3.14,0-6.34,0-8.61.19-.27,0-.11-.59,0-.59,3.14-.35,3.19-.22,3.19-4.91V90.15c0-4.71-.05-4.59-3.19-5-.09,0-.28-.6,0-.55,2.27.15,5.32.22,8.47.22,2.31,0,4.41-.07,6.26-.22a5.3,5.3,0,0,0-.22,1.8c0,.31,0,.92,0,1.17s-.52.1-.55,0c-.24-1.37-.9-1.76-5-1.76h-3a31.85,31.85,0,0,0-.15,4.15v4h3.19c3.41,0,3.16-.25,3.36-1,0-.1.51,0,.56,0a9.49,9.49,0,0,0-.17,1.92,11.16,11.16,0,0,0,0,1.21c.07.17-.53.14-.56,0-.19-1-.37-1.34-3.23-1.34h-3.19v4.54c0,4,.49,4.41,1.92,4.41H777c4.74,0,5-.41,5.48-2.46,0-.07.6-.07.57.1-.12.77-.41,2.24-.59,2.88s-.34.65-.87.65"/><path class="cls-1" d="M788.73,103.32a26.86,26.86,0,0,1,.18-4.1c0-.15.56-.12.56,0,.22,3.16,1.95,5.24,5.19,5.24,2.1,0,4.12-1.14,4.12-3.63,0-5.15-9.35-5.18-9.35-10.83a6,6,0,0,1,6.12-5.73,8.14,8.14,0,0,1,4.07,1c.25.15.47,1.32.47,3.4,0,.16-.63.12-.63,0a3.82,3.82,0,0,0-4.15-3.46c-1.95,0-3.74,1.22-3.74,3.15,0,4.94,9.17,4.84,9.17,10.77a6.24,6.24,0,0,1-6.36,6.3,8.43,8.43,0,0,1-5.65-2.08"/><path class="cls-1" d="M810.38,96.17h6.41l-2.9-7.94Zm11.42,8.61a41.27,41.27,0,0,0-4.74.19c-.25.06-.13-.59,0-.59,1.42-.16,2.18-.12,2.18-1A14.39,14.39,0,0,0,818,99.5L817.09,97H810l-1.1,2.47a12.29,12.29,0,0,0-1.33,3.91c0,.71.6.85,2,1,.16,0,.23.65,0,.59a18.32,18.32,0,0,0-3-.19,17.4,17.4,0,0,0-3.17.19c-.24.06-.12-.59,0-.59,2.1-.16,2.88-1.45,4.43-4.94l6.74-15a.35.35,0,0,1,.59,0l5.75,15c1.42,3.76,2,4.78,4.59,5,.08,0,.22.6-.1.57a27,27,0,0,0-3.58-.19"/><path class="cls-1" d="M834.67,85.51a25.27,25.27,0,0,0-.22,4.34V95c.44,0,.65,0,1.18,0,4.66,0,6.3-1.68,6.3-4.25,0-4.24-2.78-5.31-5.88-5.31-.48,0-.86,0-1.38.06m3.45,10.19a18.51,18.51,0,0,1-2.46.17,8.43,8.43,0,0,1-1.21-.05v3.65c0,4.48,0,4.69,2.9,4.91.08,0,.24.62-.07.59a33.1,33.1,0,0,0-3.84-.18,38.52,38.52,0,0,0-4.57.18c-.24.06-.12-.59,0-.59,2.79-.28,2.91-.26,2.91-4.91V90.13c0-3.51-.06-4.6-1.83-4.6a8.93,8.93,0,0,0-1.17.12c-.16,0-.35-.46-.07-.56a36.26,36.26,0,0,1,7.79-.51c4.53,0,8.25,1.39,8.25,4.83,0,1.74-1.07,4.3-4.34,5.62,1.68,4.47,6.56,9.84,10,9.84.08,0,.23.59,0,.59-7.27,0-10.89-4.88-12.25-9.76"/><path class="cls-1" d="M854.32,103.32a26.86,26.86,0,0,1,.18-4.1c0-.15.56-.12.56,0,.21,3.16,2,5.24,5.19,5.24,2.11,0,4.12-1.14,4.12-3.63,0-5.15-9.33-5.18-9.33-10.83a6,6,0,0,1,6.1-5.73,8.17,8.17,0,0,1,4.07,1c.25.15.47,1.32.47,3.4,0,.16-.62.12-.62,0a3.85,3.85,0,0,0-4.17-3.46c-1.95,0-3.71,1.22-3.71,3.15,0,4.94,9.15,4.84,9.15,10.77a6.25,6.25,0,0,1-6.37,6.3,8.42,8.42,0,0,1-5.64-2.08"/><path class="cls-1" d="M792.24,68.75c-8.16,0-12.94-1.44-12.79-11.6,7.18,2.33,5.85,9.54,12.79,11.6"/><path class="cls-1" d="M785.14,29c-5.59,5-11.18.3-16.43,5.28,4.1-7,7.72-10.48,16.43-5.28"/><path class="cls-1" d="M768.92,31.94c1.08-7.73-3.77-12,8-19.85,5.34,9.94-3.61,11.6-8,19.85"/><path class="cls-1" d="M778,33.71c-2.31,7.18-9.53,5.85-11.59,12.8,0-8.17,1.44-12.94,11.59-12.8"/><path class="cls-1" d="M765.42,44.86c-2.93-7.24-9.24-8.49-3-21.18,9.6,5.94,2.68,11.85,3,21.18"/><path class="cls-1" d="M755.65,41c11.28.35,8.24,8.93,13.2,16.83-6.16-4.8-12.24-2.72-13.2-16.83"/><path class="cls-1" d="M758.43,59.31c10-5.34,11.61,3.61,19.86,8-7.74-1.07-12,3.76-19.86-8"/><path class="cls-1" d="M770.51,58.29c-4.06-7.09-5.22-11.93,3.65-16.88,1.58,7.38-5.33,9.84-3.65,16.88"/><path class="cls-1" d="M774.69,50c5.06,5.58.3,11.18,5.29,16.43-7.06-4.11-10.49-7.72-5.29-16.43"/><path class="cls-1" d="M770,73.8c5.94-9.6,11.85-2.68,21.17-3C784,73.71,782.72,80,770,73.8"/><path class="cls-1" d="M793.3,68.75c8.16,0,12.94-1.44,12.79-11.6-7.18,2.32-5.85,9.54-12.79,11.6"/><path class="cls-1" d="M800.4,29c5.59,5,11.18.3,16.43,5.28-4.1-7.06-7.72-10.48-16.43-5.28"/><path class="cls-1" d="M816.62,31.94c-1.08-7.73,3.77-12-8-19.86-5.34,10,3.61,11.61,8,19.86"/><path class="cls-1" d="M807.56,33.71c2.32,7.18,9.53,5.85,11.59,12.8,0-8.16-1.44-12.94-11.59-12.8"/><path class="cls-1" d="M820.12,44.86c2.93-7.24,9.24-8.49,3-21.19-9.6,5.95-2.68,11.86-3,21.19"/><path class="cls-1" d="M829.89,41c-11.28.35-8.24,8.93-13.2,16.83,6.16-4.8,12.25-2.72,13.2-16.83"/><path class="cls-1" d="M827.11,59.31c-10-5.35-11.61,3.61-19.86,8,7.74-1.08,12,3.76,19.86-8"/><path class="cls-1" d="M815,58.29c4.05-7.09,5.22-11.93-3.64-16.88-1.59,7.38,5.32,9.84,3.64,16.88"/><path class="cls-1" d="M810.85,50c-5.06,5.59-.3,11.18-5.28,16.44,7-4.11,10.48-7.72,5.28-16.44"/><path class="cls-1" d="M815.51,73.79c-5.94-9.59-11.85-2.67-21.18-3,7.24,3,8.49,9.25,21.18,3"/><path class="cls-2" d="M40.59,81.46c-2.5-1.56-4.34-7-4.34-13.38,0-.24,0-.47,0-.7h0c-6.95-1.09-12-4.09-12.1-7.63h0l0,0h0A11.34,11.34,0,0,0,21.47,67c0,7.66,8.41,13.94,19.08,14.49h0ZM18.25,67.52C18.25,58.94,28.92,52,42.09,52s23.83,6.95,23.83,15.53S55.25,83,42.09,83s-23.84-7-23.84-15.52ZM42.09,54.23c2.54,0,4.7,3.86,5.5,9.23h0c4.95-.77,8.41-2.55,8.41-4.61,0-2.78-6.23-5-13.91-5s-13.91,2.24-13.91,5c0,2.06,3.46,3.84,8.4,4.61h0c.8-5.37,3-9.23,5.51-9.23Zm1.53,27.22C54.29,80.9,62.7,74.62,62.7,67A11.34,11.34,0,0,0,60,59.8h0l0,0h0c-.13,3.54-5.15,6.54-12.1,7.63h0c0,.23,0,.46,0,.7,0,6.41-1.84,11.82-4.34,13.38h0ZM42.09,63.86c1.13,0,2.24,0,3.3-.14h0c-.53-3.44-1.81-5.88-3.3-5.88s-2.78,2.44-3.31,5.88h0c1.06.1,2.17.14,3.31.14Zm0,12.77c1.91,0,3.47-4,3.55-9h0c-1.15.11-2.34.16-3.56.16s-2.42,0-3.57-.16h0c.08,5,1.64,9,3.56,9Z"/><path class="cls-2" d="M139.86,67.52a11.87,11.87,0,1,1,11.86,11.86,11.86,11.86,0,0,1-11.86-11.86ZM151.72,75c3.66,0,6.63-3.36,6.63-7.51s-3-7.52-6.63-7.52-6.62,3.37-6.62,7.52,3,7.51,6.62,7.51Z"/><polygon class="cls-2" points="177.06 60.59 177.06 78.84 172.06 78.84 172.06 60.59 172.07 60.59 165.08 60.59 165.08 56.47 184.03 56.47 184.03 60.59 177.07 60.59 177.06 60.59 177.06 60.59 177.06 60.59"/><path class="cls-2" d="M190.08,73.81h0l-1.92,5h-5.83l9.23-22.37h6.22L207,78.84h-5.84l-1.92-5h-9.16ZM194.66,70h3.14l-3.12-8.19h0L191.51,70h3.15Z"/><polygon class="cls-2" points="84.9 60.59 84.9 78.84 79.9 78.84 79.9 60.59 79.91 60.59 72.92 60.59 72.92 56.47 91.87 56.47 91.87 60.59 84.91 60.59 84.9 60.59 84.9 60.59 84.9 60.59"/><path class="cls-2" d="M93.15,67.52A11.87,11.87,0,1,1,105,79.38,11.86,11.86,0,0,1,93.15,67.52ZM105,75c3.66,0,6.62-3.36,6.62-7.51S108.68,60,105,60s-6.63,3.37-6.63,7.52S101.36,75,105,75Z"/><polygon class="cls-2" points="128.37 78.84 130.91 78.84 130.91 70.45 130.91 70.35 139.63 56.47 133.79 56.47 128.37 65.87 122.95 56.47 117.11 56.47 125.84 70.35 125.84 70.45 125.84 78.84 128.37 78.84 128.37 78.84 128.37 78.84"/></g></svg>